<svg xmlns="http://www.w3.org/2000/svg" xmlns:xlink="http://www.w3.org/1999/xlink" id="body_508" preserveAspectRatio="xMinYMin meet" viewBox="0 0 793 1121"><defs><clipPath id="1"><path id="" clip-rule="evenodd" d="M0 841L0 -0.9199829L0 -0.9199829L595.32 -0.9199829L595.32 -0.9199829L595.32 841L595.32 841L0 841z" /></clipPath><clipPath id="2"><path id="" clip-rule="evenodd" d="M0 840.9999L595.32 840.9999L595.32 840.9999L595.32 -0.9200439L595.32 -0.9200439L0 -0.9200439z" /></clipPath><clipPath id="3"><path id="" clip-rule="evenodd" d="M8.871E-06 841L595.32 841L595.32 841L595.32 -0.9199829L595.32 -0.9199829L8.871E-06 -0.9199829z" /></clipPath><clipPath id="4"><path id="" clip-rule="evenodd" d="M8.871E-06 841L595.32 841L595.32 841L595.32 -0.9199829L595.32 -0.9199829L8.871E-06 -0.9199829z" /></clipPath><clipPath id="5"><path id="" clip-rule="evenodd" d="M8.871E-06 841L595.32 841L595.32 841L595.32 -0.9199829L595.32 -0.9199829L8.871E-06 -0.9199829z" /></clipPath><clipPath id="6"><path id="" clip-rule="evenodd" d="M8.871E-06 841L595.32 841L595.32 841L595.32 -0.9199829L595.32 -0.9199829L8.871E-06 -0.9199829z" /></clipPath><clipPath id="7"><path id="" clip-rule="evenodd" d="M8.871E-06 841L595.32 841L595.32 841L595.32 -0.9199829L595.32 -0.9199829L8.871E-06 -0.9199829z" /></clipPath><clipPath id="8"><path id="" clip-rule="evenodd" d="M8.871E-06 841L595.32 841L595.32 841L595.32 -0.9199829L595.32 -0.9199829L8.871E-06 -0.9199829z" /></clipPath><clipPath id="9"><path id="" clip-rule="evenodd" d="M8.871E-06 841L595.32 841L595.32 841L595.32 -0.9199829L595.32 -0.9199829L8.871E-06 -0.9199829z" /></clipPath><clipPath id="10"><path id="" clip-rule="evenodd" d="M8.871E-06 841L595.32 841L595.32 841L595.32 -0.9199829L595.32 -0.9199829L8.871E-06 -0.9199829z" /></clipPath><clipPath id="11"><path id="" clip-rule="evenodd" d="M8.871E-06 841L595.32 841L595.32 841L595.32 -0.9199829L595.32 -0.9199829L8.871E-06 -0.9199829z" /></clipPath><clipPath id="12"><path id="" clip-rule="evenodd" d="M8.871E-06 841L595.32 841L595.32 841L595.32 -0.9199829L595.32 -0.9199829L8.871E-06 -0.9199829z" /></clipPath><clipPath id="13"><path id="" clip-rule="evenodd" d="M8.871E-06 841L595.32 841L595.32 841L595.32 -0.9199829L595.32 -0.9199829L8.871E-06 -0.9199829z" /></clipPath><clipPath id="14"><path id="" clip-rule="evenodd" d="M8.871E-06 841L595.32 841L595.32 841L595.32 -0.9199829L595.32 -0.9199829L8.871E-06 -0.9199829z" /></clipPath><clipPath id="15"><path id="" clip-rule="evenodd" d="M8.871E-06 841L595.32 841L595.32 841L595.32 -0.9199829L595.32 -0.9199829L8.871E-06 -0.9199829z" /></clipPath><clipPath id="16"><path id="" clip-rule="evenodd" d="M8.871E-06 841L595.32 841L595.32 841L595.32 -0.9199829L595.32 -0.9199829L8.871E-06 -0.9199829z" /></clipPath><clipPath id="17"><path id="" clip-rule="evenodd" d="M8.871E-06 841L595.32 841L595.32 841L595.32 -0.9199829L595.32 -0.9199829L8.871E-06 -0.9199829z" /></clipPath><clipPath id="18"><path id="" clip-rule="evenodd" d="M8.871E-06 841L595.32 841L595.32 841L595.32 -0.9199829L595.32 -0.9199829L8.871E-06 -0.9199829z" /></clipPath><clipPath id="19"><path id="" clip-rule="evenodd" d="M8.871E-06 841L595.32 841L595.32 841L595.32 -0.9199829L595.32 -0.9199829L8.871E-06 -0.9199829z" /></clipPath><clipPath id="20"><path id="" clip-rule="evenodd" d="M8.871E-06 841L595.32 841L595.32 841L595.32 -0.9199829L595.32 -0.9199829L8.871E-06 -0.9199829z" /></clipPath><clipPath id="21"><path id="" clip-rule="evenodd" d="M8.871E-06 841L595.32 841L595.32 841L595.32 -0.9199829L595.32 -0.9199829L8.871E-06 -0.9199829z" /></clipPath><clipPath id="22"><path id="" clip-rule="evenodd" d="M8.871E-06 841L595.32 841L595.32 841L595.32 -0.9199829L595.32 -0.9199829L8.871E-06 -0.9199829z" /></clipPath><clipPath id="23"><path id="" clip-rule="evenodd" d="M8.871E-06 841L595.32 841L595.32 841L595.32 -0.9199829L595.32 -0.9199829L8.871E-06 -0.9199829z" /></clipPath><clipPath id="24"><path id="" clip-rule="evenodd" d="M8.871E-06 841L595.32 841L595.32 841L595.32 -0.9199829L595.32 -0.9199829L8.871E-06 -0.9199829z" /></clipPath><clipPath id="25"><path id="" clip-rule="evenodd" d="M8.871E-06 841L595.32 841L595.32 841L595.32 -0.9199829L595.32 -0.9199829L8.871E-06 -0.9199829z" /></clipPath><clipPath id="26"><path id="" clip-rule="evenodd" d="M8.871E-06 841L595.32 841L595.32 841L595.32 -0.9199829L595.32 -0.9199829L8.871E-06 -0.9199829z" /></clipPath><clipPath id="27"><path id="" clip-rule="evenodd" d="M8.871E-06 841L595.32 841L595.32 841L595.32 -0.9199829L595.32 -0.9199829L8.871E-06 -0.9199829z" /></clipPath><clipPath id="28"><path id="" clip-rule="evenodd" d="M8.871E-06 841L595.32 841L595.32 841L595.32 -0.9199829L595.32 -0.9199829L8.871E-06 -0.9199829z" /></clipPath><clipPath id="29"><path id="" clip-rule="evenodd" d="M8.871E-06 841L595.32 841L595.32 841L595.32 -0.9199829L595.32 -0.9199829L8.871E-06 -0.9199829z" /></clipPath><clipPath id="30"><path id="" clip-rule="evenodd" d="M8.871E-06 841L595.32 841L595.32 841L595.32 -0.9199829L595.32 -0.9199829L8.871E-06 -0.9199829z" /></clipPath><clipPath id="31"><path id="" clip-rule="evenodd" d="M8.871E-06 841L595.32 841L595.32 841L595.32 -0.9199829L595.32 -0.9199829L8.871E-06 -0.9199829z" /></clipPath><clipPath id="32"><path id="" clip-rule="evenodd" d="M8.871E-06 841L595.32 841L595.32 841L595.32 -0.9199829L595.32 -0.9199829L8.871E-06 -0.9199829z" /></clipPath><clipPath id="33"><path id="" clip-rule="evenodd" d="M8.871E-06 841L595.32 841L595.32 841L595.32 -0.9199829L595.32 -0.9199829L8.871E-06 -0.9199829z" /></clipPath><clipPath id="34"><path id="" clip-rule="evenodd" d="M8.871E-06 841L595.32 841L595.32 841L595.32 -0.9199829L595.32 -0.9199829L8.871E-06 -0.9199829z" /></clipPath><clipPath id="35"><path id="" clip-rule="evenodd" d="M8.871E-06 841L595.32 841L595.32 841L595.32 -0.9199829L595.32 -0.9199829L8.871E-06 -0.9199829z" /></clipPath><clipPath id="36"><path id="" clip-rule="evenodd" d="M8.871E-06 841L595.32 841L595.32 841L595.32 -0.9199829L595.32 -0.9199829L8.871E-06 -0.9199829z" /></clipPath><clipPath id="37"><path id="" clip-rule="evenodd" d="M8.871E-06 841L595.32 841L595.32 841L595.32 -0.9199829L595.32 -0.9199829L8.871E-06 -0.9199829z" /></clipPath><clipPath id="38"><path id="" clip-rule="evenodd" d="M8.871E-06 841L595.32 841L595.32 841L595.32 -0.9199829L595.32 -0.9199829L8.871E-06 -0.9199829z" /></clipPath><clipPath id="39"><path id="" clip-rule="evenodd" d="M8.871E-06 841L595.32 841L595.32 841L595.32 -0.9199829L595.32 -0.9199829L8.871E-06 -0.9199829z" /></clipPath><clipPath id="40"><path id="" clip-rule="evenodd" d="M8.871E-06 841L595.32 841L595.32 841L595.32 -0.9199829L595.32 -0.9199829L8.871E-06 -0.9199829z" /></clipPath><clipPath id="41"><path id="" clip-rule="evenodd" d="M8.871E-06 841L595.32 841L595.32 841L595.32 -0.9199829L595.32 -0.9199829L8.871E-06 -0.9199829z" /></clipPath><clipPath id="42"><path id="" clip-rule="evenodd" d="M8.871E-06 841L595.32 841L595.32 841L595.32 -0.9199829L595.32 -0.9199829L8.871E-06 -0.9199829z" /></clipPath><clipPath id="43"><path id="" clip-rule="evenodd" d="M8.871E-06 841L595.32 841L595.32 841L595.32 -0.9199829L595.32 -0.9199829L8.871E-06 -0.9199829z" /></clipPath><clipPath id="44"><path id="" clip-rule="evenodd" d="M8.871E-06 841L595.32 841L595.32 841L595.32 -0.9199829L595.32 -0.9199829L8.871E-06 -0.9199829z" /></clipPath><clipPath id="45"><path id="" clip-rule="evenodd" d="M8.871E-06 841L595.32 841L595.32 841L595.32 -0.9199829L595.32 -0.9199829L8.871E-06 -0.9199829z" /></clipPath><clipPath id="46"><path id="" clip-rule="evenodd" d="M8.871E-06 841L595.32 841L595.32 841L595.32 -0.9199829L595.32 -0.9199829L8.871E-06 -0.9199829z" /></clipPath><clipPath id="47"><path id="" clip-rule="evenodd" d="M8.871E-06 841L595.32 841L595.32 841L595.32 -0.9199829L595.32 -0.9199829L8.871E-06 -0.9199829z" /></clipPath><clipPath id="48"><path id="" clip-rule="evenodd" d="M8.871E-06 841L595.32 841L595.32 841L595.32 -0.9199829L595.32 -0.9199829L8.871E-06 -0.9199829z" /></clipPath><clipPath id="49"><path id="" clip-rule="evenodd" d="M8.871E-06 841L595.32 841L595.32 841L595.32 -0.9199829L595.32 -0.9199829L8.871E-06 -0.9199829z" /></clipPath><clipPath id="50"><path id="" clip-rule="evenodd" d="M8.871E-06 841L595.32 841L595.32 841L595.32 -0.9199829L595.32 -0.9199829L8.871E-06 -0.9199829z" /></clipPath><clipPath id="51"><path id="" clip-rule="evenodd" d="M8.871E-06 841L595.32 841L595.32 841L595.32 -0.9199829L595.32 -0.9199829L8.871E-06 -0.9199829z" /></clipPath><clipPath id="52"><path id="" clip-rule="evenodd" d="M8.871E-06 841L595.32 841L595.32 841L595.32 -0.9199829L595.32 -0.9199829L8.871E-06 -0.9199829z" /></clipPath><clipPath id="53"><path id="" clip-rule="evenodd" d="M8.871E-06 841L595.32 841L595.32 841L595.32 -0.9199829L595.32 -0.9199829L8.871E-06 -0.9199829z" /></clipPath><clipPath id="54"><path id="" clip-rule="evenodd" d="M8.871E-06 841L595.32 841L595.32 841L595.32 -0.9199829L595.32 -0.9199829L8.871E-06 -0.9199829z" /></clipPath><clipPath id="55"><path id="" clip-rule="evenodd" d="M8.871E-06 841L595.32 841L595.32 841L595.32 -0.9199829L595.32 -0.9199829L8.871E-06 -0.9199829z" /></clipPath><clipPath id="56"><path id="" clip-rule="evenodd" d="M8.871E-06 841L595.32 841L595.32 841L595.32 -0.9199829L595.32 -0.9199829L8.871E-06 -0.9199829z" /></clipPath><clipPath id="57"><path id="" clip-rule="evenodd" d="M8.871E-06 841L595.32 841L595.32 841L595.32 -0.9199829L595.32 -0.9199829L8.871E-06 -0.9199829z" /></clipPath><clipPath id="58"><path id="" clip-rule="evenodd" d="M8.871E-06 841L595.32 841L595.32 841L595.32 -0.9199829L595.32 -0.9199829L8.871E-06 -0.9199829z" /></clipPath><clipPath id="59"><path id="" clip-rule="evenodd" d="M8.871E-06 841L595.32 841L595.32 841L595.32 -0.9199829L595.32 -0.9199829L8.871E-06 -0.9199829z" /></clipPath><clipPath id="60"><path id="" clip-rule="evenodd" d="M8.871E-06 841L595.32 841L595.32 841L595.32 -0.9199829L595.32 -0.9199829L8.871E-06 -0.9199829z" /></clipPath><clipPath id="61"><path id="" clip-rule="evenodd" d="M8.871E-06 841L595.32 841L595.32 841L595.32 -0.9199829L595.32 -0.9199829L8.871E-06 -0.9199829z" /></clipPath><clipPath id="62"><path id="" clip-rule="evenodd" d="M8.871E-06 841L595.32 841L595.32 841L595.32 -0.9199829L595.32 -0.9199829L8.871E-06 -0.9199829z" /></clipPath><clipPath id="63"><path id="" clip-rule="evenodd" d="M8.871E-06 841L595.32 841L595.32 841L595.32 -0.9199829L595.32 -0.9199829L8.871E-06 -0.9199829z" /></clipPath><clipPath id="64"><path id="" clip-rule="evenodd" d="M8.871E-06 841L595.32 841L595.32 841L595.32 -0.9199829L595.32 -0.9199829L8.871E-06 -0.9199829z" /></clipPath><clipPath id="65"><path id="" clip-rule="evenodd" d="M8.871E-06 841L595.32 841L595.32 841L595.32 -0.9199829L595.32 -0.9199829L8.871E-06 -0.9199829z" /></clipPath><clipPath id="66"><path id="" clip-rule="evenodd" d="M8.871E-06 841L595.32 841L595.32 841L595.32 -0.9199829L595.32 -0.9199829L8.871E-06 -0.9199829z" /></clipPath><clipPath id="67"><path id="" clip-rule="evenodd" d="M8.871E-06 841L595.32 841L595.32 841L595.32 -0.9199829L595.32 -0.9199829L8.871E-06 -0.9199829z" /></clipPath><clipPath id="68"><path id="" clip-rule="evenodd" d="M8.871E-06 841L595.32 841L595.32 841L595.32 -0.9199829L595.32 -0.9199829L8.871E-06 -0.9199829z" /></clipPath><clipPath id="69"><path id="" clip-rule="evenodd" d="M8.871E-06 841L595.32 841L595.32 841L595.32 -0.9199829L595.32 -0.9199829L8.871E-06 -0.9199829z" /></clipPath><clipPath id="70"><path id="" clip-rule="evenodd" d="M8.871E-06 841L595.32 841L595.32 841L595.32 -0.9199829L595.32 -0.9199829L8.871E-06 -0.9199829z" /></clipPath><clipPath id="71"><path id="" clip-rule="evenodd" d="M8.871E-06 841L595.32 841L595.32 841L595.32 -0.9199829L595.32 -0.9199829L8.871E-06 -0.9199829z" /></clipPath><clipPath id="72"><path id="" clip-rule="evenodd" d="M8.871E-06 841L595.32 841L595.32 841L595.32 -0.9199829L595.32 -0.9199829L8.871E-06 -0.9199829z" /></clipPath><clipPath id="73"><path id="" clip-rule="evenodd" d="M8.871E-06 841L595.32 841L595.32 841L595.32 -0.9199829L595.32 -0.9199829L8.871E-06 -0.9199829z" /></clipPath><clipPath id="74"><path id="" clip-rule="evenodd" d="M8.871E-06 841L595.32 841L595.32 841L595.32 -0.9199829L595.32 -0.9199829L8.871E-06 -0.9199829z" /></clipPath><clipPath id="75"><path id="" clip-rule="evenodd" d="M8.871E-06 841L595.32 841L595.32 841L595.32 -0.9199829L595.32 -0.9199829L8.871E-06 -0.9199829z" /></clipPath><clipPath id="76"><path id="" clip-rule="evenodd" d="M8.871E-06 841L595.32 841L595.32 841L595.32 -0.9199829L595.32 -0.9199829L8.871E-06 -0.9199829z" /></clipPath><clipPath id="77"><path id="" clip-rule="evenodd" d="M8.871E-06 841L595.32 841L595.32 841L595.32 -0.9199829L595.32 -0.9199829L8.871E-06 -0.9199829z" /></clipPath><clipPath id="78"><path id="" clip-rule="evenodd" d="M8.871E-06 841L595.32 841L595.32 841L595.32 -0.9199829L595.32 -0.9199829L8.871E-06 -0.9199829z" /></clipPath><clipPath id="79"><path id="" clip-rule="evenodd" d="M8.871E-06 841L595.32 841L595.32 841L595.32 -0.9199829L595.32 -0.9199829L8.871E-06 -0.9199829z" /></clipPath><clipPath id="80"><path id="" clip-rule="evenodd" d="M8.871E-06 841L595.32 841L595.32 841L595.32 -0.9199829L595.32 -0.9199829L8.871E-06 -0.9199829z" /></clipPath><clipPath id="81"><path id="" clip-rule="evenodd" d="M8.871E-06 841L595.32 841L595.32 841L595.32 -0.9199829L595.32 -0.9199829L8.871E-06 -0.9199829z" /></clipPath><clipPath id="82"><path id="" clip-rule="evenodd" d="M8.871E-06 841L595.32 841L595.32 841L595.32 -0.9199829L595.32 -0.9199829L8.871E-06 -0.9199829z" /></clipPath><clipPath id="83"><path id="" clip-rule="evenodd" d="M8.871E-06 841L595.32 841L595.32 841L595.32 -0.9199829L595.32 -0.9199829L8.871E-06 -0.9199829z" /></clipPath><clipPath id="84"><path id="" clip-rule="evenodd" d="M8.871E-06 841L595.32 841L595.32 841L595.32 -0.9199829L595.32 -0.9199829L8.871E-06 -0.9199829z" /></clipPath><clipPath id="85"><path id="" clip-rule="evenodd" d="M8.871E-06 841L595.32 841L595.32 841L595.32 -0.9199829L595.32 -0.9199829L8.871E-06 -0.9199829z" /></clipPath><clipPath id="86"><path id="" clip-rule="evenodd" d="M8.871E-06 841L595.32 841L595.32 841L595.32 -0.9199829L595.32 -0.9199829L8.871E-06 -0.9199829z" /></clipPath><clipPath id="87"><path id="" clip-rule="evenodd" d="M8.871E-06 841L595.32 841L595.32 841L595.32 -0.9199829L595.32 -0.9199829L8.871E-06 -0.9199829z" /></clipPath><clipPath id="88"><path id="" clip-rule="evenodd" d="M8.871E-06 841L595.32 841L595.32 841L595.32 -0.9199829L595.32 -0.9199829L8.871E-06 -0.9199829z" /></clipPath><clipPath id="89"><path id="" clip-rule="evenodd" d="M8.871E-06 841L595.32 841L595.32 841L595.32 -0.9199829L595.32 -0.9199829L8.871E-06 -0.9199829z" /></clipPath><clipPath id="90"><path id="" clip-rule="evenodd" d="M8.871E-06 841L595.32 841L595.32 841L595.32 -0.9199829L595.32 -0.9199829L8.871E-06 -0.9199829z" /></clipPath><clipPath id="91"><path id="" clip-rule="evenodd" d="M8.871E-06 841L595.32 841L595.32 841L595.32 -0.9199829L595.32 -0.9199829L8.871E-06 -0.9199829z" /></clipPath><clipPath id="92"><path id="" clip-rule="evenodd" d="M8.871E-06 841L595.32 841L595.32 841L595.32 -0.9199829L595.32 -0.9199829L8.871E-06 -0.9199829z" /></clipPath><clipPath id="93"><path id="" clip-rule="evenodd" d="M8.871E-06 841L595.32 841L595.32 841L595.32 -0.9199829L595.32 -0.9199829L8.871E-06 -0.9199829z" /></clipPath><clipPath id="94"><path id="" clip-rule="evenodd" d="M8.871E-06 841L595.32 841L595.32 841L595.32 -0.9199829L595.32 -0.9199829L8.871E-06 -0.9199829z" /></clipPath><clipPath id="95"><path id="" clip-rule="evenodd" d="M8.871E-06 841L595.32 841L595.32 841L595.32 -0.9199829L595.32 -0.9199829L8.871E-06 -0.9199829z" /></clipPath><clipPath id="96"><path id="" clip-rule="evenodd" d="M8.871E-06 841L595.32 841L595.32 841L595.32 -0.9199829L595.32 -0.9199829L8.871E-06 -0.9199829z" /></clipPath><clipPath id="97"><path id="" clip-rule="evenodd" d="M8.871E-06 841L595.32 841L595.32 841L595.32 -0.9199829L595.32 -0.9199829L8.871E-06 -0.9199829z" /></clipPath><clipPath id="98"><path id="" clip-rule="evenodd" d="M8.871E-06 841L595.32 841L595.32 841L595.32 -0.9199829L595.32 -0.9199829L8.871E-06 -0.9199829z" /></clipPath><clipPath id="99"><path id="" clip-rule="evenodd" d="M8.871E-06 841L595.32 841L595.32 841L595.32 -0.9199829L595.32 -0.9199829L8.871E-06 -0.9199829z" /></clipPath><clipPath id="100"><path id="" clip-rule="evenodd" d="M8.871E-06 841L595.32 841L595.32 841L595.32 -0.9199829L595.32 -0.9199829L8.871E-06 -0.9199829z" /></clipPath><clipPath id="101"><path id="" clip-rule="evenodd" d="M8.871E-06 841L595.32 841L595.32 841L595.32 -0.9199829L595.32 -0.9199829L8.871E-06 -0.9199829z" /></clipPath><clipPath id="102"><path id="" clip-rule="evenodd" d="M8.871E-06 841L595.32 841L595.32 841L595.32 -0.9199829L595.32 -0.9199829L8.871E-06 -0.9199829z" /></clipPath><clipPath id="103"><path id="" clip-rule="evenodd" d="M0 840.9999L595.32 840.9999L595.32 840.9999L595.32 -0.9200439L595.32 -0.9200439L0 -0.9200439z" /></clipPath><clipPath id="104"><path id="" clip-rule="evenodd" d="M158.56 504.69L436.8534 504.69L436.8534 504.69L436.8534 292.8806L436.8534 292.8806L158.56 292.8806z" /></clipPath><clipPath id="105"><path id="" clip-rule="evenodd" d="M127.8241 512.5218L469.5127 512.5218L469.5127 512.5218L469.5127 271.3672L469.5127 271.3672L127.8241 271.3672z" /></clipPath><clipPath id="106"><path id="" clip-rule="evenodd" d="M188.9343 472.4807L422.0174 472.4808L422.0174 472.4808L422.0174 299.3513L422.0174 299.3513L188.9343 299.3513z" /></clipPath><clipPath id="107"><path id="" clip-rule="evenodd" d="M188.9343 472.4807L422.0174 472.4808L422.0174 472.4808L422.0174 299.3513L422.0174 299.3513L188.9343 299.3513z" /></clipPath><clipPath id="108"><path id="" clip-rule="evenodd" d="M188.9343 472.4807L422.0174 472.4808L422.0174 472.4808L422.0174 299.3513L422.0174 299.3513L188.9343 299.3513z" /></clipPath><clipPath id="109"><path id="" clip-rule="evenodd" d="M188.9343 472.4807L422.0174 472.4808L422.0174 472.4808L422.0174 299.3513L422.0174 299.3513L188.9343 299.3513z" /></clipPath><clipPath id="110"><path id="" clip-rule="evenodd" d="M8.871E-06 841L595.32 841L595.32 841L595.32 -0.9199829L595.32 -0.9199829L8.871E-06 -0.9199829z" /></clipPath><clipPath id="111"><path id="" clip-rule="evenodd" d="M8.871E-06 841L595.32 841L595.32 841L595.32 -0.9199829L595.32 -0.9199829L8.871E-06 -0.9199829z" /></clipPath><clipPath id="112"><path id="" clip-rule="evenodd" d="M8.871E-06 841L595.32 841L595.32 841L595.32 -0.9199829L595.32 -0.9199829L8.871E-06 -0.9199829z" /></clipPath><clipPath id="113"><path id="" clip-rule="evenodd" d="M8.871E-06 841L595.32 841L595.32 841L595.32 -0.9199829L595.32 -0.9199829L8.871E-06 -0.9199829z" /></clipPath><clipPath id="114"><path id="" clip-rule="evenodd" d="M8.871E-06 841L595.32 841L595.32 841L595.32 -0.9199829L595.32 -0.9199829L8.871E-06 -0.9199829z" /></clipPath><clipPath id="115"><path id="" clip-rule="evenodd" d="M8.871E-06 841L595.32 841L595.32 841L595.32 -0.9199829L595.32 -0.9199829L8.871E-06 -0.9199829z" /></clipPath><clipPath id="116"><path id="" clip-rule="evenodd" d="M8.871E-06 841L595.32 841L595.32 841L595.32 -0.9199829L595.32 -0.9199829L8.871E-06 -0.9199829z" /></clipPath><clipPath id="117"><path id="" clip-rule="evenodd" d="M8.871E-06 841L595.32 841L595.32 841L595.32 -0.9199829L595.32 -0.9199829L8.871E-06 -0.9199829z" /></clipPath><clipPath id="118"><path id="" clip-rule="evenodd" d="M8.871E-06 841L595.32 841L595.32 841L595.32 -0.9199829L595.32 -0.9199829L8.871E-06 -0.9199829z" /></clipPath><clipPath id="119"><path id="" clip-rule="evenodd" d="M8.871E-06 841L595.32 841L595.32 841L595.32 -0.9199829L595.32 -0.9199829L8.871E-06 -0.9199829z" /></clipPath><clipPath id="120"><path id="" clip-rule="evenodd" d="M8.871E-06 841L595.32 841L595.32 841L595.32 -0.9199829L595.32 -0.9199829L8.871E-06 -0.9199829z" /></clipPath><clipPath id="121"><path id="" clip-rule="evenodd" d="M8.871E-06 841L595.32 841L595.32 841L595.32 -0.9199829L595.32 -0.9199829L8.871E-06 -0.9199829z" /></clipPath><clipPath id="122"><path id="" clip-rule="evenodd" d="M8.871E-06 841L595.32 841L595.32 841L595.32 -0.9199829L595.32 -0.9199829L8.871E-06 -0.9199829z" /></clipPath><clipPath id="123"><path id="" clip-rule="evenodd" d="M8.871E-06 841L595.32 841L595.32 841L595.32 -0.9199829L595.32 -0.9199829L8.871E-06 -0.9199829z" /></clipPath><clipPath id="124"><path id="" clip-rule="evenodd" d="M8.871E-06 841L595.32 841L595.32 841L595.32 -0.9199829L595.32 -0.9199829L8.871E-06 -0.9199829z" /></clipPath><clipPath id="125"><path id="" clip-rule="evenodd" d="M8.871E-06 841L595.32 841L595.32 841L595.32 -0.9199829L595.32 -0.9199829L8.871E-06 -0.9199829z" /></clipPath><clipPath id="126"><path id="" clip-rule="evenodd" d="M8.871E-06 841L595.32 841L595.32 841L595.32 -0.9199829L595.32 -0.9199829L8.871E-06 -0.9199829z" /></clipPath><clipPath id="127"><path id="" clip-rule="evenodd" d="M8.871E-06 841L595.32 841L595.32 841L595.32 -0.9199829L595.32 -0.9199829L8.871E-06 -0.9199829z" /></clipPath><clipPath id="128"><path id="" clip-rule="evenodd" d="M8.871E-06 841L595.32 841L595.32 841L595.32 -0.9199829L595.32 -0.9199829L8.871E-06 -0.9199829z" /></clipPath><clipPath id="129"><path id="" clip-rule="evenodd" d="M8.871E-06 841L595.32 841L595.32 841L595.32 -0.9199829L595.32 -0.9199829L8.871E-06 -0.9199829z" /></clipPath><clipPath id="130"><path id="" clip-rule="evenodd" d="M8.871E-06 841L595.32 841L595.32 841L595.32 -0.9199829L595.32 -0.9199829L8.871E-06 -0.9199829z" /></clipPath><clipPath id="131"><path id="" clip-rule="evenodd" d="M8.871E-06 841L595.32 841L595.32 841L595.32 -0.9199829L595.32 -0.9199829L8.871E-06 -0.9199829z" /></clipPath><clipPath id="132"><path id="" clip-rule="evenodd" d="M8.871E-06 841L595.32 841L595.32 841L595.32 -0.9199829L595.32 -0.9199829L8.871E-06 -0.9199829z" /></clipPath><clipPath id="133"><path id="" clip-rule="evenodd" d="M8.871E-06 841L595.32 841L595.32 841L595.32 -0.9199829L595.32 -0.9199829L8.871E-06 -0.9199829z" /></clipPath><clipPath id="134"><path id="" clip-rule="evenodd" d="M8.871E-06 841L595.32 841L595.32 841L595.32 -0.9199829L595.32 -0.9199829L8.871E-06 -0.9199829z" /></clipPath><clipPath id="135"><path id="" clip-rule="evenodd" d="M8.871E-06 841L595.32 841L595.32 841L595.32 -0.9199829L595.32 -0.9199829L8.871E-06 -0.9199829z" /></clipPath><clipPath id="136"><path id="" clip-rule="evenodd" d="M8.871E-06 841L595.32 841L595.32 841L595.32 -0.9199829L595.32 -0.9199829L8.871E-06 -0.9199829z" /></clipPath><clipPath id="137"><path id="" clip-rule="evenodd" d="M8.871E-06 841L595.32 841L595.32 841L595.32 -0.9199829L595.32 -0.9199829L8.871E-06 -0.9199829z" /></clipPath><clipPath id="138"><path id="" clip-rule="evenodd" d="M8.871E-06 841L595.32 841L595.32 841L595.32 -0.9199829L595.32 -0.9199829L8.871E-06 -0.9199829z" /></clipPath><clipPath id="139"><path id="" clip-rule="evenodd" d="M8.871E-06 841L595.32 841L595.32 841L595.32 -0.9199829L595.32 -0.9199829L8.871E-06 -0.9199829z" /></clipPath><clipPath id="140"><path id="" clip-rule="evenodd" d="M8.871E-06 841L595.32 841L595.32 841L595.32 -0.9199829L595.32 -0.9199829L8.871E-06 -0.9199829z" /></clipPath><clipPath id="141"><path id="" clip-rule="evenodd" d="M8.871E-06 841L595.32 841L595.32 841L595.32 -0.9199829L595.32 -0.9199829L8.871E-06 -0.9199829z" /></clipPath><clipPath id="142"><path id="" clip-rule="evenodd" d="M8.871E-06 841L595.32 841L595.32 841L595.32 -0.9199829L595.32 -0.9199829L8.871E-06 -0.9199829z" /></clipPath><clipPath id="143"><path id="" clip-rule="evenodd" d="M8.871E-06 841L595.32 841L595.32 841L595.32 -0.9199829L595.32 -0.9199829L8.871E-06 -0.9199829z" /></clipPath><clipPath id="144"><path id="" clip-rule="evenodd" d="M8.871E-06 841L595.32 841L595.32 841L595.32 -0.9199829L595.32 -0.9199829L8.871E-06 -0.9199829z" /></clipPath><clipPath id="145"><path id="" clip-rule="evenodd" d="M8.871E-06 841L595.32 841L595.32 841L595.32 -0.9199829L595.32 -0.9199829L8.871E-06 -0.9199829z" /></clipPath><clipPath id="146"><path id="" clip-rule="evenodd" d="M8.871E-06 841L595.32 841L595.32 841L595.32 -0.9199829L595.32 -0.9199829L8.871E-06 -0.9199829z" /></clipPath><clipPath id="147"><path id="" clip-rule="evenodd" d="M8.871E-06 841L595.32 841L595.32 841L595.32 -0.9199829L595.32 -0.9199829L8.871E-06 -0.9199829z" /></clipPath><clipPath id="148"><path id="" clip-rule="evenodd" d="M8.871E-06 841L595.32 841L595.32 841L595.32 -0.9199829L595.32 -0.9199829L8.871E-06 -0.9199829z" /></clipPath><clipPath id="149"><path id="" clip-rule="evenodd" d="M8.871E-06 841L595.32 841L595.32 841L595.32 -0.9199829L595.32 -0.9199829L8.871E-06 -0.9199829z" /></clipPath><clipPath id="150"><path id="" clip-rule="evenodd" d="M8.871E-06 841L595.32 841L595.32 841L595.32 -0.9199829L595.32 -0.9199829L8.871E-06 -0.9199829z" /></clipPath><clipPath id="151"><path id="" clip-rule="evenodd" d="M8.871E-06 841L595.32 841L595.32 841L595.32 -0.9199829L595.32 -0.9199829L8.871E-06 -0.9199829z" /></clipPath><clipPath id="152"><path id="" clip-rule="evenodd" d="M8.871E-06 841L595.32 841L595.32 841L595.32 -0.9199829L595.32 -0.9199829L8.871E-06 -0.9199829z" /></clipPath><clipPath id="153"><path id="" clip-rule="evenodd" d="M8.871E-06 841L595.32 841L595.32 841L595.32 -0.9199829L595.32 -0.9199829L8.871E-06 -0.9199829z" /></clipPath><clipPath id="154"><path id="" clip-rule="evenodd" d="M8.871E-06 841L595.32 841L595.32 841L595.32 -0.9199829L595.32 -0.9199829L8.871E-06 -0.9199829z" /></clipPath><clipPath id="155"><path id="" clip-rule="evenodd" d="M8.871E-06 841L595.32 841L595.32 841L595.32 -0.9199829L595.32 -0.9199829L8.871E-06 -0.9199829z" /></clipPath><clipPath id="156"><path id="" clip-rule="evenodd" d="M8.871E-06 841L595.32 841L595.32 841L595.32 -0.9199829L595.32 -0.9199829L8.871E-06 -0.9199829z" /></clipPath><clipPath id="157"><path id="" clip-rule="evenodd" d="M8.871E-06 841L595.32 841L595.32 841L595.32 -0.9199829L595.32 -0.9199829L8.871E-06 -0.9199829z" /></clipPath><clipPath id="158"><path id="" clip-rule="evenodd" d="M8.871E-06 841L595.32 841L595.32 841L595.32 -0.9199829L595.32 -0.9199829L8.871E-06 -0.9199829z" /></clipPath><clipPath id="159"><path id="" clip-rule="evenodd" d="M8.871E-06 841L595.32 841L595.32 841L595.32 -0.9199829L595.32 -0.9199829L8.871E-06 -0.9199829z" /></clipPath><clipPath id="160"><path id="" clip-rule="evenodd" d="M8.871E-06 841L595.32 841L595.32 841L595.32 -0.9199829L595.32 -0.9199829L8.871E-06 -0.9199829z" /></clipPath><clipPath id="161"><path id="" clip-rule="evenodd" d="M8.871E-06 841L595.32 841L595.32 841L595.32 -0.9199829L595.32 -0.9199829L8.871E-06 -0.9199829z" /></clipPath><clipPath id="162"><path id="" clip-rule="evenodd" d="M8.871E-06 841L595.32 841L595.32 841L595.32 -0.9199829L595.32 -0.9199829L8.871E-06 -0.9199829z" /></clipPath><clipPath id="163"><path id="" clip-rule="evenodd" d="M8.871E-06 841L595.32 841L595.32 841L595.32 -0.9199829L595.32 -0.9199829L8.871E-06 -0.9199829z" /></clipPath><clipPath id="164"><path id="" clip-rule="evenodd" d="M8.871E-06 841L595.32 841L595.32 841L595.32 -0.9199829L595.32 -0.9199829L8.871E-06 -0.9199829z" /></clipPath><clipPath id="165"><path id="" clip-rule="evenodd" d="M8.871E-06 841L595.32 841L595.32 841L595.32 -0.9199829L595.32 -0.9199829L8.871E-06 -0.9199829z" /></clipPath><clipPath id="166"><path id="" clip-rule="evenodd" d="M8.871E-06 841L595.32 841L595.32 841L595.32 -0.9199829L595.32 -0.9199829L8.871E-06 -0.9199829z" /></clipPath><clipPath id="167"><path id="" clip-rule="evenodd" d="M8.871E-06 841L595.32 841L595.32 841L595.32 -0.9199829L595.32 -0.9199829L8.871E-06 -0.9199829z" /></clipPath><clipPath id="168"><path id="" clip-rule="evenodd" d="M8.871E-06 841L595.32 841L595.32 841L595.32 -0.9199829L595.32 -0.9199829L8.871E-06 -0.9199829z" /></clipPath><clipPath id="169"><path id="" clip-rule="evenodd" d="M8.871E-06 841L595.32 841L595.32 841L595.32 -0.9199829L595.32 -0.9199829L8.871E-06 -0.9199829z" /></clipPath><clipPath id="170"><path id="" clip-rule="evenodd" d="M8.871E-06 841L595.32 841L595.32 841L595.32 -0.9199829L595.32 -0.9199829L8.871E-06 -0.9199829z" /></clipPath><clipPath id="171"><path id="" clip-rule="evenodd" d="M8.871E-06 841L595.32 841L595.32 841L595.32 -0.9199829L595.32 -0.9199829L8.871E-06 -0.9199829z" /></clipPath><clipPath id="172"><path id="" clip-rule="evenodd" d="M8.871E-06 841L595.32 841L595.32 841L595.32 -0.9199829L595.32 -0.9199829L8.871E-06 -0.9199829z" /></clipPath><clipPath id="173"><path id="" clip-rule="evenodd" d="M8.871E-06 841L595.32 841L595.32 841L595.32 -0.9199829L595.32 -0.9199829L8.871E-06 -0.9199829z" /></clipPath><clipPath id="174"><path id="" clip-rule="evenodd" d="M8.871E-06 841L595.32 841L595.32 841L595.32 -0.9199829L595.32 -0.9199829L8.871E-06 -0.9199829z" /></clipPath><clipPath id="175"><path id="" clip-rule="evenodd" d="M8.871E-06 841L595.32 841L595.32 841L595.32 -0.9199829L595.32 -0.9199829L8.871E-06 -0.9199829z" /></clipPath><clipPath id="176"><path id="" clip-rule="evenodd" d="M8.871E-06 841L595.32 841L595.32 841L595.32 -0.9199829L595.32 -0.9199829L8.871E-06 -0.9199829z" /></clipPath><clipPath id="177"><path id="" clip-rule="evenodd" d="M8.871E-06 841L595.32 841L595.32 841L595.32 -0.9199829L595.32 -0.9199829L8.871E-06 -0.9199829z" /></clipPath><clipPath id="178"><path id="" clip-rule="evenodd" d="M8.871E-06 841L595.32 841L595.32 841L595.32 -0.9199829L595.32 -0.9199829L8.871E-06 -0.9199829z" /></clipPath><clipPath id="179"><path id="" clip-rule="evenodd" d="M8.871E-06 841L595.32 841L595.32 841L595.32 -0.9199829L595.32 -0.9199829L8.871E-06 -0.9199829z" /></clipPath><clipPath id="180"><path id="" clip-rule="evenodd" d="M8.871E-06 841L595.32 841L595.32 841L595.32 -0.9199829L595.32 -0.9199829L8.871E-06 -0.9199829z" /></clipPath><clipPath id="181"><path id="" clip-rule="evenodd" d="M8.871E-06 841L595.32 841L595.32 841L595.32 -0.9199829L595.32 -0.9199829L8.871E-06 -0.9199829z" /></clipPath></defs><g transform="matrix(1.333333 0 0 1.333333 0 0)"><g clip-path="url(#1)"><g clip-path="url(#2)"><path id="1" transform="matrix(1 0 0 -1 0 841)" d="M0 -0.13L595.45 -0.13L595.45 -0.13L595.45 841.92L595.45 841.92L0 841.92z" stroke="none" fill="#F5F1DE" fill-rule="evenodd" /></g><g clip-path="url(#3)"></g><g clip-path="url(#4)"></g><path id="23" transform="matrix(1 0 0 -1 0 841)" d="M90 777.72L505.3 777.72L505.3 777.72L505.3 779.27L505.3 779.27L90 779.27z" stroke="none" fill="#808080" fill-rule="evenodd" /><path id="24" transform="matrix(1 0 0 -1 0 841)" d="M90.024 779.04L90.264 779.04L90.264 779.04L90.264 779.28L90.264 779.28L90.024 779.28z" stroke="none" fill="#808080" fill-rule="evenodd" /><path id="25" transform="matrix(1 0 0 -1 0 841)" d="M90.024 779.04L90.264 779.04L90.264 779.04L90.264 779.28L90.264 779.28L90.024 779.28z" stroke="none" fill="#808080" fill-rule="evenodd" /><path id="26" transform="matrix(1 0 0 -1 0 841)" d="M90.264 779.04L505.204 779.04L505.204 779.04L505.204 779.28L505.204 779.28L90.264 779.28z" stroke="none" fill="#808080" fill-rule="evenodd" /><path id="27" transform="matrix(1 0 0 -1 0 841)" d="M505.2 779.04L505.44 779.04L505.44 779.04L505.44 779.28L505.44 779.28L505.2 779.28z" stroke="none" fill="#D4D0C8" fill-rule="evenodd" /><path id="28" transform="matrix(1 0 0 -1 0 841)" d="M505.2 779.04L505.44 779.04L505.44 779.04L505.44 779.28L505.44 779.28L505.2 779.28z" stroke="none" fill="#808080" fill-rule="evenodd" /><path id="29" transform="matrix(1 0 0 -1 0 841)" d="M90.024 777.96L90.264 777.96L90.264 777.96L90.264 779.04L90.264 779.04L90.024 779.04z" stroke="none" fill="#808080" fill-rule="evenodd" /><path id="30" transform="matrix(1 0 0 -1 0 841)" d="M505.2 777.96L505.44 777.96L505.44 777.96L505.44 779.04L505.44 779.04L505.2 779.04z" stroke="none" fill="#D4D0C8" fill-rule="evenodd" /><path id="31" transform="matrix(1 0 0 -1 0 841)" d="M90.024 777.72L90.264 777.72L90.264 777.72L90.264 777.96L90.264 777.96L90.024 777.96z" stroke="none" fill="#808080" fill-rule="evenodd" /><path id="32" transform="matrix(1 0 0 -1 0 841)" d="M90.024 777.72L90.264 777.72L90.264 777.72L90.264 777.96L90.264 777.96L90.024 777.96z" stroke="none" fill="#D4D0C8" fill-rule="evenodd" /><path id="33" transform="matrix(1 0 0 -1 0 841)" d="M90.264 777.72L505.204 777.72L505.204 777.72L505.204 777.96L505.204 777.96L90.264 777.96z" stroke="none" fill="#D4D0C8" fill-rule="evenodd" /><path id="34" transform="matrix(1 0 0 -1 0 841)" d="M505.2 777.72L505.44 777.72L505.44 777.72L505.44 777.96L505.44 777.96L505.2 777.96z" stroke="none" fill="#D4D0C8" fill-rule="evenodd" /><path id="35" transform="matrix(1 0 0 -1 0 841)" d="M505.2 777.72L505.44 777.72L505.44 777.72L505.44 777.96L505.44 777.96L505.2 777.96z" stroke="none" fill="#D4D0C8" fill-rule="evenodd" /><g clip-path="url(#5)"></g><g clip-path="url(#6)"></g><g clip-path="url(#7)"></g><g clip-path="url(#8)"></g><g clip-path="url(#9)"></g><g clip-path="url(#10)"></g><g clip-path="url(#11)"></g><g clip-path="url(#12)"></g><g clip-path="url(#13)"></g><g clip-path="url(#14)"></g><g clip-path="url(#15)"></g><g clip-path="url(#16)"></g><g clip-path="url(#17)"></g><g clip-path="url(#18)"></g><g clip-path="url(#19)"></g><g clip-path="url(#20)"></g><g clip-path="url(#21)"></g><g clip-path="url(#22)"></g><g clip-path="url(#23)"></g><g clip-path="url(#24)"></g><g clip-path="url(#25)"></g><g clip-path="url(#26)"></g><g clip-path="url(#27)"></g><g clip-path="url(#28)"></g><g clip-path="url(#29)"></g><g clip-path="url(#30)"></g><g clip-path="url(#31)"></g><g clip-path="url(#32)"></g><g clip-path="url(#33)"></g><g clip-path="url(#34)"></g><g clip-path="url(#35)"></g><g clip-path="url(#36)"></g><g clip-path="url(#37)"></g><g clip-path="url(#38)"></g><g clip-path="url(#39)"></g><g clip-path="url(#40)"></g><g clip-path="url(#41)"></g><g clip-path="url(#42)"></g><g clip-path="url(#43)"></g><g clip-path="url(#44)"></g><g clip-path="url(#45)"></g><g clip-path="url(#46)"></g><g clip-path="url(#47)"></g><g clip-path="url(#48)"></g><g clip-path="url(#49)"></g><g clip-path="url(#50)"></g><g clip-path="url(#51)"></g><g clip-path="url(#52)"></g><g clip-path="url(#53)"></g><g clip-path="url(#54)"></g><g clip-path="url(#55)"></g><g clip-path="url(#56)"></g><g clip-path="url(#57)"></g><g clip-path="url(#58)"></g><g clip-path="url(#59)"></g><g clip-path="url(#60)"></g><g clip-path="url(#61)"></g><g clip-path="url(#62)"></g><g clip-path="url(#63)"></g><g clip-path="url(#64)"></g><g clip-path="url(#65)"></g><g clip-path="url(#66)"></g><g clip-path="url(#67)"></g><g clip-path="url(#68)"></g><g clip-path="url(#69)"></g><g clip-path="url(#70)"></g><g clip-path="url(#71)"></g><g clip-path="url(#72)"></g><g clip-path="url(#73)"></g><g clip-path="url(#74)"></g><g clip-path="url(#75)"></g><g clip-path="url(#76)"></g><g clip-path="url(#77)"></g><g clip-path="url(#78)"></g><g clip-path="url(#79)"></g><g clip-path="url(#80)"></g><g clip-path="url(#81)"></g><g clip-path="url(#82)"></g><g clip-path="url(#83)"></g><g clip-path="url(#84)"></g><g clip-path="url(#85)"></g><g clip-path="url(#86)"></g><g clip-path="url(#87)"></g><g clip-path="url(#88)"></g><g clip-path="url(#89)"></g><g clip-path="url(#90)"></g><g clip-path="url(#91)"></g><g clip-path="url(#92)"></g><g clip-path="url(#93)"></g><g clip-path="url(#94)"></g><g clip-path="url(#95)"></g><g clip-path="url(#96)"></g><g clip-path="url(#97)"></g><g clip-path="url(#98)"></g><g clip-path="url(#99)"></g><g clip-path="url(#100)"></g><g clip-path="url(#101)"></g><g clip-path="url(#102)"></g><g clip-path="url(#103)"><g clip-path="url(#104)"><g clip-path="url(#105)"><path id="954" transform="matrix(1 0 0 -1 0 841)" d="M188.9343 365.1019L188.9343 368.5695" stroke="#000000" stroke-width="0.6505528" fill="none" /><path id="955" transform="matrix(1 0 0 -1 0 841)" d="M205.6027 366.8114L205.6027 368.5695" stroke="#000000" stroke-width="0.6505528" fill="none" /><path id="956" transform="matrix(1 0 0 -1 0 841)" d="M222.2193 365.1019L222.2193 368.5695" stroke="#000000" stroke-width="0.6505528" fill="none" /><path id="957" transform="matrix(1 0 0 -1 0 841)" d="M238.8851 366.8114L238.8851 368.5695" stroke="#000000" stroke-width="0.6505528" fill="none" /><path id="958" transform="matrix(1 0 0 -1 0 841)" d="M255.5017 365.1019L255.5017 368.5695" stroke="#000000" stroke-width="0.6505528" fill="none" /><path id="959" transform="matrix(1 0 0 -1 0 841)" d="M272.1676 366.8114L272.1676 368.5695" stroke="#000000" stroke-width="0.6505528" fill="none" /><path id="960" transform="matrix(1 0 0 -1 0 841)" d="M288.7859 365.1019L288.7859 368.5695" stroke="#000000" stroke-width="0.6505528" fill="none" /><path id="961" transform="matrix(1 0 0 -1 0 841)" d="M305.4517 366.8114L305.4517 368.5695" stroke="#000000" stroke-width="0.6505528" fill="none" /><path id="962" transform="matrix(1 0 0 -1 0 841)" d="M322.1183 365.1019L322.1183 368.5695" stroke="#000000" stroke-width="0.6505528" fill="none" /><path id="963" transform="matrix(1 0 0 -1 0 841)" d="M338.735 366.8114L338.735 368.5695" stroke="#000000" stroke-width="0.6505528" fill="none" /><path id="964" transform="matrix(1 0 0 -1 0 841)" d="M355.4008 365.1019L355.4008 368.5695" stroke="#000000" stroke-width="0.6505528" fill="none" /><path id="965" transform="matrix(1 0 0 -1 0 841)" d="M372.0191 366.8114L372.0191 368.5695" stroke="#000000" stroke-width="0.6505528" fill="none" /><path id="966" transform="matrix(1 0 0 -1 0 841)" d="M388.6849 365.1019L388.6849 368.5695" stroke="#000000" stroke-width="0.6505528" fill="none" /><path id="967" transform="matrix(1 0 0 -1 0 841)" d="M405.3015 366.8114L405.3015 368.5695" stroke="#000000" stroke-width="0.6505528" fill="none" /><path id="968" transform="matrix(1 0 0 -1 0 841)" d="M421.9673 365.1019L421.9673 368.5695" stroke="#000000" stroke-width="0.6505528" fill="none" /><path id="969" transform="matrix(1 0 0 -1 0 841)" d="M188.9343 368.5695L421.9673 368.5695" stroke="#000000" stroke-width="0.6505528" fill="none" /><path id="970" transform="matrix(1 0 0 -1 0 841)" d="M187.1828 368.5695L188.9343 368.5695" stroke="#000000" stroke-width="0.6505528" fill="none" /><path id="971" transform="matrix(1 0 0 -1 0 841)" d="M185.4814 378.7687L188.9343 378.7687" stroke="#000000" stroke-width="0.6505528" fill="none" /><path id="972" transform="matrix(1 0 0 -1 0 841)" d="M187.1828 388.9169L188.9343 388.9169" stroke="#000000" stroke-width="0.6505528" fill="none" /><path id="973" transform="matrix(1 0 0 -1 0 841)" d="M185.4814 399.1161L188.9343 399.1161" stroke="#000000" stroke-width="0.6505528" fill="none" /><path id="974" transform="matrix(1 0 0 -1 0 841)" d="M187.1828 409.3146L188.9343 409.3146" stroke="#000000" stroke-width="0.6505528" fill="none" /><path id="975" transform="matrix(1 0 0 -1 0 841)" d="M185.4814 419.4636L188.9343 419.4636" stroke="#000000" stroke-width="0.6505528" fill="none" /><path id="976" transform="matrix(1 0 0 -1 0 841)" d="M187.1828 429.662L188.9343 429.662" stroke="#000000" stroke-width="0.6505528" fill="none" /><path id="977" transform="matrix(1 0 0 -1 0 841)" d="M185.4814 439.8613L188.9343 439.8613" stroke="#000000" stroke-width="0.6505528" fill="none" /><path id="978" transform="matrix(1 0 0 -1 0 841)" d="M187.1828 450.0094L188.9343 450.0094" stroke="#000000" stroke-width="0.6505528" fill="none" /><path id="979" transform="matrix(1 0 0 -1 0 841)" d="M185.4814 460.2087L188.9343 460.2087" stroke="#000000" stroke-width="0.6505528" fill="none" /><path id="980" transform="matrix(1 0 0 -1 0 841)" d="M187.1828 470.3569L188.9343 470.3569" stroke="#000000" stroke-width="0.6505528" fill="none" /><path id="981" transform="matrix(1 0 0 -1 0 841)" d="M185.4814 480.5561L188.9343 480.5561" stroke="#000000" stroke-width="0.6505528" fill="none" /><path id="982" transform="matrix(1 0 0 -1 0 841)" d="M187.1828 490.7545L188.9343 490.7545" stroke="#000000" stroke-width="0.6505528" fill="none" /><path id="983" transform="matrix(1 0 0 -1 0 841)" d="M185.4814 500.9036L188.9343 500.9036" stroke="#000000" stroke-width="0.6505528" fill="none" /><path id="984" transform="matrix(1 0 0 -1 0 841)" d="M187.1828 511.102L188.9343 511.102" stroke="#000000" stroke-width="0.6505528" fill="none" /><path id="985" transform="matrix(1 0 0 -1 0 841)" d="M185.4814 521.3012L188.9343 521.3012" stroke="#000000" stroke-width="0.6505528" fill="none" /><path id="986" transform="matrix(1 0 0 -1 0 841)" d="M187.1828 531.4494L188.9343 531.4494" stroke="#000000" stroke-width="0.6505528" fill="none" /><path id="987" transform="matrix(1 0 0 -1 0 841)" d="M185.4814 541.6487L188.9343 541.6487" stroke="#000000" stroke-width="0.6505528" fill="none" /><path id="988" transform="matrix(1 0 0 -1 0 841)" d="M188.9343 368.5695L188.9343 541.6487" stroke="#000000" stroke-width="0.6505528" fill="none" /><path id="989" transform="matrix(1 0 0 -1 0 841)" d="M188.9343 541.6487L188.9343 538.1827" stroke="#000000" stroke-width="0.6505528" fill="none" /><path id="990" transform="matrix(1 0 0 -1 0 841)" d="M205.6027 541.6487L205.6027 539.8906" stroke="#000000" stroke-width="0.6505528" fill="none" /><path id="991" transform="matrix(1 0 0 -1 0 841)" d="M222.2193 541.6487L222.2193 538.1827" stroke="#000000" stroke-width="0.6505528" fill="none" /><path id="992" transform="matrix(1 0 0 -1 0 841)" d="M238.8851 541.6487L238.8851 539.8906" stroke="#000000" stroke-width="0.6505528" fill="none" /><path id="993" transform="matrix(1 0 0 -1 0 841)" d="M255.5017 541.6487L255.5017 538.1827" stroke="#000000" stroke-width="0.6505528" fill="none" /><path id="994" transform="matrix(1 0 0 -1 0 841)" d="M272.1676 541.6487L272.1676 539.8906" stroke="#000000" stroke-width="0.6505528" fill="none" /><path id="995" transform="matrix(1 0 0 -1 0 841)" d="M288.7859 541.6487L288.7859 538.1827" stroke="#000000" stroke-width="0.6505528" fill="none" /><path id="996" transform="matrix(1 0 0 -1 0 841)" d="M305.4517 541.6487L305.4517 539.8906" stroke="#000000" stroke-width="0.6505528" fill="none" /><path id="997" transform="matrix(1 0 0 -1 0 841)" d="M322.1183 541.6487L322.1183 538.1827" stroke="#000000" stroke-width="0.6505528" fill="none" /><path id="998" transform="matrix(1 0 0 -1 0 841)" d="M338.735 541.6487L338.735 539.8906" stroke="#000000" stroke-width="0.6505528" fill="none" /><path id="999" transform="matrix(1 0 0 -1 0 841)" d="M355.4008 541.6487L355.4008 538.1827" stroke="#000000" stroke-width="0.6505528" fill="none" /><path id="1000" transform="matrix(1 0 0 -1 0 841)" d="M372.0191 541.6487L372.0191 539.8906" stroke="#000000" stroke-width="0.6505528" fill="none" /><path id="1001" transform="matrix(1 0 0 -1 0 841)" d="M388.6849 541.6487L388.6849 538.1827" stroke="#000000" stroke-width="0.6505528" fill="none" /><path id="1002" transform="matrix(1 0 0 -1 0 841)" d="M405.3015 541.6487L405.3015 539.8906" stroke="#000000" stroke-width="0.6505528" fill="none" /><path id="1003" transform="matrix(1 0 0 -1 0 841)" d="M421.9673 541.6487L421.9673 538.1827" stroke="#000000" stroke-width="0.6505528" fill="none" /><path id="1004" transform="matrix(1 0 0 -1 0 841)" d="M188.9343 541.6487L421.9673 541.6487" stroke="#000000" stroke-width="0.6505528" fill="none" /><path id="1005" transform="matrix(1 0 0 -1 0 841)" d="M421.9673 368.5695L420.2159 368.5695" stroke="#000000" stroke-width="0.6505528" fill="none" /><path id="1006" transform="matrix(1 0 0 -1 0 841)" d="M421.9673 378.7687L418.5144 378.7687" stroke="#000000" stroke-width="0.6505528" fill="none" /><path id="1007" transform="matrix(1 0 0 -1 0 841)" d="M421.9673 388.9169L420.2159 388.9169" stroke="#000000" stroke-width="0.6505528" fill="none" /><path id="1008" transform="matrix(1 0 0 -1 0 841)" d="M421.9673 399.1161L418.5144 399.1161" stroke="#000000" stroke-width="0.6505528" fill="none" /><path id="1009" transform="matrix(1 0 0 -1 0 841)" d="M421.9673 409.3146L420.2159 409.3146" stroke="#000000" stroke-width="0.6505528" fill="none" /><path id="1010" transform="matrix(1 0 0 -1 0 841)" d="M421.9673 419.4636L418.5144 419.4636" stroke="#000000" stroke-width="0.6505528" fill="none" /><path id="1011" transform="matrix(1 0 0 -1 0 841)" d="M421.9673 429.662L420.2159 429.662" stroke="#000000" stroke-width="0.6505528" fill="none" /><path id="1012" transform="matrix(1 0 0 -1 0 841)" d="M421.9673 439.8612L418.5144 439.8613" stroke="#000000" stroke-width="0.6505528" fill="none" /><path id="1013" transform="matrix(1 0 0 -1 0 841)" d="M421.9673 450.0094L420.2159 450.0094" stroke="#000000" stroke-width="0.6505528" fill="none" /><path id="1014" transform="matrix(1 0 0 -1 0 841)" d="M421.9673 460.2087L418.5144 460.2087" stroke="#000000" stroke-width="0.6505528" fill="none" /><path id="1015" transform="matrix(1 0 0 -1 0 841)" d="M421.9673 470.3569L420.2159 470.3569" stroke="#000000" stroke-width="0.6505528" fill="none" /><path id="1016" transform="matrix(1 0 0 -1 0 841)" d="M421.9673 480.5561L418.5144 480.5561" stroke="#000000" stroke-width="0.6505528" fill="none" /><path id="1017" transform="matrix(1 0 0 -1 0 841)" d="M421.9673 490.7545L420.2159 490.7545" stroke="#000000" stroke-width="0.6505528" fill="none" /><path id="1018" transform="matrix(1 0 0 -1 0 841)" d="M421.9673 500.9036L418.5144 500.9036" stroke="#000000" stroke-width="0.6505528" fill="none" /><path id="1019" transform="matrix(1 0 0 -1 0 841)" d="M421.9673 511.102L420.2159 511.102" stroke="#000000" stroke-width="0.6505528" fill="none" /><path id="1020" transform="matrix(1 0 0 -1 0 841)" d="M421.9673 521.3012L418.5144 521.3012" stroke="#000000" stroke-width="0.6505528" fill="none" /><path id="1021" transform="matrix(1 0 0 -1 0 841)" d="M421.9673 531.4494L420.2159 531.4494" stroke="#000000" stroke-width="0.6505528" fill="none" /><path id="1022" transform="matrix(1 0 0 -1 0 841)" d="M421.9673 541.6487L418.5144 541.6487" stroke="#000000" stroke-width="0.6505528" fill="none" /><path id="1023" transform="matrix(1 0 0 -1 0 841)" d="M421.9673 368.5695L421.9673 541.6487" stroke="#000000" stroke-width="0.6505528" fill="none" /><g clip-path="url(#106)"><path id="1024" transform="matrix(1 0 0 -1 0 841)" d="M316.1133 447.5984L211.5577 434.7353" stroke="#000000" stroke-width="0.9007654" fill="none" /><path id="1025" transform="matrix(1 0 0 -1 0 841)" d="M409.3049 451.3154L316.1133 447.5984" stroke="#000000" stroke-width="0.9007654" fill="none" /><path id="1026" transform="matrix(1 0 0 -1 0 841)" d="M209.2057 432.4247L213.8597 432.4247L213.8597 432.4247L213.8597 437.0982L213.8597 437.0982L209.2057 437.0982z" stroke="#000000" stroke-width="0.4003402" fill="#000000" fill-rule="evenodd" /><path id="1027" transform="matrix(1 0 0 -1 0 841)" d="M313.7588 445.2878L318.4148 445.2878L318.4148 445.2878L318.4148 449.9592L318.4148 449.9592L313.7588 449.9592z" stroke="#000000" stroke-width="0.4003402" fill="#000000" fill-rule="evenodd" /><path id="1028" transform="matrix(1 0 0 -1 0 841)" d="M406.9529 449.0048L411.6069 449.0048L411.6069 449.0048L411.6069 453.6762L411.6069 453.6762L406.9529 453.6762z" stroke="#000000" stroke-width="0.4003402" fill="#000000" fill-rule="evenodd" /></g><g clip-path="url(#107)"><path id="1029" transform="matrix(1 0 0 -1 0 841)" d="M316.1133 488.896L211.5577 438.706" stroke="#FF0000" stroke-width="0.9007654" fill="none" /><path id="1030" transform="matrix(1 0 0 -1 0 841)" d="M409.3049 528.084L316.1133 488.896" stroke="#FF0000" stroke-width="0.9007654" fill="none" /><path id="1031" transform="matrix(1 0 0 -1 0 841)" d="M208.8554 438.7562C 208.8554 437.2493 210.0565 436.0438 211.5077 436.0438C 213.009 436.0438 214.21 437.2493 214.21 438.7562C 214.21 440.2129 213.009 441.4184 211.5077 441.4184C 210.0565 441.4184 208.8554 440.2129 208.8554 438.7562z" stroke="#FF0000" stroke-width="0.4003402" fill="#FF0000" fill-rule="evenodd" /><path id="1032" transform="matrix(1 0 0 -1 0 841)" d="M313.4084 488.9463C 313.4084 487.4393 314.6103 486.2338 316.0632 486.2338C 317.5645 486.2338 318.7655 487.4393 318.7655 488.9463C 318.7655 490.4029 317.5645 491.6085 316.0632 491.6085C 314.6103 491.6085 313.4084 490.4029 313.4084 488.9463z" stroke="#FF0000" stroke-width="0.4003402" fill="#FF0000" fill-rule="evenodd" /><path id="1033" transform="matrix(1 0 0 -1 0 841)" d="M406.6026 528.1342C 406.6026 526.6273 407.8036 525.4218 409.2549 525.4218C 410.7562 525.4218 411.9572 526.6273 411.9572 528.1342C 411.9572 529.5909 410.7562 530.7964 409.2549 530.7964C 407.8036 530.7964 406.6026 529.5909 406.6026 528.1342z" stroke="#FF0000" stroke-width="0.4003402" fill="#FF0000" fill-rule="evenodd" /></g><g clip-path="url(#108)"><path id="1034" transform="matrix(1 0 0 -1 0 841)" d="M316.1133 419.0618L211.5577 386.5059" stroke="#0000FF" stroke-width="0.9007654" fill="none" /><path id="1035" transform="matrix(1 0 0 -1 0 841)" d="M409.3049 457.0442L316.1133 419.0618" stroke="#0000FF" stroke-width="0.9007654" fill="none" /><path id="1036" transform="matrix(1 0 0 -1 0 841)" d="M211.5577 390.2229L214.7604 384.6457L214.7604 384.6457L208.305 384.6457L208.305 384.6457L211.5577 390.2229z" stroke="#0000FF" stroke-width="0.4003402" fill="#0000FF" fill-rule="evenodd" /><path id="1037" transform="matrix(1 0 0 -1 0 841)" d="M316.1133 422.7788L319.3159 417.2032L319.3159 417.2032L312.8588 417.2032L312.8588 417.2032L316.1133 422.7788z" stroke="#0000FF" stroke-width="0.4003402" fill="#0000FF" fill-rule="evenodd" /><path id="1038" transform="matrix(1 0 0 -1 0 841)" d="M409.3049 460.7612L412.5093 455.1857L412.5093 455.1857L406.0522 455.1857L406.0522 455.1857L409.3049 460.7612z" stroke="#0000FF" stroke-width="0.4003402" fill="#0000FF" fill-rule="evenodd" /></g><g clip-path="url(#109)"><path id="1039" transform="matrix(1 0 0 -1 0 841)" d="M316.1133 429.4611L211.5577 379.3715" stroke="#FF00FF" stroke-width="0.9007654" fill="none" /><path id="1040" transform="matrix(1 0 0 -1 0 841)" d="M409.3049 501.6068L316.1133 429.4611" stroke="#FF00FF" stroke-width="0.9007654" fill="none" /><path id="1041" transform="matrix(1 0 0 -1 0 841)" d="M214.7604 381.23L211.5577 375.6544L211.5577 375.6544L208.305 381.23L208.305 381.23L214.7604 381.23z" stroke="#FF00FF" stroke-width="0.4003402" fill="#FF00FF" fill-rule="evenodd" /><path id="1042" transform="matrix(1 0 0 -1 0 841)" d="M319.3159 431.3196L316.1133 425.744L316.1133 425.744L312.8588 431.3196L312.8588 431.3196L319.3159 431.3196z" stroke="#FF00FF" stroke-width="0.4003402" fill="#FF00FF" fill-rule="evenodd" /><path id="1043" transform="matrix(1 0 0 -1 0 841)" d="M412.5093 503.4653L409.3049 497.8897L409.3049 497.8897L406.0522 503.4653L406.0522 503.4653L412.5093 503.4653z" stroke="#FF00FF" stroke-width="0.4003402" fill="#FF00FF" fill-rule="evenodd" /></g><path id="1044" transform="matrix(1 0 0 -1 0 841)" d="" stroke="none" fill="#000000" fill-rule="evenodd" /><path id="1045" transform="matrix(1 0 0 -1 0 841)" d="" stroke="none" fill="#000000" fill-rule="evenodd" /><path id="1076" transform="matrix(1 0 0 -1 0 841)" d="M208.7553 524.0639L229.2753 524.0639" stroke="#000000" stroke-width="0.9007654" fill="none" /><path id="1077" transform="matrix(1 0 0 -1 0 841)" d="M216.6621 521.7031L221.3181 521.7031L221.3181 521.7031L221.3181 526.3766L221.3181 526.3766L216.6621 526.3766z" stroke="#000000" stroke-width="0.4003402" fill="#000000" fill-rule="evenodd" /><path id="1083" transform="matrix(1 0 0 -1 0 841)" d="M208.7553 511.4034L229.2753 511.4034" stroke="#FF0000" stroke-width="0.9007654" fill="none" /><path id="1084" transform="matrix(1 0 0 -1 0 841)" d="M216.3118 511.4034C 216.3118 509.8965 217.5128 508.6909 218.9665 508.6909C 220.4678 508.6909 221.6688 509.8965 221.6688 511.4034C 221.6688 512.86 220.4678 514.0656 218.9665 514.0656C 217.5128 514.0656 216.3118 512.86 216.3118 511.4034z" stroke="#FF0000" stroke-width="0.4003402" fill="#FF0000" fill-rule="evenodd" /><path id="1092" transform="matrix(1 0 0 -1 0 841)" d="M208.7553 498.7437L229.2753 498.7437" stroke="#0000FF" stroke-width="0.9007654" fill="none" /><path id="1093" transform="matrix(1 0 0 -1 0 841)" d="M219.0166 502.4105L222.2193 496.8349L222.2193 496.8349L215.7613 496.8349L215.7613 496.8349L219.0166 502.4105z" stroke="#0000FF" stroke-width="0.4003402" fill="#0000FF" fill-rule="evenodd" /><path id="1100" transform="matrix(1 0 0 -1 0 841)" d="M208.7553 486.0831L229.2753 486.0831" stroke="#FF00FF" stroke-width="0.9007654" fill="none" /><path id="1101" transform="matrix(1 0 0 -1 0 841)" d="M222.2193 487.8914L219.0166 482.3142L219.0166 482.3142L215.7613 487.8914L215.7613 487.8914L222.2193 487.8914z" stroke="#FF00FF" stroke-width="0.4003402" fill="#FF00FF" fill-rule="evenodd" /></g></g></g><g clip-path="url(#110)"></g><g clip-path="url(#111)"></g><g clip-path="url(#112)"></g><g clip-path="url(#113)"></g><g clip-path="url(#114)"></g><g clip-path="url(#115)"></g><g clip-path="url(#116)"></g><g clip-path="url(#117)"></g><g clip-path="url(#118)"></g><g clip-path="url(#119)"></g><g clip-path="url(#120)"></g><g clip-path="url(#121)"></g><g clip-path="url(#122)"></g><g clip-path="url(#123)"></g><g clip-path="url(#124)"></g><g clip-path="url(#125)"></g><g clip-path="url(#126)"></g><g clip-path="url(#127)"></g><g clip-path="url(#128)"></g><g clip-path="url(#129)"></g><g clip-path="url(#130)"></g><g clip-path="url(#131)"></g><g clip-path="url(#132)"></g><g clip-path="url(#133)"></g><g clip-path="url(#134)"></g><g clip-path="url(#135)"></g><g clip-path="url(#136)"></g><g clip-path="url(#137)"></g><g clip-path="url(#138)"></g><g clip-path="url(#139)"></g><g clip-path="url(#140)"></g><g clip-path="url(#141)"></g><g clip-path="url(#142)"></g><g clip-path="url(#143)"></g><g clip-path="url(#144)"></g><g clip-path="url(#145)"></g><g clip-path="url(#146)"></g><g clip-path="url(#147)"></g><g clip-path="url(#148)"></g><g clip-path="url(#149)"></g><g clip-path="url(#150)"></g><g clip-path="url(#151)"></g><g clip-path="url(#152)"></g><g clip-path="url(#153)"></g><g clip-path="url(#154)"></g><g clip-path="url(#155)"></g><g clip-path="url(#156)"></g><g clip-path="url(#157)"></g><g clip-path="url(#158)"></g><g clip-path="url(#159)"></g><g clip-path="url(#160)"></g><g clip-path="url(#161)"></g><g clip-path="url(#162)"></g><g clip-path="url(#163)"></g><g clip-path="url(#164)"></g><g clip-path="url(#165)"></g><g clip-path="url(#166)"></g><g clip-path="url(#167)"></g><g clip-path="url(#168)"></g><g clip-path="url(#169)"></g><g clip-path="url(#170)"></g><g clip-path="url(#171)"></g><g clip-path="url(#172)"></g><g clip-path="url(#173)"></g><g clip-path="url(#174)"></g><g clip-path="url(#175)"></g><g clip-path="url(#176)"></g><g clip-path="url(#177)"></g><g clip-path="url(#178)"></g><g clip-path="url(#179)"></g><g clip-path="url(#180)"></g><g clip-path="url(#181)"></g></g></g></svg>