<svg xmlns="http://www.w3.org/2000/svg" xmlns:xlink="http://www.w3.org/1999/xlink" id="body_360" preserveAspectRatio="xMinYMin meet" viewBox="0 0 793 1121"><defs><clipPath id="1"><path id="" clip-rule="evenodd" d="M0 841L0 -0.9199829L0 -0.9199829L595.32 -0.9199829L595.32 -0.9199829L595.32 841L595.32 841L0 841z" /></clipPath><clipPath id="2"><path id="" clip-rule="evenodd" d="M0 840.9999L595.32 840.9999L595.32 840.9999L595.32 -0.9200439L595.32 -0.9200439L0 -0.9200439z" /></clipPath><clipPath id="3"><path id="" clip-rule="evenodd" d="M8.871E-06 841L595.32 841L595.32 841L595.32 -0.9199829L595.32 -0.9199829L8.871E-06 -0.9199829z" /></clipPath><clipPath id="4"><path id="" clip-rule="evenodd" d="M8.871E-06 841L595.32 841L595.32 841L595.32 -0.9199829L595.32 -0.9199829L8.871E-06 -0.9199829z" /></clipPath><clipPath id="5"><path id="" clip-rule="evenodd" d="M8.871E-06 841L595.32 841L595.32 841L595.32 -0.9199829L595.32 -0.9199829L8.871E-06 -0.9199829z" /></clipPath><clipPath id="6"><path id="" clip-rule="evenodd" d="M8.871E-06 841L595.32 841L595.32 841L595.32 -0.9199829L595.32 -0.9199829L8.871E-06 -0.9199829z" /></clipPath><clipPath id="7"><path id="" clip-rule="evenodd" d="M8.871E-06 841L595.32 841L595.32 841L595.32 -0.9199829L595.32 -0.9199829L8.871E-06 -0.9199829z" /></clipPath><clipPath id="8"><path id="" clip-rule="evenodd" d="M0 840.9999L595.32 840.9999L595.32 840.9999L595.32 -0.9200439L595.32 -0.9200439L0 -0.9200439z" /></clipPath><clipPath id="9"><path id="" clip-rule="evenodd" d="M192.41 142.04L402.9129 142.04L402.9129 142.04L402.9129 78.34015L402.9129 78.34015L192.41 78.34015z" /></clipPath><clipPath id="10"><path id="" clip-rule="evenodd" d="M8.871E-06 841L595.32 841L595.32 841L595.32 -0.9199829L595.32 -0.9199829L8.871E-06 -0.9199829z" /></clipPath><clipPath id="11"><path id="" clip-rule="evenodd" d="M8.871E-06 841L595.32 841L595.32 841L595.32 -0.9199829L595.32 -0.9199829L8.871E-06 -0.9199829z" /></clipPath><clipPath id="12"><path id="" clip-rule="evenodd" d="M8.871E-06 841L595.32 841L595.32 841L595.32 -0.9199829L595.32 -0.9199829L8.871E-06 -0.9199829z" /></clipPath><clipPath id="13"><path id="" clip-rule="evenodd" d="M8.871E-06 841L595.32 841L595.32 841L595.32 -0.9199829L595.32 -0.9199829L8.871E-06 -0.9199829z" /></clipPath><clipPath id="14"><path id="" clip-rule="evenodd" d="M8.871E-06 841L595.32 841L595.32 841L595.32 -0.9199829L595.32 -0.9199829L8.871E-06 -0.9199829z" /></clipPath><clipPath id="15"><path id="" clip-rule="evenodd" d="M8.871E-06 841L595.32 841L595.32 841L595.32 -0.9199829L595.32 -0.9199829L8.871E-06 -0.9199829z" /></clipPath><clipPath id="16"><path id="" clip-rule="evenodd" d="M8.871E-06 841L595.32 841L595.32 841L595.32 -0.9199829L595.32 -0.9199829L8.871E-06 -0.9199829z" /></clipPath><clipPath id="17"><path id="" clip-rule="evenodd" d="M0 840.9999L595.32 840.9999L595.32 840.9999L595.32 -0.9200439L595.32 -0.9200439L0 -0.9200439z" /></clipPath><clipPath id="18"><path id="" clip-rule="evenodd" d="M190.26 191.24L284.9619 191.24L284.9619 191.24L284.9619 153.8394L284.9619 153.8394L190.26 153.8394z" /></clipPath><clipPath id="19"><path id="" clip-rule="evenodd" d="M8.871E-06 841L595.32 841L595.32 841L595.32 -0.9199829L595.32 -0.9199829L8.871E-06 -0.9199829z" /></clipPath><clipPath id="20"><path id="" clip-rule="evenodd" d="M8.871E-06 841L595.32 841L595.32 841L595.32 -0.9199829L595.32 -0.9199829L8.871E-06 -0.9199829z" /></clipPath><clipPath id="21"><path id="" clip-rule="evenodd" d="M8.871E-06 841L595.32 841L595.32 841L595.32 -0.9199829L595.32 -0.9199829L8.871E-06 -0.9199829z" /></clipPath><clipPath id="22"><path id="" clip-rule="evenodd" d="M8.871E-06 841L595.32 841L595.32 841L595.32 -0.9199829L595.32 -0.9199829L8.871E-06 -0.9199829z" /></clipPath><clipPath id="23"><path id="" clip-rule="evenodd" d="M8.871E-06 841L595.32 841L595.32 841L595.32 -0.9199829L595.32 -0.9199829L8.871E-06 -0.9199829z" /></clipPath><clipPath id="24"><path id="" clip-rule="evenodd" d="M8.871E-06 841L595.32 841L595.32 841L595.32 -0.9199829L595.32 -0.9199829L8.871E-06 -0.9199829z" /></clipPath><clipPath id="25"><path id="" clip-rule="evenodd" d="M8.871E-06 841L595.32 841L595.32 841L595.32 -0.9199829L595.32 -0.9199829L8.871E-06 -0.9199829z" /></clipPath><clipPath id="26"><path id="" clip-rule="evenodd" d="M8.871E-06 841L595.32 841L595.32 841L595.32 -0.9199829L595.32 -0.9199829L8.871E-06 -0.9199829z" /></clipPath><clipPath id="27"><path id="" clip-rule="evenodd" d="M8.871E-06 841L595.32 841L595.32 841L595.32 -0.9199829L595.32 -0.9199829L8.871E-06 -0.9199829z" /></clipPath><clipPath id="28"><path id="" clip-rule="evenodd" d="M8.871E-06 841L595.32 841L595.32 841L595.32 -0.9199829L595.32 -0.9199829L8.871E-06 -0.9199829z" /></clipPath><clipPath id="29"><path id="" clip-rule="evenodd" d="M8.871E-06 841L595.32 841L595.32 841L595.32 -0.9199829L595.32 -0.9199829L8.871E-06 -0.9199829z" /></clipPath><clipPath id="30"><path id="" clip-rule="evenodd" d="M8.871E-06 841L595.32 841L595.32 841L595.32 -0.9199829L595.32 -0.9199829L8.871E-06 -0.9199829z" /></clipPath><clipPath id="31"><path id="" clip-rule="evenodd" d="M8.871E-06 841L595.32 841L595.32 841L595.32 -0.9199829L595.32 -0.9199829L8.871E-06 -0.9199829z" /></clipPath><clipPath id="32"><path id="" clip-rule="evenodd" d="M8.871E-06 841L595.32 841L595.32 841L595.32 -0.9199829L595.32 -0.9199829L8.871E-06 -0.9199829z" /></clipPath><clipPath id="33"><path id="" clip-rule="evenodd" d="M8.871E-06 841L595.32 841L595.32 841L595.32 -0.9199829L595.32 -0.9199829L8.871E-06 -0.9199829z" /></clipPath><clipPath id="34"><path id="" clip-rule="evenodd" d="M8.871E-06 841L595.32 841L595.32 841L595.32 -0.9199829L595.32 -0.9199829L8.871E-06 -0.9199829z" /></clipPath><clipPath id="35"><path id="" clip-rule="evenodd" d="M8.871E-06 841L595.32 841L595.32 841L595.32 -0.9199829L595.32 -0.9199829L8.871E-06 -0.9199829z" /></clipPath><clipPath id="36"><path id="" clip-rule="evenodd" d="M8.871E-06 841L595.32 841L595.32 841L595.32 -0.9199829L595.32 -0.9199829L8.871E-06 -0.9199829z" /></clipPath><clipPath id="37"><path id="" clip-rule="evenodd" d="M8.871E-06 841L595.32 841L595.32 841L595.32 -0.9199829L595.32 -0.9199829L8.871E-06 -0.9199829z" /></clipPath><clipPath id="38"><path id="" clip-rule="evenodd" d="M8.871E-06 841L595.32 841L595.32 841L595.32 -0.9199829L595.32 -0.9199829L8.871E-06 -0.9199829z" /></clipPath><clipPath id="39"><path id="" clip-rule="evenodd" d="M8.871E-06 841L595.32 841L595.32 841L595.32 -0.9199829L595.32 -0.9199829L8.871E-06 -0.9199829z" /></clipPath><clipPath id="40"><path id="" clip-rule="evenodd" d="M8.871E-06 841L595.32 841L595.32 841L595.32 -0.9199829L595.32 -0.9199829L8.871E-06 -0.9199829z" /></clipPath><clipPath id="41"><path id="" clip-rule="evenodd" d="M8.871E-06 841L595.32 841L595.32 841L595.32 -0.9199829L595.32 -0.9199829L8.871E-06 -0.9199829z" /></clipPath><clipPath id="42"><path id="" clip-rule="evenodd" d="M8.871E-06 841L595.32 841L595.32 841L595.32 -0.9199829L595.32 -0.9199829L8.871E-06 -0.9199829z" /></clipPath><clipPath id="43"><path id="" clip-rule="evenodd" d="M8.871E-06 841L595.32 841L595.32 841L595.32 -0.9199829L595.32 -0.9199829L8.871E-06 -0.9199829z" /></clipPath><clipPath id="44"><path id="" clip-rule="evenodd" d="M8.871E-06 841L595.32 841L595.32 841L595.32 -0.9199829L595.32 -0.9199829L8.871E-06 -0.9199829z" /></clipPath><clipPath id="45"><path id="" clip-rule="evenodd" d="M0 840.9999L595.32 840.9999L595.32 840.9999L595.32 -0.9200439L595.32 -0.9200439L0 -0.9200439z" /></clipPath><clipPath id="46"><path id="" clip-rule="evenodd" d="M212.81 288.34L382.6118 288.34L382.6118 288.34L382.6118 259.7899L382.6118 259.7899L212.81 259.7899z" /></clipPath><clipPath id="47"><path id="" clip-rule="evenodd" d="M8.871E-06 841L595.32 841L595.32 841L595.32 -0.9199829L595.32 -0.9199829L8.871E-06 -0.9199829z" /></clipPath><clipPath id="48"><path id="" clip-rule="evenodd" d="M8.871E-06 841L595.32 841L595.32 841L595.32 -0.9199829L595.32 -0.9199829L8.871E-06 -0.9199829z" /></clipPath><clipPath id="49"><path id="" clip-rule="evenodd" d="M8.871E-06 841L595.32 841L595.32 841L595.32 -0.9199829L595.32 -0.9199829L8.871E-06 -0.9199829z" /></clipPath><clipPath id="50"><path id="" clip-rule="evenodd" d="M8.871E-06 841L595.32 841L595.32 841L595.32 -0.9199829L595.32 -0.9199829L8.871E-06 -0.9199829z" /></clipPath><clipPath id="51"><path id="" clip-rule="evenodd" d="M8.871E-06 841L595.32 841L595.32 841L595.32 -0.9199829L595.32 -0.9199829L8.871E-06 -0.9199829z" /></clipPath><clipPath id="52"><path id="" clip-rule="evenodd" d="M0 840.9999L595.32 840.9999L595.32 840.9999L595.32 -0.9200439L595.32 -0.9200439L0 -0.9200439z" /></clipPath><clipPath id="53"><path id="" clip-rule="evenodd" d="M158.71 394.89L436.6126 394.89L436.6126 394.89L436.6126 308.9865L436.6126 308.9865L158.71 308.9865z" /></clipPath><clipPath id="54"><path id="" clip-rule="evenodd" d="M8.871E-06 841L595.32 841L595.32 841L595.32 -0.9199829L595.32 -0.9199829L8.871E-06 -0.9199829z" /></clipPath><clipPath id="55"><path id="" clip-rule="evenodd" d="M8.871E-06 841L595.32 841L595.32 841L595.32 -0.9199829L595.32 -0.9199829L8.871E-06 -0.9199829z" /></clipPath><clipPath id="56"><path id="" clip-rule="evenodd" d="M8.871E-06 841L595.32 841L595.32 841L595.32 -0.9199829L595.32 -0.9199829L8.871E-06 -0.9199829z" /></clipPath><clipPath id="57"><path id="" clip-rule="evenodd" d="M0 840.9999L595.32 840.9999L595.32 840.9999L595.32 -0.9200439L595.32 -0.9200439L0 -0.9200439z" /></clipPath><clipPath id="58"><path id="" clip-rule="evenodd" d="M120.91 424.29L274.1578 424.29L274.1578 424.29L274.1578 404.3898L274.1578 404.3898L120.91 404.3898z" /></clipPath><clipPath id="59"><path id="" clip-rule="evenodd" d="M8.871E-06 841L595.32 841L595.32 841L595.32 -0.9199829L595.32 -0.9199829L8.871E-06 -0.9199829z" /></clipPath><clipPath id="60"><path id="" clip-rule="evenodd" d="M8.871E-06 841L595.32 841L595.32 841L595.32 -0.9199829L595.32 -0.9199829L8.871E-06 -0.9199829z" /></clipPath><clipPath id="61"><path id="" clip-rule="evenodd" d="M8.871E-06 841L595.32 841L595.32 841L595.32 -0.9199829L595.32 -0.9199829L8.871E-06 -0.9199829z" /></clipPath><clipPath id="62"><path id="" clip-rule="evenodd" d="M8.871E-06 841L595.32 841L595.32 841L595.32 -0.9199829L595.32 -0.9199829L8.871E-06 -0.9199829z" /></clipPath><clipPath id="63"><path id="" clip-rule="evenodd" d="M8.871E-06 841L595.32 841L595.32 841L595.32 -0.9199829L595.32 -0.9199829L8.871E-06 -0.9199829z" /></clipPath><clipPath id="64"><path id="" clip-rule="evenodd" d="M8.871E-06 841L595.32 841L595.32 841L595.32 -0.9199829L595.32 -0.9199829L8.871E-06 -0.9199829z" /></clipPath><clipPath id="65"><path id="" clip-rule="evenodd" d="M8.871E-06 841L595.32 841L595.32 841L595.32 -0.9199829L595.32 -0.9199829L8.871E-06 -0.9199829z" /></clipPath><clipPath id="66"><path id="" clip-rule="evenodd" d="M8.871E-06 841L595.32 841L595.32 841L595.32 -0.9199829L595.32 -0.9199829L8.871E-06 -0.9199829z" /></clipPath><clipPath id="67"><path id="" clip-rule="evenodd" d="M8.871E-06 841L595.32 841L595.32 841L595.32 -0.9199829L595.32 -0.9199829L8.871E-06 -0.9199829z" /></clipPath><clipPath id="68"><path id="" clip-rule="evenodd" d="M8.871E-06 841L595.32 841L595.32 841L595.32 -0.9199829L595.32 -0.9199829L8.871E-06 -0.9199829z" /></clipPath><clipPath id="69"><path id="" clip-rule="evenodd" d="M8.871E-06 841L595.32 841L595.32 841L595.32 -0.9199829L595.32 -0.9199829L8.871E-06 -0.9199829z" /></clipPath><clipPath id="70"><path id="" clip-rule="evenodd" d="M8.871E-06 841L595.32 841L595.32 841L595.32 -0.9199829L595.32 -0.9199829L8.871E-06 -0.9199829z" /></clipPath><clipPath id="71"><path id="" clip-rule="evenodd" d="M8.871E-06 841L595.32 841L595.32 841L595.32 -0.9199829L595.32 -0.9199829L8.871E-06 -0.9199829z" /></clipPath><clipPath id="72"><path id="" clip-rule="evenodd" d="M8.871E-06 841L595.32 841L595.32 841L595.32 -0.9199829L595.32 -0.9199829L8.871E-06 -0.9199829z" /></clipPath><clipPath id="73"><path id="" clip-rule="evenodd" d="M8.871E-06 841L595.32 841L595.32 841L595.32 -0.9199829L595.32 -0.9199829L8.871E-06 -0.9199829z" /></clipPath><clipPath id="74"><path id="" clip-rule="evenodd" d="M8.871E-06 841L595.32 841L595.32 841L595.32 -0.9199829L595.32 -0.9199829L8.871E-06 -0.9199829z" /></clipPath><clipPath id="75"><path id="" clip-rule="evenodd" d="M0 840.9999L595.32 840.9999L595.32 840.9999L595.32 -0.9200439L595.32 -0.9200439L0 -0.9200439z" /></clipPath><clipPath id="76"><path id="" clip-rule="evenodd" d="M190.26 472.04L283.5069 472.04L283.5069 472.04L283.5069 434.6394L283.5069 434.6394L190.26 434.6394z" /></clipPath><clipPath id="77"><path id="" clip-rule="evenodd" d="M8.871E-06 841L595.32 841L595.32 841L595.32 -0.9199829L595.32 -0.9199829L8.871E-06 -0.9199829z" /></clipPath><clipPath id="78"><path id="" clip-rule="evenodd" d="M8.871E-06 841L595.32 841L595.32 841L595.32 -0.9199829L595.32 -0.9199829L8.871E-06 -0.9199829z" /></clipPath><clipPath id="79"><path id="" clip-rule="evenodd" d="M8.871E-06 841L595.32 841L595.32 841L595.32 -0.9199829L595.32 -0.9199829L8.871E-06 -0.9199829z" /></clipPath><clipPath id="80"><path id="" clip-rule="evenodd" d="M8.871E-06 841L595.32 841L595.32 841L595.32 -0.9199829L595.32 -0.9199829L8.871E-06 -0.9199829z" /></clipPath><clipPath id="81"><path id="" clip-rule="evenodd" d="M8.871E-06 841L595.32 841L595.32 841L595.32 -0.9199829L595.32 -0.9199829L8.871E-06 -0.9199829z" /></clipPath><clipPath id="82"><path id="" clip-rule="evenodd" d="M8.871E-06 841L595.32 841L595.32 841L595.32 -0.9199829L595.32 -0.9199829L8.871E-06 -0.9199829z" /></clipPath><clipPath id="83"><path id="" clip-rule="evenodd" d="M8.871E-06 841L595.32 841L595.32 841L595.32 -0.9199829L595.32 -0.9199829L8.871E-06 -0.9199829z" /></clipPath><clipPath id="84"><path id="" clip-rule="evenodd" d="M8.871E-06 841L595.32 841L595.32 841L595.32 -0.9199829L595.32 -0.9199829L8.871E-06 -0.9199829z" /></clipPath><clipPath id="85"><path id="" clip-rule="evenodd" d="M8.871E-06 841L595.32 841L595.32 841L595.32 -0.9199829L595.32 -0.9199829L8.871E-06 -0.9199829z" /></clipPath><clipPath id="86"><path id="" clip-rule="evenodd" d="M8.871E-06 841L595.32 841L595.32 841L595.32 -0.9199829L595.32 -0.9199829L8.871E-06 -0.9199829z" /></clipPath><clipPath id="87"><path id="" clip-rule="evenodd" d="M8.871E-06 841L595.32 841L595.32 841L595.32 -0.9199829L595.32 -0.9199829L8.871E-06 -0.9199829z" /></clipPath><clipPath id="88"><path id="" clip-rule="evenodd" d="M8.871E-06 841L595.32 841L595.32 841L595.32 -0.9199829L595.32 -0.9199829L8.871E-06 -0.9199829z" /></clipPath><clipPath id="89"><path id="" clip-rule="evenodd" d="M8.871E-06 841L595.32 841L595.32 841L595.32 -0.9199829L595.32 -0.9199829L8.871E-06 -0.9199829z" /></clipPath><clipPath id="90"><path id="" clip-rule="evenodd" d="M8.871E-06 841L595.32 841L595.32 841L595.32 -0.9199829L595.32 -0.9199829L8.871E-06 -0.9199829z" /></clipPath><clipPath id="91"><path id="" clip-rule="evenodd" d="M8.871E-06 841L595.32 841L595.32 841L595.32 -0.9199829L595.32 -0.9199829L8.871E-06 -0.9199829z" /></clipPath><clipPath id="92"><path id="" clip-rule="evenodd" d="M8.871E-06 841L595.32 841L595.32 841L595.32 -0.9199829L595.32 -0.9199829L8.871E-06 -0.9199829z" /></clipPath><clipPath id="93"><path id="" clip-rule="evenodd" d="M8.871E-06 841L595.32 841L595.32 841L595.32 -0.9199829L595.32 -0.9199829L8.871E-06 -0.9199829z" /></clipPath></defs><g transform="matrix(1.333333 0 0 1.333333 0 0)"><g clip-path="url(#1)"><g clip-path="url(#2)"><path id="1" transform="matrix(1 0 0 -1 0 841)" d="M0 -0.13L595.45 -0.13L595.45 -0.13L595.45 841.92L595.45 841.92L0 841.92z" stroke="none" fill="#F5F1DE" fill-rule="evenodd" /></g><g clip-path="url(#3)"></g><g clip-path="url(#4)"></g><path id="12" transform="matrix(1 0 0 -1 0 841)" d="M89.9 777.72L505.45 777.72L505.45 777.72L505.45 779.27L505.45 779.27L89.9 779.27z" stroke="none" fill="#808080" fill-rule="evenodd" /><path id="13" transform="matrix(1 0 0 -1 0 841)" d="M89.904 779.04L90.144 779.04L90.144 779.04L90.144 779.28L90.144 779.28L89.904 779.28z" stroke="none" fill="#808080" fill-rule="evenodd" /><path id="14" transform="matrix(1 0 0 -1 0 841)" d="M89.904 779.04L90.144 779.04L90.144 779.04L90.144 779.28L90.144 779.28L89.904 779.28z" stroke="none" fill="#808080" fill-rule="evenodd" /><path id="15" transform="matrix(1 0 0 -1 0 841)" d="M90.144 779.04L505.324 779.04L505.324 779.04L505.324 779.28L505.324 779.28L90.144 779.28z" stroke="none" fill="#808080" fill-rule="evenodd" /><path id="16" transform="matrix(1 0 0 -1 0 841)" d="M505.32 779.04L505.56 779.04L505.56 779.04L505.56 779.28L505.56 779.28L505.32 779.28z" stroke="none" fill="#D4D0C8" fill-rule="evenodd" /><path id="17" transform="matrix(1 0 0 -1 0 841)" d="M505.32 779.04L505.56 779.04L505.56 779.04L505.56 779.28L505.56 779.28L505.32 779.28z" stroke="none" fill="#808080" fill-rule="evenodd" /><path id="18" transform="matrix(1 0 0 -1 0 841)" d="M89.904 777.96L90.144 777.96L90.144 777.96L90.144 779.04L90.144 779.04L89.904 779.04z" stroke="none" fill="#808080" fill-rule="evenodd" /><path id="19" transform="matrix(1 0 0 -1 0 841)" d="M505.32 777.96L505.56 777.96L505.56 777.96L505.56 779.04L505.56 779.04L505.32 779.04z" stroke="none" fill="#D4D0C8" fill-rule="evenodd" /><path id="20" transform="matrix(1 0 0 -1 0 841)" d="M89.904 777.72L90.144 777.72L90.144 777.72L90.144 777.96L90.144 777.96L89.904 777.96z" stroke="none" fill="#808080" fill-rule="evenodd" /><path id="21" transform="matrix(1 0 0 -1 0 841)" d="M89.904 777.72L90.144 777.72L90.144 777.72L90.144 777.96L90.144 777.96L89.904 777.96z" stroke="none" fill="#D4D0C8" fill-rule="evenodd" /><path id="22" transform="matrix(1 0 0 -1 0 841)" d="M90.144 777.72L505.324 777.72L505.324 777.72L505.324 777.96L505.324 777.96L90.144 777.96z" stroke="none" fill="#D4D0C8" fill-rule="evenodd" /><path id="23" transform="matrix(1 0 0 -1 0 841)" d="M505.32 777.72L505.56 777.72L505.56 777.72L505.56 777.96L505.56 777.96L505.32 777.96z" stroke="none" fill="#D4D0C8" fill-rule="evenodd" /><path id="24" transform="matrix(1 0 0 -1 0 841)" d="M505.32 777.72L505.56 777.72L505.56 777.72L505.56 777.96L505.56 777.96L505.32 777.96z" stroke="none" fill="#D4D0C8" fill-rule="evenodd" /><g clip-path="url(#5)"></g><g clip-path="url(#6)"></g><g clip-path="url(#7)"></g><g clip-path="url(#8)"><g clip-path="url(#9)"><path id="28" transform="matrix(1 0 0 -1 0 841)" d="M228.998 730.785L230.1947 731.4818" stroke="#000000" stroke-width="0.1397364" stroke-linecap="square" fill="none" /><path id="29" transform="matrix(1 0 0 -1 0 841)" d="M230.2197 731.4818L233.1382 726.7043" stroke="#000000" stroke-width="0.1397364" stroke-linecap="square" fill="none" /><path id="30" transform="matrix(1 0 0 -1 0 841)" d="M233.1382 726.6794L236.3301 739.4194" stroke="#000000" stroke-width="0.1397364" stroke-linecap="square" fill="none" /><path id="31" transform="matrix(1 0 0 -1 0 841)" d="M236.3301 739.4194L242.5155 739.4194" stroke="#000000" stroke-width="0.1397364" stroke-linecap="square" fill="none" /><path id="32" transform="matrix(1 0 0 -1 0 841)" d="M228.4241 731.432L230.0699 732.3527L230.0699 732.3527L232.6641 728.4212L232.6641 728.4212L235.6075 740.1907L235.6075 740.1907L242.0174 740.1907L242.0174 740.1907L242.0174 739.5936L242.0174 739.5936L236.0557 739.5936L236.0557 739.5936L232.9635 727.1771L232.9635 727.1771L232.3646 727.1771L232.3646 727.1771L229.4222 731.5813L229.4222 731.5813L228.5987 731.0837L228.5987 731.0837L228.4241 731.432z" stroke="none" fill="#000000" fill-rule="evenodd" /><path id="33" transform="matrix(1 0 0 -1 0 841)" d="M308.9801 730.785L310.1579 731.4818" stroke="#000000" stroke-width="0.1397364" stroke-linecap="square" fill="none" /><path id="34" transform="matrix(1 0 0 -1 0 841)" d="M310.2078 731.4818L313.1023 726.7043" stroke="#000000" stroke-width="0.1397364" stroke-linecap="square" fill="none" /><path id="35" transform="matrix(1 0 0 -1 0 841)" d="M313.1023 726.6794L316.2863 739.4194" stroke="#000000" stroke-width="0.1397364" stroke-linecap="square" fill="none" /><path id="36" transform="matrix(1 0 0 -1 0 841)" d="M316.2863 739.4194L322.4547 739.4194" stroke="#000000" stroke-width="0.1397364" stroke-linecap="square" fill="none" /><path id="37" transform="matrix(1 0 0 -1 0 841)" d="M308.3812 731.432L310.058 732.3527L310.058 732.3527L312.6531 728.4212L312.6531 728.4212L315.5876 740.1907L315.5876 740.1907L321.9756 740.1907L321.9756 740.1907L321.9756 739.5936L321.9756 739.5936L316.0168 739.5936L316.0168 739.5936L312.9226 727.1771L312.9226 727.1771L312.3238 727.1771L312.3238 727.1771L309.3793 731.5813L309.3793 731.5813L308.5609 731.0837L308.5609 731.0837L308.3812 731.432z" stroke="none" fill="#000000" fill-rule="evenodd" /><path id="38" transform="matrix(1 0 0 -1 0 841)" d="M229.522 708.1915L230.7437 708.8882" stroke="#000000" stroke-width="0.1397364" stroke-linecap="square" fill="none" /><path id="39" transform="matrix(1 0 0 -1 0 841)" d="M230.7437 708.8882L233.6372 704.1108" stroke="#000000" stroke-width="0.1397364" stroke-linecap="square" fill="none" /><path id="40" transform="matrix(1 0 0 -1 0 841)" d="M233.6372 704.0859L236.8292 716.7761" stroke="#000000" stroke-width="0.1397364" stroke-linecap="square" fill="none" /><path id="41" transform="matrix(1 0 0 -1 0 841)" d="M236.8292 716.801L243.0145 716.801" stroke="#000000" stroke-width="0.1397364" stroke-linecap="square" fill="none" /><path id="42" transform="matrix(1 0 0 -1 0 841)" d="M228.9231 708.8385L230.569 709.7592L230.569 709.7592L233.1881 705.8276L233.1881 705.8276L236.1305 717.5972L236.1305 717.5972L242.5155 717.5972L242.5155 717.5972L242.5155 717L242.5155 717L236.5547 717L236.5547 717L233.4626 704.5835L233.4626 704.5835L232.8637 704.5835L232.8637 704.5835L229.9212 708.9878L229.9212 708.9878L229.0978 708.4901L229.0978 708.4901L228.9231 708.8385z" stroke="none" fill="#000000" fill-rule="evenodd" /><path id="43" transform="matrix(1 0 0 -1 0 841)" d="M314.9688 708.1915L316.1366 708.8882" stroke="#000000" stroke-width="0.1397364" stroke-linecap="square" fill="none" /><path id="44" transform="matrix(1 0 0 -1 0 841)" d="M316.1665 708.8882L319.081 704.1108" stroke="#000000" stroke-width="0.1397364" stroke-linecap="square" fill="none" /><path id="45" transform="matrix(1 0 0 -1 0 841)" d="M319.081 704.0859L322.275 716.7761" stroke="#000000" stroke-width="0.1397364" stroke-linecap="square" fill="none" /><path id="46" transform="matrix(1 0 0 -1 0 841)" d="M322.275 716.801L328.4633 716.801" stroke="#000000" stroke-width="0.1397364" stroke-linecap="square" fill="none" /><path id="47" transform="matrix(1 0 0 -1 0 841)" d="M314.3699 708.8385L316.0168 709.7592L316.0168 709.7592L318.6119 705.8276L318.6119 705.8276L321.5563 717.5972L321.5563 717.5972L327.9643 717.5972L327.9643 717.5972L327.9643 717L327.9643 717L322.0055 717L322.0055 717L318.9113 704.5835L318.9113 704.5835L318.3125 704.5835L318.3125 704.5835L315.368 708.9878L315.368 708.9878L314.5396 708.4901L314.5396 708.4901L314.3699 708.8385z" stroke="none" fill="#000000" fill-rule="evenodd" /></g></g><g clip-path="url(#10)"></g><g clip-path="url(#11)"></g><g clip-path="url(#12)"></g><g clip-path="url(#13)"></g><g clip-path="url(#14)"></g><g clip-path="url(#15)"></g><g clip-path="url(#16)"></g><g clip-path="url(#17)"><g clip-path="url(#18)"><path id="127" transform="matrix(1 0 0 -1 0 841)" d="M192.5289 675.9404L192.5289 659.0143" stroke="#000000" stroke-width="0.5918809" fill="none" /><path id="128" transform="matrix(1 0 0 -1 0 841)" d="M208.7813 675.9404L208.7813 659.0143" stroke="#000000" stroke-width="0.5918809" fill="none" /><path id="129" transform="matrix(1 0 0 -1 0 841)" d="M222.7646 662.2509L223.8739 663.8572" stroke="#000000" stroke-width="0.1381746" stroke-linecap="square" fill="none" /><path id="130" transform="matrix(1 0 0 -1 0 841)" d="M223.9233 663.8812L226.8092 651.7979" stroke="#000000" stroke-width="0.1381746" stroke-linecap="square" fill="none" /><path id="131" transform="matrix(1 0 0 -1 0 841)" d="M226.8092 651.7499L230.0148 683.5644" stroke="#000000" stroke-width="0.1381746" stroke-linecap="square" fill="none" /><path id="132" transform="matrix(1 0 0 -1 0 841)" d="M230.0148 683.6124L282.5942 683.6124" stroke="#000000" stroke-width="0.1381746" stroke-linecap="square" fill="none" /><path id="133" transform="matrix(1 0 0 -1 0 841)" d="M222.1231 662.8262L223.7752 665.0559L223.7752 665.0559L226.3157 655.0345L226.3157 655.0345L229.2756 684.3556L229.2756 684.3556L282.1254 684.3556L282.1254 684.3556L282.1254 683.7802L282.1254 683.7802L229.8174 683.7802L229.8174 683.7802L226.6364 652.2294L226.6364 652.2294L226.0443 652.2294L226.0443 652.2294L223.0854 663.6174L223.0854 663.6174L222.4192 662.6105L222.4192 662.6105L222.1231 662.8262z" stroke="none" fill="#000000" fill-rule="evenodd" /></g></g><g clip-path="url(#19)"></g><g clip-path="url(#20)"></g><g clip-path="url(#21)"></g><g clip-path="url(#22)"></g><g clip-path="url(#23)"></g><g clip-path="url(#24)"></g><g clip-path="url(#25)"></g><g clip-path="url(#26)"></g><g clip-path="url(#27)"></g><g clip-path="url(#28)"></g><g clip-path="url(#29)"></g><g clip-path="url(#30)"></g><g clip-path="url(#31)"></g><g clip-path="url(#32)"></g><g clip-path="url(#33)"></g><g clip-path="url(#34)"></g><g clip-path="url(#35)"></g><g clip-path="url(#36)"></g><g clip-path="url(#37)"></g><g clip-path="url(#38)"></g><g clip-path="url(#39)"></g><g clip-path="url(#40)"></g><g clip-path="url(#41)"></g><g clip-path="url(#42)"></g><g clip-path="url(#43)"></g><g clip-path="url(#44)"></g><g clip-path="url(#45)"><g clip-path="url(#46)"></g></g><g clip-path="url(#47)"></g><g clip-path="url(#48)"></g><g clip-path="url(#49)"></g><g clip-path="url(#50)"></g><g clip-path="url(#51)"></g><g clip-path="url(#52)"><g clip-path="url(#53)"><path id="397" transform="matrix(1 0 0 -1 0 841)" d="M194.1327 500.5403L195.3075 501.2314" stroke="#000000" stroke-width="0.1370618" stroke-linecap="square" fill="none" /><path id="398" transform="matrix(1 0 0 -1 0 841)" d="M195.3319 501.2314L198.1936 496.5166" stroke="#000000" stroke-width="0.1370618" stroke-linecap="square" fill="none" /><path id="399" transform="matrix(1 0 0 -1 0 841)" d="M198.1936 496.4919L201.3255 509.0813" stroke="#000000" stroke-width="0.1370618" stroke-linecap="square" fill="none" /><path id="400" transform="matrix(1 0 0 -1 0 841)" d="M201.3255 509.0813L220.5043 509.0813" stroke="#000000" stroke-width="0.1370618" stroke-linecap="square" fill="none" /><path id="401" transform="matrix(1 0 0 -1 0 841)" d="M193.5452 501.2068L195.1851 502.0954L195.1851 502.0954L197.7286 498.2199L197.7286 498.2199L200.6157 509.8465L200.6157 509.8465L220.0638 509.8465L220.0638 509.8465L220.0638 509.2541L220.0638 509.2541L201.0318 509.2541L201.0318 509.2541L197.9978 496.9857L197.9978 496.9857L197.4114 496.9857L197.4114 496.9857L194.5487 501.3549L194.5487 501.3549L193.741 500.8612L193.741 500.8612L193.5452 501.2068z" stroke="none" fill="#000000" fill-rule="evenodd" /><path id="402" transform="matrix(1 0 0 -1 0 841)" d="M334.8736 500.5403L336.0484 501.2314" stroke="#000000" stroke-width="0.1370618" stroke-linecap="square" fill="none" /><path id="403" transform="matrix(1 0 0 -1 0 841)" d="M336.068 501.2314L338.9071 496.5166" stroke="#000000" stroke-width="0.1370618" stroke-linecap="square" fill="none" /><path id="404" transform="matrix(1 0 0 -1 0 841)" d="M338.9071 496.4919L342.04 509.0813" stroke="#000000" stroke-width="0.1370618" stroke-linecap="square" fill="none" /><path id="405" transform="matrix(1 0 0 -1 0 841)" d="M342.04 509.0813L361.2874 509.0813" stroke="#000000" stroke-width="0.1370618" stroke-linecap="square" fill="none" /><path id="406" transform="matrix(1 0 0 -1 0 841)" d="M334.2862 501.2068L335.9211 502.0954L335.9211 502.0954L338.4666 498.2199L338.4666 498.2199L341.3546 509.8465L341.3546 509.8465L360.7979 509.8465L360.7979 509.8465L360.7979 509.2541L360.7979 509.2541L341.7658 509.2541L341.7658 509.2541L338.7309 496.9857L338.7309 496.9857L338.1435 496.9857L338.1435 496.9857L335.2652 501.3549L335.2652 501.3549L334.482 500.8612L334.482 500.8612L334.2862 501.2068z" stroke="none" fill="#000000" fill-rule="evenodd" /><path id="407" transform="matrix(1 0 0 -1 0 841)" d="M194.6222 478.2251L195.796 478.9163" stroke="#000000" stroke-width="0.1370618" stroke-linecap="square" fill="none" /><path id="408" transform="matrix(1 0 0 -1 0 841)" d="M195.8205 478.9163L198.6831 474.1521" stroke="#000000" stroke-width="0.1370618" stroke-linecap="square" fill="none" /><path id="409" transform="matrix(1 0 0 -1 0 841)" d="M198.6831 474.1521L201.814 486.7167" stroke="#000000" stroke-width="0.1370618" stroke-linecap="square" fill="none" /><path id="410" transform="matrix(1 0 0 -1 0 841)" d="M201.814 486.7414L212.9698 486.7414" stroke="#000000" stroke-width="0.1370618" stroke-linecap="square" fill="none" /><path id="411" transform="matrix(1 0 0 -1 0 841)" d="M194.0348 478.8669L195.6736 479.7802L195.6736 479.7802L198.2181 475.9047L198.2181 475.9047L201.1052 487.5313L201.1052 487.5313L212.5048 487.5313L212.5048 487.5313L212.5048 486.9142L212.5048 486.9142L201.5203 486.9142L201.5203 486.9142L198.4873 474.6458L198.4873 474.6458L197.8999 474.6458L197.8999 474.6458L195.0382 479.015L195.0382 479.015L194.2306 478.5213L194.2306 478.5213L194.0348 478.8669z" stroke="none" fill="#000000" fill-rule="evenodd" /><path id="412" transform="matrix(1 0 0 -1 0 841)" d="M339.6903 478.2251L340.8358 478.9163" stroke="#000000" stroke-width="0.1370618" stroke-linecap="square" fill="none" /><path id="413" transform="matrix(1 0 0 -1 0 841)" d="M340.8847 478.9163L343.7239 474.1521" stroke="#000000" stroke-width="0.1370618" stroke-linecap="square" fill="none" /><path id="414" transform="matrix(1 0 0 -1 0 841)" d="M343.7239 474.1521L346.8567 486.7167" stroke="#000000" stroke-width="0.1370618" stroke-linecap="square" fill="none" /><path id="415" transform="matrix(1 0 0 -1 0 841)" d="M346.8567 486.7414L358.037 486.7414" stroke="#000000" stroke-width="0.1370618" stroke-linecap="square" fill="none" /><path id="416" transform="matrix(1 0 0 -1 0 841)" d="M339.1029 478.8669L340.7379 479.7802L340.7379 479.7802L343.2833 475.9047L343.2833 475.9047L346.1518 487.5313L346.1518 487.5313L357.5769 487.5313L357.5769 487.5313L357.5769 486.9142L357.5769 486.9142L346.5924 486.9142L346.5924 486.9142L343.5574 474.6458L343.5574 474.6458L342.97 474.6458L342.97 474.6458L340.0819 479.015L340.0819 479.015L339.2987 478.5213L339.2987 478.5213L339.1029 478.8669z" stroke="none" fill="#000000" fill-rule="evenodd" /><path id="417" transform="matrix(1 0 0 -1 0 841)" d="M194.2795 455.8852L195.4543 456.5764" stroke="#000000" stroke-width="0.1370618" stroke-linecap="square" fill="none" /><path id="418" transform="matrix(1 0 0 -1 0 841)" d="M195.4788 456.5764L198.3405 451.8616" stroke="#000000" stroke-width="0.1370618" stroke-linecap="square" fill="none" /><path id="419" transform="matrix(1 0 0 -1 0 841)" d="M198.3405 451.8369L201.4723 464.3768" stroke="#000000" stroke-width="0.1370618" stroke-linecap="square" fill="none" /><path id="420" transform="matrix(1 0 0 -1 0 841)" d="M201.4723 464.4262L220.6756 464.4262" stroke="#000000" stroke-width="0.1370618" stroke-linecap="square" fill="none" /><path id="421" transform="matrix(1 0 0 -1 0 841)" d="M193.7166 456.5517L195.3319 457.4404L195.3319 457.4404L197.8754 453.5895L197.8754 453.5895L200.7625 465.1914L200.7625 465.1914L220.2106 465.1914L220.2106 465.1914L220.2106 464.599L220.2106 464.599L201.2031 464.599L201.2031 464.599L198.1447 452.3306L198.1447 452.3306L197.5817 452.3306L197.5817 452.3306L194.6956 456.6998L194.6956 456.6998L193.8879 456.2061L193.8879 456.2061L193.7166 456.5517z" stroke="none" fill="#000000" fill-rule="evenodd" /><path id="422" transform="matrix(1 0 0 -1 0 841)" d="M334.7757 455.8852L335.9505 456.5764" stroke="#000000" stroke-width="0.1370618" stroke-linecap="square" fill="none" /><path id="423" transform="matrix(1 0 0 -1 0 841)" d="M335.9701 456.5764L338.8288 451.8616" stroke="#000000" stroke-width="0.1370618" stroke-linecap="square" fill="none" /><path id="424" transform="matrix(1 0 0 -1 0 841)" d="M338.8288 451.8369L341.9616 464.3768" stroke="#000000" stroke-width="0.1370618" stroke-linecap="square" fill="none" /><path id="425" transform="matrix(1 0 0 -1 0 841)" d="M341.9616 464.4262L361.1699 464.4262" stroke="#000000" stroke-width="0.1370618" stroke-linecap="square" fill="none" /><path id="426" transform="matrix(1 0 0 -1 0 841)" d="M334.1883 456.5517L335.8232 457.4404L335.8232 457.4404L338.3687 453.5895L338.3687 453.5895L341.2568 465.1914L341.2568 465.1914L360.7 465.1914L360.7 465.1914L360.7 464.599L360.7 464.599L341.6679 464.599L341.6679 464.599L338.633 452.3306L338.633 452.3306L338.0456 452.3306L338.0456 452.3306L335.1869 456.6998L335.1869 456.6998L334.3841 456.2061L334.3841 456.2061L334.1883 456.5517z" stroke="none" fill="#000000" fill-rule="evenodd" /></g></g><g clip-path="url(#54)"></g><g clip-path="url(#55)"></g><g clip-path="url(#56)"></g><g clip-path="url(#57)"><g clip-path="url(#58)"></g></g><g clip-path="url(#59)"></g><g clip-path="url(#60)"></g><g clip-path="url(#61)"></g><g clip-path="url(#62)"></g><g clip-path="url(#63)"></g><g clip-path="url(#64)"></g><g clip-path="url(#65)"></g><g clip-path="url(#66)"></g><g clip-path="url(#67)"></g><g clip-path="url(#68)"></g><g clip-path="url(#69)"></g><g clip-path="url(#70)"></g><g clip-path="url(#71)"></g><g clip-path="url(#72)"></g><g clip-path="url(#73)"></g><g clip-path="url(#74)"></g><g clip-path="url(#75)"><g clip-path="url(#76)"><path id="638" transform="matrix(1 0 0 -1 0 841)" d="M192.5416 395.1165L192.5416 378.1903" stroke="#000000" stroke-width="0.5951866" fill="none" /><path id="639" transform="matrix(1 0 0 -1 0 841)" d="M208.4878 395.1165L208.4878 378.1903" stroke="#000000" stroke-width="0.5951866" fill="none" /><path id="640" transform="matrix(1 0 0 -1 0 841)" d="M222.5491 381.4268L223.6895 383.0332" stroke="#000000" stroke-width="0.1389464" stroke-linecap="square" fill="none" /><path id="641" transform="matrix(1 0 0 -1 0 841)" d="M223.7143 383.0572L226.6411 370.9739" stroke="#000000" stroke-width="0.1389464" stroke-linecap="square" fill="none" /><path id="642" transform="matrix(1 0 0 -1 0 841)" d="M226.6411 370.9259L229.8647 402.8123" stroke="#000000" stroke-width="0.1389464" stroke-linecap="square" fill="none" /><path id="643" transform="matrix(1 0 0 -1 0 841)" d="M229.8647 402.8123L281.9695 402.8123" stroke="#000000" stroke-width="0.1389464" stroke-linecap="square" fill="none" /><path id="644" transform="matrix(1 0 0 -1 0 841)" d="M221.904 382.0023L223.5654 384.2559L223.5654 384.2559L226.1449 374.2104L226.1449 374.2104L229.1213 403.5556L229.1213 403.5556L281.4981 403.5556L281.4981 403.5556L281.4981 402.9802L281.4981 402.9802L229.6414 402.9802L229.6414 402.9802L226.4426 371.4054L226.4426 371.4054L225.8471 371.4054L225.8471 371.4054L222.8717 382.7934L222.8717 382.7934L222.2266 381.7865L222.2266 381.7865L221.904 382.0023z" stroke="none" fill="#000000" fill-rule="evenodd" /></g></g><g clip-path="url(#77)"></g><g clip-path="url(#78)"></g><g clip-path="url(#79)"></g><g clip-path="url(#80)"></g><g clip-path="url(#81)"></g><g clip-path="url(#82)"></g><g clip-path="url(#83)"></g><g clip-path="url(#84)"></g><g clip-path="url(#85)"></g><g clip-path="url(#86)"></g><g clip-path="url(#87)"></g><g clip-path="url(#88)"></g><g clip-path="url(#89)"></g><g clip-path="url(#90)"></g><g clip-path="url(#91)"></g><g clip-path="url(#92)"></g><g clip-path="url(#93)"></g></g></g></svg>