<svg xmlns="http://www.w3.org/2000/svg" xmlns:xlink="http://www.w3.org/1999/xlink" id="body_513" preserveAspectRatio="xMinYMin meet" viewBox="0 0 793 1121"><defs><clipPath id="1"><path id="" clip-rule="evenodd" d="M0 841L0 -0.9199829L0 -0.9199829L595.32 -0.9199829L595.32 -0.9199829L595.32 841L595.32 841L0 841z" /></clipPath><clipPath id="2"><path id="" clip-rule="evenodd" d="M0 840.9999L595.32 840.9999L595.32 840.9999L595.32 -0.9200439L595.32 -0.9200439L0 -0.9200439z" /></clipPath><clipPath id="3"><path id="" clip-rule="evenodd" d="M8.871E-06 841L595.32 841L595.32 841L595.32 -0.9199829L595.32 -0.9199829L8.871E-06 -0.9199829z" /></clipPath><clipPath id="4"><path id="" clip-rule="evenodd" d="M8.871E-06 841L595.32 841L595.32 841L595.32 -0.9199829L595.32 -0.9199829L8.871E-06 -0.9199829z" /></clipPath><clipPath id="5"><path id="" clip-rule="evenodd" d="M8.871E-06 841L595.32 841L595.32 841L595.32 -0.9199829L595.32 -0.9199829L8.871E-06 -0.9199829z" /></clipPath><clipPath id="6"><path id="" clip-rule="evenodd" d="M8.871E-06 841L595.32 841L595.32 841L595.32 -0.9199829L595.32 -0.9199829L8.871E-06 -0.9199829z" /></clipPath><clipPath id="7"><path id="" clip-rule="evenodd" d="M8.871E-06 841L595.32 841L595.32 841L595.32 -0.9199829L595.32 -0.9199829L8.871E-06 -0.9199829z" /></clipPath><clipPath id="8"><path id="" clip-rule="evenodd" d="M8.871E-06 841L595.32 841L595.32 841L595.32 -0.9199829L595.32 -0.9199829L8.871E-06 -0.9199829z" /></clipPath><clipPath id="9"><path id="" clip-rule="evenodd" d="M8.871E-06 841L595.32 841L595.32 841L595.32 -0.9199829L595.32 -0.9199829L8.871E-06 -0.9199829z" /></clipPath><clipPath id="10"><path id="" clip-rule="evenodd" d="M8.871E-06 841L595.32 841L595.32 841L595.32 -0.9199829L595.32 -0.9199829L8.871E-06 -0.9199829z" /></clipPath><clipPath id="11"><path id="" clip-rule="evenodd" d="M8.871E-06 841L595.32 841L595.32 841L595.32 -0.9199829L595.32 -0.9199829L8.871E-06 -0.9199829z" /></clipPath><clipPath id="12"><path id="" clip-rule="evenodd" d="M8.871E-06 841L595.32 841L595.32 841L595.32 -0.9199829L595.32 -0.9199829L8.871E-06 -0.9199829z" /></clipPath><clipPath id="13"><path id="" clip-rule="evenodd" d="M8.871E-06 841L595.32 841L595.32 841L595.32 -0.9199829L595.32 -0.9199829L8.871E-06 -0.9199829z" /></clipPath><clipPath id="14"><path id="" clip-rule="evenodd" d="M8.871E-06 841L595.32 841L595.32 841L595.32 -0.9199829L595.32 -0.9199829L8.871E-06 -0.9199829z" /></clipPath><clipPath id="15"><path id="" clip-rule="evenodd" d="M8.871E-06 841L595.32 841L595.32 841L595.32 -0.9199829L595.32 -0.9199829L8.871E-06 -0.9199829z" /></clipPath><clipPath id="16"><path id="" clip-rule="evenodd" d="M8.871E-06 841L595.32 841L595.32 841L595.32 -0.9199829L595.32 -0.9199829L8.871E-06 -0.9199829z" /></clipPath><clipPath id="17"><path id="" clip-rule="evenodd" d="M8.871E-06 841L595.32 841L595.32 841L595.32 -0.9199829L595.32 -0.9199829L8.871E-06 -0.9199829z" /></clipPath><clipPath id="18"><path id="" clip-rule="evenodd" d="M8.871E-06 841L595.32 841L595.32 841L595.32 -0.9199829L595.32 -0.9199829L8.871E-06 -0.9199829z" /></clipPath><clipPath id="19"><path id="" clip-rule="evenodd" d="M8.871E-06 841L595.32 841L595.32 841L595.32 -0.9199829L595.32 -0.9199829L8.871E-06 -0.9199829z" /></clipPath><clipPath id="20"><path id="" clip-rule="evenodd" d="M8.871E-06 841L595.32 841L595.32 841L595.32 -0.9199829L595.32 -0.9199829L8.871E-06 -0.9199829z" /></clipPath><clipPath id="21"><path id="" clip-rule="evenodd" d="M8.871E-06 841L595.32 841L595.32 841L595.32 -0.9199829L595.32 -0.9199829L8.871E-06 -0.9199829z" /></clipPath><clipPath id="22"><path id="" clip-rule="evenodd" d="M8.871E-06 841L595.32 841L595.32 841L595.32 -0.9199829L595.32 -0.9199829L8.871E-06 -0.9199829z" /></clipPath><clipPath id="23"><path id="" clip-rule="evenodd" d="M8.871E-06 841L595.32 841L595.32 841L595.32 -0.9199829L595.32 -0.9199829L8.871E-06 -0.9199829z" /></clipPath><clipPath id="24"><path id="" clip-rule="evenodd" d="M8.871E-06 841L595.32 841L595.32 841L595.32 -0.9199829L595.32 -0.9199829L8.871E-06 -0.9199829z" /></clipPath><clipPath id="25"><path id="" clip-rule="evenodd" d="M8.871E-06 841L595.32 841L595.32 841L595.32 -0.9199829L595.32 -0.9199829L8.871E-06 -0.9199829z" /></clipPath><clipPath id="26"><path id="" clip-rule="evenodd" d="M8.871E-06 841L595.32 841L595.32 841L595.32 -0.9199829L595.32 -0.9199829L8.871E-06 -0.9199829z" /></clipPath><clipPath id="27"><path id="" clip-rule="evenodd" d="M8.871E-06 841L595.32 841L595.32 841L595.32 -0.9199829L595.32 -0.9199829L8.871E-06 -0.9199829z" /></clipPath><clipPath id="28"><path id="" clip-rule="evenodd" d="M8.871E-06 841L595.32 841L595.32 841L595.32 -0.9199829L595.32 -0.9199829L8.871E-06 -0.9199829z" /></clipPath><clipPath id="29"><path id="" clip-rule="evenodd" d="M8.871E-06 841L595.32 841L595.32 841L595.32 -0.9199829L595.32 -0.9199829L8.871E-06 -0.9199829z" /></clipPath><clipPath id="30"><path id="" clip-rule="evenodd" d="M8.871E-06 841L595.32 841L595.32 841L595.32 -0.9199829L595.32 -0.9199829L8.871E-06 -0.9199829z" /></clipPath><clipPath id="31"><path id="" clip-rule="evenodd" d="M8.871E-06 841L595.32 841L595.32 841L595.32 -0.9199829L595.32 -0.9199829L8.871E-06 -0.9199829z" /></clipPath><clipPath id="32"><path id="" clip-rule="evenodd" d="M8.871E-06 841L595.32 841L595.32 841L595.32 -0.9199829L595.32 -0.9199829L8.871E-06 -0.9199829z" /></clipPath><clipPath id="33"><path id="" clip-rule="evenodd" d="M8.871E-06 841L595.32 841L595.32 841L595.32 -0.9199829L595.32 -0.9199829L8.871E-06 -0.9199829z" /></clipPath><clipPath id="34"><path id="" clip-rule="evenodd" d="M8.871E-06 841L595.32 841L595.32 841L595.32 -0.9199829L595.32 -0.9199829L8.871E-06 -0.9199829z" /></clipPath><clipPath id="35"><path id="" clip-rule="evenodd" d="M8.871E-06 841L595.32 841L595.32 841L595.32 -0.9199829L595.32 -0.9199829L8.871E-06 -0.9199829z" /></clipPath><clipPath id="36"><path id="" clip-rule="evenodd" d="M0 840.9999L595.32 840.9999L595.32 840.9999L595.32 -0.9200439L595.32 -0.9200439L0 -0.9200439z" /></clipPath><clipPath id="37"><path id="" clip-rule="evenodd" d="M241.36 449.24L353.9626 449.24L353.9626 449.24L353.9626 377.7401L353.9626 377.7401L241.36 377.7401z" /></clipPath><clipPath id="38"><path id="" clip-rule="evenodd" d="M8.871E-06 841L595.32 841L595.32 841L595.32 -0.9199829L595.32 -0.9199829L8.871E-06 -0.9199829z" /></clipPath><clipPath id="39"><path id="" clip-rule="evenodd" d="M8.871E-06 841L595.32 841L595.32 841L595.32 -0.9199829L595.32 -0.9199829L8.871E-06 -0.9199829z" /></clipPath><clipPath id="40"><path id="" clip-rule="evenodd" d="M8.871E-06 841L595.32 841L595.32 841L595.32 -0.9199829L595.32 -0.9199829L8.871E-06 -0.9199829z" /></clipPath><clipPath id="41"><path id="" clip-rule="evenodd" d="M8.871E-06 841L595.32 841L595.32 841L595.32 -0.9199829L595.32 -0.9199829L8.871E-06 -0.9199829z" /></clipPath><clipPath id="42"><path id="" clip-rule="evenodd" d="M8.871E-06 841L595.32 841L595.32 841L595.32 -0.9199829L595.32 -0.9199829L8.871E-06 -0.9199829z" /></clipPath><clipPath id="43"><path id="" clip-rule="evenodd" d="M8.871E-06 841L595.32 841L595.32 841L595.32 -0.9199829L595.32 -0.9199829L8.871E-06 -0.9199829z" /></clipPath><clipPath id="44"><path id="" clip-rule="evenodd" d="M8.871E-06 841L595.32 841L595.32 841L595.32 -0.9199829L595.32 -0.9199829L8.871E-06 -0.9199829z" /></clipPath><clipPath id="45"><path id="" clip-rule="evenodd" d="M8.871E-06 841L595.32 841L595.32 841L595.32 -0.9199829L595.32 -0.9199829L8.871E-06 -0.9199829z" /></clipPath><clipPath id="46"><path id="" clip-rule="evenodd" d="M8.871E-06 841L595.32 841L595.32 841L595.32 -0.9199829L595.32 -0.9199829L8.871E-06 -0.9199829z" /></clipPath><clipPath id="47"><path id="" clip-rule="evenodd" d="M8.871E-06 841L595.32 841L595.32 841L595.32 -0.9199829L595.32 -0.9199829L8.871E-06 -0.9199829z" /></clipPath><clipPath id="48"><path id="" clip-rule="evenodd" d="M8.871E-06 841L595.32 841L595.32 841L595.32 -0.9199829L595.32 -0.9199829L8.871E-06 -0.9199829z" /></clipPath><clipPath id="49"><path id="" clip-rule="evenodd" d="M8.871E-06 841L595.32 841L595.32 841L595.32 -0.9199829L595.32 -0.9199829L8.871E-06 -0.9199829z" /></clipPath><clipPath id="50"><path id="" clip-rule="evenodd" d="M8.871E-06 841L595.32 841L595.32 841L595.32 -0.9199829L595.32 -0.9199829L8.871E-06 -0.9199829z" /></clipPath><clipPath id="51"><path id="" clip-rule="evenodd" d="M8.871E-06 841L595.32 841L595.32 841L595.32 -0.9199829L595.32 -0.9199829L8.871E-06 -0.9199829z" /></clipPath><clipPath id="52"><path id="" clip-rule="evenodd" d="M8.871E-06 841L595.32 841L595.32 841L595.32 -0.9199829L595.32 -0.9199829L8.871E-06 -0.9199829z" /></clipPath><clipPath id="53"><path id="" clip-rule="evenodd" d="M8.871E-06 841L595.32 841L595.32 841L595.32 -0.9199829L595.32 -0.9199829L8.871E-06 -0.9199829z" /></clipPath><clipPath id="54"><path id="" clip-rule="evenodd" d="M8.871E-06 841L595.32 841L595.32 841L595.32 -0.9199829L595.32 -0.9199829L8.871E-06 -0.9199829z" /></clipPath><clipPath id="55"><path id="" clip-rule="evenodd" d="M8.871E-06 841L595.32 841L595.32 841L595.32 -0.9199829L595.32 -0.9199829L8.871E-06 -0.9199829z" /></clipPath><clipPath id="56"><path id="" clip-rule="evenodd" d="M8.871E-06 841L595.32 841L595.32 841L595.32 -0.9199829L595.32 -0.9199829L8.871E-06 -0.9199829z" /></clipPath><clipPath id="57"><path id="" clip-rule="evenodd" d="M8.871E-06 841L595.32 841L595.32 841L595.32 -0.9199829L595.32 -0.9199829L8.871E-06 -0.9199829z" /></clipPath><clipPath id="58"><path id="" clip-rule="evenodd" d="M8.871E-06 841L595.32 841L595.32 841L595.32 -0.9199829L595.32 -0.9199829L8.871E-06 -0.9199829z" /></clipPath><clipPath id="59"><path id="" clip-rule="evenodd" d="M8.871E-06 841L595.32 841L595.32 841L595.32 -0.9199829L595.32 -0.9199829L8.871E-06 -0.9199829z" /></clipPath><clipPath id="60"><path id="" clip-rule="evenodd" d="M8.871E-06 841L595.32 841L595.32 841L595.32 -0.9199829L595.32 -0.9199829L8.871E-06 -0.9199829z" /></clipPath><clipPath id="61"><path id="" clip-rule="evenodd" d="M8.871E-06 841L595.32 841L595.32 841L595.32 -0.9199829L595.32 -0.9199829L8.871E-06 -0.9199829z" /></clipPath><clipPath id="62"><path id="" clip-rule="evenodd" d="M8.871E-06 841L595.32 841L595.32 841L595.32 -0.9199829L595.32 -0.9199829L8.871E-06 -0.9199829z" /></clipPath><clipPath id="63"><path id="" clip-rule="evenodd" d="M8.871E-06 841L595.32 841L595.32 841L595.32 -0.9199829L595.32 -0.9199829L8.871E-06 -0.9199829z" /></clipPath><clipPath id="64"><path id="" clip-rule="evenodd" d="M8.871E-06 841L595.32 841L595.32 841L595.32 -0.9199829L595.32 -0.9199829L8.871E-06 -0.9199829z" /></clipPath><clipPath id="65"><path id="" clip-rule="evenodd" d="M8.871E-06 841L595.32 841L595.32 841L595.32 -0.9199829L595.32 -0.9199829L8.871E-06 -0.9199829z" /></clipPath><clipPath id="66"><path id="" clip-rule="evenodd" d="M8.871E-06 841L595.32 841L595.32 841L595.32 -0.9199829L595.32 -0.9199829L8.871E-06 -0.9199829z" /></clipPath><clipPath id="67"><path id="" clip-rule="evenodd" d="M8.871E-06 841L595.32 841L595.32 841L595.32 -0.9199829L595.32 -0.9199829L8.871E-06 -0.9199829z" /></clipPath><clipPath id="68"><path id="" clip-rule="evenodd" d="M8.871E-06 841L595.32 841L595.32 841L595.32 -0.9199829L595.32 -0.9199829L8.871E-06 -0.9199829z" /></clipPath><clipPath id="69"><path id="" clip-rule="evenodd" d="M8.871E-06 841L595.32 841L595.32 841L595.32 -0.9199829L595.32 -0.9199829L8.871E-06 -0.9199829z" /></clipPath><clipPath id="70"><path id="" clip-rule="evenodd" d="M8.871E-06 841L595.32 841L595.32 841L595.32 -0.9199829L595.32 -0.9199829L8.871E-06 -0.9199829z" /></clipPath><clipPath id="71"><path id="" clip-rule="evenodd" d="M8.871E-06 841L595.32 841L595.32 841L595.32 -0.9199829L595.32 -0.9199829L8.871E-06 -0.9199829z" /></clipPath><clipPath id="72"><path id="" clip-rule="evenodd" d="M8.871E-06 841L595.32 841L595.32 841L595.32 -0.9199829L595.32 -0.9199829L8.871E-06 -0.9199829z" /></clipPath><clipPath id="73"><path id="" clip-rule="evenodd" d="M8.871E-06 841L595.32 841L595.32 841L595.32 -0.9199829L595.32 -0.9199829L8.871E-06 -0.9199829z" /></clipPath><clipPath id="74"><path id="" clip-rule="evenodd" d="M8.871E-06 841L595.32 841L595.32 841L595.32 -0.9199829L595.32 -0.9199829L8.871E-06 -0.9199829z" /></clipPath><clipPath id="75"><path id="" clip-rule="evenodd" d="M8.871E-06 841L595.32 841L595.32 841L595.32 -0.9199829L595.32 -0.9199829L8.871E-06 -0.9199829z" /></clipPath><clipPath id="76"><path id="" clip-rule="evenodd" d="M8.871E-06 841L595.32 841L595.32 841L595.32 -0.9199829L595.32 -0.9199829L8.871E-06 -0.9199829z" /></clipPath><clipPath id="77"><path id="" clip-rule="evenodd" d="M8.871E-06 841L595.32 841L595.32 841L595.32 -0.9199829L595.32 -0.9199829L8.871E-06 -0.9199829z" /></clipPath><clipPath id="78"><path id="" clip-rule="evenodd" d="M8.871E-06 841L595.32 841L595.32 841L595.32 -0.9199829L595.32 -0.9199829L8.871E-06 -0.9199829z" /></clipPath><clipPath id="79"><path id="" clip-rule="evenodd" d="M8.871E-06 841L595.32 841L595.32 841L595.32 -0.9199829L595.32 -0.9199829L8.871E-06 -0.9199829z" /></clipPath><clipPath id="80"><path id="" clip-rule="evenodd" d="M8.871E-06 841L595.32 841L595.32 841L595.32 -0.9199829L595.32 -0.9199829L8.871E-06 -0.9199829z" /></clipPath><clipPath id="81"><path id="" clip-rule="evenodd" d="M8.871E-06 841L595.32 841L595.32 841L595.32 -0.9199829L595.32 -0.9199829L8.871E-06 -0.9199829z" /></clipPath><clipPath id="82"><path id="" clip-rule="evenodd" d="M8.871E-06 841L595.32 841L595.32 841L595.32 -0.9199829L595.32 -0.9199829L8.871E-06 -0.9199829z" /></clipPath><clipPath id="83"><path id="" clip-rule="evenodd" d="M8.871E-06 841L595.32 841L595.32 841L595.32 -0.9199829L595.32 -0.9199829L8.871E-06 -0.9199829z" /></clipPath><clipPath id="84"><path id="" clip-rule="evenodd" d="M8.871E-06 841L595.32 841L595.32 841L595.32 -0.9199829L595.32 -0.9199829L8.871E-06 -0.9199829z" /></clipPath><clipPath id="85"><path id="" clip-rule="evenodd" d="M8.871E-06 841L595.32 841L595.32 841L595.32 -0.9199829L595.32 -0.9199829L8.871E-06 -0.9199829z" /></clipPath><clipPath id="86"><path id="" clip-rule="evenodd" d="M8.871E-06 841L595.32 841L595.32 841L595.32 -0.9199829L595.32 -0.9199829L8.871E-06 -0.9199829z" /></clipPath><clipPath id="87"><path id="" clip-rule="evenodd" d="M8.871E-06 841L595.32 841L595.32 841L595.32 -0.9199829L595.32 -0.9199829L8.871E-06 -0.9199829z" /></clipPath><clipPath id="88"><path id="" clip-rule="evenodd" d="M8.871E-06 841L595.32 841L595.32 841L595.32 -0.9199829L595.32 -0.9199829L8.871E-06 -0.9199829z" /></clipPath><clipPath id="89"><path id="" clip-rule="evenodd" d="M8.871E-06 841L595.32 841L595.32 841L595.32 -0.9199829L595.32 -0.9199829L8.871E-06 -0.9199829z" /></clipPath><clipPath id="90"><path id="" clip-rule="evenodd" d="M8.871E-06 841L595.32 841L595.32 841L595.32 -0.9199829L595.32 -0.9199829L8.871E-06 -0.9199829z" /></clipPath><clipPath id="91"><path id="" clip-rule="evenodd" d="M8.871E-06 841L595.32 841L595.32 841L595.32 -0.9199829L595.32 -0.9199829L8.871E-06 -0.9199829z" /></clipPath><clipPath id="92"><path id="" clip-rule="evenodd" d="M8.871E-06 841L595.32 841L595.32 841L595.32 -0.9199829L595.32 -0.9199829L8.871E-06 -0.9199829z" /></clipPath><clipPath id="93"><path id="" clip-rule="evenodd" d="M8.871E-06 841L595.32 841L595.32 841L595.32 -0.9199829L595.32 -0.9199829L8.871E-06 -0.9199829z" /></clipPath><clipPath id="94"><path id="" clip-rule="evenodd" d="M8.871E-06 841L595.32 841L595.32 841L595.32 -0.9199829L595.32 -0.9199829L8.871E-06 -0.9199829z" /></clipPath><clipPath id="95"><path id="" clip-rule="evenodd" d="M8.871E-06 841L595.32 841L595.32 841L595.32 -0.9199829L595.32 -0.9199829L8.871E-06 -0.9199829z" /></clipPath><clipPath id="96"><path id="" clip-rule="evenodd" d="M8.871E-06 841L595.32 841L595.32 841L595.32 -0.9199829L595.32 -0.9199829L8.871E-06 -0.9199829z" /></clipPath><clipPath id="97"><path id="" clip-rule="evenodd" d="M8.871E-06 841L595.32 841L595.32 841L595.32 -0.9199829L595.32 -0.9199829L8.871E-06 -0.9199829z" /></clipPath><clipPath id="98"><path id="" clip-rule="evenodd" d="M8.871E-06 841L595.32 841L595.32 841L595.32 -0.9199829L595.32 -0.9199829L8.871E-06 -0.9199829z" /></clipPath><clipPath id="99"><path id="" clip-rule="evenodd" d="M8.871E-06 841L595.32 841L595.32 841L595.32 -0.9199829L595.32 -0.9199829L8.871E-06 -0.9199829z" /></clipPath><clipPath id="100"><path id="" clip-rule="evenodd" d="M8.871E-06 841L595.32 841L595.32 841L595.32 -0.9199829L595.32 -0.9199829L8.871E-06 -0.9199829z" /></clipPath><clipPath id="101"><path id="" clip-rule="evenodd" d="M8.871E-06 841L595.32 841L595.32 841L595.32 -0.9199829L595.32 -0.9199829L8.871E-06 -0.9199829z" /></clipPath><clipPath id="102"><path id="" clip-rule="evenodd" d="M8.871E-06 841L595.32 841L595.32 841L595.32 -0.9199829L595.32 -0.9199829L8.871E-06 -0.9199829z" /></clipPath><clipPath id="103"><path id="" clip-rule="evenodd" d="M8.871E-06 841L595.32 841L595.32 841L595.32 -0.9199829L595.32 -0.9199829L8.871E-06 -0.9199829z" /></clipPath><clipPath id="104"><path id="" clip-rule="evenodd" d="M8.871E-06 841L595.32 841L595.32 841L595.32 -0.9199829L595.32 -0.9199829L8.871E-06 -0.9199829z" /></clipPath><clipPath id="105"><path id="" clip-rule="evenodd" d="M8.871E-06 841L595.32 841L595.32 841L595.32 -0.9199829L595.32 -0.9199829L8.871E-06 -0.9199829z" /></clipPath><clipPath id="106"><path id="" clip-rule="evenodd" d="M8.871E-06 841L595.32 841L595.32 841L595.32 -0.9199829L595.32 -0.9199829L8.871E-06 -0.9199829z" /></clipPath><clipPath id="107"><path id="" clip-rule="evenodd" d="M8.871E-06 841L595.32 841L595.32 841L595.32 -0.9199829L595.32 -0.9199829L8.871E-06 -0.9199829z" /></clipPath><clipPath id="108"><path id="" clip-rule="evenodd" d="M8.871E-06 841L595.32 841L595.32 841L595.32 -0.9199829L595.32 -0.9199829L8.871E-06 -0.9199829z" /></clipPath><clipPath id="109"><path id="" clip-rule="evenodd" d="M8.871E-06 841L595.32 841L595.32 841L595.32 -0.9199829L595.32 -0.9199829L8.871E-06 -0.9199829z" /></clipPath><clipPath id="110"><path id="" clip-rule="evenodd" d="M8.871E-06 841L595.32 841L595.32 841L595.32 -0.9199829L595.32 -0.9199829L8.871E-06 -0.9199829z" /></clipPath><clipPath id="111"><path id="" clip-rule="evenodd" d="M8.871E-06 841L595.32 841L595.32 841L595.32 -0.9199829L595.32 -0.9199829L8.871E-06 -0.9199829z" /></clipPath><clipPath id="112"><path id="" clip-rule="evenodd" d="M8.871E-06 841L595.32 841L595.32 841L595.32 -0.9199829L595.32 -0.9199829L8.871E-06 -0.9199829z" /></clipPath><clipPath id="113"><path id="" clip-rule="evenodd" d="M8.871E-06 841L595.32 841L595.32 841L595.32 -0.9199829L595.32 -0.9199829L8.871E-06 -0.9199829z" /></clipPath><clipPath id="114"><path id="" clip-rule="evenodd" d="M8.871E-06 841L595.32 841L595.32 841L595.32 -0.9199829L595.32 -0.9199829L8.871E-06 -0.9199829z" /></clipPath><clipPath id="115"><path id="" clip-rule="evenodd" d="M8.871E-06 841L595.32 841L595.32 841L595.32 -0.9199829L595.32 -0.9199829L8.871E-06 -0.9199829z" /></clipPath><clipPath id="116"><path id="" clip-rule="evenodd" d="M8.871E-06 841L595.32 841L595.32 841L595.32 -0.9199829L595.32 -0.9199829L8.871E-06 -0.9199829z" /></clipPath><clipPath id="117"><path id="" clip-rule="evenodd" d="M8.871E-06 841L595.32 841L595.32 841L595.32 -0.9199829L595.32 -0.9199829L8.871E-06 -0.9199829z" /></clipPath><clipPath id="118"><path id="" clip-rule="evenodd" d="M8.871E-06 841L595.32 841L595.32 841L595.32 -0.9199829L595.32 -0.9199829L8.871E-06 -0.9199829z" /></clipPath><clipPath id="119"><path id="" clip-rule="evenodd" d="M8.871E-06 841L595.32 841L595.32 841L595.32 -0.9199829L595.32 -0.9199829L8.871E-06 -0.9199829z" /></clipPath><clipPath id="120"><path id="" clip-rule="evenodd" d="M8.871E-06 841L595.32 841L595.32 841L595.32 -0.9199829L595.32 -0.9199829L8.871E-06 -0.9199829z" /></clipPath><clipPath id="121"><path id="" clip-rule="evenodd" d="M-8.871E-06 273.88L595.32 273.88L595.32 273.88L595.32 71.08002L595.32 71.08002L-8.871E-06 71.08002z" /></clipPath><clipPath id="122"><path id="" clip-rule="evenodd" d="M0 740.32L595.32 740.32L595.32 740.32L595.32 677.92L595.32 677.92L0 677.92z" /></clipPath></defs><g transform="matrix(1.333333 0 0 1.333333 0 0)"><g clip-path="url(#1)"><g clip-path="url(#2)"><path id="1" transform="matrix(1 0 0 -1 0 841)" d="M0 -0.13L595.45 -0.13L595.45 -0.13L595.45 841.92L595.45 841.92L0 841.92z" stroke="none" fill="#F5F1DE" fill-rule="evenodd" /></g><g clip-path="url(#3)"></g><g clip-path="url(#4)"></g><path id="23" transform="matrix(1 0 0 -1 0 841)" d="M90 777.72L505.3 777.72L505.3 777.72L505.3 779.27L505.3 779.27L90 779.27z" stroke="none" fill="#808080" fill-rule="evenodd" /><path id="24" transform="matrix(1 0 0 -1 0 841)" d="M90.024 779.04L90.264 779.04L90.264 779.04L90.264 779.28L90.264 779.28L90.024 779.28z" stroke="none" fill="#808080" fill-rule="evenodd" /><path id="25" transform="matrix(1 0 0 -1 0 841)" d="M90.024 779.04L90.264 779.04L90.264 779.04L90.264 779.28L90.264 779.28L90.024 779.28z" stroke="none" fill="#808080" fill-rule="evenodd" /><path id="26" transform="matrix(1 0 0 -1 0 841)" d="M90.264 779.04L505.204 779.04L505.204 779.04L505.204 779.28L505.204 779.28L90.264 779.28z" stroke="none" fill="#808080" fill-rule="evenodd" /><path id="27" transform="matrix(1 0 0 -1 0 841)" d="M505.2 779.04L505.44 779.04L505.44 779.04L505.44 779.28L505.44 779.28L505.2 779.28z" stroke="none" fill="#D4D0C8" fill-rule="evenodd" /><path id="28" transform="matrix(1 0 0 -1 0 841)" d="M505.2 779.04L505.44 779.04L505.44 779.04L505.44 779.28L505.44 779.28L505.2 779.28z" stroke="none" fill="#808080" fill-rule="evenodd" /><path id="29" transform="matrix(1 0 0 -1 0 841)" d="M90.024 777.96L90.264 777.96L90.264 777.96L90.264 779.04L90.264 779.04L90.024 779.04z" stroke="none" fill="#808080" fill-rule="evenodd" /><path id="30" transform="matrix(1 0 0 -1 0 841)" d="M505.2 777.96L505.44 777.96L505.44 777.96L505.44 779.04L505.44 779.04L505.2 779.04z" stroke="none" fill="#D4D0C8" fill-rule="evenodd" /><path id="31" transform="matrix(1 0 0 -1 0 841)" d="M90.024 777.72L90.264 777.72L90.264 777.72L90.264 777.96L90.264 777.96L90.024 777.96z" stroke="none" fill="#808080" fill-rule="evenodd" /><path id="32" transform="matrix(1 0 0 -1 0 841)" d="M90.024 777.72L90.264 777.72L90.264 777.72L90.264 777.96L90.264 777.96L90.024 777.96z" stroke="none" fill="#D4D0C8" fill-rule="evenodd" /><path id="33" transform="matrix(1 0 0 -1 0 841)" d="M90.264 777.72L505.204 777.72L505.204 777.72L505.204 777.96L505.204 777.96L90.264 777.96z" stroke="none" fill="#D4D0C8" fill-rule="evenodd" /><path id="34" transform="matrix(1 0 0 -1 0 841)" d="M505.2 777.72L505.44 777.72L505.44 777.72L505.44 777.96L505.44 777.96L505.2 777.96z" stroke="none" fill="#D4D0C8" fill-rule="evenodd" /><path id="35" transform="matrix(1 0 0 -1 0 841)" d="M505.2 777.72L505.44 777.72L505.44 777.72L505.44 777.96L505.44 777.96L505.2 777.96z" stroke="none" fill="#D4D0C8" fill-rule="evenodd" /><g clip-path="url(#5)"></g><g clip-path="url(#6)"></g><g clip-path="url(#7)"></g><g clip-path="url(#8)"></g><g clip-path="url(#9)"></g><g clip-path="url(#10)"></g><g clip-path="url(#11)"></g><g clip-path="url(#12)"></g><g clip-path="url(#13)"></g><g clip-path="url(#14)"></g><g clip-path="url(#15)"></g><g clip-path="url(#16)"></g><g clip-path="url(#17)"></g><g clip-path="url(#18)"></g><g clip-path="url(#19)"></g><g clip-path="url(#20)"></g><g clip-path="url(#21)"></g><g clip-path="url(#22)"></g><g clip-path="url(#23)"></g><g clip-path="url(#24)"></g><g clip-path="url(#25)"></g><g clip-path="url(#26)"></g><g clip-path="url(#27)"></g><g clip-path="url(#28)"></g><g clip-path="url(#29)"></g><g clip-path="url(#30)"></g><g clip-path="url(#31)"></g><g clip-path="url(#32)"></g><g clip-path="url(#33)"></g><g clip-path="url(#34)"></g><g clip-path="url(#35)"></g><g clip-path="url(#36)"><g clip-path="url(#37)"><path id="482" transform="matrix(1 0 0 -1 0 841)" d="M244.8034 440.5407C 244.8034 440.2497 244.8671 439.9725 244.9945 439.7071C 245.1219 439.4427 245.3002 439.2405 245.5292 439.1024C 245.7582 438.9633 245.9986 438.8942 246.25 438.8942C 246.6178 438.8942 246.9339 439.0372 247.1985 439.3243C 247.463 439.6104 247.5951 440.0011 247.5951 440.4934C 247.5951 440.9669 247.4645 441.3398 247.2032 441.6131C 246.9419 441.8864 246.6131 442.0225 246.2162 442.0225C 245.8227 442.0225 245.489 441.8864 245.2147 441.6131C 244.9405 441.3398 244.8034 440.9827 244.8034 440.5407zM248.3596 443.4964L247.4935 443.4303C 247.416 443.7608 247.3065 444.0005 247.1644 444.1505C 246.929 444.3902 246.6389 444.5106 246.2937 444.5106C 246.0162 444.5106 245.7726 444.4356 245.5629 444.2867C 245.2887 444.0933 245.0726 443.8102 244.9147 443.4392C 244.7567 443.0683 244.6746 442.5405 244.6681 441.8548C 244.8777 442.1626 245.1343 442.3925 245.4372 442.5414C 245.7405 442.6914 246.0582 442.7664 246.3903 442.7664C 246.9709 442.7664 247.4653 442.5592 247.8734 442.1468C 248.2815 441.7335 248.4853 441.1997 248.4853 440.5447C 248.4853 440.1146 248.3895 439.715 248.1975 439.345C 248.0056 438.9761 247.7419 438.6929 247.4063 438.4966C 247.0711 438.3003 246.6903 438.2016 246.2646 438.2016C 245.5388 438.2016 244.947 438.4591 244.489 438.9761C 244.031 439.4911 243.802 440.3424 243.802 441.5273C 243.802 442.8522 244.0554 443.8151 244.5615 444.4169C 245.0036 444.9407 245.5988 445.2032 246.3468 445.2032C 246.9049 445.2032 247.362 445.0512 247.7184 444.7493C 248.0748 444.4465 248.2886 444.0292 248.3596 443.4964z" stroke="none" fill="#000000" fill-rule="evenodd" /><path id="483" transform="matrix(1 0 0 -1 0 841)" d="M243.8986 414.6804L243.8986 415.4894L243.8986 415.4894L248.4902 415.4894L248.4902 415.4894L248.4902 414.8353C 248.0387 414.3706 247.591 413.7531 247.1474 412.9826C 246.7041 412.2121 246.3611 411.4209 246.1193 410.607C 245.9454 410.0328 245.8342 409.4054 245.7854 408.7227L245.7854 408.7227L244.8906 408.7227C 244.9003 409.2613 245.0098 409.9134 245.2195 410.677C 245.429 411.4406 245.7299 412.1776 246.1219 412.8869C 246.5138 413.5962 246.9307 414.1941 247.3725 414.6804z" stroke="none" fill="#000000" fill-rule="evenodd" /><path id="484" transform="matrix(1 0 0 -1 0 841)" d="M270.4698 395.9025C 270.4698 395.6623 270.5283 395.4299 270.6462 395.2054C 270.7641 394.9809 270.9385 394.8069 271.1714 394.6839C 271.4032 394.5606 271.6529 394.4992 271.9214 394.4995C 272.3376 394.4992 272.6805 394.6284 272.952 394.8874C 273.2225 395.146 273.3582 395.4753 273.3582 395.8745C 273.3582 396.2796 273.2185 396.6146 272.9401 396.8797C 272.6606 397.1445 272.3119 397.2773 271.8917 397.2776C 271.4825 397.2773 271.1426 397.1462 270.8731 396.8844C 270.6046 396.6225 270.4698 396.2951 270.4698 395.9025zM270.7502 399.0687C 270.7502 398.7443 270.8582 398.4792 271.0742 398.2734C 271.2903 398.0676 271.5707 397.9647 271.9165 397.965C 272.2514 397.9647 272.5269 398.0667 272.7409 398.271C 272.9559 398.475 273.0629 398.7256 273.0629 399.022C 273.0629 399.3304 272.9529 399.5899 272.732 399.8004C 272.511 400.0108 272.2356 400.1161 271.9066 400.1163C 271.5746 400.1161 271.2982 400.0132 271.0792 399.8074C 270.8602 399.6016 270.7502 399.3552 270.7502 399.0687zM270.9246 397.6423C 270.563 397.7697 270.2954 397.9521 270.121 398.1892C 269.9476 398.426 269.8604 398.7098 269.8604 399.0407C 269.8604 399.5393 270.0457 399.9585 270.4163 400.2985C 270.7879 400.6381 271.2813 400.8082 271.8967 400.8085C 272.516 400.8082 273.0144 400.6343 273.3919 400.2867C 273.7694 399.939 273.9577 399.5159 273.9577 399.0173C 273.9577 398.699 273.8715 398.4221 273.6991 398.1869C 273.5267 397.9513 273.2651 397.7697 272.9133 397.6423C 273.3483 397.505 273.6802 397.2834 273.9072 396.9779C 274.135 396.6721 274.248 396.3077 274.248 395.8839C 274.248 395.2975 274.034 394.8047 273.6049 394.4056C 273.1759 394.0064 272.6111 393.8073 271.9115 393.8073C 271.211 393.8073 270.6472 394.0073 270.2181 394.408C 269.7891 394.8084 269.5741 395.3083 269.5741 395.9073C 269.5741 396.3527 269.692 396.726 269.9248 397.027C 270.1587 397.3278 270.4916 397.533 270.9246 397.6423z" stroke="none" fill="#000000" fill-rule="evenodd" /><path id="485" transform="matrix(1 0 0 -1 0 841)" d="M299.0237 413.3338C 299.0237 413.8162 298.891 414.2 298.6254 414.4841C 298.3589 414.7672 298.0388 414.9093 297.6643 414.9103C 297.2778 414.9093 296.9409 414.7564 296.6536 414.4515C 296.3662 414.1457 296.2226 413.7501 296.2226 413.2637C 296.2226 412.8267 296.3593 412.4725 296.6318 412.1992C 296.9043 411.926 297.2402 411.7899 297.6405 411.7908C 298.0438 411.7899 298.3757 411.926 298.6353 412.1992C 298.894 412.4725 299.0237 412.8504 299.0237 413.3338zM295.4586 410.308L296.2949 410.383C 296.3662 410.0022 296.502 409.726 296.7021 409.5543C 296.9023 409.3827 297.158 409.2978 297.4711 409.2978C 297.7386 409.2978 297.9734 409.356 298.1756 409.4754C 298.3767 409.5938 298.5422 409.7516 298.671 409.9499C 298.7998 410.1472 298.9078 410.4156 298.995 410.752C 299.0822 411.0884 299.1258 411.4317 299.1258 411.781C 299.1258 411.8185 299.1238 411.8747 299.1208 411.9497C 298.9465 411.6813 298.7086 411.4633 298.4074 411.2966C 298.1062 411.1299 297.7792 411.047 297.4275 411.047C 296.8409 411.047 296.3434 411.2522 295.9372 411.6636C 295.5309 412.075 295.3278 412.6176 295.3278 413.2914C 295.3278 413.9869 295.5399 414.5463 295.964 414.9705C 296.388 415.3947 296.9201 415.6068 297.5583 415.6068C 298.019 415.6068 298.4411 415.4864 298.8236 415.2467C 299.2051 415.006 299.4964 414.6636 299.6946 414.2197C 299.8928 413.7758 299.9919 413.1325 299.9919 412.291C 299.9919 411.4149 299.8937 410.7165 299.6966 410.1976C 299.5004 409.6786 299.2071 409.283 298.8187 409.0117C 298.4302 408.7404 297.9744 408.6053 297.4512 408.6053C 296.8973 408.6053 296.4445 408.7542 296.0928 409.0522C 295.741 409.3491 295.529 409.7684 295.4586 410.308z" stroke="none" fill="#000000" fill-rule="evenodd" /><path id="486" transform="matrix(1 0 0 -1 0 841)" d="M298.6086 438.319L297.7366 438.319L297.7366 438.319L297.7366 443.6829C 297.5276 443.4895 297.2531 443.2961 296.9122 443.1028C 296.5724 442.9094 296.2662 442.7644 295.9957 442.6687L295.9957 442.6687L295.9957 443.4816C 296.4822 443.7026 296.9083 443.9709 297.2729 444.2857C 297.6375 444.6013 297.8951 444.9062 298.0468 445.2032L298.0468 445.2032L298.6086 445.2032z" stroke="none" fill="#000000" fill-rule="evenodd" /><path id="487" transform="matrix(1 0 0 -1 0 841)" d="M269.584 454.9127L270.4986 454.9877C 270.5659 454.5576 270.7235 454.234 270.9702 454.0169C 271.2169 453.7999 271.5142 453.6924 271.863 453.6924C 272.2821 453.6924 272.6368 453.8443 272.9272 454.1501C 273.2175 454.456 273.3632 454.8614 273.3632 455.3665C 273.3632 455.846 273.2234 456.2249 272.944 456.5031C 272.6656 456.7803 272.3 456.9194 271.8481 456.9194C 271.5677 456.9194 271.315 456.8572 271.0891 456.7339C 270.8632 456.6106 270.6858 456.4517 270.557 456.2554L270.557 456.2554L269.7396 456.358L269.7396 456.358L270.4262 459.88L270.4262 459.88L273.9527 459.88L273.9527 459.88L273.9527 459.075L273.9527 459.075L271.1228 459.075L271.1228 459.075L270.7403 457.2321C 271.1664 457.5192 271.6133 457.6622 272.081 457.6632C 272.7003 457.6622 273.2225 457.4551 273.6485 457.0407C 274.0736 456.6254 274.2867 456.0927 274.2867 455.4415C 274.2867 454.821 274.1004 454.2843 273.7258 453.8325C 273.271 453.277 272.6497 452.9998 271.863 452.9998C 271.2179 452.9998 270.6918 453.1744 270.2835 453.5237C 269.8753 453.8729 269.6425 454.3356 269.584 454.9127z" stroke="none" fill="#000000" fill-rule="evenodd" /><path id="488" transform="matrix(1 0 0 -1 0 841)" d="M246.1807 436.197L246.1807 417.4131" stroke="#000000" stroke-width="0.9512365" stroke-linecap="round" fill="none" /><path id="489" transform="matrix(1 0 0 -1 0 841)" d="M249.7478 436.197L249.7478 417.4131" stroke="#000000" stroke-width="0.9512365" stroke-linecap="round" fill="none" /><path id="490" transform="matrix(1 0 0 -1 0 841)" d="M248.8073 410.97L267.8034 400.0511" stroke="#000000" stroke-width="0.9512365" stroke-linecap="round" fill="none" /><path id="491" transform="matrix(1 0 0 -1 0 841)" d="M275.9563 399.9998L292.9626 409.7753" stroke="#000000" stroke-width="0.9512365" stroke-linecap="round" fill="none" /><path id="492" transform="matrix(1 0 0 -1 0 841)" d="M274.1727 403.0757L291.179 412.8514" stroke="#000000" stroke-width="0.9512365" stroke-linecap="round" fill="none" /><path id="493" transform="matrix(1 0 0 -1 0 841)" d="M297.6682 417.5315L297.6682 436.3154" stroke="#000000" stroke-width="0.9512365" stroke-linecap="round" fill="none" /><path id="494" transform="matrix(1 0 0 -1 0 841)" d="M294.002 444.1841L276.4299 454.2843" stroke="#000000" stroke-width="0.9512365" stroke-linecap="round" fill="none" /><path id="495" transform="matrix(1 0 0 -1 0 841)" d="M292.2184 441.108L274.6463 451.2092" stroke="#000000" stroke-width="0.9512365" stroke-linecap="round" fill="none" /><path id="496" transform="matrix(1 0 0 -1 0 841)" d="M267.2643 454.1965L250.258 444.4208" stroke="#000000" stroke-width="0.9512365" stroke-linecap="round" fill="none" /><path id="497" transform="matrix(1 0 0 -1 0 841)" d="M327.4766 397.3056C 327.4766 396.1796 327.6124 395.4305 327.8849 395.058C 328.1573 394.6854 328.4943 394.4992 328.8936 394.4995C 329.2939 394.4992 329.6308 394.6863 329.9033 395.0604C 330.1748 395.4346 330.3115 396.1829 330.3115 397.3056C 330.3115 398.4339 330.1748 399.1837 329.9033 399.5548C 329.6308 399.9258 329.2909 400.1114 328.8846 400.1117C 328.4843 400.1114 328.1653 399.9478 327.9265 399.6206C 327.6263 399.2026 327.4766 398.4309 327.4766 397.3056zM326.5809 397.3056C 326.5809 398.1158 326.6671 398.7682 326.8405 399.2626C 327.0129 399.7566 327.2695 400.1377 327.6094 400.406C 327.9503 400.674 328.3783 400.8082 328.8936 400.8085C 329.2741 400.8082 329.608 400.734 329.8954 400.586C 330.1827 400.4379 330.4195 400.2242 330.6068 399.9454C 330.7941 399.6662 330.9407 399.3262 331.0468 398.9258C 331.1537 398.5251 331.2063 397.9849 331.2063 397.3056C 331.2063 396.5009 331.1211 395.8514 330.9506 395.3575C 330.7792 394.8631 330.5236 394.4811 330.1837 394.2116C 329.8428 393.9417 329.4138 393.8073 328.8936 393.8073C 328.2099 393.8073 327.6738 394.0441 327.2824 394.5182C 326.8147 395.0885 326.5809 396.0177 326.5809 397.3056zM324.3514 393.9242L323.4804 393.9242L323.4804 393.9242L323.4804 399.2885C 323.2714 399.0951 322.9959 398.9015 322.656 398.7083C 322.3162 398.5148 322.01 398.3701 321.7395 398.2737L321.7395 398.2737L321.7395 399.0875C 322.226 399.3085 322.6521 399.5765 323.0167 399.8916C 323.3813 400.2064 323.639 400.5121 323.7906 400.8085L323.7906 400.8085L324.3514 400.8085z" stroke="none" fill="#000000" fill-rule="evenodd" /><path id="498" transform="matrix(1 0 0 -1 0 841)" d="M349.6028 411.1358L349.6028 414.2266L349.6028 414.2266L347.3832 411.1358zM349.6028 408.7227L349.6028 410.3643L349.6028 410.3643L346.5311 410.3643L346.5311 410.3643L346.5311 411.1358L346.5311 411.1358L349.7613 415.5782L349.7613 415.5782L350.4748 415.5782L350.4748 415.5782L350.4748 411.1358L350.4748 411.1358L351.4359 411.1358L351.4359 411.1358L351.4359 410.3643L351.4359 410.3643L350.4748 410.3643L350.4748 410.3643L350.4748 408.7227z" stroke="none" fill="#000000" fill-rule="evenodd" /><path id="499" transform="matrix(1 0 0 -1 0 841)" d="M346.8185 440.1284L347.6904 440.2408C 347.7895 439.7633 347.9579 439.42 348.2057 439.2099C 348.4435 438.9988 348.7308 438.8942 349.0776 438.8942C 349.4938 438.8942 349.8307 439.0313 350.118 439.3056C 350.3955 439.5798 350.5441 439.9192 350.5441 440.3247C 350.5441 440.7114 350.4054 441.0301 350.1478 441.2816C 349.8901 441.5322 349.5533 441.6575 349.147 441.6585C 348.9885 441.6575 348.7804 441.6269 348.5327 441.5648L348.5327 441.5648L348.6317 442.3037C 348.6912 442.2968 348.7407 442.2938 348.7704 442.2938C 349.147 442.2938 349.4839 442.3875 349.7712 442.574C 350.0685 442.7614 350.2171 443.0495 350.2171 443.4402C 350.2171 443.748 350.1081 444.0035 349.9001 444.2067C 349.6821 444.409 349.4046 444.5106 349.0578 444.5106C 348.7209 444.5106 348.4435 444.408 348.2156 444.2018C 347.9877 443.9966 347.8391 443.6878 347.7796 443.2764L347.7796 443.2764L346.9076 443.4254C 347.0166 443.9897 347.2544 444.4267 347.631 444.7375C 348.0075 445.0473 348.4831 445.2032 349.038 445.2032C 349.4244 445.2032 349.7811 445.1223 350.1081 444.9615C 350.4351 444.8016 350.6828 444.5826 350.8612 444.3044C 351.0297 444.0272 351.1188 443.7332 351.1188 443.4214C 351.1188 443.1245 351.0297 442.8552 350.8711 442.6115C 350.7026 442.3688 350.4648 442.1754 350.1378 442.0324C 350.554 441.9387 350.881 441.7443 351.1188 441.4493C 351.3467 441.1554 351.4656 440.7864 351.4656 440.3434C 351.4656 439.7446 351.2377 439.2375 350.7918 438.8212C 350.336 438.4048 349.7613 438.1967 349.0776 438.1967C 348.4534 438.1967 347.9381 438.3763 347.522 438.7344C 347.1157 439.0935 346.8779 439.5581 346.8185 440.1284z" stroke="none" fill="#000000" fill-rule="evenodd" /><path id="500" transform="matrix(1 0 0 -1 0 841)" d="M325.6485 453.9262L325.6485 453.1172L325.6485 453.1172L320.9597 453.1172C 320.9537 453.3195 320.9874 453.5138 321.0617 453.7013C 321.1806 454.01 321.3719 454.3139 321.6345 454.6128C 321.898 454.9127 322.2775 455.259 322.774 455.6516C 323.5449 456.2623 324.066 456.7467 324.3376 457.1039C 324.6081 457.461 324.7438 457.7984 324.7438 458.116C 324.7438 458.4495 324.6199 458.7317 324.3732 458.9605C 324.1265 459.1894 323.8055 459.3038 323.4081 459.3048C 322.989 459.3038 322.6541 459.1825 322.4024 458.9398C 322.1507 458.6961 322.0229 458.3597 322.0199 457.9296L322.0199 457.9296L321.1252 458.0184C 321.1856 458.6636 321.4164 459.1549 321.8168 459.4933C 322.2161 459.8316 322.7531 460.0013 323.4279 460.0013C 324.1077 460.0013 324.6467 459.8188 325.044 459.4538C 325.4404 459.0888 325.6385 458.6369 325.6385 458.0983C 325.6385 457.823 325.5811 457.5537 325.4651 457.2883C 325.3482 457.0229 325.156 456.7438 324.8865 456.4517C 324.617 456.1577 324.1701 455.7562 323.5439 455.2452C 323.0217 454.821 322.6858 454.5329 322.5371 454.382C 322.3895 454.23 322.2666 454.0791 322.1695 453.9262z" stroke="none" fill="#000000" fill-rule="evenodd" /><path id="501" transform="matrix(1 0 0 -1 0 841)" d="M301.9637 410.0111L319.7904 399.7638" stroke="#000000" stroke-width="0.9512365" stroke-linecap="round" fill="none" /><path id="502" transform="matrix(1 0 0 -1 0 841)" d="M331.4936 402.3279L344.3611 409.726" stroke="#000000" stroke-width="0.9512365" stroke-linecap="round" fill="none" /><path id="503" transform="matrix(1 0 0 -1 0 841)" d="M329.7101 405.403L342.5775 412.8011" stroke="#000000" stroke-width="0.9512365" stroke-linecap="round" fill="none" /><path id="504" transform="matrix(1 0 0 -1 0 841)" d="M349.1569 417.4131L349.1569 436.197" stroke="#000000" stroke-width="0.9512365" stroke-linecap="round" fill="none" /><path id="505" transform="matrix(1 0 0 -1 0 841)" d="M344.916 444.5155L328.4685 453.9676" stroke="#000000" stroke-width="0.9512365" stroke-linecap="round" fill="none" /><path id="506" transform="matrix(1 0 0 -1 0 841)" d="M343.1324 441.4395L326.6849 450.8925" stroke="#000000" stroke-width="0.9512365" stroke-linecap="round" fill="none" /><path id="507" transform="matrix(1 0 0 -1 0 841)" d="M318.1733 453.864L301.391 444.2166" stroke="#000000" stroke-width="0.9512365" stroke-linecap="round" fill="none" /></g></g><g clip-path="url(#38)"></g><g clip-path="url(#39)"></g><g clip-path="url(#40)"></g><g clip-path="url(#41)"></g><g clip-path="url(#42)"></g><g clip-path="url(#43)"></g><g clip-path="url(#44)"></g><g clip-path="url(#45)"></g><g clip-path="url(#46)"></g><g clip-path="url(#47)"></g><g clip-path="url(#48)"></g><g clip-path="url(#49)"></g><g clip-path="url(#50)"></g><g clip-path="url(#51)"></g><g clip-path="url(#52)"></g><g clip-path="url(#53)"></g><g clip-path="url(#54)"></g><g clip-path="url(#55)"></g><g clip-path="url(#56)"></g><g clip-path="url(#57)"></g><g clip-path="url(#58)"></g><g clip-path="url(#59)"></g><g clip-path="url(#60)"></g><g clip-path="url(#61)"></g><g clip-path="url(#62)"></g><g clip-path="url(#63)"></g><g clip-path="url(#64)"></g><g clip-path="url(#65)"></g><g clip-path="url(#66)"></g><g clip-path="url(#67)"></g><path id="888" transform="matrix(1 0 0 -1 0 841)" d="M332.95 249.41L420.334 249.41L420.334 249.41L420.334 249.89L420.334 249.89L332.95 249.89z" stroke="none" fill="#0000FF" fill-rule="evenodd" /><g clip-path="url(#68)"></g><g clip-path="url(#69)"></g><g clip-path="url(#70)"></g><g clip-path="url(#71)"></g><g clip-path="url(#72)"></g><g clip-path="url(#73)"></g><g clip-path="url(#74)"></g><g clip-path="url(#75)"></g><g clip-path="url(#76)"></g><g clip-path="url(#77)"></g><g clip-path="url(#78)"></g><g clip-path="url(#79)"></g><g clip-path="url(#80)"></g><g clip-path="url(#81)"></g><g clip-path="url(#82)"></g><g clip-path="url(#83)"></g><g clip-path="url(#84)"></g><g clip-path="url(#85)"></g><g clip-path="url(#86)"></g><g clip-path="url(#87)"></g><g clip-path="url(#88)"></g><g clip-path="url(#89)"></g><g clip-path="url(#90)"></g><g clip-path="url(#91)"></g><g clip-path="url(#92)"></g><g clip-path="url(#93)"></g><g clip-path="url(#94)"></g><g clip-path="url(#95)"></g><g clip-path="url(#96)"></g><g clip-path="url(#97)"></g><g clip-path="url(#98)"></g><g clip-path="url(#99)"></g><g clip-path="url(#100)"></g><g clip-path="url(#101)"></g><g clip-path="url(#102)"></g><g clip-path="url(#103)"></g><g clip-path="url(#104)"></g><g clip-path="url(#105)"></g><g clip-path="url(#106)"></g><g clip-path="url(#107)"></g><g clip-path="url(#108)"></g><g clip-path="url(#109)"></g><g clip-path="url(#110)"></g><g clip-path="url(#111)"></g><g clip-path="url(#112)"></g><g clip-path="url(#113)"></g><g clip-path="url(#114)"></g><g clip-path="url(#115)"></g><g clip-path="url(#116)"></g><g clip-path="url(#117)"></g><g clip-path="url(#118)"></g><g clip-path="url(#119)"></g><g clip-path="url(#120)"></g><g clip-path="url(#121)"><g transform="matrix(0.4601399 0 0 0.4601405 198.65 74.23004)"><g transform="matrix(1 0 0 1 0 0)"><image x="0" y="0" xlink:href="img_706.jpg" width="429" height="427" /></g></g></g><g clip-path="url(#122)"><g transform="matrix(0.5438334 0 0 0.5447116 232.35 680.57)"><g transform="matrix(1 0 0 1 0 0)"><image x="0" y="0" xlink:href="img_707.jpg" width="240" height="104" /></g></g></g></g></g></svg>