<svg xmlns="http://www.w3.org/2000/svg" xmlns:xlink="http://www.w3.org/1999/xlink" id="body_246" preserveAspectRatio="xMinYMin meet" viewBox="0 0 793 1121"><defs><clipPath id="1"><path id="" clip-rule="evenodd" d="M0 841L0 -0.9199829L0 -0.9199829L595.32 -0.9199829L595.32 -0.9199829L595.32 841L595.32 841L0 841z" /></clipPath><clipPath id="2"><path id="" clip-rule="evenodd" d="M0 840.9999L595.32 840.9999L595.32 840.9999L595.32 -0.9200439L595.32 -0.9200439L0 -0.9200439z" /></clipPath><clipPath id="3"><path id="" clip-rule="evenodd" d="M8.871E-06 841L595.32 841L595.32 841L595.32 -0.9199829L595.32 -0.9199829L8.871E-06 -0.9199829z" /></clipPath><clipPath id="4"><path id="" clip-rule="evenodd" d="M8.871E-06 841L595.32 841L595.32 841L595.32 -0.9199829L595.32 -0.9199829L8.871E-06 -0.9199829z" /></clipPath><clipPath id="5"><path id="" clip-rule="evenodd" d="M8.871E-06 841L595.32 841L595.32 841L595.32 -0.9199829L595.32 -0.9199829L8.871E-06 -0.9199829z" /></clipPath><clipPath id="6"><path id="" clip-rule="evenodd" d="M8.871E-06 841L595.32 841L595.32 841L595.32 -0.9199829L595.32 -0.9199829L8.871E-06 -0.9199829z" /></clipPath><clipPath id="7"><path id="" clip-rule="evenodd" d="M8.871E-06 841L595.32 841L595.32 841L595.32 -0.9199829L595.32 -0.9199829L8.871E-06 -0.9199829z" /></clipPath><clipPath id="8"><path id="" clip-rule="evenodd" d="M8.871E-06 841L595.32 841L595.32 841L595.32 -0.9199829L595.32 -0.9199829L8.871E-06 -0.9199829z" /></clipPath><clipPath id="9"><path id="" clip-rule="evenodd" d="M8.871E-06 841L595.32 841L595.32 841L595.32 -0.9199829L595.32 -0.9199829L8.871E-06 -0.9199829z" /></clipPath><clipPath id="10"><path id="" clip-rule="evenodd" d="M8.871E-06 841L595.32 841L595.32 841L595.32 -0.9199829L595.32 -0.9199829L8.871E-06 -0.9199829z" /></clipPath><clipPath id="11"><path id="" clip-rule="evenodd" d="M8.871E-06 841L595.32 841L595.32 841L595.32 -0.9199829L595.32 -0.9199829L8.871E-06 -0.9199829z" /></clipPath><clipPath id="12"><path id="" clip-rule="evenodd" d="M8.871E-06 841L595.32 841L595.32 841L595.32 -0.9199829L595.32 -0.9199829L8.871E-06 -0.9199829z" /></clipPath><clipPath id="13"><path id="" clip-rule="evenodd" d="M8.871E-06 841L595.32 841L595.32 841L595.32 -0.9199829L595.32 -0.9199829L8.871E-06 -0.9199829z" /></clipPath><clipPath id="14"><path id="" clip-rule="evenodd" d="M8.871E-06 841L595.32 841L595.32 841L595.32 -0.9199829L595.32 -0.9199829L8.871E-06 -0.9199829z" /></clipPath><clipPath id="15"><path id="" clip-rule="evenodd" d="M8.871E-06 841L595.32 841L595.32 841L595.32 -0.9199829L595.32 -0.9199829L8.871E-06 -0.9199829z" /></clipPath><clipPath id="16"><path id="" clip-rule="evenodd" d="M8.871E-06 841L595.32 841L595.32 841L595.32 -0.9199829L595.32 -0.9199829L8.871E-06 -0.9199829z" /></clipPath><clipPath id="17"><path id="" clip-rule="evenodd" d="M8.871E-06 841L595.32 841L595.32 841L595.32 -0.9199829L595.32 -0.9199829L8.871E-06 -0.9199829z" /></clipPath><clipPath id="18"><path id="" clip-rule="evenodd" d="M8.871E-06 841L595.32 841L595.32 841L595.32 -0.9199829L595.32 -0.9199829L8.871E-06 -0.9199829z" /></clipPath><clipPath id="19"><path id="" clip-rule="evenodd" d="M8.871E-06 841L595.32 841L595.32 841L595.32 -0.9199829L595.32 -0.9199829L8.871E-06 -0.9199829z" /></clipPath><clipPath id="20"><path id="" clip-rule="evenodd" d="M8.871E-06 841L595.32 841L595.32 841L595.32 -0.9199829L595.32 -0.9199829L8.871E-06 -0.9199829z" /></clipPath><clipPath id="21"><path id="" clip-rule="evenodd" d="M8.871E-06 841L595.32 841L595.32 841L595.32 -0.9199829L595.32 -0.9199829L8.871E-06 -0.9199829z" /></clipPath><clipPath id="22"><path id="" clip-rule="evenodd" d="M8.871E-06 841L595.32 841L595.32 841L595.32 -0.9199829L595.32 -0.9199829L8.871E-06 -0.9199829z" /></clipPath><clipPath id="23"><path id="" clip-rule="evenodd" d="M8.871E-06 841L595.32 841L595.32 841L595.32 -0.9199829L595.32 -0.9199829L8.871E-06 -0.9199829z" /></clipPath><clipPath id="24"><path id="" clip-rule="evenodd" d="M8.871E-06 841L595.32 841L595.32 841L595.32 -0.9199829L595.32 -0.9199829L8.871E-06 -0.9199829z" /></clipPath><clipPath id="25"><path id="" clip-rule="evenodd" d="M8.871E-06 841L595.32 841L595.32 841L595.32 -0.9199829L595.32 -0.9199829L8.871E-06 -0.9199829z" /></clipPath><clipPath id="26"><path id="" clip-rule="evenodd" d="M8.871E-06 841L595.32 841L595.32 841L595.32 -0.9199829L595.32 -0.9199829L8.871E-06 -0.9199829z" /></clipPath><clipPath id="27"><path id="" clip-rule="evenodd" d="M8.871E-06 841L595.32 841L595.32 841L595.32 -0.9199829L595.32 -0.9199829L8.871E-06 -0.9199829z" /></clipPath><clipPath id="28"><path id="" clip-rule="evenodd" d="M8.871E-06 841L595.32 841L595.32 841L595.32 -0.9199829L595.32 -0.9199829L8.871E-06 -0.9199829z" /></clipPath><clipPath id="29"><path id="" clip-rule="evenodd" d="M8.871E-06 841L595.32 841L595.32 841L595.32 -0.9199829L595.32 -0.9199829L8.871E-06 -0.9199829z" /></clipPath><clipPath id="30"><path id="" clip-rule="evenodd" d="M8.871E-06 841L595.32 841L595.32 841L595.32 -0.9199829L595.32 -0.9199829L8.871E-06 -0.9199829z" /></clipPath><clipPath id="31"><path id="" clip-rule="evenodd" d="M8.871E-06 841L595.32 841L595.32 841L595.32 -0.9199829L595.32 -0.9199829L8.871E-06 -0.9199829z" /></clipPath><clipPath id="32"><path id="" clip-rule="evenodd" d="M8.871E-06 841L595.32 841L595.32 841L595.32 -0.9199829L595.32 -0.9199829L8.871E-06 -0.9199829z" /></clipPath><clipPath id="33"><path id="" clip-rule="evenodd" d="M8.871E-06 841L595.32 841L595.32 841L595.32 -0.9199829L595.32 -0.9199829L8.871E-06 -0.9199829z" /></clipPath><clipPath id="34"><path id="" clip-rule="evenodd" d="M8.871E-06 841L595.32 841L595.32 841L595.32 -0.9199829L595.32 -0.9199829L8.871E-06 -0.9199829z" /></clipPath><clipPath id="35"><path id="" clip-rule="evenodd" d="M8.871E-06 841L595.32 841L595.32 841L595.32 -0.9199829L595.32 -0.9199829L8.871E-06 -0.9199829z" /></clipPath><clipPath id="36"><path id="" clip-rule="evenodd" d="M8.871E-06 841L595.32 841L595.32 841L595.32 -0.9199829L595.32 -0.9199829L8.871E-06 -0.9199829z" /></clipPath><clipPath id="37"><path id="" clip-rule="evenodd" d="M8.871E-06 841L595.32 841L595.32 841L595.32 -0.9199829L595.32 -0.9199829L8.871E-06 -0.9199829z" /></clipPath><clipPath id="38"><path id="" clip-rule="evenodd" d="M8.871E-06 841L595.32 841L595.32 841L595.32 -0.9199829L595.32 -0.9199829L8.871E-06 -0.9199829z" /></clipPath><clipPath id="39"><path id="" clip-rule="evenodd" d="M8.871E-06 841L595.32 841L595.32 841L595.32 -0.9199829L595.32 -0.9199829L8.871E-06 -0.9199829z" /></clipPath><clipPath id="40"><path id="" clip-rule="evenodd" d="M8.871E-06 841L595.32 841L595.32 841L595.32 -0.9199829L595.32 -0.9199829L8.871E-06 -0.9199829z" /></clipPath><clipPath id="41"><path id="" clip-rule="evenodd" d="M8.871E-06 841L595.32 841L595.32 841L595.32 -0.9199829L595.32 -0.9199829L8.871E-06 -0.9199829z" /></clipPath><clipPath id="42"><path id="" clip-rule="evenodd" d="M8.871E-06 841L595.32 841L595.32 841L595.32 -0.9199829L595.32 -0.9199829L8.871E-06 -0.9199829z" /></clipPath><clipPath id="43"><path id="" clip-rule="evenodd" d="M8.871E-06 841L595.32 841L595.32 841L595.32 -0.9199829L595.32 -0.9199829L8.871E-06 -0.9199829z" /></clipPath><clipPath id="44"><path id="" clip-rule="evenodd" d="M8.871E-06 841L595.32 841L595.32 841L595.32 -0.9199829L595.32 -0.9199829L8.871E-06 -0.9199829z" /></clipPath><clipPath id="45"><path id="" clip-rule="evenodd" d="M8.871E-06 841L595.32 841L595.32 841L595.32 -0.9199829L595.32 -0.9199829L8.871E-06 -0.9199829z" /></clipPath><clipPath id="46"><path id="" clip-rule="evenodd" d="M8.871E-06 841L595.32 841L595.32 841L595.32 -0.9199829L595.32 -0.9199829L8.871E-06 -0.9199829z" /></clipPath><clipPath id="47"><path id="" clip-rule="evenodd" d="M8.871E-06 841L595.32 841L595.32 841L595.32 -0.9199829L595.32 -0.9199829L8.871E-06 -0.9199829z" /></clipPath><clipPath id="48"><path id="" clip-rule="evenodd" d="M8.871E-06 841L595.32 841L595.32 841L595.32 -0.9199829L595.32 -0.9199829L8.871E-06 -0.9199829z" /></clipPath><clipPath id="49"><path id="" clip-rule="evenodd" d="M8.871E-06 841L595.32 841L595.32 841L595.32 -0.9199829L595.32 -0.9199829L8.871E-06 -0.9199829z" /></clipPath><clipPath id="50"><path id="" clip-rule="evenodd" d="M8.871E-06 841L595.32 841L595.32 841L595.32 -0.9199829L595.32 -0.9199829L8.871E-06 -0.9199829z" /></clipPath><clipPath id="51"><path id="" clip-rule="evenodd" d="M8.871E-06 841L595.32 841L595.32 841L595.32 -0.9199829L595.32 -0.9199829L8.871E-06 -0.9199829z" /></clipPath><clipPath id="52"><path id="" clip-rule="evenodd" d="M8.871E-06 841L595.32 841L595.32 841L595.32 -0.9199829L595.32 -0.9199829L8.871E-06 -0.9199829z" /></clipPath><clipPath id="53"><path id="" clip-rule="evenodd" d="M8.871E-06 841L595.32 841L595.32 841L595.32 -0.9199829L595.32 -0.9199829L8.871E-06 -0.9199829z" /></clipPath><clipPath id="54"><path id="" clip-rule="evenodd" d="M8.871E-06 841L595.32 841L595.32 841L595.32 -0.9199829L595.32 -0.9199829L8.871E-06 -0.9199829z" /></clipPath><clipPath id="55"><path id="" clip-rule="evenodd" d="M8.871E-06 841L595.32 841L595.32 841L595.32 -0.9199829L595.32 -0.9199829L8.871E-06 -0.9199829z" /></clipPath><clipPath id="56"><path id="" clip-rule="evenodd" d="M8.871E-06 841L595.32 841L595.32 841L595.32 -0.9199829L595.32 -0.9199829L8.871E-06 -0.9199829z" /></clipPath><clipPath id="57"><path id="" clip-rule="evenodd" d="M8.871E-06 841L595.32 841L595.32 841L595.32 -0.9199829L595.32 -0.9199829L8.871E-06 -0.9199829z" /></clipPath><clipPath id="58"><path id="" clip-rule="evenodd" d="M8.871E-06 841L595.32 841L595.32 841L595.32 -0.9199829L595.32 -0.9199829L8.871E-06 -0.9199829z" /></clipPath><clipPath id="59"><path id="" clip-rule="evenodd" d="M0 840.9999L595.32 840.9999L595.32 840.9999L595.32 -0.9200439L595.32 -0.9200439L0 -0.9200439z" /></clipPath><clipPath id="60"><path id="" clip-rule="evenodd" d="M131.56 288.24L463.8585 288.24L463.8585 288.24L463.8585 259.6401L463.8585 259.6401L131.56 259.6401z" /></clipPath><clipPath id="61"><path id="" clip-rule="evenodd" d="M8.871E-06 841L595.32 841L595.32 841L595.32 -0.9199829L595.32 -0.9199829L8.871E-06 -0.9199829z" /></clipPath><clipPath id="62"><path id="" clip-rule="evenodd" d="M8.871E-06 841L595.32 841L595.32 841L595.32 -0.9199829L595.32 -0.9199829L8.871E-06 -0.9199829z" /></clipPath><clipPath id="63"><path id="" clip-rule="evenodd" d="M8.871E-06 841L595.32 841L595.32 841L595.32 -0.9199829L595.32 -0.9199829L8.871E-06 -0.9199829z" /></clipPath><clipPath id="64"><path id="" clip-rule="evenodd" d="M8.871E-06 841L595.32 841L595.32 841L595.32 -0.9199829L595.32 -0.9199829L8.871E-06 -0.9199829z" /></clipPath><clipPath id="65"><path id="" clip-rule="evenodd" d="M8.871E-06 841L595.32 841L595.32 841L595.32 -0.9199829L595.32 -0.9199829L8.871E-06 -0.9199829z" /></clipPath><clipPath id="66"><path id="" clip-rule="evenodd" d="M8.871E-06 841L595.32 841L595.32 841L595.32 -0.9199829L595.32 -0.9199829L8.871E-06 -0.9199829z" /></clipPath><clipPath id="67"><path id="" clip-rule="evenodd" d="M8.871E-06 841L595.32 841L595.32 841L595.32 -0.9199829L595.32 -0.9199829L8.871E-06 -0.9199829z" /></clipPath><clipPath id="68"><path id="" clip-rule="evenodd" d="M8.871E-06 841L595.32 841L595.32 841L595.32 -0.9199829L595.32 -0.9199829L8.871E-06 -0.9199829z" /></clipPath><clipPath id="69"><path id="" clip-rule="evenodd" d="M8.871E-06 841L595.32 841L595.32 841L595.32 -0.9199829L595.32 -0.9199829L8.871E-06 -0.9199829z" /></clipPath><clipPath id="70"><path id="" clip-rule="evenodd" d="M8.871E-06 841L595.32 841L595.32 841L595.32 -0.9199829L595.32 -0.9199829L8.871E-06 -0.9199829z" /></clipPath><clipPath id="71"><path id="" clip-rule="evenodd" d="M8.871E-06 841L595.32 841L595.32 841L595.32 -0.9199829L595.32 -0.9199829L8.871E-06 -0.9199829z" /></clipPath><clipPath id="72"><path id="" clip-rule="evenodd" d="M8.871E-06 841L595.32 841L595.32 841L595.32 -0.9199829L595.32 -0.9199829L8.871E-06 -0.9199829z" /></clipPath><clipPath id="73"><path id="" clip-rule="evenodd" d="M0 840.9999L595.32 840.9999L595.32 840.9999L595.32 -0.9200439L595.32 -0.9200439L0 -0.9200439z" /></clipPath><clipPath id="74"><path id="" clip-rule="evenodd" d="M136.36 380.14L459.0558 380.14L459.0558 380.14L459.0558 308.1401L459.0558 308.1401L136.36 308.1401z" /></clipPath><clipPath id="75"><path id="" clip-rule="evenodd" d="M8.871E-06 841L595.32 841L595.32 841L595.32 -0.9199829L595.32 -0.9199829L8.871E-06 -0.9199829z" /></clipPath><clipPath id="76"><path id="" clip-rule="evenodd" d="M8.871E-06 841L595.32 841L595.32 841L595.32 -0.9199829L595.32 -0.9199829L8.871E-06 -0.9199829z" /></clipPath><clipPath id="77"><path id="" clip-rule="evenodd" d="M8.871E-06 841L595.32 841L595.32 841L595.32 -0.9199829L595.32 -0.9199829L8.871E-06 -0.9199829z" /></clipPath><clipPath id="78"><path id="" clip-rule="evenodd" d="M8.871E-06 841L595.32 841L595.32 841L595.32 -0.9199829L595.32 -0.9199829L8.871E-06 -0.9199829z" /></clipPath><clipPath id="79"><path id="" clip-rule="evenodd" d="M8.871E-06 841L595.32 841L595.32 841L595.32 -0.9199829L595.32 -0.9199829L8.871E-06 -0.9199829z" /></clipPath><clipPath id="80"><path id="" clip-rule="evenodd" d="M8.871E-06 841L595.32 841L595.32 841L595.32 -0.9199829L595.32 -0.9199829L8.871E-06 -0.9199829z" /></clipPath><clipPath id="81"><path id="" clip-rule="evenodd" d="M8.871E-06 841L595.32 841L595.32 841L595.32 -0.9199829L595.32 -0.9199829L8.871E-06 -0.9199829z" /></clipPath><clipPath id="82"><path id="" clip-rule="evenodd" d="M8.871E-06 841L595.32 841L595.32 841L595.32 -0.9199829L595.32 -0.9199829L8.871E-06 -0.9199829z" /></clipPath><clipPath id="83"><path id="" clip-rule="evenodd" d="M8.871E-06 841L595.32 841L595.32 841L595.32 -0.9199829L595.32 -0.9199829L8.871E-06 -0.9199829z" /></clipPath><clipPath id="84"><path id="" clip-rule="evenodd" d="M8.871E-06 841L595.32 841L595.32 841L595.32 -0.9199829L595.32 -0.9199829L8.871E-06 -0.9199829z" /></clipPath><clipPath id="85"><path id="" clip-rule="evenodd" d="M8.871E-06 841L595.32 841L595.32 841L595.32 -0.9199829L595.32 -0.9199829L8.871E-06 -0.9199829z" /></clipPath><clipPath id="86"><path id="" clip-rule="evenodd" d="M8.871E-06 841L595.32 841L595.32 841L595.32 -0.9199829L595.32 -0.9199829L8.871E-06 -0.9199829z" /></clipPath><clipPath id="87"><path id="" clip-rule="evenodd" d="M8.871E-06 841L595.32 841L595.32 841L595.32 -0.9199829L595.32 -0.9199829L8.871E-06 -0.9199829z" /></clipPath><clipPath id="88"><path id="" clip-rule="evenodd" d="M8.871E-06 841L595.32 841L595.32 841L595.32 -0.9199829L595.32 -0.9199829L8.871E-06 -0.9199829z" /></clipPath><clipPath id="89"><path id="" clip-rule="evenodd" d="M8.871E-06 841L595.32 841L595.32 841L595.32 -0.9199829L595.32 -0.9199829L8.871E-06 -0.9199829z" /></clipPath><clipPath id="90"><path id="" clip-rule="evenodd" d="M8.871E-06 841L595.32 841L595.32 841L595.32 -0.9199829L595.32 -0.9199829L8.871E-06 -0.9199829z" /></clipPath><clipPath id="91"><path id="" clip-rule="evenodd" d="M8.871E-06 841L595.32 841L595.32 841L595.32 -0.9199829L595.32 -0.9199829L8.871E-06 -0.9199829z" /></clipPath><clipPath id="92"><path id="" clip-rule="evenodd" d="M8.871E-06 841L595.32 841L595.32 841L595.32 -0.9199829L595.32 -0.9199829L8.871E-06 -0.9199829z" /></clipPath><clipPath id="93"><path id="" clip-rule="evenodd" d="M8.871E-06 841L595.32 841L595.32 841L595.32 -0.9199829L595.32 -0.9199829L8.871E-06 -0.9199829z" /></clipPath><clipPath id="94"><path id="" clip-rule="evenodd" d="M8.871E-06 841L595.32 841L595.32 841L595.32 -0.9199829L595.32 -0.9199829L8.871E-06 -0.9199829z" /></clipPath><clipPath id="95"><path id="" clip-rule="evenodd" d="M8.871E-06 841L595.32 841L595.32 841L595.32 -0.9199829L595.32 -0.9199829L8.871E-06 -0.9199829z" /></clipPath><clipPath id="96"><path id="" clip-rule="evenodd" d="M8.871E-06 841L595.32 841L595.32 841L595.32 -0.9199829L595.32 -0.9199829L8.871E-06 -0.9199829z" /></clipPath><clipPath id="97"><path id="" clip-rule="evenodd" d="M8.871E-06 841L595.32 841L595.32 841L595.32 -0.9199829L595.32 -0.9199829L8.871E-06 -0.9199829z" /></clipPath><clipPath id="98"><path id="" clip-rule="evenodd" d="M8.871E-06 841L595.32 841L595.32 841L595.32 -0.9199829L595.32 -0.9199829L8.871E-06 -0.9199829z" /></clipPath><clipPath id="99"><path id="" clip-rule="evenodd" d="M8.871E-06 841L595.32 841L595.32 841L595.32 -0.9199829L595.32 -0.9199829L8.871E-06 -0.9199829z" /></clipPath><clipPath id="100"><path id="" clip-rule="evenodd" d="M8.871E-06 841L595.32 841L595.32 841L595.32 -0.9199829L595.32 -0.9199829L8.871E-06 -0.9199829z" /></clipPath><clipPath id="101"><path id="" clip-rule="evenodd" d="M8.871E-06 841L595.32 841L595.32 841L595.32 -0.9199829L595.32 -0.9199829L8.871E-06 -0.9199829z" /></clipPath><clipPath id="102"><path id="" clip-rule="evenodd" d="M8.871E-06 841L595.32 841L595.32 841L595.32 -0.9199829L595.32 -0.9199829L8.871E-06 -0.9199829z" /></clipPath><clipPath id="103"><path id="" clip-rule="evenodd" d="M8.871E-06 841L595.32 841L595.32 841L595.32 -0.9199829L595.32 -0.9199829L8.871E-06 -0.9199829z" /></clipPath><clipPath id="104"><path id="" clip-rule="evenodd" d="M8.871E-06 841L595.32 841L595.32 841L595.32 -0.9199829L595.32 -0.9199829L8.871E-06 -0.9199829z" /></clipPath><clipPath id="105"><path id="" clip-rule="evenodd" d="M8.871E-06 841L595.32 841L595.32 841L595.32 -0.9199829L595.32 -0.9199829L8.871E-06 -0.9199829z" /></clipPath><clipPath id="106"><path id="" clip-rule="evenodd" d="M8.871E-06 841L595.32 841L595.32 841L595.32 -0.9199829L595.32 -0.9199829L8.871E-06 -0.9199829z" /></clipPath><clipPath id="107"><path id="" clip-rule="evenodd" d="M8.871E-06 841L595.32 841L595.32 841L595.32 -0.9199829L595.32 -0.9199829L8.871E-06 -0.9199829z" /></clipPath><clipPath id="108"><path id="" clip-rule="evenodd" d="M8.871E-06 841L595.32 841L595.32 841L595.32 -0.9199829L595.32 -0.9199829L8.871E-06 -0.9199829z" /></clipPath><clipPath id="109"><path id="" clip-rule="evenodd" d="M8.871E-06 841L595.32 841L595.32 841L595.32 -0.9199829L595.32 -0.9199829L8.871E-06 -0.9199829z" /></clipPath><clipPath id="110"><path id="" clip-rule="evenodd" d="M8.871E-06 841L595.32 841L595.32 841L595.32 -0.9199829L595.32 -0.9199829L8.871E-06 -0.9199829z" /></clipPath><clipPath id="111"><path id="" clip-rule="evenodd" d="M8.871E-06 841L595.32 841L595.32 841L595.32 -0.9199829L595.32 -0.9199829L8.871E-06 -0.9199829z" /></clipPath><clipPath id="112"><path id="" clip-rule="evenodd" d="M8.871E-06 841L595.32 841L595.32 841L595.32 -0.9199829L595.32 -0.9199829L8.871E-06 -0.9199829z" /></clipPath><clipPath id="113"><path id="" clip-rule="evenodd" d="M8.871E-06 841L595.32 841L595.32 841L595.32 -0.9199829L595.32 -0.9199829L8.871E-06 -0.9199829z" /></clipPath><clipPath id="114"><path id="" clip-rule="evenodd" d="M8.871E-06 841L595.32 841L595.32 841L595.32 -0.9199829L595.32 -0.9199829L8.871E-06 -0.9199829z" /></clipPath><clipPath id="115"><path id="" clip-rule="evenodd" d="M8.871E-06 841L595.32 841L595.32 841L595.32 -0.9199829L595.32 -0.9199829L8.871E-06 -0.9199829z" /></clipPath><clipPath id="116"><path id="" clip-rule="evenodd" d="M8.871E-06 841L595.32 841L595.32 841L595.32 -0.9199829L595.32 -0.9199829L8.871E-06 -0.9199829z" /></clipPath><clipPath id="117"><path id="" clip-rule="evenodd" d="M8.871E-06 841L595.32 841L595.32 841L595.32 -0.9199829L595.32 -0.9199829L8.871E-06 -0.9199829z" /></clipPath><clipPath id="118"><path id="" clip-rule="evenodd" d="M8.871E-06 841L595.32 841L595.32 841L595.32 -0.9199829L595.32 -0.9199829L8.871E-06 -0.9199829z" /></clipPath><clipPath id="119"><path id="" clip-rule="evenodd" d="M8.871E-06 841L595.32 841L595.32 841L595.32 -0.9199829L595.32 -0.9199829L8.871E-06 -0.9199829z" /></clipPath><clipPath id="120"><path id="" clip-rule="evenodd" d="M8.871E-06 841L595.32 841L595.32 841L595.32 -0.9199829L595.32 -0.9199829L8.871E-06 -0.9199829z" /></clipPath><clipPath id="121"><path id="" clip-rule="evenodd" d="M8.871E-06 841L595.32 841L595.32 841L595.32 -0.9199829L595.32 -0.9199829L8.871E-06 -0.9199829z" /></clipPath><clipPath id="122"><path id="" clip-rule="evenodd" d="M8.871E-06 841L595.32 841L595.32 841L595.32 -0.9199829L595.32 -0.9199829L8.871E-06 -0.9199829z" /></clipPath><clipPath id="123"><path id="" clip-rule="evenodd" d="M8.871E-06 841L595.32 841L595.32 841L595.32 -0.9199829L595.32 -0.9199829L8.871E-06 -0.9199829z" /></clipPath><clipPath id="124"><path id="" clip-rule="evenodd" d="M8.871E-06 841L595.32 841L595.32 841L595.32 -0.9199829L595.32 -0.9199829L8.871E-06 -0.9199829z" /></clipPath><clipPath id="125"><path id="" clip-rule="evenodd" d="M8.871E-06 841L595.32 841L595.32 841L595.32 -0.9199829L595.32 -0.9199829L8.871E-06 -0.9199829z" /></clipPath><clipPath id="126"><path id="" clip-rule="evenodd" d="M8.871E-06 841L595.32 841L595.32 841L595.32 -0.9199829L595.32 -0.9199829L8.871E-06 -0.9199829z" /></clipPath><clipPath id="127"><path id="" clip-rule="evenodd" d="M8.871E-06 841L595.32 841L595.32 841L595.32 -0.9199829L595.32 -0.9199829L8.871E-06 -0.9199829z" /></clipPath><clipPath id="128"><path id="" clip-rule="evenodd" d="M8.871E-06 841L595.32 841L595.32 841L595.32 -0.9199829L595.32 -0.9199829L8.871E-06 -0.9199829z" /></clipPath><clipPath id="129"><path id="" clip-rule="evenodd" d="M8.871E-06 841L595.32 841L595.32 841L595.32 -0.9199829L595.32 -0.9199829L8.871E-06 -0.9199829z" /></clipPath><clipPath id="130"><path id="" clip-rule="evenodd" d="M8.871E-06 841L595.32 841L595.32 841L595.32 -0.9199829L595.32 -0.9199829L8.871E-06 -0.9199829z" /></clipPath><clipPath id="131"><path id="" clip-rule="evenodd" d="M8.871E-06 841L595.32 841L595.32 841L595.32 -0.9199829L595.32 -0.9199829L8.871E-06 -0.9199829z" /></clipPath><clipPath id="132"><path id="" clip-rule="evenodd" d="M8.871E-06 841L595.32 841L595.32 841L595.32 -0.9199829L595.32 -0.9199829L8.871E-06 -0.9199829z" /></clipPath><clipPath id="133"><path id="" clip-rule="evenodd" d="M8.871E-06 841L595.32 841L595.32 841L595.32 -0.9199829L595.32 -0.9199829L8.871E-06 -0.9199829z" /></clipPath><clipPath id="134"><path id="" clip-rule="evenodd" d="M8.871E-06 841L595.32 841L595.32 841L595.32 -0.9199829L595.32 -0.9199829L8.871E-06 -0.9199829z" /></clipPath><clipPath id="135"><path id="" clip-rule="evenodd" d="M8.871E-06 841L595.32 841L595.32 841L595.32 -0.9199829L595.32 -0.9199829L8.871E-06 -0.9199829z" /></clipPath><clipPath id="136"><path id="" clip-rule="evenodd" d="M8.871E-06 841L595.32 841L595.32 841L595.32 -0.9199829L595.32 -0.9199829L8.871E-06 -0.9199829z" /></clipPath><clipPath id="137"><path id="" clip-rule="evenodd" d="M8.871E-06 841L595.32 841L595.32 841L595.32 -0.9199829L595.32 -0.9199829L8.871E-06 -0.9199829z" /></clipPath><clipPath id="138"><path id="" clip-rule="evenodd" d="M8.871E-06 841L595.32 841L595.32 841L595.32 -0.9199829L595.32 -0.9199829L8.871E-06 -0.9199829z" /></clipPath><clipPath id="139"><path id="" clip-rule="evenodd" d="M8.871E-06 841L595.32 841L595.32 841L595.32 -0.9199829L595.32 -0.9199829L8.871E-06 -0.9199829z" /></clipPath><clipPath id="140"><path id="" clip-rule="evenodd" d="M8.871E-06 841L595.32 841L595.32 841L595.32 -0.9199829L595.32 -0.9199829L8.871E-06 -0.9199829z" /></clipPath><clipPath id="141"><path id="" clip-rule="evenodd" d="M8.871E-06 841L595.32 841L595.32 841L595.32 -0.9199829L595.32 -0.9199829L8.871E-06 -0.9199829z" /></clipPath><clipPath id="142"><path id="" clip-rule="evenodd" d="M8.871E-06 841L595.32 841L595.32 841L595.32 -0.9199829L595.32 -0.9199829L8.871E-06 -0.9199829z" /></clipPath><clipPath id="143"><path id="" clip-rule="evenodd" d="M0 840.9999L595.32 840.9999L595.32 840.9999L595.32 -0.9200439L595.32 -0.9200439L0 -0.9200439z" /></clipPath><clipPath id="144"><path id="" clip-rule="evenodd" d="M223.61 646.79L371.8111 646.79L371.8111 646.79L371.8111 556.2931L371.8111 556.2931L223.61 556.2931z" /></clipPath><clipPath id="145"><path id="" clip-rule="evenodd" d="M8.871E-06 841L595.32 841L595.32 841L595.32 -0.9199829L595.32 -0.9199829L8.871E-06 -0.9199829z" /></clipPath><clipPath id="146"><path id="" clip-rule="evenodd" d="M8.871E-06 841L595.32 841L595.32 841L595.32 -0.9199829L595.32 -0.9199829L8.871E-06 -0.9199829z" /></clipPath><clipPath id="147"><path id="" clip-rule="evenodd" d="M0 840.9999L595.32 840.9999L595.32 840.9999L595.32 -0.9200439L595.32 -0.9200439L0 -0.9200439z" /></clipPath><clipPath id="148"><path id="" clip-rule="evenodd" d="M187.16 674.74L212.56 674.74L212.56 674.74L212.56 653.0397L212.56 653.0397L187.16 653.0397z" /></clipPath><clipPath id="149"><path id="" clip-rule="evenodd" d="M8.871E-06 841L595.32 841L595.32 841L595.32 -0.9199829L595.32 -0.9199829L8.871E-06 -0.9199829z" /></clipPath><clipPath id="150"><path id="" clip-rule="evenodd" d="M8.871E-06 841L595.32 841L595.32 841L595.32 -0.9199829L595.32 -0.9199829L8.871E-06 -0.9199829z" /></clipPath><clipPath id="151"><path id="" clip-rule="evenodd" d="M8.871E-06 841L595.32 841L595.32 841L595.32 -0.9199829L595.32 -0.9199829L8.871E-06 -0.9199829z" /></clipPath><clipPath id="152"><path id="" clip-rule="evenodd" d="M8.871E-06 841L595.32 841L595.32 841L595.32 -0.9199829L595.32 -0.9199829L8.871E-06 -0.9199829z" /></clipPath><clipPath id="153"><path id="" clip-rule="evenodd" d="M8.871E-06 841L595.32 841L595.32 841L595.32 -0.9199829L595.32 -0.9199829L8.871E-06 -0.9199829z" /></clipPath><clipPath id="154"><path id="" clip-rule="evenodd" d="M8.871E-06 841L595.32 841L595.32 841L595.32 -0.9199829L595.32 -0.9199829L8.871E-06 -0.9199829z" /></clipPath><clipPath id="155"><path id="" clip-rule="evenodd" d="M8.871E-06 841L595.32 841L595.32 841L595.32 -0.9199829L595.32 -0.9199829L8.871E-06 -0.9199829z" /></clipPath><clipPath id="156"><path id="" clip-rule="evenodd" d="M8.871E-06 841L595.32 841L595.32 841L595.32 -0.9199829L595.32 -0.9199829L8.871E-06 -0.9199829z" /></clipPath><clipPath id="157"><path id="" clip-rule="evenodd" d="M8.871E-06 841L595.32 841L595.32 841L595.32 -0.9199829L595.32 -0.9199829L8.871E-06 -0.9199829z" /></clipPath><clipPath id="158"><path id="" clip-rule="evenodd" d="M8.871E-06 841L595.32 841L595.32 841L595.32 -0.9199829L595.32 -0.9199829L8.871E-06 -0.9199829z" /></clipPath><clipPath id="159"><path id="" clip-rule="evenodd" d="M8.871E-06 841L595.32 841L595.32 841L595.32 -0.9199829L595.32 -0.9199829L8.871E-06 -0.9199829z" /></clipPath><clipPath id="160"><path id="" clip-rule="evenodd" d="M8.871E-06 841L595.32 841L595.32 841L595.32 -0.9199829L595.32 -0.9199829L8.871E-06 -0.9199829z" /></clipPath><clipPath id="161"><path id="" clip-rule="evenodd" d="M8.871E-06 841L595.32 841L595.32 841L595.32 -0.9199829L595.32 -0.9199829L8.871E-06 -0.9199829z" /></clipPath><clipPath id="162"><path id="" clip-rule="evenodd" d="M8.871E-06 841L595.32 841L595.32 841L595.32 -0.9199829L595.32 -0.9199829L8.871E-06 -0.9199829z" /></clipPath><clipPath id="163"><path id="" clip-rule="evenodd" d="M8.871E-06 841L595.32 841L595.32 841L595.32 -0.9199829L595.32 -0.9199829L8.871E-06 -0.9199829z" /></clipPath><clipPath id="164"><path id="" clip-rule="evenodd" d="M8.871E-06 841L595.32 841L595.32 841L595.32 -0.9199829L595.32 -0.9199829L8.871E-06 -0.9199829z" /></clipPath><clipPath id="165"><path id="" clip-rule="evenodd" d="M8.871E-06 841L595.32 841L595.32 841L595.32 -0.9199829L595.32 -0.9199829L8.871E-06 -0.9199829z" /></clipPath><clipPath id="166"><path id="" clip-rule="evenodd" d="M8.871E-06 841L595.32 841L595.32 841L595.32 -0.9199829L595.32 -0.9199829L8.871E-06 -0.9199829z" /></clipPath><clipPath id="167"><path id="" clip-rule="evenodd" d="M8.871E-06 841L595.32 841L595.32 841L595.32 -0.9199829L595.32 -0.9199829L8.871E-06 -0.9199829z" /></clipPath><clipPath id="168"><path id="" clip-rule="evenodd" d="M8.871E-06 841L595.32 841L595.32 841L595.32 -0.9199829L595.32 -0.9199829L8.871E-06 -0.9199829z" /></clipPath><clipPath id="169"><path id="" clip-rule="evenodd" d="M8.871E-06 841L595.32 841L595.32 841L595.32 -0.9199829L595.32 -0.9199829L8.871E-06 -0.9199829z" /></clipPath><clipPath id="170"><path id="" clip-rule="evenodd" d="M8.871E-06 841L595.32 841L595.32 841L595.32 -0.9199829L595.32 -0.9199829L8.871E-06 -0.9199829z" /></clipPath><clipPath id="171"><path id="" clip-rule="evenodd" d="M8.871E-06 841L595.32 841L595.32 841L595.32 -0.9199829L595.32 -0.9199829L8.871E-06 -0.9199829z" /></clipPath><clipPath id="172"><path id="" clip-rule="evenodd" d="M8.871E-06 841L595.32 841L595.32 841L595.32 -0.9199829L595.32 -0.9199829L8.871E-06 -0.9199829z" /></clipPath><clipPath id="173"><path id="" clip-rule="evenodd" d="M8.871E-06 841L595.32 841L595.32 841L595.32 -0.9199829L595.32 -0.9199829L8.871E-06 -0.9199829z" /></clipPath><clipPath id="174"><path id="" clip-rule="evenodd" d="M8.871E-06 841L595.32 841L595.32 841L595.32 -0.9199829L595.32 -0.9199829L8.871E-06 -0.9199829z" /></clipPath><clipPath id="175"><path id="" clip-rule="evenodd" d="M8.871E-06 841L595.32 841L595.32 841L595.32 -0.9199829L595.32 -0.9199829L8.871E-06 -0.9199829z" /></clipPath><clipPath id="176"><path id="" clip-rule="evenodd" d="M8.871E-06 841L595.32 841L595.32 841L595.32 -0.9199829L595.32 -0.9199829L8.871E-06 -0.9199829z" /></clipPath><clipPath id="177"><path id="" clip-rule="evenodd" d="M8.871E-06 841L595.32 841L595.32 841L595.32 -0.9199829L595.32 -0.9199829L8.871E-06 -0.9199829z" /></clipPath><clipPath id="178"><path id="" clip-rule="evenodd" d="M8.871E-06 841L595.32 841L595.32 841L595.32 -0.9199829L595.32 -0.9199829L8.871E-06 -0.9199829z" /></clipPath><clipPath id="179"><path id="" clip-rule="evenodd" d="M8.871E-06 841L595.32 841L595.32 841L595.32 -0.9199829L595.32 -0.9199829L8.871E-06 -0.9199829z" /></clipPath><clipPath id="180"><path id="" clip-rule="evenodd" d="M8.871E-06 841L595.32 841L595.32 841L595.32 -0.9199829L595.32 -0.9199829L8.871E-06 -0.9199829z" /></clipPath><clipPath id="181"><path id="" clip-rule="evenodd" d="M8.871E-06 841L595.32 841L595.32 841L595.32 -0.9199829L595.32 -0.9199829L8.871E-06 -0.9199829z" /></clipPath><clipPath id="182"><path id="" clip-rule="evenodd" d="M8.871E-06 841L595.32 841L595.32 841L595.32 -0.9199829L595.32 -0.9199829L8.871E-06 -0.9199829z" /></clipPath><clipPath id="183"><path id="" clip-rule="evenodd" d="M8.871E-06 841L595.32 841L595.32 841L595.32 -0.9199829L595.32 -0.9199829L8.871E-06 -0.9199829z" /></clipPath><clipPath id="184"><path id="" clip-rule="evenodd" d="M8.871E-06 841L595.32 841L595.32 841L595.32 -0.9199829L595.32 -0.9199829L8.871E-06 -0.9199829z" /></clipPath><clipPath id="185"><path id="" clip-rule="evenodd" d="M8.871E-06 841L595.32 841L595.32 841L595.32 -0.9199829L595.32 -0.9199829L8.871E-06 -0.9199829z" /></clipPath><clipPath id="186"><path id="" clip-rule="evenodd" d="M8.871E-06 841L595.32 841L595.32 841L595.32 -0.9199829L595.32 -0.9199829L8.871E-06 -0.9199829z" /></clipPath><clipPath id="187"><path id="" clip-rule="evenodd" d="M8.871E-06 841L595.32 841L595.32 841L595.32 -0.9199829L595.32 -0.9199829L8.871E-06 -0.9199829z" /></clipPath><clipPath id="188"><path id="" clip-rule="evenodd" d="M8.871E-06 841L595.32 841L595.32 841L595.32 -0.9199829L595.32 -0.9199829L8.871E-06 -0.9199829z" /></clipPath><clipPath id="189"><path id="" clip-rule="evenodd" d="M8.871E-06 841L595.32 841L595.32 841L595.32 -0.9199829L595.32 -0.9199829L8.871E-06 -0.9199829z" /></clipPath><clipPath id="190"><path id="" clip-rule="evenodd" d="M8.871E-06 841L595.32 841L595.32 841L595.32 -0.9199829L595.32 -0.9199829L8.871E-06 -0.9199829z" /></clipPath><clipPath id="191"><path id="" clip-rule="evenodd" d="M8.871E-06 841L595.32 841L595.32 841L595.32 -0.9199829L595.32 -0.9199829L8.871E-06 -0.9199829z" /></clipPath><clipPath id="192"><path id="" clip-rule="evenodd" d="M8.871E-06 841L595.32 841L595.32 841L595.32 -0.9199829L595.32 -0.9199829L8.871E-06 -0.9199829z" /></clipPath><clipPath id="193"><path id="" clip-rule="evenodd" d="M8.871E-06 841L595.32 841L595.32 841L595.32 -0.9199829L595.32 -0.9199829L8.871E-06 -0.9199829z" /></clipPath><clipPath id="194"><path id="" clip-rule="evenodd" d="M8.871E-06 841L595.32 841L595.32 841L595.32 -0.9199829L595.32 -0.9199829L8.871E-06 -0.9199829z" /></clipPath><clipPath id="195"><path id="" clip-rule="evenodd" d="M8.871E-06 841L595.32 841L595.32 841L595.32 -0.9199829L595.32 -0.9199829L8.871E-06 -0.9199829z" /></clipPath><clipPath id="196"><path id="" clip-rule="evenodd" d="M8.871E-06 841L595.32 841L595.32 841L595.32 -0.9199829L595.32 -0.9199829L8.871E-06 -0.9199829z" /></clipPath><clipPath id="197"><path id="" clip-rule="evenodd" d="M8.871E-06 841L595.32 841L595.32 841L595.32 -0.9199829L595.32 -0.9199829L8.871E-06 -0.9199829z" /></clipPath><clipPath id="198"><path id="" clip-rule="evenodd" d="M8.871E-06 841L595.32 841L595.32 841L595.32 -0.9199829L595.32 -0.9199829L8.871E-06 -0.9199829z" /></clipPath><clipPath id="199"><path id="" clip-rule="evenodd" d="M8.871E-06 841L595.32 841L595.32 841L595.32 -0.9199829L595.32 -0.9199829L8.871E-06 -0.9199829z" /></clipPath><clipPath id="200"><path id="" clip-rule="evenodd" d="M8.871E-06 841L595.32 841L595.32 841L595.32 -0.9199829L595.32 -0.9199829L8.871E-06 -0.9199829z" /></clipPath><clipPath id="201"><path id="" clip-rule="evenodd" d="M8.871E-06 841L595.32 841L595.32 841L595.32 -0.9199829L595.32 -0.9199829L8.871E-06 -0.9199829z" /></clipPath><clipPath id="202"><path id="" clip-rule="evenodd" d="M8.871E-06 841L595.32 841L595.32 841L595.32 -0.9199829L595.32 -0.9199829L8.871E-06 -0.9199829z" /></clipPath><clipPath id="203"><path id="" clip-rule="evenodd" d="M8.871E-06 841L595.32 841L595.32 841L595.32 -0.9199829L595.32 -0.9199829L8.871E-06 -0.9199829z" /></clipPath><clipPath id="204"><path id="" clip-rule="evenodd" d="M8.871E-06 841L595.32 841L595.32 841L595.32 -0.9199829L595.32 -0.9199829L8.871E-06 -0.9199829z" /></clipPath><clipPath id="205"><path id="" clip-rule="evenodd" d="M8.871E-06 841L595.32 841L595.32 841L595.32 -0.9199829L595.32 -0.9199829L8.871E-06 -0.9199829z" /></clipPath><clipPath id="206"><path id="" clip-rule="evenodd" d="M8.871E-06 841L595.32 841L595.32 841L595.32 -0.9199829L595.32 -0.9199829L8.871E-06 -0.9199829z" /></clipPath><clipPath id="207"><path id="" clip-rule="evenodd" d="M8.871E-06 841L595.32 841L595.32 841L595.32 -0.9199829L595.32 -0.9199829L8.871E-06 -0.9199829z" /></clipPath></defs><g transform="matrix(1.333333 0 0 1.333333 0 0)"><g clip-path="url(#1)"><g clip-path="url(#2)"><path id="1" transform="matrix(1 0 0 -1 0 841)" d="M0 -0.13L595.45 -0.13L595.45 -0.13L595.45 841.92L595.45 841.92L0 841.92z" stroke="none" fill="#F5F1DE" fill-rule="evenodd" /></g><g clip-path="url(#3)"></g><g clip-path="url(#4)"></g><path id="12" transform="matrix(1 0 0 -1 0 841)" d="M89.9 777.72L505.45 777.72L505.45 777.72L505.45 779.27L505.45 779.27L89.9 779.27z" stroke="none" fill="#808080" fill-rule="evenodd" /><path id="13" transform="matrix(1 0 0 -1 0 841)" d="M89.904 779.04L90.144 779.04L90.144 779.04L90.144 779.28L90.144 779.28L89.904 779.28z" stroke="none" fill="#808080" fill-rule="evenodd" /><path id="14" transform="matrix(1 0 0 -1 0 841)" d="M89.904 779.04L90.144 779.04L90.144 779.04L90.144 779.28L90.144 779.28L89.904 779.28z" stroke="none" fill="#808080" fill-rule="evenodd" /><path id="15" transform="matrix(1 0 0 -1 0 841)" d="M90.144 779.04L505.324 779.04L505.324 779.04L505.324 779.28L505.324 779.28L90.144 779.28z" stroke="none" fill="#808080" fill-rule="evenodd" /><path id="16" transform="matrix(1 0 0 -1 0 841)" d="M505.32 779.04L505.56 779.04L505.56 779.04L505.56 779.28L505.56 779.28L505.32 779.28z" stroke="none" fill="#D4D0C8" fill-rule="evenodd" /><path id="17" transform="matrix(1 0 0 -1 0 841)" d="M505.32 779.04L505.56 779.04L505.56 779.04L505.56 779.28L505.56 779.28L505.32 779.28z" stroke="none" fill="#808080" fill-rule="evenodd" /><path id="18" transform="matrix(1 0 0 -1 0 841)" d="M89.904 777.96L90.144 777.96L90.144 777.96L90.144 779.04L90.144 779.04L89.904 779.04z" stroke="none" fill="#808080" fill-rule="evenodd" /><path id="19" transform="matrix(1 0 0 -1 0 841)" d="M505.32 777.96L505.56 777.96L505.56 777.96L505.56 779.04L505.56 779.04L505.32 779.04z" stroke="none" fill="#D4D0C8" fill-rule="evenodd" /><path id="20" transform="matrix(1 0 0 -1 0 841)" d="M89.904 777.72L90.144 777.72L90.144 777.72L90.144 777.96L90.144 777.96L89.904 777.96z" stroke="none" fill="#808080" fill-rule="evenodd" /><path id="21" transform="matrix(1 0 0 -1 0 841)" d="M89.904 777.72L90.144 777.72L90.144 777.72L90.144 777.96L90.144 777.96L89.904 777.96z" stroke="none" fill="#D4D0C8" fill-rule="evenodd" /><path id="22" transform="matrix(1 0 0 -1 0 841)" d="M90.144 777.72L505.324 777.72L505.324 777.72L505.324 777.96L505.324 777.96L90.144 777.96z" stroke="none" fill="#D4D0C8" fill-rule="evenodd" /><path id="23" transform="matrix(1 0 0 -1 0 841)" d="M505.32 777.72L505.56 777.72L505.56 777.72L505.56 777.96L505.56 777.96L505.32 777.96z" stroke="none" fill="#D4D0C8" fill-rule="evenodd" /><path id="24" transform="matrix(1 0 0 -1 0 841)" d="M505.32 777.72L505.56 777.72L505.56 777.72L505.56 777.96L505.56 777.96L505.32 777.96z" stroke="none" fill="#D4D0C8" fill-rule="evenodd" /><g clip-path="url(#5)"></g><g clip-path="url(#6)"></g><g clip-path="url(#7)"></g><g clip-path="url(#8)"></g><g clip-path="url(#9)"></g><g clip-path="url(#10)"></g><g clip-path="url(#11)"></g><g clip-path="url(#12)"></g><g clip-path="url(#13)"></g><g clip-path="url(#14)"></g><g clip-path="url(#15)"></g><g clip-path="url(#16)"></g><g clip-path="url(#17)"></g><g clip-path="url(#18)"></g><g clip-path="url(#19)"></g><g clip-path="url(#20)"></g><g clip-path="url(#21)"></g><g clip-path="url(#22)"></g><g clip-path="url(#23)"></g><g clip-path="url(#24)"></g><g clip-path="url(#25)"></g><g clip-path="url(#26)"></g><g clip-path="url(#27)"></g><g clip-path="url(#28)"></g><g clip-path="url(#29)"></g><g clip-path="url(#30)"></g><g clip-path="url(#31)"></g><g clip-path="url(#32)"></g><g clip-path="url(#33)"></g><g clip-path="url(#34)"></g><g clip-path="url(#35)"></g><g clip-path="url(#36)"></g><g clip-path="url(#37)"></g><g clip-path="url(#38)"></g><g clip-path="url(#39)"></g><g clip-path="url(#40)"></g><g clip-path="url(#41)"></g><g clip-path="url(#42)"></g><g clip-path="url(#43)"></g><g clip-path="url(#44)"></g><g clip-path="url(#45)"></g><g clip-path="url(#46)"></g><g clip-path="url(#47)"></g><g clip-path="url(#48)"></g><g clip-path="url(#49)"></g><g clip-path="url(#50)"></g><g clip-path="url(#51)"></g><g clip-path="url(#52)"></g><g clip-path="url(#53)"></g><g clip-path="url(#54)"></g><g clip-path="url(#55)"></g><g clip-path="url(#56)"></g><g clip-path="url(#57)"></g><g clip-path="url(#58)"></g><g clip-path="url(#59)"><g clip-path="url(#60)"><path id="640" transform="matrix(1 0 0 -1 0 841)" d="M191.688 578.8574L188.7859 570.5157" stroke="#000000" stroke-width="0.5004405" fill="none" /><path id="641" transform="matrix(1 0 0 -1 0 841)" d="M188.7859 570.5157L191.688 562.1503" stroke="#000000" stroke-width="0.5004405" fill="none" /><path id="642" transform="matrix(1 0 0 -1 0 841)" d="M208.0776 578.8574L208.0776 562.1503" stroke="#000000" stroke-width="0.5004405" fill="none" /><path id="643" transform="matrix(1 0 0 -1 0 841)" d="M226.6442 578.8574L226.6442 562.1503" stroke="#000000" stroke-width="0.5004405" fill="none" /><path id="644" transform="matrix(1 0 0 -1 0 841)" d="M243.0338 578.8574L245.9378 570.5157" stroke="#000000" stroke-width="0.5004405" fill="none" /><path id="645" transform="matrix(1 0 0 -1 0 841)" d="M245.9378 570.5157L243.0338 562.1503" stroke="#000000" stroke-width="0.5004405" fill="none" /><path id="646" transform="matrix(1 0 0 -1 0 841)" d="M301.0639 578.8574L298.1799 570.5157" stroke="#000000" stroke-width="0.5004405" fill="none" /><path id="647" transform="matrix(1 0 0 -1 0 841)" d="M298.1799 570.5157L301.0639 562.1503" stroke="#000000" stroke-width="0.5004405" fill="none" /><path id="648" transform="matrix(1 0 0 -1 0 841)" d="M317.4465 578.8574L317.4465 562.1503" stroke="#000000" stroke-width="0.5004405" fill="none" /><path id="649" transform="matrix(1 0 0 -1 0 841)" d="M336.0121 577.5704L336.0121 563.4611" stroke="#000000" stroke-width="0.5004405" fill="none" /><path id="650" transform="matrix(1 0 0 -1 0 841)" d="M351.6336 577.5704L354.2873 570.5157" stroke="#000000" stroke-width="0.5004405" fill="none" /><path id="651" transform="matrix(1 0 0 -1 0 841)" d="M354.2873 570.5157L351.6336 563.4611" stroke="#000000" stroke-width="0.5004405" fill="none" /><path id="652" transform="matrix(1 0 0 -1 0 841)" d="M390.8678 577.5704L388.2341 570.5157" stroke="#000000" stroke-width="0.5004405" fill="none" /><path id="653" transform="matrix(1 0 0 -1 0 841)" d="M388.2341 570.5157L390.8678 563.4611" stroke="#000000" stroke-width="0.5004405" fill="none" /><path id="654" transform="matrix(1 0 0 -1 0 841)" d="M406.4793 577.5704L406.4793 563.4611" stroke="#000000" stroke-width="0.5004405" fill="none" /><path id="655" transform="matrix(1 0 0 -1 0 841)" d="M425.0449 578.8574L425.0449 562.1503" stroke="#000000" stroke-width="0.5004405" fill="none" /><path id="656" transform="matrix(1 0 0 -1 0 841)" d="M441.4576 578.8574L444.3416 570.5157" stroke="#000000" stroke-width="0.5004405" fill="none" /><path id="657" transform="matrix(1 0 0 -1 0 841)" d="M444.3416 570.5157L441.4576 562.1503" stroke="#000000" stroke-width="0.5004405" fill="none" /></g></g><g clip-path="url(#61)"></g><g clip-path="url(#62)"></g><g clip-path="url(#63)"></g><g clip-path="url(#64)"></g><g clip-path="url(#65)"></g><g clip-path="url(#66)"></g><g clip-path="url(#67)"></g><g clip-path="url(#68)"></g><g clip-path="url(#69)"></g><g clip-path="url(#70)"></g><g clip-path="url(#71)"></g><g clip-path="url(#72)"></g><g clip-path="url(#73)"><g clip-path="url(#74)"><path id="791" transform="matrix(1 0 0 -1 0 841)" d="M199.2259 524.7969L196.3282 516.3394" stroke="#000000" stroke-width="0.4995268" fill="none" /><path id="792" transform="matrix(1 0 0 -1 0 841)" d="M196.3282 516.3394L199.2259 507.8572" stroke="#000000" stroke-width="0.4995268" fill="none" /><path id="793" transform="matrix(1 0 0 -1 0 841)" d="M215.5856 524.7969L215.5856 507.8572" stroke="#000000" stroke-width="0.4995268" fill="none" /><path id="794" transform="matrix(1 0 0 -1 0 841)" d="M224.4776 516.3394L237.2949 516.3394" stroke="#000000" stroke-width="0.4995268" fill="none" /><path id="795" transform="matrix(1 0 0 -1 0 841)" d="M257.8757 516.3394L270.56 516.3394" stroke="#000000" stroke-width="0.4995268" fill="none" /><path id="796" transform="matrix(1 0 0 -1 0 841)" d="M272.809 524.7969L272.809 507.8572" stroke="#000000" stroke-width="0.4995268" fill="none" /><path id="797" transform="matrix(1 0 0 -1 0 841)" d="M289.1917 524.7969L292.0604 516.3394" stroke="#000000" stroke-width="0.4995268" fill="none" /><path id="798" transform="matrix(1 0 0 -1 0 841)" d="M292.0604 516.3394L289.1917 507.8572" stroke="#000000" stroke-width="0.4995268" fill="none" /><path id="799" transform="matrix(1 0 0 -1 0 841)" d="M217.9585 488.2298L215.0858 479.7723" stroke="#000000" stroke-width="0.4995268" fill="none" /><path id="800" transform="matrix(1 0 0 -1 0 841)" d="M215.0858 479.7723L217.9585 471.2901" stroke="#000000" stroke-width="0.4995268" fill="none" /><path id="801" transform="matrix(1 0 0 -1 0 841)" d="M234.3432 488.2298L234.3432 471.2901" stroke="#000000" stroke-width="0.4995268" fill="none" /><path id="802" transform="matrix(1 0 0 -1 0 841)" d="M243.2322 479.7723L256.0266 479.7723" stroke="#000000" stroke-width="0.4995268" fill="none" /><path id="803" transform="matrix(1 0 0 -1 0 841)" d="M276.6273 479.7723L289.3116 479.7723" stroke="#000000" stroke-width="0.4995268" fill="none" /><path id="804" transform="matrix(1 0 0 -1 0 841)" d="M291.5607 486.923L291.5607 472.6216" stroke="#000000" stroke-width="0.4995268" fill="none" /><path id="805" transform="matrix(1 0 0 -1 0 841)" d="M307.1537 486.923L309.7725 479.7723" stroke="#000000" stroke-width="0.4995268" fill="none" /><path id="806" transform="matrix(1 0 0 -1 0 841)" d="M309.7725 479.7723L307.1537 472.6216" stroke="#000000" stroke-width="0.4995268" fill="none" /><path id="807" transform="matrix(1 0 0 -1 0 841)" d="M346.3162 486.923L343.6874 479.7723" stroke="#000000" stroke-width="0.4995268" fill="none" /><path id="808" transform="matrix(1 0 0 -1 0 841)" d="M343.6874 479.7723L346.3162 472.6216" stroke="#000000" stroke-width="0.4995268" fill="none" /><path id="809" transform="matrix(1 0 0 -1 0 841)" d="M361.8992 486.923L361.8992 472.6216" stroke="#000000" stroke-width="0.4995268" fill="none" /><path id="810" transform="matrix(1 0 0 -1 0 841)" d="M370.7852 479.7723L383.5995 479.7723" stroke="#000000" stroke-width="0.4995268" fill="none" /><path id="811" transform="matrix(1 0 0 -1 0 841)" d="M404.1804 479.7723L416.8747 479.7723" stroke="#000000" stroke-width="0.4995268" fill="none" /><path id="812" transform="matrix(1 0 0 -1 0 841)" d="M419.1237 488.2298L419.1237 471.2901" stroke="#000000" stroke-width="0.4995268" fill="none" /><path id="813" transform="matrix(1 0 0 -1 0 841)" d="M435.5063 488.2298L438.3751 479.7723" stroke="#000000" stroke-width="0.4995268" fill="none" /><path id="814" transform="matrix(1 0 0 -1 0 841)" d="M438.3751 479.7723L435.5063 471.2901" stroke="#000000" stroke-width="0.4995268" fill="none" /></g></g><g clip-path="url(#75)"></g><g clip-path="url(#76)"></g><g clip-path="url(#77)"></g><g clip-path="url(#78)"></g><g clip-path="url(#79)"></g><g clip-path="url(#80)"></g><g clip-path="url(#81)"></g><g clip-path="url(#82)"></g><g clip-path="url(#83)"></g><g clip-path="url(#84)"></g><g clip-path="url(#85)"></g><g clip-path="url(#86)"></g><g clip-path="url(#87)"></g><g clip-path="url(#88)"></g><g clip-path="url(#89)"></g><g clip-path="url(#90)"></g><g clip-path="url(#91)"></g><g clip-path="url(#92)"></g><g clip-path="url(#93)"></g><g clip-path="url(#94)"></g><g clip-path="url(#95)"></g><g clip-path="url(#96)"></g><g clip-path="url(#97)"></g><g clip-path="url(#98)"></g><g clip-path="url(#99)"></g><g clip-path="url(#100)"></g><g clip-path="url(#101)"></g><g clip-path="url(#102)"></g><g clip-path="url(#103)"></g><g clip-path="url(#104)"></g><g clip-path="url(#105)"></g><g clip-path="url(#106)"></g><g clip-path="url(#107)"></g><g clip-path="url(#108)"></g><g clip-path="url(#109)"></g><g clip-path="url(#110)"></g><g clip-path="url(#111)"></g><g clip-path="url(#112)"></g><g clip-path="url(#113)"></g><g clip-path="url(#114)"></g><g clip-path="url(#115)"></g><g clip-path="url(#116)"></g><g clip-path="url(#117)"></g><g clip-path="url(#118)"></g><g clip-path="url(#119)"></g><g clip-path="url(#120)"></g><g clip-path="url(#121)"></g><g clip-path="url(#122)"></g><g clip-path="url(#123)"></g><g clip-path="url(#124)"></g><g clip-path="url(#125)"></g><g clip-path="url(#126)"></g><g clip-path="url(#127)"></g><g clip-path="url(#128)"></g><g clip-path="url(#129)"></g><g clip-path="url(#130)"></g><g clip-path="url(#131)"></g><g clip-path="url(#132)"></g><g clip-path="url(#133)"></g><g clip-path="url(#134)"></g><g clip-path="url(#135)"></g><g clip-path="url(#136)"></g><g clip-path="url(#137)"></g><g clip-path="url(#138)"></g><g clip-path="url(#139)"></g><g clip-path="url(#140)"></g><g clip-path="url(#141)"></g><g clip-path="url(#142)"></g><g clip-path="url(#143)"><g clip-path="url(#144)"><path id="1652" transform="matrix(1 0 0 -1 0 841)" d="M313.1506 282.6434L310.2907 274.1158" stroke="#000000" stroke-width="0.4973041" fill="none" /><path id="1653" transform="matrix(1 0 0 -1 0 841)" d="M310.2907 274.1158L313.1506 265.6131" stroke="#000000" stroke-width="0.4973041" fill="none" /><path id="1654" transform="matrix(1 0 0 -1 0 841)" d="M329.5092 282.6434L329.5092 265.6131" stroke="#000000" stroke-width="0.4973041" fill="none" /><path id="1655" transform="matrix(1 0 0 -1 0 841)" d="M348.8043 282.6434L348.8043 265.6131" stroke="#000000" stroke-width="0.4973041" fill="none" /><path id="1656" transform="matrix(1 0 0 -1 0 841)" d="M365.1638 282.6434L368.0496 274.1158" stroke="#000000" stroke-width="0.4973041" fill="none" /><path id="1657" transform="matrix(1 0 0 -1 0 841)" d="M368.0496 274.1158L365.1638 265.6131" stroke="#000000" stroke-width="0.4973041" fill="none" /><path id="1658" transform="matrix(1 0 0 -1 0 841)" d="M313.1506 251.9888L310.2907 243.4861" stroke="#000000" stroke-width="0.4973041" fill="none" /><path id="1659" transform="matrix(1 0 0 -1 0 841)" d="M310.2907 243.4861L313.1506 234.9585" stroke="#000000" stroke-width="0.4973041" fill="none" /><path id="1660" transform="matrix(1 0 0 -1 0 841)" d="M329.5092 251.9888L329.5092 234.9585" stroke="#000000" stroke-width="0.4973041" fill="none" /><path id="1661" transform="matrix(1 0 0 -1 0 841)" d="M349.5307 251.9888L349.5307 234.9585" stroke="#000000" stroke-width="0.4973041" fill="none" /><path id="1662" transform="matrix(1 0 0 -1 0 841)" d="M365.8902 251.9888L368.776 243.4861" stroke="#000000" stroke-width="0.4973041" fill="none" /><path id="1663" transform="matrix(1 0 0 -1 0 841)" d="M368.776 243.4861L365.8902 234.9585" stroke="#000000" stroke-width="0.4973041" fill="none" /><path id="1664" transform="matrix(1 0 0 -1 0 841)" d="M313.1506 221.3591L310.2907 212.8315" stroke="#000000" stroke-width="0.4973041" fill="none" /><path id="1665" transform="matrix(1 0 0 -1 0 841)" d="M310.2907 212.8315L313.1506 204.3288" stroke="#000000" stroke-width="0.4973041" fill="none" /><path id="1666" transform="matrix(1 0 0 -1 0 841)" d="M329.5092 221.3591L329.5092 204.3288" stroke="#000000" stroke-width="0.4973041" fill="none" /><path id="1667" transform="matrix(1 0 0 -1 0 841)" d="M348.038 221.3591L348.038 204.3288" stroke="#000000" stroke-width="0.4973041" fill="none" /><path id="1668" transform="matrix(1 0 0 -1 0 841)" d="M364.3976 221.3591L367.2535 212.8315" stroke="#000000" stroke-width="0.4973041" fill="none" /><path id="1669" transform="matrix(1 0 0 -1 0 841)" d="M367.2535 212.8315L364.3976 204.3288" stroke="#000000" stroke-width="0.4973041" fill="none" /></g></g><g clip-path="url(#145)"></g><g clip-path="url(#146)"></g><g clip-path="url(#147)"><g clip-path="url(#148)"></g></g><g clip-path="url(#149)"></g><g clip-path="url(#150)"></g><g clip-path="url(#151)"></g><g clip-path="url(#152)"></g><g clip-path="url(#153)"></g><g clip-path="url(#154)"></g><g clip-path="url(#155)"></g><g clip-path="url(#156)"></g><g clip-path="url(#157)"></g><g clip-path="url(#158)"></g><g clip-path="url(#159)"></g><g clip-path="url(#160)"></g><g clip-path="url(#161)"></g><g clip-path="url(#162)"></g><g clip-path="url(#163)"></g><g clip-path="url(#164)"></g><g clip-path="url(#165)"></g><g clip-path="url(#166)"></g><g clip-path="url(#167)"></g><g clip-path="url(#168)"></g><g clip-path="url(#169)"></g><g clip-path="url(#170)"></g><g clip-path="url(#171)"></g><g clip-path="url(#172)"></g><g clip-path="url(#173)"></g><g clip-path="url(#174)"></g><g clip-path="url(#175)"></g><g clip-path="url(#176)"></g><g clip-path="url(#177)"></g><g clip-path="url(#178)"></g><g clip-path="url(#179)"></g><g clip-path="url(#180)"></g><g clip-path="url(#181)"></g><g clip-path="url(#182)"></g><g clip-path="url(#183)"></g><g clip-path="url(#184)"></g><g clip-path="url(#185)"></g><g clip-path="url(#186)"></g><g clip-path="url(#187)"></g><g clip-path="url(#188)"></g><g clip-path="url(#189)"></g><g clip-path="url(#190)"></g><g clip-path="url(#191)"></g><g clip-path="url(#192)"></g><g clip-path="url(#193)"></g><g clip-path="url(#194)"></g><g clip-path="url(#195)"></g><g clip-path="url(#196)"></g><g clip-path="url(#197)"></g><g clip-path="url(#198)"></g><g clip-path="url(#199)"></g><g clip-path="url(#200)"></g><g clip-path="url(#201)"></g><g clip-path="url(#202)"></g><g clip-path="url(#203)"></g><g clip-path="url(#204)"></g><g clip-path="url(#205)"></g><g clip-path="url(#206)"></g><g clip-path="url(#207)"></g></g></g></svg>