<svg xmlns="http://www.w3.org/2000/svg" xmlns:xlink="http://www.w3.org/1999/xlink" id="body_556" preserveAspectRatio="xMinYMin meet" viewBox="0 0 793 1121"><defs><clipPath id="1"><path id="" clip-rule="evenodd" d="M0 841L0 -0.9199829L0 -0.9199829L595.32 -0.9199829L595.32 -0.9199829L595.32 841L595.32 841L0 841z" /></clipPath><clipPath id="2"><path id="" clip-rule="evenodd" d="M0 840.9999L595.32 840.9999L595.32 840.9999L595.32 -0.9200439L595.32 -0.9200439L0 -0.9200439z" /></clipPath><clipPath id="3"><path id="" clip-rule="evenodd" d="M8.871E-06 841L595.32 841L595.32 841L595.32 -0.9199829L595.32 -0.9199829L8.871E-06 -0.9199829z" /></clipPath><clipPath id="4"><path id="" clip-rule="evenodd" d="M8.871E-06 841L595.32 841L595.32 841L595.32 -0.9199829L595.32 -0.9199829L8.871E-06 -0.9199829z" /></clipPath><clipPath id="5"><path id="" clip-rule="evenodd" d="M8.871E-06 841L595.32 841L595.32 841L595.32 -0.9199829L595.32 -0.9199829L8.871E-06 -0.9199829z" /></clipPath><clipPath id="6"><path id="" clip-rule="evenodd" d="M8.871E-06 841L595.32 841L595.32 841L595.32 -0.9199829L595.32 -0.9199829L8.871E-06 -0.9199829z" /></clipPath><clipPath id="7"><path id="" clip-rule="evenodd" d="M8.871E-06 841L595.32 841L595.32 841L595.32 -0.9199829L595.32 -0.9199829L8.871E-06 -0.9199829z" /></clipPath><clipPath id="8"><path id="" clip-rule="evenodd" d="M8.871E-06 841L595.32 841L595.32 841L595.32 -0.9199829L595.32 -0.9199829L8.871E-06 -0.9199829z" /></clipPath><clipPath id="9"><path id="" clip-rule="evenodd" d="M8.871E-06 841L595.32 841L595.32 841L595.32 -0.9199829L595.32 -0.9199829L8.871E-06 -0.9199829z" /></clipPath><clipPath id="10"><path id="" clip-rule="evenodd" d="M8.871E-06 841L595.32 841L595.32 841L595.32 -0.9199829L595.32 -0.9199829L8.871E-06 -0.9199829z" /></clipPath><clipPath id="11"><path id="" clip-rule="evenodd" d="M8.871E-06 841L595.32 841L595.32 841L595.32 -0.9199829L595.32 -0.9199829L8.871E-06 -0.9199829z" /></clipPath><clipPath id="12"><path id="" clip-rule="evenodd" d="M8.871E-06 841L595.32 841L595.32 841L595.32 -0.9199829L595.32 -0.9199829L8.871E-06 -0.9199829z" /></clipPath><clipPath id="13"><path id="" clip-rule="evenodd" d="M8.871E-06 841L595.32 841L595.32 841L595.32 -0.9199829L595.32 -0.9199829L8.871E-06 -0.9199829z" /></clipPath><clipPath id="14"><path id="" clip-rule="evenodd" d="M8.871E-06 841L595.32 841L595.32 841L595.32 -0.9199829L595.32 -0.9199829L8.871E-06 -0.9199829z" /></clipPath><clipPath id="15"><path id="" clip-rule="evenodd" d="M8.871E-06 841L595.32 841L595.32 841L595.32 -0.9199829L595.32 -0.9199829L8.871E-06 -0.9199829z" /></clipPath><clipPath id="16"><path id="" clip-rule="evenodd" d="M8.871E-06 841L595.32 841L595.32 841L595.32 -0.9199829L595.32 -0.9199829L8.871E-06 -0.9199829z" /></clipPath><clipPath id="17"><path id="" clip-rule="evenodd" d="M8.871E-06 841L595.32 841L595.32 841L595.32 -0.9199829L595.32 -0.9199829L8.871E-06 -0.9199829z" /></clipPath><clipPath id="18"><path id="" clip-rule="evenodd" d="M8.871E-06 841L595.32 841L595.32 841L595.32 -0.9199829L595.32 -0.9199829L8.871E-06 -0.9199829z" /></clipPath><clipPath id="19"><path id="" clip-rule="evenodd" d="M8.871E-06 841L595.32 841L595.32 841L595.32 -0.9199829L595.32 -0.9199829L8.871E-06 -0.9199829z" /></clipPath><clipPath id="20"><path id="" clip-rule="evenodd" d="M8.871E-06 841L595.32 841L595.32 841L595.32 -0.9199829L595.32 -0.9199829L8.871E-06 -0.9199829z" /></clipPath><clipPath id="21"><path id="" clip-rule="evenodd" d="M8.871E-06 841L595.32 841L595.32 841L595.32 -0.9199829L595.32 -0.9199829L8.871E-06 -0.9199829z" /></clipPath><clipPath id="22"><path id="" clip-rule="evenodd" d="M8.871E-06 841L595.32 841L595.32 841L595.32 -0.9199829L595.32 -0.9199829L8.871E-06 -0.9199829z" /></clipPath><clipPath id="23"><path id="" clip-rule="evenodd" d="M8.871E-06 841L595.32 841L595.32 841L595.32 -0.9199829L595.32 -0.9199829L8.871E-06 -0.9199829z" /></clipPath><clipPath id="24"><path id="" clip-rule="evenodd" d="M8.871E-06 841L595.32 841L595.32 841L595.32 -0.9199829L595.32 -0.9199829L8.871E-06 -0.9199829z" /></clipPath><clipPath id="25"><path id="" clip-rule="evenodd" d="M8.871E-06 841L595.32 841L595.32 841L595.32 -0.9199829L595.32 -0.9199829L8.871E-06 -0.9199829z" /></clipPath><clipPath id="26"><path id="" clip-rule="evenodd" d="M8.871E-06 841L595.32 841L595.32 841L595.32 -0.9199829L595.32 -0.9199829L8.871E-06 -0.9199829z" /></clipPath><clipPath id="27"><path id="" clip-rule="evenodd" d="M8.871E-06 841L595.32 841L595.32 841L595.32 -0.9199829L595.32 -0.9199829L8.871E-06 -0.9199829z" /></clipPath><clipPath id="28"><path id="" clip-rule="evenodd" d="M8.871E-06 841L595.32 841L595.32 841L595.32 -0.9199829L595.32 -0.9199829L8.871E-06 -0.9199829z" /></clipPath><clipPath id="29"><path id="" clip-rule="evenodd" d="M8.871E-06 841L595.32 841L595.32 841L595.32 -0.9199829L595.32 -0.9199829L8.871E-06 -0.9199829z" /></clipPath><clipPath id="30"><path id="" clip-rule="evenodd" d="M8.871E-06 841L595.32 841L595.32 841L595.32 -0.9199829L595.32 -0.9199829L8.871E-06 -0.9199829z" /></clipPath><clipPath id="31"><path id="" clip-rule="evenodd" d="M8.871E-06 841L595.32 841L595.32 841L595.32 -0.9199829L595.32 -0.9199829L8.871E-06 -0.9199829z" /></clipPath><clipPath id="32"><path id="" clip-rule="evenodd" d="M8.871E-06 841L595.32 841L595.32 841L595.32 -0.9199829L595.32 -0.9199829L8.871E-06 -0.9199829z" /></clipPath><clipPath id="33"><path id="" clip-rule="evenodd" d="M8.871E-06 841L595.32 841L595.32 841L595.32 -0.9199829L595.32 -0.9199829L8.871E-06 -0.9199829z" /></clipPath><clipPath id="34"><path id="" clip-rule="evenodd" d="M8.871E-06 841L595.32 841L595.32 841L595.32 -0.9199829L595.32 -0.9199829L8.871E-06 -0.9199829z" /></clipPath><clipPath id="35"><path id="" clip-rule="evenodd" d="M8.871E-06 841L595.32 841L595.32 841L595.32 -0.9199829L595.32 -0.9199829L8.871E-06 -0.9199829z" /></clipPath><clipPath id="36"><path id="" clip-rule="evenodd" d="M8.871E-06 841L595.32 841L595.32 841L595.32 -0.9199829L595.32 -0.9199829L8.871E-06 -0.9199829z" /></clipPath><clipPath id="37"><path id="" clip-rule="evenodd" d="M8.871E-06 841L595.32 841L595.32 841L595.32 -0.9199829L595.32 -0.9199829L8.871E-06 -0.9199829z" /></clipPath><clipPath id="38"><path id="" clip-rule="evenodd" d="M8.871E-06 841L595.32 841L595.32 841L595.32 -0.9199829L595.32 -0.9199829L8.871E-06 -0.9199829z" /></clipPath><clipPath id="39"><path id="" clip-rule="evenodd" d="M8.871E-06 841L595.32 841L595.32 841L595.32 -0.9199829L595.32 -0.9199829L8.871E-06 -0.9199829z" /></clipPath><clipPath id="40"><path id="" clip-rule="evenodd" d="M8.871E-06 841L595.32 841L595.32 841L595.32 -0.9199829L595.32 -0.9199829L8.871E-06 -0.9199829z" /></clipPath><clipPath id="41"><path id="" clip-rule="evenodd" d="M8.871E-06 841L595.32 841L595.32 841L595.32 -0.9199829L595.32 -0.9199829L8.871E-06 -0.9199829z" /></clipPath><clipPath id="42"><path id="" clip-rule="evenodd" d="M8.871E-06 841L595.32 841L595.32 841L595.32 -0.9199829L595.32 -0.9199829L8.871E-06 -0.9199829z" /></clipPath><clipPath id="43"><path id="" clip-rule="evenodd" d="M8.871E-06 841L595.32 841L595.32 841L595.32 -0.9199829L595.32 -0.9199829L8.871E-06 -0.9199829z" /></clipPath><clipPath id="44"><path id="" clip-rule="evenodd" d="M8.871E-06 841L595.32 841L595.32 841L595.32 -0.9199829L595.32 -0.9199829L8.871E-06 -0.9199829z" /></clipPath><clipPath id="45"><path id="" clip-rule="evenodd" d="M8.871E-06 841L595.32 841L595.32 841L595.32 -0.9199829L595.32 -0.9199829L8.871E-06 -0.9199829z" /></clipPath><clipPath id="46"><path id="" clip-rule="evenodd" d="M8.871E-06 841L595.32 841L595.32 841L595.32 -0.9199829L595.32 -0.9199829L8.871E-06 -0.9199829z" /></clipPath><clipPath id="47"><path id="" clip-rule="evenodd" d="M8.871E-06 841L595.32 841L595.32 841L595.32 -0.9199829L595.32 -0.9199829L8.871E-06 -0.9199829z" /></clipPath><clipPath id="48"><path id="" clip-rule="evenodd" d="M8.871E-06 841L595.32 841L595.32 841L595.32 -0.9199829L595.32 -0.9199829L8.871E-06 -0.9199829z" /></clipPath><clipPath id="49"><path id="" clip-rule="evenodd" d="M8.871E-06 841L595.32 841L595.32 841L595.32 -0.9199829L595.32 -0.9199829L8.871E-06 -0.9199829z" /></clipPath><clipPath id="50"><path id="" clip-rule="evenodd" d="M8.871E-06 841L595.32 841L595.32 841L595.32 -0.9199829L595.32 -0.9199829L8.871E-06 -0.9199829z" /></clipPath><clipPath id="51"><path id="" clip-rule="evenodd" d="M8.871E-06 841L595.32 841L595.32 841L595.32 -0.9199829L595.32 -0.9199829L8.871E-06 -0.9199829z" /></clipPath><clipPath id="52"><path id="" clip-rule="evenodd" d="M8.871E-06 841L595.32 841L595.32 841L595.32 -0.9199829L595.32 -0.9199829L8.871E-06 -0.9199829z" /></clipPath><clipPath id="53"><path id="" clip-rule="evenodd" d="M8.871E-06 841L595.32 841L595.32 841L595.32 -0.9199829L595.32 -0.9199829L8.871E-06 -0.9199829z" /></clipPath><clipPath id="54"><path id="" clip-rule="evenodd" d="M8.871E-06 841L595.32 841L595.32 841L595.32 -0.9199829L595.32 -0.9199829L8.871E-06 -0.9199829z" /></clipPath><clipPath id="55"><path id="" clip-rule="evenodd" d="M8.871E-06 841L595.32 841L595.32 841L595.32 -0.9199829L595.32 -0.9199829L8.871E-06 -0.9199829z" /></clipPath><clipPath id="56"><path id="" clip-rule="evenodd" d="M8.871E-06 841L595.32 841L595.32 841L595.32 -0.9199829L595.32 -0.9199829L8.871E-06 -0.9199829z" /></clipPath><clipPath id="57"><path id="" clip-rule="evenodd" d="M8.871E-06 841L595.32 841L595.32 841L595.32 -0.9199829L595.32 -0.9199829L8.871E-06 -0.9199829z" /></clipPath><clipPath id="58"><path id="" clip-rule="evenodd" d="M8.871E-06 841L595.32 841L595.32 841L595.32 -0.9199829L595.32 -0.9199829L8.871E-06 -0.9199829z" /></clipPath><clipPath id="59"><path id="" clip-rule="evenodd" d="M8.871E-06 841L595.32 841L595.32 841L595.32 -0.9199829L595.32 -0.9199829L8.871E-06 -0.9199829z" /></clipPath><clipPath id="60"><path id="" clip-rule="evenodd" d="M8.871E-06 841L595.32 841L595.32 841L595.32 -0.9199829L595.32 -0.9199829L8.871E-06 -0.9199829z" /></clipPath><clipPath id="61"><path id="" clip-rule="evenodd" d="M8.871E-06 841L595.32 841L595.32 841L595.32 -0.9199829L595.32 -0.9199829L8.871E-06 -0.9199829z" /></clipPath><clipPath id="62"><path id="" clip-rule="evenodd" d="M8.871E-06 841L595.32 841L595.32 841L595.32 -0.9199829L595.32 -0.9199829L8.871E-06 -0.9199829z" /></clipPath><clipPath id="63"><path id="" clip-rule="evenodd" d="M8.871E-06 841L595.32 841L595.32 841L595.32 -0.9199829L595.32 -0.9199829L8.871E-06 -0.9199829z" /></clipPath><clipPath id="64"><path id="" clip-rule="evenodd" d="M8.871E-06 841L595.32 841L595.32 841L595.32 -0.9199829L595.32 -0.9199829L8.871E-06 -0.9199829z" /></clipPath><clipPath id="65"><path id="" clip-rule="evenodd" d="M8.871E-06 841L595.32 841L595.32 841L595.32 -0.9199829L595.32 -0.9199829L8.871E-06 -0.9199829z" /></clipPath><clipPath id="66"><path id="" clip-rule="evenodd" d="M8.871E-06 841L595.32 841L595.32 841L595.32 -0.9199829L595.32 -0.9199829L8.871E-06 -0.9199829z" /></clipPath><clipPath id="67"><path id="" clip-rule="evenodd" d="M8.871E-06 841L595.32 841L595.32 841L595.32 -0.9199829L595.32 -0.9199829L8.871E-06 -0.9199829z" /></clipPath><clipPath id="68"><path id="" clip-rule="evenodd" d="M8.871E-06 841L595.32 841L595.32 841L595.32 -0.9199829L595.32 -0.9199829L8.871E-06 -0.9199829z" /></clipPath><clipPath id="69"><path id="" clip-rule="evenodd" d="M8.871E-06 841L595.32 841L595.32 841L595.32 -0.9199829L595.32 -0.9199829L8.871E-06 -0.9199829z" /></clipPath><clipPath id="70"><path id="" clip-rule="evenodd" d="M8.871E-06 841L595.32 841L595.32 841L595.32 -0.9199829L595.32 -0.9199829L8.871E-06 -0.9199829z" /></clipPath><clipPath id="71"><path id="" clip-rule="evenodd" d="M8.871E-06 841L595.32 841L595.32 841L595.32 -0.9199829L595.32 -0.9199829L8.871E-06 -0.9199829z" /></clipPath><clipPath id="72"><path id="" clip-rule="evenodd" d="M8.871E-06 841L595.32 841L595.32 841L595.32 -0.9199829L595.32 -0.9199829L8.871E-06 -0.9199829z" /></clipPath><clipPath id="73"><path id="" clip-rule="evenodd" d="M8.871E-06 841L595.32 841L595.32 841L595.32 -0.9199829L595.32 -0.9199829L8.871E-06 -0.9199829z" /></clipPath><clipPath id="74"><path id="" clip-rule="evenodd" d="M8.871E-06 841L595.32 841L595.32 841L595.32 -0.9199829L595.32 -0.9199829L8.871E-06 -0.9199829z" /></clipPath><clipPath id="75"><path id="" clip-rule="evenodd" d="M8.871E-06 841L595.32 841L595.32 841L595.32 -0.9199829L595.32 -0.9199829L8.871E-06 -0.9199829z" /></clipPath><clipPath id="76"><path id="" clip-rule="evenodd" d="M8.871E-06 841L595.32 841L595.32 841L595.32 -0.9199829L595.32 -0.9199829L8.871E-06 -0.9199829z" /></clipPath><clipPath id="77"><path id="" clip-rule="evenodd" d="M8.871E-06 841L595.32 841L595.32 841L595.32 -0.9199829L595.32 -0.9199829L8.871E-06 -0.9199829z" /></clipPath><clipPath id="78"><path id="" clip-rule="evenodd" d="M0 840.9999L595.32 840.9999L595.32 840.9999L595.32 -0.9200439L595.32 -0.9200439L0 -0.9200439z" /></clipPath><clipPath id="79"><path id="" clip-rule="evenodd" d="M111.06 536.74L486.7615 536.74L486.7615 536.74L486.7615 276.4363L486.7615 276.4363L111.06 276.4363z" /></clipPath><clipPath id="80"><path id="" clip-rule="evenodd" d="M111.06 535.5983L484.4687 535.5983L484.4687 535.5983L484.4687 276.4275L484.4687 276.4275L111.06 276.4275z" /></clipPath><clipPath id="81"><path id="" clip-rule="evenodd" d="M177.9271 492.7504L432.7587 492.7504L432.7587 492.7504L432.7587 306.5255L432.7587 306.5255L177.9271 306.5255z" /></clipPath><clipPath id="82"><path id="" clip-rule="evenodd" d="M8.871E-06 841L595.32 841L595.32 841L595.32 -0.9199829L595.32 -0.9199829L8.871E-06 -0.9199829z" /></clipPath><clipPath id="83"><path id="" clip-rule="evenodd" d="M8.871E-06 841L595.32 841L595.32 841L595.32 -0.9199829L595.32 -0.9199829L8.871E-06 -0.9199829z" /></clipPath><clipPath id="84"><path id="" clip-rule="evenodd" d="M8.871E-06 841L595.32 841L595.32 841L595.32 -0.9199829L595.32 -0.9199829L8.871E-06 -0.9199829z" /></clipPath><clipPath id="85"><path id="" clip-rule="evenodd" d="M8.871E-06 841L595.32 841L595.32 841L595.32 -0.9199829L595.32 -0.9199829L8.871E-06 -0.9199829z" /></clipPath><clipPath id="86"><path id="" clip-rule="evenodd" d="M8.871E-06 841L595.32 841L595.32 841L595.32 -0.9199829L595.32 -0.9199829L8.871E-06 -0.9199829z" /></clipPath><clipPath id="87"><path id="" clip-rule="evenodd" d="M8.871E-06 841L595.32 841L595.32 841L595.32 -0.9199829L595.32 -0.9199829L8.871E-06 -0.9199829z" /></clipPath><clipPath id="88"><path id="" clip-rule="evenodd" d="M8.871E-06 841L595.32 841L595.32 841L595.32 -0.9199829L595.32 -0.9199829L8.871E-06 -0.9199829z" /></clipPath><clipPath id="89"><path id="" clip-rule="evenodd" d="M8.871E-06 841L595.32 841L595.32 841L595.32 -0.9199829L595.32 -0.9199829L8.871E-06 -0.9199829z" /></clipPath><clipPath id="90"><path id="" clip-rule="evenodd" d="M8.871E-06 841L595.32 841L595.32 841L595.32 -0.9199829L595.32 -0.9199829L8.871E-06 -0.9199829z" /></clipPath><clipPath id="91"><path id="" clip-rule="evenodd" d="M8.871E-06 841L595.32 841L595.32 841L595.32 -0.9199829L595.32 -0.9199829L8.871E-06 -0.9199829z" /></clipPath><clipPath id="92"><path id="" clip-rule="evenodd" d="M8.871E-06 841L595.32 841L595.32 841L595.32 -0.9199829L595.32 -0.9199829L8.871E-06 -0.9199829z" /></clipPath><clipPath id="93"><path id="" clip-rule="evenodd" d="M8.871E-06 841L595.32 841L595.32 841L595.32 -0.9199829L595.32 -0.9199829L8.871E-06 -0.9199829z" /></clipPath><clipPath id="94"><path id="" clip-rule="evenodd" d="M8.871E-06 841L595.32 841L595.32 841L595.32 -0.9199829L595.32 -0.9199829L8.871E-06 -0.9199829z" /></clipPath><clipPath id="95"><path id="" clip-rule="evenodd" d="M8.871E-06 841L595.32 841L595.32 841L595.32 -0.9199829L595.32 -0.9199829L8.871E-06 -0.9199829z" /></clipPath><clipPath id="96"><path id="" clip-rule="evenodd" d="M8.871E-06 841L595.32 841L595.32 841L595.32 -0.9199829L595.32 -0.9199829L8.871E-06 -0.9199829z" /></clipPath><clipPath id="97"><path id="" clip-rule="evenodd" d="M8.871E-06 841L595.32 841L595.32 841L595.32 -0.9199829L595.32 -0.9199829L8.871E-06 -0.9199829z" /></clipPath><clipPath id="98"><path id="" clip-rule="evenodd" d="M8.871E-06 841L595.32 841L595.32 841L595.32 -0.9199829L595.32 -0.9199829L8.871E-06 -0.9199829z" /></clipPath><clipPath id="99"><path id="" clip-rule="evenodd" d="M8.871E-06 841L595.32 841L595.32 841L595.32 -0.9199829L595.32 -0.9199829L8.871E-06 -0.9199829z" /></clipPath><clipPath id="100"><path id="" clip-rule="evenodd" d="M8.871E-06 841L595.32 841L595.32 841L595.32 -0.9199829L595.32 -0.9199829L8.871E-06 -0.9199829z" /></clipPath><clipPath id="101"><path id="" clip-rule="evenodd" d="M8.871E-06 841L595.32 841L595.32 841L595.32 -0.9199829L595.32 -0.9199829L8.871E-06 -0.9199829z" /></clipPath><clipPath id="102"><path id="" clip-rule="evenodd" d="M8.871E-06 841L595.32 841L595.32 841L595.32 -0.9199829L595.32 -0.9199829L8.871E-06 -0.9199829z" /></clipPath><clipPath id="103"><path id="" clip-rule="evenodd" d="M8.871E-06 841L595.32 841L595.32 841L595.32 -0.9199829L595.32 -0.9199829L8.871E-06 -0.9199829z" /></clipPath><clipPath id="104"><path id="" clip-rule="evenodd" d="M8.871E-06 841L595.32 841L595.32 841L595.32 -0.9199829L595.32 -0.9199829L8.871E-06 -0.9199829z" /></clipPath><clipPath id="105"><path id="" clip-rule="evenodd" d="M8.871E-06 841L595.32 841L595.32 841L595.32 -0.9199829L595.32 -0.9199829L8.871E-06 -0.9199829z" /></clipPath><clipPath id="106"><path id="" clip-rule="evenodd" d="M8.871E-06 841L595.32 841L595.32 841L595.32 -0.9199829L595.32 -0.9199829L8.871E-06 -0.9199829z" /></clipPath><clipPath id="107"><path id="" clip-rule="evenodd" d="M8.871E-06 841L595.32 841L595.32 841L595.32 -0.9199829L595.32 -0.9199829L8.871E-06 -0.9199829z" /></clipPath><clipPath id="108"><path id="" clip-rule="evenodd" d="M8.871E-06 841L595.32 841L595.32 841L595.32 -0.9199829L595.32 -0.9199829L8.871E-06 -0.9199829z" /></clipPath><clipPath id="109"><path id="" clip-rule="evenodd" d="M8.871E-06 841L595.32 841L595.32 841L595.32 -0.9199829L595.32 -0.9199829L8.871E-06 -0.9199829z" /></clipPath><clipPath id="110"><path id="" clip-rule="evenodd" d="M8.871E-06 841L595.32 841L595.32 841L595.32 -0.9199829L595.32 -0.9199829L8.871E-06 -0.9199829z" /></clipPath><clipPath id="111"><path id="" clip-rule="evenodd" d="M8.871E-06 841L595.32 841L595.32 841L595.32 -0.9199829L595.32 -0.9199829L8.871E-06 -0.9199829z" /></clipPath><clipPath id="112"><path id="" clip-rule="evenodd" d="M8.871E-06 841L595.32 841L595.32 841L595.32 -0.9199829L595.32 -0.9199829L8.871E-06 -0.9199829z" /></clipPath><clipPath id="113"><path id="" clip-rule="evenodd" d="M8.871E-06 841L595.32 841L595.32 841L595.32 -0.9199829L595.32 -0.9199829L8.871E-06 -0.9199829z" /></clipPath><clipPath id="114"><path id="" clip-rule="evenodd" d="M8.871E-06 841L595.32 841L595.32 841L595.32 -0.9199829L595.32 -0.9199829L8.871E-06 -0.9199829z" /></clipPath><clipPath id="115"><path id="" clip-rule="evenodd" d="M8.871E-06 841L595.32 841L595.32 841L595.32 -0.9199829L595.32 -0.9199829L8.871E-06 -0.9199829z" /></clipPath><clipPath id="116"><path id="" clip-rule="evenodd" d="M8.871E-06 841L595.32 841L595.32 841L595.32 -0.9199829L595.32 -0.9199829L8.871E-06 -0.9199829z" /></clipPath><clipPath id="117"><path id="" clip-rule="evenodd" d="M8.871E-06 841L595.32 841L595.32 841L595.32 -0.9199829L595.32 -0.9199829L8.871E-06 -0.9199829z" /></clipPath><clipPath id="118"><path id="" clip-rule="evenodd" d="M8.871E-06 841L595.32 841L595.32 841L595.32 -0.9199829L595.32 -0.9199829L8.871E-06 -0.9199829z" /></clipPath><clipPath id="119"><path id="" clip-rule="evenodd" d="M8.871E-06 841L595.32 841L595.32 841L595.32 -0.9199829L595.32 -0.9199829L8.871E-06 -0.9199829z" /></clipPath><clipPath id="120"><path id="" clip-rule="evenodd" d="M8.871E-06 841L595.32 841L595.32 841L595.32 -0.9199829L595.32 -0.9199829L8.871E-06 -0.9199829z" /></clipPath><clipPath id="121"><path id="" clip-rule="evenodd" d="M8.871E-06 841L595.32 841L595.32 841L595.32 -0.9199829L595.32 -0.9199829L8.871E-06 -0.9199829z" /></clipPath><clipPath id="122"><path id="" clip-rule="evenodd" d="M8.871E-06 841L595.32 841L595.32 841L595.32 -0.9199829L595.32 -0.9199829L8.871E-06 -0.9199829z" /></clipPath><clipPath id="123"><path id="" clip-rule="evenodd" d="M8.871E-06 841L595.32 841L595.32 841L595.32 -0.9199829L595.32 -0.9199829L8.871E-06 -0.9199829z" /></clipPath><clipPath id="124"><path id="" clip-rule="evenodd" d="M8.871E-06 841L595.32 841L595.32 841L595.32 -0.9199829L595.32 -0.9199829L8.871E-06 -0.9199829z" /></clipPath><clipPath id="125"><path id="" clip-rule="evenodd" d="M8.871E-06 841L595.32 841L595.32 841L595.32 -0.9199829L595.32 -0.9199829L8.871E-06 -0.9199829z" /></clipPath><clipPath id="126"><path id="" clip-rule="evenodd" d="M8.871E-06 841L595.32 841L595.32 841L595.32 -0.9199829L595.32 -0.9199829L8.871E-06 -0.9199829z" /></clipPath><clipPath id="127"><path id="" clip-rule="evenodd" d="M8.871E-06 841L595.32 841L595.32 841L595.32 -0.9199829L595.32 -0.9199829L8.871E-06 -0.9199829z" /></clipPath><clipPath id="128"><path id="" clip-rule="evenodd" d="M8.871E-06 841L595.32 841L595.32 841L595.32 -0.9199829L595.32 -0.9199829L8.871E-06 -0.9199829z" /></clipPath><clipPath id="129"><path id="" clip-rule="evenodd" d="M8.871E-06 841L595.32 841L595.32 841L595.32 -0.9199829L595.32 -0.9199829L8.871E-06 -0.9199829z" /></clipPath><clipPath id="130"><path id="" clip-rule="evenodd" d="M8.871E-06 841L595.32 841L595.32 841L595.32 -0.9199829L595.32 -0.9199829L8.871E-06 -0.9199829z" /></clipPath><clipPath id="131"><path id="" clip-rule="evenodd" d="M8.871E-06 841L595.32 841L595.32 841L595.32 -0.9199829L595.32 -0.9199829L8.871E-06 -0.9199829z" /></clipPath><clipPath id="132"><path id="" clip-rule="evenodd" d="M8.871E-06 841L595.32 841L595.32 841L595.32 -0.9199829L595.32 -0.9199829L8.871E-06 -0.9199829z" /></clipPath><clipPath id="133"><path id="" clip-rule="evenodd" d="M8.871E-06 841L595.32 841L595.32 841L595.32 -0.9199829L595.32 -0.9199829L8.871E-06 -0.9199829z" /></clipPath><clipPath id="134"><path id="" clip-rule="evenodd" d="M8.871E-06 841L595.32 841L595.32 841L595.32 -0.9199829L595.32 -0.9199829L8.871E-06 -0.9199829z" /></clipPath><clipPath id="135"><path id="" clip-rule="evenodd" d="M8.871E-06 841L595.32 841L595.32 841L595.32 -0.9199829L595.32 -0.9199829L8.871E-06 -0.9199829z" /></clipPath><clipPath id="136"><path id="" clip-rule="evenodd" d="M8.871E-06 841L595.32 841L595.32 841L595.32 -0.9199829L595.32 -0.9199829L8.871E-06 -0.9199829z" /></clipPath><clipPath id="137"><path id="" clip-rule="evenodd" d="M8.871E-06 841L595.32 841L595.32 841L595.32 -0.9199829L595.32 -0.9199829L8.871E-06 -0.9199829z" /></clipPath><clipPath id="138"><path id="" clip-rule="evenodd" d="M8.871E-06 841L595.32 841L595.32 841L595.32 -0.9199829L595.32 -0.9199829L8.871E-06 -0.9199829z" /></clipPath><clipPath id="139"><path id="" clip-rule="evenodd" d="M8.871E-06 841L595.32 841L595.32 841L595.32 -0.9199829L595.32 -0.9199829L8.871E-06 -0.9199829z" /></clipPath><clipPath id="140"><path id="" clip-rule="evenodd" d="M8.871E-06 841L595.32 841L595.32 841L595.32 -0.9199829L595.32 -0.9199829L8.871E-06 -0.9199829z" /></clipPath><clipPath id="141"><path id="" clip-rule="evenodd" d="M8.871E-06 841L595.32 841L595.32 841L595.32 -0.9199829L595.32 -0.9199829L8.871E-06 -0.9199829z" /></clipPath><clipPath id="142"><path id="" clip-rule="evenodd" d="M8.871E-06 841L595.32 841L595.32 841L595.32 -0.9199829L595.32 -0.9199829L8.871E-06 -0.9199829z" /></clipPath><clipPath id="143"><path id="" clip-rule="evenodd" d="M8.871E-06 841L595.32 841L595.32 841L595.32 -0.9199829L595.32 -0.9199829L8.871E-06 -0.9199829z" /></clipPath><clipPath id="144"><path id="" clip-rule="evenodd" d="M8.871E-06 841L595.32 841L595.32 841L595.32 -0.9199829L595.32 -0.9199829L8.871E-06 -0.9199829z" /></clipPath><clipPath id="145"><path id="" clip-rule="evenodd" d="M8.871E-06 841L595.32 841L595.32 841L595.32 -0.9199829L595.32 -0.9199829L8.871E-06 -0.9199829z" /></clipPath><clipPath id="146"><path id="" clip-rule="evenodd" d="M8.871E-06 841L595.32 841L595.32 841L595.32 -0.9199829L595.32 -0.9199829L8.871E-06 -0.9199829z" /></clipPath><clipPath id="147"><path id="" clip-rule="evenodd" d="M8.871E-06 841L595.32 841L595.32 841L595.32 -0.9199829L595.32 -0.9199829L8.871E-06 -0.9199829z" /></clipPath><clipPath id="148"><path id="" clip-rule="evenodd" d="M8.871E-06 841L595.32 841L595.32 841L595.32 -0.9199829L595.32 -0.9199829L8.871E-06 -0.9199829z" /></clipPath><clipPath id="149"><path id="" clip-rule="evenodd" d="M8.871E-06 841L595.32 841L595.32 841L595.32 -0.9199829L595.32 -0.9199829L8.871E-06 -0.9199829z" /></clipPath><clipPath id="150"><path id="" clip-rule="evenodd" d="M8.871E-06 841L595.32 841L595.32 841L595.32 -0.9199829L595.32 -0.9199829L8.871E-06 -0.9199829z" /></clipPath><clipPath id="151"><path id="" clip-rule="evenodd" d="M8.871E-06 841L595.32 841L595.32 841L595.32 -0.9199829L595.32 -0.9199829L8.871E-06 -0.9199829z" /></clipPath><clipPath id="152"><path id="" clip-rule="evenodd" d="M8.871E-06 841L595.32 841L595.32 841L595.32 -0.9199829L595.32 -0.9199829L8.871E-06 -0.9199829z" /></clipPath><clipPath id="153"><path id="" clip-rule="evenodd" d="M8.871E-06 841L595.32 841L595.32 841L595.32 -0.9199829L595.32 -0.9199829L8.871E-06 -0.9199829z" /></clipPath><clipPath id="154"><path id="" clip-rule="evenodd" d="M8.871E-06 841L595.32 841L595.32 841L595.32 -0.9199829L595.32 -0.9199829L8.871E-06 -0.9199829z" /></clipPath><clipPath id="155"><path id="" clip-rule="evenodd" d="M8.871E-06 841L595.32 841L595.32 841L595.32 -0.9199829L595.32 -0.9199829L8.871E-06 -0.9199829z" /></clipPath><clipPath id="156"><path id="" clip-rule="evenodd" d="M8.871E-06 841L595.32 841L595.32 841L595.32 -0.9199829L595.32 -0.9199829L8.871E-06 -0.9199829z" /></clipPath><clipPath id="157"><path id="" clip-rule="evenodd" d="M8.871E-06 841L595.32 841L595.32 841L595.32 -0.9199829L595.32 -0.9199829L8.871E-06 -0.9199829z" /></clipPath><clipPath id="158"><path id="" clip-rule="evenodd" d="M8.871E-06 841L595.32 841L595.32 841L595.32 -0.9199829L595.32 -0.9199829L8.871E-06 -0.9199829z" /></clipPath><clipPath id="159"><path id="" clip-rule="evenodd" d="M8.871E-06 841L595.32 841L595.32 841L595.32 -0.9199829L595.32 -0.9199829L8.871E-06 -0.9199829z" /></clipPath><clipPath id="160"><path id="" clip-rule="evenodd" d="M8.871E-06 841L595.32 841L595.32 841L595.32 -0.9199829L595.32 -0.9199829L8.871E-06 -0.9199829z" /></clipPath><clipPath id="161"><path id="" clip-rule="evenodd" d="M8.871E-06 841L595.32 841L595.32 841L595.32 -0.9199829L595.32 -0.9199829L8.871E-06 -0.9199829z" /></clipPath><clipPath id="162"><path id="" clip-rule="evenodd" d="M8.871E-06 841L595.32 841L595.32 841L595.32 -0.9199829L595.32 -0.9199829L8.871E-06 -0.9199829z" /></clipPath><clipPath id="163"><path id="" clip-rule="evenodd" d="M8.871E-06 841L595.32 841L595.32 841L595.32 -0.9199829L595.32 -0.9199829L8.871E-06 -0.9199829z" /></clipPath><clipPath id="164"><path id="" clip-rule="evenodd" d="M8.871E-06 841L595.32 841L595.32 841L595.32 -0.9199829L595.32 -0.9199829L8.871E-06 -0.9199829z" /></clipPath><clipPath id="165"><path id="" clip-rule="evenodd" d="M8.871E-06 841L595.32 841L595.32 841L595.32 -0.9199829L595.32 -0.9199829L8.871E-06 -0.9199829z" /></clipPath><clipPath id="166"><path id="" clip-rule="evenodd" d="M8.871E-06 841L595.32 841L595.32 841L595.32 -0.9199829L595.32 -0.9199829L8.871E-06 -0.9199829z" /></clipPath><clipPath id="167"><path id="" clip-rule="evenodd" d="M8.871E-06 841L595.32 841L595.32 841L595.32 -0.9199829L595.32 -0.9199829L8.871E-06 -0.9199829z" /></clipPath><clipPath id="168"><path id="" clip-rule="evenodd" d="M8.871E-06 841L595.32 841L595.32 841L595.32 -0.9199829L595.32 -0.9199829L8.871E-06 -0.9199829z" /></clipPath><clipPath id="169"><path id="" clip-rule="evenodd" d="M8.871E-06 841L595.32 841L595.32 841L595.32 -0.9199829L595.32 -0.9199829L8.871E-06 -0.9199829z" /></clipPath><clipPath id="170"><path id="" clip-rule="evenodd" d="M8.871E-06 841L595.32 841L595.32 841L595.32 -0.9199829L595.32 -0.9199829L8.871E-06 -0.9199829z" /></clipPath><clipPath id="171"><path id="" clip-rule="evenodd" d="M8.871E-06 841L595.32 841L595.32 841L595.32 -0.9199829L595.32 -0.9199829L8.871E-06 -0.9199829z" /></clipPath><clipPath id="172"><path id="" clip-rule="evenodd" d="M8.871E-06 841L595.32 841L595.32 841L595.32 -0.9199829L595.32 -0.9199829L8.871E-06 -0.9199829z" /></clipPath><clipPath id="173"><path id="" clip-rule="evenodd" d="M8.871E-06 841L595.32 841L595.32 841L595.32 -0.9199829L595.32 -0.9199829L8.871E-06 -0.9199829z" /></clipPath><clipPath id="174"><path id="" clip-rule="evenodd" d="M8.871E-06 841L595.32 841L595.32 841L595.32 -0.9199829L595.32 -0.9199829L8.871E-06 -0.9199829z" /></clipPath><clipPath id="175"><path id="" clip-rule="evenodd" d="M8.871E-06 841L595.32 841L595.32 841L595.32 -0.9199829L595.32 -0.9199829L8.871E-06 -0.9199829z" /></clipPath><clipPath id="176"><path id="" clip-rule="evenodd" d="M8.871E-06 841L595.32 841L595.32 841L595.32 -0.9199829L595.32 -0.9199829L8.871E-06 -0.9199829z" /></clipPath><clipPath id="177"><path id="" clip-rule="evenodd" d="M8.871E-06 841L595.32 841L595.32 841L595.32 -0.9199829L595.32 -0.9199829L8.871E-06 -0.9199829z" /></clipPath><clipPath id="178"><path id="" clip-rule="evenodd" d="M8.871E-06 841L595.32 841L595.32 841L595.32 -0.9199829L595.32 -0.9199829L8.871E-06 -0.9199829z" /></clipPath><clipPath id="179"><path id="" clip-rule="evenodd" d="M8.871E-06 841L595.32 841L595.32 841L595.32 -0.9199829L595.32 -0.9199829L8.871E-06 -0.9199829z" /></clipPath></defs><g transform="matrix(1.333333 0 0 1.333333 0 0)"><g clip-path="url(#1)"><g clip-path="url(#2)"><path id="1" transform="matrix(1 0 0 -1 0 841)" d="M0 -0.13L595.45 -0.13L595.45 -0.13L595.45 841.92L595.45 841.92L0 841.92z" stroke="none" fill="#F5F1DE" fill-rule="evenodd" /></g><g clip-path="url(#3)"></g><g clip-path="url(#4)"></g><path id="23" transform="matrix(1 0 0 -1 0 841)" d="M90 777.72L505.3 777.72L505.3 777.72L505.3 779.27L505.3 779.27L90 779.27z" stroke="none" fill="#808080" fill-rule="evenodd" /><path id="24" transform="matrix(1 0 0 -1 0 841)" d="M90.024 779.04L90.264 779.04L90.264 779.04L90.264 779.28L90.264 779.28L90.024 779.28z" stroke="none" fill="#808080" fill-rule="evenodd" /><path id="25" transform="matrix(1 0 0 -1 0 841)" d="M90.024 779.04L90.264 779.04L90.264 779.04L90.264 779.28L90.264 779.28L90.024 779.28z" stroke="none" fill="#808080" fill-rule="evenodd" /><path id="26" transform="matrix(1 0 0 -1 0 841)" d="M90.264 779.04L505.204 779.04L505.204 779.04L505.204 779.28L505.204 779.28L90.264 779.28z" stroke="none" fill="#808080" fill-rule="evenodd" /><path id="27" transform="matrix(1 0 0 -1 0 841)" d="M505.2 779.04L505.44 779.04L505.44 779.04L505.44 779.28L505.44 779.28L505.2 779.28z" stroke="none" fill="#D4D0C8" fill-rule="evenodd" /><path id="28" transform="matrix(1 0 0 -1 0 841)" d="M505.2 779.04L505.44 779.04L505.44 779.04L505.44 779.28L505.44 779.28L505.2 779.28z" stroke="none" fill="#808080" fill-rule="evenodd" /><path id="29" transform="matrix(1 0 0 -1 0 841)" d="M90.024 777.96L90.264 777.96L90.264 777.96L90.264 779.04L90.264 779.04L90.024 779.04z" stroke="none" fill="#808080" fill-rule="evenodd" /><path id="30" transform="matrix(1 0 0 -1 0 841)" d="M505.2 777.96L505.44 777.96L505.44 777.96L505.44 779.04L505.44 779.04L505.2 779.04z" stroke="none" fill="#D4D0C8" fill-rule="evenodd" /><path id="31" transform="matrix(1 0 0 -1 0 841)" d="M90.024 777.72L90.264 777.72L90.264 777.72L90.264 777.96L90.264 777.96L90.024 777.96z" stroke="none" fill="#808080" fill-rule="evenodd" /><path id="32" transform="matrix(1 0 0 -1 0 841)" d="M90.024 777.72L90.264 777.72L90.264 777.72L90.264 777.96L90.264 777.96L90.024 777.96z" stroke="none" fill="#D4D0C8" fill-rule="evenodd" /><path id="33" transform="matrix(1 0 0 -1 0 841)" d="M90.264 777.72L505.204 777.72L505.204 777.72L505.204 777.96L505.204 777.96L90.264 777.96z" stroke="none" fill="#D4D0C8" fill-rule="evenodd" /><path id="34" transform="matrix(1 0 0 -1 0 841)" d="M505.2 777.72L505.44 777.72L505.44 777.72L505.44 777.96L505.44 777.96L505.2 777.96z" stroke="none" fill="#D4D0C8" fill-rule="evenodd" /><path id="35" transform="matrix(1 0 0 -1 0 841)" d="M505.2 777.72L505.44 777.72L505.44 777.72L505.44 777.96L505.44 777.96L505.2 777.96z" stroke="none" fill="#D4D0C8" fill-rule="evenodd" /><g clip-path="url(#5)"></g><g clip-path="url(#6)"></g><g clip-path="url(#7)"></g><g clip-path="url(#8)"></g><g clip-path="url(#9)"></g><g clip-path="url(#10)"></g><g clip-path="url(#11)"></g><g clip-path="url(#12)"></g><g clip-path="url(#13)"></g><g clip-path="url(#14)"></g><g clip-path="url(#15)"></g><g clip-path="url(#16)"></g><g clip-path="url(#17)"></g><g clip-path="url(#18)"></g><g clip-path="url(#19)"></g><g clip-path="url(#20)"></g><g clip-path="url(#21)"></g><g clip-path="url(#22)"></g><g clip-path="url(#23)"></g><g clip-path="url(#24)"></g><g clip-path="url(#25)"></g><g clip-path="url(#26)"></g><g clip-path="url(#27)"></g><g clip-path="url(#28)"></g><g clip-path="url(#29)"></g><g clip-path="url(#30)"></g><g clip-path="url(#31)"></g><g clip-path="url(#32)"></g><g clip-path="url(#33)"></g><g clip-path="url(#34)"></g><g clip-path="url(#35)"></g><g clip-path="url(#36)"></g><g clip-path="url(#37)"></g><g clip-path="url(#38)"></g><g clip-path="url(#39)"></g><g clip-path="url(#40)"></g><g clip-path="url(#41)"></g><g clip-path="url(#42)"></g><g clip-path="url(#43)"></g><g clip-path="url(#44)"></g><g clip-path="url(#45)"></g><g clip-path="url(#46)"></g><g clip-path="url(#47)"></g><g clip-path="url(#48)"></g><g clip-path="url(#49)"></g><g clip-path="url(#50)"></g><g clip-path="url(#51)"></g><g clip-path="url(#52)"></g><g clip-path="url(#53)"></g><g clip-path="url(#54)"></g><g clip-path="url(#55)"></g><g clip-path="url(#56)"></g><g clip-path="url(#57)"></g><g clip-path="url(#58)"></g><g clip-path="url(#59)"></g><g clip-path="url(#60)"></g><g clip-path="url(#61)"></g><g clip-path="url(#62)"></g><g clip-path="url(#63)"></g><g clip-path="url(#64)"></g><g clip-path="url(#65)"></g><g clip-path="url(#66)"></g><g clip-path="url(#67)"></g><g clip-path="url(#68)"></g><g clip-path="url(#69)"></g><g clip-path="url(#70)"></g><g clip-path="url(#71)"></g><g clip-path="url(#72)"></g><g clip-path="url(#73)"></g><g clip-path="url(#74)"></g><g clip-path="url(#75)"></g><g clip-path="url(#76)"></g><g clip-path="url(#77)"></g><g clip-path="url(#78)"><g clip-path="url(#79)"><g clip-path="url(#80)"><g clip-path="url(#81)"><path id="544" transform="matrix(1 0 0 -1 0 841)" d="M179.6232 348.3043L193.1944 348.3043L193.1944 348.3043L193.1944 360.3984L193.1944 360.3984L179.6232 360.3984z" stroke="#FF0000" stroke-width="0.4924071" fill="#FF0000" fill-rule="evenodd" /><path id="545" transform="matrix(1 0 0 -1 0 841)" d="M179.6232 360.3984L193.1944 360.3984" stroke="#000000" stroke-width="0.4924071" fill="none" /><path id="546" transform="matrix(1 0 0 -1 0 841)" d="M193.1944 360.3984L193.1944 348.3043" stroke="#000000" stroke-width="0.4924071" fill="none" /><path id="547" transform="matrix(1 0 0 -1 0 841)" d="M179.6232 348.3043L179.6232 360.3984" stroke="#000000" stroke-width="0.4924071" fill="none" /><path id="548" transform="matrix(1 0 0 -1 0 841)" d="M196.5884 348.3043L210.2117 348.3043L210.2117 348.3043L210.2117 388.36L210.2117 388.36L196.5884 388.36z" stroke="#FF0000" stroke-width="0.4924071" fill="#FF0000" fill-rule="evenodd" /><path id="549" transform="matrix(1 0 0 -1 0 841)" d="M196.5884 388.3609L210.2117 388.3609" stroke="#000000" stroke-width="0.4924071" fill="none" /><path id="550" transform="matrix(1 0 0 -1 0 841)" d="M210.2117 388.3609L210.2117 348.3043" stroke="#000000" stroke-width="0.4924071" fill="none" /><path id="551" transform="matrix(1 0 0 -1 0 841)" d="M196.5884 348.3043L196.5884 388.3609" stroke="#000000" stroke-width="0.4924071" fill="none" /><path id="552" transform="matrix(1 0 0 -1 0 841)" d="M213.6065 348.3043L227.1751 348.3043L227.1751 348.3043L227.1751 487.7411L227.1751 487.7411L213.6065 487.7411z" stroke="#FF0000" stroke-width="0.4924071" fill="#FF0000" fill-rule="evenodd" /><path id="553" transform="matrix(1 0 0 -1 0 841)" d="M213.6065 487.7411L227.1751 487.7411" stroke="#000000" stroke-width="0.4924071" fill="none" /><path id="554" transform="matrix(1 0 0 -1 0 841)" d="M227.1751 487.7411L227.1751 348.3043" stroke="#000000" stroke-width="0.4924071" fill="none" /><path id="555" transform="matrix(1 0 0 -1 0 841)" d="M213.6065 348.3043L213.6065 487.7411" stroke="#000000" stroke-width="0.4924071" fill="none" /><path id="556" transform="matrix(1 0 0 -1 0 841)" d="M230.569 348.3043L244.1951 348.3043L244.1951 348.3043L244.1951 474.881L244.1951 474.881L230.569 474.881z" stroke="#FF0000" stroke-width="0.4924071" fill="#FF0000" fill-rule="evenodd" /><path id="557" transform="matrix(1 0 0 -1 0 841)" d="M230.569 474.881L244.1951 474.881" stroke="#000000" stroke-width="0.4924071" fill="none" /><path id="558" transform="matrix(1 0 0 -1 0 841)" d="M244.1951 474.881L244.1951 348.3043" stroke="#000000" stroke-width="0.4924071" fill="none" /><path id="559" transform="matrix(1 0 0 -1 0 841)" d="M230.569 348.3043L230.569 474.881" stroke="#000000" stroke-width="0.4924071" fill="none" /><path id="560" transform="matrix(1 0 0 -1 0 841)" d="M247.5863 348.3043L261.1575 348.3043L261.1575 348.3043L261.1575 454.6876L261.1575 454.6876L247.5863 454.6876z" stroke="#FF0000" stroke-width="0.4924071" fill="#FF0000" fill-rule="evenodd" /><path id="561" transform="matrix(1 0 0 -1 0 841)" d="M247.5863 454.6876L261.1576 454.6876" stroke="#000000" stroke-width="0.4924071" fill="none" /><path id="562" transform="matrix(1 0 0 -1 0 841)" d="M261.1576 454.6876L261.1576 348.3043" stroke="#000000" stroke-width="0.4924071" fill="none" /><path id="563" transform="matrix(1 0 0 -1 0 841)" d="M247.5863 348.3043L247.5863 454.6876" stroke="#000000" stroke-width="0.4924071" fill="none" /><path id="564" transform="matrix(1 0 0 -1 0 841)" d="M264.5497 348.3043L278.121 348.3043L278.121 348.3043L278.121 461.5267L278.121 461.5267L264.5497 461.5267z" stroke="#FF0000" stroke-width="0.4924071" fill="#FF0000" fill-rule="evenodd" /><path id="565" transform="matrix(1 0 0 -1 0 841)" d="M264.5497 461.5267L278.121 461.5267" stroke="#000000" stroke-width="0.4924071" fill="none" /><path id="566" transform="matrix(1 0 0 -1 0 841)" d="M278.121 461.5267L278.121 348.3043" stroke="#000000" stroke-width="0.4924071" fill="none" /><path id="567" transform="matrix(1 0 0 -1 0 841)" d="M264.5497 348.3043L264.5497 461.5267" stroke="#000000" stroke-width="0.4924071" fill="none" /><path id="568" transform="matrix(1 0 0 -1 0 841)" d="M281.5131 348.3043L295.1391 348.3043L295.1391 348.3043L295.1391 512.1464L295.1391 512.1464L281.5131 512.1464z" stroke="#FF0000" stroke-width="0.4924071" fill="#FF0000" fill-rule="evenodd" /><path id="569" transform="matrix(1 0 0 -1 0 841)" d="M281.5131 512.1473L295.1382 512.1473" stroke="#000000" stroke-width="0.4924071" fill="none" /><path id="570" transform="matrix(1 0 0 -1 0 841)" d="M295.1382 512.1473L295.1382 348.3043" stroke="#000000" stroke-width="0.4924071" fill="none" /><path id="571" transform="matrix(1 0 0 -1 0 841)" d="M281.5131 348.3043L281.5131 512.1473" stroke="#000000" stroke-width="0.4924071" fill="none" /><path id="572" transform="matrix(1 0 0 -1 0 841)" d="M298.5303 348.3043L312.1007 348.3043L312.1007 348.3043L312.1007 446.3687L312.1007 446.3687L298.5303 446.3687z" stroke="#FF0000" stroke-width="0.4924071" fill="#FF0000" fill-rule="evenodd" /><path id="573" transform="matrix(1 0 0 -1 0 841)" d="M298.5303 446.3696L312.1007 446.3696" stroke="#000000" stroke-width="0.4924071" fill="none" /><path id="574" transform="matrix(1 0 0 -1 0 841)" d="M312.1007 446.3696L312.1007 348.3043" stroke="#000000" stroke-width="0.4924071" fill="none" /><path id="575" transform="matrix(1 0 0 -1 0 841)" d="M298.5303 348.3043L298.5303 446.3696" stroke="#000000" stroke-width="0.4924071" fill="none" /><path id="576" transform="matrix(1 0 0 -1 0 841)" d="M315.4929 348.3043L329.1188 348.3043L329.1188 348.3043L329.1188 373.6406L329.1188 373.6406L315.4929 373.6406z" stroke="#FF0000" stroke-width="0.4924071" fill="#FF0000" fill-rule="evenodd" /><path id="577" transform="matrix(1 0 0 -1 0 841)" d="M315.4929 373.6406L329.1189 373.6406" stroke="#000000" stroke-width="0.4924071" fill="none" /><path id="578" transform="matrix(1 0 0 -1 0 841)" d="M329.1189 373.6406L329.1189 348.3043" stroke="#000000" stroke-width="0.4924071" fill="none" /><path id="579" transform="matrix(1 0 0 -1 0 841)" d="M315.4929 348.3043L315.4929 373.6406" stroke="#000000" stroke-width="0.4924071" fill="none" /><path id="580" transform="matrix(1 0 0 -1 0 841)" d="M332.511 348.3043L346.0814 348.3043L346.0814 348.3043L346.0814 365.431L346.0814 365.431L332.511 365.431z" stroke="#FF0000" stroke-width="0.4924071" fill="#FF0000" fill-rule="evenodd" /><path id="581" transform="matrix(1 0 0 -1 0 841)" d="M332.511 365.4319L346.0814 365.4319" stroke="#000000" stroke-width="0.4924071" fill="none" /><path id="582" transform="matrix(1 0 0 -1 0 841)" d="M346.0814 365.4319L346.0814 348.3043" stroke="#000000" stroke-width="0.4924071" fill="none" /><path id="583" transform="matrix(1 0 0 -1 0 841)" d="M332.511 348.3043L332.511 365.4319" stroke="#000000" stroke-width="0.4924071" fill="none" /><path id="584" transform="matrix(1 0 0 -1 0 841)" d="M349.4735 348.3043L363.0448 348.3043L363.0448 348.3043L363.0448 359.6862L363.0448 359.6862L349.4735 359.6862z" stroke="#FF0000" stroke-width="0.4924071" fill="#FF0000" fill-rule="evenodd" /><path id="585" transform="matrix(1 0 0 -1 0 841)" d="M349.4735 359.6872L363.0448 359.6872" stroke="#000000" stroke-width="0.4924071" fill="none" /><path id="586" transform="matrix(1 0 0 -1 0 841)" d="M363.0448 359.6872L363.0448 348.3043" stroke="#000000" stroke-width="0.4924071" fill="none" /><path id="587" transform="matrix(1 0 0 -1 0 841)" d="M349.4735 348.3043L349.4735 359.6872" stroke="#000000" stroke-width="0.4924071" fill="none" /><path id="588" transform="matrix(1 0 0 -1 0 841)" d="M366.437 348.3043L380.0629 348.3043L380.0629 348.3043L380.0629 357.4431L380.0629 357.4431L366.437 357.4431z" stroke="#FF0000" stroke-width="0.4924071" fill="#FF0000" fill-rule="evenodd" /><path id="589" transform="matrix(1 0 0 -1 0 841)" d="M366.437 357.444L380.0629 357.444" stroke="#000000" stroke-width="0.4924071" fill="none" /><path id="590" transform="matrix(1 0 0 -1 0 841)" d="M380.0629 357.444L380.0629 348.3043" stroke="#000000" stroke-width="0.4924071" fill="none" /><path id="591" transform="matrix(1 0 0 -1 0 841)" d="M366.437 348.3043L366.437 357.444" stroke="#000000" stroke-width="0.4924071" fill="none" /><path id="592" transform="matrix(1 0 0 -1 0 841)" d="M383.4569 348.3043L397.0254 348.3043L397.0254 348.3043L397.0254 356.5658L397.0254 356.5658L383.4569 356.5658z" stroke="#FF0000" stroke-width="0.4924071" fill="#FF0000" fill-rule="evenodd" /><path id="593" transform="matrix(1 0 0 -1 0 841)" d="M383.4569 356.5658L397.0254 356.5658" stroke="#000000" stroke-width="0.4924071" fill="none" /><path id="594" transform="matrix(1 0 0 -1 0 841)" d="M397.0254 356.5658L397.0254 348.3043" stroke="#000000" stroke-width="0.4924071" fill="none" /><path id="595" transform="matrix(1 0 0 -1 0 841)" d="M383.4569 348.3043L383.4569 356.5658" stroke="#000000" stroke-width="0.4924071" fill="none" /><path id="596" transform="matrix(1 0 0 -1 0 841)" d="M400.4203 348.3043L414.0454 348.3043L414.0454 348.3043L414.0454 356.73L414.0454 356.73L400.4203 356.73z" stroke="#FF0000" stroke-width="0.4924071" fill="#FF0000" fill-rule="evenodd" /><path id="597" transform="matrix(1 0 0 -1 0 841)" d="M400.4203 356.73L414.0454 356.73" stroke="#000000" stroke-width="0.4924071" fill="none" /><path id="598" transform="matrix(1 0 0 -1 0 841)" d="M414.0454 356.73L414.0454 348.3043" stroke="#000000" stroke-width="0.4924071" fill="none" /><path id="599" transform="matrix(1 0 0 -1 0 841)" d="M400.4203 348.3043L400.4203 356.73" stroke="#000000" stroke-width="0.4924071" fill="none" /><path id="600" transform="matrix(1 0 0 -1 0 841)" d="M417.4375 348.3043L431.0079 348.3043L431.0079 348.3043L431.0079 355.2527L431.0079 355.2527L417.4375 355.2527z" stroke="#FF0000" stroke-width="0.4924071" fill="#FF0000" fill-rule="evenodd" /><path id="601" transform="matrix(1 0 0 -1 0 841)" d="M417.4375 355.2527L431.0079 355.2527" stroke="#000000" stroke-width="0.4924071" fill="none" /><path id="602" transform="matrix(1 0 0 -1 0 841)" d="M431.0079 355.2527L431.0079 348.3043" stroke="#000000" stroke-width="0.4924071" fill="none" /><path id="603" transform="matrix(1 0 0 -1 0 841)" d="M417.4375 348.3043L417.4375 355.2527" stroke="#000000" stroke-width="0.4924071" fill="none" /></g><path id="637" transform="matrix(1 0 0 -1 0 841)" d="M177.9271 344.5273L177.9271 348.3043" stroke="#000000" stroke-width="0.7112547" fill="none" /><path id="638" transform="matrix(1 0 0 -1 0 841)" d="M192.9209 346.3875L192.9209 348.3043" stroke="#000000" stroke-width="0.7112547" fill="none" /><path id="639" transform="matrix(1 0 0 -1 0 841)" d="M207.9138 344.5273L207.9138 348.3043" stroke="#000000" stroke-width="0.7112547" fill="none" /><path id="640" transform="matrix(1 0 0 -1 0 841)" d="M222.9076 346.3875L222.9076 348.3043" stroke="#000000" stroke-width="0.7112547" fill="none" /><path id="641" transform="matrix(1 0 0 -1 0 841)" d="M237.9005 344.5273L237.9005 348.3043" stroke="#000000" stroke-width="0.7112547" fill="none" /><path id="642" transform="matrix(1 0 0 -1 0 841)" d="M252.8395 346.3875L252.8395 348.3043" stroke="#000000" stroke-width="0.7112547" fill="none" /><path id="643" transform="matrix(1 0 0 -1 0 841)" d="M267.8324 344.5273L267.8324 348.3043" stroke="#000000" stroke-width="0.7112547" fill="none" /><path id="644" transform="matrix(1 0 0 -1 0 841)" d="M282.8262 346.3875L282.8262 348.3043" stroke="#000000" stroke-width="0.7112547" fill="none" /><path id="645" transform="matrix(1 0 0 -1 0 841)" d="M297.8191 344.5273L297.8191 348.3043" stroke="#000000" stroke-width="0.7112547" fill="none" /><path id="646" transform="matrix(1 0 0 -1 0 841)" d="M312.8129 346.3875L312.8129 348.3043" stroke="#000000" stroke-width="0.7112547" fill="none" /><path id="647" transform="matrix(1 0 0 -1 0 841)" d="M327.8058 344.5273L327.8058 348.3043" stroke="#000000" stroke-width="0.7112547" fill="none" /><path id="648" transform="matrix(1 0 0 -1 0 841)" d="M342.7986 346.3875L342.7986 348.3043" stroke="#000000" stroke-width="0.7112547" fill="none" /><path id="649" transform="matrix(1 0 0 -1 0 841)" d="M357.7924 344.5273L357.7924 348.3043" stroke="#000000" stroke-width="0.7112547" fill="none" /><path id="650" transform="matrix(1 0 0 -1 0 841)" d="M372.7306 346.3875L372.7306 348.3043" stroke="#000000" stroke-width="0.7112547" fill="none" /><path id="651" transform="matrix(1 0 0 -1 0 841)" d="M387.7244 344.5273L387.7244 348.3043" stroke="#000000" stroke-width="0.7112547" fill="none" /><path id="652" transform="matrix(1 0 0 -1 0 841)" d="M402.7173 346.3875L402.7173 348.3043" stroke="#000000" stroke-width="0.7112547" fill="none" /><path id="653" transform="matrix(1 0 0 -1 0 841)" d="M417.7111 344.5273L417.7111 348.3043" stroke="#000000" stroke-width="0.7112547" fill="none" /><path id="654" transform="matrix(1 0 0 -1 0 841)" d="M432.704 346.3875L432.704 348.3043" stroke="#000000" stroke-width="0.7112547" fill="none" /><path id="655" transform="matrix(1 0 0 -1 0 841)" d="M177.9271 348.3043L432.704 348.3043" stroke="#000000" stroke-width="0.7112547" fill="none" /><path id="656" transform="matrix(1 0 0 -1 0 841)" d="M174.152 348.3043L177.9271 348.3043" stroke="#000000" stroke-width="0.7112547" fill="none" /><path id="657" transform="matrix(1 0 0 -1 0 841)" d="M176.0122 361.6021L177.9271 361.6021" stroke="#000000" stroke-width="0.7112547" fill="none" /><path id="658" transform="matrix(1 0 0 -1 0 841)" d="M174.152 374.899L177.9271 374.899" stroke="#000000" stroke-width="0.7112547" fill="none" /><path id="659" transform="matrix(1 0 0 -1 0 841)" d="M176.0122 388.1968L177.9271 388.1968" stroke="#000000" stroke-width="0.7112547" fill="none" /><path id="660" transform="matrix(1 0 0 -1 0 841)" d="M174.152 401.4964L177.9271 401.4964" stroke="#000000" stroke-width="0.7112547" fill="none" /><path id="661" transform="matrix(1 0 0 -1 0 841)" d="M176.0122 414.7933L177.9271 414.7933" stroke="#000000" stroke-width="0.7112547" fill="none" /><path id="662" transform="matrix(1 0 0 -1 0 841)" d="M174.152 428.0911L177.9271 428.0911" stroke="#000000" stroke-width="0.7112547" fill="none" /><path id="663" transform="matrix(1 0 0 -1 0 841)" d="M176.0122 441.388L177.9271 441.388" stroke="#000000" stroke-width="0.7112547" fill="none" /><path id="664" transform="matrix(1 0 0 -1 0 841)" d="M174.152 454.6876L177.9271 454.6876" stroke="#000000" stroke-width="0.7112547" fill="none" /><path id="665" transform="matrix(1 0 0 -1 0 841)" d="M176.0122 467.9854L177.9271 467.9854" stroke="#000000" stroke-width="0.7112547" fill="none" /><path id="666" transform="matrix(1 0 0 -1 0 841)" d="M174.152 481.2823L177.9271 481.2823" stroke="#000000" stroke-width="0.7112547" fill="none" /><path id="667" transform="matrix(1 0 0 -1 0 841)" d="M176.0122 494.5801L177.9271 494.5801" stroke="#000000" stroke-width="0.7112547" fill="none" /><path id="668" transform="matrix(1 0 0 -1 0 841)" d="M174.152 507.8788L177.9271 507.8788" stroke="#000000" stroke-width="0.7112547" fill="none" /><path id="669" transform="matrix(1 0 0 -1 0 841)" d="M176.0122 521.1766L177.9271 521.1766" stroke="#000000" stroke-width="0.7112547" fill="none" /><path id="670" transform="matrix(1 0 0 -1 0 841)" d="M174.152 534.4745L177.9271 534.4745" stroke="#000000" stroke-width="0.7112547" fill="none" /><path id="671" transform="matrix(1 0 0 -1 0 841)" d="M177.9271 348.3043L177.9271 534.4745" stroke="#000000" stroke-width="0.7112547" fill="none" /><path id="672" transform="matrix(1 0 0 -1 0 841)" d="M154.2417 398.9547L154.1694 399.7812C 154.5006 399.8203 154.7723 399.9114 154.9846 400.0544C 155.1968 400.1974 155.3685 400.4194 155.4994 400.7205C 155.6304 401.0216 155.6959 401.3603 155.6959 401.7367C 155.6959 402.0709 155.6462 402.3659 155.5468 402.6218C 155.4475 402.8777 155.3112 403.0682 155.1381 403.1931C 154.965 403.3181 154.7761 403.3806 154.5714 403.3806C 154.1559 403.3806 153.8473 403.1577 153.6365 402.6038C 153.498 402.2485 153.1593 400.6347 152.9004 400.147C 152.5692 399.5147 152.0679 399.2076 151.4597 399.2076C 151.1255 399.2076 150.8132 399.3025 150.5226 399.4921C 150.2321 399.6818 150.0116 399.9588 149.861 400.3231C 149.7105 400.6874 149.6352 401.0923 149.6352 401.538C 149.6352 402.0287 149.7142 402.4615 149.8723 402.8364C 150.0304 403.2112 150.263 403.4995 150.5701 403.7012C 150.8772 403.9029 151.2249 404.0113 151.6133 404.0264L151.6133 404.0264L151.6765 403.1863C 150.8395 403.096 150.4075 402.5917 150.4075 401.5741C 150.4075 400.5143 150.8531 400.0521 151.401 400.0521C 151.6389 400.0521 151.8346 400.1379 151.9881 400.3095C 152.2952 400.6468 152.6414 402.5661 152.8823 403.096C 153.2376 403.8668 153.7885 404.2251 154.4991 404.2251C 154.8513 404.2251 155.1833 404.1242 155.4949 403.9225C 155.8065 403.7208 156.0489 403.431 156.222 403.0531C 156.3951 402.6753 156.4817 402.25 156.4817 401.7773C 156.4817 401.1782 156.3944 400.6761 156.2197 400.2712C 156.0451 399.8662 155.7824 399.5486 155.4317 399.3183C 155.0809 399.0879 154.6842 398.9667 154.2417 398.9547z" stroke="none" fill="#000000" fill-rule="evenodd" /><path id="673" transform="matrix(1 0 0 -1 0 841)" d="M156.3688 408.4613L155.6643 408.4613C 156.2062 408.088 156.4772 407.5807 156.4772 406.9394C 156.4772 406.6563 156.423 406.3922 156.3146 406.1468C 156.2062 405.9014 156.0699 405.7192 155.9059 405.6003C 155.7418 405.4814 155.5408 405.3978 155.303 405.3497C 155.1434 405.3165 154.8905 405.3 154.5443 405.3L154.5443 405.3L151.5726 405.3L151.5726 405.3L151.5726 406.1129L151.5726 406.1129L154.2326 406.1129C 154.6572 406.1129 154.9432 406.1295 155.0907 406.1626C 155.5182 406.265 155.7772 406.6142 155.7772 407.1019C 155.7772 407.3458 155.7147 407.5746 155.5897 407.7884C 155.4648 408.0021 155.2947 408.1534 155.0794 408.2422C 154.8642 408.3311 154.5518 408.3755 154.1423 408.3755L154.1423 408.3755L151.5726 408.3755L151.5726 408.3755L151.5726 409.1884L151.5726 409.1884L156.3688 409.1884z" stroke="none" fill="#000000" fill-rule="evenodd" /><path id="674" transform="matrix(1 0 0 -1 0 841)" d="M156.3688 410.4515L151.5726 410.4515L151.5726 410.4515L151.5726 411.1831L151.5726 411.1831L152.2997 411.1831C 151.6193 411.5565 151.4642 411.8425 151.4642 412.2219C 151.4642 412.4958 151.5516 412.7743 151.7262 413.0573L151.7262 413.0573L152.4804 412.7773C 152.363 412.5786 152.3043 412.3799 152.3043 412.1812C 152.3043 411.8259 152.5301 411.5204 152.9094 411.3999C 153.1984 411.3096 153.5146 411.2644 153.8578 411.2644L153.8578 411.2644L156.3688 411.2644z" stroke="none" fill="#000000" fill-rule="evenodd" /><path id="675" transform="matrix(1 0 0 -1 0 841)" d="M156.3688 413.7347L152.2049 413.7347L152.2049 413.7347L152.2049 413.0166L152.2049 413.0166L151.5726 413.0166L151.5726 413.0166L151.5726 413.7347L151.5726 413.7347L151.0623 413.7347C 150.7402 413.7347 150.5008 413.7633 150.3443 413.8205C 149.9227 413.9771 149.6352 414.3519 149.6352 415.0624C 149.6352 415.2913 149.6623 415.5442 149.7165 415.8212L149.7165 415.8212L150.4255 415.6992C 150.3954 415.5306 150.3804 415.371 150.3804 415.2205C 150.3804 414.7267 150.552 414.5431 151.1301 414.5431L151.1301 414.5431L151.5726 414.5431L151.5726 414.5431L151.5726 415.4779L151.5726 415.4779L152.2049 415.4779L152.2049 415.4779L152.2049 414.5431L152.2049 414.5431L156.3688 414.5431z" stroke="none" fill="#000000" fill-rule="evenodd" /><path id="676" transform="matrix(1 0 0 -1 0 841)" d="M155.7772 419.2415C 156.289 418.6393 156.4772 418.1139 156.4772 417.4756C 156.4772 416.4219 155.9051 415.8363 155.1042 415.8363C 154.8694 415.8363 154.6549 415.8897 154.4607 415.9966C 154.2665 416.1035 154.1107 416.2435 153.9933 416.4166C 153.8759 416.5897 153.787 416.7847 153.7268 417.0014C 153.6847 417.161 153.644 417.4019 153.6049 417.724C 153.5266 418.3804 153.4333 418.8636 153.3249 419.1737C 153.2135 419.1767 153.1427 419.1782 153.1126 419.1782C 152.7815 419.1782 152.5481 419.1014 152.4126 418.9479C 152.229 418.7402 152.1371 418.4315 152.1371 418.0221C 152.1371 417.2574 152.369 416.9457 153.0494 416.7711L153.0494 416.7711L152.941 415.9763C 152.6008 416.0485 152.3261 416.1674 152.1168 416.333C 151.9076 416.4986 151.7465 416.738 151.6336 417.0511C 151.5207 417.3642 151.4642 417.727 151.4642 418.1395C 151.4642 418.549 151.5124 418.8817 151.6088 419.1376C 151.7051 419.3935 151.8263 419.5817 151.9723 419.7021C 152.1183 419.8225 152.3027 419.9068 152.5255 419.955C 152.664 419.9821 152.9139 419.9957 153.2752 419.9957L153.2752 419.9957L154.3591 419.9957C 155.8705 419.9957 156.0015 420.0483 156.3688 420.2531L156.3688 420.2531L156.3688 419.404C 156.2002 419.3197 156.003 419.2655 155.7772 419.2415zM153.9617 419.1737C 154.0821 418.8787 154.1845 418.4361 154.2688 417.8459C 154.3169 417.5118 154.3711 417.2754 154.4314 417.1369C 154.4916 416.9984 154.5796 416.8915 154.6955 416.8163C 154.8115 416.741 154.9402 416.7034 155.0817 416.7034C 155.5152 416.7034 155.8404 417.0376 155.8404 417.6698C 155.8404 418.2961 155.5483 418.8139 155.0726 419.0427C 154.889 419.1301 154.618 419.1737 154.2597 419.1737z" stroke="none" fill="#000000" fill-rule="evenodd" /><path id="677" transform="matrix(1 0 0 -1 0 841)" d="M154.612 424.3839L154.7159 425.1833C 155.8178 425.0087 156.4772 424.2349 156.4772 423.1872C 156.4772 421.8745 155.5905 421.0059 153.9888 421.0059C 153.4709 421.0059 153.0178 421.0917 152.6294 421.2633C 152.241 421.4349 151.9497 421.6961 151.7555 422.0468C 151.5613 422.3976 151.4642 422.7792 151.4642 423.1917C 151.4642 424.2334 152.0122 424.9199 152.9817 425.1065L152.9817 425.1065L153.1036 424.3162C 152.4593 424.1656 152.1326 423.7652 152.1326 423.2233C 152.1326 422.4044 152.6956 421.8413 153.9662 421.8413C 155.2548 421.8413 155.8088 422.3833 155.8088 423.1781C 155.8088 423.8164 155.4249 424.2695 154.612 424.3839z" stroke="none" fill="#000000" fill-rule="evenodd" /><path id="678" transform="matrix(1 0 0 -1 0 841)" d="M154.8242 429.1805L154.9281 430.0206C 155.9096 429.7556 156.4772 429.0255 156.4772 427.9115C 156.4772 426.5085 155.5709 425.6263 154.0114 425.6263C 152.3976 425.6263 151.4642 426.5416 151.4642 427.8663C 151.4642 429.1489 152.378 430.0477 153.9617 430.0477C 154.0098 430.0477 154.0821 430.0461 154.1785 430.0431L154.1785 430.0431L154.1785 426.4663C 155.2322 426.5266 155.8088 427.1151 155.8088 427.916C 155.8088 428.5121 155.5107 428.9337 154.8242 429.1805zM153.5101 426.5115L153.5101 429.1896C 153.1066 429.1534 152.804 429.0511 152.6023 428.8825C 152.2892 428.6236 152.1326 428.2878 152.1326 427.8754C 152.1326 427.1287 152.6731 426.5657 153.5101 426.5115z" stroke="none" fill="#000000" fill-rule="evenodd" /><path id="679" transform="matrix(1 0 0 -1 0 841)" d="" stroke="none" fill="#000000" fill-rule="evenodd" /><path id="680" transform="matrix(1 0 0 -1 0 841)" d="M155.7772 436.7408C 156.289 436.1386 156.4772 435.6132 156.4772 434.9749C 156.4772 433.9211 155.9051 433.3356 155.1042 433.3356C 154.8694 433.3356 154.6549 433.389 154.4607 433.4959C 154.2665 433.6028 154.1107 433.7428 153.9933 433.9159C 153.8759 434.089 153.787 434.2839 153.7268 434.5007C 153.6847 434.6603 153.644 434.9012 153.6049 435.2233C 153.5266 435.8797 153.4333 436.3629 153.3249 436.673C 153.2135 436.676 153.1427 436.6775 153.1126 436.6775C 152.7815 436.6775 152.5481 436.6008 152.4126 436.4472C 152.229 436.2394 152.1371 435.9308 152.1371 435.5214C 152.1371 434.7567 152.369 434.445 153.0494 434.2704L153.0494 434.2704L152.941 433.4756C 152.6008 433.5478 152.3261 433.6667 152.1168 433.8323C 151.9076 433.9979 151.7465 434.2373 151.6336 434.5504C 151.5207 434.8635 151.4642 435.2263 151.4642 435.6388C 151.4642 436.0483 151.5124 436.381 151.6088 436.6369C 151.7051 436.8928 151.8263 437.081 151.9723 437.2014C 152.1183 437.3218 152.3027 437.4061 152.5255 437.4543C 152.664 437.4814 152.9139 437.4949 153.2752 437.4949L153.2752 437.4949L154.3591 437.4949C 155.8705 437.4949 156.0015 437.5476 156.3688 437.7524L156.3688 437.7524L156.3688 436.9033C 156.2002 436.819 156.003 436.7648 155.7772 436.7408zM153.9617 436.673C 154.0821 436.3779 154.1845 435.9354 154.2688 435.3452C 154.3169 435.011 154.3711 434.7747 154.4314 434.6362C 154.4916 434.4977 154.5796 434.3908 154.6955 434.3156C 154.8115 434.2403 154.9402 434.2027 155.0817 434.2027C 155.5152 434.2027 155.8404 434.5369 155.8404 435.1691C 155.8404 435.7953 155.5483 436.3132 155.0726 436.5421C 154.889 436.6293 154.618 436.673 154.2597 436.673z" stroke="none" fill="#000000" fill-rule="evenodd" /><path id="681" transform="matrix(1 0 0 -1 0 841)" d="M156.3688 438.7445L151.5726 438.7445L151.5726 438.7445L151.5726 439.4761L151.5726 439.4761L152.2997 439.4761C 151.6193 439.8495 151.4642 440.1355 151.4642 440.5148C 151.4642 440.7888 151.5516 441.0673 151.7262 441.3503L151.7262 441.3503L152.4804 441.0703C 152.363 440.8716 152.3043 440.6729 152.3043 440.4742C 152.3043 440.1189 152.5301 439.8134 152.9094 439.6929C 153.1984 439.6026 153.5146 439.5574 153.8578 439.5574L153.8578 439.5574L156.3688 439.5574z" stroke="none" fill="#000000" fill-rule="evenodd" /><path id="682" transform="matrix(1 0 0 -1 0 841)" d="M154.8242 445.1168L154.9281 445.9567C 155.9096 445.6918 156.4772 444.9617 156.4772 443.8477C 156.4772 442.4447 155.5709 441.5625 154.0114 441.5625C 152.3976 441.5625 151.4642 442.4778 151.4642 443.8026C 151.4642 445.0851 152.378 445.9839 153.9617 445.9839C 154.0098 445.9839 154.0821 445.9824 154.1785 445.9793L154.1785 445.9793L154.1785 442.4025C 155.2322 442.4627 155.8088 443.0513 155.8088 443.8522C 155.8088 444.4484 155.5107 444.8699 154.8242 445.1168zM153.5101 442.4477L153.5101 445.1258C 153.1066 445.0897 152.804 444.9873 152.6023 444.8187C 152.2892 444.5598 152.1326 444.2241 152.1326 443.8116C 152.1326 443.0649 152.6731 442.5019 153.5101 442.4477z" stroke="none" fill="#000000" fill-rule="evenodd" /><path id="683" transform="matrix(1 0 0 -1 0 841)" d="M155.7772 450.1057C 156.289 449.5035 156.4772 448.9781 156.4772 448.3399C 156.4772 447.2861 155.9051 446.7005 155.1042 446.7005C 154.8694 446.7005 154.6549 446.7539 154.4607 446.8608C 154.2665 446.9677 154.1107 447.1077 153.9933 447.2808C 153.8759 447.4539 153.787 447.6489 153.7268 447.8657C 153.6847 448.0253 153.644 448.2661 153.6049 448.5883C 153.5266 449.2446 153.4333 449.7278 153.3249 450.038C 153.2135 450.041 153.1427 450.0425 153.1126 450.0425C 152.7815 450.0425 152.5481 449.9657 152.4126 449.8121C 152.229 449.6044 152.1371 449.2958 152.1371 448.8864C 152.1371 448.1216 152.369 447.81 153.0494 447.6354L153.0494 447.6354L152.941 446.8405C 152.6008 446.9128 152.3261 447.0317 152.1168 447.1973C 151.9076 447.3629 151.7465 447.6022 151.6336 447.9153C 151.5207 448.2285 151.4642 448.5913 151.4642 449.0038C 151.4642 449.4132 151.5124 449.7459 151.6088 450.0018C 151.7051 450.2578 151.8263 450.4459 151.9723 450.5663C 152.1183 450.6868 152.3027 450.7711 152.5255 450.8192C 152.664 450.8463 152.9139 450.8599 153.2752 450.8599L153.2752 450.8599L154.3591 450.8599C 155.8705 450.8599 156.0015 450.9126 156.3688 451.1173L156.3688 451.1173L156.3688 450.2683C 156.2002 450.184 156.003 450.1298 155.7772 450.1057zM153.9617 450.038C 154.0821 449.7429 154.1845 449.3003 154.2688 448.7102C 154.3169 448.376 154.3711 448.1396 154.4314 448.0012C 154.4916 447.8627 154.5796 447.7558 154.6955 447.6805C 154.8115 447.6053 154.9402 447.5676 155.0817 447.5676C 155.5152 447.5676 155.8404 447.9018 155.8404 448.5341C 155.8404 449.1603 155.5483 449.6782 155.0726 449.907C 154.889 449.9943 154.618 450.038 154.2597 450.038z" stroke="none" fill="#000000" fill-rule="evenodd" /><path id="684" transform="matrix(1 0 0 -1 0 841)" d="" stroke="none" fill="#000000" fill-rule="evenodd" /><path id="685" transform="matrix(1 0 0 -1 0 841)" d="M158.3152 456.2433C 157.1832 455.3461 155.5965 454.6401 153.9707 454.6401C 153.2542 454.6401 152.5677 454.756 151.9113 454.9878C 151.1496 455.2588 150.3909 455.6773 149.6352 456.2433L149.6352 456.2433L149.6352 456.8259C 150.2614 456.4616 150.7086 456.2207 150.9765 456.1033C 151.392 455.9196 151.8255 455.7751 152.2772 455.6697C 152.8402 455.5403 153.4062 455.4756 153.9752 455.4756C 155.4234 455.4756 156.8701 455.9257 158.3152 456.8259z" stroke="none" fill="#000000" fill-rule="evenodd" /><path id="686" transform="matrix(1 0 0 -1 0 841)" d="M154.2944 461.431L154.2944 459.0322L154.2944 459.0322L155.2722 458.6118C 155.5128 458.5082 155.6925 458.4565 155.8113 458.4565C 156.0002 458.4565 156.1571 458.5768 156.1997 459.1738L156.1997 459.1738L156.3688 459.1738L156.3688 459.1738L156.3688 457.2228L156.3688 457.2228L156.1997 457.2228C 156.154 457.4817 156.0946 457.6492 156.0215 457.7254C 155.8753 457.8807 155.5783 458.0529 155.1305 458.2417L155.1305 458.2417L150.0314 460.4212L150.0314 460.4212L150.0314 460.5811L150.0314 460.5811L155.1854 462.7377C 156.0139 463.085 156.1693 463.2967 156.1997 463.8024L156.1997 463.8024L156.3688 463.8024L156.3688 463.8024L156.3688 461.3578L156.3688 461.3578L156.1997 461.3578C 156.1754 461.8513 156.0215 461.9884 155.8205 461.9884C 155.6864 461.9884 155.4747 461.9275 155.1854 461.8056zM153.9563 461.303L151.4524 460.2521L151.4524 460.2521L153.9563 459.1738zM148.5967 460.4897C 148.5967 460.9771 148.9881 461.367 149.4694 461.367C 149.9568 461.367 150.3467 460.9771 150.3467 460.4897C 150.3467 460.0084 149.9568 459.617 149.4694 459.617C 148.9881 459.617 148.5967 460.0023 148.5967 460.4897zM148.912 460.4897C 148.912 460.179 149.1587 459.9323 149.4694 459.9323C 149.774 459.9323 150.0268 460.179 150.0268 460.4897C 150.0268 460.8004 149.774 461.0471 149.4694 461.0471C 149.1587 461.0471 148.912 460.8004 148.912 460.4897z" stroke="none" fill="#000000" fill-rule="evenodd" /><path id="687" transform="matrix(1 0 0 -1 0 841)" d="M150.8136 466.665L151.2806 466.665L151.2806 466.665L151.2806 464.0494C 151.1636 464.0458 151.0511 464.0647 150.9431 464.106C 150.5869 464.2392 150.271 464.5074 149.8175 465.0616C 149.1121 465.9218 148.7621 466.1602 148.395 466.1602C 148.0099 466.1602 147.7094 465.8579 147.7094 465.4152C 147.7094 464.9473 148.0063 464.6441 148.503 464.6405L148.503 464.6405L148.4517 464.1411C 147.7067 464.2095 147.3072 464.6738 147.3072 465.426C 147.3072 466.1854 147.7832 466.6596 148.4058 466.6596C 148.5642 466.6596 148.7198 466.6272 148.8728 466.5624C 149.0257 466.4977 149.1868 466.3901 149.356 466.2399C 149.5251 466.0896 149.7573 465.8399 150.0524 465.4908C 150.5419 464.9077 150.6372 464.8322 150.8136 464.7242z" stroke="none" fill="#000000" fill-rule="evenodd" /><path id="688" transform="matrix(1 0 0 -1 0 841)" d="M158.3152 468.0885L158.3152 467.5059C 156.8701 468.4061 155.4234 468.8562 153.9752 468.8562C 153.4092 468.8562 152.8477 468.7915 152.2907 468.662C 151.8391 468.5597 151.4055 468.4167 150.9901 468.233C 150.7191 468.1156 150.2675 467.8732 149.6352 467.5059L149.6352 467.5059L149.6352 468.0885C 150.3909 468.6545 151.1496 469.073 151.9113 469.344C 152.5677 469.5758 153.2542 469.6917 153.9707 469.6917C 155.5965 469.6917 157.1832 468.9797 158.3152 468.0885z" stroke="none" fill="#000000" fill-rule="evenodd" /></g></g></g><g clip-path="url(#82)"></g><g clip-path="url(#83)"></g><g clip-path="url(#84)"></g><g clip-path="url(#85)"></g><g clip-path="url(#86)"></g><g clip-path="url(#87)"></g><g clip-path="url(#88)"></g><g clip-path="url(#89)"></g><g clip-path="url(#90)"></g><g clip-path="url(#91)"></g><g clip-path="url(#92)"></g><g clip-path="url(#93)"></g><g clip-path="url(#94)"></g><g clip-path="url(#95)"></g><g clip-path="url(#96)"></g><g clip-path="url(#97)"></g><g clip-path="url(#98)"></g><g clip-path="url(#99)"></g><g clip-path="url(#100)"></g><g clip-path="url(#101)"></g><g clip-path="url(#102)"></g><g clip-path="url(#103)"></g><g clip-path="url(#104)"></g><g clip-path="url(#105)"></g><g clip-path="url(#106)"></g><g clip-path="url(#107)"></g><g clip-path="url(#108)"></g><g clip-path="url(#109)"></g><g clip-path="url(#110)"></g><g clip-path="url(#111)"></g><g clip-path="url(#112)"></g><g clip-path="url(#113)"></g><g clip-path="url(#114)"></g><g clip-path="url(#115)"></g><g clip-path="url(#116)"></g><g clip-path="url(#117)"></g><g clip-path="url(#118)"></g><g clip-path="url(#119)"></g><g clip-path="url(#120)"></g><g clip-path="url(#121)"></g><g clip-path="url(#122)"></g><g clip-path="url(#123)"></g><g clip-path="url(#124)"></g><g clip-path="url(#125)"></g><g clip-path="url(#126)"></g><g clip-path="url(#127)"></g><g clip-path="url(#128)"></g><g clip-path="url(#129)"></g><g clip-path="url(#130)"></g><g clip-path="url(#131)"></g><g clip-path="url(#132)"></g><g clip-path="url(#133)"></g><g clip-path="url(#134)"></g><g clip-path="url(#135)"></g><g clip-path="url(#136)"></g><g clip-path="url(#137)"></g><g clip-path="url(#138)"></g><g clip-path="url(#139)"></g><g clip-path="url(#140)"></g><g clip-path="url(#141)"></g><g clip-path="url(#142)"></g><g clip-path="url(#143)"></g><g clip-path="url(#144)"></g><g clip-path="url(#145)"></g><g clip-path="url(#146)"></g><g clip-path="url(#147)"></g><g clip-path="url(#148)"></g><g clip-path="url(#149)"></g><g clip-path="url(#150)"></g><g clip-path="url(#151)"></g><g clip-path="url(#152)"></g><g clip-path="url(#153)"></g><g clip-path="url(#154)"></g><g clip-path="url(#155)"></g><g clip-path="url(#156)"></g><g clip-path="url(#157)"></g><g clip-path="url(#158)"></g><g clip-path="url(#159)"></g><g clip-path="url(#160)"></g><g clip-path="url(#161)"></g><g clip-path="url(#162)"></g><g clip-path="url(#163)"></g><g clip-path="url(#164)"></g><g clip-path="url(#165)"></g><g clip-path="url(#166)"></g><g clip-path="url(#167)"></g><g clip-path="url(#168)"></g><g clip-path="url(#169)"></g><g clip-path="url(#170)"></g><g clip-path="url(#171)"></g><g clip-path="url(#172)"></g><g clip-path="url(#173)"></g><g clip-path="url(#174)"></g><g clip-path="url(#175)"></g><g clip-path="url(#176)"></g><g clip-path="url(#177)"></g><g clip-path="url(#178)"></g><g clip-path="url(#179)"></g></g></g></svg>