<svg xmlns="http://www.w3.org/2000/svg" xmlns:xlink="http://www.w3.org/1999/xlink" id="body_830" preserveAspectRatio="xMinYMin meet" viewBox="0 0 793 1121"><defs><clipPath id="1"><path id="" clip-rule="evenodd" d="M0 841L0 -0.9199829L0 -0.9199829L595.32 -0.9199829L595.32 -0.9199829L595.32 841L595.32 841L0 841z" /></clipPath><clipPath id="2"><path id="" clip-rule="evenodd" d="M0 840.9999L595.32 840.9999L595.32 840.9999L595.32 -0.9200439L595.32 -0.9200439L0 -0.9200439z" /></clipPath><clipPath id="3"><path id="" clip-rule="evenodd" d="M8.871E-06 841L595.32 841L595.32 841L595.32 -0.9199829L595.32 -0.9199829L8.871E-06 -0.9199829z" /></clipPath><clipPath id="4"><path id="" clip-rule="evenodd" d="M8.871E-06 841L595.32 841L595.32 841L595.32 -0.9199829L595.32 -0.9199829L8.871E-06 -0.9199829z" /></clipPath><clipPath id="5"><path id="" clip-rule="evenodd" d="M8.871E-06 841L595.32 841L595.32 841L595.32 -0.9199829L595.32 -0.9199829L8.871E-06 -0.9199829z" /></clipPath><clipPath id="6"><path id="" clip-rule="evenodd" d="M8.871E-06 841L595.32 841L595.32 841L595.32 -0.9199829L595.32 -0.9199829L8.871E-06 -0.9199829z" /></clipPath><clipPath id="7"><path id="" clip-rule="evenodd" d="M8.871E-06 841L595.32 841L595.32 841L595.32 -0.9199829L595.32 -0.9199829L8.871E-06 -0.9199829z" /></clipPath><clipPath id="8"><path id="" clip-rule="evenodd" d="M8.871E-06 841L595.32 841L595.32 841L595.32 -0.9199829L595.32 -0.9199829L8.871E-06 -0.9199829z" /></clipPath><clipPath id="9"><path id="" clip-rule="evenodd" d="M8.871E-06 841L595.32 841L595.32 841L595.32 -0.9199829L595.32 -0.9199829L8.871E-06 -0.9199829z" /></clipPath><clipPath id="10"><path id="" clip-rule="evenodd" d="M8.871E-06 841L595.32 841L595.32 841L595.32 -0.9199829L595.32 -0.9199829L8.871E-06 -0.9199829z" /></clipPath><clipPath id="11"><path id="" clip-rule="evenodd" d="M8.871E-06 841L595.32 841L595.32 841L595.32 -0.9199829L595.32 -0.9199829L8.871E-06 -0.9199829z" /></clipPath><clipPath id="12"><path id="" clip-rule="evenodd" d="M8.871E-06 841L595.32 841L595.32 841L595.32 -0.9199829L595.32 -0.9199829L8.871E-06 -0.9199829z" /></clipPath><clipPath id="13"><path id="" clip-rule="evenodd" d="M8.871E-06 841L595.32 841L595.32 841L595.32 -0.9199829L595.32 -0.9199829L8.871E-06 -0.9199829z" /></clipPath><clipPath id="14"><path id="" clip-rule="evenodd" d="M8.871E-06 841L595.32 841L595.32 841L595.32 -0.9199829L595.32 -0.9199829L8.871E-06 -0.9199829z" /></clipPath><clipPath id="15"><path id="" clip-rule="evenodd" d="M8.871E-06 841L595.32 841L595.32 841L595.32 -0.9199829L595.32 -0.9199829L8.871E-06 -0.9199829z" /></clipPath><clipPath id="16"><path id="" clip-rule="evenodd" d="M8.871E-06 841L595.32 841L595.32 841L595.32 -0.9199829L595.32 -0.9199829L8.871E-06 -0.9199829z" /></clipPath><clipPath id="17"><path id="" clip-rule="evenodd" d="M8.871E-06 841L595.32 841L595.32 841L595.32 -0.9199829L595.32 -0.9199829L8.871E-06 -0.9199829z" /></clipPath><clipPath id="18"><path id="" clip-rule="evenodd" d="M8.871E-06 841L595.32 841L595.32 841L595.32 -0.9199829L595.32 -0.9199829L8.871E-06 -0.9199829z" /></clipPath><clipPath id="19"><path id="" clip-rule="evenodd" d="M8.871E-06 841L595.32 841L595.32 841L595.32 -0.9199829L595.32 -0.9199829L8.871E-06 -0.9199829z" /></clipPath><clipPath id="20"><path id="" clip-rule="evenodd" d="M8.871E-06 841L595.32 841L595.32 841L595.32 -0.9199829L595.32 -0.9199829L8.871E-06 -0.9199829z" /></clipPath><clipPath id="21"><path id="" clip-rule="evenodd" d="M8.871E-06 841L595.32 841L595.32 841L595.32 -0.9199829L595.32 -0.9199829L8.871E-06 -0.9199829z" /></clipPath><clipPath id="22"><path id="" clip-rule="evenodd" d="M8.871E-06 841L595.32 841L595.32 841L595.32 -0.9199829L595.32 -0.9199829L8.871E-06 -0.9199829z" /></clipPath><clipPath id="23"><path id="" clip-rule="evenodd" d="M8.871E-06 841L595.32 841L595.32 841L595.32 -0.9199829L595.32 -0.9199829L8.871E-06 -0.9199829z" /></clipPath><clipPath id="24"><path id="" clip-rule="evenodd" d="M8.871E-06 841L595.32 841L595.32 841L595.32 -0.9199829L595.32 -0.9199829L8.871E-06 -0.9199829z" /></clipPath><clipPath id="25"><path id="" clip-rule="evenodd" d="M8.871E-06 841L595.32 841L595.32 841L595.32 -0.9199829L595.32 -0.9199829L8.871E-06 -0.9199829z" /></clipPath><clipPath id="26"><path id="" clip-rule="evenodd" d="M8.871E-06 841L595.32 841L595.32 841L595.32 -0.9199829L595.32 -0.9199829L8.871E-06 -0.9199829z" /></clipPath><clipPath id="27"><path id="" clip-rule="evenodd" d="M8.871E-06 841L595.32 841L595.32 841L595.32 -0.9199829L595.32 -0.9199829L8.871E-06 -0.9199829z" /></clipPath><clipPath id="28"><path id="" clip-rule="evenodd" d="M8.871E-06 841L595.32 841L595.32 841L595.32 -0.9199829L595.32 -0.9199829L8.871E-06 -0.9199829z" /></clipPath><clipPath id="29"><path id="" clip-rule="evenodd" d="M8.871E-06 841L595.32 841L595.32 841L595.32 -0.9199829L595.32 -0.9199829L8.871E-06 -0.9199829z" /></clipPath><clipPath id="30"><path id="" clip-rule="evenodd" d="M8.871E-06 841L595.32 841L595.32 841L595.32 -0.9199829L595.32 -0.9199829L8.871E-06 -0.9199829z" /></clipPath><clipPath id="31"><path id="" clip-rule="evenodd" d="M8.871E-06 841L595.32 841L595.32 841L595.32 -0.9199829L595.32 -0.9199829L8.871E-06 -0.9199829z" /></clipPath><clipPath id="32"><path id="" clip-rule="evenodd" d="M8.871E-06 841L595.32 841L595.32 841L595.32 -0.9199829L595.32 -0.9199829L8.871E-06 -0.9199829z" /></clipPath><clipPath id="33"><path id="" clip-rule="evenodd" d="M8.871E-06 841L595.32 841L595.32 841L595.32 -0.9199829L595.32 -0.9199829L8.871E-06 -0.9199829z" /></clipPath><clipPath id="34"><path id="" clip-rule="evenodd" d="M8.871E-06 841L595.32 841L595.32 841L595.32 -0.9199829L595.32 -0.9199829L8.871E-06 -0.9199829z" /></clipPath><clipPath id="35"><path id="" clip-rule="evenodd" d="M8.871E-06 841L595.32 841L595.32 841L595.32 -0.9199829L595.32 -0.9199829L8.871E-06 -0.9199829z" /></clipPath><clipPath id="36"><path id="" clip-rule="evenodd" d="M8.871E-06 841L595.32 841L595.32 841L595.32 -0.9199829L595.32 -0.9199829L8.871E-06 -0.9199829z" /></clipPath><clipPath id="37"><path id="" clip-rule="evenodd" d="M8.871E-06 841L595.32 841L595.32 841L595.32 -0.9199829L595.32 -0.9199829L8.871E-06 -0.9199829z" /></clipPath><clipPath id="38"><path id="" clip-rule="evenodd" d="M8.871E-06 841L595.32 841L595.32 841L595.32 -0.9199829L595.32 -0.9199829L8.871E-06 -0.9199829z" /></clipPath><clipPath id="39"><path id="" clip-rule="evenodd" d="M8.871E-06 841L595.32 841L595.32 841L595.32 -0.9199829L595.32 -0.9199829L8.871E-06 -0.9199829z" /></clipPath><clipPath id="40"><path id="" clip-rule="evenodd" d="M8.871E-06 841L595.32 841L595.32 841L595.32 -0.9199829L595.32 -0.9199829L8.871E-06 -0.9199829z" /></clipPath><clipPath id="41"><path id="" clip-rule="evenodd" d="M8.871E-06 841L595.32 841L595.32 841L595.32 -0.9199829L595.32 -0.9199829L8.871E-06 -0.9199829z" /></clipPath><clipPath id="42"><path id="" clip-rule="evenodd" d="M8.871E-06 841L595.32 841L595.32 841L595.32 -0.9199829L595.32 -0.9199829L8.871E-06 -0.9199829z" /></clipPath><clipPath id="43"><path id="" clip-rule="evenodd" d="M8.871E-06 841L595.32 841L595.32 841L595.32 -0.9199829L595.32 -0.9199829L8.871E-06 -0.9199829z" /></clipPath><clipPath id="44"><path id="" clip-rule="evenodd" d="M0 840.9999L595.32 840.9999L595.32 840.9999L595.32 -0.9200439L595.32 -0.9200439L0 -0.9200439z" /></clipPath><clipPath id="45"><path id="" clip-rule="evenodd" d="M136.26 489.34L459.1617 489.34L459.1617 489.34L459.1617 261.3397L459.1617 261.3397L136.26 261.3397z" /></clipPath><clipPath id="46"><path id="" clip-rule="evenodd" d="M175.5641 455.4957L439.7403 455.4957L439.7403 455.4957L439.7403 273.5707L439.7403 273.5707L175.5641 273.5707z" /></clipPath><clipPath id="47"><path id="" clip-rule="evenodd" d="M8.871E-06 841L595.32 841L595.32 841L595.32 -0.9199829L595.32 -0.9199829L8.871E-06 -0.9199829z" /></clipPath><clipPath id="48"><path id="" clip-rule="evenodd" d="M8.871E-06 841L595.32 841L595.32 841L595.32 -0.9199829L595.32 -0.9199829L8.871E-06 -0.9199829z" /></clipPath><clipPath id="49"><path id="" clip-rule="evenodd" d="M8.871E-06 841L595.32 841L595.32 841L595.32 -0.9199829L595.32 -0.9199829L8.871E-06 -0.9199829z" /></clipPath><clipPath id="50"><path id="" clip-rule="evenodd" d="M8.871E-06 841L595.32 841L595.32 841L595.32 -0.9199829L595.32 -0.9199829L8.871E-06 -0.9199829z" /></clipPath><clipPath id="51"><path id="" clip-rule="evenodd" d="M8.871E-06 841L595.32 841L595.32 841L595.32 -0.9199829L595.32 -0.9199829L8.871E-06 -0.9199829z" /></clipPath><clipPath id="52"><path id="" clip-rule="evenodd" d="M8.871E-06 841L595.32 841L595.32 841L595.32 -0.9199829L595.32 -0.9199829L8.871E-06 -0.9199829z" /></clipPath><clipPath id="53"><path id="" clip-rule="evenodd" d="M8.871E-06 841L595.32 841L595.32 841L595.32 -0.9199829L595.32 -0.9199829L8.871E-06 -0.9199829z" /></clipPath><clipPath id="54"><path id="" clip-rule="evenodd" d="M8.871E-06 841L595.32 841L595.32 841L595.32 -0.9199829L595.32 -0.9199829L8.871E-06 -0.9199829z" /></clipPath><clipPath id="55"><path id="" clip-rule="evenodd" d="M8.871E-06 841L595.32 841L595.32 841L595.32 -0.9199829L595.32 -0.9199829L8.871E-06 -0.9199829z" /></clipPath><clipPath id="56"><path id="" clip-rule="evenodd" d="M8.871E-06 841L595.32 841L595.32 841L595.32 -0.9199829L595.32 -0.9199829L8.871E-06 -0.9199829z" /></clipPath><clipPath id="57"><path id="" clip-rule="evenodd" d="M8.871E-06 841L595.32 841L595.32 841L595.32 -0.9199829L595.32 -0.9199829L8.871E-06 -0.9199829z" /></clipPath><clipPath id="58"><path id="" clip-rule="evenodd" d="M8.871E-06 841L595.32 841L595.32 841L595.32 -0.9199829L595.32 -0.9199829L8.871E-06 -0.9199829z" /></clipPath><clipPath id="59"><path id="" clip-rule="evenodd" d="M8.871E-06 841L595.32 841L595.32 841L595.32 -0.9199829L595.32 -0.9199829L8.871E-06 -0.9199829z" /></clipPath><clipPath id="60"><path id="" clip-rule="evenodd" d="M8.871E-06 841L595.32 841L595.32 841L595.32 -0.9199829L595.32 -0.9199829L8.871E-06 -0.9199829z" /></clipPath><clipPath id="61"><path id="" clip-rule="evenodd" d="M8.871E-06 841L595.32 841L595.32 841L595.32 -0.9199829L595.32 -0.9199829L8.871E-06 -0.9199829z" /></clipPath><clipPath id="62"><path id="" clip-rule="evenodd" d="M8.871E-06 841L595.32 841L595.32 841L595.32 -0.9199829L595.32 -0.9199829L8.871E-06 -0.9199829z" /></clipPath><clipPath id="63"><path id="" clip-rule="evenodd" d="M8.871E-06 841L595.32 841L595.32 841L595.32 -0.9199829L595.32 -0.9199829L8.871E-06 -0.9199829z" /></clipPath><clipPath id="64"><path id="" clip-rule="evenodd" d="M8.871E-06 841L595.32 841L595.32 841L595.32 -0.9199829L595.32 -0.9199829L8.871E-06 -0.9199829z" /></clipPath><clipPath id="65"><path id="" clip-rule="evenodd" d="M8.871E-06 841L595.32 841L595.32 841L595.32 -0.9199829L595.32 -0.9199829L8.871E-06 -0.9199829z" /></clipPath><clipPath id="66"><path id="" clip-rule="evenodd" d="M8.871E-06 841L595.32 841L595.32 841L595.32 -0.9199829L595.32 -0.9199829L8.871E-06 -0.9199829z" /></clipPath><clipPath id="67"><path id="" clip-rule="evenodd" d="M8.871E-06 841L595.32 841L595.32 841L595.32 -0.9199829L595.32 -0.9199829L8.871E-06 -0.9199829z" /></clipPath><clipPath id="68"><path id="" clip-rule="evenodd" d="M8.871E-06 841L595.32 841L595.32 841L595.32 -0.9199829L595.32 -0.9199829L8.871E-06 -0.9199829z" /></clipPath><clipPath id="69"><path id="" clip-rule="evenodd" d="M8.871E-06 841L595.32 841L595.32 841L595.32 -0.9199829L595.32 -0.9199829L8.871E-06 -0.9199829z" /></clipPath><clipPath id="70"><path id="" clip-rule="evenodd" d="M8.871E-06 841L595.32 841L595.32 841L595.32 -0.9199829L595.32 -0.9199829L8.871E-06 -0.9199829z" /></clipPath><clipPath id="71"><path id="" clip-rule="evenodd" d="M8.871E-06 841L595.32 841L595.32 841L595.32 -0.9199829L595.32 -0.9199829L8.871E-06 -0.9199829z" /></clipPath><clipPath id="72"><path id="" clip-rule="evenodd" d="M8.871E-06 841L595.32 841L595.32 841L595.32 -0.9199829L595.32 -0.9199829L8.871E-06 -0.9199829z" /></clipPath><clipPath id="73"><path id="" clip-rule="evenodd" d="M8.871E-06 841L595.32 841L595.32 841L595.32 -0.9199829L595.32 -0.9199829L8.871E-06 -0.9199829z" /></clipPath><clipPath id="74"><path id="" clip-rule="evenodd" d="M8.871E-06 841L595.32 841L595.32 841L595.32 -0.9199829L595.32 -0.9199829L8.871E-06 -0.9199829z" /></clipPath><clipPath id="75"><path id="" clip-rule="evenodd" d="M8.871E-06 841L595.32 841L595.32 841L595.32 -0.9199829L595.32 -0.9199829L8.871E-06 -0.9199829z" /></clipPath><clipPath id="76"><path id="" clip-rule="evenodd" d="M8.871E-06 841L595.32 841L595.32 841L595.32 -0.9199829L595.32 -0.9199829L8.871E-06 -0.9199829z" /></clipPath><clipPath id="77"><path id="" clip-rule="evenodd" d="M8.871E-06 841L595.32 841L595.32 841L595.32 -0.9199829L595.32 -0.9199829L8.871E-06 -0.9199829z" /></clipPath><clipPath id="78"><path id="" clip-rule="evenodd" d="M8.871E-06 841L595.32 841L595.32 841L595.32 -0.9199829L595.32 -0.9199829L8.871E-06 -0.9199829z" /></clipPath></defs><g transform="matrix(1.333333 0 0 1.333333 0 0)"><g clip-path="url(#1)"><g clip-path="url(#2)"><path id="1" transform="matrix(1 0 0 -1 0 841)" d="M0 -0.13L595.45 -0.13L595.45 -0.13L595.45 841.92L595.45 841.92L0 841.92z" stroke="none" fill="#F5F1DE" fill-rule="evenodd" /></g><g clip-path="url(#3)"></g><g clip-path="url(#4)"></g><path id="23" transform="matrix(1 0 0 -1 0 841)" d="M90 777.72L505.3 777.72L505.3 777.72L505.3 779.27L505.3 779.27L90 779.27z" stroke="none" fill="#808080" fill-rule="evenodd" /><path id="24" transform="matrix(1 0 0 -1 0 841)" d="M90.024 779.04L90.264 779.04L90.264 779.04L90.264 779.28L90.264 779.28L90.024 779.28z" stroke="none" fill="#808080" fill-rule="evenodd" /><path id="25" transform="matrix(1 0 0 -1 0 841)" d="M90.024 779.04L90.264 779.04L90.264 779.04L90.264 779.28L90.264 779.28L90.024 779.28z" stroke="none" fill="#808080" fill-rule="evenodd" /><path id="26" transform="matrix(1 0 0 -1 0 841)" d="M90.264 779.04L505.204 779.04L505.204 779.04L505.204 779.28L505.204 779.28L90.264 779.28z" stroke="none" fill="#808080" fill-rule="evenodd" /><path id="27" transform="matrix(1 0 0 -1 0 841)" d="M505.2 779.04L505.44 779.04L505.44 779.04L505.44 779.28L505.44 779.28L505.2 779.28z" stroke="none" fill="#D4D0C8" fill-rule="evenodd" /><path id="28" transform="matrix(1 0 0 -1 0 841)" d="M505.2 779.04L505.44 779.04L505.44 779.04L505.44 779.28L505.44 779.28L505.2 779.28z" stroke="none" fill="#808080" fill-rule="evenodd" /><path id="29" transform="matrix(1 0 0 -1 0 841)" d="M90.024 777.96L90.264 777.96L90.264 777.96L90.264 779.04L90.264 779.04L90.024 779.04z" stroke="none" fill="#808080" fill-rule="evenodd" /><path id="30" transform="matrix(1 0 0 -1 0 841)" d="M505.2 777.96L505.44 777.96L505.44 777.96L505.44 779.04L505.44 779.04L505.2 779.04z" stroke="none" fill="#D4D0C8" fill-rule="evenodd" /><path id="31" transform="matrix(1 0 0 -1 0 841)" d="M90.024 777.72L90.264 777.72L90.264 777.72L90.264 777.96L90.264 777.96L90.024 777.96z" stroke="none" fill="#808080" fill-rule="evenodd" /><path id="32" transform="matrix(1 0 0 -1 0 841)" d="M90.024 777.72L90.264 777.72L90.264 777.72L90.264 777.96L90.264 777.96L90.024 777.96z" stroke="none" fill="#D4D0C8" fill-rule="evenodd" /><path id="33" transform="matrix(1 0 0 -1 0 841)" d="M90.264 777.72L505.204 777.72L505.204 777.72L505.204 777.96L505.204 777.96L90.264 777.96z" stroke="none" fill="#D4D0C8" fill-rule="evenodd" /><path id="34" transform="matrix(1 0 0 -1 0 841)" d="M505.2 777.72L505.44 777.72L505.44 777.72L505.44 777.96L505.44 777.96L505.2 777.96z" stroke="none" fill="#D4D0C8" fill-rule="evenodd" /><path id="35" transform="matrix(1 0 0 -1 0 841)" d="M505.2 777.72L505.44 777.72L505.44 777.72L505.44 777.96L505.44 777.96L505.2 777.96z" stroke="none" fill="#D4D0C8" fill-rule="evenodd" /><g clip-path="url(#5)"></g><g clip-path="url(#6)"></g><g clip-path="url(#7)"></g><g clip-path="url(#8)"></g><g clip-path="url(#9)"></g><g clip-path="url(#10)"></g><g clip-path="url(#11)"></g><g clip-path="url(#12)"></g><g clip-path="url(#13)"></g><g clip-path="url(#14)"></g><g clip-path="url(#15)"></g><g clip-path="url(#16)"></g><g clip-path="url(#17)"></g><g clip-path="url(#18)"></g><g clip-path="url(#19)"></g><g clip-path="url(#20)"></g><g clip-path="url(#21)"></g><g clip-path="url(#22)"></g><g clip-path="url(#23)"></g><g clip-path="url(#24)"></g><g clip-path="url(#25)"></g><g clip-path="url(#26)"></g><g clip-path="url(#27)"></g><g clip-path="url(#28)"></g><g clip-path="url(#29)"></g><g clip-path="url(#30)"></g><g clip-path="url(#31)"></g><g clip-path="url(#32)"></g><g clip-path="url(#33)"></g><g clip-path="url(#34)"></g><g clip-path="url(#35)"></g><g clip-path="url(#36)"></g><g clip-path="url(#37)"></g><g clip-path="url(#38)"></g><g clip-path="url(#39)"></g><g clip-path="url(#40)"></g><g clip-path="url(#41)"></g><g clip-path="url(#42)"></g><g clip-path="url(#43)"></g><g clip-path="url(#44)"><g clip-path="url(#45)"><path id="529" transform="matrix(1 0 0 -1 0 841)" d="M175.5641 382.4704L175.5641 385.5962" stroke="#000000" stroke-width="0.6441519" fill="none" /><path id="530" transform="matrix(1 0 0 -1 0 841)" d="M183.5729 384.0333L183.5729 385.5962" stroke="#000000" stroke-width="0.6441519" fill="none" /><path id="531" transform="matrix(1 0 0 -1 0 841)" d="M191.5809 382.4704L191.5809 385.5962" stroke="#000000" stroke-width="0.6441519" fill="none" /><path id="532" transform="matrix(1 0 0 -1 0 841)" d="M199.5888 384.0333L199.5888 385.5962" stroke="#000000" stroke-width="0.6441519" fill="none" /><path id="533" transform="matrix(1 0 0 -1 0 841)" d="M207.5967 382.4704L207.5967 385.5962" stroke="#000000" stroke-width="0.6441519" fill="none" /><path id="534" transform="matrix(1 0 0 -1 0 841)" d="M215.6056 384.0333L215.6056 385.5962" stroke="#000000" stroke-width="0.6441519" fill="none" /><path id="535" transform="matrix(1 0 0 -1 0 841)" d="M223.6135 382.4704L223.6135 385.5962" stroke="#000000" stroke-width="0.6441519" fill="none" /><path id="536" transform="matrix(1 0 0 -1 0 841)" d="M231.6215 384.0333L231.6215 385.5962" stroke="#000000" stroke-width="0.6441519" fill="none" /><path id="537" transform="matrix(1 0 0 -1 0 841)" d="M239.6294 382.4704L239.6294 385.5962" stroke="#000000" stroke-width="0.6441519" fill="none" /><path id="538" transform="matrix(1 0 0 -1 0 841)" d="M247.5462 384.0333L247.5462 385.5962" stroke="#000000" stroke-width="0.6441519" fill="none" /><path id="539" transform="matrix(1 0 0 -1 0 841)" d="M255.5541 382.4704L255.5541 385.5962" stroke="#000000" stroke-width="0.6441519" fill="none" /><path id="540" transform="matrix(1 0 0 -1 0 841)" d="M263.5621 384.0333L263.5621 385.5962" stroke="#000000" stroke-width="0.6441519" fill="none" /><path id="541" transform="matrix(1 0 0 -1 0 841)" d="M271.57 382.4704L271.57 385.5962" stroke="#000000" stroke-width="0.6441519" fill="none" /><path id="542" transform="matrix(1 0 0 -1 0 841)" d="M279.5779 384.0333L279.5779 385.5962" stroke="#000000" stroke-width="0.6441519" fill="none" /><path id="543" transform="matrix(1 0 0 -1 0 841)" d="M287.5868 382.4704L287.5868 385.5962" stroke="#000000" stroke-width="0.6441519" fill="none" /><path id="544" transform="matrix(1 0 0 -1 0 841)" d="M295.5947 384.0333L295.5947 385.5962" stroke="#000000" stroke-width="0.6441519" fill="none" /><path id="545" transform="matrix(1 0 0 -1 0 841)" d="M303.6027 382.4704L303.6027 385.5962" stroke="#000000" stroke-width="0.6441519" fill="none" /><path id="546" transform="matrix(1 0 0 -1 0 841)" d="M311.6106 384.0333L311.6106 385.5962" stroke="#000000" stroke-width="0.6441519" fill="none" /><path id="547" transform="matrix(1 0 0 -1 0 841)" d="M319.6185 382.4704L319.6185 385.5962" stroke="#000000" stroke-width="0.6441519" fill="none" /><path id="548" transform="matrix(1 0 0 -1 0 841)" d="M327.6274 384.0333L327.6274 385.5962" stroke="#000000" stroke-width="0.6441519" fill="none" /><path id="549" transform="matrix(1 0 0 -1 0 841)" d="M335.6353 382.4704L335.6353 385.5962" stroke="#000000" stroke-width="0.6441519" fill="none" /><path id="550" transform="matrix(1 0 0 -1 0 841)" d="M343.6432 384.0333L343.6432 385.5962" stroke="#000000" stroke-width="0.6441519" fill="none" /><path id="551" transform="matrix(1 0 0 -1 0 841)" d="M351.6512 382.4704L351.6512 385.5962" stroke="#000000" stroke-width="0.6441519" fill="none" /><path id="552" transform="matrix(1 0 0 -1 0 841)" d="M359.66 384.0333L359.66 385.5962" stroke="#000000" stroke-width="0.6441519" fill="none" /><path id="553" transform="matrix(1 0 0 -1 0 841)" d="M367.668 382.4704L367.668 385.5962" stroke="#000000" stroke-width="0.6441519" fill="none" /><path id="554" transform="matrix(1 0 0 -1 0 841)" d="M375.5839 384.0333L375.5839 385.5962" stroke="#000000" stroke-width="0.6441519" fill="none" /><path id="555" transform="matrix(1 0 0 -1 0 841)" d="M383.5918 382.4704L383.5918 385.5962" stroke="#000000" stroke-width="0.6441519" fill="none" /><path id="556" transform="matrix(1 0 0 -1 0 841)" d="M391.5997 384.0333L391.5997 385.5962" stroke="#000000" stroke-width="0.6441519" fill="none" /><path id="557" transform="matrix(1 0 0 -1 0 841)" d="M399.6086 382.4704L399.6086 385.5962" stroke="#000000" stroke-width="0.6441519" fill="none" /><path id="558" transform="matrix(1 0 0 -1 0 841)" d="M407.6165 384.0333L407.6165 385.5962" stroke="#000000" stroke-width="0.6441519" fill="none" /><path id="559" transform="matrix(1 0 0 -1 0 841)" d="M415.6245 382.4704L415.6245 385.5962" stroke="#000000" stroke-width="0.6441519" fill="none" /><path id="560" transform="matrix(1 0 0 -1 0 841)" d="M423.6324 384.0333L423.6324 385.5962" stroke="#000000" stroke-width="0.6441519" fill="none" /><path id="561" transform="matrix(1 0 0 -1 0 841)" d="M431.6412 382.4704L431.6412 385.5962" stroke="#000000" stroke-width="0.6441519" fill="none" /><path id="562" transform="matrix(1 0 0 -1 0 841)" d="M439.6492 384.0333L439.6492 385.5962" stroke="#000000" stroke-width="0.6441519" fill="none" /><path id="563" transform="matrix(1 0 0 -1 0 841)" d="M175.5641 385.5962L439.6492 385.5962" stroke="#000000" stroke-width="0.6441519" fill="none" /><path id="564" transform="matrix(1 0 0 -1 0 841)" d="M172.4356 385.5962L175.5641 385.5962" stroke="#000000" stroke-width="0.6441519" fill="none" /><path id="565" transform="matrix(1 0 0 -1 0 841)" d="M173.9999 393.875L175.5641 393.875" stroke="#000000" stroke-width="0.6441519" fill="none" /><path id="566" transform="matrix(1 0 0 -1 0 841)" d="M172.4356 402.1511L175.5641 402.1511" stroke="#000000" stroke-width="0.6441519" fill="none" /><path id="567" transform="matrix(1 0 0 -1 0 841)" d="M173.9999 410.4298L175.5641 410.4298" stroke="#000000" stroke-width="0.6441519" fill="none" /><path id="568" transform="matrix(1 0 0 -1 0 841)" d="M172.4356 418.6149L175.5641 418.6149" stroke="#000000" stroke-width="0.6441519" fill="none" /><path id="569" transform="matrix(1 0 0 -1 0 841)" d="M173.9999 426.8937L175.5641 426.8937" stroke="#000000" stroke-width="0.6441519" fill="none" /><path id="570" transform="matrix(1 0 0 -1 0 841)" d="M172.4356 435.1697L175.5641 435.1697" stroke="#000000" stroke-width="0.6441519" fill="none" /><path id="571" transform="matrix(1 0 0 -1 0 841)" d="M173.9999 443.4485L175.5641 443.4485" stroke="#000000" stroke-width="0.6441519" fill="none" /><path id="572" transform="matrix(1 0 0 -1 0 841)" d="M172.4356 451.7255L175.5641 451.7255" stroke="#000000" stroke-width="0.6441519" fill="none" /><path id="573" transform="matrix(1 0 0 -1 0 841)" d="M173.9999 460.0043L175.5641 460.0043" stroke="#000000" stroke-width="0.6441519" fill="none" /><path id="574" transform="matrix(1 0 0 -1 0 841)" d="M172.4356 468.2803L175.5641 468.2803" stroke="#000000" stroke-width="0.6441519" fill="none" /><path id="575" transform="matrix(1 0 0 -1 0 841)" d="M173.9999 476.4672L175.5641 476.4672" stroke="#000000" stroke-width="0.6441519" fill="none" /><path id="576" transform="matrix(1 0 0 -1 0 841)" d="M172.4356 484.7442L175.5641 484.7442" stroke="#000000" stroke-width="0.6441519" fill="none" /><path id="577" transform="matrix(1 0 0 -1 0 841)" d="M173.9999 493.023L175.5641 493.023" stroke="#000000" stroke-width="0.6441519" fill="none" /><path id="578" transform="matrix(1 0 0 -1 0 841)" d="M172.4356 501.299L175.5641 501.299" stroke="#000000" stroke-width="0.6441519" fill="none" /><path id="579" transform="matrix(1 0 0 -1 0 841)" d="M173.9999 509.576L175.5641 509.576" stroke="#000000" stroke-width="0.6441519" fill="none" /><path id="580" transform="matrix(1 0 0 -1 0 841)" d="M172.4356 517.8548L175.5641 517.8548" stroke="#000000" stroke-width="0.6441519" fill="none" /><path id="581" transform="matrix(1 0 0 -1 0 841)" d="M173.9999 526.1309L175.5641 526.1309" stroke="#000000" stroke-width="0.6441519" fill="none" /><path id="582" transform="matrix(1 0 0 -1 0 841)" d="M172.4356 534.4097L175.5641 534.4097" stroke="#000000" stroke-width="0.6441519" fill="none" /><path id="583" transform="matrix(1 0 0 -1 0 841)" d="M173.9999 542.5947L175.5641 542.5947" stroke="#000000" stroke-width="0.6441519" fill="none" /><path id="584" transform="matrix(1 0 0 -1 0 841)" d="M172.4356 550.8735L175.5641 550.8735" stroke="#000000" stroke-width="0.6441519" fill="none" /><path id="585" transform="matrix(1 0 0 -1 0 841)" d="M173.9999 559.1495L175.5641 559.1495" stroke="#000000" stroke-width="0.6441519" fill="none" /><path id="586" transform="matrix(1 0 0 -1 0 841)" d="M172.4356 567.4283L175.5641 567.4283" stroke="#000000" stroke-width="0.6441519" fill="none" /><path id="587" transform="matrix(1 0 0 -1 0 841)" d="M175.5641 385.5962L175.5641 567.4283" stroke="#000000" stroke-width="0.6441519" fill="none" /><path id="588" transform="matrix(1 0 0 -1 0 841)" d="M175.5641 567.4283L175.5641 564.3007" stroke="#000000" stroke-width="0.6441519" fill="none" /><path id="589" transform="matrix(1 0 0 -1 0 841)" d="M183.5729 567.4283L183.5729 565.8654" stroke="#000000" stroke-width="0.6441519" fill="none" /><path id="590" transform="matrix(1 0 0 -1 0 841)" d="M191.5809 567.4283L191.5809 564.3007" stroke="#000000" stroke-width="0.6441519" fill="none" /><path id="591" transform="matrix(1 0 0 -1 0 841)" d="M199.5888 567.4283L199.5888 565.8654" stroke="#000000" stroke-width="0.6441519" fill="none" /><path id="592" transform="matrix(1 0 0 -1 0 841)" d="M207.5967 567.4283L207.5967 564.3007" stroke="#000000" stroke-width="0.6441519" fill="none" /><path id="593" transform="matrix(1 0 0 -1 0 841)" d="M215.6056 567.4283L215.6056 565.8654" stroke="#000000" stroke-width="0.6441519" fill="none" /><path id="594" transform="matrix(1 0 0 -1 0 841)" d="M223.6135 567.4283L223.6135 564.3007" stroke="#000000" stroke-width="0.6441519" fill="none" /><path id="595" transform="matrix(1 0 0 -1 0 841)" d="M231.6215 567.4283L231.6215 565.8654" stroke="#000000" stroke-width="0.6441519" fill="none" /><path id="596" transform="matrix(1 0 0 -1 0 841)" d="M239.6294 567.4283L239.6294 564.3007" stroke="#000000" stroke-width="0.6441519" fill="none" /><path id="597" transform="matrix(1 0 0 -1 0 841)" d="M247.5462 567.4283L247.5462 565.8654" stroke="#000000" stroke-width="0.6441519" fill="none" /><path id="598" transform="matrix(1 0 0 -1 0 841)" d="M255.5541 567.4283L255.5541 564.3007" stroke="#000000" stroke-width="0.6441519" fill="none" /><path id="599" transform="matrix(1 0 0 -1 0 841)" d="M263.5621 567.4283L263.5621 565.8654" stroke="#000000" stroke-width="0.6441519" fill="none" /><path id="600" transform="matrix(1 0 0 -1 0 841)" d="M271.57 567.4283L271.57 564.3007" stroke="#000000" stroke-width="0.6441519" fill="none" /><path id="601" transform="matrix(1 0 0 -1 0 841)" d="M279.5779 567.4283L279.5779 565.8654" stroke="#000000" stroke-width="0.6441519" fill="none" /><path id="602" transform="matrix(1 0 0 -1 0 841)" d="M287.5868 567.4283L287.5868 564.3007" stroke="#000000" stroke-width="0.6441519" fill="none" /><path id="603" transform="matrix(1 0 0 -1 0 841)" d="M295.5947 567.4283L295.5947 565.8654" stroke="#000000" stroke-width="0.6441519" fill="none" /><path id="604" transform="matrix(1 0 0 -1 0 841)" d="M303.6027 567.4283L303.6027 564.3007" stroke="#000000" stroke-width="0.6441519" fill="none" /><path id="605" transform="matrix(1 0 0 -1 0 841)" d="M311.6106 567.4283L311.6106 565.8654" stroke="#000000" stroke-width="0.6441519" fill="none" /><path id="606" transform="matrix(1 0 0 -1 0 841)" d="M319.6185 567.4283L319.6185 564.3007" stroke="#000000" stroke-width="0.6441519" fill="none" /><path id="607" transform="matrix(1 0 0 -1 0 841)" d="M327.6274 567.4283L327.6274 565.8654" stroke="#000000" stroke-width="0.6441519" fill="none" /><path id="608" transform="matrix(1 0 0 -1 0 841)" d="M335.6353 567.4283L335.6353 564.3007" stroke="#000000" stroke-width="0.6441519" fill="none" /><path id="609" transform="matrix(1 0 0 -1 0 841)" d="M343.6432 567.4283L343.6432 565.8654" stroke="#000000" stroke-width="0.6441519" fill="none" /><path id="610" transform="matrix(1 0 0 -1 0 841)" d="M351.6512 567.4283L351.6512 564.3007" stroke="#000000" stroke-width="0.6441519" fill="none" /><path id="611" transform="matrix(1 0 0 -1 0 841)" d="M359.66 567.4283L359.66 565.8654" stroke="#000000" stroke-width="0.6441519" fill="none" /><path id="612" transform="matrix(1 0 0 -1 0 841)" d="M367.668 567.4283L367.668 564.3007" stroke="#000000" stroke-width="0.6441519" fill="none" /><path id="613" transform="matrix(1 0 0 -1 0 841)" d="M375.5839 567.4283L375.5839 565.8654" stroke="#000000" stroke-width="0.6441519" fill="none" /><path id="614" transform="matrix(1 0 0 -1 0 841)" d="M383.5918 567.4283L383.5918 564.3007" stroke="#000000" stroke-width="0.6441519" fill="none" /><path id="615" transform="matrix(1 0 0 -1 0 841)" d="M391.5997 567.4283L391.5997 565.8654" stroke="#000000" stroke-width="0.6441519" fill="none" /><path id="616" transform="matrix(1 0 0 -1 0 841)" d="M399.6086 567.4283L399.6086 564.3007" stroke="#000000" stroke-width="0.6441519" fill="none" /><path id="617" transform="matrix(1 0 0 -1 0 841)" d="M407.6165 567.4283L407.6165 565.8654" stroke="#000000" stroke-width="0.6441519" fill="none" /><path id="618" transform="matrix(1 0 0 -1 0 841)" d="M415.6245 567.4283L415.6245 564.3007" stroke="#000000" stroke-width="0.6441519" fill="none" /><path id="619" transform="matrix(1 0 0 -1 0 841)" d="M423.6324 567.4283L423.6324 565.8654" stroke="#000000" stroke-width="0.6441519" fill="none" /><path id="620" transform="matrix(1 0 0 -1 0 841)" d="M431.6412 567.4283L431.6412 564.3007" stroke="#000000" stroke-width="0.6441519" fill="none" /><path id="621" transform="matrix(1 0 0 -1 0 841)" d="M439.6492 567.4283L439.6492 565.8654" stroke="#000000" stroke-width="0.6441519" fill="none" /><path id="622" transform="matrix(1 0 0 -1 0 841)" d="M175.5641 567.4283L439.6492 567.4283" stroke="#000000" stroke-width="0.6441519" fill="none" /><path id="623" transform="matrix(1 0 0 -1 0 841)" d="M439.6492 385.5962L436.5198 385.5962" stroke="#000000" stroke-width="0.6441519" fill="none" /><path id="624" transform="matrix(1 0 0 -1 0 841)" d="M439.6492 393.875L438.085 393.875" stroke="#000000" stroke-width="0.6441519" fill="none" /><path id="625" transform="matrix(1 0 0 -1 0 841)" d="M439.6492 402.1511L436.5198 402.1511" stroke="#000000" stroke-width="0.6441519" fill="none" /><path id="626" transform="matrix(1 0 0 -1 0 841)" d="M439.6492 410.4298L438.085 410.4298" stroke="#000000" stroke-width="0.6441519" fill="none" /><path id="627" transform="matrix(1 0 0 -1 0 841)" d="M439.6492 418.6149L436.5198 418.6149" stroke="#000000" stroke-width="0.6441519" fill="none" /><path id="628" transform="matrix(1 0 0 -1 0 841)" d="M439.6492 426.8937L438.085 426.8937" stroke="#000000" stroke-width="0.6441519" fill="none" /><path id="629" transform="matrix(1 0 0 -1 0 841)" d="M439.6492 435.1697L436.5198 435.1697" stroke="#000000" stroke-width="0.6441519" fill="none" /><path id="630" transform="matrix(1 0 0 -1 0 841)" d="M439.6492 443.4485L438.085 443.4485" stroke="#000000" stroke-width="0.6441519" fill="none" /><path id="631" transform="matrix(1 0 0 -1 0 841)" d="M439.6492 451.7255L436.5198 451.7255" stroke="#000000" stroke-width="0.6441519" fill="none" /><path id="632" transform="matrix(1 0 0 -1 0 841)" d="M439.6492 460.0043L438.085 460.0043" stroke="#000000" stroke-width="0.6441519" fill="none" /><path id="633" transform="matrix(1 0 0 -1 0 841)" d="M439.6492 468.2803L436.5198 468.2803" stroke="#000000" stroke-width="0.6441519" fill="none" /><path id="634" transform="matrix(1 0 0 -1 0 841)" d="M439.6492 476.4672L438.085 476.4672" stroke="#000000" stroke-width="0.6441519" fill="none" /><path id="635" transform="matrix(1 0 0 -1 0 841)" d="M439.6492 484.7442L436.5198 484.7442" stroke="#000000" stroke-width="0.6441519" fill="none" /><path id="636" transform="matrix(1 0 0 -1 0 841)" d="M439.6492 493.023L438.085 493.023" stroke="#000000" stroke-width="0.6441519" fill="none" /><path id="637" transform="matrix(1 0 0 -1 0 841)" d="M439.6492 501.299L436.5198 501.299" stroke="#000000" stroke-width="0.6441519" fill="none" /><path id="638" transform="matrix(1 0 0 -1 0 841)" d="M439.6492 509.576L438.085 509.576" stroke="#000000" stroke-width="0.6441519" fill="none" /><path id="639" transform="matrix(1 0 0 -1 0 841)" d="M439.6492 517.8548L436.5198 517.8548" stroke="#000000" stroke-width="0.6441519" fill="none" /><path id="640" transform="matrix(1 0 0 -1 0 841)" d="M439.6492 526.1309L438.085 526.1309" stroke="#000000" stroke-width="0.6441519" fill="none" /><path id="641" transform="matrix(1 0 0 -1 0 841)" d="M439.6492 534.4097L436.5198 534.4097" stroke="#000000" stroke-width="0.6441519" fill="none" /><path id="642" transform="matrix(1 0 0 -1 0 841)" d="M439.6492 542.5947L438.085 542.5947" stroke="#000000" stroke-width="0.6441519" fill="none" /><path id="643" transform="matrix(1 0 0 -1 0 841)" d="M439.6492 550.8735L436.5198 550.8735" stroke="#000000" stroke-width="0.6441519" fill="none" /><path id="644" transform="matrix(1 0 0 -1 0 841)" d="M439.6492 559.1495L438.085 559.1495" stroke="#000000" stroke-width="0.6441519" fill="none" /><path id="645" transform="matrix(1 0 0 -1 0 841)" d="M439.6492 567.4283L436.5198 567.4283" stroke="#000000" stroke-width="0.6441519" fill="none" /><path id="646" transform="matrix(1 0 0 -1 0 841)" d="M439.6492 385.5962L439.6492 567.4283" stroke="#000000" stroke-width="0.6441519" fill="none" /><g clip-path="url(#46)"><path id="647" transform="matrix(1 0 0 -1 0 841)" d="M188.8198 394.3347L186.3331 393.9669" stroke="#000000" stroke-width="0.2760611" fill="none" /><path id="648" transform="matrix(1 0 0 -1 0 841)" d="M196.8286 395.5298L194.341 395.0702" stroke="#000000" stroke-width="0.2760611" fill="none" /><path id="649" transform="matrix(1 0 0 -1 0 841)" d="M204.8366 396.9089L202.3499 396.3573" stroke="#000000" stroke-width="0.2760611" fill="none" /><path id="650" transform="matrix(1 0 0 -1 0 841)" d="M212.9366 398.5656L210.2657 398.0139" stroke="#000000" stroke-width="0.2760611" fill="none" /><path id="651" transform="matrix(1 0 0 -1 0 841)" d="M220.9445 400.5881L218.2737 399.9446" stroke="#000000" stroke-width="0.2760611" fill="none" /><path id="652" transform="matrix(1 0 0 -1 0 841)" d="M228.9525 403.0704L226.2816 402.1511" stroke="#000000" stroke-width="0.2760611" fill="none" /><path id="653" transform="matrix(1 0 0 -1 0 841)" d="M237.0534 406.107L234.1984 404.9119" stroke="#000000" stroke-width="0.2760611" fill="none" /><path id="654" transform="matrix(1 0 0 -1 0 841)" d="M245.0613 409.8782L242.1143 408.3135" stroke="#000000" stroke-width="0.2760611" fill="none" /><path id="655" transform="matrix(1 0 0 -1 0 841)" d="M253.1613 414.4778L249.9381 412.4525" stroke="#000000" stroke-width="0.2760611" fill="none" /><path id="656" transform="matrix(1 0 0 -1 0 841)" d="M261.3534 420.0877L257.7628 417.5117" stroke="#000000" stroke-width="0.2760611" fill="none" /><path id="657" transform="matrix(1 0 0 -1 0 841)" d="M269.5455 427.0776L265.5866 423.5812" stroke="#000000" stroke-width="0.2760611" fill="none" /><path id="658" transform="matrix(1 0 0 -1 0 841)" d="M277.6454 435.1697L273.5024 430.8469" stroke="#000000" stroke-width="0.2760611" fill="none" /><path id="659" transform="matrix(1 0 0 -1 0 841)" d="M285.8384 444.9195L281.3263 439.2177" stroke="#000000" stroke-width="0.2760611" fill="none" /><path id="660" transform="matrix(1 0 0 -1 0 841)" d="M293.9384 455.4048L289.243 449.2432" stroke="#000000" stroke-width="0.2760611" fill="none" /><path id="661" transform="matrix(1 0 0 -1 0 841)" d="M302.0385 466.7174L297.1589 459.9124" stroke="#000000" stroke-width="0.2760611" fill="none" /><path id="662" transform="matrix(1 0 0 -1 0 841)" d="M310.0464 478.214L305.1669 471.317" stroke="#000000" stroke-width="0.2760611" fill="none" /><path id="663" transform="matrix(1 0 0 -1 0 841)" d="M317.9622 489.2509L313.2668 482.7216" stroke="#000000" stroke-width="0.2760611" fill="none" /><path id="664" transform="matrix(1 0 0 -1 0 841)" d="M325.8791 499.2764L321.3678 493.5746" stroke="#000000" stroke-width="0.2760611" fill="none" /><path id="665" transform="matrix(1 0 0 -1 0 841)" d="M333.7949 508.197L329.4678 503.4135" stroke="#000000" stroke-width="0.2760611" fill="none" /><path id="666" transform="matrix(1 0 0 -1 0 841)" d="M341.6187 515.8322L337.6599 512.0601" stroke="#000000" stroke-width="0.2760611" fill="none" /><path id="667" transform="matrix(1 0 0 -1 0 841)" d="M349.4435 522.2695L345.8519 519.3257" stroke="#000000" stroke-width="0.2760611" fill="none" /><path id="668" transform="matrix(1 0 0 -1 0 841)" d="M357.3593 527.6965L353.9519 525.3954" stroke="#000000" stroke-width="0.2760611" fill="none" /><path id="669" transform="matrix(1 0 0 -1 0 841)" d="M365.2752 532.2032L362.0519 530.4546" stroke="#000000" stroke-width="0.2760611" fill="none" /><path id="670" transform="matrix(1 0 0 -1 0 841)" d="M373.099 535.8806L370.1519 534.5935" stroke="#000000" stroke-width="0.2760611" fill="none" /><path id="671" transform="matrix(1 0 0 -1 0 841)" d="M381.0158 539.0092L378.1608 537.9979" stroke="#000000" stroke-width="0.2760611" fill="none" /><path id="672" transform="matrix(1 0 0 -1 0 841)" d="M388.9316 541.7673L386.2608 540.8479" stroke="#000000" stroke-width="0.2760611" fill="none" /><path id="673" transform="matrix(1 0 0 -1 0 841)" d="M396.9396 544.0675L394.2687 543.332" stroke="#000000" stroke-width="0.2760611" fill="none" /><path id="674" transform="matrix(1 0 0 -1 0 841)" d="M404.9475 546.182L402.2767 545.4465" stroke="#000000" stroke-width="0.2760611" fill="none" /><path id="675" transform="matrix(1 0 0 -1 0 841)" d="M412.9564 548.0208L410.2846 547.3772" stroke="#000000" stroke-width="0.2760611" fill="none" /><path id="676" transform="matrix(1 0 0 -1 0 841)" d="M420.8723 549.4025L418.3856 549.0348" stroke="#000000" stroke-width="0.2760611" fill="none" /><path id="677" transform="matrix(1 0 0 -1 0 841)" d="M428.8802 550.2299L426.3935 550.046" stroke="#000000" stroke-width="0.2760611" fill="none" /><path id="678" transform="matrix(1 0 0 -1 0 841)" d="M181.6404 393.6911C 181.6404 392.5879 182.4681 391.7577 183.4809 391.7577C 184.5847 391.7577 185.4133 392.5879 185.4133 393.6911C 185.4133 394.7024 184.5847 395.5298 183.4809 395.5298C 182.4681 395.5298 181.6404 394.7024 181.6404 393.6911z" stroke="#000000" stroke-width="0.2760611" fill="#000000" fill-rule="evenodd" /><path id="679" transform="matrix(1 0 0 -1 0 841)" d="M189.6484 394.7944C 189.6484 393.6911 190.477 392.8637 191.4888 392.8637C 192.5927 392.8637 193.4213 393.6911 193.4213 394.7944C 193.4213 395.8057 192.5927 396.6331 191.4888 396.6331C 190.477 396.6331 189.6484 395.8057 189.6484 394.7944z" stroke="#000000" stroke-width="0.2760611" fill="#000000" fill-rule="evenodd" /><path id="680" transform="matrix(1 0 0 -1 0 841)" d="M197.6563 395.9895C 197.6563 394.8863 198.4849 394.0589 199.4967 394.0589C 200.6015 394.0589 201.4292 394.8863 201.4292 395.9895C 201.4292 397.0008 200.6015 397.8301 199.4967 397.8301C 198.4849 397.8301 197.6563 397.0008 197.6563 395.9895z" stroke="#000000" stroke-width="0.2760611" fill="#000000" fill-rule="evenodd" /><path id="681" transform="matrix(1 0 0 -1 0 841)" d="M205.6642 397.4605C 205.6642 396.3573 206.4929 395.5298 207.5047 395.5298C 208.6095 395.5298 209.4371 396.3573 209.4371 397.4605C 209.4371 398.4736 208.6095 399.3011 207.5047 399.3011C 206.4929 399.3011 205.6642 398.4736 205.6642 397.4605z" stroke="#000000" stroke-width="0.2760611" fill="#000000" fill-rule="evenodd" /><path id="682" transform="matrix(1 0 0 -1 0 841)" d="M213.6731 399.3011C 213.6731 398.1978 214.5008 397.3686 215.5135 397.3686C 216.6174 397.3686 217.446 398.1978 217.446 399.3011C 217.446 400.3123 216.6174 401.1398 215.5135 401.1398C 214.5008 401.1398 213.6731 400.3123 213.6731 399.3011z" stroke="#000000" stroke-width="0.2760611" fill="#000000" fill-rule="evenodd" /><path id="683" transform="matrix(1 0 0 -1 0 841)" d="M221.681 401.4156C 221.681 400.3123 222.5087 399.4849 223.5215 399.4849C 224.6253 399.4849 225.4539 400.3123 225.4539 401.4156C 225.4539 402.4268 224.6253 403.257 223.5215 403.257C 222.5087 403.257 221.681 402.4268 221.681 401.4156z" stroke="#000000" stroke-width="0.2760611" fill="#000000" fill-rule="evenodd" /><path id="684" transform="matrix(1 0 0 -1 0 841)" d="M229.689 403.9925C 229.689 402.8865 230.5176 402.0591 231.5294 402.0591C 232.6333 402.0591 233.4619 402.8865 233.4619 403.9925C 233.4619 405.0038 232.6333 405.8312 231.5294 405.8312C 230.5176 405.8312 229.689 405.0038 229.689 403.9925z" stroke="#000000" stroke-width="0.2760611" fill="#000000" fill-rule="evenodd" /><path id="685" transform="matrix(1 0 0 -1 0 841)" d="M237.6969 407.2103C 237.6969 406.107 238.5255 405.2796 239.5373 405.2796C 240.6421 405.2796 241.4698 406.107 241.4698 407.2103C 241.4698 408.2216 240.6421 409.0508 239.5373 409.0508C 238.5255 409.0508 237.6969 408.2216 237.6969 407.2103z" stroke="#000000" stroke-width="0.2760611" fill="#000000" fill-rule="evenodd" /><path id="686" transform="matrix(1 0 0 -1 0 841)" d="M245.6137 411.1653C 245.6137 410.0621 246.4414 409.2347 247.4541 409.2347C 248.558 409.2347 249.3866 410.0621 249.3866 411.1653C 249.3866 412.1766 248.558 413.0041 247.4541 413.0041C 246.4414 413.0041 245.6137 412.1766 245.6137 411.1653z" stroke="#000000" stroke-width="0.2760611" fill="#000000" fill-rule="evenodd" /><path id="687" transform="matrix(1 0 0 -1 0 841)" d="M253.6216 415.9488C 253.6216 414.8455 254.4493 414.0154 255.4621 414.0154C 256.5659 414.0154 257.3945 414.8455 257.3945 415.9488C 257.3945 416.9601 256.5659 417.7875 255.4621 417.7875C 254.4493 417.7875 253.6216 416.9601 253.6216 415.9488z" stroke="#000000" stroke-width="0.2760611" fill="#000000" fill-rule="evenodd" /><path id="688" transform="matrix(1 0 0 -1 0 841)" d="M261.6296 421.8345C 261.6296 420.7312 262.4582 419.902 263.47 419.902C 264.5739 419.902 265.4025 420.7312 265.4025 421.8345C 265.4025 422.8458 264.5739 423.6732 263.47 423.6732C 262.4582 423.6732 261.6296 422.8458 261.6296 421.8345z" stroke="#000000" stroke-width="0.2760611" fill="#000000" fill-rule="evenodd" /><path id="689" transform="matrix(1 0 0 -1 0 841)" d="M269.6375 429.0082C 269.6375 427.905 270.4661 427.0776 271.4779 427.0776C 272.5827 427.0776 273.4104 427.905 273.4104 429.0082C 273.4104 430.0195 272.5827 430.8469 271.4779 430.8469C 270.4661 430.8469 269.6375 430.0195 269.6375 429.0082z" stroke="#000000" stroke-width="0.2760611" fill="#000000" fill-rule="evenodd" /><path id="690" transform="matrix(1 0 0 -1 0 841)" d="M277.6454 437.1951C 277.6454 436.0891 278.4741 435.2617 279.4859 435.2617C 280.5907 435.2617 281.4183 436.0891 281.4183 437.1951C 281.4183 438.2064 280.5907 439.0338 279.4859 439.0338C 278.4741 439.0338 277.6454 438.2064 277.6454 437.1951z" stroke="#000000" stroke-width="0.2760611" fill="#000000" fill-rule="evenodd" /><path id="691" transform="matrix(1 0 0 -1 0 841)" d="M285.6543 447.126C 285.6543 446.0227 286.482 445.1953 287.4947 445.1953C 288.5986 445.1953 289.4272 446.0227 289.4272 447.126C 289.4272 448.14 288.5986 448.9674 287.4947 448.9674C 286.482 448.9674 285.6543 448.14 285.6543 447.126z" stroke="#000000" stroke-width="0.2760611" fill="#000000" fill-rule="evenodd" /><path id="692" transform="matrix(1 0 0 -1 0 841)" d="M293.6622 457.7032C 293.6622 456.5999 294.4899 455.7725 295.5027 455.7725C 296.6065 455.7725 297.4351 456.5999 297.4351 457.7032C 297.4351 458.7144 296.6065 459.5446 295.5027 459.5446C 294.4899 459.5446 293.6622 458.7144 293.6622 457.7032z" stroke="#000000" stroke-width="0.2760611" fill="#000000" fill-rule="evenodd" /><path id="693" transform="matrix(1 0 0 -1 0 841)" d="M301.6702 469.1078C 301.6702 468.0045 302.4988 467.1771 303.5106 467.1771C 304.6154 467.1771 305.4431 468.0045 305.4431 469.1078C 305.4431 470.119 304.6154 470.9492 303.5106 470.9492C 302.4988 470.9492 301.6702 470.119 301.6702 469.1078z" stroke="#000000" stroke-width="0.2760611" fill="#000000" fill-rule="evenodd" /><path id="694" transform="matrix(1 0 0 -1 0 841)" d="M309.6781 480.6043C 309.6781 479.5011 310.5067 478.6737 311.5185 478.6737C 312.6233 478.6737 313.451 479.5011 313.451 480.6043C 313.451 481.6183 312.6233 482.4458 311.5185 482.4458C 310.5067 482.4458 309.6781 481.6183 309.6781 480.6043z" stroke="#000000" stroke-width="0.2760611" fill="#000000" fill-rule="evenodd" /><path id="695" transform="matrix(1 0 0 -1 0 841)" d="M317.687 491.5493C 317.687 490.446 318.5146 489.6186 319.5274 489.6186C 320.6313 489.6186 321.4589 490.446 321.4589 491.5493C 321.4589 492.5605 320.6313 493.3907 319.5274 493.3907C 318.5146 493.3907 317.687 492.5605 317.687 491.5493z" stroke="#000000" stroke-width="0.2760611" fill="#000000" fill-rule="evenodd" /><path id="696" transform="matrix(1 0 0 -1 0 841)" d="M325.6949 501.4829C 325.6949 500.3797 326.5226 499.5522 327.5353 499.5522C 328.6392 499.5522 329.4678 500.3797 329.4678 501.4829C 329.4678 502.4942 328.6392 503.3216 327.5353 503.3216C 326.5226 503.3216 325.6949 502.4942 325.6949 501.4829z" stroke="#000000" stroke-width="0.2760611" fill="#000000" fill-rule="evenodd" /><path id="697" transform="matrix(1 0 0 -1 0 841)" d="M333.7029 510.3133C 333.7029 509.2083 334.5305 508.3808 335.5433 508.3808C 336.6472 508.3808 337.4757 509.2083 337.4757 510.3133C 337.4757 511.3246 336.6472 512.152 335.5433 512.152C 334.5305 512.152 333.7029 511.3246 333.7029 510.3133z" stroke="#000000" stroke-width="0.2760611" fill="#000000" fill-rule="evenodd" /><path id="698" transform="matrix(1 0 0 -1 0 841)" d="M341.7108 517.7629C 341.7108 516.6597 342.5394 515.8322 343.5512 515.8322C 344.656 515.8322 345.4837 516.6597 345.4837 517.7629C 345.4837 518.7742 344.656 519.6016 343.5512 519.6016C 342.5394 519.6016 341.7108 518.7742 341.7108 517.7629z" stroke="#000000" stroke-width="0.2760611" fill="#000000" fill-rule="evenodd" /><path id="699" transform="matrix(1 0 0 -1 0 841)" d="M349.7187 524.0164C 349.7187 522.9131 350.5473 522.0857 351.5591 522.0857C 352.6639 522.0857 353.4916 522.9131 353.4916 524.0164C 353.4916 525.0276 352.6639 525.855 351.5591 525.855C 350.5473 525.855 349.7187 525.0276 349.7187 524.0164z" stroke="#000000" stroke-width="0.2760611" fill="#000000" fill-rule="evenodd" /><path id="700" transform="matrix(1 0 0 -1 0 841)" d="M357.7276 529.2594C 357.7276 528.1562 358.5552 527.3287 359.568 527.3287C 360.6719 527.3287 361.5005 528.1562 361.5005 529.2594C 361.5005 530.2707 360.6719 531.0981 359.568 531.0981C 358.5552 531.0981 357.7276 530.2707 357.7276 529.2594z" stroke="#000000" stroke-width="0.2760611" fill="#000000" fill-rule="evenodd" /><path id="701" transform="matrix(1 0 0 -1 0 841)" d="M365.7355 533.5822C 365.7355 532.479 366.5632 531.6497 367.5759 531.6497C 368.6798 531.6497 369.5084 532.479 369.5084 533.5822C 369.5084 534.5935 368.6798 535.421 367.5759 535.421C 366.5632 535.421 365.7355 534.5935 365.7355 533.5822z" stroke="#000000" stroke-width="0.2760611" fill="#000000" fill-rule="evenodd" /><path id="702" transform="matrix(1 0 0 -1 0 841)" d="M373.6514 537.0758C 373.6514 535.9725 374.48 535.1451 375.4918 535.1451C 376.5956 535.1451 377.4243 535.9725 377.4243 537.0758C 377.4243 538.0898 376.5956 538.9172 375.4918 538.9172C 374.48 538.9172 373.6514 538.0898 373.6514 537.0758z" stroke="#000000" stroke-width="0.2760611" fill="#000000" fill-rule="evenodd" /><path id="703" transform="matrix(1 0 0 -1 0 841)" d="M381.6593 540.1124C 381.6593 539.0092 382.4879 538.1818 383.4997 538.1818C 384.6045 538.1818 385.4322 539.0092 385.4322 540.1124C 385.4322 541.1237 384.6045 541.9511 383.4997 541.9511C 382.4879 541.9511 381.6593 541.1237 381.6593 540.1124z" stroke="#000000" stroke-width="0.2760611" fill="#000000" fill-rule="evenodd" /><path id="704" transform="matrix(1 0 0 -1 0 841)" d="M389.6682 542.6866C 389.6682 541.5834 390.4958 540.756 391.5086 540.756C 392.6124 540.756 393.4401 541.5834 393.4401 542.6866C 393.4401 543.6998 392.6124 544.5272 391.5086 544.5272C 390.4958 544.5272 389.6682 543.6998 389.6682 542.6866z" stroke="#000000" stroke-width="0.2760611" fill="#000000" fill-rule="evenodd" /><path id="705" transform="matrix(1 0 0 -1 0 841)" d="M397.6761 544.8949C 397.6761 543.7917 398.5038 542.9624 399.5165 542.9624C 400.6204 542.9624 401.449 543.7917 401.449 544.8949C 401.449 545.9062 400.6204 546.7336 399.5165 546.7336C 398.5038 546.7336 397.6761 545.9062 397.6761 544.8949z" stroke="#000000" stroke-width="0.2760611" fill="#000000" fill-rule="evenodd" /><path id="706" transform="matrix(1 0 0 -1 0 841)" d="M405.684 546.9175C 405.684 545.8143 406.5126 544.9868 407.5245 544.9868C 408.6283 544.9868 409.4569 545.8143 409.4569 546.9175C 409.4569 547.9288 408.6283 548.7562 407.5245 548.7562C 406.5126 548.7562 405.684 547.9288 405.684 546.9175z" stroke="#000000" stroke-width="0.2760611" fill="#000000" fill-rule="evenodd" /><path id="707" transform="matrix(1 0 0 -1 0 841)" d="M413.692 548.6643C 413.692 547.561 414.5206 546.7336 415.5324 546.7336C 416.6372 546.7336 417.4649 547.561 417.4649 548.6643C 417.4649 549.6783 416.6372 550.5057 415.5324 550.5057C 414.5206 550.5057 413.692 549.6783 413.692 548.6643z" stroke="#000000" stroke-width="0.2760611" fill="#000000" fill-rule="evenodd" /><path id="708" transform="matrix(1 0 0 -1 0 841)" d="M421.7 549.9541C 421.7 548.8509 422.5285 548.0208 423.5403 548.0208C 424.6451 548.0208 425.4728 548.8509 425.4728 549.9541C 425.4728 550.9654 424.6451 551.7928 423.5403 551.7928C 422.5285 551.7928 421.7 550.9654 421.7 549.9541z" stroke="#000000" stroke-width="0.2760611" fill="#000000" fill-rule="evenodd" /><path id="709" transform="matrix(1 0 0 -1 0 841)" d="M429.7088 550.5057C 429.7088 549.4025 430.5364 548.5723 431.5492 548.5723C 432.6531 548.5723 433.4817 549.4025 433.4817 550.5057C 433.4817 551.517 432.6531 552.3444 431.5492 552.3444C 430.5364 552.3444 429.7088 551.517 429.7088 550.5057z" stroke="#000000" stroke-width="0.2760611" fill="#000000" fill-rule="evenodd" /></g><path id="710" transform="matrix(1 0 0 -1 0 841)" d="" stroke="none" fill="#000000" fill-rule="evenodd" /><path id="711" transform="matrix(1 0 0 -1 0 841)" d="M153.7489 438.1906L147.6855 438.1906L147.6855 438.1906L147.6855 439.3966L147.6855 439.3966L151.9787 440.8298C 152.3785 440.9619 152.6777 441.0583 152.8762 441.1189C 152.6556 441.1877 152.3316 441.2951 151.9043 441.441L151.9043 441.441L147.6855 442.8907L147.6855 442.8907L147.6855 443.9687L147.6855 443.9687L153.7489 443.9687L153.7489 443.9687L153.7489 443.1964L153.7489 443.1964L148.674 443.1963L148.674 443.1963L153.7489 441.4369L153.7489 441.4369L153.7489 440.7141L153.7489 440.7141L148.5872 438.963L148.5872 438.963L153.7489 438.963z" stroke="none" fill="#000000" fill-rule="evenodd" /><path id="712" transform="matrix(1 0 0 -1 0 841)" d="M153.2071 448.0539C 153.6759 447.5032 153.8482 447.0228 153.8482 446.439C 153.8482 445.4753 153.3243 444.9398 152.5909 444.9398C 152.3758 444.9398 152.1793 444.9886 152.0015 445.0864C 151.8236 445.1841 151.6809 445.3122 151.5734 445.4705C 151.4659 445.6288 151.3845 445.8071 151.3294 446.0054C 151.2908 446.1513 151.2535 446.3716 151.2177 446.6662C 151.146 447.2664 151.0605 447.7084 150.9613 447.992C 150.8592 447.9947 150.7944 447.9961 150.7669 447.9961C 150.4635 447.9961 150.2499 447.9259 150.1258 447.7855C 149.9576 447.5955 149.8735 447.3132 149.8735 446.9388C 149.8735 446.2394 150.0858 445.9544 150.709 445.7947L150.709 445.7947L150.6097 445.0678C 150.2981 445.1339 150.0465 445.2427 149.8549 445.3941C 149.6632 445.5455 149.5157 445.7644 149.4123 446.0508C 149.3089 446.3372 149.2572 446.6689 149.2572 447.0461C 149.2572 447.4206 149.3013 447.7249 149.3896 447.9589C 149.4778 448.193 149.5888 448.3651 149.7225 448.4752C 149.8562 448.5853 150.0251 448.6624 150.2292 448.7065C 150.356 448.7313 150.5849 448.7437 150.9158 448.7437L150.9158 448.7437L151.9084 448.7437C 153.2926 448.7437 153.4125 448.7918 153.7489 448.9791L153.7489 448.9791L153.7489 448.2026C 153.5945 448.1255 153.4139 448.0759 153.2071 448.0539zM151.5444 447.992C 151.6547 447.7221 151.7485 447.3174 151.8257 446.7777C 151.8698 446.472 151.9194 446.2559 151.9746 446.1293C 152.0297 446.0026 152.1104 445.9048 152.2165 445.836C 152.3227 445.7672 152.4406 445.7328 152.5702 445.7328C 152.9672 445.7328 153.265 446.0384 153.265 446.6166C 153.265 447.1893 152.9976 447.6629 152.5619 447.8722C 152.3937 447.952 152.1455 447.992 151.8174 447.992z" stroke="none" fill="#000000" fill-rule="evenodd" /><path id="713" transform="matrix(1 0 0 -1 0 841)" d="M155.4406 449.8616L154.7416 449.779C 154.7857 449.9415 154.8078 450.0833 154.8078 450.2044C 154.8078 450.5349 154.6919 450.718 154.4934 450.8446C 154.419 450.8914 154.2342 450.9671 153.9392 451.0718C 153.8978 451.0855 153.8372 451.1075 153.7572 451.1378L153.7572 451.1378L149.3565 449.4734L149.3565 449.4734L149.3565 450.2747L149.3565 450.2747L151.9001 451.1874C 152.2227 451.3058 152.5619 451.4118 152.9176 451.5054C 152.5757 451.5908 152.242 451.6927 151.9167 451.811L151.9167 451.811L149.3565 452.7486L149.3565 452.7486L149.3565 453.492L149.3565 453.492L153.8234 451.8234C 154.3059 451.6445 154.6382 451.5054 154.8202 451.4063C 155.311 451.142 155.5316 450.8143 155.5316 450.3407C 155.5316 450.1975 155.5012 450.0378 155.4406 449.8616z" stroke="none" fill="#000000" fill-rule="evenodd" /><path id="714" transform="matrix(1 0 0 -1 0 841)" d="M152.3344 457.1266L152.4295 457.8948C 153.3284 457.6525 153.8482 456.9847 153.8482 455.966C 153.8482 454.6829 153.0182 453.8761 151.5899 453.8761C 150.112 453.8761 149.2572 454.7132 149.2572 455.9247C 149.2572 457.0977 150.0941 457.9196 151.5444 457.9196C 151.5885 457.9196 151.6547 457.9182 151.743 457.9154L151.743 457.9154L151.743 454.6443C 152.708 454.6994 153.2361 455.2377 153.2361 455.9701C 153.2361 456.5153 152.9631 456.9008 152.3344 457.1266zM151.1308 454.6856L151.1308 457.1348C 150.7613 457.1018 150.4842 457.0081 150.2995 456.854C 150.0127 456.6172 149.8693 456.3102 149.8693 455.9329C 149.8693 455.2501 150.3643 454.7352 151.1308 454.6856z" stroke="none" fill="#000000" fill-rule="evenodd" /><path id="715" transform="matrix(1 0 0 -1 0 841)" d="M153.7489 458.7933L149.3565 458.7933L149.3565 458.7933L149.3565 459.4623L149.3565 459.4623L150.0224 459.4623C 149.3992 459.8038 149.2572 460.0653 149.2572 460.4123C 149.2572 460.6628 149.3372 460.9175 149.4971 461.1763L149.4971 461.1763L150.1878 460.9203C 150.0803 460.7386 150.0265 460.5568 150.0265 460.3751C 150.0265 460.0502 150.2333 459.7707 150.5807 459.6606C 150.8454 459.578 151.135 459.5367 151.4493 459.5367L151.4493 459.5367L153.7489 459.5367z" stroke="none" fill="#000000" fill-rule="evenodd" /><path id="716" transform="matrix(1 0 0 -1 0 841)" d="" stroke="none" fill="#000000" fill-rule="evenodd" /><path id="717" transform="matrix(1 0 0 -1 0 841)" d="M153.7489 464.706L153.7489 464.0163L153.7489 464.0163L147.6855 464.0163L147.6855 464.0163L147.6855 464.7597L147.6855 464.7597L149.8487 464.7597C 149.4544 465.0736 149.2572 465.4742 149.2572 465.9616C 149.2572 466.2314 149.3117 466.4868 149.4206 466.7278C 149.5295 466.9687 149.6825 467.1669 149.8797 467.3225C 150.0768 467.4781 150.3147 467.5999 150.5931 467.688C 150.8716 467.7761 151.1694 467.8202 151.4865 467.8202C 152.992 467.8202 153.8482 466.9652 153.8482 465.9244C 153.8482 465.4068 153.6317 465.0006 153.1988 464.706zM151.5196 464.6978C 152.0463 464.6978 152.4268 464.7693 152.6612 464.9125C 153.0444 465.1466 153.2361 465.4632 153.2361 465.8625C 153.2361 466.5123 152.668 467.0602 151.5486 467.0602C 150.4015 467.0602 149.8693 466.5398 149.8693 465.8955C 149.8693 465.2457 150.4498 464.6978 151.5196 464.6978z" stroke="none" fill="#000000" fill-rule="evenodd" /><path id="718" transform="matrix(1 0 0 -1 0 841)" d="M151.5527 468.4467C 150.7393 468.4467 150.1368 468.6724 149.7453 469.124C 149.4199 469.5012 149.2572 469.9611 149.2572 470.5035C 149.2572 471.7095 150.0954 472.5562 151.4907 472.5562C 152.0559 472.5562 152.5005 472.4715 152.8245 472.3022C 153.1485 472.1328 153.4001 471.8864 153.5793 471.5629C 153.7586 471.2393 153.8482 470.8862 153.8482 470.5035C 153.8482 469.2755 153.0362 468.4467 151.5527 468.4467zM151.5527 469.2107C 152.6777 469.2107 153.2361 469.76 153.2361 470.5035C 153.2361 471.2414 152.6805 471.7921 151.5279 471.7921C 150.4415 471.7921 149.8735 471.2359 149.8735 470.5035C 149.8735 469.76 150.4277 469.2107 151.5527 469.2107z" stroke="none" fill="#000000" fill-rule="evenodd" /><path id="719" transform="matrix(1 0 0 -1 0 841)" d="M153.7489 473.4009L149.3565 473.4009L149.3565 473.4009L149.3565 474.07L149.3565 474.07L149.981 474.07C 149.4985 474.3922 149.2572 474.8575 149.2572 475.466C 149.2572 475.7303 149.3048 475.9733 149.3999 476.195C 149.495 476.4167 149.6198 476.5826 149.7742 476.6927C 149.9286 476.8028 150.112 476.8799 150.3243 476.924C 150.4622 476.9515 150.7034 476.9653 151.0481 476.9653L151.0481 476.9653L153.7489 476.9653L153.7489 476.9653L153.7489 476.2218L153.7489 476.2218L151.0771 476.2218C 150.7738 476.2218 150.547 476.1929 150.3967 476.1351C 150.2464 476.0773 150.1265 475.9747 150.0368 475.8274C 149.9472 475.6801 149.9024 475.5073 149.9024 475.3091C 149.9024 474.6758 150.225 474.1444 151.35 474.1444L151.35 474.1444L153.7489 474.1444z" stroke="none" fill="#000000" fill-rule="evenodd" /><path id="720" transform="matrix(1 0 0 -1 0 841)" d="M153.7489 480.9496L153.1947 480.9496C 153.6304 480.6714 153.8482 480.2626 153.8482 479.7229C 153.8482 479.3732 153.7517 479.0518 153.5587 478.7585C 153.3657 478.4653 153.0961 478.2381 152.7501 478.0771C 152.404 477.916 152.0063 477.8354 151.5568 477.8354C 151.1184 477.8354 150.7207 477.9084 150.3636 478.0543C 150.0065 478.2003 149.7328 478.4192 149.5426 478.711C 149.3523 479.0029 149.2572 479.3292 149.2572 479.6899C 149.2572 480.2185 149.5026 480.6412 149.8611 480.9L149.8611 480.9L147.6855 480.9L147.6855 480.9L147.6855 481.6393L147.6855 481.6393L153.7489 481.6393zM151.5568 478.5995C 152.6818 478.5995 153.2361 479.1488 153.2361 479.7932C 153.2361 480.4429 152.7108 480.962 151.6189 480.962C 150.4167 480.962 149.8735 480.4374 149.8735 479.7601C 149.8735 479.0992 150.3932 478.5995 151.5568 478.5995z" stroke="none" fill="#000000" fill-rule="evenodd" /><path id="721" transform="matrix(1 0 0 -1 0 841)" d="" stroke="none" fill="#000000" fill-rule="evenodd" /><path id="722" transform="matrix(1 0 0 -1 0 841)" d="M151.5527 484.8816C 150.7393 484.8816 150.1368 485.1074 149.7453 485.559C 149.4199 485.9362 149.2572 486.396 149.2572 486.9384C 149.2572 488.1444 150.0954 488.9911 151.4907 488.9911C 152.0559 488.9911 152.5005 488.9064 152.8245 488.7371C 153.1485 488.5677 153.4001 488.3213 153.5793 487.9978C 153.7586 487.6743 153.8482 487.3212 153.8482 486.9384C 153.8482 485.7104 153.0362 484.8816 151.5527 484.8816zM151.5527 485.6457C 152.6777 485.6457 153.2361 486.195 153.2361 486.9384C 153.2361 487.6763 152.6805 488.227 151.5279 488.227C 150.4415 488.227 149.8735 487.6708 149.8735 486.9384C 149.8735 486.195 150.4277 485.6457 151.5527 485.6457z" stroke="none" fill="#000000" fill-rule="evenodd" /><path id="723" transform="matrix(1 0 0 -1 0 841)" d="M153.7489 489.853L149.3565 489.853L149.3565 489.853L149.3565 490.5221L149.3565 490.5221L150.0224 490.5221C 149.3992 490.8635 149.2572 491.1251 149.2572 491.472C 149.2572 491.7226 149.3372 491.9773 149.4971 492.2361L149.4971 492.2361L150.1878 491.98C 150.0803 491.7983 150.0265 491.6166 150.0265 491.4348C 150.0265 491.1099 150.2333 490.8305 150.5807 490.7203C 150.8454 490.6377 151.135 490.5964 151.4493 490.5964L151.4493 490.5964L153.7489 490.5964z" stroke="none" fill="#000000" fill-rule="evenodd" /><path id="724" transform="matrix(1 0 0 -1 0 841)" d="M153.7489 495.5236L153.1947 495.5236C 153.6304 495.2455 153.8482 494.8366 153.8482 494.297C 153.8482 493.9473 153.7517 493.6258 153.5587 493.3326C 153.3657 493.0394 153.0961 492.8122 152.7501 492.6511C 152.404 492.4901 152.0063 492.4095 151.5568 492.4095C 151.1184 492.4095 150.7207 492.4825 150.3636 492.6284C 150.0065 492.7743 149.7328 492.9932 149.5426 493.2851C 149.3523 493.577 149.2572 493.9033 149.2572 494.2639C 149.2572 494.7926 149.5026 495.2152 149.8611 495.4741L149.8611 495.4741L147.6855 495.4741L147.6855 495.4741L147.6855 496.2134L147.6855 496.2134L153.7489 496.2134zM151.5568 493.1736C 152.6818 493.1736 153.2361 493.7229 153.2361 494.3672C 153.2361 495.017 152.7108 495.536 151.6189 495.536C 150.4167 495.536 149.8735 495.0115 149.8735 494.3341C 149.8735 493.6733 150.3932 493.1736 151.5568 493.1736z" stroke="none" fill="#000000" fill-rule="evenodd" /><path id="725" transform="matrix(1 0 0 -1 0 841)" d="M152.3344 500.3835L152.4295 501.1517C 153.3284 500.9094 153.8482 500.2417 153.8482 499.223C 153.8482 497.9398 153.0182 497.1331 151.5899 497.1331C 150.112 497.1331 149.2572 497.9702 149.2572 499.1816C 149.2572 500.3546 150.0941 501.1765 151.5444 501.1765C 151.5885 501.1765 151.6547 501.1751 151.743 501.1724L151.743 501.1724L151.743 497.9013C 152.708 497.9564 153.2361 498.4947 153.2361 499.2271C 153.2361 499.7723 152.9631 500.1577 152.3344 500.3835zM151.1308 497.9426L151.1308 500.3918C 150.7613 500.3588 150.4842 500.2651 150.2995 500.1109C 150.0127 499.8741 149.8693 499.5671 149.8693 499.1899C 149.8693 498.507 150.3643 497.9922 151.1308 497.9426z" stroke="none" fill="#000000" fill-rule="evenodd" /><path id="726" transform="matrix(1 0 0 -1 0 841)" d="M153.7489 502.0756L149.3565 502.0756L149.3565 502.0756L149.3565 502.7447L149.3565 502.7447L150.0224 502.7447C 149.3992 503.0861 149.2572 503.3477 149.2572 503.6946C 149.2572 503.9452 149.3372 504.1999 149.4971 504.4587L149.4971 504.4587L150.1878 504.2026C 150.0803 504.0209 150.0265 503.8392 150.0265 503.6574C 150.0265 503.3325 150.2333 503.053 150.5807 502.9429C 150.8454 502.8603 151.135 502.819 151.4493 502.819L151.4493 502.819L153.7489 502.819z" stroke="none" fill="#000000" fill-rule="evenodd" /><path id="735" transform="matrix(1 0 0 -1 0 841)" d="M211.9248 534.4097L218.5499 534.4097" stroke="#000000" stroke-width="0.2760611" fill="none" /><path id="736" transform="matrix(1 0 0 -1 0 841)" d="M225.7301 534.4097L232.358 534.4097" stroke="#000000" stroke-width="0.2760611" fill="none" /><path id="737" transform="matrix(1 0 0 -1 0 841)" d="M220.2089 534.4097C 220.2089 533.3064 221.0366 532.479 222.0493 532.479C 223.1532 532.479 223.9818 533.3064 223.9818 534.4097C 223.9818 535.421 223.1532 536.2484 222.0493 536.2484C 221.0366 536.2484 220.2089 535.421 220.2089 534.4097z" stroke="#000000" stroke-width="0.2760611" fill="#000000" fill-rule="evenodd" /><path id="744" transform="matrix(1 0 0 -1 0 841)" d="M313.0827 436.0891L291.3615 445.9308" stroke="#FF0000" stroke-width="1.196311" fill="none" /><path id="745" transform="matrix(1 0 0 -1 0 841)" d="M291.3615 445.9308L297.3431 444.8276L297.3431 444.8276L296.6986 443.5405L296.6986 443.5405L296.1471 442.1596L296.1471 442.1596L291.3615 445.9308z" stroke="#FF0000" stroke-width="1.196311" fill="#FF0000" fill-rule="evenodd" /></g></g><g clip-path="url(#47)"></g><g clip-path="url(#48)"></g><g clip-path="url(#49)"></g><g clip-path="url(#50)"></g><g clip-path="url(#51)"></g><g clip-path="url(#52)"></g><g clip-path="url(#53)"></g><g clip-path="url(#54)"></g><g clip-path="url(#55)"></g><g clip-path="url(#56)"></g><g clip-path="url(#57)"></g><g clip-path="url(#58)"></g><g clip-path="url(#59)"></g><g clip-path="url(#60)"></g><g clip-path="url(#61)"></g><g clip-path="url(#62)"></g><g clip-path="url(#63)"></g><g clip-path="url(#64)"></g><g clip-path="url(#65)"></g><g clip-path="url(#66)"></g><g clip-path="url(#67)"></g><g clip-path="url(#68)"></g><g clip-path="url(#69)"></g><g clip-path="url(#70)"></g><g clip-path="url(#71)"></g><g clip-path="url(#72)"></g><g clip-path="url(#73)"></g><g clip-path="url(#74)"></g><g clip-path="url(#75)"></g><g clip-path="url(#76)"></g><g clip-path="url(#77)"></g><g clip-path="url(#78)"></g></g></g></svg>