<svg xmlns="http://www.w3.org/2000/svg" xmlns:xlink="http://www.w3.org/1999/xlink" id="body_647" preserveAspectRatio="xMinYMin meet" viewBox="0 0 793 1121"><defs><clipPath id="1"><path id="" clip-rule="evenodd" d="M0 841L0 -0.9199829L0 -0.9199829L595.32 -0.9199829L595.32 -0.9199829L595.32 841L595.32 841L0 841z" /></clipPath><clipPath id="2"><path id="" clip-rule="evenodd" d="M0 840.9999L595.32 840.9999L595.32 840.9999L595.32 -0.9200439L595.32 -0.9200439L0 -0.9200439z" /></clipPath><clipPath id="3"><path id="" clip-rule="evenodd" d="M8.871E-06 841L595.32 841L595.32 841L595.32 -0.9199829L595.32 -0.9199829L8.871E-06 -0.9199829z" /></clipPath><clipPath id="4"><path id="" clip-rule="evenodd" d="M8.871E-06 841L595.32 841L595.32 841L595.32 -0.9199829L595.32 -0.9199829L8.871E-06 -0.9199829z" /></clipPath><clipPath id="5"><path id="" clip-rule="evenodd" d="M8.871E-06 841L595.32 841L595.32 841L595.32 -0.9199829L595.32 -0.9199829L8.871E-06 -0.9199829z" /></clipPath><clipPath id="6"><path id="" clip-rule="evenodd" d="M8.871E-06 841L595.32 841L595.32 841L595.32 -0.9199829L595.32 -0.9199829L8.871E-06 -0.9199829z" /></clipPath><clipPath id="7"><path id="" clip-rule="evenodd" d="M8.871E-06 841L595.32 841L595.32 841L595.32 -0.9199829L595.32 -0.9199829L8.871E-06 -0.9199829z" /></clipPath><clipPath id="8"><path id="" clip-rule="evenodd" d="M8.871E-06 841L595.32 841L595.32 841L595.32 -0.9199829L595.32 -0.9199829L8.871E-06 -0.9199829z" /></clipPath><clipPath id="9"><path id="" clip-rule="evenodd" d="M8.871E-06 841L595.32 841L595.32 841L595.32 -0.9199829L595.32 -0.9199829L8.871E-06 -0.9199829z" /></clipPath><clipPath id="10"><path id="" clip-rule="evenodd" d="M8.871E-06 841L595.32 841L595.32 841L595.32 -0.9199829L595.32 -0.9199829L8.871E-06 -0.9199829z" /></clipPath><clipPath id="11"><path id="" clip-rule="evenodd" d="M8.871E-06 841L595.32 841L595.32 841L595.32 -0.9199829L595.32 -0.9199829L8.871E-06 -0.9199829z" /></clipPath><clipPath id="12"><path id="" clip-rule="evenodd" d="M8.871E-06 841L595.32 841L595.32 841L595.32 -0.9199829L595.32 -0.9199829L8.871E-06 -0.9199829z" /></clipPath><clipPath id="13"><path id="" clip-rule="evenodd" d="M8.871E-06 841L595.32 841L595.32 841L595.32 -0.9199829L595.32 -0.9199829L8.871E-06 -0.9199829z" /></clipPath><clipPath id="14"><path id="" clip-rule="evenodd" d="M8.871E-06 841L595.32 841L595.32 841L595.32 -0.9199829L595.32 -0.9199829L8.871E-06 -0.9199829z" /></clipPath><clipPath id="15"><path id="" clip-rule="evenodd" d="M8.871E-06 841L595.32 841L595.32 841L595.32 -0.9199829L595.32 -0.9199829L8.871E-06 -0.9199829z" /></clipPath><clipPath id="16"><path id="" clip-rule="evenodd" d="M8.871E-06 841L595.32 841L595.32 841L595.32 -0.9199829L595.32 -0.9199829L8.871E-06 -0.9199829z" /></clipPath><clipPath id="17"><path id="" clip-rule="evenodd" d="M8.871E-06 841L595.32 841L595.32 841L595.32 -0.9199829L595.32 -0.9199829L8.871E-06 -0.9199829z" /></clipPath><clipPath id="18"><path id="" clip-rule="evenodd" d="M8.871E-06 841L595.32 841L595.32 841L595.32 -0.9199829L595.32 -0.9199829L8.871E-06 -0.9199829z" /></clipPath><clipPath id="19"><path id="" clip-rule="evenodd" d="M8.871E-06 841L595.32 841L595.32 841L595.32 -0.9199829L595.32 -0.9199829L8.871E-06 -0.9199829z" /></clipPath><clipPath id="20"><path id="" clip-rule="evenodd" d="M8.871E-06 841L595.32 841L595.32 841L595.32 -0.9199829L595.32 -0.9199829L8.871E-06 -0.9199829z" /></clipPath><clipPath id="21"><path id="" clip-rule="evenodd" d="M8.871E-06 841L595.32 841L595.32 841L595.32 -0.9199829L595.32 -0.9199829L8.871E-06 -0.9199829z" /></clipPath><clipPath id="22"><path id="" clip-rule="evenodd" d="M8.871E-06 841L595.32 841L595.32 841L595.32 -0.9199829L595.32 -0.9199829L8.871E-06 -0.9199829z" /></clipPath><clipPath id="23"><path id="" clip-rule="evenodd" d="M8.871E-06 841L595.32 841L595.32 841L595.32 -0.9199829L595.32 -0.9199829L8.871E-06 -0.9199829z" /></clipPath><clipPath id="24"><path id="" clip-rule="evenodd" d="M8.871E-06 841L595.32 841L595.32 841L595.32 -0.9199829L595.32 -0.9199829L8.871E-06 -0.9199829z" /></clipPath><clipPath id="25"><path id="" clip-rule="evenodd" d="M8.871E-06 841L595.32 841L595.32 841L595.32 -0.9199829L595.32 -0.9199829L8.871E-06 -0.9199829z" /></clipPath><clipPath id="26"><path id="" clip-rule="evenodd" d="M8.871E-06 841L595.32 841L595.32 841L595.32 -0.9199829L595.32 -0.9199829L8.871E-06 -0.9199829z" /></clipPath><clipPath id="27"><path id="" clip-rule="evenodd" d="M8.871E-06 841L595.32 841L595.32 841L595.32 -0.9199829L595.32 -0.9199829L8.871E-06 -0.9199829z" /></clipPath><clipPath id="28"><path id="" clip-rule="evenodd" d="M8.871E-06 841L595.32 841L595.32 841L595.32 -0.9199829L595.32 -0.9199829L8.871E-06 -0.9199829z" /></clipPath><clipPath id="29"><path id="" clip-rule="evenodd" d="M8.871E-06 841L595.32 841L595.32 841L595.32 -0.9199829L595.32 -0.9199829L8.871E-06 -0.9199829z" /></clipPath><clipPath id="30"><path id="" clip-rule="evenodd" d="M8.871E-06 841L595.32 841L595.32 841L595.32 -0.9199829L595.32 -0.9199829L8.871E-06 -0.9199829z" /></clipPath><clipPath id="31"><path id="" clip-rule="evenodd" d="M8.871E-06 841L595.32 841L595.32 841L595.32 -0.9199829L595.32 -0.9199829L8.871E-06 -0.9199829z" /></clipPath><clipPath id="32"><path id="" clip-rule="evenodd" d="M8.871E-06 841L595.32 841L595.32 841L595.32 -0.9199829L595.32 -0.9199829L8.871E-06 -0.9199829z" /></clipPath><clipPath id="33"><path id="" clip-rule="evenodd" d="M8.871E-06 841L595.32 841L595.32 841L595.32 -0.9199829L595.32 -0.9199829L8.871E-06 -0.9199829z" /></clipPath><clipPath id="34"><path id="" clip-rule="evenodd" d="M8.871E-06 841L595.32 841L595.32 841L595.32 -0.9199829L595.32 -0.9199829L8.871E-06 -0.9199829z" /></clipPath><clipPath id="35"><path id="" clip-rule="evenodd" d="M8.871E-06 841L595.32 841L595.32 841L595.32 -0.9199829L595.32 -0.9199829L8.871E-06 -0.9199829z" /></clipPath><clipPath id="36"><path id="" clip-rule="evenodd" d="M8.871E-06 841L595.32 841L595.32 841L595.32 -0.9199829L595.32 -0.9199829L8.871E-06 -0.9199829z" /></clipPath><clipPath id="37"><path id="" clip-rule="evenodd" d="M8.871E-06 841L595.32 841L595.32 841L595.32 -0.9199829L595.32 -0.9199829L8.871E-06 -0.9199829z" /></clipPath><clipPath id="38"><path id="" clip-rule="evenodd" d="M8.871E-06 841L595.32 841L595.32 841L595.32 -0.9199829L595.32 -0.9199829L8.871E-06 -0.9199829z" /></clipPath><clipPath id="39"><path id="" clip-rule="evenodd" d="M8.871E-06 841L595.32 841L595.32 841L595.32 -0.9199829L595.32 -0.9199829L8.871E-06 -0.9199829z" /></clipPath><clipPath id="40"><path id="" clip-rule="evenodd" d="M8.871E-06 841L595.32 841L595.32 841L595.32 -0.9199829L595.32 -0.9199829L8.871E-06 -0.9199829z" /></clipPath><clipPath id="41"><path id="" clip-rule="evenodd" d="M8.871E-06 841L595.32 841L595.32 841L595.32 -0.9199829L595.32 -0.9199829L8.871E-06 -0.9199829z" /></clipPath><clipPath id="42"><path id="" clip-rule="evenodd" d="M8.871E-06 841L595.32 841L595.32 841L595.32 -0.9199829L595.32 -0.9199829L8.871E-06 -0.9199829z" /></clipPath><clipPath id="43"><path id="" clip-rule="evenodd" d="M8.871E-06 841L595.32 841L595.32 841L595.32 -0.9199829L595.32 -0.9199829L8.871E-06 -0.9199829z" /></clipPath><clipPath id="44"><path id="" clip-rule="evenodd" d="M8.871E-06 841L595.32 841L595.32 841L595.32 -0.9199829L595.32 -0.9199829L8.871E-06 -0.9199829z" /></clipPath><clipPath id="45"><path id="" clip-rule="evenodd" d="M8.871E-06 841L595.32 841L595.32 841L595.32 -0.9199829L595.32 -0.9199829L8.871E-06 -0.9199829z" /></clipPath><clipPath id="46"><path id="" clip-rule="evenodd" d="M8.871E-06 841L595.32 841L595.32 841L595.32 -0.9199829L595.32 -0.9199829L8.871E-06 -0.9199829z" /></clipPath><clipPath id="47"><path id="" clip-rule="evenodd" d="M8.871E-06 841L595.32 841L595.32 841L595.32 -0.9199829L595.32 -0.9199829L8.871E-06 -0.9199829z" /></clipPath><clipPath id="48"><path id="" clip-rule="evenodd" d="M8.871E-06 841L595.32 841L595.32 841L595.32 -0.9199829L595.32 -0.9199829L8.871E-06 -0.9199829z" /></clipPath><clipPath id="49"><path id="" clip-rule="evenodd" d="M8.871E-06 841L595.32 841L595.32 841L595.32 -0.9199829L595.32 -0.9199829L8.871E-06 -0.9199829z" /></clipPath><clipPath id="50"><path id="" clip-rule="evenodd" d="M8.871E-06 841L595.32 841L595.32 841L595.32 -0.9199829L595.32 -0.9199829L8.871E-06 -0.9199829z" /></clipPath><clipPath id="51"><path id="" clip-rule="evenodd" d="M8.871E-06 841L595.32 841L595.32 841L595.32 -0.9199829L595.32 -0.9199829L8.871E-06 -0.9199829z" /></clipPath><clipPath id="52"><path id="" clip-rule="evenodd" d="M8.871E-06 841L595.32 841L595.32 841L595.32 -0.9199829L595.32 -0.9199829L8.871E-06 -0.9199829z" /></clipPath><clipPath id="53"><path id="" clip-rule="evenodd" d="M8.871E-06 841L595.32 841L595.32 841L595.32 -0.9199829L595.32 -0.9199829L8.871E-06 -0.9199829z" /></clipPath><clipPath id="54"><path id="" clip-rule="evenodd" d="M8.871E-06 841L595.32 841L595.32 841L595.32 -0.9199829L595.32 -0.9199829L8.871E-06 -0.9199829z" /></clipPath><clipPath id="55"><path id="" clip-rule="evenodd" d="M8.871E-06 841L595.32 841L595.32 841L595.32 -0.9199829L595.32 -0.9199829L8.871E-06 -0.9199829z" /></clipPath><clipPath id="56"><path id="" clip-rule="evenodd" d="M8.871E-06 841L595.32 841L595.32 841L595.32 -0.9199829L595.32 -0.9199829L8.871E-06 -0.9199829z" /></clipPath><clipPath id="57"><path id="" clip-rule="evenodd" d="M8.871E-06 841L595.32 841L595.32 841L595.32 -0.9199829L595.32 -0.9199829L8.871E-06 -0.9199829z" /></clipPath><clipPath id="58"><path id="" clip-rule="evenodd" d="M8.871E-06 841L595.32 841L595.32 841L595.32 -0.9199829L595.32 -0.9199829L8.871E-06 -0.9199829z" /></clipPath><clipPath id="59"><path id="" clip-rule="evenodd" d="M8.871E-06 841L595.32 841L595.32 841L595.32 -0.9199829L595.32 -0.9199829L8.871E-06 -0.9199829z" /></clipPath><clipPath id="60"><path id="" clip-rule="evenodd" d="M8.871E-06 841L595.32 841L595.32 841L595.32 -0.9199829L595.32 -0.9199829L8.871E-06 -0.9199829z" /></clipPath><clipPath id="61"><path id="" clip-rule="evenodd" d="M8.871E-06 841L595.32 841L595.32 841L595.32 -0.9199829L595.32 -0.9199829L8.871E-06 -0.9199829z" /></clipPath><clipPath id="62"><path id="" clip-rule="evenodd" d="M8.871E-06 841L595.32 841L595.32 841L595.32 -0.9199829L595.32 -0.9199829L8.871E-06 -0.9199829z" /></clipPath><clipPath id="63"><path id="" clip-rule="evenodd" d="M8.871E-06 841L595.32 841L595.32 841L595.32 -0.9199829L595.32 -0.9199829L8.871E-06 -0.9199829z" /></clipPath><clipPath id="64"><path id="" clip-rule="evenodd" d="M8.871E-06 841L595.32 841L595.32 841L595.32 -0.9199829L595.32 -0.9199829L8.871E-06 -0.9199829z" /></clipPath><clipPath id="65"><path id="" clip-rule="evenodd" d="M8.871E-06 841L595.32 841L595.32 841L595.32 -0.9199829L595.32 -0.9199829L8.871E-06 -0.9199829z" /></clipPath><clipPath id="66"><path id="" clip-rule="evenodd" d="M8.871E-06 841L595.32 841L595.32 841L595.32 -0.9199829L595.32 -0.9199829L8.871E-06 -0.9199829z" /></clipPath><clipPath id="67"><path id="" clip-rule="evenodd" d="M8.871E-06 841L595.32 841L595.32 841L595.32 -0.9199829L595.32 -0.9199829L8.871E-06 -0.9199829z" /></clipPath><clipPath id="68"><path id="" clip-rule="evenodd" d="M8.871E-06 841L595.32 841L595.32 841L595.32 -0.9199829L595.32 -0.9199829L8.871E-06 -0.9199829z" /></clipPath><clipPath id="69"><path id="" clip-rule="evenodd" d="M8.871E-06 841L595.32 841L595.32 841L595.32 -0.9199829L595.32 -0.9199829L8.871E-06 -0.9199829z" /></clipPath><clipPath id="70"><path id="" clip-rule="evenodd" d="M8.871E-06 841L595.32 841L595.32 841L595.32 -0.9199829L595.32 -0.9199829L8.871E-06 -0.9199829z" /></clipPath><clipPath id="71"><path id="" clip-rule="evenodd" d="M8.871E-06 841L595.32 841L595.32 841L595.32 -0.9199829L595.32 -0.9199829L8.871E-06 -0.9199829z" /></clipPath><clipPath id="72"><path id="" clip-rule="evenodd" d="M8.871E-06 841L595.32 841L595.32 841L595.32 -0.9199829L595.32 -0.9199829L8.871E-06 -0.9199829z" /></clipPath><clipPath id="73"><path id="" clip-rule="evenodd" d="M8.871E-06 841L595.32 841L595.32 841L595.32 -0.9199829L595.32 -0.9199829L8.871E-06 -0.9199829z" /></clipPath><clipPath id="74"><path id="" clip-rule="evenodd" d="M118.34 374.25L175.124 374.25L175.124 374.25L175.124 358.65L175.124 358.65L118.34 358.65z" /></clipPath><clipPath id="75"><path id="" clip-rule="evenodd" d="M118.34 374.25L175.124 374.25L175.124 374.25L175.124 358.65L175.124 358.65L118.34 358.65z" /></clipPath><clipPath id="76"><path id="" clip-rule="evenodd" d="M175.13 374.25L217.61 374.25L217.61 374.25L217.61 358.65L217.61 358.65L175.13 358.65z" /></clipPath><clipPath id="77"><path id="" clip-rule="evenodd" d="M175.13 374.25L217.61 374.25L217.61 374.25L217.61 358.65L217.61 358.65L175.13 358.65z" /></clipPath><clipPath id="78"><path id="" clip-rule="evenodd" d="M175.13 374.25L217.61 374.25L217.61 374.25L217.61 358.65L217.61 358.65L175.13 358.65z" /></clipPath><clipPath id="79"><path id="" clip-rule="evenodd" d="M175.13 374.25L217.61 374.25L217.61 374.25L217.61 358.65L217.61 358.65L175.13 358.65z" /></clipPath><clipPath id="80"><path id="" clip-rule="evenodd" d="M175.13 374.25L217.61 374.25L217.61 374.25L217.61 358.65L217.61 358.65L175.13 358.65z" /></clipPath><clipPath id="81"><path id="" clip-rule="evenodd" d="M175.13 374.25L217.61 374.25L217.61 374.25L217.61 358.65L217.61 358.65L175.13 358.65z" /></clipPath><clipPath id="82"><path id="" clip-rule="evenodd" d="M217.61 374.25L260.21 374.25L260.21 374.25L260.21 358.65L260.21 358.65L217.61 358.65z" /></clipPath><clipPath id="83"><path id="" clip-rule="evenodd" d="M217.61 374.25L260.21 374.25L260.21 374.25L260.21 358.65L260.21 358.65L217.61 358.65z" /></clipPath><clipPath id="84"><path id="" clip-rule="evenodd" d="M217.61 374.25L260.21 374.25L260.21 374.25L260.21 358.65L260.21 358.65L217.61 358.65z" /></clipPath><clipPath id="85"><path id="" clip-rule="evenodd" d="M217.61 374.25L260.21 374.25L260.21 374.25L260.21 358.65L260.21 358.65L217.61 358.65z" /></clipPath><clipPath id="86"><path id="" clip-rule="evenodd" d="M260.21 374.25L302.714 374.25L302.714 374.25L302.714 358.65L302.714 358.65L260.21 358.65z" /></clipPath><clipPath id="87"><path id="" clip-rule="evenodd" d="M260.21 374.25L302.714 374.25L302.714 374.25L302.714 358.65L302.714 358.65L260.21 358.65z" /></clipPath><clipPath id="88"><path id="" clip-rule="evenodd" d="M260.21 374.25L302.714 374.25L302.714 374.25L302.714 358.65L302.714 358.65L260.21 358.65z" /></clipPath><clipPath id="89"><path id="" clip-rule="evenodd" d="M260.21 374.25L302.714 374.25L302.714 374.25L302.714 358.65L302.714 358.65L260.21 358.65z" /></clipPath><clipPath id="90"><path id="" clip-rule="evenodd" d="M260.21 374.25L302.714 374.25L302.714 374.25L302.714 358.65L302.714 358.65L260.21 358.65z" /></clipPath><clipPath id="91"><path id="" clip-rule="evenodd" d="M260.21 374.25L302.714 374.25L302.714 374.25L302.714 358.65L302.714 358.65L260.21 358.65z" /></clipPath><clipPath id="92"><path id="" clip-rule="evenodd" d="M302.71 374.25L345.19 374.25L345.19 374.25L345.19 358.65L345.19 358.65L302.71 358.65z" /></clipPath><clipPath id="93"><path id="" clip-rule="evenodd" d="M302.71 374.25L345.19 374.25L345.19 374.25L345.19 358.65L345.19 358.65L302.71 358.65z" /></clipPath><clipPath id="94"><path id="" clip-rule="evenodd" d="M302.71 374.25L345.19 374.25L345.19 374.25L345.19 358.65L345.19 358.65L302.71 358.65z" /></clipPath><clipPath id="95"><path id="" clip-rule="evenodd" d="M302.71 374.25L345.19 374.25L345.19 374.25L345.19 358.65L345.19 358.65L302.71 358.65z" /></clipPath><clipPath id="96"><path id="" clip-rule="evenodd" d="M302.71 374.25L345.19 374.25L345.19 374.25L345.19 358.65L345.19 358.65L302.71 358.65z" /></clipPath><clipPath id="97"><path id="" clip-rule="evenodd" d="M302.71 374.25L345.19 374.25L345.19 374.25L345.19 358.65L345.19 358.65L302.71 358.65z" /></clipPath><clipPath id="98"><path id="" clip-rule="evenodd" d="M345.19 374.25L394.894 374.25L394.894 374.25L394.894 358.65L394.894 358.65L345.19 358.65z" /></clipPath><clipPath id="99"><path id="" clip-rule="evenodd" d="M345.19 374.25L394.894 374.25L394.894 374.25L394.894 358.65L394.894 358.65L345.19 358.65z" /></clipPath><clipPath id="100"><path id="" clip-rule="evenodd" d="M345.19 374.25L394.894 374.25L394.894 374.25L394.894 358.65L394.894 358.65L345.19 358.65z" /></clipPath><clipPath id="101"><path id="" clip-rule="evenodd" d="M345.19 374.25L394.894 374.25L394.894 374.25L394.894 358.65L394.894 358.65L345.19 358.65z" /></clipPath><clipPath id="102"><path id="" clip-rule="evenodd" d="M345.19 374.25L394.894 374.25L394.894 374.25L394.894 358.65L394.894 358.65L345.19 358.65z" /></clipPath><clipPath id="103"><path id="" clip-rule="evenodd" d="M394.9 374.25L437.38 374.25L437.38 374.25L437.38 358.65L437.38 358.65L394.9 358.65z" /></clipPath><clipPath id="104"><path id="" clip-rule="evenodd" d="M394.9 374.25L437.38 374.25L437.38 374.25L437.38 358.65L437.38 358.65L394.9 358.65z" /></clipPath><clipPath id="105"><path id="" clip-rule="evenodd" d="M394.9 374.25L437.38 374.25L437.38 374.25L437.38 358.65L437.38 358.65L394.9 358.65z" /></clipPath><clipPath id="106"><path id="" clip-rule="evenodd" d="M394.9 374.25L437.38 374.25L437.38 374.25L437.38 358.65L437.38 358.65L394.9 358.65z" /></clipPath><clipPath id="107"><path id="" clip-rule="evenodd" d="M437.38 374.25L472.78 374.25L472.78 374.25L472.78 358.65L472.78 358.65L437.38 358.65z" /></clipPath><clipPath id="108"><path id="" clip-rule="evenodd" d="M437.38 374.25L472.78 374.25L472.78 374.25L472.78 358.65L472.78 358.65L437.38 358.65z" /></clipPath><clipPath id="109"><path id="" clip-rule="evenodd" d="M437.38 374.25L472.78 374.25L472.78 374.25L472.78 358.65L472.78 358.65L437.38 358.65z" /></clipPath><clipPath id="110"><path id="" clip-rule="evenodd" d="M437.38 374.25L472.78 374.25L472.78 374.25L472.78 358.65L472.78 358.65L437.38 358.65z" /></clipPath><clipPath id="111"><path id="" clip-rule="evenodd" d="M118.34 390.33L175.124 390.33L175.124 390.33L175.124 374.73L175.124 374.73L118.34 374.73z" /></clipPath><clipPath id="112"><path id="" clip-rule="evenodd" d="M118.34 390.33L175.124 390.33L175.124 390.33L175.124 374.73L175.124 374.73L118.34 374.73z" /></clipPath><clipPath id="113"><path id="" clip-rule="evenodd" d="M118.34 390.33L175.124 390.33L175.124 390.33L175.124 374.73L175.124 374.73L118.34 374.73z" /></clipPath><clipPath id="114"><path id="" clip-rule="evenodd" d="M118.34 390.33L175.124 390.33L175.124 390.33L175.124 374.73L175.124 374.73L118.34 374.73z" /></clipPath><clipPath id="115"><path id="" clip-rule="evenodd" d="M118.34 390.33L175.124 390.33L175.124 390.33L175.124 374.73L175.124 374.73L118.34 374.73z" /></clipPath><clipPath id="116"><path id="" clip-rule="evenodd" d="M118.34 390.33L175.124 390.33L175.124 390.33L175.124 374.73L175.124 374.73L118.34 374.73z" /></clipPath><clipPath id="117"><path id="" clip-rule="evenodd" d="M175.13 390.33L217.61 390.33L217.61 390.33L217.61 374.73L217.61 374.73L175.13 374.73z" /></clipPath><clipPath id="118"><path id="" clip-rule="evenodd" d="M175.13 390.33L217.61 390.33L217.61 390.33L217.61 374.73L217.61 374.73L175.13 374.73z" /></clipPath><clipPath id="119"><path id="" clip-rule="evenodd" d="M175.13 390.33L217.61 390.33L217.61 390.33L217.61 374.73L217.61 374.73L175.13 374.73z" /></clipPath><clipPath id="120"><path id="" clip-rule="evenodd" d="M217.61 390.33L260.21 390.33L260.21 390.33L260.21 374.73L260.21 374.73L217.61 374.73z" /></clipPath><clipPath id="121"><path id="" clip-rule="evenodd" d="M217.61 390.33L260.21 390.33L260.21 390.33L260.21 374.73L260.21 374.73L217.61 374.73z" /></clipPath><clipPath id="122"><path id="" clip-rule="evenodd" d="M217.61 390.33L260.21 390.33L260.21 390.33L260.21 374.73L260.21 374.73L217.61 374.73z" /></clipPath><clipPath id="123"><path id="" clip-rule="evenodd" d="M260.21 390.33L302.714 390.33L302.714 390.33L302.714 374.73L302.714 374.73L260.21 374.73z" /></clipPath><clipPath id="124"><path id="" clip-rule="evenodd" d="M260.21 390.33L302.714 390.33L302.714 390.33L302.714 374.73L302.714 374.73L260.21 374.73z" /></clipPath><clipPath id="125"><path id="" clip-rule="evenodd" d="M260.21 390.33L302.714 390.33L302.714 390.33L302.714 374.73L302.714 374.73L260.21 374.73z" /></clipPath><clipPath id="126"><path id="" clip-rule="evenodd" d="M302.71 390.33L345.19 390.33L345.19 390.33L345.19 374.73L345.19 374.73L302.71 374.73z" /></clipPath><clipPath id="127"><path id="" clip-rule="evenodd" d="M302.71 390.33L345.19 390.33L345.19 390.33L345.19 374.73L345.19 374.73L302.71 374.73z" /></clipPath><clipPath id="128"><path id="" clip-rule="evenodd" d="M302.71 390.33L345.19 390.33L345.19 390.33L345.19 374.73L345.19 374.73L302.71 374.73z" /></clipPath><clipPath id="129"><path id="" clip-rule="evenodd" d="M302.71 390.33L345.19 390.33L345.19 390.33L345.19 374.73L345.19 374.73L302.71 374.73z" /></clipPath><clipPath id="130"><path id="" clip-rule="evenodd" d="M345.19 390.33L394.894 390.33L394.894 390.33L394.894 374.73L394.894 374.73L345.19 374.73z" /></clipPath><clipPath id="131"><path id="" clip-rule="evenodd" d="M345.19 390.33L394.894 390.33L394.894 390.33L394.894 374.73L394.894 374.73L345.19 374.73z" /></clipPath><clipPath id="132"><path id="" clip-rule="evenodd" d="M345.19 390.33L394.894 390.33L394.894 390.33L394.894 374.73L394.894 374.73L345.19 374.73z" /></clipPath><clipPath id="133"><path id="" clip-rule="evenodd" d="M394.9 390.33L437.38 390.33L437.38 390.33L437.38 374.73L437.38 374.73L394.9 374.73z" /></clipPath><clipPath id="134"><path id="" clip-rule="evenodd" d="M394.9 390.33L437.38 390.33L437.38 390.33L437.38 374.73L437.38 374.73L394.9 374.73z" /></clipPath><clipPath id="135"><path id="" clip-rule="evenodd" d="M394.9 390.33L437.38 390.33L437.38 390.33L437.38 374.73L437.38 374.73L394.9 374.73z" /></clipPath><clipPath id="136"><path id="" clip-rule="evenodd" d="M394.9 390.33L437.38 390.33L437.38 390.33L437.38 374.73L437.38 374.73L394.9 374.73z" /></clipPath><clipPath id="137"><path id="" clip-rule="evenodd" d="M437.38 390.33L472.78 390.33L472.78 390.33L472.78 374.73L472.78 374.73L437.38 374.73z" /></clipPath><clipPath id="138"><path id="" clip-rule="evenodd" d="M437.38 390.33L472.78 390.33L472.78 390.33L472.78 374.73L472.78 374.73L437.38 374.73z" /></clipPath><clipPath id="139"><path id="" clip-rule="evenodd" d="M437.38 390.33L472.78 390.33L472.78 390.33L472.78 374.73L472.78 374.73L437.38 374.73z" /></clipPath><clipPath id="140"><path id="" clip-rule="evenodd" d="M437.38 390.33L472.78 390.33L472.78 390.33L472.78 374.73L472.78 374.73L437.38 374.73z" /></clipPath><clipPath id="141"><path id="" clip-rule="evenodd" d="M118.34 405.93L175.124 405.93L175.124 405.93L175.124 390.33L175.124 390.33L118.34 390.33z" /></clipPath><clipPath id="142"><path id="" clip-rule="evenodd" d="M118.34 405.93L175.124 405.93L175.124 405.93L175.124 390.33L175.124 390.33L118.34 390.33z" /></clipPath><clipPath id="143"><path id="" clip-rule="evenodd" d="M118.34 405.93L175.124 405.93L175.124 405.93L175.124 390.33L175.124 390.33L118.34 390.33z" /></clipPath><clipPath id="144"><path id="" clip-rule="evenodd" d="M118.34 405.93L175.124 405.93L175.124 405.93L175.124 390.33L175.124 390.33L118.34 390.33z" /></clipPath><clipPath id="145"><path id="" clip-rule="evenodd" d="M118.34 405.93L175.124 405.93L175.124 405.93L175.124 390.33L175.124 390.33L118.34 390.33z" /></clipPath><clipPath id="146"><path id="" clip-rule="evenodd" d="M118.34 405.93L175.124 405.93L175.124 405.93L175.124 390.33L175.124 390.33L118.34 390.33z" /></clipPath><clipPath id="147"><path id="" clip-rule="evenodd" d="M175.13 405.93L217.61 405.93L217.61 405.93L217.61 390.33L217.61 390.33L175.13 390.33z" /></clipPath><clipPath id="148"><path id="" clip-rule="evenodd" d="M175.13 405.93L217.61 405.93L217.61 405.93L217.61 390.33L217.61 390.33L175.13 390.33z" /></clipPath><clipPath id="149"><path id="" clip-rule="evenodd" d="M175.13 405.93L217.61 405.93L217.61 405.93L217.61 390.33L217.61 390.33L175.13 390.33z" /></clipPath><clipPath id="150"><path id="" clip-rule="evenodd" d="M175.13 405.93L217.61 405.93L217.61 405.93L217.61 390.33L217.61 390.33L175.13 390.33z" /></clipPath><clipPath id="151"><path id="" clip-rule="evenodd" d="M217.61 405.93L260.21 405.93L260.21 405.93L260.21 390.33L260.21 390.33L217.61 390.33z" /></clipPath><clipPath id="152"><path id="" clip-rule="evenodd" d="M217.61 405.93L260.21 405.93L260.21 405.93L260.21 390.33L260.21 390.33L217.61 390.33z" /></clipPath><clipPath id="153"><path id="" clip-rule="evenodd" d="M217.61 405.93L260.21 405.93L260.21 405.93L260.21 390.33L260.21 390.33L217.61 390.33z" /></clipPath><clipPath id="154"><path id="" clip-rule="evenodd" d="M217.61 405.93L260.21 405.93L260.21 405.93L260.21 390.33L260.21 390.33L217.61 390.33z" /></clipPath><clipPath id="155"><path id="" clip-rule="evenodd" d="M260.21 405.93L302.714 405.93L302.714 405.93L302.714 390.33L302.714 390.33L260.21 390.33z" /></clipPath><clipPath id="156"><path id="" clip-rule="evenodd" d="M260.21 405.93L302.714 405.93L302.714 405.93L302.714 390.33L302.714 390.33L260.21 390.33z" /></clipPath><clipPath id="157"><path id="" clip-rule="evenodd" d="M260.21 405.93L302.714 405.93L302.714 405.93L302.714 390.33L302.714 390.33L260.21 390.33z" /></clipPath><clipPath id="158"><path id="" clip-rule="evenodd" d="M260.21 405.93L302.714 405.93L302.714 405.93L302.714 390.33L302.714 390.33L260.21 390.33z" /></clipPath><clipPath id="159"><path id="" clip-rule="evenodd" d="M302.71 405.93L345.19 405.93L345.19 405.93L345.19 390.33L345.19 390.33L302.71 390.33z" /></clipPath><clipPath id="160"><path id="" clip-rule="evenodd" d="M302.71 405.93L345.19 405.93L345.19 405.93L345.19 390.33L345.19 390.33L302.71 390.33z" /></clipPath><clipPath id="161"><path id="" clip-rule="evenodd" d="M302.71 405.93L345.19 405.93L345.19 405.93L345.19 390.33L345.19 390.33L302.71 390.33z" /></clipPath><clipPath id="162"><path id="" clip-rule="evenodd" d="M302.71 405.93L345.19 405.93L345.19 405.93L345.19 390.33L345.19 390.33L302.71 390.33z" /></clipPath><clipPath id="163"><path id="" clip-rule="evenodd" d="M345.19 405.93L394.894 405.93L394.894 405.93L394.894 390.33L394.894 390.33L345.19 390.33z" /></clipPath><clipPath id="164"><path id="" clip-rule="evenodd" d="M345.19 405.93L394.894 405.93L394.894 405.93L394.894 390.33L394.894 390.33L345.19 390.33z" /></clipPath><clipPath id="165"><path id="" clip-rule="evenodd" d="M345.19 405.93L394.894 405.93L394.894 405.93L394.894 390.33L394.894 390.33L345.19 390.33z" /></clipPath><clipPath id="166"><path id="" clip-rule="evenodd" d="M345.19 405.93L394.894 405.93L394.894 405.93L394.894 390.33L394.894 390.33L345.19 390.33z" /></clipPath><clipPath id="167"><path id="" clip-rule="evenodd" d="M394.9 405.93L437.38 405.93L437.38 405.93L437.38 390.33L437.38 390.33L394.9 390.33z" /></clipPath><clipPath id="168"><path id="" clip-rule="evenodd" d="M394.9 405.93L437.38 405.93L437.38 405.93L437.38 390.33L437.38 390.33L394.9 390.33z" /></clipPath><clipPath id="169"><path id="" clip-rule="evenodd" d="M394.9 405.93L437.38 405.93L437.38 405.93L437.38 390.33L437.38 390.33L394.9 390.33z" /></clipPath><clipPath id="170"><path id="" clip-rule="evenodd" d="M394.9 405.93L437.38 405.93L437.38 405.93L437.38 390.33L437.38 390.33L394.9 390.33z" /></clipPath><clipPath id="171"><path id="" clip-rule="evenodd" d="M437.38 405.93L472.78 405.93L472.78 405.93L472.78 390.33L472.78 390.33L437.38 390.33z" /></clipPath><clipPath id="172"><path id="" clip-rule="evenodd" d="M437.38 405.93L472.78 405.93L472.78 405.93L472.78 390.33L472.78 390.33L437.38 390.33z" /></clipPath><clipPath id="173"><path id="" clip-rule="evenodd" d="M437.38 405.93L472.78 405.93L472.78 405.93L472.78 390.33L472.78 390.33L437.38 390.33z" /></clipPath><clipPath id="174"><path id="" clip-rule="evenodd" d="M437.38 405.93L472.78 405.93L472.78 405.93L472.78 390.33L472.78 390.33L437.38 390.33z" /></clipPath><clipPath id="175"><path id="" clip-rule="evenodd" d="M118.34 421.53L175.124 421.53L175.124 421.53L175.124 405.93L175.124 405.93L118.34 405.93z" /></clipPath><clipPath id="176"><path id="" clip-rule="evenodd" d="M118.34 421.53L175.124 421.53L175.124 421.53L175.124 405.93L175.124 405.93L118.34 405.93z" /></clipPath><clipPath id="177"><path id="" clip-rule="evenodd" d="M118.34 421.53L175.124 421.53L175.124 421.53L175.124 405.93L175.124 405.93L118.34 405.93z" /></clipPath><clipPath id="178"><path id="" clip-rule="evenodd" d="M118.34 421.53L175.124 421.53L175.124 421.53L175.124 405.93L175.124 405.93L118.34 405.93z" /></clipPath><clipPath id="179"><path id="" clip-rule="evenodd" d="M118.34 421.53L175.124 421.53L175.124 421.53L175.124 405.93L175.124 405.93L118.34 405.93z" /></clipPath><clipPath id="180"><path id="" clip-rule="evenodd" d="M118.34 421.53L175.124 421.53L175.124 421.53L175.124 405.93L175.124 405.93L118.34 405.93z" /></clipPath><clipPath id="181"><path id="" clip-rule="evenodd" d="M175.13 421.53L217.61 421.53L217.61 421.53L217.61 405.93L217.61 405.93L175.13 405.93z" /></clipPath><clipPath id="182"><path id="" clip-rule="evenodd" d="M175.13 421.53L217.61 421.53L217.61 421.53L217.61 405.93L217.61 405.93L175.13 405.93z" /></clipPath><clipPath id="183"><path id="" clip-rule="evenodd" d="M175.13 421.53L217.61 421.53L217.61 421.53L217.61 405.93L217.61 405.93L175.13 405.93z" /></clipPath><clipPath id="184"><path id="" clip-rule="evenodd" d="M175.13 421.53L217.61 421.53L217.61 421.53L217.61 405.93L217.61 405.93L175.13 405.93z" /></clipPath><clipPath id="185"><path id="" clip-rule="evenodd" d="M217.61 421.53L260.21 421.53L260.21 421.53L260.21 405.93L260.21 405.93L217.61 405.93z" /></clipPath><clipPath id="186"><path id="" clip-rule="evenodd" d="M217.61 421.53L260.21 421.53L260.21 421.53L260.21 405.93L260.21 405.93L217.61 405.93z" /></clipPath><clipPath id="187"><path id="" clip-rule="evenodd" d="M217.61 421.53L260.21 421.53L260.21 421.53L260.21 405.93L260.21 405.93L217.61 405.93z" /></clipPath><clipPath id="188"><path id="" clip-rule="evenodd" d="M217.61 421.53L260.21 421.53L260.21 421.53L260.21 405.93L260.21 405.93L217.61 405.93z" /></clipPath><clipPath id="189"><path id="" clip-rule="evenodd" d="M260.21 421.53L302.714 421.53L302.714 421.53L302.714 405.93L302.714 405.93L260.21 405.93z" /></clipPath><clipPath id="190"><path id="" clip-rule="evenodd" d="M260.21 421.53L302.714 421.53L302.714 421.53L302.714 405.93L302.714 405.93L260.21 405.93z" /></clipPath><clipPath id="191"><path id="" clip-rule="evenodd" d="M260.21 421.53L302.714 421.53L302.714 421.53L302.714 405.93L302.714 405.93L260.21 405.93z" /></clipPath><clipPath id="192"><path id="" clip-rule="evenodd" d="M260.21 421.53L302.714 421.53L302.714 421.53L302.714 405.93L302.714 405.93L260.21 405.93z" /></clipPath><clipPath id="193"><path id="" clip-rule="evenodd" d="M302.71 421.53L345.19 421.53L345.19 421.53L345.19 405.93L345.19 405.93L302.71 405.93z" /></clipPath><clipPath id="194"><path id="" clip-rule="evenodd" d="M302.71 421.53L345.19 421.53L345.19 421.53L345.19 405.93L345.19 405.93L302.71 405.93z" /></clipPath><clipPath id="195"><path id="" clip-rule="evenodd" d="M302.71 421.53L345.19 421.53L345.19 421.53L345.19 405.93L345.19 405.93L302.71 405.93z" /></clipPath><clipPath id="196"><path id="" clip-rule="evenodd" d="M302.71 421.53L345.19 421.53L345.19 421.53L345.19 405.93L345.19 405.93L302.71 405.93z" /></clipPath><clipPath id="197"><path id="" clip-rule="evenodd" d="M345.19 421.53L394.894 421.53L394.894 421.53L394.894 405.93L394.894 405.93L345.19 405.93z" /></clipPath><clipPath id="198"><path id="" clip-rule="evenodd" d="M345.19 421.53L394.894 421.53L394.894 421.53L394.894 405.93L394.894 405.93L345.19 405.93z" /></clipPath><clipPath id="199"><path id="" clip-rule="evenodd" d="M345.19 421.53L394.894 421.53L394.894 421.53L394.894 405.93L394.894 405.93L345.19 405.93z" /></clipPath><clipPath id="200"><path id="" clip-rule="evenodd" d="M345.19 421.53L394.894 421.53L394.894 421.53L394.894 405.93L394.894 405.93L345.19 405.93z" /></clipPath><clipPath id="201"><path id="" clip-rule="evenodd" d="M394.9 421.53L437.38 421.53L437.38 421.53L437.38 405.93L437.38 405.93L394.9 405.93z" /></clipPath><clipPath id="202"><path id="" clip-rule="evenodd" d="M394.9 421.53L437.38 421.53L437.38 421.53L437.38 405.93L437.38 405.93L394.9 405.93z" /></clipPath><clipPath id="203"><path id="" clip-rule="evenodd" d="M394.9 421.53L437.38 421.53L437.38 421.53L437.38 405.93L437.38 405.93L394.9 405.93z" /></clipPath><clipPath id="204"><path id="" clip-rule="evenodd" d="M394.9 421.53L437.38 421.53L437.38 421.53L437.38 405.93L437.38 405.93L394.9 405.93z" /></clipPath><clipPath id="205"><path id="" clip-rule="evenodd" d="M437.38 421.53L472.78 421.53L472.78 421.53L472.78 405.93L472.78 405.93L437.38 405.93z" /></clipPath><clipPath id="206"><path id="" clip-rule="evenodd" d="M437.38 421.53L472.78 421.53L472.78 421.53L472.78 405.93L472.78 405.93L437.38 405.93z" /></clipPath><clipPath id="207"><path id="" clip-rule="evenodd" d="M437.38 421.53L472.78 421.53L472.78 421.53L472.78 405.93L472.78 405.93L437.38 405.93z" /></clipPath><clipPath id="208"><path id="" clip-rule="evenodd" d="M437.38 421.53L472.78 421.53L472.78 421.53L472.78 405.93L472.78 405.93L437.38 405.93z" /></clipPath><clipPath id="209"><path id="" clip-rule="evenodd" d="M118.34 437.15L175.124 437.15L175.124 437.15L175.124 421.526L175.124 421.526L118.34 421.526z" /></clipPath><clipPath id="210"><path id="" clip-rule="evenodd" d="M118.34 437.15L175.124 437.15L175.124 437.15L175.124 421.526L175.124 421.526L118.34 421.526z" /></clipPath><clipPath id="211"><path id="" clip-rule="evenodd" d="M118.34 437.15L175.124 437.15L175.124 437.15L175.124 421.526L175.124 421.526L118.34 421.526z" /></clipPath><clipPath id="212"><path id="" clip-rule="evenodd" d="M118.34 437.15L175.124 437.15L175.124 437.15L175.124 421.526L175.124 421.526L118.34 421.526z" /></clipPath><clipPath id="213"><path id="" clip-rule="evenodd" d="M118.34 437.15L175.124 437.15L175.124 437.15L175.124 421.526L175.124 421.526L118.34 421.526z" /></clipPath><clipPath id="214"><path id="" clip-rule="evenodd" d="M118.34 437.15L175.124 437.15L175.124 437.15L175.124 421.526L175.124 421.526L118.34 421.526z" /></clipPath><clipPath id="215"><path id="" clip-rule="evenodd" d="M175.13 437.15L217.61 437.15L217.61 437.15L217.61 421.526L217.61 421.526L175.13 421.526z" /></clipPath><clipPath id="216"><path id="" clip-rule="evenodd" d="M175.13 437.15L217.61 437.15L217.61 437.15L217.61 421.526L217.61 421.526L175.13 421.526z" /></clipPath><clipPath id="217"><path id="" clip-rule="evenodd" d="M175.13 437.15L217.61 437.15L217.61 437.15L217.61 421.526L217.61 421.526L175.13 421.526z" /></clipPath><clipPath id="218"><path id="" clip-rule="evenodd" d="M175.13 437.15L217.61 437.15L217.61 437.15L217.61 421.526L217.61 421.526L175.13 421.526z" /></clipPath><clipPath id="219"><path id="" clip-rule="evenodd" d="M217.61 437.15L260.21 437.15L260.21 437.15L260.21 421.526L260.21 421.526L217.61 421.526z" /></clipPath><clipPath id="220"><path id="" clip-rule="evenodd" d="M217.61 437.15L260.21 437.15L260.21 437.15L260.21 421.526L260.21 421.526L217.61 421.526z" /></clipPath><clipPath id="221"><path id="" clip-rule="evenodd" d="M217.61 437.15L260.21 437.15L260.21 437.15L260.21 421.526L260.21 421.526L217.61 421.526z" /></clipPath><clipPath id="222"><path id="" clip-rule="evenodd" d="M217.61 437.15L260.21 437.15L260.21 437.15L260.21 421.526L260.21 421.526L217.61 421.526z" /></clipPath><clipPath id="223"><path id="" clip-rule="evenodd" d="M260.21 437.15L302.714 437.15L302.714 437.15L302.714 421.526L302.714 421.526L260.21 421.526z" /></clipPath><clipPath id="224"><path id="" clip-rule="evenodd" d="M260.21 437.15L302.714 437.15L302.714 437.15L302.714 421.526L302.714 421.526L260.21 421.526z" /></clipPath><clipPath id="225"><path id="" clip-rule="evenodd" d="M260.21 437.15L302.714 437.15L302.714 437.15L302.714 421.526L302.714 421.526L260.21 421.526z" /></clipPath><clipPath id="226"><path id="" clip-rule="evenodd" d="M260.21 437.15L302.714 437.15L302.714 437.15L302.714 421.526L302.714 421.526L260.21 421.526z" /></clipPath><clipPath id="227"><path id="" clip-rule="evenodd" d="M302.71 437.15L345.19 437.15L345.19 437.15L345.19 421.526L345.19 421.526L302.71 421.526z" /></clipPath><clipPath id="228"><path id="" clip-rule="evenodd" d="M302.71 437.15L345.19 437.15L345.19 437.15L345.19 421.526L345.19 421.526L302.71 421.526z" /></clipPath><clipPath id="229"><path id="" clip-rule="evenodd" d="M302.71 437.15L345.19 437.15L345.19 437.15L345.19 421.526L345.19 421.526L302.71 421.526z" /></clipPath><clipPath id="230"><path id="" clip-rule="evenodd" d="M302.71 437.15L345.19 437.15L345.19 437.15L345.19 421.526L345.19 421.526L302.71 421.526z" /></clipPath><clipPath id="231"><path id="" clip-rule="evenodd" d="M345.19 437.15L394.894 437.15L394.894 437.15L394.894 421.526L394.894 421.526L345.19 421.526z" /></clipPath><clipPath id="232"><path id="" clip-rule="evenodd" d="M345.19 437.15L394.894 437.15L394.894 437.15L394.894 421.526L394.894 421.526L345.19 421.526z" /></clipPath><clipPath id="233"><path id="" clip-rule="evenodd" d="M345.19 437.15L394.894 437.15L394.894 437.15L394.894 421.526L394.894 421.526L345.19 421.526z" /></clipPath><clipPath id="234"><path id="" clip-rule="evenodd" d="M345.19 437.15L394.894 437.15L394.894 437.15L394.894 421.526L394.894 421.526L345.19 421.526z" /></clipPath><clipPath id="235"><path id="" clip-rule="evenodd" d="M394.9 437.15L437.38 437.15L437.38 437.15L437.38 421.526L437.38 421.526L394.9 421.526z" /></clipPath><clipPath id="236"><path id="" clip-rule="evenodd" d="M394.9 437.15L437.38 437.15L437.38 437.15L437.38 421.526L437.38 421.526L394.9 421.526z" /></clipPath><clipPath id="237"><path id="" clip-rule="evenodd" d="M394.9 437.15L437.38 437.15L437.38 437.15L437.38 421.526L437.38 421.526L394.9 421.526z" /></clipPath><clipPath id="238"><path id="" clip-rule="evenodd" d="M394.9 437.15L437.38 437.15L437.38 437.15L437.38 421.526L437.38 421.526L394.9 421.526z" /></clipPath><clipPath id="239"><path id="" clip-rule="evenodd" d="M437.38 437.15L472.78 437.15L472.78 437.15L472.78 421.526L472.78 421.526L437.38 421.526z" /></clipPath><clipPath id="240"><path id="" clip-rule="evenodd" d="M437.38 437.15L472.78 437.15L472.78 437.15L472.78 421.526L472.78 421.526L437.38 421.526z" /></clipPath><clipPath id="241"><path id="" clip-rule="evenodd" d="M437.38 437.15L472.78 437.15L472.78 437.15L472.78 421.526L472.78 421.526L437.38 421.526z" /></clipPath><clipPath id="242"><path id="" clip-rule="evenodd" d="M437.38 437.15L472.78 437.15L472.78 437.15L472.78 421.526L472.78 421.526L437.38 421.526z" /></clipPath><clipPath id="243"><path id="" clip-rule="evenodd" d="M118.34 452.75L175.124 452.75L175.124 452.75L175.124 437.15L175.124 437.15L118.34 437.15z" /></clipPath><clipPath id="244"><path id="" clip-rule="evenodd" d="M118.34 452.75L175.124 452.75L175.124 452.75L175.124 437.15L175.124 437.15L118.34 437.15z" /></clipPath><clipPath id="245"><path id="" clip-rule="evenodd" d="M118.34 452.75L175.124 452.75L175.124 452.75L175.124 437.15L175.124 437.15L118.34 437.15z" /></clipPath><clipPath id="246"><path id="" clip-rule="evenodd" d="M118.34 452.75L175.124 452.75L175.124 452.75L175.124 437.15L175.124 437.15L118.34 437.15z" /></clipPath><clipPath id="247"><path id="" clip-rule="evenodd" d="M118.34 452.75L175.124 452.75L175.124 452.75L175.124 437.15L175.124 437.15L118.34 437.15z" /></clipPath><clipPath id="248"><path id="" clip-rule="evenodd" d="M118.34 452.75L175.124 452.75L175.124 452.75L175.124 437.15L175.124 437.15L118.34 437.15z" /></clipPath><clipPath id="249"><path id="" clip-rule="evenodd" d="M175.13 452.75L217.61 452.75L217.61 452.75L217.61 437.15L217.61 437.15L175.13 437.15z" /></clipPath><clipPath id="250"><path id="" clip-rule="evenodd" d="M175.13 452.75L217.61 452.75L217.61 452.75L217.61 437.15L217.61 437.15L175.13 437.15z" /></clipPath><clipPath id="251"><path id="" clip-rule="evenodd" d="M175.13 452.75L217.61 452.75L217.61 452.75L217.61 437.15L217.61 437.15L175.13 437.15z" /></clipPath><clipPath id="252"><path id="" clip-rule="evenodd" d="M175.13 452.75L217.61 452.75L217.61 452.75L217.61 437.15L217.61 437.15L175.13 437.15z" /></clipPath><clipPath id="253"><path id="" clip-rule="evenodd" d="M217.61 452.75L260.21 452.75L260.21 452.75L260.21 437.15L260.21 437.15L217.61 437.15z" /></clipPath><clipPath id="254"><path id="" clip-rule="evenodd" d="M217.61 452.75L260.21 452.75L260.21 452.75L260.21 437.15L260.21 437.15L217.61 437.15z" /></clipPath><clipPath id="255"><path id="" clip-rule="evenodd" d="M217.61 452.75L260.21 452.75L260.21 452.75L260.21 437.15L260.21 437.15L217.61 437.15z" /></clipPath><clipPath id="256"><path id="" clip-rule="evenodd" d="M217.61 452.75L260.21 452.75L260.21 452.75L260.21 437.15L260.21 437.15L217.61 437.15z" /></clipPath><clipPath id="257"><path id="" clip-rule="evenodd" d="M260.21 452.75L302.714 452.75L302.714 452.75L302.714 437.15L302.714 437.15L260.21 437.15z" /></clipPath><clipPath id="258"><path id="" clip-rule="evenodd" d="M260.21 452.75L302.714 452.75L302.714 452.75L302.714 437.15L302.714 437.15L260.21 437.15z" /></clipPath><clipPath id="259"><path id="" clip-rule="evenodd" d="M260.21 452.75L302.714 452.75L302.714 452.75L302.714 437.15L302.714 437.15L260.21 437.15z" /></clipPath><clipPath id="260"><path id="" clip-rule="evenodd" d="M260.21 452.75L302.714 452.75L302.714 452.75L302.714 437.15L302.714 437.15L260.21 437.15z" /></clipPath><clipPath id="261"><path id="" clip-rule="evenodd" d="M302.71 452.75L345.19 452.75L345.19 452.75L345.19 437.15L345.19 437.15L302.71 437.15z" /></clipPath><clipPath id="262"><path id="" clip-rule="evenodd" d="M302.71 452.75L345.19 452.75L345.19 452.75L345.19 437.15L345.19 437.15L302.71 437.15z" /></clipPath><clipPath id="263"><path id="" clip-rule="evenodd" d="M302.71 452.75L345.19 452.75L345.19 452.75L345.19 437.15L345.19 437.15L302.71 437.15z" /></clipPath><clipPath id="264"><path id="" clip-rule="evenodd" d="M302.71 452.75L345.19 452.75L345.19 452.75L345.19 437.15L345.19 437.15L302.71 437.15z" /></clipPath><clipPath id="265"><path id="" clip-rule="evenodd" d="M345.19 452.75L394.894 452.75L394.894 452.75L394.894 437.15L394.894 437.15L345.19 437.15z" /></clipPath><clipPath id="266"><path id="" clip-rule="evenodd" d="M345.19 452.75L394.894 452.75L394.894 452.75L394.894 437.15L394.894 437.15L345.19 437.15z" /></clipPath><clipPath id="267"><path id="" clip-rule="evenodd" d="M345.19 452.75L394.894 452.75L394.894 452.75L394.894 437.15L394.894 437.15L345.19 437.15z" /></clipPath><clipPath id="268"><path id="" clip-rule="evenodd" d="M345.19 452.75L394.894 452.75L394.894 452.75L394.894 437.15L394.894 437.15L345.19 437.15z" /></clipPath><clipPath id="269"><path id="" clip-rule="evenodd" d="M394.9 452.75L437.38 452.75L437.38 452.75L437.38 437.15L437.38 437.15L394.9 437.15z" /></clipPath><clipPath id="270"><path id="" clip-rule="evenodd" d="M394.9 452.75L437.38 452.75L437.38 452.75L437.38 437.15L437.38 437.15L394.9 437.15z" /></clipPath><clipPath id="271"><path id="" clip-rule="evenodd" d="M394.9 452.75L437.38 452.75L437.38 452.75L437.38 437.15L437.38 437.15L394.9 437.15z" /></clipPath><clipPath id="272"><path id="" clip-rule="evenodd" d="M394.9 452.75L437.38 452.75L437.38 452.75L437.38 437.15L437.38 437.15L394.9 437.15z" /></clipPath><clipPath id="273"><path id="" clip-rule="evenodd" d="M437.38 452.75L472.78 452.75L472.78 452.75L472.78 437.15L472.78 437.15L437.38 437.15z" /></clipPath><clipPath id="274"><path id="" clip-rule="evenodd" d="M437.38 452.75L472.78 452.75L472.78 452.75L472.78 437.15L472.78 437.15L437.38 437.15z" /></clipPath><clipPath id="275"><path id="" clip-rule="evenodd" d="M437.38 452.75L472.78 452.75L472.78 452.75L472.78 437.15L472.78 437.15L437.38 437.15z" /></clipPath><clipPath id="276"><path id="" clip-rule="evenodd" d="M437.38 452.75L472.78 452.75L472.78 452.75L472.78 437.15L472.78 437.15L437.38 437.15z" /></clipPath><clipPath id="277"><path id="" clip-rule="evenodd" d="M8.871E-06 841L595.32 841L595.32 841L595.32 -0.9199829L595.32 -0.9199829L8.871E-06 -0.9199829z" /></clipPath><clipPath id="278"><path id="" clip-rule="evenodd" d="M8.871E-06 841L595.32 841L595.32 841L595.32 -0.9199829L595.32 -0.9199829L8.871E-06 -0.9199829z" /></clipPath><clipPath id="279"><path id="" clip-rule="evenodd" d="M8.871E-06 841L595.32 841L595.32 841L595.32 -0.9199829L595.32 -0.9199829L8.871E-06 -0.9199829z" /></clipPath><clipPath id="280"><path id="" clip-rule="evenodd" d="M8.871E-06 841L595.32 841L595.32 841L595.32 -0.9199829L595.32 -0.9199829L8.871E-06 -0.9199829z" /></clipPath><clipPath id="281"><path id="" clip-rule="evenodd" d="M8.871E-06 841L595.32 841L595.32 841L595.32 -0.9199829L595.32 -0.9199829L8.871E-06 -0.9199829z" /></clipPath><clipPath id="282"><path id="" clip-rule="evenodd" d="M8.871E-06 841L595.32 841L595.32 841L595.32 -0.9199829L595.32 -0.9199829L8.871E-06 -0.9199829z" /></clipPath><clipPath id="283"><path id="" clip-rule="evenodd" d="M8.871E-06 841L595.32 841L595.32 841L595.32 -0.9199829L595.32 -0.9199829L8.871E-06 -0.9199829z" /></clipPath><clipPath id="284"><path id="" clip-rule="evenodd" d="M8.871E-06 841L595.32 841L595.32 841L595.32 -0.9199829L595.32 -0.9199829L8.871E-06 -0.9199829z" /></clipPath><clipPath id="285"><path id="" clip-rule="evenodd" d="M8.871E-06 841L595.32 841L595.32 841L595.32 -0.9199829L595.32 -0.9199829L8.871E-06 -0.9199829z" /></clipPath><clipPath id="286"><path id="" clip-rule="evenodd" d="M8.871E-06 841L595.32 841L595.32 841L595.32 -0.9199829L595.32 -0.9199829L8.871E-06 -0.9199829z" /></clipPath><clipPath id="287"><path id="" clip-rule="evenodd" d="M8.871E-06 841L595.32 841L595.32 841L595.32 -0.9199829L595.32 -0.9199829L8.871E-06 -0.9199829z" /></clipPath><clipPath id="288"><path id="" clip-rule="evenodd" d="M8.871E-06 841L595.32 841L595.32 841L595.32 -0.9199829L595.32 -0.9199829L8.871E-06 -0.9199829z" /></clipPath><clipPath id="289"><path id="" clip-rule="evenodd" d="M8.871E-06 841L595.32 841L595.32 841L595.32 -0.9199829L595.32 -0.9199829L8.871E-06 -0.9199829z" /></clipPath><clipPath id="290"><path id="" clip-rule="evenodd" d="M8.871E-06 841L595.32 841L595.32 841L595.32 -0.9199829L595.32 -0.9199829L8.871E-06 -0.9199829z" /></clipPath><clipPath id="291"><path id="" clip-rule="evenodd" d="M8.871E-06 841L595.32 841L595.32 841L595.32 -0.9199829L595.32 -0.9199829L8.871E-06 -0.9199829z" /></clipPath><clipPath id="292"><path id="" clip-rule="evenodd" d="M8.871E-06 841L595.32 841L595.32 841L595.32 -0.9199829L595.32 -0.9199829L8.871E-06 -0.9199829z" /></clipPath><clipPath id="293"><path id="" clip-rule="evenodd" d="M8.871E-06 841L595.32 841L595.32 841L595.32 -0.9199829L595.32 -0.9199829L8.871E-06 -0.9199829z" /></clipPath><clipPath id="294"><path id="" clip-rule="evenodd" d="M8.871E-06 841L595.32 841L595.32 841L595.32 -0.9199829L595.32 -0.9199829L8.871E-06 -0.9199829z" /></clipPath><clipPath id="295"><path id="" clip-rule="evenodd" d="M8.871E-06 841L595.32 841L595.32 841L595.32 -0.9199829L595.32 -0.9199829L8.871E-06 -0.9199829z" /></clipPath><clipPath id="296"><path id="" clip-rule="evenodd" d="M8.871E-06 841L595.32 841L595.32 841L595.32 -0.9199829L595.32 -0.9199829L8.871E-06 -0.9199829z" /></clipPath><clipPath id="297"><path id="" clip-rule="evenodd" d="M8.871E-06 841L595.32 841L595.32 841L595.32 -0.9199829L595.32 -0.9199829L8.871E-06 -0.9199829z" /></clipPath><clipPath id="298"><path id="" clip-rule="evenodd" d="M8.871E-06 841L595.32 841L595.32 841L595.32 -0.9199829L595.32 -0.9199829L8.871E-06 -0.9199829z" /></clipPath><clipPath id="299"><path id="" clip-rule="evenodd" d="M8.871E-06 841L595.32 841L595.32 841L595.32 -0.9199829L595.32 -0.9199829L8.871E-06 -0.9199829z" /></clipPath><clipPath id="300"><path id="" clip-rule="evenodd" d="M8.871E-06 841L595.32 841L595.32 841L595.32 -0.9199829L595.32 -0.9199829L8.871E-06 -0.9199829z" /></clipPath><clipPath id="301"><path id="" clip-rule="evenodd" d="M8.871E-06 841L595.32 841L595.32 841L595.32 -0.9199829L595.32 -0.9199829L8.871E-06 -0.9199829z" /></clipPath><clipPath id="302"><path id="" clip-rule="evenodd" d="M8.871E-06 841L595.32 841L595.32 841L595.32 -0.9199829L595.32 -0.9199829L8.871E-06 -0.9199829z" /></clipPath><clipPath id="303"><path id="" clip-rule="evenodd" d="M8.871E-06 841L595.32 841L595.32 841L595.32 -0.9199829L595.32 -0.9199829L8.871E-06 -0.9199829z" /></clipPath><clipPath id="304"><path id="" clip-rule="evenodd" d="M8.871E-06 841L595.32 841L595.32 841L595.32 -0.9199829L595.32 -0.9199829L8.871E-06 -0.9199829z" /></clipPath><clipPath id="305"><path id="" clip-rule="evenodd" d="M8.871E-06 841L595.32 841L595.32 841L595.32 -0.9199829L595.32 -0.9199829L8.871E-06 -0.9199829z" /></clipPath><clipPath id="306"><path id="" clip-rule="evenodd" d="M8.871E-06 841L595.32 841L595.32 841L595.32 -0.9199829L595.32 -0.9199829L8.871E-06 -0.9199829z" /></clipPath><clipPath id="307"><path id="" clip-rule="evenodd" d="M8.871E-06 841L595.32 841L595.32 841L595.32 -0.9199829L595.32 -0.9199829L8.871E-06 -0.9199829z" /></clipPath><clipPath id="308"><path id="" clip-rule="evenodd" d="M8.871E-06 841L595.32 841L595.32 841L595.32 -0.9199829L595.32 -0.9199829L8.871E-06 -0.9199829z" /></clipPath><clipPath id="309"><path id="" clip-rule="evenodd" d="M8.871E-06 841L595.32 841L595.32 841L595.32 -0.9199829L595.32 -0.9199829L8.871E-06 -0.9199829z" /></clipPath><clipPath id="310"><path id="" clip-rule="evenodd" d="M8.871E-06 841L595.32 841L595.32 841L595.32 -0.9199829L595.32 -0.9199829L8.871E-06 -0.9199829z" /></clipPath><clipPath id="311"><path id="" clip-rule="evenodd" d="M8.871E-06 841L595.32 841L595.32 841L595.32 -0.9199829L595.32 -0.9199829L8.871E-06 -0.9199829z" /></clipPath><clipPath id="312"><path id="" clip-rule="evenodd" d="M8.871E-06 841L595.32 841L595.32 841L595.32 -0.9199829L595.32 -0.9199829L8.871E-06 -0.9199829z" /></clipPath><clipPath id="313"><path id="" clip-rule="evenodd" d="M8.871E-06 841L595.32 841L595.32 841L595.32 -0.9199829L595.32 -0.9199829L8.871E-06 -0.9199829z" /></clipPath><clipPath id="314"><path id="" clip-rule="evenodd" d="M8.871E-06 841L595.32 841L595.32 841L595.32 -0.9199829L595.32 -0.9199829L8.871E-06 -0.9199829z" /></clipPath><clipPath id="315"><path id="" clip-rule="evenodd" d="M8.871E-06 841L595.32 841L595.32 841L595.32 -0.9199829L595.32 -0.9199829L8.871E-06 -0.9199829z" /></clipPath><clipPath id="316"><path id="" clip-rule="evenodd" d="M8.871E-06 841L595.32 841L595.32 841L595.32 -0.9199829L595.32 -0.9199829L8.871E-06 -0.9199829z" /></clipPath><clipPath id="317"><path id="" clip-rule="evenodd" d="M8.871E-06 841L595.32 841L595.32 841L595.32 -0.9199829L595.32 -0.9199829L8.871E-06 -0.9199829z" /></clipPath><clipPath id="318"><path id="" clip-rule="evenodd" d="M8.871E-06 841L595.32 841L595.32 841L595.32 -0.9199829L595.32 -0.9199829L8.871E-06 -0.9199829z" /></clipPath><clipPath id="319"><path id="" clip-rule="evenodd" d="M8.871E-06 841L595.32 841L595.32 841L595.32 -0.9199829L595.32 -0.9199829L8.871E-06 -0.9199829z" /></clipPath><clipPath id="320"><path id="" clip-rule="evenodd" d="M8.871E-06 841L595.32 841L595.32 841L595.32 -0.9199829L595.32 -0.9199829L8.871E-06 -0.9199829z" /></clipPath><clipPath id="321"><path id="" clip-rule="evenodd" d="M8.871E-06 841L595.32 841L595.32 841L595.32 -0.9199829L595.32 -0.9199829L8.871E-06 -0.9199829z" /></clipPath><clipPath id="322"><path id="" clip-rule="evenodd" d="M8.871E-06 841L595.32 841L595.32 841L595.32 -0.9199829L595.32 -0.9199829L8.871E-06 -0.9199829z" /></clipPath><clipPath id="323"><path id="" clip-rule="evenodd" d="M8.871E-06 841L595.32 841L595.32 841L595.32 -0.9199829L595.32 -0.9199829L8.871E-06 -0.9199829z" /></clipPath><clipPath id="324"><path id="" clip-rule="evenodd" d="M8.871E-06 841L595.32 841L595.32 841L595.32 -0.9199829L595.32 -0.9199829L8.871E-06 -0.9199829z" /></clipPath><clipPath id="325"><path id="" clip-rule="evenodd" d="M8.871E-06 841L595.32 841L595.32 841L595.32 -0.9199829L595.32 -0.9199829L8.871E-06 -0.9199829z" /></clipPath><clipPath id="326"><path id="" clip-rule="evenodd" d="M8.871E-06 841L595.32 841L595.32 841L595.32 -0.9199829L595.32 -0.9199829L8.871E-06 -0.9199829z" /></clipPath><clipPath id="327"><path id="" clip-rule="evenodd" d="M8.871E-06 841L595.32 841L595.32 841L595.32 -0.9199829L595.32 -0.9199829L8.871E-06 -0.9199829z" /></clipPath><clipPath id="328"><path id="" clip-rule="evenodd" d="M8.871E-06 841L595.32 841L595.32 841L595.32 -0.9199829L595.32 -0.9199829L8.871E-06 -0.9199829z" /></clipPath><clipPath id="329"><path id="" clip-rule="evenodd" d="M8.871E-06 841L595.32 841L595.32 841L595.32 -0.9199829L595.32 -0.9199829L8.871E-06 -0.9199829z" /></clipPath><clipPath id="330"><path id="" clip-rule="evenodd" d="M8.871E-06 841L595.32 841L595.32 841L595.32 -0.9199829L595.32 -0.9199829L8.871E-06 -0.9199829z" /></clipPath><clipPath id="331"><path id="" clip-rule="evenodd" d="M8.871E-06 841L595.32 841L595.32 841L595.32 -0.9199829L595.32 -0.9199829L8.871E-06 -0.9199829z" /></clipPath><clipPath id="332"><path id="" clip-rule="evenodd" d="M8.871E-06 841L595.32 841L595.32 841L595.32 -0.9199829L595.32 -0.9199829L8.871E-06 -0.9199829z" /></clipPath><clipPath id="333"><path id="" clip-rule="evenodd" d="M8.871E-06 841L595.32 841L595.32 841L595.32 -0.9199829L595.32 -0.9199829L8.871E-06 -0.9199829z" /></clipPath><clipPath id="334"><path id="" clip-rule="evenodd" d="M8.871E-06 841L595.32 841L595.32 841L595.32 -0.9199829L595.32 -0.9199829L8.871E-06 -0.9199829z" /></clipPath><clipPath id="335"><path id="" clip-rule="evenodd" d="M8.871E-06 841L595.32 841L595.32 841L595.32 -0.9199829L595.32 -0.9199829L8.871E-06 -0.9199829z" /></clipPath><clipPath id="336"><path id="" clip-rule="evenodd" d="M8.871E-06 841L595.32 841L595.32 841L595.32 -0.9199829L595.32 -0.9199829L8.871E-06 -0.9199829z" /></clipPath><clipPath id="337"><path id="" clip-rule="evenodd" d="M8.871E-06 841L595.32 841L595.32 841L595.32 -0.9199829L595.32 -0.9199829L8.871E-06 -0.9199829z" /></clipPath><clipPath id="338"><path id="" clip-rule="evenodd" d="M8.871E-06 841L595.32 841L595.32 841L595.32 -0.9199829L595.32 -0.9199829L8.871E-06 -0.9199829z" /></clipPath><clipPath id="339"><path id="" clip-rule="evenodd" d="M8.871E-06 841L595.32 841L595.32 841L595.32 -0.9199829L595.32 -0.9199829L8.871E-06 -0.9199829z" /></clipPath><clipPath id="340"><path id="" clip-rule="evenodd" d="M8.871E-06 841L595.32 841L595.32 841L595.32 -0.9199829L595.32 -0.9199829L8.871E-06 -0.9199829z" /></clipPath><clipPath id="341"><path id="" clip-rule="evenodd" d="M8.871E-06 841L595.32 841L595.32 841L595.32 -0.9199829L595.32 -0.9199829L8.871E-06 -0.9199829z" /></clipPath><clipPath id="342"><path id="" clip-rule="evenodd" d="M8.871E-06 841L595.32 841L595.32 841L595.32 -0.9199829L595.32 -0.9199829L8.871E-06 -0.9199829z" /></clipPath><clipPath id="343"><path id="" clip-rule="evenodd" d="M8.871E-06 841L595.32 841L595.32 841L595.32 -0.9199829L595.32 -0.9199829L8.871E-06 -0.9199829z" /></clipPath><clipPath id="344"><path id="" clip-rule="evenodd" d="M8.871E-06 841L595.32 841L595.32 841L595.32 -0.9199829L595.32 -0.9199829L8.871E-06 -0.9199829z" /></clipPath><clipPath id="345"><path id="" clip-rule="evenodd" d="M8.871E-06 841L595.32 841L595.32 841L595.32 -0.9199829L595.32 -0.9199829L8.871E-06 -0.9199829z" /></clipPath><clipPath id="346"><path id="" clip-rule="evenodd" d="M8.871E-06 841L595.32 841L595.32 841L595.32 -0.9199829L595.32 -0.9199829L8.871E-06 -0.9199829z" /></clipPath><clipPath id="347"><path id="" clip-rule="evenodd" d="M8.871E-06 841L595.32 841L595.32 841L595.32 -0.9199829L595.32 -0.9199829L8.871E-06 -0.9199829z" /></clipPath><clipPath id="348"><path id="" clip-rule="evenodd" d="M8.871E-06 841L595.32 841L595.32 841L595.32 -0.9199829L595.32 -0.9199829L8.871E-06 -0.9199829z" /></clipPath><clipPath id="349"><path id="" clip-rule="evenodd" d="M8.871E-06 841L595.32 841L595.32 841L595.32 -0.9199829L595.32 -0.9199829L8.871E-06 -0.9199829z" /></clipPath><clipPath id="350"><path id="" clip-rule="evenodd" d="M8.871E-06 841L595.32 841L595.32 841L595.32 -0.9199829L595.32 -0.9199829L8.871E-06 -0.9199829z" /></clipPath><clipPath id="351"><path id="" clip-rule="evenodd" d="M0 211.48L595.32 211.48L595.32 211.48L595.32 71.07996L595.32 71.07996L0 71.07996z" /></clipPath><clipPath id="352"><path id="" clip-rule="evenodd" d="M8.871E-06 740.92L595.32 740.92L595.32 740.92L595.32 538.12L595.32 538.12L8.871E-06 538.12z" /></clipPath></defs><g transform="matrix(1.333333 0 0 1.333333 0 0)"><g clip-path="url(#1)"><g clip-path="url(#2)"><path id="1" transform="matrix(1 0 0 -1 0 841)" d="M0 -0.13L595.45 -0.13L595.45 -0.13L595.45 841.92L595.45 841.92L0 841.92z" stroke="none" fill="#F5F1DE" fill-rule="evenodd" /></g><g clip-path="url(#3)"></g><g clip-path="url(#4)"></g><path id="23" transform="matrix(1 0 0 -1 0 841)" d="M90 777.72L505.3 777.72L505.3 777.72L505.3 779.27L505.3 779.27L90 779.27z" stroke="none" fill="#808080" fill-rule="evenodd" /><path id="24" transform="matrix(1 0 0 -1 0 841)" d="M90.024 779.04L90.264 779.04L90.264 779.04L90.264 779.28L90.264 779.28L90.024 779.28z" stroke="none" fill="#808080" fill-rule="evenodd" /><path id="25" transform="matrix(1 0 0 -1 0 841)" d="M90.024 779.04L90.264 779.04L90.264 779.04L90.264 779.28L90.264 779.28L90.024 779.28z" stroke="none" fill="#808080" fill-rule="evenodd" /><path id="26" transform="matrix(1 0 0 -1 0 841)" d="M90.264 779.04L505.204 779.04L505.204 779.04L505.204 779.28L505.204 779.28L90.264 779.28z" stroke="none" fill="#808080" fill-rule="evenodd" /><path id="27" transform="matrix(1 0 0 -1 0 841)" d="M505.2 779.04L505.44 779.04L505.44 779.04L505.44 779.28L505.44 779.28L505.2 779.28z" stroke="none" fill="#D4D0C8" fill-rule="evenodd" /><path id="28" transform="matrix(1 0 0 -1 0 841)" d="M505.2 779.04L505.44 779.04L505.44 779.04L505.44 779.28L505.44 779.28L505.2 779.28z" stroke="none" fill="#808080" fill-rule="evenodd" /><path id="29" transform="matrix(1 0 0 -1 0 841)" d="M90.024 777.96L90.264 777.96L90.264 777.96L90.264 779.04L90.264 779.04L90.024 779.04z" stroke="none" fill="#808080" fill-rule="evenodd" /><path id="30" transform="matrix(1 0 0 -1 0 841)" d="M505.2 777.96L505.44 777.96L505.44 777.96L505.44 779.04L505.44 779.04L505.2 779.04z" stroke="none" fill="#D4D0C8" fill-rule="evenodd" /><path id="31" transform="matrix(1 0 0 -1 0 841)" d="M90.024 777.72L90.264 777.72L90.264 777.72L90.264 777.96L90.264 777.96L90.024 777.96z" stroke="none" fill="#808080" fill-rule="evenodd" /><path id="32" transform="matrix(1 0 0 -1 0 841)" d="M90.024 777.72L90.264 777.72L90.264 777.72L90.264 777.96L90.264 777.96L90.024 777.96z" stroke="none" fill="#D4D0C8" fill-rule="evenodd" /><path id="33" transform="matrix(1 0 0 -1 0 841)" d="M90.264 777.72L505.204 777.72L505.204 777.72L505.204 777.96L505.204 777.96L90.264 777.96z" stroke="none" fill="#D4D0C8" fill-rule="evenodd" /><path id="34" transform="matrix(1 0 0 -1 0 841)" d="M505.2 777.72L505.44 777.72L505.44 777.72L505.44 777.96L505.44 777.96L505.2 777.96z" stroke="none" fill="#D4D0C8" fill-rule="evenodd" /><path id="35" transform="matrix(1 0 0 -1 0 841)" d="M505.2 777.72L505.44 777.72L505.44 777.72L505.44 777.96L505.44 777.96L505.2 777.96z" stroke="none" fill="#D4D0C8" fill-rule="evenodd" /><g clip-path="url(#5)"></g><g clip-path="url(#6)"></g><g clip-path="url(#7)"></g><g clip-path="url(#8)"></g><g clip-path="url(#9)"></g><g clip-path="url(#10)"></g><g clip-path="url(#11)"></g><g clip-path="url(#12)"></g><g clip-path="url(#13)"></g><g clip-path="url(#14)"></g><g clip-path="url(#15)"></g><g clip-path="url(#16)"></g><g clip-path="url(#17)"></g><g clip-path="url(#18)"></g><g clip-path="url(#19)"></g><g clip-path="url(#20)"></g><g clip-path="url(#21)"></g><g clip-path="url(#22)"></g><g clip-path="url(#23)"></g><g clip-path="url(#24)"></g><g clip-path="url(#25)"></g><g clip-path="url(#26)"></g><g clip-path="url(#27)"></g><g clip-path="url(#28)"></g><g clip-path="url(#29)"></g><g clip-path="url(#30)"></g><g clip-path="url(#31)"></g><g clip-path="url(#32)"></g><g clip-path="url(#33)"></g><g clip-path="url(#34)"></g><g clip-path="url(#35)"></g><g clip-path="url(#36)"></g><g clip-path="url(#37)"></g><g clip-path="url(#38)"></g><g clip-path="url(#39)"></g><g clip-path="url(#40)"></g><g clip-path="url(#41)"></g><g clip-path="url(#42)"></g><g clip-path="url(#43)"></g><g clip-path="url(#44)"></g><g clip-path="url(#45)"></g><g clip-path="url(#46)"></g><g clip-path="url(#47)"></g><g clip-path="url(#48)"></g><g clip-path="url(#49)"></g><g clip-path="url(#50)"></g><g clip-path="url(#51)"></g><g clip-path="url(#52)"></g><g clip-path="url(#53)"></g><g clip-path="url(#54)"></g><g clip-path="url(#55)"></g><g clip-path="url(#56)"></g><g clip-path="url(#57)"></g><g clip-path="url(#58)"></g><g clip-path="url(#59)"></g><g clip-path="url(#60)"></g><g clip-path="url(#61)"></g><g clip-path="url(#62)"></g><g clip-path="url(#63)"></g><g clip-path="url(#64)"></g><g clip-path="url(#65)"></g><g clip-path="url(#66)"></g><g clip-path="url(#67)"></g><g clip-path="url(#68)"></g><g clip-path="url(#69)"></g><g clip-path="url(#70)"></g><g clip-path="url(#71)"></g><g clip-path="url(#72)"></g><g clip-path="url(#73)"></g><g clip-path="url(#74)"><g clip-path="url(#75)"></g></g><g clip-path="url(#76)"><g clip-path="url(#77)"></g><g clip-path="url(#78)"></g><g clip-path="url(#79)"></g><g clip-path="url(#80)"></g><g clip-path="url(#81)"></g></g><g clip-path="url(#82)"><g clip-path="url(#83)"></g><g clip-path="url(#84)"></g><g clip-path="url(#85)"></g></g><g clip-path="url(#86)"><g clip-path="url(#87)"></g><g clip-path="url(#88)"></g><g clip-path="url(#89)"></g><g clip-path="url(#90)"></g><g clip-path="url(#91)"></g></g><g clip-path="url(#92)"><g clip-path="url(#93)"></g><g clip-path="url(#94)"></g><g clip-path="url(#95)"></g><g clip-path="url(#96)"></g><g clip-path="url(#97)"></g></g><g clip-path="url(#98)"><g clip-path="url(#99)"></g><g clip-path="url(#100)"></g><g clip-path="url(#101)"></g><g clip-path="url(#102)"></g></g><g clip-path="url(#103)"><g clip-path="url(#104)"></g><g clip-path="url(#105)"></g><g clip-path="url(#106)"></g></g><g clip-path="url(#107)"><g clip-path="url(#108)"></g><g clip-path="url(#109)"></g><g clip-path="url(#110)"></g></g><path id="733" transform="matrix(1 0 0 -1 0 841)" d="M118.34 482.35L175.124 482.35L175.124 482.35L175.124 482.83L175.124 482.83L118.34 482.83z" stroke="none" fill="#000000" fill-rule="evenodd" /><path id="734" transform="matrix(1 0 0 -1 0 841)" d="M175.13 482.35L175.61 482.35L175.61 482.35L175.61 482.83L175.61 482.83L175.13 482.83z" stroke="none" fill="#000000" fill-rule="evenodd" /><path id="735" transform="matrix(1 0 0 -1 0 841)" d="M175.61 482.35L217.61 482.35L217.61 482.35L217.61 482.83L217.61 482.83L175.61 482.83z" stroke="none" fill="#000000" fill-rule="evenodd" /><path id="736" transform="matrix(1 0 0 -1 0 841)" d="M217.61 482.35L218.09 482.35L218.09 482.35L218.09 482.83L218.09 482.83L217.61 482.83z" stroke="none" fill="#000000" fill-rule="evenodd" /><path id="737" transform="matrix(1 0 0 -1 0 841)" d="M218.09 482.35L260.21 482.35L260.21 482.35L260.21 482.83L260.21 482.83L218.09 482.83z" stroke="none" fill="#000000" fill-rule="evenodd" /><path id="738" transform="matrix(1 0 0 -1 0 841)" d="M260.21 482.35L260.69 482.35L260.69 482.35L260.69 482.83L260.69 482.83L260.21 482.83z" stroke="none" fill="#000000" fill-rule="evenodd" /><path id="739" transform="matrix(1 0 0 -1 0 841)" d="M260.69 482.35L302.714 482.35L302.714 482.35L302.714 482.83L302.714 482.83L260.69 482.83z" stroke="none" fill="#000000" fill-rule="evenodd" /><path id="740" transform="matrix(1 0 0 -1 0 841)" d="M302.71 482.35L303.19 482.35L303.19 482.35L303.19 482.83L303.19 482.83L302.71 482.83z" stroke="none" fill="#000000" fill-rule="evenodd" /><path id="741" transform="matrix(1 0 0 -1 0 841)" d="M303.19 482.35L345.19 482.35L345.19 482.35L345.19 482.83L345.19 482.83L303.19 482.83z" stroke="none" fill="#000000" fill-rule="evenodd" /><path id="742" transform="matrix(1 0 0 -1 0 841)" d="M345.19 482.35L345.67 482.35L345.67 482.35L345.67 482.83L345.67 482.83L345.19 482.83z" stroke="none" fill="#000000" fill-rule="evenodd" /><path id="743" transform="matrix(1 0 0 -1 0 841)" d="M345.67 482.35L394.894 482.35L394.894 482.35L394.894 482.83L394.894 482.83L345.67 482.83z" stroke="none" fill="#000000" fill-rule="evenodd" /><path id="744" transform="matrix(1 0 0 -1 0 841)" d="M394.9 482.35L395.38 482.35L395.38 482.35L395.38 482.83L395.38 482.83L394.9 482.83z" stroke="none" fill="#000000" fill-rule="evenodd" /><path id="745" transform="matrix(1 0 0 -1 0 841)" d="M395.38 482.35L437.38 482.35L437.38 482.35L437.38 482.83L437.38 482.83L395.38 482.83z" stroke="none" fill="#000000" fill-rule="evenodd" /><path id="746" transform="matrix(1 0 0 -1 0 841)" d="M437.38 482.35L437.86 482.35L437.86 482.35L437.86 482.83L437.86 482.83L437.38 482.83z" stroke="none" fill="#000000" fill-rule="evenodd" /><path id="747" transform="matrix(1 0 0 -1 0 841)" d="M437.86 482.35L472.78 482.35L472.78 482.35L472.78 482.83L472.78 482.83L437.86 482.83z" stroke="none" fill="#000000" fill-rule="evenodd" /><g clip-path="url(#111)"><g clip-path="url(#112)"></g><g clip-path="url(#113)"></g><g clip-path="url(#114)"></g><g clip-path="url(#115)"></g><g clip-path="url(#116)"></g></g><g clip-path="url(#117)"><g clip-path="url(#118)"></g><g clip-path="url(#119)"></g></g><g clip-path="url(#120)"><g clip-path="url(#121)"></g><g clip-path="url(#122)"></g></g><g clip-path="url(#123)"><g clip-path="url(#124)"></g><g clip-path="url(#125)"></g></g><g clip-path="url(#126)"><g clip-path="url(#127)"></g><g clip-path="url(#128)"></g><g clip-path="url(#129)"></g></g><g clip-path="url(#130)"><g clip-path="url(#131)"></g><g clip-path="url(#132)"></g></g><g clip-path="url(#133)"><g clip-path="url(#134)"></g><g clip-path="url(#135)"></g><g clip-path="url(#136)"></g></g><g clip-path="url(#137)"><g clip-path="url(#138)"></g><g clip-path="url(#139)"></g><g clip-path="url(#140)"></g></g><path id="782" transform="matrix(1 0 0 -1 0 841)" d="M118.34 466.27L175.124 466.27L175.124 466.27L175.124 466.75L175.124 466.75L118.34 466.75z" stroke="none" fill="#000000" fill-rule="evenodd" /><path id="783" transform="matrix(1 0 0 -1 0 841)" d="M175.13 466.27L175.61 466.27L175.61 466.27L175.61 466.75L175.61 466.75L175.13 466.75z" stroke="none" fill="#000000" fill-rule="evenodd" /><path id="784" transform="matrix(1 0 0 -1 0 841)" d="M175.61 466.27L217.61 466.27L217.61 466.27L217.61 466.75L217.61 466.75L175.61 466.75z" stroke="none" fill="#000000" fill-rule="evenodd" /><path id="785" transform="matrix(1 0 0 -1 0 841)" d="M217.61 466.27L218.09 466.27L218.09 466.27L218.09 466.75L218.09 466.75L217.61 466.75z" stroke="none" fill="#000000" fill-rule="evenodd" /><path id="786" transform="matrix(1 0 0 -1 0 841)" d="M218.09 466.27L260.21 466.27L260.21 466.27L260.21 466.75L260.21 466.75L218.09 466.75z" stroke="none" fill="#000000" fill-rule="evenodd" /><path id="787" transform="matrix(1 0 0 -1 0 841)" d="M260.21 466.27L260.69 466.27L260.69 466.27L260.69 466.75L260.69 466.75L260.21 466.75z" stroke="none" fill="#000000" fill-rule="evenodd" /><path id="788" transform="matrix(1 0 0 -1 0 841)" d="M260.69 466.27L302.714 466.27L302.714 466.27L302.714 466.75L302.714 466.75L260.69 466.75z" stroke="none" fill="#000000" fill-rule="evenodd" /><path id="789" transform="matrix(1 0 0 -1 0 841)" d="M302.71 466.27L303.19 466.27L303.19 466.27L303.19 466.75L303.19 466.75L302.71 466.75z" stroke="none" fill="#000000" fill-rule="evenodd" /><path id="790" transform="matrix(1 0 0 -1 0 841)" d="M303.19 466.27L345.19 466.27L345.19 466.27L345.19 466.75L345.19 466.75L303.19 466.75z" stroke="none" fill="#000000" fill-rule="evenodd" /><path id="791" transform="matrix(1 0 0 -1 0 841)" d="M345.19 466.27L345.67 466.27L345.67 466.27L345.67 466.75L345.67 466.75L345.19 466.75z" stroke="none" fill="#000000" fill-rule="evenodd" /><path id="792" transform="matrix(1 0 0 -1 0 841)" d="M345.67 466.27L394.894 466.27L394.894 466.27L394.894 466.75L394.894 466.75L345.67 466.75z" stroke="none" fill="#000000" fill-rule="evenodd" /><path id="793" transform="matrix(1 0 0 -1 0 841)" d="M394.9 466.27L395.38 466.27L395.38 466.27L395.38 466.75L395.38 466.75L394.9 466.75z" stroke="none" fill="#000000" fill-rule="evenodd" /><path id="794" transform="matrix(1 0 0 -1 0 841)" d="M395.38 466.27L437.38 466.27L437.38 466.27L437.38 466.75L437.38 466.75L395.38 466.75z" stroke="none" fill="#000000" fill-rule="evenodd" /><path id="795" transform="matrix(1 0 0 -1 0 841)" d="M437.38 466.27L437.86 466.27L437.86 466.27L437.86 466.75L437.86 466.75L437.38 466.75z" stroke="none" fill="#000000" fill-rule="evenodd" /><path id="796" transform="matrix(1 0 0 -1 0 841)" d="M437.86 466.27L472.78 466.27L472.78 466.27L472.78 466.75L472.78 466.75L437.86 466.75z" stroke="none" fill="#000000" fill-rule="evenodd" /><g clip-path="url(#141)"><g clip-path="url(#142)"></g><g clip-path="url(#143)"></g><g clip-path="url(#144)"></g><g clip-path="url(#145)"></g><g clip-path="url(#146)"></g></g><g clip-path="url(#147)"><g clip-path="url(#148)"></g><g clip-path="url(#149)"></g><g clip-path="url(#150)"></g></g><g clip-path="url(#151)"><g clip-path="url(#152)"></g><g clip-path="url(#153)"></g><g clip-path="url(#154)"></g></g><g clip-path="url(#155)"><g clip-path="url(#156)"></g><g clip-path="url(#157)"></g><g clip-path="url(#158)"></g></g><g clip-path="url(#159)"><g clip-path="url(#160)"></g><g clip-path="url(#161)"></g><g clip-path="url(#162)"></g></g><g clip-path="url(#163)"><g clip-path="url(#164)"></g><g clip-path="url(#165)"></g><g clip-path="url(#166)"></g></g><g clip-path="url(#167)"><g clip-path="url(#168)"></g><g clip-path="url(#169)"></g><g clip-path="url(#170)"></g></g><g clip-path="url(#171)"><g clip-path="url(#172)"></g><g clip-path="url(#173)"></g><g clip-path="url(#174)"></g></g><g clip-path="url(#175)"><g clip-path="url(#176)"></g><g clip-path="url(#177)"></g><g clip-path="url(#178)"></g><g clip-path="url(#179)"></g><g clip-path="url(#180)"></g></g><g clip-path="url(#181)"><g clip-path="url(#182)"></g><g clip-path="url(#183)"></g><g clip-path="url(#184)"></g></g><g clip-path="url(#185)"><g clip-path="url(#186)"></g><g clip-path="url(#187)"></g><g clip-path="url(#188)"></g></g><g clip-path="url(#189)"><g clip-path="url(#190)"></g><g clip-path="url(#191)"></g><g clip-path="url(#192)"></g></g><g clip-path="url(#193)"><g clip-path="url(#194)"></g><g clip-path="url(#195)"></g><g clip-path="url(#196)"></g></g><g clip-path="url(#197)"><g clip-path="url(#198)"></g><g clip-path="url(#199)"></g><g clip-path="url(#200)"></g></g><g clip-path="url(#201)"><g clip-path="url(#202)"></g><g clip-path="url(#203)"></g><g clip-path="url(#204)"></g></g><g clip-path="url(#205)"><g clip-path="url(#206)"></g><g clip-path="url(#207)"></g><g clip-path="url(#208)"></g></g><g clip-path="url(#209)"><g clip-path="url(#210)"></g><g clip-path="url(#211)"></g><g clip-path="url(#212)"></g><g clip-path="url(#213)"></g><g clip-path="url(#214)"></g></g><g clip-path="url(#215)"><g clip-path="url(#216)"></g><g clip-path="url(#217)"></g><g clip-path="url(#218)"></g></g><g clip-path="url(#219)"><g clip-path="url(#220)"></g><g clip-path="url(#221)"></g><g clip-path="url(#222)"></g></g><g clip-path="url(#223)"><g clip-path="url(#224)"></g><g clip-path="url(#225)"></g><g clip-path="url(#226)"></g></g><g clip-path="url(#227)"><g clip-path="url(#228)"></g><g clip-path="url(#229)"></g><g clip-path="url(#230)"></g></g><g clip-path="url(#231)"><g clip-path="url(#232)"></g><g clip-path="url(#233)"></g><g clip-path="url(#234)"></g></g><g clip-path="url(#235)"><g clip-path="url(#236)"></g><g clip-path="url(#237)"></g><g clip-path="url(#238)"></g></g><g clip-path="url(#239)"><g clip-path="url(#240)"></g><g clip-path="url(#241)"></g><g clip-path="url(#242)"></g></g><g clip-path="url(#243)"><g clip-path="url(#244)"></g><g clip-path="url(#245)"></g><g clip-path="url(#246)"></g><g clip-path="url(#247)"></g><g clip-path="url(#248)"></g></g><g clip-path="url(#249)"><g clip-path="url(#250)"></g><g clip-path="url(#251)"></g><g clip-path="url(#252)"></g></g><g clip-path="url(#253)"><g clip-path="url(#254)"></g><g clip-path="url(#255)"></g><g clip-path="url(#256)"></g></g><g clip-path="url(#257)"><g clip-path="url(#258)"></g><g clip-path="url(#259)"></g><g clip-path="url(#260)"></g></g><g clip-path="url(#261)"><g clip-path="url(#262)"></g><g clip-path="url(#263)"></g><g clip-path="url(#264)"></g></g><g clip-path="url(#265)"><g clip-path="url(#266)"></g><g clip-path="url(#267)"></g><g clip-path="url(#268)"></g></g><g clip-path="url(#269)"><g clip-path="url(#270)"></g><g clip-path="url(#271)"></g><g clip-path="url(#272)"></g></g><g clip-path="url(#273)"><g clip-path="url(#274)"></g><g clip-path="url(#275)"></g><g clip-path="url(#276)"></g></g><path id="926" transform="matrix(1 0 0 -1 0 841)" d="M117.62 387.77L175.124 387.77L175.124 387.77L175.124 388.25L175.124 388.25L117.62 388.25z" stroke="none" fill="#000000" fill-rule="evenodd" /><path id="927" transform="matrix(1 0 0 -1 0 841)" d="M174.41 387.77L174.89 387.77L174.89 387.77L174.89 388.25L174.89 388.25L174.41 388.25z" stroke="none" fill="#000000" fill-rule="evenodd" /><path id="928" transform="matrix(1 0 0 -1 0 841)" d="M174.89 387.77L217.61 387.77L217.61 387.77L217.61 388.25L217.61 388.25L174.89 388.25z" stroke="none" fill="#000000" fill-rule="evenodd" /><path id="929" transform="matrix(1 0 0 -1 0 841)" d="M216.89 387.77L217.37 387.77L217.37 387.77L217.37 388.25L217.37 388.25L216.89 388.25z" stroke="none" fill="#000000" fill-rule="evenodd" /><path id="930" transform="matrix(1 0 0 -1 0 841)" d="M217.37 387.77L260.21 387.77L260.21 387.77L260.21 388.25L260.21 388.25L217.37 388.25z" stroke="none" fill="#000000" fill-rule="evenodd" /><path id="931" transform="matrix(1 0 0 -1 0 841)" d="M259.49 387.77L259.97 387.77L259.97 387.77L259.97 388.25L259.97 388.25L259.49 388.25z" stroke="none" fill="#000000" fill-rule="evenodd" /><path id="932" transform="matrix(1 0 0 -1 0 841)" d="M259.97 387.77L302.714 387.77L302.714 387.77L302.714 388.25L302.714 388.25L259.97 388.25z" stroke="none" fill="#000000" fill-rule="evenodd" /><path id="933" transform="matrix(1 0 0 -1 0 841)" d="M301.99 387.77L302.47 387.77L302.47 387.77L302.47 388.25L302.47 388.25L301.99 388.25z" stroke="none" fill="#000000" fill-rule="evenodd" /><path id="934" transform="matrix(1 0 0 -1 0 841)" d="M302.47 387.77L345.19 387.77L345.19 387.77L345.19 388.25L345.19 388.25L302.47 388.25z" stroke="none" fill="#000000" fill-rule="evenodd" /><path id="935" transform="matrix(1 0 0 -1 0 841)" d="M344.47 387.77L344.95 387.77L344.95 387.77L344.95 388.25L344.95 388.25L344.47 388.25z" stroke="none" fill="#000000" fill-rule="evenodd" /><path id="936" transform="matrix(1 0 0 -1 0 841)" d="M344.95 387.77L394.894 387.77L394.894 387.77L394.894 388.25L394.894 388.25L344.95 388.25z" stroke="none" fill="#000000" fill-rule="evenodd" /><path id="937" transform="matrix(1 0 0 -1 0 841)" d="M394.18 387.77L394.66 387.77L394.66 387.77L394.66 388.25L394.66 388.25L394.18 388.25z" stroke="none" fill="#000000" fill-rule="evenodd" /><path id="938" transform="matrix(1 0 0 -1 0 841)" d="M394.66 387.77L437.38 387.77L437.38 387.77L437.38 388.25L437.38 388.25L394.66 388.25z" stroke="none" fill="#000000" fill-rule="evenodd" /><path id="939" transform="matrix(1 0 0 -1 0 841)" d="M436.66 387.77L437.14 387.77L437.14 387.77L437.14 388.25L437.14 388.25L436.66 388.25z" stroke="none" fill="#000000" fill-rule="evenodd" /><path id="940" transform="matrix(1 0 0 -1 0 841)" d="M437.14 387.77L472.78 387.77L472.78 387.77L472.78 388.25L472.78 388.25L437.14 388.25z" stroke="none" fill="#000000" fill-rule="evenodd" /><g clip-path="url(#277)"></g><g clip-path="url(#278)"></g><g clip-path="url(#279)"></g><g clip-path="url(#280)"></g><g clip-path="url(#281)"></g><g clip-path="url(#282)"></g><g clip-path="url(#283)"></g><g clip-path="url(#284)"></g><g clip-path="url(#285)"></g><g clip-path="url(#286)"></g><g clip-path="url(#287)"></g><g clip-path="url(#288)"></g><g clip-path="url(#289)"></g><g clip-path="url(#290)"></g><g clip-path="url(#291)"></g><g clip-path="url(#292)"></g><g clip-path="url(#293)"></g><g clip-path="url(#294)"></g><g clip-path="url(#295)"></g><g clip-path="url(#296)"></g><g clip-path="url(#297)"></g><g clip-path="url(#298)"></g><g clip-path="url(#299)"></g><g clip-path="url(#300)"></g><g clip-path="url(#301)"></g><g clip-path="url(#302)"></g><g clip-path="url(#303)"></g><g clip-path="url(#304)"></g><g clip-path="url(#305)"></g><g clip-path="url(#306)"></g><g clip-path="url(#307)"></g><g clip-path="url(#308)"></g><g clip-path="url(#309)"></g><g clip-path="url(#310)"></g><g clip-path="url(#311)"></g><g clip-path="url(#312)"></g><g clip-path="url(#313)"></g><g clip-path="url(#314)"></g><g clip-path="url(#315)"></g><g clip-path="url(#316)"></g><g clip-path="url(#317)"></g><g clip-path="url(#318)"></g><g clip-path="url(#319)"></g><g clip-path="url(#320)"></g><g clip-path="url(#321)"></g><g clip-path="url(#322)"></g><g clip-path="url(#323)"></g><g clip-path="url(#324)"></g><g clip-path="url(#325)"></g><g clip-path="url(#326)"></g><g clip-path="url(#327)"></g><g clip-path="url(#328)"></g><g clip-path="url(#329)"></g><g clip-path="url(#330)"></g><g clip-path="url(#331)"></g><g clip-path="url(#332)"></g><g clip-path="url(#333)"></g><g clip-path="url(#334)"></g><g clip-path="url(#335)"></g><g clip-path="url(#336)"></g><g clip-path="url(#337)"></g><g clip-path="url(#338)"></g><g clip-path="url(#339)"></g><g clip-path="url(#340)"></g><g clip-path="url(#341)"></g><g clip-path="url(#342)"></g><g clip-path="url(#343)"></g><g clip-path="url(#344)"></g><g clip-path="url(#345)"></g><g clip-path="url(#346)"></g><g clip-path="url(#347)"></g><g clip-path="url(#348)"></g><g clip-path="url(#349)"></g><g clip-path="url(#350)"></g><g clip-path="url(#351)"><g transform="matrix(0.4488778 0 0 0.4488055 117.65 75.53003)"><g transform="matrix(1 0 0 1 0 0)"><image x="0" y="0" xlink:href="img_949.jpg" width="802" height="293" /></g></g></g><g clip-path="url(#352)"><g transform="matrix(0.3270292 0 0 0.3266998 90.15 541.07)"><g transform="matrix(1 0 0 1 0 0)"><image x="0" y="0" xlink:href="img_950.jpg" width="1269" height="603" /></g></g></g></g></g></svg>