<svg xmlns="http://www.w3.org/2000/svg" xmlns:xlink="http://www.w3.org/1999/xlink" id="body_186" preserveAspectRatio="xMinYMin meet" viewBox="0 0 793 1121"><defs><clipPath id="1"><path id="" clip-rule="evenodd" d="M0 841L0 -0.9199829L0 -0.9199829L595.32 -0.9199829L595.32 -0.9199829L595.32 841L595.32 841L0 841z" /></clipPath><clipPath id="2"><path id="" clip-rule="evenodd" d="M0 840.9999L595.32 840.9999L595.32 840.9999L595.32 -0.9200439L595.32 -0.9200439L0 -0.9200439z" /></clipPath><clipPath id="3"><path id="" clip-rule="evenodd" d="M8.871E-06 841L595.32 841L595.32 841L595.32 -0.9199829L595.32 -0.9199829L8.871E-06 -0.9199829z" /></clipPath><clipPath id="4"><path id="" clip-rule="evenodd" d="M8.871E-06 841L595.32 841L595.32 841L595.32 -0.9199829L595.32 -0.9199829L8.871E-06 -0.9199829z" /></clipPath><clipPath id="5"><path id="" clip-rule="evenodd" d="M8.871E-06 841L595.32 841L595.32 841L595.32 -0.9199829L595.32 -0.9199829L8.871E-06 -0.9199829z" /></clipPath><clipPath id="6"><path id="" clip-rule="evenodd" d="M8.871E-06 841L595.32 841L595.32 841L595.32 -0.9199829L595.32 -0.9199829L8.871E-06 -0.9199829z" /></clipPath><clipPath id="7"><path id="" clip-rule="evenodd" d="M8.871E-06 841L595.32 841L595.32 841L595.32 -0.9199829L595.32 -0.9199829L8.871E-06 -0.9199829z" /></clipPath><clipPath id="8"><path id="" clip-rule="evenodd" d="M0 840.9999L595.32 840.9999L595.32 840.9999L595.32 -0.9200439L595.32 -0.9200439L0 -0.9200439z" /></clipPath><clipPath id="9"><path id="" clip-rule="evenodd" d="M133.86 302.14L461.4569 302.14L461.4569 302.14L461.4569 74.1344L461.4569 74.1344L133.86 74.1344z" /></clipPath><clipPath id="10"><path id="" clip-rule="evenodd" d="M192.5233 264.3973L416.0432 264.3973L416.0432 264.3973L416.0432 100.6135L416.0432 100.6135L192.5233 100.6135z" /></clipPath><clipPath id="11"><path id="" clip-rule="evenodd" d="M192.5233 264.3973L416.0432 264.3973L416.0432 264.3973L416.0432 100.6135L416.0432 100.6135L192.5233 100.6135z" /></clipPath><clipPath id="12"><path id="" clip-rule="evenodd" d="M192.5233 264.3973L416.0432 264.3973L416.0432 264.3973L416.0432 100.6135L416.0432 100.6135L192.5233 100.6135z" /></clipPath><clipPath id="13"><path id="" clip-rule="evenodd" d="M192.5233 264.3973L416.0432 264.3973L416.0432 264.3973L416.0432 100.6135L416.0432 100.6135L192.5233 100.6135z" /></clipPath><clipPath id="14"><path id="" clip-rule="evenodd" d="M192.5233 264.3973L416.0432 264.3973L416.0432 264.3973L416.0432 100.6135L416.0432 100.6135L192.5233 100.6135z" /></clipPath><clipPath id="15"><path id="" clip-rule="evenodd" d="M8.871E-06 841L595.32 841L595.32 841L595.32 -0.9199829L595.32 -0.9199829L8.871E-06 -0.9199829z" /></clipPath><clipPath id="16"><path id="" clip-rule="evenodd" d="M8.871E-06 841L595.32 841L595.32 841L595.32 -0.9199829L595.32 -0.9199829L8.871E-06 -0.9199829z" /></clipPath><clipPath id="17"><path id="" clip-rule="evenodd" d="M8.871E-06 841L595.32 841L595.32 841L595.32 -0.9199829L595.32 -0.9199829L8.871E-06 -0.9199829z" /></clipPath><clipPath id="18"><path id="" clip-rule="evenodd" d="M8.871E-06 841L595.32 841L595.32 841L595.32 -0.9199829L595.32 -0.9199829L8.871E-06 -0.9199829z" /></clipPath><clipPath id="19"><path id="" clip-rule="evenodd" d="M8.871E-06 841L595.32 841L595.32 841L595.32 -0.9199829L595.32 -0.9199829L8.871E-06 -0.9199829z" /></clipPath><clipPath id="20"><path id="" clip-rule="evenodd" d="M8.871E-06 841L595.32 841L595.32 841L595.32 -0.9199829L595.32 -0.9199829L8.871E-06 -0.9199829z" /></clipPath><clipPath id="21"><path id="" clip-rule="evenodd" d="M8.871E-06 841L595.32 841L595.32 841L595.32 -0.9199829L595.32 -0.9199829L8.871E-06 -0.9199829z" /></clipPath><clipPath id="22"><path id="" clip-rule="evenodd" d="M8.871E-06 841L595.32 841L595.32 841L595.32 -0.9199829L595.32 -0.9199829L8.871E-06 -0.9199829z" /></clipPath><clipPath id="23"><path id="" clip-rule="evenodd" d="M8.871E-06 841L595.32 841L595.32 841L595.32 -0.9199829L595.32 -0.9199829L8.871E-06 -0.9199829z" /></clipPath><clipPath id="24"><path id="" clip-rule="evenodd" d="M8.871E-06 841L595.32 841L595.32 841L595.32 -0.9199829L595.32 -0.9199829L8.871E-06 -0.9199829z" /></clipPath><clipPath id="25"><path id="" clip-rule="evenodd" d="M8.871E-06 841L595.32 841L595.32 841L595.32 -0.9199829L595.32 -0.9199829L8.871E-06 -0.9199829z" /></clipPath><clipPath id="26"><path id="" clip-rule="evenodd" d="M8.871E-06 841L595.32 841L595.32 841L595.32 -0.9199829L595.32 -0.9199829L8.871E-06 -0.9199829z" /></clipPath><clipPath id="27"><path id="" clip-rule="evenodd" d="M8.871E-06 841L595.32 841L595.32 841L595.32 -0.9199829L595.32 -0.9199829L8.871E-06 -0.9199829z" /></clipPath><clipPath id="28"><path id="" clip-rule="evenodd" d="M8.871E-06 841L595.32 841L595.32 841L595.32 -0.9199829L595.32 -0.9199829L8.871E-06 -0.9199829z" /></clipPath><clipPath id="29"><path id="" clip-rule="evenodd" d="M8.871E-06 841L595.32 841L595.32 841L595.32 -0.9199829L595.32 -0.9199829L8.871E-06 -0.9199829z" /></clipPath><clipPath id="30"><path id="" clip-rule="evenodd" d="M8.871E-06 841L595.32 841L595.32 841L595.32 -0.9199829L595.32 -0.9199829L8.871E-06 -0.9199829z" /></clipPath><clipPath id="31"><path id="" clip-rule="evenodd" d="M8.871E-06 841L595.32 841L595.32 841L595.32 -0.9199829L595.32 -0.9199829L8.871E-06 -0.9199829z" /></clipPath><clipPath id="32"><path id="" clip-rule="evenodd" d="M8.871E-06 841L595.32 841L595.32 841L595.32 -0.9199829L595.32 -0.9199829L8.871E-06 -0.9199829z" /></clipPath><clipPath id="33"><path id="" clip-rule="evenodd" d="M8.871E-06 841L595.32 841L595.32 841L595.32 -0.9199829L595.32 -0.9199829L8.871E-06 -0.9199829z" /></clipPath><clipPath id="34"><path id="" clip-rule="evenodd" d="M8.871E-06 841L595.32 841L595.32 841L595.32 -0.9199829L595.32 -0.9199829L8.871E-06 -0.9199829z" /></clipPath><clipPath id="35"><path id="" clip-rule="evenodd" d="M8.871E-06 841L595.32 841L595.32 841L595.32 -0.9199829L595.32 -0.9199829L8.871E-06 -0.9199829z" /></clipPath><clipPath id="36"><path id="" clip-rule="evenodd" d="M8.871E-06 841L595.32 841L595.32 841L595.32 -0.9199829L595.32 -0.9199829L8.871E-06 -0.9199829z" /></clipPath><clipPath id="37"><path id="" clip-rule="evenodd" d="M8.871E-06 841L595.32 841L595.32 841L595.32 -0.9199829L595.32 -0.9199829L8.871E-06 -0.9199829z" /></clipPath><clipPath id="38"><path id="" clip-rule="evenodd" d="M8.871E-06 841L595.32 841L595.32 841L595.32 -0.9199829L595.32 -0.9199829L8.871E-06 -0.9199829z" /></clipPath><clipPath id="39"><path id="" clip-rule="evenodd" d="M8.871E-06 841L595.32 841L595.32 841L595.32 -0.9199829L595.32 -0.9199829L8.871E-06 -0.9199829z" /></clipPath><clipPath id="40"><path id="" clip-rule="evenodd" d="M8.871E-06 841L595.32 841L595.32 841L595.32 -0.9199829L595.32 -0.9199829L8.871E-06 -0.9199829z" /></clipPath><clipPath id="41"><path id="" clip-rule="evenodd" d="M8.871E-06 841L595.32 841L595.32 841L595.32 -0.9199829L595.32 -0.9199829L8.871E-06 -0.9199829z" /></clipPath><clipPath id="42"><path id="" clip-rule="evenodd" d="M8.871E-06 841L595.32 841L595.32 841L595.32 -0.9199829L595.32 -0.9199829L8.871E-06 -0.9199829z" /></clipPath><clipPath id="43"><path id="" clip-rule="evenodd" d="M8.871E-06 841L595.32 841L595.32 841L595.32 -0.9199829L595.32 -0.9199829L8.871E-06 -0.9199829z" /></clipPath><clipPath id="44"><path id="" clip-rule="evenodd" d="M8.871E-06 841L595.32 841L595.32 841L595.32 -0.9199829L595.32 -0.9199829L8.871E-06 -0.9199829z" /></clipPath><clipPath id="45"><path id="" clip-rule="evenodd" d="M8.871E-06 841L595.32 841L595.32 841L595.32 -0.9199829L595.32 -0.9199829L8.871E-06 -0.9199829z" /></clipPath><clipPath id="46"><path id="" clip-rule="evenodd" d="M8.871E-06 841L595.32 841L595.32 841L595.32 -0.9199829L595.32 -0.9199829L8.871E-06 -0.9199829z" /></clipPath><clipPath id="47"><path id="" clip-rule="evenodd" d="M8.871E-06 841L595.32 841L595.32 841L595.32 -0.9199829L595.32 -0.9199829L8.871E-06 -0.9199829z" /></clipPath><clipPath id="48"><path id="" clip-rule="evenodd" d="M8.871E-06 841L595.32 841L595.32 841L595.32 -0.9199829L595.32 -0.9199829L8.871E-06 -0.9199829z" /></clipPath><clipPath id="49"><path id="" clip-rule="evenodd" d="M8.871E-06 841L595.32 841L595.32 841L595.32 -0.9199829L595.32 -0.9199829L8.871E-06 -0.9199829z" /></clipPath><clipPath id="50"><path id="" clip-rule="evenodd" d="M8.871E-06 841L595.32 841L595.32 841L595.32 -0.9199829L595.32 -0.9199829L8.871E-06 -0.9199829z" /></clipPath><clipPath id="51"><path id="" clip-rule="evenodd" d="M8.871E-06 841L595.32 841L595.32 841L595.32 -0.9199829L595.32 -0.9199829L8.871E-06 -0.9199829z" /></clipPath><clipPath id="52"><path id="" clip-rule="evenodd" d="M8.871E-06 841L595.32 841L595.32 841L595.32 -0.9199829L595.32 -0.9199829L8.871E-06 -0.9199829z" /></clipPath><clipPath id="53"><path id="" clip-rule="evenodd" d="M8.871E-06 841L595.32 841L595.32 841L595.32 -0.9199829L595.32 -0.9199829L8.871E-06 -0.9199829z" /></clipPath><clipPath id="54"><path id="" clip-rule="evenodd" d="M0 840.9999L595.32 840.9999L595.32 840.9999L595.32 -0.9200439L595.32 -0.9200439L0 -0.9200439z" /></clipPath><clipPath id="55"><path id="" clip-rule="evenodd" d="M247.61 412.19L347.8126 412.19L347.8126 412.19L347.8126 369.6903L347.8126 369.6903L247.61 369.6903z" /></clipPath><clipPath id="56"><path id="" clip-rule="evenodd" d="M8.871E-06 841L595.32 841L595.32 841L595.32 -0.9199829L595.32 -0.9199829L8.871E-06 -0.9199829z" /></clipPath><clipPath id="57"><path id="" clip-rule="evenodd" d="M0 840.9999L595.32 840.9999L595.32 840.9999L595.32 -0.9200439L595.32 -0.9200439L0 -0.9200439z" /></clipPath><clipPath id="58"><path id="" clip-rule="evenodd" d="M126.06 553.54L469.37 553.54L469.37 553.54L469.37 415.5364L469.37 415.5364L126.06 415.5364z" /></clipPath><clipPath id="59"><path id="" clip-rule="evenodd" d="M8.871E-06 841L595.32 841L595.32 841L595.32 -0.9199829L595.32 -0.9199829L8.871E-06 -0.9199829z" /></clipPath><clipPath id="60"><path id="" clip-rule="evenodd" d="M8.871E-06 841L595.32 841L595.32 841L595.32 -0.9199829L595.32 -0.9199829L8.871E-06 -0.9199829z" /></clipPath><clipPath id="61"><path id="" clip-rule="evenodd" d="M8.871E-06 841L595.32 841L595.32 841L595.32 -0.9199829L595.32 -0.9199829L8.871E-06 -0.9199829z" /></clipPath><clipPath id="62"><path id="" clip-rule="evenodd" d="M8.871E-06 841L595.32 841L595.32 841L595.32 -0.9199829L595.32 -0.9199829L8.871E-06 -0.9199829z" /></clipPath><clipPath id="63"><path id="" clip-rule="evenodd" d="M8.871E-06 841L595.32 841L595.32 841L595.32 -0.9199829L595.32 -0.9199829L8.871E-06 -0.9199829z" /></clipPath><clipPath id="64"><path id="" clip-rule="evenodd" d="M8.871E-06 841L595.32 841L595.32 841L595.32 -0.9199829L595.32 -0.9199829L8.871E-06 -0.9199829z" /></clipPath><clipPath id="65"><path id="" clip-rule="evenodd" d="M8.871E-06 841L595.32 841L595.32 841L595.32 -0.9199829L595.32 -0.9199829L8.871E-06 -0.9199829z" /></clipPath><clipPath id="66"><path id="" clip-rule="evenodd" d="M8.871E-06 841L595.32 841L595.32 841L595.32 -0.9199829L595.32 -0.9199829L8.871E-06 -0.9199829z" /></clipPath><clipPath id="67"><path id="" clip-rule="evenodd" d="M8.871E-06 841L595.32 841L595.32 841L595.32 -0.9199829L595.32 -0.9199829L8.871E-06 -0.9199829z" /></clipPath><clipPath id="68"><path id="" clip-rule="evenodd" d="M8.871E-06 841L595.32 841L595.32 841L595.32 -0.9199829L595.32 -0.9199829L8.871E-06 -0.9199829z" /></clipPath><clipPath id="69"><path id="" clip-rule="evenodd" d="M8.871E-06 841L595.32 841L595.32 841L595.32 -0.9199829L595.32 -0.9199829L8.871E-06 -0.9199829z" /></clipPath><clipPath id="70"><path id="" clip-rule="evenodd" d="M8.871E-06 841L595.32 841L595.32 841L595.32 -0.9199829L595.32 -0.9199829L8.871E-06 -0.9199829z" /></clipPath><clipPath id="71"><path id="" clip-rule="evenodd" d="M8.871E-06 841L595.32 841L595.32 841L595.32 -0.9199829L595.32 -0.9199829L8.871E-06 -0.9199829z" /></clipPath><clipPath id="72"><path id="" clip-rule="evenodd" d="M8.871E-06 841L595.32 841L595.32 841L595.32 -0.9199829L595.32 -0.9199829L8.871E-06 -0.9199829z" /></clipPath><clipPath id="73"><path id="" clip-rule="evenodd" d="M8.871E-06 841L595.32 841L595.32 841L595.32 -0.9199829L595.32 -0.9199829L8.871E-06 -0.9199829z" /></clipPath><clipPath id="74"><path id="" clip-rule="evenodd" d="M8.871E-06 841L595.32 841L595.32 841L595.32 -0.9199829L595.32 -0.9199829L8.871E-06 -0.9199829z" /></clipPath><clipPath id="75"><path id="" clip-rule="evenodd" d="M8.871E-06 841L595.32 841L595.32 841L595.32 -0.9199829L595.32 -0.9199829L8.871E-06 -0.9199829z" /></clipPath><clipPath id="76"><path id="" clip-rule="evenodd" d="M8.871E-06 841L595.32 841L595.32 841L595.32 -0.9199829L595.32 -0.9199829L8.871E-06 -0.9199829z" /></clipPath><clipPath id="77"><path id="" clip-rule="evenodd" d="M8.871E-06 841L595.32 841L595.32 841L595.32 -0.9199829L595.32 -0.9199829L8.871E-06 -0.9199829z" /></clipPath><clipPath id="78"><path id="" clip-rule="evenodd" d="M8.871E-06 841L595.32 841L595.32 841L595.32 -0.9199829L595.32 -0.9199829L8.871E-06 -0.9199829z" /></clipPath><clipPath id="79"><path id="" clip-rule="evenodd" d="M8.871E-06 841L595.32 841L595.32 841L595.32 -0.9199829L595.32 -0.9199829L8.871E-06 -0.9199829z" /></clipPath><clipPath id="80"><path id="" clip-rule="evenodd" d="M8.871E-06 841L595.32 841L595.32 841L595.32 -0.9199829L595.32 -0.9199829L8.871E-06 -0.9199829z" /></clipPath><clipPath id="81"><path id="" clip-rule="evenodd" d="M8.871E-06 841L595.32 841L595.32 841L595.32 -0.9199829L595.32 -0.9199829L8.871E-06 -0.9199829z" /></clipPath><clipPath id="82"><path id="" clip-rule="evenodd" d="M8.871E-06 841L595.32 841L595.32 841L595.32 -0.9199829L595.32 -0.9199829L8.871E-06 -0.9199829z" /></clipPath><clipPath id="83"><path id="" clip-rule="evenodd" d="M8.871E-06 841L595.32 841L595.32 841L595.32 -0.9199829L595.32 -0.9199829L8.871E-06 -0.9199829z" /></clipPath><clipPath id="84"><path id="" clip-rule="evenodd" d="M8.871E-06 841L595.32 841L595.32 841L595.32 -0.9199829L595.32 -0.9199829L8.871E-06 -0.9199829z" /></clipPath><clipPath id="85"><path id="" clip-rule="evenodd" d="M8.871E-06 841L595.32 841L595.32 841L595.32 -0.9199829L595.32 -0.9199829L8.871E-06 -0.9199829z" /></clipPath><clipPath id="86"><path id="" clip-rule="evenodd" d="M8.871E-06 841L595.32 841L595.32 841L595.32 -0.9199829L595.32 -0.9199829L8.871E-06 -0.9199829z" /></clipPath><clipPath id="87"><path id="" clip-rule="evenodd" d="M8.871E-06 841L595.32 841L595.32 841L595.32 -0.9199829L595.32 -0.9199829L8.871E-06 -0.9199829z" /></clipPath><clipPath id="88"><path id="" clip-rule="evenodd" d="M8.871E-06 841L595.32 841L595.32 841L595.32 -0.9199829L595.32 -0.9199829L8.871E-06 -0.9199829z" /></clipPath><clipPath id="89"><path id="" clip-rule="evenodd" d="M8.871E-06 841L595.32 841L595.32 841L595.32 -0.9199829L595.32 -0.9199829L8.871E-06 -0.9199829z" /></clipPath><clipPath id="90"><path id="" clip-rule="evenodd" d="M8.871E-06 841L595.32 841L595.32 841L595.32 -0.9199829L595.32 -0.9199829L8.871E-06 -0.9199829z" /></clipPath><clipPath id="91"><path id="" clip-rule="evenodd" d="M8.871E-06 841L595.32 841L595.32 841L595.32 -0.9199829L595.32 -0.9199829L8.871E-06 -0.9199829z" /></clipPath><clipPath id="92"><path id="" clip-rule="evenodd" d="M8.871E-06 841L595.32 841L595.32 841L595.32 -0.9199829L595.32 -0.9199829L8.871E-06 -0.9199829z" /></clipPath><clipPath id="93"><path id="" clip-rule="evenodd" d="M8.871E-06 841L595.32 841L595.32 841L595.32 -0.9199829L595.32 -0.9199829L8.871E-06 -0.9199829z" /></clipPath><clipPath id="94"><path id="" clip-rule="evenodd" d="M8.871E-06 841L595.32 841L595.32 841L595.32 -0.9199829L595.32 -0.9199829L8.871E-06 -0.9199829z" /></clipPath><clipPath id="95"><path id="" clip-rule="evenodd" d="M8.871E-06 841L595.32 841L595.32 841L595.32 -0.9199829L595.32 -0.9199829L8.871E-06 -0.9199829z" /></clipPath><clipPath id="96"><path id="" clip-rule="evenodd" d="M8.871E-06 841L595.32 841L595.32 841L595.32 -0.9199829L595.32 -0.9199829L8.871E-06 -0.9199829z" /></clipPath><clipPath id="97"><path id="" clip-rule="evenodd" d="M8.871E-06 841L595.32 841L595.32 841L595.32 -0.9199829L595.32 -0.9199829L8.871E-06 -0.9199829z" /></clipPath><clipPath id="98"><path id="" clip-rule="evenodd" d="M8.871E-06 841L595.32 841L595.32 841L595.32 -0.9199829L595.32 -0.9199829L8.871E-06 -0.9199829z" /></clipPath><clipPath id="99"><path id="" clip-rule="evenodd" d="M8.871E-06 841L595.32 841L595.32 841L595.32 -0.9199829L595.32 -0.9199829L8.871E-06 -0.9199829z" /></clipPath><clipPath id="100"><path id="" clip-rule="evenodd" d="M8.871E-06 841L595.32 841L595.32 841L595.32 -0.9199829L595.32 -0.9199829L8.871E-06 -0.9199829z" /></clipPath><clipPath id="101"><path id="" clip-rule="evenodd" d="M8.871E-06 841L595.32 841L595.32 841L595.32 -0.9199829L595.32 -0.9199829L8.871E-06 -0.9199829z" /></clipPath><clipPath id="102"><path id="" clip-rule="evenodd" d="M8.871E-06 841L595.32 841L595.32 841L595.32 -0.9199829L595.32 -0.9199829L8.871E-06 -0.9199829z" /></clipPath><clipPath id="103"><path id="" clip-rule="evenodd" d="M8.871E-06 841L595.32 841L595.32 841L595.32 -0.9199829L595.32 -0.9199829L8.871E-06 -0.9199829z" /></clipPath><clipPath id="104"><path id="" clip-rule="evenodd" d="M8.871E-06 841L595.32 841L595.32 841L595.32 -0.9199829L595.32 -0.9199829L8.871E-06 -0.9199829z" /></clipPath><clipPath id="105"><path id="" clip-rule="evenodd" d="M8.871E-06 841L595.32 841L595.32 841L595.32 -0.9199829L595.32 -0.9199829L8.871E-06 -0.9199829z" /></clipPath><clipPath id="106"><path id="" clip-rule="evenodd" d="M8.871E-06 841L595.32 841L595.32 841L595.32 -0.9199829L595.32 -0.9199829L8.871E-06 -0.9199829z" /></clipPath><clipPath id="107"><path id="" clip-rule="evenodd" d="M8.871E-06 841L595.32 841L595.32 841L595.32 -0.9199829L595.32 -0.9199829L8.871E-06 -0.9199829z" /></clipPath><clipPath id="108"><path id="" clip-rule="evenodd" d="M8.871E-06 841L595.32 841L595.32 841L595.32 -0.9199829L595.32 -0.9199829L8.871E-06 -0.9199829z" /></clipPath><clipPath id="109"><path id="" clip-rule="evenodd" d="M8.871E-06 841L595.32 841L595.32 841L595.32 -0.9199829L595.32 -0.9199829L8.871E-06 -0.9199829z" /></clipPath><clipPath id="110"><path id="" clip-rule="evenodd" d="M8.871E-06 841L595.32 841L595.32 841L595.32 -0.9199829L595.32 -0.9199829L8.871E-06 -0.9199829z" /></clipPath><clipPath id="111"><path id="" clip-rule="evenodd" d="M8.871E-06 841L595.32 841L595.32 841L595.32 -0.9199829L595.32 -0.9199829L8.871E-06 -0.9199829z" /></clipPath><clipPath id="112"><path id="" clip-rule="evenodd" d="M8.871E-06 841L595.32 841L595.32 841L595.32 -0.9199829L595.32 -0.9199829L8.871E-06 -0.9199829z" /></clipPath><clipPath id="113"><path id="" clip-rule="evenodd" d="M8.871E-06 841L595.32 841L595.32 841L595.32 -0.9199829L595.32 -0.9199829L8.871E-06 -0.9199829z" /></clipPath><clipPath id="114"><path id="" clip-rule="evenodd" d="M8.871E-06 841L595.32 841L595.32 841L595.32 -0.9199829L595.32 -0.9199829L8.871E-06 -0.9199829z" /></clipPath><clipPath id="115"><path id="" clip-rule="evenodd" d="M8.871E-06 841L595.32 841L595.32 841L595.32 -0.9199829L595.32 -0.9199829L8.871E-06 -0.9199829z" /></clipPath><clipPath id="116"><path id="" clip-rule="evenodd" d="M8.871E-06 841L595.32 841L595.32 841L595.32 -0.9199829L595.32 -0.9199829L8.871E-06 -0.9199829z" /></clipPath><clipPath id="117"><path id="" clip-rule="evenodd" d="M8.871E-06 841L595.32 841L595.32 841L595.32 -0.9199829L595.32 -0.9199829L8.871E-06 -0.9199829z" /></clipPath><clipPath id="118"><path id="" clip-rule="evenodd" d="M8.871E-06 841L595.32 841L595.32 841L595.32 -0.9199829L595.32 -0.9199829L8.871E-06 -0.9199829z" /></clipPath><clipPath id="119"><path id="" clip-rule="evenodd" d="M8.871E-06 841L595.32 841L595.32 841L595.32 -0.9199829L595.32 -0.9199829L8.871E-06 -0.9199829z" /></clipPath><clipPath id="120"><path id="" clip-rule="evenodd" d="M8.871E-06 841L595.32 841L595.32 841L595.32 -0.9199829L595.32 -0.9199829L8.871E-06 -0.9199829z" /></clipPath><clipPath id="121"><path id="" clip-rule="evenodd" d="M8.871E-06 841L595.32 841L595.32 841L595.32 -0.9199829L595.32 -0.9199829L8.871E-06 -0.9199829z" /></clipPath><clipPath id="122"><path id="" clip-rule="evenodd" d="M8.871E-06 841L595.32 841L595.32 841L595.32 -0.9199829L595.32 -0.9199829L8.871E-06 -0.9199829z" /></clipPath><clipPath id="123"><path id="" clip-rule="evenodd" d="M8.871E-06 841L595.32 841L595.32 841L595.32 -0.9199829L595.32 -0.9199829L8.871E-06 -0.9199829z" /></clipPath><clipPath id="124"><path id="" clip-rule="evenodd" d="M8.871E-06 841L595.32 841L595.32 841L595.32 -0.9199829L595.32 -0.9199829L8.871E-06 -0.9199829z" /></clipPath><clipPath id="125"><path id="" clip-rule="evenodd" d="M8.871E-06 841L595.32 841L595.32 841L595.32 -0.9199829L595.32 -0.9199829L8.871E-06 -0.9199829z" /></clipPath><clipPath id="126"><path id="" clip-rule="evenodd" d="M8.871E-06 841L595.32 841L595.32 841L595.32 -0.9199829L595.32 -0.9199829L8.871E-06 -0.9199829z" /></clipPath><clipPath id="127"><path id="" clip-rule="evenodd" d="M8.871E-06 841L595.32 841L595.32 841L595.32 -0.9199829L595.32 -0.9199829L8.871E-06 -0.9199829z" /></clipPath><clipPath id="128"><path id="" clip-rule="evenodd" d="M8.871E-06 841L595.32 841L595.32 841L595.32 -0.9199829L595.32 -0.9199829L8.871E-06 -0.9199829z" /></clipPath><clipPath id="129"><path id="" clip-rule="evenodd" d="M8.871E-06 841L595.32 841L595.32 841L595.32 -0.9199829L595.32 -0.9199829L8.871E-06 -0.9199829z" /></clipPath><clipPath id="130"><path id="" clip-rule="evenodd" d="M8.871E-06 841L595.32 841L595.32 841L595.32 -0.9199829L595.32 -0.9199829L8.871E-06 -0.9199829z" /></clipPath><clipPath id="131"><path id="" clip-rule="evenodd" d="M8.871E-06 841L595.32 841L595.32 841L595.32 -0.9199829L595.32 -0.9199829L8.871E-06 -0.9199829z" /></clipPath><clipPath id="132"><path id="" clip-rule="evenodd" d="M8.871E-06 841L595.32 841L595.32 841L595.32 -0.9199829L595.32 -0.9199829L8.871E-06 -0.9199829z" /></clipPath><clipPath id="133"><path id="" clip-rule="evenodd" d="M8.871E-06 841L595.32 841L595.32 841L595.32 -0.9199829L595.32 -0.9199829L8.871E-06 -0.9199829z" /></clipPath><clipPath id="134"><path id="" clip-rule="evenodd" d="M8.871E-06 841L595.32 841L595.32 841L595.32 -0.9199829L595.32 -0.9199829L8.871E-06 -0.9199829z" /></clipPath><clipPath id="135"><path id="" clip-rule="evenodd" d="M8.871E-06 841L595.32 841L595.32 841L595.32 -0.9199829L595.32 -0.9199829L8.871E-06 -0.9199829z" /></clipPath><clipPath id="136"><path id="" clip-rule="evenodd" d="M8.871E-06 841L595.32 841L595.32 841L595.32 -0.9199829L595.32 -0.9199829L8.871E-06 -0.9199829z" /></clipPath><clipPath id="137"><path id="" clip-rule="evenodd" d="M8.871E-06 841L595.32 841L595.32 841L595.32 -0.9199829L595.32 -0.9199829L8.871E-06 -0.9199829z" /></clipPath><clipPath id="138"><path id="" clip-rule="evenodd" d="M8.871E-06 841L595.32 841L595.32 841L595.32 -0.9199829L595.32 -0.9199829L8.871E-06 -0.9199829z" /></clipPath><clipPath id="139"><path id="" clip-rule="evenodd" d="M8.871E-06 841L595.32 841L595.32 841L595.32 -0.9199829L595.32 -0.9199829L8.871E-06 -0.9199829z" /></clipPath><clipPath id="140"><path id="" clip-rule="evenodd" d="M8.871E-06 841L595.32 841L595.32 841L595.32 -0.9199829L595.32 -0.9199829L8.871E-06 -0.9199829z" /></clipPath><clipPath id="141"><path id="" clip-rule="evenodd" d="M8.871E-06 841L595.32 841L595.32 841L595.32 -0.9199829L595.32 -0.9199829L8.871E-06 -0.9199829z" /></clipPath><clipPath id="142"><path id="" clip-rule="evenodd" d="M8.871E-06 841L595.32 841L595.32 841L595.32 -0.9199829L595.32 -0.9199829L8.871E-06 -0.9199829z" /></clipPath><clipPath id="143"><path id="" clip-rule="evenodd" d="M8.871E-06 841L595.32 841L595.32 841L595.32 -0.9199829L595.32 -0.9199829L8.871E-06 -0.9199829z" /></clipPath><clipPath id="144"><path id="" clip-rule="evenodd" d="M8.871E-06 841L595.32 841L595.32 841L595.32 -0.9199829L595.32 -0.9199829L8.871E-06 -0.9199829z" /></clipPath><clipPath id="145"><path id="" clip-rule="evenodd" d="M8.871E-06 841L595.32 841L595.32 841L595.32 -0.9199829L595.32 -0.9199829L8.871E-06 -0.9199829z" /></clipPath><clipPath id="146"><path id="" clip-rule="evenodd" d="M8.871E-06 841L595.32 841L595.32 841L595.32 -0.9199829L595.32 -0.9199829L8.871E-06 -0.9199829z" /></clipPath><clipPath id="147"><path id="" clip-rule="evenodd" d="M8.871E-06 841L595.32 841L595.32 841L595.32 -0.9199829L595.32 -0.9199829L8.871E-06 -0.9199829z" /></clipPath><clipPath id="148"><path id="" clip-rule="evenodd" d="M8.871E-06 841L595.32 841L595.32 841L595.32 -0.9199829L595.32 -0.9199829L8.871E-06 -0.9199829z" /></clipPath><clipPath id="149"><path id="" clip-rule="evenodd" d="M8.871E-06 841L595.32 841L595.32 841L595.32 -0.9199829L595.32 -0.9199829L8.871E-06 -0.9199829z" /></clipPath><clipPath id="150"><path id="" clip-rule="evenodd" d="M8.871E-06 841L595.32 841L595.32 841L595.32 -0.9199829L595.32 -0.9199829L8.871E-06 -0.9199829z" /></clipPath><clipPath id="151"><path id="" clip-rule="evenodd" d="M8.871E-06 841L595.32 841L595.32 841L595.32 -0.9199829L595.32 -0.9199829L8.871E-06 -0.9199829z" /></clipPath><clipPath id="152"><path id="" clip-rule="evenodd" d="M8.871E-06 841L595.32 841L595.32 841L595.32 -0.9199829L595.32 -0.9199829L8.871E-06 -0.9199829z" /></clipPath><clipPath id="153"><path id="" clip-rule="evenodd" d="M8.871E-06 841L595.32 841L595.32 841L595.32 -0.9199829L595.32 -0.9199829L8.871E-06 -0.9199829z" /></clipPath><clipPath id="154"><path id="" clip-rule="evenodd" d="M8.871E-06 841L595.32 841L595.32 841L595.32 -0.9199829L595.32 -0.9199829L8.871E-06 -0.9199829z" /></clipPath><clipPath id="155"><path id="" clip-rule="evenodd" d="M8.871E-06 841L595.32 841L595.32 841L595.32 -0.9199829L595.32 -0.9199829L8.871E-06 -0.9199829z" /></clipPath><clipPath id="156"><path id="" clip-rule="evenodd" d="M8.871E-06 841L595.32 841L595.32 841L595.32 -0.9199829L595.32 -0.9199829L8.871E-06 -0.9199829z" /></clipPath><clipPath id="157"><path id="" clip-rule="evenodd" d="M8.871E-06 841L595.32 841L595.32 841L595.32 -0.9199829L595.32 -0.9199829L8.871E-06 -0.9199829z" /></clipPath><clipPath id="158"><path id="" clip-rule="evenodd" d="M8.871E-06 841L595.32 841L595.32 841L595.32 -0.9199829L595.32 -0.9199829L8.871E-06 -0.9199829z" /></clipPath><clipPath id="159"><path id="" clip-rule="evenodd" d="M8.871E-06 841L595.32 841L595.32 841L595.32 -0.9199829L595.32 -0.9199829L8.871E-06 -0.9199829z" /></clipPath><clipPath id="160"><path id="" clip-rule="evenodd" d="M8.871E-06 841L595.32 841L595.32 841L595.32 -0.9199829L595.32 -0.9199829L8.871E-06 -0.9199829z" /></clipPath><clipPath id="161"><path id="" clip-rule="evenodd" d="M8.871E-06 841L595.32 841L595.32 841L595.32 -0.9199829L595.32 -0.9199829L8.871E-06 -0.9199829z" /></clipPath><clipPath id="162"><path id="" clip-rule="evenodd" d="M8.871E-06 841L595.32 841L595.32 841L595.32 -0.9199829L595.32 -0.9199829L8.871E-06 -0.9199829z" /></clipPath><clipPath id="163"><path id="" clip-rule="evenodd" d="M8.871E-06 841L595.32 841L595.32 841L595.32 -0.9199829L595.32 -0.9199829L8.871E-06 -0.9199829z" /></clipPath><clipPath id="164"><path id="" clip-rule="evenodd" d="M8.871E-06 841L595.32 841L595.32 841L595.32 -0.9199829L595.32 -0.9199829L8.871E-06 -0.9199829z" /></clipPath><clipPath id="165"><path id="" clip-rule="evenodd" d="M8.871E-06 841L595.32 841L595.32 841L595.32 -0.9199829L595.32 -0.9199829L8.871E-06 -0.9199829z" /></clipPath><clipPath id="166"><path id="" clip-rule="evenodd" d="M8.871E-06 841L595.32 841L595.32 841L595.32 -0.9199829L595.32 -0.9199829L8.871E-06 -0.9199829z" /></clipPath><clipPath id="167"><path id="" clip-rule="evenodd" d="M8.871E-06 841L595.32 841L595.32 841L595.32 -0.9199829L595.32 -0.9199829L8.871E-06 -0.9199829z" /></clipPath><clipPath id="168"><path id="" clip-rule="evenodd" d="M8.871E-06 841L595.32 841L595.32 841L595.32 -0.9199829L595.32 -0.9199829L8.871E-06 -0.9199829z" /></clipPath><clipPath id="169"><path id="" clip-rule="evenodd" d="M8.871E-06 841L595.32 841L595.32 841L595.32 -0.9199829L595.32 -0.9199829L8.871E-06 -0.9199829z" /></clipPath><clipPath id="170"><path id="" clip-rule="evenodd" d="M8.871E-06 841L595.32 841L595.32 841L595.32 -0.9199829L595.32 -0.9199829L8.871E-06 -0.9199829z" /></clipPath><clipPath id="171"><path id="" clip-rule="evenodd" d="M8.871E-06 841L595.32 841L595.32 841L595.32 -0.9199829L595.32 -0.9199829L8.871E-06 -0.9199829z" /></clipPath><clipPath id="172"><path id="" clip-rule="evenodd" d="M8.871E-06 841L595.32 841L595.32 841L595.32 -0.9199829L595.32 -0.9199829L8.871E-06 -0.9199829z" /></clipPath><clipPath id="173"><path id="" clip-rule="evenodd" d="M8.871E-06 841L595.32 841L595.32 841L595.32 -0.9199829L595.32 -0.9199829L8.871E-06 -0.9199829z" /></clipPath><clipPath id="174"><path id="" clip-rule="evenodd" d="M8.871E-06 841L595.32 841L595.32 841L595.32 -0.9199829L595.32 -0.9199829L8.871E-06 -0.9199829z" /></clipPath><clipPath id="175"><path id="" clip-rule="evenodd" d="M8.871E-06 841L595.32 841L595.32 841L595.32 -0.9199829L595.32 -0.9199829L8.871E-06 -0.9199829z" /></clipPath><clipPath id="176"><path id="" clip-rule="evenodd" d="M8.871E-06 841L595.32 841L595.32 841L595.32 -0.9199829L595.32 -0.9199829L8.871E-06 -0.9199829z" /></clipPath><clipPath id="177"><path id="" clip-rule="evenodd" d="M8.871E-06 841L595.32 841L595.32 841L595.32 -0.9199829L595.32 -0.9199829L8.871E-06 -0.9199829z" /></clipPath><clipPath id="178"><path id="" clip-rule="evenodd" d="M8.871E-06 841L595.32 841L595.32 841L595.32 -0.9199829L595.32 -0.9199829L8.871E-06 -0.9199829z" /></clipPath><clipPath id="179"><path id="" clip-rule="evenodd" d="M8.871E-06 841L595.32 841L595.32 841L595.32 -0.9199829L595.32 -0.9199829L8.871E-06 -0.9199829z" /></clipPath><clipPath id="180"><path id="" clip-rule="evenodd" d="M8.871E-06 841L595.32 841L595.32 841L595.32 -0.9199829L595.32 -0.9199829L8.871E-06 -0.9199829z" /></clipPath><clipPath id="181"><path id="" clip-rule="evenodd" d="M8.871E-06 841L595.32 841L595.32 841L595.32 -0.9199829L595.32 -0.9199829L8.871E-06 -0.9199829z" /></clipPath><clipPath id="182"><path id="" clip-rule="evenodd" d="M8.871E-06 841L595.32 841L595.32 841L595.32 -0.9199829L595.32 -0.9199829L8.871E-06 -0.9199829z" /></clipPath><clipPath id="183"><path id="" clip-rule="evenodd" d="M8.871E-06 841L595.32 841L595.32 841L595.32 -0.9199829L595.32 -0.9199829L8.871E-06 -0.9199829z" /></clipPath><clipPath id="184"><path id="" clip-rule="evenodd" d="M8.871E-06 841L595.32 841L595.32 841L595.32 -0.9199829L595.32 -0.9199829L8.871E-06 -0.9199829z" /></clipPath><clipPath id="185"><path id="" clip-rule="evenodd" d="M8.871E-06 841L595.32 841L595.32 841L595.32 -0.9199829L595.32 -0.9199829L8.871E-06 -0.9199829z" /></clipPath><clipPath id="186"><path id="" clip-rule="evenodd" d="M8.871E-06 841L595.32 841L595.32 841L595.32 -0.9199829L595.32 -0.9199829L8.871E-06 -0.9199829z" /></clipPath><clipPath id="187"><path id="" clip-rule="evenodd" d="M8.871E-06 841L595.32 841L595.32 841L595.32 -0.9199829L595.32 -0.9199829L8.871E-06 -0.9199829z" /></clipPath><clipPath id="188"><path id="" clip-rule="evenodd" d="M8.871E-06 841L595.32 841L595.32 841L595.32 -0.9199829L595.32 -0.9199829L8.871E-06 -0.9199829z" /></clipPath><clipPath id="189"><path id="" clip-rule="evenodd" d="M8.871E-06 841L595.32 841L595.32 841L595.32 -0.9199829L595.32 -0.9199829L8.871E-06 -0.9199829z" /></clipPath><clipPath id="190"><path id="" clip-rule="evenodd" d="M8.871E-06 841L595.32 841L595.32 841L595.32 -0.9199829L595.32 -0.9199829L8.871E-06 -0.9199829z" /></clipPath><clipPath id="191"><path id="" clip-rule="evenodd" d="M8.871E-06 841L595.32 841L595.32 841L595.32 -0.9199829L595.32 -0.9199829L8.871E-06 -0.9199829z" /></clipPath><clipPath id="192"><path id="" clip-rule="evenodd" d="M8.871E-06 841L595.32 841L595.32 841L595.32 -0.9199829L595.32 -0.9199829L8.871E-06 -0.9199829z" /></clipPath><clipPath id="193"><path id="" clip-rule="evenodd" d="M8.871E-06 841L595.32 841L595.32 841L595.32 -0.9199829L595.32 -0.9199829L8.871E-06 -0.9199829z" /></clipPath><clipPath id="194"><path id="" clip-rule="evenodd" d="M8.871E-06 841L595.32 841L595.32 841L595.32 -0.9199829L595.32 -0.9199829L8.871E-06 -0.9199829z" /></clipPath><clipPath id="195"><path id="" clip-rule="evenodd" d="M8.871E-06 841L595.32 841L595.32 841L595.32 -0.9199829L595.32 -0.9199829L8.871E-06 -0.9199829z" /></clipPath><clipPath id="196"><path id="" clip-rule="evenodd" d="M8.871E-06 841L595.32 841L595.32 841L595.32 -0.9199829L595.32 -0.9199829L8.871E-06 -0.9199829z" /></clipPath></defs><g transform="matrix(1.333333 0 0 1.333333 0 0)"><g clip-path="url(#1)"><g clip-path="url(#2)"><path id="1" transform="matrix(1 0 0 -1 0 841)" d="M0 -0.13L595.45 -0.13L595.45 -0.13L595.45 841.92L595.45 841.92L0 841.92z" stroke="none" fill="#F5F1DE" fill-rule="evenodd" /></g><g clip-path="url(#3)"></g><g clip-path="url(#4)"></g><path id="12" transform="matrix(1 0 0 -1 0 841)" d="M89.9 777.72L505.45 777.72L505.45 777.72L505.45 779.27L505.45 779.27L89.9 779.27z" stroke="none" fill="#808080" fill-rule="evenodd" /><path id="13" transform="matrix(1 0 0 -1 0 841)" d="M89.904 779.04L90.144 779.04L90.144 779.04L90.144 779.28L90.144 779.28L89.904 779.28z" stroke="none" fill="#808080" fill-rule="evenodd" /><path id="14" transform="matrix(1 0 0 -1 0 841)" d="M89.904 779.04L90.144 779.04L90.144 779.04L90.144 779.28L90.144 779.28L89.904 779.28z" stroke="none" fill="#808080" fill-rule="evenodd" /><path id="15" transform="matrix(1 0 0 -1 0 841)" d="M90.144 779.04L505.324 779.04L505.324 779.04L505.324 779.28L505.324 779.28L90.144 779.28z" stroke="none" fill="#808080" fill-rule="evenodd" /><path id="16" transform="matrix(1 0 0 -1 0 841)" d="M505.32 779.04L505.56 779.04L505.56 779.04L505.56 779.28L505.56 779.28L505.32 779.28z" stroke="none" fill="#D4D0C8" fill-rule="evenodd" /><path id="17" transform="matrix(1 0 0 -1 0 841)" d="M505.32 779.04L505.56 779.04L505.56 779.04L505.56 779.28L505.56 779.28L505.32 779.28z" stroke="none" fill="#808080" fill-rule="evenodd" /><path id="18" transform="matrix(1 0 0 -1 0 841)" d="M89.904 777.96L90.144 777.96L90.144 777.96L90.144 779.04L90.144 779.04L89.904 779.04z" stroke="none" fill="#808080" fill-rule="evenodd" /><path id="19" transform="matrix(1 0 0 -1 0 841)" d="M505.32 777.96L505.56 777.96L505.56 777.96L505.56 779.04L505.56 779.04L505.32 779.04z" stroke="none" fill="#D4D0C8" fill-rule="evenodd" /><path id="20" transform="matrix(1 0 0 -1 0 841)" d="M89.904 777.72L90.144 777.72L90.144 777.72L90.144 777.96L90.144 777.96L89.904 777.96z" stroke="none" fill="#808080" fill-rule="evenodd" /><path id="21" transform="matrix(1 0 0 -1 0 841)" d="M89.904 777.72L90.144 777.72L90.144 777.72L90.144 777.96L90.144 777.96L89.904 777.96z" stroke="none" fill="#D4D0C8" fill-rule="evenodd" /><path id="22" transform="matrix(1 0 0 -1 0 841)" d="M90.144 777.72L505.324 777.72L505.324 777.72L505.324 777.96L505.324 777.96L90.144 777.96z" stroke="none" fill="#D4D0C8" fill-rule="evenodd" /><path id="23" transform="matrix(1 0 0 -1 0 841)" d="M505.32 777.72L505.56 777.72L505.56 777.72L505.56 777.96L505.56 777.96L505.32 777.96z" stroke="none" fill="#D4D0C8" fill-rule="evenodd" /><path id="24" transform="matrix(1 0 0 -1 0 841)" d="M505.32 777.72L505.56 777.72L505.56 777.72L505.56 777.96L505.56 777.96L505.32 777.96z" stroke="none" fill="#D4D0C8" fill-rule="evenodd" /><g clip-path="url(#5)"></g><g clip-path="url(#6)"></g><g clip-path="url(#7)"></g><g clip-path="url(#8)"><g clip-path="url(#9)"><path id="99" transform="matrix(1 0 0 -1 0 841)" d="M192.5233 573.4246L192.5233 576.6989" stroke="#000000" stroke-width="0.6718996" fill="none" /><path id="100" transform="matrix(1 0 0 -1 0 841)" d="M203.663 575.0627L203.663 576.6989" stroke="#000000" stroke-width="0.6718996" fill="none" /><path id="101" transform="matrix(1 0 0 -1 0 841)" d="M214.8949 573.4246L214.8949 576.6989" stroke="#000000" stroke-width="0.6718996" fill="none" /><path id="102" transform="matrix(1 0 0 -1 0 841)" d="M226.0318 575.0627L226.0318 576.6989" stroke="#000000" stroke-width="0.6718996" fill="none" /><path id="103" transform="matrix(1 0 0 -1 0 841)" d="M237.1716 573.4246L237.1716 576.6989" stroke="#000000" stroke-width="0.6718996" fill="none" /><path id="104" transform="matrix(1 0 0 -1 0 841)" d="M248.4035 575.0627L248.4035 576.6989" stroke="#000000" stroke-width="0.6718996" fill="none" /><path id="105" transform="matrix(1 0 0 -1 0 841)" d="M259.5432 573.4246L259.5432 576.6989" stroke="#000000" stroke-width="0.6718996" fill="none" /><path id="106" transform="matrix(1 0 0 -1 0 841)" d="M270.6791 575.0627L270.6791 576.6989" stroke="#000000" stroke-width="0.6718996" fill="none" /><path id="107" transform="matrix(1 0 0 -1 0 841)" d="M281.912 573.4246L281.912 576.6989" stroke="#000000" stroke-width="0.6718996" fill="none" /><path id="108" transform="matrix(1 0 0 -1 0 841)" d="M293.0508 575.0627L293.0508 576.6989" stroke="#000000" stroke-width="0.6718996" fill="none" /><path id="109" transform="matrix(1 0 0 -1 0 841)" d="M304.2837 573.4246L304.2837 576.6989" stroke="#000000" stroke-width="0.6718996" fill="none" /><path id="110" transform="matrix(1 0 0 -1 0 841)" d="M315.4225 575.0627L315.4225 576.6989" stroke="#000000" stroke-width="0.6718996" fill="none" /><path id="111" transform="matrix(1 0 0 -1 0 841)" d="M326.5594 573.4246L326.5594 576.6989" stroke="#000000" stroke-width="0.6718996" fill="none" /><path id="112" transform="matrix(1 0 0 -1 0 841)" d="M337.7923 575.0627L337.7923 576.6989" stroke="#000000" stroke-width="0.6718996" fill="none" /><path id="113" transform="matrix(1 0 0 -1 0 841)" d="M348.9311 573.4246L348.9311 576.6989" stroke="#000000" stroke-width="0.6718996" fill="none" /><path id="114" transform="matrix(1 0 0 -1 0 841)" d="M360.0679 575.0627L360.0679 576.6989" stroke="#000000" stroke-width="0.6718996" fill="none" /><path id="115" transform="matrix(1 0 0 -1 0 841)" d="M371.3008 573.4246L371.3008 576.6989" stroke="#000000" stroke-width="0.6718996" fill="none" /><path id="116" transform="matrix(1 0 0 -1 0 841)" d="M382.4396 575.0627L382.4396 576.6989" stroke="#000000" stroke-width="0.6718996" fill="none" /><path id="117" transform="matrix(1 0 0 -1 0 841)" d="M393.5765 573.4246L393.5765 576.6989" stroke="#000000" stroke-width="0.6718996" fill="none" /><path id="118" transform="matrix(1 0 0 -1 0 841)" d="M404.8113 575.0627L404.8113 576.6989" stroke="#000000" stroke-width="0.6718996" fill="none" /><path id="119" transform="matrix(1 0 0 -1 0 841)" d="M415.9481 573.4246L415.9481 576.6989" stroke="#000000" stroke-width="0.6718996" fill="none" /><path id="120" transform="matrix(1 0 0 -1 0 841)" d="M192.5233 576.6989L415.9481 576.6989" stroke="#000000" stroke-width="0.6718996" fill="none" /><path id="121" transform="matrix(1 0 0 -1 0 841)" d="M189.2601 576.6989L192.5233 576.6989" stroke="#000000" stroke-width="0.6718996" fill="none" /><path id="122" transform="matrix(1 0 0 -1 0 841)" d="M190.8917 584.8827L192.5233 584.8827" stroke="#000000" stroke-width="0.6718996" fill="none" /><path id="123" transform="matrix(1 0 0 -1 0 841)" d="M189.2601 593.0684L192.5233 593.0684" stroke="#000000" stroke-width="0.6718996" fill="none" /><path id="124" transform="matrix(1 0 0 -1 0 841)" d="M190.8917 601.2512L192.5233 601.2512" stroke="#000000" stroke-width="0.6718996" fill="none" /><path id="125" transform="matrix(1 0 0 -1 0 841)" d="M189.2601 609.4368L192.5233 609.4368" stroke="#000000" stroke-width="0.6718996" fill="none" /><path id="126" transform="matrix(1 0 0 -1 0 841)" d="M190.8917 617.6205L192.5233 617.6205" stroke="#000000" stroke-width="0.6718996" fill="none" /><path id="127" transform="matrix(1 0 0 -1 0 841)" d="M189.2601 625.8063L192.5233 625.8063" stroke="#000000" stroke-width="0.6718996" fill="none" /><path id="128" transform="matrix(1 0 0 -1 0 841)" d="M190.8917 633.989L192.5233 633.989" stroke="#000000" stroke-width="0.6718996" fill="none" /><path id="129" transform="matrix(1 0 0 -1 0 841)" d="M189.2601 642.1747L192.5233 642.1747" stroke="#000000" stroke-width="0.6718996" fill="none" /><path id="130" transform="matrix(1 0 0 -1 0 841)" d="M190.8917 650.3585L192.5233 650.3585" stroke="#000000" stroke-width="0.6718996" fill="none" /><path id="131" transform="matrix(1 0 0 -1 0 841)" d="M189.2601 658.5442L192.5233 658.5442" stroke="#000000" stroke-width="0.6718996" fill="none" /><path id="132" transform="matrix(1 0 0 -1 0 841)" d="M190.8917 666.7269L192.5233 666.7269" stroke="#000000" stroke-width="0.6718996" fill="none" /><path id="133" transform="matrix(1 0 0 -1 0 841)" d="M189.2601 674.9126L192.5233 674.9126" stroke="#000000" stroke-width="0.6718996" fill="none" /><path id="134" transform="matrix(1 0 0 -1 0 841)" d="M190.8917 683.0964L192.5233 683.0964" stroke="#000000" stroke-width="0.6718996" fill="none" /><path id="135" transform="matrix(1 0 0 -1 0 841)" d="M189.2601 691.2792L192.5233 691.2792" stroke="#000000" stroke-width="0.6718996" fill="none" /><path id="136" transform="matrix(1 0 0 -1 0 841)" d="M190.8917 699.4648L192.5233 699.4648" stroke="#000000" stroke-width="0.6718996" fill="none" /><path id="137" transform="matrix(1 0 0 -1 0 841)" d="M189.2601 707.6486L192.5233 707.6486" stroke="#000000" stroke-width="0.6718996" fill="none" /><path id="138" transform="matrix(1 0 0 -1 0 841)" d="M190.8917 715.8343L192.5233 715.8343" stroke="#000000" stroke-width="0.6718996" fill="none" /><path id="139" transform="matrix(1 0 0 -1 0 841)" d="M189.2601 724.0171L192.5233 724.0171" stroke="#000000" stroke-width="0.6718996" fill="none" /><path id="140" transform="matrix(1 0 0 -1 0 841)" d="M190.8917 732.2028L192.5233 732.2028" stroke="#000000" stroke-width="0.6718996" fill="none" /><path id="141" transform="matrix(1 0 0 -1 0 841)" d="M189.2601 740.3865L192.5233 740.3865" stroke="#000000" stroke-width="0.6718996" fill="none" /><path id="142" transform="matrix(1 0 0 -1 0 841)" d="M192.5233 576.6989L192.5233 740.3865" stroke="#000000" stroke-width="0.6718996" fill="none" /><path id="143" transform="matrix(1 0 0 -1 0 841)" d="M192.5233 740.3865L192.5233 740.3865" stroke="#000000" stroke-width="0.6718996" fill="none" /><path id="144" transform="matrix(1 0 0 -1 0 841)" d="M203.663 740.3865L203.663 740.3865" stroke="#000000" stroke-width="0.6718996" fill="none" /><path id="145" transform="matrix(1 0 0 -1 0 841)" d="M214.8949 740.3865L214.8949 740.3865" stroke="#000000" stroke-width="0.6718996" fill="none" /><path id="146" transform="matrix(1 0 0 -1 0 841)" d="M226.0318 740.3865L226.0318 740.3865" stroke="#000000" stroke-width="0.6718996" fill="none" /><path id="147" transform="matrix(1 0 0 -1 0 841)" d="M237.1716 740.3865L237.1716 740.3865" stroke="#000000" stroke-width="0.6718996" fill="none" /><path id="148" transform="matrix(1 0 0 -1 0 841)" d="M248.4035 740.3865L248.4035 740.3865" stroke="#000000" stroke-width="0.6718996" fill="none" /><path id="149" transform="matrix(1 0 0 -1 0 841)" d="M259.5432 740.3865L259.5432 740.3865" stroke="#000000" stroke-width="0.6718996" fill="none" /><path id="150" transform="matrix(1 0 0 -1 0 841)" d="M270.6791 740.3865L270.6791 740.3865" stroke="#000000" stroke-width="0.6718996" fill="none" /><path id="151" transform="matrix(1 0 0 -1 0 841)" d="M281.912 740.3865L281.912 740.3865" stroke="#000000" stroke-width="0.6718996" fill="none" /><path id="152" transform="matrix(1 0 0 -1 0 841)" d="M293.0508 740.3865L293.0508 740.3865" stroke="#000000" stroke-width="0.6718996" fill="none" /><path id="153" transform="matrix(1 0 0 -1 0 841)" d="M304.2837 740.3865L304.2837 740.3865" stroke="#000000" stroke-width="0.6718996" fill="none" /><path id="154" transform="matrix(1 0 0 -1 0 841)" d="M315.4225 740.3865L315.4225 740.3865" stroke="#000000" stroke-width="0.6718996" fill="none" /><path id="155" transform="matrix(1 0 0 -1 0 841)" d="M326.5594 740.3865L326.5594 740.3865" stroke="#000000" stroke-width="0.6718996" fill="none" /><path id="156" transform="matrix(1 0 0 -1 0 841)" d="M337.7923 740.3865L337.7923 740.3865" stroke="#000000" stroke-width="0.6718996" fill="none" /><path id="157" transform="matrix(1 0 0 -1 0 841)" d="M348.9311 740.3865L348.9311 740.3865" stroke="#000000" stroke-width="0.6718996" fill="none" /><path id="158" transform="matrix(1 0 0 -1 0 841)" d="M360.0679 740.3865L360.0679 740.3865" stroke="#000000" stroke-width="0.6718996" fill="none" /><path id="159" transform="matrix(1 0 0 -1 0 841)" d="M371.3008 740.3865L371.3008 740.3865" stroke="#000000" stroke-width="0.6718996" fill="none" /><path id="160" transform="matrix(1 0 0 -1 0 841)" d="M382.4396 740.3865L382.4396 740.3865" stroke="#000000" stroke-width="0.6718996" fill="none" /><path id="161" transform="matrix(1 0 0 -1 0 841)" d="M393.5765 740.3865L393.5765 740.3865" stroke="#000000" stroke-width="0.6718996" fill="none" /><path id="162" transform="matrix(1 0 0 -1 0 841)" d="M404.8113 740.3865L404.8113 740.3865" stroke="#000000" stroke-width="0.6718996" fill="none" /><path id="163" transform="matrix(1 0 0 -1 0 841)" d="M415.9481 740.3865L415.9481 740.3865" stroke="#000000" stroke-width="0.6718996" fill="none" /><path id="164" transform="matrix(1 0 0 -1 0 841)" d="M192.5233 740.3865L415.9481 740.3865" stroke="#000000" stroke-width="0.6718996" fill="none" /><path id="165" transform="matrix(1 0 0 -1 0 841)" d="M415.9481 576.6989L415.9481 576.6989" stroke="#000000" stroke-width="0.6718996" fill="none" /><path id="166" transform="matrix(1 0 0 -1 0 841)" d="M415.9481 584.8827L415.9481 584.8827" stroke="#000000" stroke-width="0.6718996" fill="none" /><path id="167" transform="matrix(1 0 0 -1 0 841)" d="M415.9481 593.0684L415.9481 593.0684" stroke="#000000" stroke-width="0.6718996" fill="none" /><path id="168" transform="matrix(1 0 0 -1 0 841)" d="M415.9481 601.2512L415.9481 601.2512" stroke="#000000" stroke-width="0.6718996" fill="none" /><path id="169" transform="matrix(1 0 0 -1 0 841)" d="M415.9481 609.4368L415.9481 609.4368" stroke="#000000" stroke-width="0.6718996" fill="none" /><path id="170" transform="matrix(1 0 0 -1 0 841)" d="M415.9481 617.6205L415.9481 617.6205" stroke="#000000" stroke-width="0.6718996" fill="none" /><path id="171" transform="matrix(1 0 0 -1 0 841)" d="M415.9481 625.8063L415.9481 625.8063" stroke="#000000" stroke-width="0.6718996" fill="none" /><path id="172" transform="matrix(1 0 0 -1 0 841)" d="M415.9481 633.989L415.9481 633.989" stroke="#000000" stroke-width="0.6718996" fill="none" /><path id="173" transform="matrix(1 0 0 -1 0 841)" d="M415.9481 642.1747L415.9481 642.1747" stroke="#000000" stroke-width="0.6718996" fill="none" /><path id="174" transform="matrix(1 0 0 -1 0 841)" d="M415.9481 650.3585L415.9481 650.3585" stroke="#000000" stroke-width="0.6718996" fill="none" /><path id="175" transform="matrix(1 0 0 -1 0 841)" d="M415.9481 658.5442L415.9481 658.5442" stroke="#000000" stroke-width="0.6718996" fill="none" /><path id="176" transform="matrix(1 0 0 -1 0 841)" d="M415.9481 666.7269L415.9481 666.7269" stroke="#000000" stroke-width="0.6718996" fill="none" /><path id="177" transform="matrix(1 0 0 -1 0 841)" d="M415.9481 674.9126L415.9481 674.9126" stroke="#000000" stroke-width="0.6718996" fill="none" /><path id="178" transform="matrix(1 0 0 -1 0 841)" d="M415.9481 683.0964L415.9481 683.0964" stroke="#000000" stroke-width="0.6718996" fill="none" /><path id="179" transform="matrix(1 0 0 -1 0 841)" d="M415.9481 691.2792L415.9481 691.2792" stroke="#000000" stroke-width="0.6718996" fill="none" /><path id="180" transform="matrix(1 0 0 -1 0 841)" d="M415.9481 699.4648L415.9481 699.4648" stroke="#000000" stroke-width="0.6718996" fill="none" /><path id="181" transform="matrix(1 0 0 -1 0 841)" d="M415.9481 707.6486L415.9481 707.6486" stroke="#000000" stroke-width="0.6718996" fill="none" /><path id="182" transform="matrix(1 0 0 -1 0 841)" d="M415.9481 715.8343L415.9481 715.8343" stroke="#000000" stroke-width="0.6718996" fill="none" /><path id="183" transform="matrix(1 0 0 -1 0 841)" d="M415.9481 724.0171L415.9481 724.0171" stroke="#000000" stroke-width="0.6718996" fill="none" /><path id="184" transform="matrix(1 0 0 -1 0 841)" d="M415.9481 732.2028L415.9481 732.2028" stroke="#000000" stroke-width="0.6718996" fill="none" /><path id="185" transform="matrix(1 0 0 -1 0 841)" d="M415.9481 740.3865L415.9481 740.3865" stroke="#000000" stroke-width="0.6718996" fill="none" /><path id="186" transform="matrix(1 0 0 -1 0 841)" d="M415.9481 576.6989L415.9481 740.3865" stroke="#000000" stroke-width="0.6718996" fill="none" /><g clip-path="url(#10)"><path id="187" transform="matrix(1 0 0 -1 0 841)" d="M192.5233 740.3865L194.7339 740.2903L194.7339 740.2903L197.0377 740.194L197.0377 740.194L199.2446 740.0015L199.2446 740.0015L201.4523 739.6166L201.4523 739.6166L203.663 739.2316L203.663 739.2316L205.9668 738.6541L205.9668 738.6541L208.1736 738.0766L208.1736 738.0766L210.3814 737.4029L210.3814 737.4029L212.5921 736.6329L212.5921 736.6329L214.8949 735.7639L214.8949 735.7639L217.1027 734.8976L217.1027 734.8976L219.3134 733.8389L219.3134 733.8389L221.6172 732.7803L221.6172 732.7803L223.824 731.6253L223.824 731.6253L226.0318 730.4684L226.0318 730.4684L228.2425 729.121L228.2425 729.121L230.5453 727.7736L230.5453 727.7736L232.7531 726.4261L232.7531 726.4261L234.9638 724.8833L234.9638 724.8833L237.1716 723.3434L237.1716 723.3434L239.4744 721.8035L239.4744 721.8035L241.6822 720.071L241.6822 720.071L243.8929 718.4329L243.8929 718.4329L246.0997 716.6042L246.0997 716.6042L248.4035 714.7756L248.4035 714.7756L250.6113 712.944L250.6113 712.944L252.8219 711.0192L252.8219 711.0192L255.1248 709.0942L255.1248 709.0942L257.3326 707.0712L257.3326 707.0712L259.5432 705.05L259.5432 705.05L261.7501 702.9326L261.7501 702.9326L264.0539 700.8123L264.0539 700.8123L266.2617 698.6949L266.2617 698.6949L268.4723 696.4793L268.4723 696.4793L270.6791 694.2657L270.6791 694.2657L272.983 692.052L272.983 692.052L275.1936 689.7393L275.1936 689.7393L277.4005 687.4294L277.4005 687.4294L279.7043 685.1176L279.7043 685.1176L281.912 682.8076L281.912 682.8076L284.1217 680.3986L284.1217 680.3986L286.3295 677.9925L286.3295 677.9925L288.6334 675.5864L288.6334 675.5864L290.8411 673.1783L290.8411 673.1783L293.0508 670.7722L293.0508 670.7722L295.2586 668.3632L295.2586 668.3632L297.5624 665.8607L297.5624 665.8607L299.7721 663.4527L299.7721 663.4527L301.9799 660.9503L301.9799 660.9503L304.2837 658.5442L304.2837 658.5442L306.4915 656.1351L306.4915 656.1351L308.7012 653.6328L308.7012 653.6328L310.909 651.2247L310.909 651.2247L313.2128 648.7223L313.2128 648.7223L315.4225 646.3133L315.4225 646.3133L317.6303 643.9071L317.6303 643.9071L319.8381 641.501L319.8381 641.501L322.1419 639.093L322.1419 639.093L324.3516 636.6868L324.3516 636.6868L326.5594 634.2778L326.5594 634.2778L328.7672 631.9679L328.7672 631.9679L331.071 629.6561L331.071 629.6561L333.2807 627.3462L333.2807 627.3462L335.4885 625.0363L335.4885 625.0363L337.7923 622.8198L337.7923 622.8198L340.002 620.6061L340.002 620.6061L342.2098 618.3905L342.2098 618.3905L344.4175 616.2731L344.4175 616.2731L346.7214 614.1558L346.7214 614.1558L348.9311 612.0355L348.9311 612.0355L351.1389 610.0143L351.1389 610.0143L353.3466 607.9932L353.3466 607.9932L355.6523 606.0663L355.6523 606.0663L357.8601 604.1414L357.8601 604.1414L360.0679 602.3098L360.0679 602.3098L362.3717 600.4812L362.3717 600.4812L364.5815 598.6525L364.5815 598.6525L366.7892 597.0164L366.7892 597.0164L368.997 595.282L368.997 595.282L371.3008 593.7421L371.3008 593.7421L373.5105 592.2021L373.5105 592.2021L375.7183 590.6593L375.7183 590.6593L377.9261 589.3119L377.9261 589.3119L380.2318 587.9644L380.2318 587.9644L382.4396 586.617L382.4396 586.617L384.6474 585.4601L384.6474 585.4601L386.8552 584.3052L386.8552 584.3052L389.1609 583.2465L389.1609 583.2465L391.3687 582.1878L391.3687 582.1878L393.5765 581.3216L393.5765 581.3216L395.8803 580.4554L395.8803 580.4554L398.09 579.6825L398.09 579.6825L400.2978 579.0088L400.2978 579.0088L402.5056 578.4313L402.5056 578.4313L404.8113 577.8539L404.8113 577.8539L407.019 577.4689L407.019 577.4689L409.2269 577.0839L409.2269 577.0839L411.4346 576.8914L411.4346 576.8914L413.7404 576.7952L413.7404 576.7952L415.9481 576.6989" stroke="#000000" stroke-width="0.2879529" fill="none" /></g><g clip-path="url(#11)"><path id="188" transform="matrix(1 0 0 -1 0 841)" d="M192.5233 740.3865L194.7339 740.3865L194.7339 740.3865L197.0377 740.3865L197.0377 740.3865L199.2446 740.3865L199.2446 740.3865L201.4523 740.3865L201.4523 740.3865L203.663 740.3865L203.663 740.3865L205.9668 740.2903L205.9668 740.2903L208.1736 740.2903L208.1736 740.2903L210.3814 740.194L210.3814 740.194L212.5921 740.0978L212.5921 740.0978L214.8949 740.0015L214.8949 740.0015L217.1027 739.809L217.1027 739.809L219.3134 739.6166L219.3134 739.6166L221.6172 739.3278L221.6172 739.3278L223.824 739.0391L223.824 739.0391L226.0318 738.6541L226.0318 738.6541L228.2425 738.1729L228.2425 738.1729L230.5453 737.5954L230.5453 737.5954L232.7531 737.0179L232.7531 737.0179L234.9638 736.2479L234.9638 736.2479L237.1716 735.4751L237.1716 735.4751L239.4744 734.5127L239.4744 734.5127L241.6822 733.454L241.6822 733.454L243.8929 732.299L243.8929 732.299L246.0997 731.0479L246.0997 731.0479L248.4035 729.6022L248.4035 729.6022L250.6113 728.1585L250.6113 728.1585L252.8219 726.5223L252.8219 726.5223L255.1248 724.6908L255.1248 724.6908L257.3326 722.7659L257.3326 722.7659L259.5432 720.7448L259.5432 720.7448L261.7501 718.6254L261.7501 718.6254L264.0539 716.3156L264.0539 716.3156L266.2617 713.9094L266.2617 713.9094L268.4723 711.4041L268.4723 711.4041L270.6791 708.7092L270.6791 708.7092L272.983 705.9162L272.983 705.9162L275.1936 703.1251L275.1936 703.1251L277.4005 700.0424L277.4005 700.0424L279.7043 696.9606L279.7043 696.9606L281.912 693.7844L281.912 693.7844L284.1217 690.5092L284.1217 690.5092L286.3295 687.2369L286.3295 687.2369L288.6334 683.7701L288.6334 683.7701L290.8411 680.3024L290.8411 680.3024L293.0508 676.7413L293.0508 676.7413L295.2586 673.1783L295.2586 673.1783L297.5624 669.5209L297.5624 669.5209L299.7721 665.8607L299.7721 665.8607L301.9799 662.2015L301.9799 662.2015L304.2837 658.5442L304.2837 658.5442L306.4915 654.8839L306.4915 654.8839L308.7012 651.2247L308.7012 651.2247L310.909 647.5674L310.909 647.5674L313.2128 643.9071L313.2128 643.9071L315.4225 640.3441L315.4225 640.3441L317.6303 636.7831L317.6303 636.7831L319.8381 633.3153L319.8381 633.3153L322.1419 629.8486L322.1419 629.8486L324.3516 626.5762L324.3516 626.5762L326.5594 623.301L326.5594 623.301L328.7672 620.1249L328.7672 620.1249L331.071 617.0431L331.071 617.0431L333.2807 613.9633L333.2807 613.9633L335.4885 611.1693L335.4885 611.1693L337.7923 608.3781L337.7923 608.3781L340.002 605.6813L340.002 605.6813L342.2098 603.179L342.2098 603.179L344.4175 600.7699L344.4175 600.7699L346.7214 598.46L346.7214 598.46L348.9311 596.3407L348.9311 596.3407L351.1389 594.3195L351.1389 594.3195L353.3466 592.3946L353.3466 592.3946L355.6523 590.563L355.6523 590.563L357.8601 588.9269L357.8601 588.9269L360.0679 587.4832L360.0679 587.4832L362.3717 586.0396L362.3717 586.0396L364.5815 584.7864L364.5815 584.7864L366.7892 583.6315L366.7892 583.6315L368.997 582.5728L368.997 582.5728L371.3008 581.6103L371.3008 581.6103L373.5105 580.8403L373.5105 580.8403L375.7183 580.0704L375.7183 580.0704L377.9261 579.4901L377.9261 579.4901L380.2318 578.9125L380.2318 578.9125L382.4396 578.4313L382.4396 578.4313L384.6474 578.0463L384.6474 578.0463L386.8552 577.7576L386.8552 577.7576L389.1609 577.4689L389.1609 577.4689L391.3687 577.2764L391.3687 577.2764L393.5765 577.0839L393.5765 577.0839L395.8803 576.9877L395.8803 576.9877L398.09 576.8914L398.09 576.8914L400.2978 576.7952L400.2978 576.7952L402.5056 576.7952L402.5056 576.7952L404.8113 576.6989L404.8113 576.6989L407.019 576.6989L407.019 576.6989L409.2269 576.6989L409.2269 576.6989L411.4346 576.6989L411.4346 576.6989L413.7404 576.6989L413.7404 576.6989L415.9481 576.6989" stroke="#FF0000" stroke-width="0.2879529" fill="none" /></g><g clip-path="url(#12)"><path id="189" transform="matrix(1 0 0 -1 0 841)" d="M192.5233 740.3865L194.7339 740.3865L194.7339 740.3865L197.0377 740.3865L197.0377 740.3865L199.2446 740.3865L199.2446 740.3865L201.4523 740.3865L201.4523 740.3865L203.663 740.3865L203.663 740.3865L205.9668 740.3865L205.9668 740.3865L208.1736 740.3865L208.1736 740.3865L210.3814 740.3865L210.3814 740.3865L212.5921 740.3865L212.5921 740.3865L214.8949 740.3865L214.8949 740.3865L217.1027 740.3865L217.1027 740.3865L219.3134 740.3865L219.3134 740.3865L221.6172 740.3865L221.6172 740.3865L223.824 740.3865L223.824 740.3865L226.0318 740.2903L226.0318 740.2903L228.2425 740.2903L228.2425 740.2903L230.5453 740.2903L230.5453 740.2903L232.7531 740.194L232.7531 740.194L234.9638 740.0978L234.9638 740.0978L237.1716 739.9053L237.1716 739.9053L239.4744 739.809L239.4744 739.809L241.6822 739.5203L241.6822 739.5203L243.8929 739.2316L243.8929 739.2316L246.0997 738.8466L246.0997 738.8466L248.4035 738.3654L248.4035 738.3654L250.6113 737.7879L250.6113 737.7879L252.8219 737.0179L252.8219 737.0179L255.1248 736.1489L255.1248 736.1489L257.3326 735.0901L257.3326 735.0901L259.5432 733.9352L259.5432 733.9352L261.7501 732.4915L261.7501 732.4915L264.0539 730.8553L264.0539 730.8553L266.2617 728.9285L266.2617 728.9285L268.4723 726.8111L268.4723 726.8111L270.6791 724.4021L270.6791 724.4021L272.983 721.7072L272.983 721.7072L275.1936 718.7217L275.1936 718.7217L277.4005 715.5455L277.4005 715.5455L279.7043 711.9816L279.7043 711.9816L281.912 708.2261L281.912 708.2261L284.1217 704.0875L284.1217 704.0875L286.3295 699.7536L286.3295 699.7536L288.6334 695.2281L288.6334 695.2281L290.8411 690.413L290.8411 690.413L293.0508 685.4063L293.0508 685.4063L295.2586 680.2061L295.2586 680.2061L297.5624 674.9126L297.5624 674.9126L299.7721 669.5209L299.7721 669.5209L301.9799 664.0321L301.9799 664.0321L304.2837 658.5442L304.2837 658.5442L306.4915 653.0553L306.4915 653.0553L308.7012 647.5674L308.7012 647.5674L310.909 642.1747L310.909 642.1747L313.2128 636.8793L313.2128 636.8793L315.4225 631.6791L315.4225 631.6791L317.6303 626.6725L317.6303 626.6725L319.8381 621.8573L319.8381 621.8573L322.1419 617.3318L322.1419 617.3318L324.3516 612.9979L324.3516 612.9979L326.5594 608.8593L326.5594 608.8593L328.7672 605.1038L328.7672 605.1038L331.071 601.5399L331.071 601.5399L333.2807 598.3638L333.2807 598.3638L335.4885 595.3782L335.4885 595.3782L337.7923 592.6833L337.7923 592.6833L340.002 590.2744L340.002 590.2744L342.2098 588.1569L342.2098 588.1569L344.4175 586.2321L344.4175 586.2321L346.7214 584.5939L346.7214 584.5939L348.9311 583.1503L348.9311 583.1503L351.1389 581.9953L351.1389 581.9953L353.3466 580.9366L353.3466 580.9366L355.6523 580.0704L355.6523 580.0704L357.8601 579.2975L357.8601 579.2975L360.0679 578.7201L360.0679 578.7201L362.3717 578.2388L362.3717 578.2388L364.5815 577.8539L364.5815 577.8539L366.7892 577.5651L366.7892 577.5651L368.997 577.2764L368.997 577.2764L371.3008 577.1801L371.3008 577.1801L373.5105 576.9877L373.5105 576.9877L375.7183 576.8914L375.7183 576.8914L377.9261 576.7952L377.9261 576.7952L380.2318 576.7952L380.2318 576.7952L382.4396 576.7952L382.4396 576.7952L384.6474 576.6989L384.6474 576.6989L386.8552 576.6989L386.8552 576.6989L389.1609 576.6989L389.1609 576.6989L391.3687 576.6989L391.3687 576.6989L393.5765 576.6989L393.5765 576.6989L395.8803 576.6989L395.8803 576.6989L398.09 576.6989L398.09 576.6989L400.2978 576.6989L400.2978 576.6989L402.5056 576.6989L402.5056 576.6989L404.8113 576.6989L404.8113 576.6989L407.019 576.6989L407.019 576.6989L409.2269 576.6989L409.2269 576.6989L411.4346 576.6989L411.4346 576.6989L413.7404 576.6989L413.7404 576.6989L415.9481 576.6989" stroke="#0000FF" stroke-width="0.2879529" fill="none" /></g><g clip-path="url(#13)"><path id="190" transform="matrix(1 0 0 -1 0 841)" d="M192.5233 740.3865L194.7339 740.3865L194.7339 740.3865L197.0377 740.3865L197.0377 740.3865L199.2446 740.3865L199.2446 740.3865L201.4523 740.3865L201.4523 740.3865L203.663 740.3865L203.663 740.3865L205.9668 740.3865L205.9668 740.3865L208.1736 740.3865L208.1736 740.3865L210.3814 740.3865L210.3814 740.3865L212.5921 740.3865L212.5921 740.3865L214.8949 740.3865L214.8949 740.3865L217.1027 740.3865L217.1027 740.3865L219.3134 740.3865L219.3134 740.3865L221.6172 740.3865L221.6172 740.3865L223.824 740.3865L223.824 740.3865L226.0318 740.3865L226.0318 740.3865L228.2425 740.3865L228.2425 740.3865L230.5453 740.3865L230.5453 740.3865L232.7531 740.3865L232.7531 740.3865L234.9638 740.3865L234.9638 740.3865L237.1716 740.3865L237.1716 740.3865L239.4744 740.3865L239.4744 740.3865L241.6822 740.3865L241.6822 740.3865L243.8929 740.3865L243.8929 740.3865L246.0997 740.3865L246.0997 740.3865L248.4035 740.2903L248.4035 740.2903L250.6113 740.2903L250.6113 740.2903L252.8219 740.194L252.8219 740.194L255.1248 740.0978L255.1248 740.0978L257.3326 739.9053L257.3326 739.9053L259.5432 739.6166L259.5432 739.6166L261.7501 739.2316L261.7501 739.2316L264.0539 738.7504L264.0539 738.7504L266.2617 738.0766L266.2617 738.0766L268.4723 737.2104L268.4723 737.2104L270.6791 735.9564L270.6791 735.9564L272.983 734.5127L272.983 734.5127L275.1936 732.5878L275.1936 732.5878L277.4005 730.1797L277.4005 730.1797L279.7043 727.2923L279.7043 727.2923L281.912 723.8246L281.912 723.8246L284.1217 719.8785L284.1217 719.8785L286.3295 715.1606L286.3295 715.1606L288.6334 709.8642L288.6334 709.8642L290.8411 703.895L290.8411 703.895L293.0508 697.4437L293.0508 697.4437L295.2586 690.3167L295.2586 690.3167L297.5624 682.8076L297.5624 682.8076L299.7721 674.9126L299.7721 674.9126L301.9799 666.8232L301.9799 666.8232L304.2837 658.5442L304.2837 658.5442L306.4915 650.2622L306.4915 650.2622L308.7012 642.1747L308.7012 642.1747L310.909 634.2778L310.909 634.2778L313.2128 626.7687L313.2128 626.7687L315.4225 619.6437L315.4225 619.6437L317.6303 613.1904L317.6303 613.1904L319.8381 607.2213L319.8381 607.2213L322.1419 601.9249L322.1419 601.9249L324.3516 597.2088L324.3516 597.2088L326.5594 593.2608L326.5594 593.2608L328.7672 589.7931L328.7672 589.7931L331.071 586.9058L331.071 586.9058L333.2807 584.4977L333.2807 584.4977L335.4885 582.5728L335.4885 582.5728L337.7923 581.1291L337.7923 581.1291L340.002 579.875L340.002 579.875L342.2098 579.0088L342.2098 579.0088L344.4175 578.3351L344.4175 578.3351L346.7214 577.8539L346.7214 577.8539L348.9311 577.4689L348.9311 577.4689L351.1389 577.1801L351.1389 577.1801L353.3466 576.9877L353.3466 576.9877L355.6523 576.8914L355.6523 576.8914L357.8601 576.7952L357.8601 576.7952L360.0679 576.7952L360.0679 576.7952L362.3717 576.6989L362.3717 576.6989L364.5815 576.6989L364.5815 576.6989L366.7892 576.6989L366.7892 576.6989L368.997 576.6989L368.997 576.6989L371.3008 576.6989L371.3008 576.6989L373.5105 576.6989L373.5105 576.6989L375.7183 576.6989L375.7183 576.6989L377.9261 576.6989L377.9261 576.6989L380.2318 576.6989L380.2318 576.6989L382.4396 576.6989L382.4396 576.6989L384.6474 576.6989L384.6474 576.6989L386.8552 576.6989L386.8552 576.6989L389.1609 576.6989L389.1609 576.6989L391.3687 576.6989L391.3687 576.6989L393.5765 576.6989L393.5765 576.6989L395.8803 576.6989L395.8803 576.6989L398.09 576.6989L398.09 576.6989L400.2978 576.6989L400.2978 576.6989L402.5056 576.6989L402.5056 576.6989L404.8113 576.6989L404.8113 576.6989L407.019 576.6989L407.019 576.6989L409.2269 576.6989L409.2269 576.6989L411.4346 576.6989L411.4346 576.6989L413.7404 576.6989L413.7404 576.6989L415.9481 576.6989" stroke="#008080" stroke-width="0.2879529" fill="none" /></g><g clip-path="url(#14)"><path id="191" transform="matrix(1 0 0 -1 0 841)" d="M192.5233 740.3865L194.7339 740.3865L194.7339 740.3865L197.0377 740.3865L197.0377 740.3865L199.2446 740.3865L199.2446 740.3865L201.4523 740.3865L201.4523 740.3865L203.663 740.3865L203.663 740.3865L205.9668 740.3865L205.9668 740.3865L208.1736 740.3865L208.1736 740.3865L210.3814 740.3865L210.3814 740.3865L212.5921 740.3865L212.5921 740.3865L214.8949 740.3865L214.8949 740.3865L217.1027 740.3865L217.1027 740.3865L219.3134 740.3865L219.3134 740.3865L221.6172 740.3865L221.6172 740.3865L223.824 740.3865L223.824 740.3865L226.0318 740.3865L226.0318 740.3865L228.2425 740.3865L228.2425 740.3865L230.5453 740.3865L230.5453 740.3865L232.7531 740.3865L232.7531 740.3865L234.9638 740.3865L234.9638 740.3865L237.1716 740.3865L237.1716 740.3865L239.4744 740.3865L239.4744 740.3865L241.6822 740.3865L241.6822 740.3865L243.8929 740.3865L243.8929 740.3865L246.0997 740.3865L246.0997 740.3865L248.4035 740.3865L248.4035 740.3865L250.6113 740.3865L250.6113 740.3865L252.8219 740.3865L252.8219 740.3865L255.1248 740.3865L255.1248 740.3865L257.3326 740.3865L257.3326 740.3865L259.5432 740.3865L259.5432 740.3865L261.7501 740.3865L261.7501 740.3865L264.0539 740.3865L264.0539 740.3865L266.2617 740.2903L266.2617 740.2903L268.4723 740.194L268.4723 740.194L270.6791 740.0015L270.6791 740.0015L272.983 739.809L272.983 739.809L275.1936 739.3278L275.1936 739.3278L277.4005 738.5579L277.4005 738.5579L279.7043 737.4029L279.7043 737.4029L281.912 735.7639L281.912 735.7639L284.1217 733.2615L284.1217 733.2615L286.3295 729.8909L286.3295 729.8909L288.6334 725.4636L288.6334 725.4636L290.8411 719.686L290.8411 719.686L293.0508 712.4628L293.0508 712.4628L295.2586 703.895L295.2586 703.895L297.5624 693.8807L297.5624 693.8807L299.7721 682.8076L299.7721 682.8076L301.9799 670.8684L301.9799 670.8684L304.2837 658.5442L304.2837 658.5442L306.4915 646.217L306.4915 646.217L308.7012 634.2778L308.7012 634.2778L310.909 623.2047L310.909 623.2047L313.2128 613.1904L313.2128 613.1904L315.4225 604.6226L315.4225 604.6226L317.6303 597.4013L317.6303 597.4013L319.8381 591.6246L319.8381 591.6246L322.1419 587.1945L322.1419 587.1945L324.3516 583.824L324.3516 583.824L326.5594 581.3216L326.5594 581.3216L328.7672 579.6825L328.7672 579.6825L331.071 578.5276L331.071 578.5276L333.2807 577.7576L333.2807 577.7576L335.4885 577.2764L335.4885 577.2764L337.7923 577.0839L337.7923 577.0839L340.002 576.8914L340.002 576.8914L342.2098 576.7952L342.2098 576.7952L344.4175 576.6989L344.4175 576.6989L346.7214 576.6989L346.7214 576.6989L348.9311 576.6989L348.9311 576.6989L351.1389 576.6989L351.1389 576.6989L353.3466 576.6989L353.3466 576.6989L355.6523 576.6989L355.6523 576.6989L357.8601 576.6989L357.8601 576.6989L360.0679 576.6989L360.0679 576.6989L362.3717 576.6989L362.3717 576.6989L364.5815 576.6989L364.5815 576.6989L366.7892 576.6989L366.7892 576.6989L368.997 576.6989L368.997 576.6989L371.3008 576.6989L371.3008 576.6989L373.5105 576.6989L373.5105 576.6989L375.7183 576.6989L375.7183 576.6989L377.9261 576.6989L377.9261 576.6989L380.2318 576.6989L380.2318 576.6989L382.4396 576.6989L382.4396 576.6989L384.6474 576.6989L384.6474 576.6989L386.8552 576.6989L386.8552 576.6989L389.1609 576.6989L389.1609 576.6989L391.3687 576.6989L391.3687 576.6989L393.5765 576.6989L393.5765 576.6989L395.8803 576.6989L395.8803 576.6989L398.09 576.6989L398.09 576.6989L400.2978 576.6989L400.2978 576.6989L402.5056 576.6989L402.5056 576.6989L404.8113 576.6989L404.8113 576.6989L407.019 576.6989L407.019 576.6989L409.2269 576.6989L409.2269 576.6989L411.4346 576.6989L411.4346 576.6989L413.7404 576.6989L413.7404 576.6989L415.9481 576.6989" stroke="#FF00FF" stroke-width="0.2879529" fill="none" /></g><path id="192" transform="matrix(1 0 0 -1 0 841)" d="" stroke="none" fill="#000000" fill-rule="evenodd" /><path id="193" transform="matrix(1 0 0 -1 0 841)" d="M161.6735 647.7642L161.5435 648.5924C 162.2058 648.6854 162.5694 649.1088 162.5694 649.8718C 162.5694 650.6411 162.2058 651.007 161.7849 651.007C 161.5961 651.007 161.4475 650.9249 161.3392 650.7604C 161.265 650.6457 161.1706 650.3604 161.056 649.9044C 160.9013 649.2903 160.7675 648.8646 160.6545 648.6273C 160.5415 648.39 160.3852 648.2101 160.1856 648.0876C 159.986 647.965 159.7655 647.9038 159.5241 647.9038C 159.0846 647.9038 158.6947 648.1194 158.4471 648.4667C 158.2552 648.7273 158.1036 649.2081 158.1036 649.723C 158.1036 650.1107 158.1593 650.451 158.2707 650.7441C 158.3821 651.0373 158.533 651.2536 158.7233 651.3932C 158.9137 651.5328 159.1682 651.6289 159.487 651.6816L159.487 651.6816L159.5984 650.8628C 159.0908 650.7884 158.7906 650.4348 158.7906 649.7834C 158.7906 649.0142 159.0862 648.7133 159.4266 648.7133C 159.5349 648.7133 159.6324 648.7474 159.7191 648.8157C 159.8088 648.8839 159.8831 648.991 159.9419 649.1367C 159.9729 649.2205 160.044 649.467 160.1555 649.8765C 160.3133 650.4689 160.4425 650.8822 160.5431 651.1164C 160.6437 651.3505 160.7899 651.5343 160.9818 651.6677C 161.1736 651.8011 161.412 651.8677 161.6967 651.8677C 161.9752 651.8677 162.2375 651.7864 162.4835 651.6235C 162.7296 651.4606 162.9199 651.2257 163.0545 650.9186C 163.1891 650.6116 163.2565 650.2642 163.2565 649.8765C 163.2565 648.5924 162.7195 647.9503 161.6735 647.7642z" stroke="none" fill="#000000" fill-rule="evenodd" /><path id="194" transform="matrix(1 0 0 -1 0 841)" d="M166.8884 652.6668L162.7642 652.6668L162.7642 652.6668L162.7642 653.1743L162.7642 653.1743L165.1161 653.1743L165.1161 653.1743L163.9008 654.3754L163.9008 654.3754L163.9008 655.0323L163.9008 655.0323L165.0092 653.8877L165.0092 653.8877L166.8884 655.1479L166.8884 655.1479L166.8884 654.522L166.8884 654.522L165.3608 653.5324L165.3608 653.5324L165.704 653.1743L165.704 653.1743L166.8884 653.1743z" stroke="none" fill="#000000" fill-rule="evenodd" /><path id="195" transform="matrix(1 0 0 -1 0 841)" d="M165.1459 657.4012C 163.9822 656.4769 162.3512 655.7496 160.68 655.7496C 159.9435 655.7496 159.2378 655.869 158.5632 656.1078C 157.7802 656.387 157.0003 656.8181 156.2235 657.4012L156.2235 657.4012L156.2235 658.0014C 156.8672 657.6261 157.3268 657.378 157.6022 657.257C 158.0293 657.0678 158.475 656.9189 158.9392 656.8104C 159.5179 656.677 160.0997 656.6103 160.6847 656.6103C 162.1733 656.6103 163.6603 657.074 165.1459 658.0014z" stroke="none" fill="#000000" fill-rule="evenodd" /><path id="196" transform="matrix(1 0 0 -1 0 841)" d="M162.3976 660.8022L163.1358 660.9232C 163.1853 660.6874 163.21 660.4765 163.21 660.2904C 163.21 659.9865 163.1621 659.7507 163.0661 659.5832C 162.9702 659.4157 162.8441 659.2979 162.6878 659.2296C 162.5315 659.1614 162.2027 659.1273 161.7013 659.1273L161.7013 659.1273L158.8649 659.1273L158.8649 659.1273L158.8649 658.5131L158.8649 658.5131L158.215 658.5131L158.215 658.5131L158.215 659.1273L158.215 659.1273L156.9941 659.1273L156.9941 659.1273L156.4927 659.9601L156.4927 659.9601L158.215 659.9601L158.215 659.9601L158.215 660.8022L158.215 660.8022L158.8649 660.8022L158.8649 660.8022L158.8649 659.9601L158.8649 659.9601L161.7477 659.9601C 161.986 659.9601 162.1392 659.9748 162.2073 660.0043C 162.2754 660.0338 162.3296 660.0818 162.3698 660.1485C 162.41 660.2152 162.4301 660.3105 162.4301 660.4346C 162.4301 660.5276 162.4193 660.6502 162.3976 660.8022z" stroke="none" fill="#000000" fill-rule="evenodd" /><path id="197" transform="matrix(1 0 0 -1 0 841)" d="M165.1459 662.2097L165.1459 661.6096C 163.6603 662.537 162.1733 663.0007 160.6847 663.0007C 160.1028 663.0007 159.5257 662.934 158.9531 662.8006C 158.4889 662.6951 158.0432 662.5479 157.6161 662.3586C 157.3376 662.2377 156.8734 661.988 156.2235 661.6096L156.2235 661.6096L156.2235 662.2097C 157.0003 662.7928 157.7802 663.224 158.5632 663.5032C 159.2378 663.7419 159.9435 663.8614 160.68 663.8614C 162.3512 663.8614 163.9822 663.1278 165.1459 662.2097z" stroke="none" fill="#000000" fill-rule="evenodd" /><path id="199" transform="matrix(1 0 0 -1 0 841)" d="M364.0062 680.6902L402.9857 680.6902L402.9857 680.6902L402.9857 730.5647L402.9857 730.5647L364.0062 730.5647z" stroke="#000000" stroke-width="0.2879529" fill="#FFFFFF" fill-rule="evenodd" /><path id="200" transform="matrix(1 0 0 -1 0 841)" d="M367.4615 724.9796L385.5107 724.9796" stroke="#000000" stroke-width="0.2879529" fill="none" /><path id="204" transform="matrix(1 0 0 -1 0 841)" d="M367.4615 715.0643L385.5107 715.0643" stroke="#FF0000" stroke-width="0.2879529" fill="none" /><path id="208" transform="matrix(1 0 0 -1 0 841)" d="M367.4615 705.1462L385.5107 705.1462" stroke="#0000FF" stroke-width="0.2879529" fill="none" /><path id="212" transform="matrix(1 0 0 -1 0 841)" d="M367.4615 695.2281L385.5107 695.2281" stroke="#008080" stroke-width="0.2879529" fill="none" /><path id="216" transform="matrix(1 0 0 -1 0 841)" d="M367.4615 685.3101L385.5107 685.3101" stroke="#FF00FF" stroke-width="0.2879529" fill="none" /></g></g><g clip-path="url(#15)"></g><g clip-path="url(#16)"></g><g clip-path="url(#17)"></g><g clip-path="url(#18)"></g><g clip-path="url(#19)"></g><g clip-path="url(#20)"></g><g clip-path="url(#21)"></g><g clip-path="url(#22)"></g><g clip-path="url(#23)"></g><g clip-path="url(#24)"></g><g clip-path="url(#25)"></g><g clip-path="url(#26)"></g><g clip-path="url(#27)"></g><g clip-path="url(#28)"></g><g clip-path="url(#29)"></g><g clip-path="url(#30)"></g><g clip-path="url(#31)"></g><g clip-path="url(#32)"></g><g clip-path="url(#33)"></g><g clip-path="url(#34)"></g><g clip-path="url(#35)"></g><g clip-path="url(#36)"></g><g clip-path="url(#37)"></g><g clip-path="url(#38)"></g><g clip-path="url(#39)"></g><g clip-path="url(#40)"></g><g clip-path="url(#41)"></g><g clip-path="url(#42)"></g><g clip-path="url(#43)"></g><g clip-path="url(#44)"></g><g clip-path="url(#45)"></g><g clip-path="url(#46)"></g><g clip-path="url(#47)"></g><g clip-path="url(#48)"></g><g clip-path="url(#49)"></g><g clip-path="url(#50)"></g><g clip-path="url(#51)"></g><g clip-path="url(#52)"></g><g clip-path="url(#53)"></g><g clip-path="url(#54)"><g clip-path="url(#55)"><path id="474" transform="matrix(1 0 0 -1 0 841)" d="M303.9987 455.1005L345.7742 455.1005" stroke="#000000" stroke-width="0.4911844" fill="none" /></g></g><g clip-path="url(#56)"></g><g clip-path="url(#57)"><g clip-path="url(#58)"><path id="498" transform="matrix(1 0 0 -1 0 841)" d="M158.1704 379.421L196.3435 379.421" stroke="#000000" stroke-width="0.4989942" fill="none" /><path id="499" transform="matrix(1 0 0 -1 0 841)" d="M241.1557 379.421L277.1312 379.421" stroke="#000000" stroke-width="0.4989942" fill="none" /><path id="500" transform="matrix(1 0 0 -1 0 841)" d="M323.8904 379.421L345.5176 379.421" stroke="#000000" stroke-width="0.4989942" fill="none" /><path id="501" transform="matrix(1 0 0 -1 0 841)" d="M173.4902 305.3062L205.9999 305.3062" stroke="#000000" stroke-width="0.4989942" fill="none" /><path id="502" transform="matrix(1 0 0 -1 0 841)" d="M260.1869 312.4545L260.1869 298.1329" stroke="#000000" stroke-width="0.4989942" fill="none" /><path id="503" transform="matrix(1 0 0 -1 0 841)" d="M305.3285 312.4545L305.3285 298.1329" stroke="#000000" stroke-width="0.4989942" fill="none" /><path id="504" transform="matrix(1 0 0 -1 0 841)" d="M351.1291 312.4545L351.1291 298.1329" stroke="#000000" stroke-width="0.4989942" fill="none" /><path id="505" transform="matrix(1 0 0 -1 0 841)" d="M385.7667 312.4545L385.7667 298.1329" stroke="#000000" stroke-width="0.4989942" fill="none" /><path id="506" transform="matrix(1 0 0 -1 0 841)" d="M431.6172 312.4545L431.6172 298.1329" stroke="#000000" stroke-width="0.4989942" fill="none" /><path id="507" transform="matrix(1 0 0 -1 0 841)" d="M466.3246 312.4545L466.3246 298.1329" stroke="#000000" stroke-width="0.4989942" fill="none" /></g></g><g clip-path="url(#59)"></g><g clip-path="url(#60)"></g><g clip-path="url(#61)"></g><g clip-path="url(#62)"></g><g clip-path="url(#63)"></g><g clip-path="url(#64)"></g><g clip-path="url(#65)"></g><g clip-path="url(#66)"></g><g clip-path="url(#67)"></g><g clip-path="url(#68)"></g><g clip-path="url(#69)"></g><g clip-path="url(#70)"></g><g clip-path="url(#71)"></g><g clip-path="url(#72)"></g><g clip-path="url(#73)"></g><g clip-path="url(#74)"></g><g clip-path="url(#75)"></g><g clip-path="url(#76)"></g><g clip-path="url(#77)"></g><g clip-path="url(#78)"></g><g clip-path="url(#79)"></g><g clip-path="url(#80)"></g><g clip-path="url(#81)"></g><g clip-path="url(#82)"></g><g clip-path="url(#83)"></g><g clip-path="url(#84)"></g><g clip-path="url(#85)"></g><g clip-path="url(#86)"></g><g clip-path="url(#87)"></g><g clip-path="url(#88)"></g><g clip-path="url(#89)"></g><g clip-path="url(#90)"></g><g clip-path="url(#91)"></g><g clip-path="url(#92)"></g><g clip-path="url(#93)"></g><g clip-path="url(#94)"></g><g clip-path="url(#95)"></g><g clip-path="url(#96)"></g><g clip-path="url(#97)"></g><g clip-path="url(#98)"></g><g clip-path="url(#99)"></g><g clip-path="url(#100)"></g><g clip-path="url(#101)"></g><g clip-path="url(#102)"></g><g clip-path="url(#103)"></g><g clip-path="url(#104)"></g><g clip-path="url(#105)"></g><g clip-path="url(#106)"></g><g clip-path="url(#107)"></g><g clip-path="url(#108)"></g><g clip-path="url(#109)"></g><g clip-path="url(#110)"></g><g clip-path="url(#111)"></g><g clip-path="url(#112)"></g><g clip-path="url(#113)"></g><g clip-path="url(#114)"></g><g clip-path="url(#115)"></g><g clip-path="url(#116)"></g><g clip-path="url(#117)"></g><g clip-path="url(#118)"></g><g clip-path="url(#119)"></g><g clip-path="url(#120)"></g><g clip-path="url(#121)"></g><g clip-path="url(#122)"></g><g clip-path="url(#123)"></g><g clip-path="url(#124)"></g><g clip-path="url(#125)"></g><g clip-path="url(#126)"></g><g clip-path="url(#127)"></g><g clip-path="url(#128)"></g><g clip-path="url(#129)"></g><g clip-path="url(#130)"></g><g clip-path="url(#131)"></g><g clip-path="url(#132)"></g><g clip-path="url(#133)"></g><g clip-path="url(#134)"></g><g clip-path="url(#135)"></g><g clip-path="url(#136)"></g><g clip-path="url(#137)"></g><g clip-path="url(#138)"></g><g clip-path="url(#139)"></g><g clip-path="url(#140)"></g><g clip-path="url(#141)"></g><g clip-path="url(#142)"></g><g clip-path="url(#143)"></g><g clip-path="url(#144)"></g><g clip-path="url(#145)"></g><g clip-path="url(#146)"></g><g clip-path="url(#147)"></g><g clip-path="url(#148)"></g><g clip-path="url(#149)"></g><g clip-path="url(#150)"></g><g clip-path="url(#151)"></g><g clip-path="url(#152)"></g><g clip-path="url(#153)"></g><g clip-path="url(#154)"></g><g clip-path="url(#155)"></g><g clip-path="url(#156)"></g><g clip-path="url(#157)"></g><g clip-path="url(#158)"></g><g clip-path="url(#159)"></g><g clip-path="url(#160)"></g><g clip-path="url(#161)"></g><g clip-path="url(#162)"></g><g clip-path="url(#163)"></g><g clip-path="url(#164)"></g><g clip-path="url(#165)"></g><g clip-path="url(#166)"></g><g clip-path="url(#167)"></g><g clip-path="url(#168)"></g><g clip-path="url(#169)"></g><g clip-path="url(#170)"></g><g clip-path="url(#171)"></g><g clip-path="url(#172)"></g><g clip-path="url(#173)"></g><g clip-path="url(#174)"></g><g clip-path="url(#175)"></g><g clip-path="url(#176)"></g><g clip-path="url(#177)"></g><g clip-path="url(#178)"></g><g clip-path="url(#179)"></g><g clip-path="url(#180)"></g><g clip-path="url(#181)"></g><g clip-path="url(#182)"></g><g clip-path="url(#183)"></g><g clip-path="url(#184)"></g><g clip-path="url(#185)"></g><g clip-path="url(#186)"></g><g clip-path="url(#187)"></g><g clip-path="url(#188)"></g><g clip-path="url(#189)"></g><g clip-path="url(#190)"></g><g clip-path="url(#191)"></g><g clip-path="url(#192)"></g><g clip-path="url(#193)"></g><g clip-path="url(#194)"></g><g clip-path="url(#195)"></g><g clip-path="url(#196)"></g></g></g></svg>