<svg xmlns="http://www.w3.org/2000/svg" xmlns:xlink="http://www.w3.org/1999/xlink" id="body_833" preserveAspectRatio="xMinYMin meet" viewBox="0 0 793 1121"><defs><clipPath id="1"><path id="" clip-rule="evenodd" d="M0 841L0 -0.9199829L0 -0.9199829L595.32 -0.9199829L595.32 -0.9199829L595.32 841L595.32 841L0 841z" /></clipPath><clipPath id="2"><path id="" clip-rule="evenodd" d="M0 840.9999L595.32 840.9999L595.32 840.9999L595.32 -0.9200439L595.32 -0.9200439L0 -0.9200439z" /></clipPath><clipPath id="3"><path id="" clip-rule="evenodd" d="M8.871E-06 841L595.32 841L595.32 841L595.32 -0.9199829L595.32 -0.9199829L8.871E-06 -0.9199829z" /></clipPath><clipPath id="4"><path id="" clip-rule="evenodd" d="M8.871E-06 841L595.32 841L595.32 841L595.32 -0.9199829L595.32 -0.9199829L8.871E-06 -0.9199829z" /></clipPath><clipPath id="5"><path id="" clip-rule="evenodd" d="M8.871E-06 841L595.32 841L595.32 841L595.32 -0.9199829L595.32 -0.9199829L8.871E-06 -0.9199829z" /></clipPath><clipPath id="6"><path id="" clip-rule="evenodd" d="M8.871E-06 841L595.32 841L595.32 841L595.32 -0.9199829L595.32 -0.9199829L8.871E-06 -0.9199829z" /></clipPath><clipPath id="7"><path id="" clip-rule="evenodd" d="M8.871E-06 841L595.32 841L595.32 841L595.32 -0.9199829L595.32 -0.9199829L8.871E-06 -0.9199829z" /></clipPath><clipPath id="8"><path id="" clip-rule="evenodd" d="M8.871E-06 841L595.32 841L595.32 841L595.32 -0.9199829L595.32 -0.9199829L8.871E-06 -0.9199829z" /></clipPath><clipPath id="9"><path id="" clip-rule="evenodd" d="M8.871E-06 841L595.32 841L595.32 841L595.32 -0.9199829L595.32 -0.9199829L8.871E-06 -0.9199829z" /></clipPath><clipPath id="10"><path id="" clip-rule="evenodd" d="M8.871E-06 841L595.32 841L595.32 841L595.32 -0.9199829L595.32 -0.9199829L8.871E-06 -0.9199829z" /></clipPath><clipPath id="11"><path id="" clip-rule="evenodd" d="M8.871E-06 841L595.32 841L595.32 841L595.32 -0.9199829L595.32 -0.9199829L8.871E-06 -0.9199829z" /></clipPath><clipPath id="12"><path id="" clip-rule="evenodd" d="M8.871E-06 841L595.32 841L595.32 841L595.32 -0.9199829L595.32 -0.9199829L8.871E-06 -0.9199829z" /></clipPath><clipPath id="13"><path id="" clip-rule="evenodd" d="M8.871E-06 841L595.32 841L595.32 841L595.32 -0.9199829L595.32 -0.9199829L8.871E-06 -0.9199829z" /></clipPath><clipPath id="14"><path id="" clip-rule="evenodd" d="M8.871E-06 841L595.32 841L595.32 841L595.32 -0.9199829L595.32 -0.9199829L8.871E-06 -0.9199829z" /></clipPath><clipPath id="15"><path id="" clip-rule="evenodd" d="M8.871E-06 841L595.32 841L595.32 841L595.32 -0.9199829L595.32 -0.9199829L8.871E-06 -0.9199829z" /></clipPath><clipPath id="16"><path id="" clip-rule="evenodd" d="M8.871E-06 841L595.32 841L595.32 841L595.32 -0.9199829L595.32 -0.9199829L8.871E-06 -0.9199829z" /></clipPath><clipPath id="17"><path id="" clip-rule="evenodd" d="M8.871E-06 841L595.32 841L595.32 841L595.32 -0.9199829L595.32 -0.9199829L8.871E-06 -0.9199829z" /></clipPath><clipPath id="18"><path id="" clip-rule="evenodd" d="M8.871E-06 841L595.32 841L595.32 841L595.32 -0.9199829L595.32 -0.9199829L8.871E-06 -0.9199829z" /></clipPath><clipPath id="19"><path id="" clip-rule="evenodd" d="M8.871E-06 841L595.32 841L595.32 841L595.32 -0.9199829L595.32 -0.9199829L8.871E-06 -0.9199829z" /></clipPath><clipPath id="20"><path id="" clip-rule="evenodd" d="M8.871E-06 841L595.32 841L595.32 841L595.32 -0.9199829L595.32 -0.9199829L8.871E-06 -0.9199829z" /></clipPath><clipPath id="21"><path id="" clip-rule="evenodd" d="M8.871E-06 841L595.32 841L595.32 841L595.32 -0.9199829L595.32 -0.9199829L8.871E-06 -0.9199829z" /></clipPath><clipPath id="22"><path id="" clip-rule="evenodd" d="M8.871E-06 841L595.32 841L595.32 841L595.32 -0.9199829L595.32 -0.9199829L8.871E-06 -0.9199829z" /></clipPath><clipPath id="23"><path id="" clip-rule="evenodd" d="M8.871E-06 841L595.32 841L595.32 841L595.32 -0.9199829L595.32 -0.9199829L8.871E-06 -0.9199829z" /></clipPath><clipPath id="24"><path id="" clip-rule="evenodd" d="M8.871E-06 841L595.32 841L595.32 841L595.32 -0.9199829L595.32 -0.9199829L8.871E-06 -0.9199829z" /></clipPath><clipPath id="25"><path id="" clip-rule="evenodd" d="M8.871E-06 841L595.32 841L595.32 841L595.32 -0.9199829L595.32 -0.9199829L8.871E-06 -0.9199829z" /></clipPath><clipPath id="26"><path id="" clip-rule="evenodd" d="M8.871E-06 841L595.32 841L595.32 841L595.32 -0.9199829L595.32 -0.9199829L8.871E-06 -0.9199829z" /></clipPath><clipPath id="27"><path id="" clip-rule="evenodd" d="M8.871E-06 841L595.32 841L595.32 841L595.32 -0.9199829L595.32 -0.9199829L8.871E-06 -0.9199829z" /></clipPath><clipPath id="28"><path id="" clip-rule="evenodd" d="M8.871E-06 841L595.32 841L595.32 841L595.32 -0.9199829L595.32 -0.9199829L8.871E-06 -0.9199829z" /></clipPath><clipPath id="29"><path id="" clip-rule="evenodd" d="M8.871E-06 841L595.32 841L595.32 841L595.32 -0.9199829L595.32 -0.9199829L8.871E-06 -0.9199829z" /></clipPath><clipPath id="30"><path id="" clip-rule="evenodd" d="M8.871E-06 841L595.32 841L595.32 841L595.32 -0.9199829L595.32 -0.9199829L8.871E-06 -0.9199829z" /></clipPath><clipPath id="31"><path id="" clip-rule="evenodd" d="M8.871E-06 841L595.32 841L595.32 841L595.32 -0.9199829L595.32 -0.9199829L8.871E-06 -0.9199829z" /></clipPath><clipPath id="32"><path id="" clip-rule="evenodd" d="M8.871E-06 841L595.32 841L595.32 841L595.32 -0.9199829L595.32 -0.9199829L8.871E-06 -0.9199829z" /></clipPath><clipPath id="33"><path id="" clip-rule="evenodd" d="M8.871E-06 841L595.32 841L595.32 841L595.32 -0.9199829L595.32 -0.9199829L8.871E-06 -0.9199829z" /></clipPath><clipPath id="34"><path id="" clip-rule="evenodd" d="M8.871E-06 841L595.32 841L595.32 841L595.32 -0.9199829L595.32 -0.9199829L8.871E-06 -0.9199829z" /></clipPath><clipPath id="35"><path id="" clip-rule="evenodd" d="M8.871E-06 841L595.32 841L595.32 841L595.32 -0.9199829L595.32 -0.9199829L8.871E-06 -0.9199829z" /></clipPath><clipPath id="36"><path id="" clip-rule="evenodd" d="M8.871E-06 841L595.32 841L595.32 841L595.32 -0.9199829L595.32 -0.9199829L8.871E-06 -0.9199829z" /></clipPath><clipPath id="37"><path id="" clip-rule="evenodd" d="M8.871E-06 841L595.32 841L595.32 841L595.32 -0.9199829L595.32 -0.9199829L8.871E-06 -0.9199829z" /></clipPath><clipPath id="38"><path id="" clip-rule="evenodd" d="M8.871E-06 841L595.32 841L595.32 841L595.32 -0.9199829L595.32 -0.9199829L8.871E-06 -0.9199829z" /></clipPath><clipPath id="39"><path id="" clip-rule="evenodd" d="M8.871E-06 841L595.32 841L595.32 841L595.32 -0.9199829L595.32 -0.9199829L8.871E-06 -0.9199829z" /></clipPath><clipPath id="40"><path id="" clip-rule="evenodd" d="M8.871E-06 841L595.32 841L595.32 841L595.32 -0.9199829L595.32 -0.9199829L8.871E-06 -0.9199829z" /></clipPath><clipPath id="41"><path id="" clip-rule="evenodd" d="M8.871E-06 841L595.32 841L595.32 841L595.32 -0.9199829L595.32 -0.9199829L8.871E-06 -0.9199829z" /></clipPath><clipPath id="42"><path id="" clip-rule="evenodd" d="M8.871E-06 841L595.32 841L595.32 841L595.32 -0.9199829L595.32 -0.9199829L8.871E-06 -0.9199829z" /></clipPath><clipPath id="43"><path id="" clip-rule="evenodd" d="M8.871E-06 841L595.32 841L595.32 841L595.32 -0.9199829L595.32 -0.9199829L8.871E-06 -0.9199829z" /></clipPath><clipPath id="44"><path id="" clip-rule="evenodd" d="M8.871E-06 841L595.32 841L595.32 841L595.32 -0.9199829L595.32 -0.9199829L8.871E-06 -0.9199829z" /></clipPath><clipPath id="45"><path id="" clip-rule="evenodd" d="M8.871E-06 841L595.32 841L595.32 841L595.32 -0.9199829L595.32 -0.9199829L8.871E-06 -0.9199829z" /></clipPath><clipPath id="46"><path id="" clip-rule="evenodd" d="M8.871E-06 841L595.32 841L595.32 841L595.32 -0.9199829L595.32 -0.9199829L8.871E-06 -0.9199829z" /></clipPath><clipPath id="47"><path id="" clip-rule="evenodd" d="M8.871E-06 841L595.32 841L595.32 841L595.32 -0.9199829L595.32 -0.9199829L8.871E-06 -0.9199829z" /></clipPath><clipPath id="48"><path id="" clip-rule="evenodd" d="M8.871E-06 841L595.32 841L595.32 841L595.32 -0.9199829L595.32 -0.9199829L8.871E-06 -0.9199829z" /></clipPath><clipPath id="49"><path id="" clip-rule="evenodd" d="M8.871E-06 841L595.32 841L595.32 841L595.32 -0.9199829L595.32 -0.9199829L8.871E-06 -0.9199829z" /></clipPath><clipPath id="50"><path id="" clip-rule="evenodd" d="M8.871E-06 841L595.32 841L595.32 841L595.32 -0.9199829L595.32 -0.9199829L8.871E-06 -0.9199829z" /></clipPath><clipPath id="51"><path id="" clip-rule="evenodd" d="M8.871E-06 841L595.32 841L595.32 841L595.32 -0.9199829L595.32 -0.9199829L8.871E-06 -0.9199829z" /></clipPath><clipPath id="52"><path id="" clip-rule="evenodd" d="M8.871E-06 841L595.32 841L595.32 841L595.32 -0.9199829L595.32 -0.9199829L8.871E-06 -0.9199829z" /></clipPath><clipPath id="53"><path id="" clip-rule="evenodd" d="M8.871E-06 841L595.32 841L595.32 841L595.32 -0.9199829L595.32 -0.9199829L8.871E-06 -0.9199829z" /></clipPath><clipPath id="54"><path id="" clip-rule="evenodd" d="M8.871E-06 841L595.32 841L595.32 841L595.32 -0.9199829L595.32 -0.9199829L8.871E-06 -0.9199829z" /></clipPath><clipPath id="55"><path id="" clip-rule="evenodd" d="M8.871E-06 841L595.32 841L595.32 841L595.32 -0.9199829L595.32 -0.9199829L8.871E-06 -0.9199829z" /></clipPath><clipPath id="56"><path id="" clip-rule="evenodd" d="M8.871E-06 841L595.32 841L595.32 841L595.32 -0.9199829L595.32 -0.9199829L8.871E-06 -0.9199829z" /></clipPath><clipPath id="57"><path id="" clip-rule="evenodd" d="M8.871E-06 841L595.32 841L595.32 841L595.32 -0.9199829L595.32 -0.9199829L8.871E-06 -0.9199829z" /></clipPath><clipPath id="58"><path id="" clip-rule="evenodd" d="M8.871E-06 841L595.32 841L595.32 841L595.32 -0.9199829L595.32 -0.9199829L8.871E-06 -0.9199829z" /></clipPath><clipPath id="59"><path id="" clip-rule="evenodd" d="M8.871E-06 841L595.32 841L595.32 841L595.32 -0.9199829L595.32 -0.9199829L8.871E-06 -0.9199829z" /></clipPath><clipPath id="60"><path id="" clip-rule="evenodd" d="M8.871E-06 841L595.32 841L595.32 841L595.32 -0.9199829L595.32 -0.9199829L8.871E-06 -0.9199829z" /></clipPath><clipPath id="61"><path id="" clip-rule="evenodd" d="M8.871E-06 841L595.32 841L595.32 841L595.32 -0.9199829L595.32 -0.9199829L8.871E-06 -0.9199829z" /></clipPath><clipPath id="62"><path id="" clip-rule="evenodd" d="M8.871E-06 841L595.32 841L595.32 841L595.32 -0.9199829L595.32 -0.9199829L8.871E-06 -0.9199829z" /></clipPath><clipPath id="63"><path id="" clip-rule="evenodd" d="M8.871E-06 841L595.32 841L595.32 841L595.32 -0.9199829L595.32 -0.9199829L8.871E-06 -0.9199829z" /></clipPath><clipPath id="64"><path id="" clip-rule="evenodd" d="M8.871E-06 841L595.32 841L595.32 841L595.32 -0.9199829L595.32 -0.9199829L8.871E-06 -0.9199829z" /></clipPath><clipPath id="65"><path id="" clip-rule="evenodd" d="M8.871E-06 841L595.32 841L595.32 841L595.32 -0.9199829L595.32 -0.9199829L8.871E-06 -0.9199829z" /></clipPath><clipPath id="66"><path id="" clip-rule="evenodd" d="M8.871E-06 841L595.32 841L595.32 841L595.32 -0.9199829L595.32 -0.9199829L8.871E-06 -0.9199829z" /></clipPath><clipPath id="67"><path id="" clip-rule="evenodd" d="M8.871E-06 841L595.32 841L595.32 841L595.32 -0.9199829L595.32 -0.9199829L8.871E-06 -0.9199829z" /></clipPath><clipPath id="68"><path id="" clip-rule="evenodd" d="M8.871E-06 841L595.32 841L595.32 841L595.32 -0.9199829L595.32 -0.9199829L8.871E-06 -0.9199829z" /></clipPath><clipPath id="69"><path id="" clip-rule="evenodd" d="M8.871E-06 841L595.32 841L595.32 841L595.32 -0.9199829L595.32 -0.9199829L8.871E-06 -0.9199829z" /></clipPath><clipPath id="70"><path id="" clip-rule="evenodd" d="M8.871E-06 841L595.32 841L595.32 841L595.32 -0.9199829L595.32 -0.9199829L8.871E-06 -0.9199829z" /></clipPath><clipPath id="71"><path id="" clip-rule="evenodd" d="M8.871E-06 841L595.32 841L595.32 841L595.32 -0.9199829L595.32 -0.9199829L8.871E-06 -0.9199829z" /></clipPath><clipPath id="72"><path id="" clip-rule="evenodd" d="M8.871E-06 841L595.32 841L595.32 841L595.32 -0.9199829L595.32 -0.9199829L8.871E-06 -0.9199829z" /></clipPath><clipPath id="73"><path id="" clip-rule="evenodd" d="M8.871E-06 841L595.32 841L595.32 841L595.32 -0.9199829L595.32 -0.9199829L8.871E-06 -0.9199829z" /></clipPath><clipPath id="74"><path id="" clip-rule="evenodd" d="M8.871E-06 841L595.32 841L595.32 841L595.32 -0.9199829L595.32 -0.9199829L8.871E-06 -0.9199829z" /></clipPath><clipPath id="75"><path id="" clip-rule="evenodd" d="M8.871E-06 841L595.32 841L595.32 841L595.32 -0.9199829L595.32 -0.9199829L8.871E-06 -0.9199829z" /></clipPath><clipPath id="76"><path id="" clip-rule="evenodd" d="M8.871E-06 841L595.32 841L595.32 841L595.32 -0.9199829L595.32 -0.9199829L8.871E-06 -0.9199829z" /></clipPath><clipPath id="77"><path id="" clip-rule="evenodd" d="M8.871E-06 841L595.32 841L595.32 841L595.32 -0.9199829L595.32 -0.9199829L8.871E-06 -0.9199829z" /></clipPath><clipPath id="78"><path id="" clip-rule="evenodd" d="M8.871E-06 841L595.32 841L595.32 841L595.32 -0.9199829L595.32 -0.9199829L8.871E-06 -0.9199829z" /></clipPath><clipPath id="79"><path id="" clip-rule="evenodd" d="M8.871E-06 841L595.32 841L595.32 841L595.32 -0.9199829L595.32 -0.9199829L8.871E-06 -0.9199829z" /></clipPath><clipPath id="80"><path id="" clip-rule="evenodd" d="M8.871E-06 841L595.32 841L595.32 841L595.32 -0.9199829L595.32 -0.9199829L8.871E-06 -0.9199829z" /></clipPath><clipPath id="81"><path id="" clip-rule="evenodd" d="M8.871E-06 841L595.32 841L595.32 841L595.32 -0.9199829L595.32 -0.9199829L8.871E-06 -0.9199829z" /></clipPath><clipPath id="82"><path id="" clip-rule="evenodd" d="M8.871E-06 841L595.32 841L595.32 841L595.32 -0.9199829L595.32 -0.9199829L8.871E-06 -0.9199829z" /></clipPath><clipPath id="83"><path id="" clip-rule="evenodd" d="M8.871E-06 841L595.32 841L595.32 841L595.32 -0.9199829L595.32 -0.9199829L8.871E-06 -0.9199829z" /></clipPath><clipPath id="84"><path id="" clip-rule="evenodd" d="M8.871E-06 841L595.32 841L595.32 841L595.32 -0.9199829L595.32 -0.9199829L8.871E-06 -0.9199829z" /></clipPath><clipPath id="85"><path id="" clip-rule="evenodd" d="M8.871E-06 841L595.32 841L595.32 841L595.32 -0.9199829L595.32 -0.9199829L8.871E-06 -0.9199829z" /></clipPath><clipPath id="86"><path id="" clip-rule="evenodd" d="M8.871E-06 841L595.32 841L595.32 841L595.32 -0.9199829L595.32 -0.9199829L8.871E-06 -0.9199829z" /></clipPath><clipPath id="87"><path id="" clip-rule="evenodd" d="M8.871E-06 841L595.32 841L595.32 841L595.32 -0.9199829L595.32 -0.9199829L8.871E-06 -0.9199829z" /></clipPath><clipPath id="88"><path id="" clip-rule="evenodd" d="M8.871E-06 841L595.32 841L595.32 841L595.32 -0.9199829L595.32 -0.9199829L8.871E-06 -0.9199829z" /></clipPath><clipPath id="89"><path id="" clip-rule="evenodd" d="M8.871E-06 841L595.32 841L595.32 841L595.32 -0.9199829L595.32 -0.9199829L8.871E-06 -0.9199829z" /></clipPath><clipPath id="90"><path id="" clip-rule="evenodd" d="M8.871E-06 841L595.32 841L595.32 841L595.32 -0.9199829L595.32 -0.9199829L8.871E-06 -0.9199829z" /></clipPath><clipPath id="91"><path id="" clip-rule="evenodd" d="M8.871E-06 841L595.32 841L595.32 841L595.32 -0.9199829L595.32 -0.9199829L8.871E-06 -0.9199829z" /></clipPath><clipPath id="92"><path id="" clip-rule="evenodd" d="M8.871E-06 841L595.32 841L595.32 841L595.32 -0.9199829L595.32 -0.9199829L8.871E-06 -0.9199829z" /></clipPath><clipPath id="93"><path id="" clip-rule="evenodd" d="M8.871E-06 841L595.32 841L595.32 841L595.32 -0.9199829L595.32 -0.9199829L8.871E-06 -0.9199829z" /></clipPath><clipPath id="94"><path id="" clip-rule="evenodd" d="M8.871E-06 841L595.32 841L595.32 841L595.32 -0.9199829L595.32 -0.9199829L8.871E-06 -0.9199829z" /></clipPath><clipPath id="95"><path id="" clip-rule="evenodd" d="M8.871E-06 841L595.32 841L595.32 841L595.32 -0.9199829L595.32 -0.9199829L8.871E-06 -0.9199829z" /></clipPath><clipPath id="96"><path id="" clip-rule="evenodd" d="M8.871E-06 841L595.32 841L595.32 841L595.32 -0.9199829L595.32 -0.9199829L8.871E-06 -0.9199829z" /></clipPath><clipPath id="97"><path id="" clip-rule="evenodd" d="M8.871E-06 841L595.32 841L595.32 841L595.32 -0.9199829L595.32 -0.9199829L8.871E-06 -0.9199829z" /></clipPath><clipPath id="98"><path id="" clip-rule="evenodd" d="M8.871E-06 841L595.32 841L595.32 841L595.32 -0.9199829L595.32 -0.9199829L8.871E-06 -0.9199829z" /></clipPath><clipPath id="99"><path id="" clip-rule="evenodd" d="M8.871E-06 841L595.32 841L595.32 841L595.32 -0.9199829L595.32 -0.9199829L8.871E-06 -0.9199829z" /></clipPath><clipPath id="100"><path id="" clip-rule="evenodd" d="M8.871E-06 841L595.32 841L595.32 841L595.32 -0.9199829L595.32 -0.9199829L8.871E-06 -0.9199829z" /></clipPath><clipPath id="101"><path id="" clip-rule="evenodd" d="M8.871E-06 841L595.32 841L595.32 841L595.32 -0.9199829L595.32 -0.9199829L8.871E-06 -0.9199829z" /></clipPath><clipPath id="102"><path id="" clip-rule="evenodd" d="M8.871E-06 841L595.32 841L595.32 841L595.32 -0.9199829L595.32 -0.9199829L8.871E-06 -0.9199829z" /></clipPath><clipPath id="103"><path id="" clip-rule="evenodd" d="M8.871E-06 841L595.32 841L595.32 841L595.32 -0.9199829L595.32 -0.9199829L8.871E-06 -0.9199829z" /></clipPath><clipPath id="104"><path id="" clip-rule="evenodd" d="M8.871E-06 841L595.32 841L595.32 841L595.32 -0.9199829L595.32 -0.9199829L8.871E-06 -0.9199829z" /></clipPath><clipPath id="105"><path id="" clip-rule="evenodd" d="M8.871E-06 841L595.32 841L595.32 841L595.32 -0.9199829L595.32 -0.9199829L8.871E-06 -0.9199829z" /></clipPath><clipPath id="106"><path id="" clip-rule="evenodd" d="M8.871E-06 841L595.32 841L595.32 841L595.32 -0.9199829L595.32 -0.9199829L8.871E-06 -0.9199829z" /></clipPath><clipPath id="107"><path id="" clip-rule="evenodd" d="M8.871E-06 841L595.32 841L595.32 841L595.32 -0.9199829L595.32 -0.9199829L8.871E-06 -0.9199829z" /></clipPath><clipPath id="108"><path id="" clip-rule="evenodd" d="M8.871E-06 841L595.32 841L595.32 841L595.32 -0.9199829L595.32 -0.9199829L8.871E-06 -0.9199829z" /></clipPath><clipPath id="109"><path id="" clip-rule="evenodd" d="M8.871E-06 841L595.32 841L595.32 841L595.32 -0.9199829L595.32 -0.9199829L8.871E-06 -0.9199829z" /></clipPath><clipPath id="110"><path id="" clip-rule="evenodd" d="M8.871E-06 841L595.32 841L595.32 841L595.32 -0.9199829L595.32 -0.9199829L8.871E-06 -0.9199829z" /></clipPath><clipPath id="111"><path id="" clip-rule="evenodd" d="M8.871E-06 841L595.32 841L595.32 841L595.32 -0.9199829L595.32 -0.9199829L8.871E-06 -0.9199829z" /></clipPath><clipPath id="112"><path id="" clip-rule="evenodd" d="M8.871E-06 841L595.32 841L595.32 841L595.32 -0.9199829L595.32 -0.9199829L8.871E-06 -0.9199829z" /></clipPath><clipPath id="113"><path id="" clip-rule="evenodd" d="M8.871E-06 841L595.32 841L595.32 841L595.32 -0.9199829L595.32 -0.9199829L8.871E-06 -0.9199829z" /></clipPath><clipPath id="114"><path id="" clip-rule="evenodd" d="M8.871E-06 841L595.32 841L595.32 841L595.32 -0.9199829L595.32 -0.9199829L8.871E-06 -0.9199829z" /></clipPath><clipPath id="115"><path id="" clip-rule="evenodd" d="M8.871E-06 841L595.32 841L595.32 841L595.32 -0.9199829L595.32 -0.9199829L8.871E-06 -0.9199829z" /></clipPath><clipPath id="116"><path id="" clip-rule="evenodd" d="M8.871E-06 841L595.32 841L595.32 841L595.32 -0.9199829L595.32 -0.9199829L8.871E-06 -0.9199829z" /></clipPath><clipPath id="117"><path id="" clip-rule="evenodd" d="M8.871E-06 841L595.32 841L595.32 841L595.32 -0.9199829L595.32 -0.9199829L8.871E-06 -0.9199829z" /></clipPath><clipPath id="118"><path id="" clip-rule="evenodd" d="M8.871E-06 841L595.32 841L595.32 841L595.32 -0.9199829L595.32 -0.9199829L8.871E-06 -0.9199829z" /></clipPath><clipPath id="119"><path id="" clip-rule="evenodd" d="M8.871E-06 841L595.32 841L595.32 841L595.32 -0.9199829L595.32 -0.9199829L8.871E-06 -0.9199829z" /></clipPath><clipPath id="120"><path id="" clip-rule="evenodd" d="M8.871E-06 841L595.32 841L595.32 841L595.32 -0.9199829L595.32 -0.9199829L8.871E-06 -0.9199829z" /></clipPath><clipPath id="121"><path id="" clip-rule="evenodd" d="M8.871E-06 841L595.32 841L595.32 841L595.32 -0.9199829L595.32 -0.9199829L8.871E-06 -0.9199829z" /></clipPath><clipPath id="122"><path id="" clip-rule="evenodd" d="M8.871E-06 841L595.32 841L595.32 841L595.32 -0.9199829L595.32 -0.9199829L8.871E-06 -0.9199829z" /></clipPath><clipPath id="123"><path id="" clip-rule="evenodd" d="M8.871E-06 841L595.32 841L595.32 841L595.32 -0.9199829L595.32 -0.9199829L8.871E-06 -0.9199829z" /></clipPath><clipPath id="124"><path id="" clip-rule="evenodd" d="M8.871E-06 841L595.32 841L595.32 841L595.32 -0.9199829L595.32 -0.9199829L8.871E-06 -0.9199829z" /></clipPath><clipPath id="125"><path id="" clip-rule="evenodd" d="M8.871E-06 841L595.32 841L595.32 841L595.32 -0.9199829L595.32 -0.9199829L8.871E-06 -0.9199829z" /></clipPath><clipPath id="126"><path id="" clip-rule="evenodd" d="M8.871E-06 841L595.32 841L595.32 841L595.32 -0.9199829L595.32 -0.9199829L8.871E-06 -0.9199829z" /></clipPath><clipPath id="127"><path id="" clip-rule="evenodd" d="M8.871E-06 841L595.32 841L595.32 841L595.32 -0.9199829L595.32 -0.9199829L8.871E-06 -0.9199829z" /></clipPath><clipPath id="128"><path id="" clip-rule="evenodd" d="M8.871E-06 841L595.32 841L595.32 841L595.32 -0.9199829L595.32 -0.9199829L8.871E-06 -0.9199829z" /></clipPath><clipPath id="129"><path id="" clip-rule="evenodd" d="M8.871E-06 841L595.32 841L595.32 841L595.32 -0.9199829L595.32 -0.9199829L8.871E-06 -0.9199829z" /></clipPath><clipPath id="130"><path id="" clip-rule="evenodd" d="M8.871E-06 841L595.32 841L595.32 841L595.32 -0.9199829L595.32 -0.9199829L8.871E-06 -0.9199829z" /></clipPath><clipPath id="131"><path id="" clip-rule="evenodd" d="M8.871E-06 841L595.32 841L595.32 841L595.32 -0.9199829L595.32 -0.9199829L8.871E-06 -0.9199829z" /></clipPath><clipPath id="132"><path id="" clip-rule="evenodd" d="M8.871E-06 841L595.32 841L595.32 841L595.32 -0.9199829L595.32 -0.9199829L8.871E-06 -0.9199829z" /></clipPath><clipPath id="133"><path id="" clip-rule="evenodd" d="M8.871E-06 841L595.32 841L595.32 841L595.32 -0.9199829L595.32 -0.9199829L8.871E-06 -0.9199829z" /></clipPath><clipPath id="134"><path id="" clip-rule="evenodd" d="M8.871E-06 841L595.32 841L595.32 841L595.32 -0.9199829L595.32 -0.9199829L8.871E-06 -0.9199829z" /></clipPath><clipPath id="135"><path id="" clip-rule="evenodd" d="M8.871E-06 841L595.32 841L595.32 841L595.32 -0.9199829L595.32 -0.9199829L8.871E-06 -0.9199829z" /></clipPath><clipPath id="136"><path id="" clip-rule="evenodd" d="M8.871E-06 841L595.32 841L595.32 841L595.32 -0.9199829L595.32 -0.9199829L8.871E-06 -0.9199829z" /></clipPath><clipPath id="137"><path id="" clip-rule="evenodd" d="M8.871E-06 841L595.32 841L595.32 841L595.32 -0.9199829L595.32 -0.9199829L8.871E-06 -0.9199829z" /></clipPath><clipPath id="138"><path id="" clip-rule="evenodd" d="M8.871E-06 841L595.32 841L595.32 841L595.32 -0.9199829L595.32 -0.9199829L8.871E-06 -0.9199829z" /></clipPath><clipPath id="139"><path id="" clip-rule="evenodd" d="M8.871E-06 841L595.32 841L595.32 841L595.32 -0.9199829L595.32 -0.9199829L8.871E-06 -0.9199829z" /></clipPath><clipPath id="140"><path id="" clip-rule="evenodd" d="M8.871E-06 841L595.32 841L595.32 841L595.32 -0.9199829L595.32 -0.9199829L8.871E-06 -0.9199829z" /></clipPath><clipPath id="141"><path id="" clip-rule="evenodd" d="M8.871E-06 841L595.32 841L595.32 841L595.32 -0.9199829L595.32 -0.9199829L8.871E-06 -0.9199829z" /></clipPath><clipPath id="142"><path id="" clip-rule="evenodd" d="M8.871E-06 841L595.32 841L595.32 841L595.32 -0.9199829L595.32 -0.9199829L8.871E-06 -0.9199829z" /></clipPath><clipPath id="143"><path id="" clip-rule="evenodd" d="M8.871E-06 841L595.32 841L595.32 841L595.32 -0.9199829L595.32 -0.9199829L8.871E-06 -0.9199829z" /></clipPath><clipPath id="144"><path id="" clip-rule="evenodd" d="M8.871E-06 841L595.32 841L595.32 841L595.32 -0.9199829L595.32 -0.9199829L8.871E-06 -0.9199829z" /></clipPath><clipPath id="145"><path id="" clip-rule="evenodd" d="M8.871E-06 841L595.32 841L595.32 841L595.32 -0.9199829L595.32 -0.9199829L8.871E-06 -0.9199829z" /></clipPath><clipPath id="146"><path id="" clip-rule="evenodd" d="M8.871E-06 841L595.32 841L595.32 841L595.32 -0.9199829L595.32 -0.9199829L8.871E-06 -0.9199829z" /></clipPath><clipPath id="147"><path id="" clip-rule="evenodd" d="M8.871E-06 841L595.32 841L595.32 841L595.32 -0.9199829L595.32 -0.9199829L8.871E-06 -0.9199829z" /></clipPath><clipPath id="148"><path id="" clip-rule="evenodd" d="M8.871E-06 841L595.32 841L595.32 841L595.32 -0.9199829L595.32 -0.9199829L8.871E-06 -0.9199829z" /></clipPath><clipPath id="149"><path id="" clip-rule="evenodd" d="M8.871E-06 841L595.32 841L595.32 841L595.32 -0.9199829L595.32 -0.9199829L8.871E-06 -0.9199829z" /></clipPath><clipPath id="150"><path id="" clip-rule="evenodd" d="M8.871E-06 841L595.32 841L595.32 841L595.32 -0.9199829L595.32 -0.9199829L8.871E-06 -0.9199829z" /></clipPath><clipPath id="151"><path id="" clip-rule="evenodd" d="M8.871E-06 841L595.32 841L595.32 841L595.32 -0.9199829L595.32 -0.9199829L8.871E-06 -0.9199829z" /></clipPath><clipPath id="152"><path id="" clip-rule="evenodd" d="M8.871E-06 841L595.32 841L595.32 841L595.32 -0.9199829L595.32 -0.9199829L8.871E-06 -0.9199829z" /></clipPath><clipPath id="153"><path id="" clip-rule="evenodd" d="M8.871E-06 841L595.32 841L595.32 841L595.32 -0.9199829L595.32 -0.9199829L8.871E-06 -0.9199829z" /></clipPath><clipPath id="154"><path id="" clip-rule="evenodd" d="M8.871E-06 841L595.32 841L595.32 841L595.32 -0.9199829L595.32 -0.9199829L8.871E-06 -0.9199829z" /></clipPath><clipPath id="155"><path id="" clip-rule="evenodd" d="M8.871E-06 841L595.32 841L595.32 841L595.32 -0.9199829L595.32 -0.9199829L8.871E-06 -0.9199829z" /></clipPath><clipPath id="156"><path id="" clip-rule="evenodd" d="M8.871E-06 841L595.32 841L595.32 841L595.32 -0.9199829L595.32 -0.9199829L8.871E-06 -0.9199829z" /></clipPath><clipPath id="157"><path id="" clip-rule="evenodd" d="M8.871E-06 841L595.32 841L595.32 841L595.32 -0.9199829L595.32 -0.9199829L8.871E-06 -0.9199829z" /></clipPath><clipPath id="158"><path id="" clip-rule="evenodd" d="M8.871E-06 841L595.32 841L595.32 841L595.32 -0.9199829L595.32 -0.9199829L8.871E-06 -0.9199829z" /></clipPath><clipPath id="159"><path id="" clip-rule="evenodd" d="M8.871E-06 841L595.32 841L595.32 841L595.32 -0.9199829L595.32 -0.9199829L8.871E-06 -0.9199829z" /></clipPath><clipPath id="160"><path id="" clip-rule="evenodd" d="M8.871E-06 841L595.32 841L595.32 841L595.32 -0.9199829L595.32 -0.9199829L8.871E-06 -0.9199829z" /></clipPath><clipPath id="161"><path id="" clip-rule="evenodd" d="M8.871E-06 841L595.32 841L595.32 841L595.32 -0.9199829L595.32 -0.9199829L8.871E-06 -0.9199829z" /></clipPath><clipPath id="162"><path id="" clip-rule="evenodd" d="M8.871E-06 841L595.32 841L595.32 841L595.32 -0.9199829L595.32 -0.9199829L8.871E-06 -0.9199829z" /></clipPath><clipPath id="163"><path id="" clip-rule="evenodd" d="M8.871E-06 841L595.32 841L595.32 841L595.32 -0.9199829L595.32 -0.9199829L8.871E-06 -0.9199829z" /></clipPath><clipPath id="164"><path id="" clip-rule="evenodd" d="M8.871E-06 841L595.32 841L595.32 841L595.32 -0.9199829L595.32 -0.9199829L8.871E-06 -0.9199829z" /></clipPath><clipPath id="165"><path id="" clip-rule="evenodd" d="M8.871E-06 841L595.32 841L595.32 841L595.32 -0.9199829L595.32 -0.9199829L8.871E-06 -0.9199829z" /></clipPath><clipPath id="166"><path id="" clip-rule="evenodd" d="M8.871E-06 841L595.32 841L595.32 841L595.32 -0.9199829L595.32 -0.9199829L8.871E-06 -0.9199829z" /></clipPath><clipPath id="167"><path id="" clip-rule="evenodd" d="M8.871E-06 841L595.32 841L595.32 841L595.32 -0.9199829L595.32 -0.9199829L8.871E-06 -0.9199829z" /></clipPath><clipPath id="168"><path id="" clip-rule="evenodd" d="M8.871E-06 841L595.32 841L595.32 841L595.32 -0.9199829L595.32 -0.9199829L8.871E-06 -0.9199829z" /></clipPath><clipPath id="169"><path id="" clip-rule="evenodd" d="M8.871E-06 841L595.32 841L595.32 841L595.32 -0.9199829L595.32 -0.9199829L8.871E-06 -0.9199829z" /></clipPath><clipPath id="170"><path id="" clip-rule="evenodd" d="M8.871E-06 841L595.32 841L595.32 841L595.32 -0.9199829L595.32 -0.9199829L8.871E-06 -0.9199829z" /></clipPath><clipPath id="171"><path id="" clip-rule="evenodd" d="M8.871E-06 841L595.32 841L595.32 841L595.32 -0.9199829L595.32 -0.9199829L8.871E-06 -0.9199829z" /></clipPath><clipPath id="172"><path id="" clip-rule="evenodd" d="M8.871E-06 841L595.32 841L595.32 841L595.32 -0.9199829L595.32 -0.9199829L8.871E-06 -0.9199829z" /></clipPath><clipPath id="173"><path id="" clip-rule="evenodd" d="M8.871E-06 841L595.32 841L595.32 841L595.32 -0.9199829L595.32 -0.9199829L8.871E-06 -0.9199829z" /></clipPath><clipPath id="174"><path id="" clip-rule="evenodd" d="M8.871E-06 841L595.32 841L595.32 841L595.32 -0.9199829L595.32 -0.9199829L8.871E-06 -0.9199829z" /></clipPath><clipPath id="175"><path id="" clip-rule="evenodd" d="M8.871E-06 841L595.32 841L595.32 841L595.32 -0.9199829L595.32 -0.9199829L8.871E-06 -0.9199829z" /></clipPath><clipPath id="176"><path id="" clip-rule="evenodd" d="M8.871E-06 841L595.32 841L595.32 841L595.32 -0.9199829L595.32 -0.9199829L8.871E-06 -0.9199829z" /></clipPath><clipPath id="177"><path id="" clip-rule="evenodd" d="M8.871E-06 841L595.32 841L595.32 841L595.32 -0.9199829L595.32 -0.9199829L8.871E-06 -0.9199829z" /></clipPath><clipPath id="178"><path id="" clip-rule="evenodd" d="M8.871E-06 841L595.32 841L595.32 841L595.32 -0.9199829L595.32 -0.9199829L8.871E-06 -0.9199829z" /></clipPath><clipPath id="179"><path id="" clip-rule="evenodd" d="M8.871E-06 841L595.32 841L595.32 841L595.32 -0.9199829L595.32 -0.9199829L8.871E-06 -0.9199829z" /></clipPath><clipPath id="180"><path id="" clip-rule="evenodd" d="M8.871E-06 841L595.32 841L595.32 841L595.32 -0.9199829L595.32 -0.9199829L8.871E-06 -0.9199829z" /></clipPath><clipPath id="181"><path id="" clip-rule="evenodd" d="M8.871E-06 841L595.32 841L595.32 841L595.32 -0.9199829L595.32 -0.9199829L8.871E-06 -0.9199829z" /></clipPath><clipPath id="182"><path id="" clip-rule="evenodd" d="M8.871E-06 841L595.32 841L595.32 841L595.32 -0.9199829L595.32 -0.9199829L8.871E-06 -0.9199829z" /></clipPath><clipPath id="183"><path id="" clip-rule="evenodd" d="M8.871E-06 841L595.32 841L595.32 841L595.32 -0.9199829L595.32 -0.9199829L8.871E-06 -0.9199829z" /></clipPath><clipPath id="184"><path id="" clip-rule="evenodd" d="M8.871E-06 841L595.32 841L595.32 841L595.32 -0.9199829L595.32 -0.9199829L8.871E-06 -0.9199829z" /></clipPath><clipPath id="185"><path id="" clip-rule="evenodd" d="M8.871E-06 841L595.32 841L595.32 841L595.32 -0.9199829L595.32 -0.9199829L8.871E-06 -0.9199829z" /></clipPath><clipPath id="186"><path id="" clip-rule="evenodd" d="M8.871E-06 841L595.32 841L595.32 841L595.32 -0.9199829L595.32 -0.9199829L8.871E-06 -0.9199829z" /></clipPath><clipPath id="187"><path id="" clip-rule="evenodd" d="M8.871E-06 841L595.32 841L595.32 841L595.32 -0.9199829L595.32 -0.9199829L8.871E-06 -0.9199829z" /></clipPath><clipPath id="188"><path id="" clip-rule="evenodd" d="M8.871E-06 841L595.32 841L595.32 841L595.32 -0.9199829L595.32 -0.9199829L8.871E-06 -0.9199829z" /></clipPath><clipPath id="189"><path id="" clip-rule="evenodd" d="M8.871E-06 841L595.32 841L595.32 841L595.32 -0.9199829L595.32 -0.9199829L8.871E-06 -0.9199829z" /></clipPath><clipPath id="190"><path id="" clip-rule="evenodd" d="M8.871E-06 841L595.32 841L595.32 841L595.32 -0.9199829L595.32 -0.9199829L8.871E-06 -0.9199829z" /></clipPath><clipPath id="191"><path id="" clip-rule="evenodd" d="M8.871E-06 841L595.32 841L595.32 841L595.32 -0.9199829L595.32 -0.9199829L8.871E-06 -0.9199829z" /></clipPath><clipPath id="192"><path id="" clip-rule="evenodd" d="M8.871E-06 841L595.32 841L595.32 841L595.32 -0.9199829L595.32 -0.9199829L8.871E-06 -0.9199829z" /></clipPath><clipPath id="193"><path id="" clip-rule="evenodd" d="M8.871E-06 841L595.32 841L595.32 841L595.32 -0.9199829L595.32 -0.9199829L8.871E-06 -0.9199829z" /></clipPath><clipPath id="194"><path id="" clip-rule="evenodd" d="M8.871E-06 841L595.32 841L595.32 841L595.32 -0.9199829L595.32 -0.9199829L8.871E-06 -0.9199829z" /></clipPath><clipPath id="195"><path id="" clip-rule="evenodd" d="M8.871E-06 841L595.32 841L595.32 841L595.32 -0.9199829L595.32 -0.9199829L8.871E-06 -0.9199829z" /></clipPath><clipPath id="196"><path id="" clip-rule="evenodd" d="M8.871E-06 841L595.32 841L595.32 841L595.32 -0.9199829L595.32 -0.9199829L8.871E-06 -0.9199829z" /></clipPath><clipPath id="197"><path id="" clip-rule="evenodd" d="M8.871E-06 841L595.32 841L595.32 841L595.32 -0.9199829L595.32 -0.9199829L8.871E-06 -0.9199829z" /></clipPath><clipPath id="198"><path id="" clip-rule="evenodd" d="M8.871E-06 841L595.32 841L595.32 841L595.32 -0.9199829L595.32 -0.9199829L8.871E-06 -0.9199829z" /></clipPath><clipPath id="199"><path id="" clip-rule="evenodd" d="M8.871E-06 841L595.32 841L595.32 841L595.32 -0.9199829L595.32 -0.9199829L8.871E-06 -0.9199829z" /></clipPath><clipPath id="200"><path id="" clip-rule="evenodd" d="M8.871E-06 841L595.32 841L595.32 841L595.32 -0.9199829L595.32 -0.9199829L8.871E-06 -0.9199829z" /></clipPath><clipPath id="201"><path id="" clip-rule="evenodd" d="M8.871E-06 841L595.32 841L595.32 841L595.32 -0.9199829L595.32 -0.9199829L8.871E-06 -0.9199829z" /></clipPath><clipPath id="202"><path id="" clip-rule="evenodd" d="M8.871E-06 841L595.32 841L595.32 841L595.32 -0.9199829L595.32 -0.9199829L8.871E-06 -0.9199829z" /></clipPath><clipPath id="203"><path id="" clip-rule="evenodd" d="M8.871E-06 841L595.32 841L595.32 841L595.32 -0.9199829L595.32 -0.9199829L8.871E-06 -0.9199829z" /></clipPath><clipPath id="204"><path id="" clip-rule="evenodd" d="M8.871E-06 841L595.32 841L595.32 841L595.32 -0.9199829L595.32 -0.9199829L8.871E-06 -0.9199829z" /></clipPath><clipPath id="205"><path id="" clip-rule="evenodd" d="M8.871E-06 841L595.32 841L595.32 841L595.32 -0.9199829L595.32 -0.9199829L8.871E-06 -0.9199829z" /></clipPath><clipPath id="206"><path id="" clip-rule="evenodd" d="M8.871E-06 841L595.32 841L595.32 841L595.32 -0.9199829L595.32 -0.9199829L8.871E-06 -0.9199829z" /></clipPath><clipPath id="207"><path id="" clip-rule="evenodd" d="M8.871E-06 841L595.32 841L595.32 841L595.32 -0.9199829L595.32 -0.9199829L8.871E-06 -0.9199829z" /></clipPath><clipPath id="208"><path id="" clip-rule="evenodd" d="M8.871E-06 841L595.32 841L595.32 841L595.32 -0.9199829L595.32 -0.9199829L8.871E-06 -0.9199829z" /></clipPath><clipPath id="209"><path id="" clip-rule="evenodd" d="M8.871E-06 841L595.32 841L595.32 841L595.32 -0.9199829L595.32 -0.9199829L8.871E-06 -0.9199829z" /></clipPath><clipPath id="210"><path id="" clip-rule="evenodd" d="M8.871E-06 841L595.32 841L595.32 841L595.32 -0.9199829L595.32 -0.9199829L8.871E-06 -0.9199829z" /></clipPath><clipPath id="211"><path id="" clip-rule="evenodd" d="M8.871E-06 841L595.32 841L595.32 841L595.32 -0.9199829L595.32 -0.9199829L8.871E-06 -0.9199829z" /></clipPath><clipPath id="212"><path id="" clip-rule="evenodd" d="M8.871E-06 841L595.32 841L595.32 841L595.32 -0.9199829L595.32 -0.9199829L8.871E-06 -0.9199829z" /></clipPath><clipPath id="213"><path id="" clip-rule="evenodd" d="M8.871E-06 841L595.32 841L595.32 841L595.32 -0.9199829L595.32 -0.9199829L8.871E-06 -0.9199829z" /></clipPath><clipPath id="214"><path id="" clip-rule="evenodd" d="M8.871E-06 841L595.32 841L595.32 841L595.32 -0.9199829L595.32 -0.9199829L8.871E-06 -0.9199829z" /></clipPath><clipPath id="215"><path id="" clip-rule="evenodd" d="M8.871E-06 841L595.32 841L595.32 841L595.32 -0.9199829L595.32 -0.9199829L8.871E-06 -0.9199829z" /></clipPath><clipPath id="216"><path id="" clip-rule="evenodd" d="M8.871E-06 841L595.32 841L595.32 841L595.32 -0.9199829L595.32 -0.9199829L8.871E-06 -0.9199829z" /></clipPath><clipPath id="217"><path id="" clip-rule="evenodd" d="M8.871E-06 841L595.32 841L595.32 841L595.32 -0.9199829L595.32 -0.9199829L8.871E-06 -0.9199829z" /></clipPath><clipPath id="218"><path id="" clip-rule="evenodd" d="M8.871E-06 841L595.32 841L595.32 841L595.32 -0.9199829L595.32 -0.9199829L8.871E-06 -0.9199829z" /></clipPath><clipPath id="219"><path id="" clip-rule="evenodd" d="M8.871E-06 841L595.32 841L595.32 841L595.32 -0.9199829L595.32 -0.9199829L8.871E-06 -0.9199829z" /></clipPath><clipPath id="220"><path id="" clip-rule="evenodd" d="M8.871E-06 841L595.32 841L595.32 841L595.32 -0.9199829L595.32 -0.9199829L8.871E-06 -0.9199829z" /></clipPath><clipPath id="221"><path id="" clip-rule="evenodd" d="M8.871E-06 841L595.32 841L595.32 841L595.32 -0.9199829L595.32 -0.9199829L8.871E-06 -0.9199829z" /></clipPath><clipPath id="222"><path id="" clip-rule="evenodd" d="M8.871E-06 841L595.32 841L595.32 841L595.32 -0.9199829L595.32 -0.9199829L8.871E-06 -0.9199829z" /></clipPath><clipPath id="223"><path id="" clip-rule="evenodd" d="M8.871E-06 841L595.32 841L595.32 841L595.32 -0.9199829L595.32 -0.9199829L8.871E-06 -0.9199829z" /></clipPath><clipPath id="224"><path id="" clip-rule="evenodd" d="M8.871E-06 841L595.32 841L595.32 841L595.32 -0.9199829L595.32 -0.9199829L8.871E-06 -0.9199829z" /></clipPath><clipPath id="225"><path id="" clip-rule="evenodd" d="M8.871E-06 841L595.32 841L595.32 841L595.32 -0.9199829L595.32 -0.9199829L8.871E-06 -0.9199829z" /></clipPath><clipPath id="226"><path id="" clip-rule="evenodd" d="M8.871E-06 841L595.32 841L595.32 841L595.32 -0.9199829L595.32 -0.9199829L8.871E-06 -0.9199829z" /></clipPath><clipPath id="227"><path id="" clip-rule="evenodd" d="M8.871E-06 841L595.32 841L595.32 841L595.32 -0.9199829L595.32 -0.9199829L8.871E-06 -0.9199829z" /></clipPath><clipPath id="228"><path id="" clip-rule="evenodd" d="M8.871E-06 841L595.32 841L595.32 841L595.32 -0.9199829L595.32 -0.9199829L8.871E-06 -0.9199829z" /></clipPath><clipPath id="229"><path id="" clip-rule="evenodd" d="M8.871E-06 841L595.32 841L595.32 841L595.32 -0.9199829L595.32 -0.9199829L8.871E-06 -0.9199829z" /></clipPath><clipPath id="230"><path id="" clip-rule="evenodd" d="M8.871E-06 841L595.32 841L595.32 841L595.32 -0.9199829L595.32 -0.9199829L8.871E-06 -0.9199829z" /></clipPath><clipPath id="231"><path id="" clip-rule="evenodd" d="M8.871E-06 841L595.32 841L595.32 841L595.32 -0.9199829L595.32 -0.9199829L8.871E-06 -0.9199829z" /></clipPath><clipPath id="232"><path id="" clip-rule="evenodd" d="M8.871E-06 841L595.32 841L595.32 841L595.32 -0.9199829L595.32 -0.9199829L8.871E-06 -0.9199829z" /></clipPath><clipPath id="233"><path id="" clip-rule="evenodd" d="M8.871E-06 841L595.32 841L595.32 841L595.32 -0.9199829L595.32 -0.9199829L8.871E-06 -0.9199829z" /></clipPath><clipPath id="234"><path id="" clip-rule="evenodd" d="M8.871E-06 841L595.32 841L595.32 841L595.32 -0.9199829L595.32 -0.9199829L8.871E-06 -0.9199829z" /></clipPath><clipPath id="235"><path id="" clip-rule="evenodd" d="M8.871E-06 841L595.32 841L595.32 841L595.32 -0.9199829L595.32 -0.9199829L8.871E-06 -0.9199829z" /></clipPath><clipPath id="236"><path id="" clip-rule="evenodd" d="M8.871E-06 841L595.32 841L595.32 841L595.32 -0.9199829L595.32 -0.9199829L8.871E-06 -0.9199829z" /></clipPath><clipPath id="237"><path id="" clip-rule="evenodd" d="M8.871E-06 841L595.32 841L595.32 841L595.32 -0.9199829L595.32 -0.9199829L8.871E-06 -0.9199829z" /></clipPath><clipPath id="238"><path id="" clip-rule="evenodd" d="M8.871E-06 841L595.32 841L595.32 841L595.32 -0.9199829L595.32 -0.9199829L8.871E-06 -0.9199829z" /></clipPath><clipPath id="239"><path id="" clip-rule="evenodd" d="M8.871E-06 841L595.32 841L595.32 841L595.32 -0.9199829L595.32 -0.9199829L8.871E-06 -0.9199829z" /></clipPath><clipPath id="240"><path id="" clip-rule="evenodd" d="M8.871E-06 841L595.32 841L595.32 841L595.32 -0.9199829L595.32 -0.9199829L8.871E-06 -0.9199829z" /></clipPath><clipPath id="241"><path id="" clip-rule="evenodd" d="M8.871E-06 841L595.32 841L595.32 841L595.32 -0.9199829L595.32 -0.9199829L8.871E-06 -0.9199829z" /></clipPath><clipPath id="242"><path id="" clip-rule="evenodd" d="M8.871E-06 841L595.32 841L595.32 841L595.32 -0.9199829L595.32 -0.9199829L8.871E-06 -0.9199829z" /></clipPath><clipPath id="243"><path id="" clip-rule="evenodd" d="M8.871E-06 841L595.32 841L595.32 841L595.32 -0.9199829L595.32 -0.9199829L8.871E-06 -0.9199829z" /></clipPath><clipPath id="244"><path id="" clip-rule="evenodd" d="M8.871E-06 841L595.32 841L595.32 841L595.32 -0.9199829L595.32 -0.9199829L8.871E-06 -0.9199829z" /></clipPath><clipPath id="245"><path id="" clip-rule="evenodd" d="M8.871E-06 841L595.32 841L595.32 841L595.32 -0.9199829L595.32 -0.9199829L8.871E-06 -0.9199829z" /></clipPath><clipPath id="246"><path id="" clip-rule="evenodd" d="M8.871E-06 841L595.32 841L595.32 841L595.32 -0.9199829L595.32 -0.9199829L8.871E-06 -0.9199829z" /></clipPath><clipPath id="247"><path id="" clip-rule="evenodd" d="M8.871E-06 841L595.32 841L595.32 841L595.32 -0.9199829L595.32 -0.9199829L8.871E-06 -0.9199829z" /></clipPath><clipPath id="248"><path id="" clip-rule="evenodd" d="M8.871E-06 841L595.32 841L595.32 841L595.32 -0.9199829L595.32 -0.9199829L8.871E-06 -0.9199829z" /></clipPath><clipPath id="249"><path id="" clip-rule="evenodd" d="M8.871E-06 841L595.32 841L595.32 841L595.32 -0.9199829L595.32 -0.9199829L8.871E-06 -0.9199829z" /></clipPath><clipPath id="250"><path id="" clip-rule="evenodd" d="M8.871E-06 841L595.32 841L595.32 841L595.32 -0.9199829L595.32 -0.9199829L8.871E-06 -0.9199829z" /></clipPath><clipPath id="251"><path id="" clip-rule="evenodd" d="M8.871E-06 841L595.32 841L595.32 841L595.32 -0.9199829L595.32 -0.9199829L8.871E-06 -0.9199829z" /></clipPath><clipPath id="252"><path id="" clip-rule="evenodd" d="M8.871E-06 841L595.32 841L595.32 841L595.32 -0.9199829L595.32 -0.9199829L8.871E-06 -0.9199829z" /></clipPath><clipPath id="253"><path id="" clip-rule="evenodd" d="M8.871E-06 841L595.32 841L595.32 841L595.32 -0.9199829L595.32 -0.9199829L8.871E-06 -0.9199829z" /></clipPath><clipPath id="254"><path id="" clip-rule="evenodd" d="M8.871E-06 841L595.32 841L595.32 841L595.32 -0.9199829L595.32 -0.9199829L8.871E-06 -0.9199829z" /></clipPath><clipPath id="255"><path id="" clip-rule="evenodd" d="M8.871E-06 841L595.32 841L595.32 841L595.32 -0.9199829L595.32 -0.9199829L8.871E-06 -0.9199829z" /></clipPath><clipPath id="256"><path id="" clip-rule="evenodd" d="M8.871E-06 841L595.32 841L595.32 841L595.32 -0.9199829L595.32 -0.9199829L8.871E-06 -0.9199829z" /></clipPath><clipPath id="257"><path id="" clip-rule="evenodd" d="M8.871E-06 841L595.32 841L595.32 841L595.32 -0.9199829L595.32 -0.9199829L8.871E-06 -0.9199829z" /></clipPath><clipPath id="258"><path id="" clip-rule="evenodd" d="M8.871E-06 841L595.32 841L595.32 841L595.32 -0.9199829L595.32 -0.9199829L8.871E-06 -0.9199829z" /></clipPath><clipPath id="259"><path id="" clip-rule="evenodd" d="M8.871E-06 841L595.32 841L595.32 841L595.32 -0.9199829L595.32 -0.9199829L8.871E-06 -0.9199829z" /></clipPath><clipPath id="260"><path id="" clip-rule="evenodd" d="M8.871E-06 841L595.32 841L595.32 841L595.32 -0.9199829L595.32 -0.9199829L8.871E-06 -0.9199829z" /></clipPath><clipPath id="261"><path id="" clip-rule="evenodd" d="M8.871E-06 841L595.32 841L595.32 841L595.32 -0.9199829L595.32 -0.9199829L8.871E-06 -0.9199829z" /></clipPath><clipPath id="262"><path id="" clip-rule="evenodd" d="M8.871E-06 841L595.32 841L595.32 841L595.32 -0.9199829L595.32 -0.9199829L8.871E-06 -0.9199829z" /></clipPath><clipPath id="263"><path id="" clip-rule="evenodd" d="M8.871E-06 841L595.32 841L595.32 841L595.32 -0.9199829L595.32 -0.9199829L8.871E-06 -0.9199829z" /></clipPath><clipPath id="264"><path id="" clip-rule="evenodd" d="M8.871E-06 841L595.32 841L595.32 841L595.32 -0.9199829L595.32 -0.9199829L8.871E-06 -0.9199829z" /></clipPath><clipPath id="265"><path id="" clip-rule="evenodd" d="M8.871E-06 841L595.32 841L595.32 841L595.32 -0.9199829L595.32 -0.9199829L8.871E-06 -0.9199829z" /></clipPath><clipPath id="266"><path id="" clip-rule="evenodd" d="M8.871E-06 841L595.32 841L595.32 841L595.32 -0.9199829L595.32 -0.9199829L8.871E-06 -0.9199829z" /></clipPath><clipPath id="267"><path id="" clip-rule="evenodd" d="M8.871E-06 841L595.32 841L595.32 841L595.32 -0.9199829L595.32 -0.9199829L8.871E-06 -0.9199829z" /></clipPath><clipPath id="268"><path id="" clip-rule="evenodd" d="M8.871E-06 841L595.32 841L595.32 841L595.32 -0.9199829L595.32 -0.9199829L8.871E-06 -0.9199829z" /></clipPath><clipPath id="269"><path id="" clip-rule="evenodd" d="M8.871E-06 841L595.32 841L595.32 841L595.32 -0.9199829L595.32 -0.9199829L8.871E-06 -0.9199829z" /></clipPath><clipPath id="270"><path id="" clip-rule="evenodd" d="M8.871E-06 841L595.32 841L595.32 841L595.32 -0.9199829L595.32 -0.9199829L8.871E-06 -0.9199829z" /></clipPath><clipPath id="271"><path id="" clip-rule="evenodd" d="M8.871E-06 841L595.32 841L595.32 841L595.32 -0.9199829L595.32 -0.9199829L8.871E-06 -0.9199829z" /></clipPath><clipPath id="272"><path id="" clip-rule="evenodd" d="M8.871E-06 841L595.32 841L595.32 841L595.32 -0.9199829L595.32 -0.9199829L8.871E-06 -0.9199829z" /></clipPath><clipPath id="273"><path id="" clip-rule="evenodd" d="M8.871E-06 841L595.32 841L595.32 841L595.32 -0.9199829L595.32 -0.9199829L8.871E-06 -0.9199829z" /></clipPath><clipPath id="274"><path id="" clip-rule="evenodd" d="M8.871E-06 841L595.32 841L595.32 841L595.32 -0.9199829L595.32 -0.9199829L8.871E-06 -0.9199829z" /></clipPath><clipPath id="275"><path id="" clip-rule="evenodd" d="M8.871E-06 841L595.32 841L595.32 841L595.32 -0.9199829L595.32 -0.9199829L8.871E-06 -0.9199829z" /></clipPath><clipPath id="276"><path id="" clip-rule="evenodd" d="M8.871E-06 841L595.32 841L595.32 841L595.32 -0.9199829L595.32 -0.9199829L8.871E-06 -0.9199829z" /></clipPath><clipPath id="277"><path id="" clip-rule="evenodd" d="M8.871E-06 841L595.32 841L595.32 841L595.32 -0.9199829L595.32 -0.9199829L8.871E-06 -0.9199829z" /></clipPath><clipPath id="278"><path id="" clip-rule="evenodd" d="M8.871E-06 841L595.32 841L595.32 841L595.32 -0.9199829L595.32 -0.9199829L8.871E-06 -0.9199829z" /></clipPath><clipPath id="279"><path id="" clip-rule="evenodd" d="M8.871E-06 841L595.32 841L595.32 841L595.32 -0.9199829L595.32 -0.9199829L8.871E-06 -0.9199829z" /></clipPath><clipPath id="280"><path id="" clip-rule="evenodd" d="M8.871E-06 841L595.32 841L595.32 841L595.32 -0.9199829L595.32 -0.9199829L8.871E-06 -0.9199829z" /></clipPath><clipPath id="281"><path id="" clip-rule="evenodd" d="M8.871E-06 841L595.32 841L595.32 841L595.32 -0.9199829L595.32 -0.9199829L8.871E-06 -0.9199829z" /></clipPath><clipPath id="282"><path id="" clip-rule="evenodd" d="M8.871E-06 841L595.32 841L595.32 841L595.32 -0.9199829L595.32 -0.9199829L8.871E-06 -0.9199829z" /></clipPath><clipPath id="283"><path id="" clip-rule="evenodd" d="M8.871E-06 841L595.32 841L595.32 841L595.32 -0.9199829L595.32 -0.9199829L8.871E-06 -0.9199829z" /></clipPath><clipPath id="284"><path id="" clip-rule="evenodd" d="M61.704 765.856L82.944 765.856L82.944 765.856L82.944 750.256L82.944 750.256L61.704 750.256z" /></clipPath><clipPath id="285"><path id="" clip-rule="evenodd" d="M61.704 765.856L82.944 765.856L82.944 765.856L82.944 750.256L82.944 750.256L61.704 750.256z" /></clipPath><clipPath id="286"><path id="" clip-rule="evenodd" d="M82.944 765.856L168.048 765.856L168.048 765.856L168.048 750.256L168.048 750.256L82.944 750.256z" /></clipPath><clipPath id="287"><path id="" clip-rule="evenodd" d="M82.944 765.856L168.048 765.856L168.048 765.856L168.048 750.256L168.048 750.256L82.944 750.256z" /></clipPath><clipPath id="288"><path id="" clip-rule="evenodd" d="M82.944 765.856L168.048 765.856L168.048 765.856L168.048 750.256L168.048 750.256L82.944 750.256z" /></clipPath><clipPath id="289"><path id="" clip-rule="evenodd" d="M82.944 765.856L168.048 765.856L168.048 765.856L168.048 750.256L168.048 750.256L82.944 750.256z" /></clipPath><clipPath id="290"><path id="" clip-rule="evenodd" d="M168.05 765.856L217.61 765.856L217.61 765.856L217.61 750.256L217.61 750.256L168.05 750.256z" /></clipPath><clipPath id="291"><path id="" clip-rule="evenodd" d="M168.05 765.856L217.61 765.856L217.61 765.856L217.61 750.256L217.61 750.256L168.05 750.256z" /></clipPath><clipPath id="292"><path id="" clip-rule="evenodd" d="M168.05 765.856L217.61 765.856L217.61 765.856L217.61 750.256L217.61 750.256L168.05 750.256z" /></clipPath><clipPath id="293"><path id="" clip-rule="evenodd" d="M168.05 765.856L217.61 765.856L217.61 765.856L217.61 750.256L217.61 750.256L168.05 750.256z" /></clipPath><clipPath id="294"><path id="" clip-rule="evenodd" d="M217.61 765.856L251.81 765.856L251.81 765.856L251.81 750.256L251.81 750.256L217.61 750.256z" /></clipPath><clipPath id="295"><path id="" clip-rule="evenodd" d="M217.61 765.856L251.81 765.856L251.81 765.856L251.81 750.256L251.81 750.256L217.61 750.256z" /></clipPath><clipPath id="296"><path id="" clip-rule="evenodd" d="M217.61 765.856L251.81 765.856L251.81 765.856L251.81 750.256L251.81 750.256L217.61 750.256z" /></clipPath><clipPath id="297"><path id="" clip-rule="evenodd" d="M217.61 765.856L251.81 765.856L251.81 765.856L251.81 750.256L251.81 750.256L217.61 750.256z" /></clipPath><clipPath id="298"><path id="" clip-rule="evenodd" d="M251.81 765.856L286.634 765.856L286.634 765.856L286.634 750.256L286.634 750.256L251.81 750.256z" /></clipPath><clipPath id="299"><path id="" clip-rule="evenodd" d="M251.81 765.856L286.634 765.856L286.634 765.856L286.634 750.256L286.634 750.256L251.81 750.256z" /></clipPath><clipPath id="300"><path id="" clip-rule="evenodd" d="M251.81 765.856L286.634 765.856L286.634 765.856L286.634 750.256L286.634 750.256L251.81 750.256z" /></clipPath><clipPath id="301"><path id="" clip-rule="evenodd" d="M251.81 765.856L286.634 765.856L286.634 765.856L286.634 750.256L286.634 750.256L251.81 750.256z" /></clipPath><clipPath id="302"><path id="" clip-rule="evenodd" d="M286.63 765.856L331.03 765.856L331.03 765.856L331.03 750.256L331.03 750.256L286.63 750.256z" /></clipPath><clipPath id="303"><path id="" clip-rule="evenodd" d="M286.63 765.856L331.03 765.856L331.03 765.856L331.03 750.256L331.03 750.256L286.63 750.256z" /></clipPath><clipPath id="304"><path id="" clip-rule="evenodd" d="M286.63 765.856L331.03 765.856L331.03 765.856L331.03 750.256L331.03 750.256L286.63 750.256z" /></clipPath><clipPath id="305"><path id="" clip-rule="evenodd" d="M286.63 765.856L331.03 765.856L331.03 765.856L331.03 750.256L331.03 750.256L286.63 750.256z" /></clipPath><clipPath id="306"><path id="" clip-rule="evenodd" d="M331.03 765.856L365.95 765.856L365.95 765.856L365.95 750.256L365.95 750.256L331.03 750.256z" /></clipPath><clipPath id="307"><path id="" clip-rule="evenodd" d="M331.03 765.856L365.95 765.856L365.95 765.856L365.95 750.256L365.95 750.256L331.03 750.256z" /></clipPath><clipPath id="308"><path id="" clip-rule="evenodd" d="M331.03 765.856L365.95 765.856L365.95 765.856L365.95 750.256L365.95 750.256L331.03 750.256z" /></clipPath><clipPath id="309"><path id="" clip-rule="evenodd" d="M331.03 765.856L365.95 765.856L365.95 765.856L365.95 750.256L365.95 750.256L331.03 750.256z" /></clipPath><clipPath id="310"><path id="" clip-rule="evenodd" d="M365.95 765.856L400.774 765.856L400.774 765.856L400.774 750.256L400.774 750.256L365.95 750.256z" /></clipPath><clipPath id="311"><path id="" clip-rule="evenodd" d="M365.95 765.856L400.774 765.856L400.774 765.856L400.774 750.256L400.774 750.256L365.95 750.256z" /></clipPath><clipPath id="312"><path id="" clip-rule="evenodd" d="M365.95 765.856L400.774 765.856L400.774 765.856L400.774 750.256L400.774 750.256L365.95 750.256z" /></clipPath><clipPath id="313"><path id="" clip-rule="evenodd" d="M365.95 765.856L400.774 765.856L400.774 765.856L400.774 750.256L400.774 750.256L365.95 750.256z" /></clipPath><clipPath id="314"><path id="" clip-rule="evenodd" d="M400.78 765.856L435.7 765.856L435.7 765.856L435.7 750.256L435.7 750.256L400.78 750.256z" /></clipPath><clipPath id="315"><path id="" clip-rule="evenodd" d="M400.78 765.856L435.7 765.856L435.7 765.856L435.7 750.256L435.7 750.256L400.78 750.256z" /></clipPath><clipPath id="316"><path id="" clip-rule="evenodd" d="M400.78 765.856L435.7 765.856L435.7 765.856L435.7 750.256L435.7 750.256L400.78 750.256z" /></clipPath><clipPath id="317"><path id="" clip-rule="evenodd" d="M400.78 765.856L435.7 765.856L435.7 765.856L435.7 750.256L435.7 750.256L400.78 750.256z" /></clipPath><clipPath id="318"><path id="" clip-rule="evenodd" d="M435.7 765.856L470.5 765.856L470.5 765.856L470.5 750.256L470.5 750.256L435.7 750.256z" /></clipPath><clipPath id="319"><path id="" clip-rule="evenodd" d="M435.7 765.856L470.5 765.856L470.5 765.856L470.5 750.256L470.5 750.256L435.7 750.256z" /></clipPath><clipPath id="320"><path id="" clip-rule="evenodd" d="M435.7 765.856L470.5 765.856L470.5 765.856L470.5 750.256L470.5 750.256L435.7 750.256z" /></clipPath><clipPath id="321"><path id="" clip-rule="evenodd" d="M435.7 765.856L470.5 765.856L470.5 765.856L470.5 750.256L470.5 750.256L435.7 750.256z" /></clipPath><clipPath id="322"><path id="" clip-rule="evenodd" d="M435.7 765.856L470.5 765.856L470.5 765.856L470.5 750.256L470.5 750.256L435.7 750.256z" /></clipPath><clipPath id="323"><path id="" clip-rule="evenodd" d="M470.5 765.856L505.324 765.856L505.324 765.856L505.324 750.256L505.324 750.256L470.5 750.256z" /></clipPath><clipPath id="324"><path id="" clip-rule="evenodd" d="M470.5 765.856L505.324 765.856L505.324 765.856L505.324 750.256L505.324 750.256L470.5 750.256z" /></clipPath><clipPath id="325"><path id="" clip-rule="evenodd" d="M470.5 765.856L505.324 765.856L505.324 765.856L505.324 750.256L505.324 750.256L470.5 750.256z" /></clipPath><clipPath id="326"><path id="" clip-rule="evenodd" d="M470.5 765.856L505.324 765.856L505.324 765.856L505.324 750.256L505.324 750.256L470.5 750.256z" /></clipPath><clipPath id="327"><path id="" clip-rule="evenodd" d="M505.32 765.856L540.24 765.856L540.24 765.856L540.24 750.256L540.24 750.256L505.32 750.256z" /></clipPath><clipPath id="328"><path id="" clip-rule="evenodd" d="M505.32 765.856L540.24 765.856L540.24 765.856L540.24 750.256L540.24 750.256L505.32 750.256z" /></clipPath><clipPath id="329"><path id="" clip-rule="evenodd" d="M505.32 765.856L540.24 765.856L540.24 765.856L540.24 750.256L540.24 750.256L505.32 750.256z" /></clipPath><clipPath id="330"><path id="" clip-rule="evenodd" d="M505.32 765.856L540.24 765.856L540.24 765.856L540.24 750.256L540.24 750.256L505.32 750.256z" /></clipPath></defs><g transform="matrix(1.333333 0 0 1.333333 0 0)"><g clip-path="url(#1)"><g clip-path="url(#2)"><path id="1" transform="matrix(1 0 0 -1 0 841)" d="M0 -0.13L595.45 -0.13L595.45 -0.13L595.45 841.92L595.45 841.92L0 841.92z" stroke="none" fill="#F5F1DE" fill-rule="evenodd" /></g><g clip-path="url(#3)"></g><g clip-path="url(#4)"></g><path id="23" transform="matrix(1 0 0 -1 0 841)" d="M90 777.72L505.3 777.72L505.3 777.72L505.3 779.27L505.3 779.27L90 779.27z" stroke="none" fill="#808080" fill-rule="evenodd" /><path id="24" transform="matrix(1 0 0 -1 0 841)" d="M90.024 779.04L90.264 779.04L90.264 779.04L90.264 779.28L90.264 779.28L90.024 779.28z" stroke="none" fill="#808080" fill-rule="evenodd" /><path id="25" transform="matrix(1 0 0 -1 0 841)" d="M90.024 779.04L90.264 779.04L90.264 779.04L90.264 779.28L90.264 779.28L90.024 779.28z" stroke="none" fill="#808080" fill-rule="evenodd" /><path id="26" transform="matrix(1 0 0 -1 0 841)" d="M90.264 779.04L505.204 779.04L505.204 779.04L505.204 779.28L505.204 779.28L90.264 779.28z" stroke="none" fill="#808080" fill-rule="evenodd" /><path id="27" transform="matrix(1 0 0 -1 0 841)" d="M505.2 779.04L505.44 779.04L505.44 779.04L505.44 779.28L505.44 779.28L505.2 779.28z" stroke="none" fill="#D4D0C8" fill-rule="evenodd" /><path id="28" transform="matrix(1 0 0 -1 0 841)" d="M505.2 779.04L505.44 779.04L505.44 779.04L505.44 779.28L505.44 779.28L505.2 779.28z" stroke="none" fill="#808080" fill-rule="evenodd" /><path id="29" transform="matrix(1 0 0 -1 0 841)" d="M90.024 777.96L90.264 777.96L90.264 777.96L90.264 779.04L90.264 779.04L90.024 779.04z" stroke="none" fill="#808080" fill-rule="evenodd" /><path id="30" transform="matrix(1 0 0 -1 0 841)" d="M505.2 777.96L505.44 777.96L505.44 777.96L505.44 779.04L505.44 779.04L505.2 779.04z" stroke="none" fill="#D4D0C8" fill-rule="evenodd" /><path id="31" transform="matrix(1 0 0 -1 0 841)" d="M90.024 777.72L90.264 777.72L90.264 777.72L90.264 777.96L90.264 777.96L90.024 777.96z" stroke="none" fill="#808080" fill-rule="evenodd" /><path id="32" transform="matrix(1 0 0 -1 0 841)" d="M90.024 777.72L90.264 777.72L90.264 777.72L90.264 777.96L90.264 777.96L90.024 777.96z" stroke="none" fill="#D4D0C8" fill-rule="evenodd" /><path id="33" transform="matrix(1 0 0 -1 0 841)" d="M90.264 777.72L505.204 777.72L505.204 777.72L505.204 777.96L505.204 777.96L90.264 777.96z" stroke="none" fill="#D4D0C8" fill-rule="evenodd" /><path id="34" transform="matrix(1 0 0 -1 0 841)" d="M505.2 777.72L505.44 777.72L505.44 777.72L505.44 777.96L505.44 777.96L505.2 777.96z" stroke="none" fill="#D4D0C8" fill-rule="evenodd" /><path id="35" transform="matrix(1 0 0 -1 0 841)" d="M505.2 777.72L505.44 777.72L505.44 777.72L505.44 777.96L505.44 777.96L505.2 777.96z" stroke="none" fill="#D4D0C8" fill-rule="evenodd" /><g clip-path="url(#5)"></g><g clip-path="url(#6)"></g><g clip-path="url(#7)"></g><g clip-path="url(#8)"></g><g clip-path="url(#9)"></g><g clip-path="url(#10)"></g><g clip-path="url(#11)"></g><g clip-path="url(#12)"></g><g clip-path="url(#13)"></g><g clip-path="url(#14)"></g><g clip-path="url(#15)"></g><g clip-path="url(#16)"></g><g clip-path="url(#17)"></g><g clip-path="url(#18)"></g><g clip-path="url(#19)"></g><g clip-path="url(#20)"></g><g clip-path="url(#21)"></g><g clip-path="url(#22)"></g><g clip-path="url(#23)"></g><g clip-path="url(#24)"></g><g clip-path="url(#25)"></g><g clip-path="url(#26)"></g><g clip-path="url(#27)"></g><g clip-path="url(#28)"></g><g clip-path="url(#29)"></g><g clip-path="url(#30)"></g><g clip-path="url(#31)"></g><g clip-path="url(#32)"></g><g clip-path="url(#33)"></g><g clip-path="url(#34)"></g><g clip-path="url(#35)"></g><g clip-path="url(#36)"></g><g clip-path="url(#37)"></g><g clip-path="url(#38)"></g><g clip-path="url(#39)"></g><g clip-path="url(#40)"></g><g clip-path="url(#41)"></g><g clip-path="url(#42)"></g><g clip-path="url(#43)"></g><g clip-path="url(#44)"></g><g clip-path="url(#45)"></g><g clip-path="url(#46)"></g><g clip-path="url(#47)"></g><g clip-path="url(#48)"></g><g clip-path="url(#49)"></g><g clip-path="url(#50)"></g><g clip-path="url(#51)"></g><g clip-path="url(#52)"></g><g clip-path="url(#53)"></g><g clip-path="url(#54)"></g><g clip-path="url(#55)"></g><g clip-path="url(#56)"></g><g clip-path="url(#57)"></g><g clip-path="url(#58)"></g><g clip-path="url(#59)"></g><g clip-path="url(#60)"></g><g clip-path="url(#61)"></g><g clip-path="url(#62)"></g><g clip-path="url(#63)"></g><g clip-path="url(#64)"></g><g clip-path="url(#65)"></g><g clip-path="url(#66)"></g><g clip-path="url(#67)"></g><g clip-path="url(#68)"></g><g clip-path="url(#69)"></g><g clip-path="url(#70)"></g><g clip-path="url(#71)"></g><g clip-path="url(#72)"></g><g clip-path="url(#73)"></g><g clip-path="url(#74)"></g><g clip-path="url(#75)"></g><g clip-path="url(#76)"></g><g clip-path="url(#77)"></g><g clip-path="url(#78)"></g><g clip-path="url(#79)"></g><g clip-path="url(#80)"></g><g clip-path="url(#81)"></g><g clip-path="url(#82)"></g><g clip-path="url(#83)"></g><g clip-path="url(#84)"></g><g clip-path="url(#85)"></g><g clip-path="url(#86)"></g><g clip-path="url(#87)"></g><g clip-path="url(#88)"></g><g clip-path="url(#89)"></g><g clip-path="url(#90)"></g><g clip-path="url(#91)"></g><g clip-path="url(#92)"></g><g clip-path="url(#93)"></g><g clip-path="url(#94)"></g><g clip-path="url(#95)"></g><g clip-path="url(#96)"></g><g clip-path="url(#97)"></g><g clip-path="url(#98)"></g><g clip-path="url(#99)"></g><g clip-path="url(#100)"></g><g clip-path="url(#101)"></g><g clip-path="url(#102)"></g><g clip-path="url(#103)"></g><g clip-path="url(#104)"></g><g clip-path="url(#105)"></g><g clip-path="url(#106)"></g><g clip-path="url(#107)"></g><g clip-path="url(#108)"></g><g clip-path="url(#109)"></g><g clip-path="url(#110)"></g><g clip-path="url(#111)"></g><g clip-path="url(#112)"></g><g clip-path="url(#113)"></g><g clip-path="url(#114)"></g><g clip-path="url(#115)"></g><g clip-path="url(#116)"></g><g clip-path="url(#117)"></g><g clip-path="url(#118)"></g><g clip-path="url(#119)"></g><g clip-path="url(#120)"></g><g clip-path="url(#121)"></g><g clip-path="url(#122)"></g><g clip-path="url(#123)"></g><g clip-path="url(#124)"></g><g clip-path="url(#125)"></g><g clip-path="url(#126)"></g><g clip-path="url(#127)"></g><g clip-path="url(#128)"></g><g clip-path="url(#129)"></g><g clip-path="url(#130)"></g><g clip-path="url(#131)"></g><g clip-path="url(#132)"></g><g clip-path="url(#133)"></g><g clip-path="url(#134)"></g><g clip-path="url(#135)"></g><g clip-path="url(#136)"></g><g clip-path="url(#137)"></g><g clip-path="url(#138)"></g><g clip-path="url(#139)"></g><g clip-path="url(#140)"></g><g clip-path="url(#141)"></g><g clip-path="url(#142)"></g><g clip-path="url(#143)"></g><g clip-path="url(#144)"></g><g clip-path="url(#145)"></g><g clip-path="url(#146)"></g><g clip-path="url(#147)"></g><g clip-path="url(#148)"></g><g clip-path="url(#149)"></g><g clip-path="url(#150)"></g><g clip-path="url(#151)"></g><g clip-path="url(#152)"></g><g clip-path="url(#153)"></g><g clip-path="url(#154)"></g><g clip-path="url(#155)"></g><g clip-path="url(#156)"></g><g clip-path="url(#157)"></g><g clip-path="url(#158)"></g><g clip-path="url(#159)"></g><g clip-path="url(#160)"></g><g clip-path="url(#161)"></g><g clip-path="url(#162)"></g><g clip-path="url(#163)"></g><g clip-path="url(#164)"></g><g clip-path="url(#165)"></g><g clip-path="url(#166)"></g><g clip-path="url(#167)"></g><g clip-path="url(#168)"></g><g clip-path="url(#169)"></g><g clip-path="url(#170)"></g><g clip-path="url(#171)"></g><g clip-path="url(#172)"></g><g clip-path="url(#173)"></g><g clip-path="url(#174)"></g><g clip-path="url(#175)"></g><g clip-path="url(#176)"></g><g clip-path="url(#177)"></g><g clip-path="url(#178)"></g><g clip-path="url(#179)"></g><g clip-path="url(#180)"></g><g clip-path="url(#181)"></g><g clip-path="url(#182)"></g><g clip-path="url(#183)"></g><g clip-path="url(#184)"></g><g clip-path="url(#185)"></g><g clip-path="url(#186)"></g><g clip-path="url(#187)"></g><g clip-path="url(#188)"></g><g clip-path="url(#189)"></g><g clip-path="url(#190)"></g><g clip-path="url(#191)"></g><g clip-path="url(#192)"></g><g clip-path="url(#193)"></g><g clip-path="url(#194)"></g><g clip-path="url(#195)"></g><g clip-path="url(#196)"></g><g clip-path="url(#197)"></g><g clip-path="url(#198)"></g><g clip-path="url(#199)"></g><g clip-path="url(#200)"></g><g clip-path="url(#201)"></g><g clip-path="url(#202)"></g><g clip-path="url(#203)"></g><g clip-path="url(#204)"></g><g clip-path="url(#205)"></g><g clip-path="url(#206)"></g><g clip-path="url(#207)"></g><g clip-path="url(#208)"></g><g clip-path="url(#209)"></g><g clip-path="url(#210)"></g><g clip-path="url(#211)"></g><g clip-path="url(#212)"></g><g clip-path="url(#213)"></g><g clip-path="url(#214)"></g><g clip-path="url(#215)"></g><g clip-path="url(#216)"></g><g clip-path="url(#217)"></g><g clip-path="url(#218)"></g><g clip-path="url(#219)"></g><g clip-path="url(#220)"></g><g clip-path="url(#221)"></g><g clip-path="url(#222)"></g><g clip-path="url(#223)"></g><g clip-path="url(#224)"></g><g clip-path="url(#225)"></g><g clip-path="url(#226)"></g><g clip-path="url(#227)"></g><g clip-path="url(#228)"></g><g clip-path="url(#229)"></g><g clip-path="url(#230)"></g><g clip-path="url(#231)"></g><g clip-path="url(#232)"></g><g clip-path="url(#233)"></g><g clip-path="url(#234)"></g><g clip-path="url(#235)"></g><g clip-path="url(#236)"></g><g clip-path="url(#237)"></g><g clip-path="url(#238)"></g><g clip-path="url(#239)"></g><g clip-path="url(#240)"></g><g clip-path="url(#241)"></g><g clip-path="url(#242)"></g><g clip-path="url(#243)"></g><g clip-path="url(#244)"></g><g clip-path="url(#245)"></g><g clip-path="url(#246)"></g><g clip-path="url(#247)"></g><g clip-path="url(#248)"></g><g clip-path="url(#249)"></g><g clip-path="url(#250)"></g><g clip-path="url(#251)"></g><path id="2679" transform="matrix(1 0 0 -1 0 841)" d="M90.024 155.9L191.804 155.9L191.804 155.9L191.804 156.38L191.804 156.38L90.024 156.38z" stroke="none" fill="#0000FF" fill-rule="evenodd" /><g clip-path="url(#252)"></g><g clip-path="url(#253)"></g><g clip-path="url(#254)"></g><g clip-path="url(#255)"></g><g clip-path="url(#256)"></g><g clip-path="url(#257)"></g><g clip-path="url(#258)"></g><g clip-path="url(#259)"></g><g clip-path="url(#260)"></g><g clip-path="url(#261)"></g><g clip-path="url(#262)"></g><g clip-path="url(#263)"></g><g clip-path="url(#264)"></g><g clip-path="url(#265)"></g><g clip-path="url(#266)"></g><g clip-path="url(#267)"></g><g clip-path="url(#268)"></g><g clip-path="url(#269)"></g><g clip-path="url(#270)"></g><g clip-path="url(#271)"></g><g clip-path="url(#272)"></g><g clip-path="url(#273)"></g><g clip-path="url(#274)"></g><g clip-path="url(#275)"></g><g clip-path="url(#276)"></g><g clip-path="url(#277)"></g><g clip-path="url(#278)"></g><g clip-path="url(#279)"></g><g clip-path="url(#280)"></g><g clip-path="url(#281)"></g><g clip-path="url(#282)"></g><g clip-path="url(#283)"></g><path id="2962" transform="matrix(1 0 0 -1 0 841)" d="M61.704 75.144L82.944 75.144L82.944 75.144L82.944 90.744L82.944 90.744L61.704 90.744z" stroke="none" fill="#FFF2CC" fill-rule="evenodd" /><g clip-path="url(#284)"><path id="2963" transform="matrix(1 0 0 -1 0 841)" d="M67.104 75.144L77.544 75.144L77.544 75.144L77.544 90.744L77.544 90.744L67.104 90.744z" stroke="none" fill="#FFF2CC" fill-rule="evenodd" /><g clip-path="url(#285)"></g></g><path id="2964" transform="matrix(1 0 0 -1 0 841)" d="M82.944 75.144L168.048 75.144L168.048 75.144L168.048 90.744L168.048 90.744L82.944 90.744z" stroke="none" fill="#FFF2CC" fill-rule="evenodd" /><g clip-path="url(#286)"><path id="2965" transform="matrix(1 0 0 -1 0 841)" d="M88.344 75.144L162.624 75.144L162.624 75.144L162.624 90.744L162.624 90.744L88.344 90.744z" stroke="none" fill="#FFF2CC" fill-rule="evenodd" /><g clip-path="url(#287)"></g><g clip-path="url(#288)"></g><g clip-path="url(#289)"></g></g><path id="2972" transform="matrix(1 0 0 -1 0 841)" d="M168.05 75.144L217.61 75.144L217.61 75.144L217.61 90.744L217.61 90.744L168.05 90.744z" stroke="none" fill="#FFF2CC" fill-rule="evenodd" /><g clip-path="url(#290)"><path id="2973" transform="matrix(1 0 0 -1 0 841)" d="M173.45 75.144L212.21 75.144L212.21 75.144L212.21 90.744L212.21 90.744L173.45 90.744z" stroke="none" fill="#FFF2CC" fill-rule="evenodd" /><g clip-path="url(#291)"></g><g clip-path="url(#292)"></g><g clip-path="url(#293)"></g></g><path id="2983" transform="matrix(1 0 0 -1 0 841)" d="M217.61 75.144L251.81 75.144L251.81 75.144L251.81 90.744L251.81 90.744L217.61 90.744z" stroke="none" fill="#FFF2CC" fill-rule="evenodd" /><g clip-path="url(#294)"><path id="2984" transform="matrix(1 0 0 -1 0 841)" d="M223.01 75.144L246.41 75.144L246.41 75.144L246.41 90.744L246.41 90.744L223.01 90.744z" stroke="none" fill="#FFF2CC" fill-rule="evenodd" /><g clip-path="url(#295)"></g><g clip-path="url(#296)"></g><g clip-path="url(#297)"></g></g><path id="2989" transform="matrix(1 0 0 -1 0 841)" d="M251.81 75.144L286.634 75.144L286.634 75.144L286.634 90.744L286.634 90.744L251.81 90.744z" stroke="none" fill="#FFF2CC" fill-rule="evenodd" /><g clip-path="url(#298)"><path id="2990" transform="matrix(1 0 0 -1 0 841)" d="M257.21 75.144L281.234 75.144L281.234 75.144L281.234 90.744L281.234 90.744L257.21 90.744z" stroke="none" fill="#FFF2CC" fill-rule="evenodd" /><g clip-path="url(#299)"></g><g clip-path="url(#300)"></g><g clip-path="url(#301)"></g></g><path id="2995" transform="matrix(1 0 0 -1 0 841)" d="M286.63 75.144L331.03 75.144L331.03 75.144L331.03 90.744L331.03 90.744L286.63 90.744z" stroke="none" fill="#FFF2CC" fill-rule="evenodd" /><g clip-path="url(#302)"><path id="2996" transform="matrix(1 0 0 -1 0 841)" d="M292.03 75.144L325.63 75.144L325.63 75.144L325.63 90.744L325.63 90.744L292.03 90.744z" stroke="none" fill="#FFF2CC" fill-rule="evenodd" /><g clip-path="url(#303)"></g><g clip-path="url(#304)"></g><g clip-path="url(#305)"></g></g><path id="3004" transform="matrix(1 0 0 -1 0 841)" d="M331.03 75.144L365.95 75.144L365.95 75.144L365.95 90.744L365.95 90.744L331.03 90.744z" stroke="none" fill="#FFF2CC" fill-rule="evenodd" /><g clip-path="url(#306)"><path id="3005" transform="matrix(1 0 0 -1 0 841)" d="M336.43 75.144L360.55 75.144L360.55 75.144L360.55 90.744L360.55 90.744L336.43 90.744z" stroke="none" fill="#FFF2CC" fill-rule="evenodd" /><g clip-path="url(#307)"></g><g clip-path="url(#308)"></g><g clip-path="url(#309)"></g></g><path id="3011" transform="matrix(1 0 0 -1 0 841)" d="M365.95 75.144L400.774 75.144L400.774 75.144L400.774 90.744L400.774 90.744L365.95 90.744z" stroke="none" fill="#FFF2CC" fill-rule="evenodd" /><g clip-path="url(#310)"><path id="3012" transform="matrix(1 0 0 -1 0 841)" d="M371.35 75.144L395.374 75.144L395.374 75.144L395.374 90.744L395.374 90.744L371.35 90.744z" stroke="none" fill="#FFF2CC" fill-rule="evenodd" /><g clip-path="url(#311)"></g><g clip-path="url(#312)"></g><g clip-path="url(#313)"></g></g><path id="3017" transform="matrix(1 0 0 -1 0 841)" d="M400.78 75.144L435.7 75.144L435.7 75.144L435.7 90.744L435.7 90.744L400.78 90.744z" stroke="none" fill="#FFF2CC" fill-rule="evenodd" /><g clip-path="url(#314)"><path id="3018" transform="matrix(1 0 0 -1 0 841)" d="M406.18 75.144L430.3 75.144L430.3 75.144L430.3 90.744L430.3 90.744L406.18 90.744z" stroke="none" fill="#FFF2CC" fill-rule="evenodd" /><g clip-path="url(#315)"></g><g clip-path="url(#316)"></g><g clip-path="url(#317)"></g></g><path id="3024" transform="matrix(1 0 0 -1 0 841)" d="M435.7 75.144L470.5 75.144L470.5 75.144L470.5 90.744L470.5 90.744L435.7 90.744z" stroke="none" fill="#FFF2CC" fill-rule="evenodd" /><g clip-path="url(#318)"><path id="3025" transform="matrix(1 0 0 -1 0 841)" d="M441.1 75.144L465.1 75.144L465.1 75.144L465.1 90.744L465.1 90.744L441.1 90.744z" stroke="none" fill="#FFF2CC" fill-rule="evenodd" /><g clip-path="url(#319)"></g><g clip-path="url(#320)"></g><g clip-path="url(#321)"></g><g clip-path="url(#322)"></g></g><path id="3029" transform="matrix(1 0 0 -1 0 841)" d="M470.5 75.144L505.324 75.144L505.324 75.144L505.324 90.744L505.324 90.744L470.5 90.744z" stroke="none" fill="#FFF2CC" fill-rule="evenodd" /><g clip-path="url(#323)"><path id="3030" transform="matrix(1 0 0 -1 0 841)" d="M475.9 75.144L499.924 75.144L499.924 75.144L499.924 90.744L499.924 90.744L475.9 90.744z" stroke="none" fill="#FFF2CC" fill-rule="evenodd" /><g clip-path="url(#324)"></g><g clip-path="url(#325)"></g><g clip-path="url(#326)"></g></g><path id="3035" transform="matrix(1 0 0 -1 0 841)" d="M505.32 75.144L540.24 75.144L540.24 75.144L540.24 90.744L540.24 90.744L505.32 90.744z" stroke="none" fill="#FFF2CC" fill-rule="evenodd" /><g clip-path="url(#327)"><path id="3036" transform="matrix(1 0 0 -1 0 841)" d="M510.72 75.144L534.84 75.144L534.84 75.144L534.84 90.744L534.84 90.744L510.72 90.744z" stroke="none" fill="#FFF2CC" fill-rule="evenodd" /><g clip-path="url(#328)"></g><g clip-path="url(#329)"></g><g clip-path="url(#330)"></g></g><path id="3042" transform="matrix(1 0 0 -1 0 841)" d="M61.704 90.744L82.944 90.744L82.944 90.744L82.944 91.22404L82.944 91.22404L61.704 91.22404z" stroke="none" fill="#000000" fill-rule="evenodd" /><path id="3043" transform="matrix(1 0 0 -1 0 841)" d="M82.944 90.744L83.424 90.744L83.424 90.744L83.424 91.22404L83.424 91.22404L82.944 91.22404z" stroke="none" fill="#000000" fill-rule="evenodd" /><path id="3044" transform="matrix(1 0 0 -1 0 841)" d="M83.424 90.744L168.048 90.744L168.048 90.744L168.048 91.22404L168.048 91.22404L83.424 91.22404z" stroke="none" fill="#000000" fill-rule="evenodd" /><path id="3045" transform="matrix(1 0 0 -1 0 841)" d="M168.05 90.744L168.53 90.744L168.53 90.744L168.53 91.22404L168.53 91.22404L168.05 91.22404z" stroke="none" fill="#000000" fill-rule="evenodd" /><path id="3046" transform="matrix(1 0 0 -1 0 841)" d="M168.53 90.744L217.61 90.744L217.61 90.744L217.61 91.22404L217.61 91.22404L168.53 91.22404z" stroke="none" fill="#000000" fill-rule="evenodd" /><path id="3047" transform="matrix(1 0 0 -1 0 841)" d="M217.61 90.744L218.09 90.744L218.09 90.744L218.09 91.22404L218.09 91.22404L217.61 91.22404z" stroke="none" fill="#000000" fill-rule="evenodd" /><path id="3048" transform="matrix(1 0 0 -1 0 841)" d="M218.09 90.744L251.81 90.744L251.81 90.744L251.81 91.22404L251.81 91.22404L218.09 91.22404z" stroke="none" fill="#000000" fill-rule="evenodd" /><path id="3049" transform="matrix(1 0 0 -1 0 841)" d="M251.81 90.744L252.29 90.744L252.29 90.744L252.29 91.22404L252.29 91.22404L251.81 91.22404z" stroke="none" fill="#000000" fill-rule="evenodd" /><path id="3050" transform="matrix(1 0 0 -1 0 841)" d="M252.29 90.744L286.634 90.744L286.634 90.744L286.634 91.22404L286.634 91.22404L252.29 91.22404z" stroke="none" fill="#000000" fill-rule="evenodd" /><path id="3051" transform="matrix(1 0 0 -1 0 841)" d="M286.63 90.744L287.11 90.744L287.11 90.744L287.11 91.22404L287.11 91.22404L286.63 91.22404z" stroke="none" fill="#000000" fill-rule="evenodd" /><path id="3052" transform="matrix(1 0 0 -1 0 841)" d="M287.11 90.744L331.03 90.744L331.03 90.744L331.03 91.22404L331.03 91.22404L287.11 91.22404z" stroke="none" fill="#000000" fill-rule="evenodd" /><path id="3053" transform="matrix(1 0 0 -1 0 841)" d="M331.03 90.744L331.51 90.744L331.51 90.744L331.51 91.22404L331.51 91.22404L331.03 91.22404z" stroke="none" fill="#000000" fill-rule="evenodd" /><path id="3054" transform="matrix(1 0 0 -1 0 841)" d="M331.51 90.744L365.95 90.744L365.95 90.744L365.95 91.22404L365.95 91.22404L331.51 91.22404z" stroke="none" fill="#000000" fill-rule="evenodd" /><path id="3055" transform="matrix(1 0 0 -1 0 841)" d="M365.95 90.744L366.43 90.744L366.43 90.744L366.43 91.22404L366.43 91.22404L365.95 91.22404z" stroke="none" fill="#000000" fill-rule="evenodd" /><path id="3056" transform="matrix(1 0 0 -1 0 841)" d="M366.43 90.744L400.774 90.744L400.774 90.744L400.774 91.22404L400.774 91.22404L366.43 91.22404z" stroke="none" fill="#000000" fill-rule="evenodd" /><path id="3057" transform="matrix(1 0 0 -1 0 841)" d="M400.78 90.744L401.26 90.744L401.26 90.744L401.26 91.22404L401.26 91.22404L400.78 91.22404z" stroke="none" fill="#000000" fill-rule="evenodd" /><path id="3058" transform="matrix(1 0 0 -1 0 841)" d="M401.26 90.744L435.7 90.744L435.7 90.744L435.7 91.22404L435.7 91.22404L401.26 91.22404z" stroke="none" fill="#000000" fill-rule="evenodd" /><path id="3059" transform="matrix(1 0 0 -1 0 841)" d="M435.7 90.744L436.18 90.744L436.18 90.744L436.18 91.22404L436.18 91.22404L435.7 91.22404z" stroke="none" fill="#000000" fill-rule="evenodd" /><path id="3060" transform="matrix(1 0 0 -1 0 841)" d="M436.18 90.744L470.5 90.744L470.5 90.744L470.5 91.22404L470.5 91.22404L436.18 91.22404z" stroke="none" fill="#000000" fill-rule="evenodd" /><path id="3061" transform="matrix(1 0 0 -1 0 841)" d="M470.5 90.744L470.98 90.744L470.98 90.744L470.98 91.22404L470.98 91.22404L470.5 91.22404z" stroke="none" fill="#000000" fill-rule="evenodd" /><path id="3062" transform="matrix(1 0 0 -1 0 841)" d="M470.98 90.744L505.324 90.744L505.324 90.744L505.324 91.22404L505.324 91.22404L470.98 91.22404z" stroke="none" fill="#000000" fill-rule="evenodd" /><path id="3063" transform="matrix(1 0 0 -1 0 841)" d="M505.32 90.744L505.8 90.744L505.8 90.744L505.8 91.22404L505.8 91.22404L505.32 91.22404z" stroke="none" fill="#000000" fill-rule="evenodd" /><path id="3064" transform="matrix(1 0 0 -1 0 841)" d="M505.8 90.744L540.24 90.744L540.24 90.744L540.24 91.22404L540.24 91.22404L505.8 91.22404z" stroke="none" fill="#000000" fill-rule="evenodd" /><path id="3065" transform="matrix(1 0 0 -1 0 841)" d="M60.984 74.664L82.944 74.664L82.944 74.664L82.944 75.14398L82.944 75.14398L60.984 75.14398z" stroke="none" fill="#000000" fill-rule="evenodd" /><path id="3066" transform="matrix(1 0 0 -1 0 841)" d="M82.224 74.664L82.704 74.664L82.704 74.664L82.704 75.14398L82.704 75.14398L82.224 75.14398z" stroke="none" fill="#000000" fill-rule="evenodd" /><path id="3067" transform="matrix(1 0 0 -1 0 841)" d="M82.704 74.664L168.048 74.664L168.048 74.664L168.048 75.14398L168.048 75.14398L82.704 75.14398z" stroke="none" fill="#000000" fill-rule="evenodd" /><path id="3068" transform="matrix(1 0 0 -1 0 841)" d="M167.33 74.664L167.81 74.664L167.81 74.664L167.81 75.14398L167.81 75.14398L167.33 75.14398z" stroke="none" fill="#000000" fill-rule="evenodd" /><path id="3069" transform="matrix(1 0 0 -1 0 841)" d="M167.81 74.664L217.61 74.664L217.61 74.664L217.61 75.14398L217.61 75.14398L167.81 75.14398z" stroke="none" fill="#000000" fill-rule="evenodd" /><path id="3070" transform="matrix(1 0 0 -1 0 841)" d="M216.89 74.664L217.37 74.664L217.37 74.664L217.37 75.14398L217.37 75.14398L216.89 75.14398z" stroke="none" fill="#000000" fill-rule="evenodd" /><path id="3071" transform="matrix(1 0 0 -1 0 841)" d="M217.37 74.664L251.81 74.664L251.81 74.664L251.81 75.14398L251.81 75.14398L217.37 75.14398z" stroke="none" fill="#000000" fill-rule="evenodd" /><path id="3072" transform="matrix(1 0 0 -1 0 841)" d="M251.09 74.664L251.57 74.664L251.57 74.664L251.57 75.14398L251.57 75.14398L251.09 75.14398z" stroke="none" fill="#000000" fill-rule="evenodd" /><path id="3073" transform="matrix(1 0 0 -1 0 841)" d="M251.57 74.664L286.634 74.664L286.634 74.664L286.634 75.14398L286.634 75.14398L251.57 75.14398z" stroke="none" fill="#000000" fill-rule="evenodd" /><path id="3074" transform="matrix(1 0 0 -1 0 841)" d="M285.91 74.664L286.39 74.664L286.39 74.664L286.39 75.14398L286.39 75.14398L285.91 75.14398z" stroke="none" fill="#000000" fill-rule="evenodd" /><path id="3075" transform="matrix(1 0 0 -1 0 841)" d="M286.39 74.664L331.03 74.664L331.03 74.664L331.03 75.14398L331.03 75.14398L286.39 75.14398z" stroke="none" fill="#000000" fill-rule="evenodd" /><path id="3076" transform="matrix(1 0 0 -1 0 841)" d="M330.31 74.664L330.79 74.664L330.79 74.664L330.79 75.14398L330.79 75.14398L330.31 75.14398z" stroke="none" fill="#000000" fill-rule="evenodd" /><path id="3077" transform="matrix(1 0 0 -1 0 841)" d="M330.79 74.664L365.95 74.664L365.95 74.664L365.95 75.14398L365.95 75.14398L330.79 75.14398z" stroke="none" fill="#000000" fill-rule="evenodd" /><path id="3078" transform="matrix(1 0 0 -1 0 841)" d="M365.23 74.664L365.71 74.664L365.71 74.664L365.71 75.14398L365.71 75.14398L365.23 75.14398z" stroke="none" fill="#000000" fill-rule="evenodd" /><path id="3079" transform="matrix(1 0 0 -1 0 841)" d="M365.71 74.664L400.774 74.664L400.774 74.664L400.774 75.14398L400.774 75.14398L365.71 75.14398z" stroke="none" fill="#000000" fill-rule="evenodd" /><path id="3080" transform="matrix(1 0 0 -1 0 841)" d="M400.06 74.664L400.54 74.664L400.54 74.664L400.54 75.14398L400.54 75.14398L400.06 75.14398z" stroke="none" fill="#000000" fill-rule="evenodd" /><path id="3081" transform="matrix(1 0 0 -1 0 841)" d="M400.54 74.664L435.7 74.664L435.7 74.664L435.7 75.14398L435.7 75.14398L400.54 75.14398z" stroke="none" fill="#000000" fill-rule="evenodd" /><path id="3082" transform="matrix(1 0 0 -1 0 841)" d="M434.98 74.664L435.46 74.664L435.46 74.664L435.46 75.14398L435.46 75.14398L434.98 75.14398z" stroke="none" fill="#000000" fill-rule="evenodd" /><path id="3083" transform="matrix(1 0 0 -1 0 841)" d="M435.46 74.664L470.5 74.664L470.5 74.664L470.5 75.14398L470.5 75.14398L435.46 75.14398z" stroke="none" fill="#000000" fill-rule="evenodd" /><path id="3084" transform="matrix(1 0 0 -1 0 841)" d="M469.78 74.664L470.26 74.664L470.26 74.664L470.26 75.14398L470.26 75.14398L469.78 75.14398z" stroke="none" fill="#000000" fill-rule="evenodd" /><path id="3085" transform="matrix(1 0 0 -1 0 841)" d="M470.26 74.664L505.324 74.664L505.324 74.664L505.324 75.14398L505.324 75.14398L470.26 75.14398z" stroke="none" fill="#000000" fill-rule="evenodd" /><path id="3086" transform="matrix(1 0 0 -1 0 841)" d="M504.6 74.664L505.08 74.664L505.08 74.664L505.08 75.14398L505.08 75.14398L504.6 75.14398z" stroke="none" fill="#000000" fill-rule="evenodd" /><path id="3087" transform="matrix(1 0 0 -1 0 841)" d="M505.08 74.664L540.24 74.664L540.24 74.664L540.24 75.14398L540.24 75.14398L505.08 75.14398z" stroke="none" fill="#000000" fill-rule="evenodd" /></g></g></svg>