<svg xmlns="http://www.w3.org/2000/svg" xmlns:xlink="http://www.w3.org/1999/xlink" id="body_493" preserveAspectRatio="xMinYMin meet" viewBox="0 0 793 1121"><defs><clipPath id="1"><path id="" clip-rule="evenodd" d="M0 841L0 -0.9199829L0 -0.9199829L595.32 -0.9199829L595.32 -0.9199829L595.32 841L595.32 841L0 841z" /></clipPath><clipPath id="2"><path id="" clip-rule="evenodd" d="M0 840.9999L595.32 840.9999L595.32 840.9999L595.32 -0.9200439L595.32 -0.9200439L0 -0.9200439z" /></clipPath><clipPath id="3"><path id="" clip-rule="evenodd" d="M8.871E-06 841L595.32 841L595.32 841L595.32 -0.9199829L595.32 -0.9199829L8.871E-06 -0.9199829z" /></clipPath><clipPath id="4"><path id="" clip-rule="evenodd" d="M8.871E-06 841L595.32 841L595.32 841L595.32 -0.9199829L595.32 -0.9199829L8.871E-06 -0.9199829z" /></clipPath><clipPath id="5"><path id="" clip-rule="evenodd" d="M8.871E-06 841L595.32 841L595.32 841L595.32 -0.9199829L595.32 -0.9199829L8.871E-06 -0.9199829z" /></clipPath><clipPath id="6"><path id="" clip-rule="evenodd" d="M8.871E-06 841L595.32 841L595.32 841L595.32 -0.9199829L595.32 -0.9199829L8.871E-06 -0.9199829z" /></clipPath><clipPath id="7"><path id="" clip-rule="evenodd" d="M8.871E-06 841L595.32 841L595.32 841L595.32 -0.9199829L595.32 -0.9199829L8.871E-06 -0.9199829z" /></clipPath><clipPath id="8"><path id="" clip-rule="evenodd" d="M8.871E-06 841L595.32 841L595.32 841L595.32 -0.9199829L595.32 -0.9199829L8.871E-06 -0.9199829z" /></clipPath><clipPath id="9"><path id="" clip-rule="evenodd" d="M8.871E-06 841L595.32 841L595.32 841L595.32 -0.9199829L595.32 -0.9199829L8.871E-06 -0.9199829z" /></clipPath><clipPath id="10"><path id="" clip-rule="evenodd" d="M8.871E-06 841L595.32 841L595.32 841L595.32 -0.9199829L595.32 -0.9199829L8.871E-06 -0.9199829z" /></clipPath><clipPath id="11"><path id="" clip-rule="evenodd" d="M8.871E-06 841L595.32 841L595.32 841L595.32 -0.9199829L595.32 -0.9199829L8.871E-06 -0.9199829z" /></clipPath><clipPath id="12"><path id="" clip-rule="evenodd" d="M8.871E-06 841L595.32 841L595.32 841L595.32 -0.9199829L595.32 -0.9199829L8.871E-06 -0.9199829z" /></clipPath><clipPath id="13"><path id="" clip-rule="evenodd" d="M8.871E-06 841L595.32 841L595.32 841L595.32 -0.9199829L595.32 -0.9199829L8.871E-06 -0.9199829z" /></clipPath><clipPath id="14"><path id="" clip-rule="evenodd" d="M8.871E-06 841L595.32 841L595.32 841L595.32 -0.9199829L595.32 -0.9199829L8.871E-06 -0.9199829z" /></clipPath><clipPath id="15"><path id="" clip-rule="evenodd" d="M8.871E-06 841L595.32 841L595.32 841L595.32 -0.9199829L595.32 -0.9199829L8.871E-06 -0.9199829z" /></clipPath><clipPath id="16"><path id="" clip-rule="evenodd" d="M8.871E-06 841L595.32 841L595.32 841L595.32 -0.9199829L595.32 -0.9199829L8.871E-06 -0.9199829z" /></clipPath><clipPath id="17"><path id="" clip-rule="evenodd" d="M8.871E-06 841L595.32 841L595.32 841L595.32 -0.9199829L595.32 -0.9199829L8.871E-06 -0.9199829z" /></clipPath><clipPath id="18"><path id="" clip-rule="evenodd" d="M8.871E-06 841L595.32 841L595.32 841L595.32 -0.9199829L595.32 -0.9199829L8.871E-06 -0.9199829z" /></clipPath><clipPath id="19"><path id="" clip-rule="evenodd" d="M8.871E-06 841L595.32 841L595.32 841L595.32 -0.9199829L595.32 -0.9199829L8.871E-06 -0.9199829z" /></clipPath><clipPath id="20"><path id="" clip-rule="evenodd" d="M8.871E-06 841L595.32 841L595.32 841L595.32 -0.9199829L595.32 -0.9199829L8.871E-06 -0.9199829z" /></clipPath><clipPath id="21"><path id="" clip-rule="evenodd" d="M8.871E-06 841L595.32 841L595.32 841L595.32 -0.9199829L595.32 -0.9199829L8.871E-06 -0.9199829z" /></clipPath><clipPath id="22"><path id="" clip-rule="evenodd" d="M8.871E-06 841L595.32 841L595.32 841L595.32 -0.9199829L595.32 -0.9199829L8.871E-06 -0.9199829z" /></clipPath><clipPath id="23"><path id="" clip-rule="evenodd" d="M8.871E-06 841L595.32 841L595.32 841L595.32 -0.9199829L595.32 -0.9199829L8.871E-06 -0.9199829z" /></clipPath><clipPath id="24"><path id="" clip-rule="evenodd" d="M8.871E-06 841L595.32 841L595.32 841L595.32 -0.9199829L595.32 -0.9199829L8.871E-06 -0.9199829z" /></clipPath><clipPath id="25"><path id="" clip-rule="evenodd" d="M8.871E-06 841L595.32 841L595.32 841L595.32 -0.9199829L595.32 -0.9199829L8.871E-06 -0.9199829z" /></clipPath><clipPath id="26"><path id="" clip-rule="evenodd" d="M8.871E-06 841L595.32 841L595.32 841L595.32 -0.9199829L595.32 -0.9199829L8.871E-06 -0.9199829z" /></clipPath><clipPath id="27"><path id="" clip-rule="evenodd" d="M8.871E-06 841L595.32 841L595.32 841L595.32 -0.9199829L595.32 -0.9199829L8.871E-06 -0.9199829z" /></clipPath><clipPath id="28"><path id="" clip-rule="evenodd" d="M8.871E-06 841L595.32 841L595.32 841L595.32 -0.9199829L595.32 -0.9199829L8.871E-06 -0.9199829z" /></clipPath><clipPath id="29"><path id="" clip-rule="evenodd" d="M8.871E-06 841L595.32 841L595.32 841L595.32 -0.9199829L595.32 -0.9199829L8.871E-06 -0.9199829z" /></clipPath><clipPath id="30"><path id="" clip-rule="evenodd" d="M8.871E-06 841L595.32 841L595.32 841L595.32 -0.9199829L595.32 -0.9199829L8.871E-06 -0.9199829z" /></clipPath><clipPath id="31"><path id="" clip-rule="evenodd" d="M8.871E-06 841L595.32 841L595.32 841L595.32 -0.9199829L595.32 -0.9199829L8.871E-06 -0.9199829z" /></clipPath><clipPath id="32"><path id="" clip-rule="evenodd" d="M8.871E-06 841L595.32 841L595.32 841L595.32 -0.9199829L595.32 -0.9199829L8.871E-06 -0.9199829z" /></clipPath><clipPath id="33"><path id="" clip-rule="evenodd" d="M8.871E-06 841L595.32 841L595.32 841L595.32 -0.9199829L595.32 -0.9199829L8.871E-06 -0.9199829z" /></clipPath><clipPath id="34"><path id="" clip-rule="evenodd" d="M8.871E-06 841L595.32 841L595.32 841L595.32 -0.9199829L595.32 -0.9199829L8.871E-06 -0.9199829z" /></clipPath><clipPath id="35"><path id="" clip-rule="evenodd" d="M8.871E-06 841L595.32 841L595.32 841L595.32 -0.9199829L595.32 -0.9199829L8.871E-06 -0.9199829z" /></clipPath><clipPath id="36"><path id="" clip-rule="evenodd" d="M8.871E-06 841L595.32 841L595.32 841L595.32 -0.9199829L595.32 -0.9199829L8.871E-06 -0.9199829z" /></clipPath><clipPath id="37"><path id="" clip-rule="evenodd" d="M8.871E-06 841L595.32 841L595.32 841L595.32 -0.9199829L595.32 -0.9199829L8.871E-06 -0.9199829z" /></clipPath><clipPath id="38"><path id="" clip-rule="evenodd" d="M8.871E-06 841L595.32 841L595.32 841L595.32 -0.9199829L595.32 -0.9199829L8.871E-06 -0.9199829z" /></clipPath><clipPath id="39"><path id="" clip-rule="evenodd" d="M8.871E-06 841L595.32 841L595.32 841L595.32 -0.9199829L595.32 -0.9199829L8.871E-06 -0.9199829z" /></clipPath><clipPath id="40"><path id="" clip-rule="evenodd" d="M8.871E-06 841L595.32 841L595.32 841L595.32 -0.9199829L595.32 -0.9199829L8.871E-06 -0.9199829z" /></clipPath><clipPath id="41"><path id="" clip-rule="evenodd" d="M8.871E-06 841L595.32 841L595.32 841L595.32 -0.9199829L595.32 -0.9199829L8.871E-06 -0.9199829z" /></clipPath><clipPath id="42"><path id="" clip-rule="evenodd" d="M8.871E-06 841L595.32 841L595.32 841L595.32 -0.9199829L595.32 -0.9199829L8.871E-06 -0.9199829z" /></clipPath><clipPath id="43"><path id="" clip-rule="evenodd" d="M8.871E-06 841L595.32 841L595.32 841L595.32 -0.9199829L595.32 -0.9199829L8.871E-06 -0.9199829z" /></clipPath><clipPath id="44"><path id="" clip-rule="evenodd" d="M8.871E-06 841L595.32 841L595.32 841L595.32 -0.9199829L595.32 -0.9199829L8.871E-06 -0.9199829z" /></clipPath><clipPath id="45"><path id="" clip-rule="evenodd" d="M8.871E-06 841L595.32 841L595.32 841L595.32 -0.9199829L595.32 -0.9199829L8.871E-06 -0.9199829z" /></clipPath><clipPath id="46"><path id="" clip-rule="evenodd" d="M8.871E-06 841L595.32 841L595.32 841L595.32 -0.9199829L595.32 -0.9199829L8.871E-06 -0.9199829z" /></clipPath><clipPath id="47"><path id="" clip-rule="evenodd" d="M8.871E-06 841L595.32 841L595.32 841L595.32 -0.9199829L595.32 -0.9199829L8.871E-06 -0.9199829z" /></clipPath><clipPath id="48"><path id="" clip-rule="evenodd" d="M8.871E-06 841L595.32 841L595.32 841L595.32 -0.9199829L595.32 -0.9199829L8.871E-06 -0.9199829z" /></clipPath><clipPath id="49"><path id="" clip-rule="evenodd" d="M8.871E-06 841L595.32 841L595.32 841L595.32 -0.9199829L595.32 -0.9199829L8.871E-06 -0.9199829z" /></clipPath><clipPath id="50"><path id="" clip-rule="evenodd" d="M8.871E-06 841L595.32 841L595.32 841L595.32 -0.9199829L595.32 -0.9199829L8.871E-06 -0.9199829z" /></clipPath><clipPath id="51"><path id="" clip-rule="evenodd" d="M8.871E-06 841L595.32 841L595.32 841L595.32 -0.9199829L595.32 -0.9199829L8.871E-06 -0.9199829z" /></clipPath><clipPath id="52"><path id="" clip-rule="evenodd" d="M8.871E-06 841L595.32 841L595.32 841L595.32 -0.9199829L595.32 -0.9199829L8.871E-06 -0.9199829z" /></clipPath><clipPath id="53"><path id="" clip-rule="evenodd" d="M8.871E-06 841L595.32 841L595.32 841L595.32 -0.9199829L595.32 -0.9199829L8.871E-06 -0.9199829z" /></clipPath><clipPath id="54"><path id="" clip-rule="evenodd" d="M8.871E-06 841L595.32 841L595.32 841L595.32 -0.9199829L595.32 -0.9199829L8.871E-06 -0.9199829z" /></clipPath><clipPath id="55"><path id="" clip-rule="evenodd" d="M8.871E-06 841L595.32 841L595.32 841L595.32 -0.9199829L595.32 -0.9199829L8.871E-06 -0.9199829z" /></clipPath><clipPath id="56"><path id="" clip-rule="evenodd" d="M8.871E-06 841L595.32 841L595.32 841L595.32 -0.9199829L595.32 -0.9199829L8.871E-06 -0.9199829z" /></clipPath><clipPath id="57"><path id="" clip-rule="evenodd" d="M8.871E-06 841L595.32 841L595.32 841L595.32 -0.9199829L595.32 -0.9199829L8.871E-06 -0.9199829z" /></clipPath><clipPath id="58"><path id="" clip-rule="evenodd" d="M8.871E-06 841L595.32 841L595.32 841L595.32 -0.9199829L595.32 -0.9199829L8.871E-06 -0.9199829z" /></clipPath><clipPath id="59"><path id="" clip-rule="evenodd" d="M8.871E-06 841L595.32 841L595.32 841L595.32 -0.9199829L595.32 -0.9199829L8.871E-06 -0.9199829z" /></clipPath><clipPath id="60"><path id="" clip-rule="evenodd" d="M8.871E-06 841L595.32 841L595.32 841L595.32 -0.9199829L595.32 -0.9199829L8.871E-06 -0.9199829z" /></clipPath><clipPath id="61"><path id="" clip-rule="evenodd" d="M8.871E-06 841L595.32 841L595.32 841L595.32 -0.9199829L595.32 -0.9199829L8.871E-06 -0.9199829z" /></clipPath><clipPath id="62"><path id="" clip-rule="evenodd" d="M8.871E-06 841L595.32 841L595.32 841L595.32 -0.9199829L595.32 -0.9199829L8.871E-06 -0.9199829z" /></clipPath><clipPath id="63"><path id="" clip-rule="evenodd" d="M8.871E-06 841L595.32 841L595.32 841L595.32 -0.9199829L595.32 -0.9199829L8.871E-06 -0.9199829z" /></clipPath><clipPath id="64"><path id="" clip-rule="evenodd" d="M8.871E-06 841L595.32 841L595.32 841L595.32 -0.9199829L595.32 -0.9199829L8.871E-06 -0.9199829z" /></clipPath><clipPath id="65"><path id="" clip-rule="evenodd" d="M8.871E-06 841L595.32 841L595.32 841L595.32 -0.9199829L595.32 -0.9199829L8.871E-06 -0.9199829z" /></clipPath><clipPath id="66"><path id="" clip-rule="evenodd" d="M8.871E-06 841L595.32 841L595.32 841L595.32 -0.9199829L595.32 -0.9199829L8.871E-06 -0.9199829z" /></clipPath><clipPath id="67"><path id="" clip-rule="evenodd" d="M8.871E-06 841L595.32 841L595.32 841L595.32 -0.9199829L595.32 -0.9199829L8.871E-06 -0.9199829z" /></clipPath><clipPath id="68"><path id="" clip-rule="evenodd" d="M8.871E-06 841L595.32 841L595.32 841L595.32 -0.9199829L595.32 -0.9199829L8.871E-06 -0.9199829z" /></clipPath><clipPath id="69"><path id="" clip-rule="evenodd" d="M8.871E-06 841L595.32 841L595.32 841L595.32 -0.9199829L595.32 -0.9199829L8.871E-06 -0.9199829z" /></clipPath><clipPath id="70"><path id="" clip-rule="evenodd" d="M8.871E-06 841L595.32 841L595.32 841L595.32 -0.9199829L595.32 -0.9199829L8.871E-06 -0.9199829z" /></clipPath><clipPath id="71"><path id="" clip-rule="evenodd" d="M8.871E-06 841L595.32 841L595.32 841L595.32 -0.9199829L595.32 -0.9199829L8.871E-06 -0.9199829z" /></clipPath><clipPath id="72"><path id="" clip-rule="evenodd" d="M0 840.9999L595.32 840.9999L595.32 840.9999L595.32 -0.9200439L595.32 -0.9200439L0 -0.9200439z" /></clipPath><clipPath id="73"><path id="" clip-rule="evenodd" d="M111.06 488.14L435.4146 488.14L435.4146 488.14L435.4146 278.1404L435.4146 278.1404L111.06 278.1404z" /></clipPath><clipPath id="74"><path id="" clip-rule="evenodd" d="M111.06 496.139L433.5939 496.139L433.5939 496.139L433.5939 268.7511L433.5939 268.7511L111.06 268.7511z" /></clipPath><clipPath id="75"><path id="" clip-rule="evenodd" d="M168.839 458.5732L388.8556 458.5732L388.8556 458.5732L388.8556 295.1858L388.8556 295.1858L168.839 295.1858z" /></clipPath><clipPath id="76"><path id="" clip-rule="evenodd" d="M8.871E-06 841L595.32 841L595.32 841L595.32 -0.9199829L595.32 -0.9199829L8.871E-06 -0.9199829z" /></clipPath><clipPath id="77"><path id="" clip-rule="evenodd" d="M8.871E-06 841L595.32 841L595.32 841L595.32 -0.9199829L595.32 -0.9199829L8.871E-06 -0.9199829z" /></clipPath><clipPath id="78"><path id="" clip-rule="evenodd" d="M8.871E-06 841L595.32 841L595.32 841L595.32 -0.9199829L595.32 -0.9199829L8.871E-06 -0.9199829z" /></clipPath><clipPath id="79"><path id="" clip-rule="evenodd" d="M8.871E-06 841L595.32 841L595.32 841L595.32 -0.9199829L595.32 -0.9199829L8.871E-06 -0.9199829z" /></clipPath><clipPath id="80"><path id="" clip-rule="evenodd" d="M8.871E-06 841L595.32 841L595.32 841L595.32 -0.9199829L595.32 -0.9199829L8.871E-06 -0.9199829z" /></clipPath><clipPath id="81"><path id="" clip-rule="evenodd" d="M8.871E-06 841L595.32 841L595.32 841L595.32 -0.9199829L595.32 -0.9199829L8.871E-06 -0.9199829z" /></clipPath><clipPath id="82"><path id="" clip-rule="evenodd" d="M8.871E-06 841L595.32 841L595.32 841L595.32 -0.9199829L595.32 -0.9199829L8.871E-06 -0.9199829z" /></clipPath><clipPath id="83"><path id="" clip-rule="evenodd" d="M8.871E-06 841L595.32 841L595.32 841L595.32 -0.9199829L595.32 -0.9199829L8.871E-06 -0.9199829z" /></clipPath><clipPath id="84"><path id="" clip-rule="evenodd" d="M8.871E-06 841L595.32 841L595.32 841L595.32 -0.9199829L595.32 -0.9199829L8.871E-06 -0.9199829z" /></clipPath><clipPath id="85"><path id="" clip-rule="evenodd" d="M8.871E-06 841L595.32 841L595.32 841L595.32 -0.9199829L595.32 -0.9199829L8.871E-06 -0.9199829z" /></clipPath><clipPath id="86"><path id="" clip-rule="evenodd" d="M8.871E-06 841L595.32 841L595.32 841L595.32 -0.9199829L595.32 -0.9199829L8.871E-06 -0.9199829z" /></clipPath><clipPath id="87"><path id="" clip-rule="evenodd" d="M8.871E-06 841L595.32 841L595.32 841L595.32 -0.9199829L595.32 -0.9199829L8.871E-06 -0.9199829z" /></clipPath><clipPath id="88"><path id="" clip-rule="evenodd" d="M8.871E-06 841L595.32 841L595.32 841L595.32 -0.9199829L595.32 -0.9199829L8.871E-06 -0.9199829z" /></clipPath><clipPath id="89"><path id="" clip-rule="evenodd" d="M8.871E-06 841L595.32 841L595.32 841L595.32 -0.9199829L595.32 -0.9199829L8.871E-06 -0.9199829z" /></clipPath><clipPath id="90"><path id="" clip-rule="evenodd" d="M8.871E-06 841L595.32 841L595.32 841L595.32 -0.9199829L595.32 -0.9199829L8.871E-06 -0.9199829z" /></clipPath><clipPath id="91"><path id="" clip-rule="evenodd" d="M8.871E-06 841L595.32 841L595.32 841L595.32 -0.9199829L595.32 -0.9199829L8.871E-06 -0.9199829z" /></clipPath><clipPath id="92"><path id="" clip-rule="evenodd" d="M8.871E-06 841L595.32 841L595.32 841L595.32 -0.9199829L595.32 -0.9199829L8.871E-06 -0.9199829z" /></clipPath><clipPath id="93"><path id="" clip-rule="evenodd" d="M8.871E-06 841L595.32 841L595.32 841L595.32 -0.9199829L595.32 -0.9199829L8.871E-06 -0.9199829z" /></clipPath><clipPath id="94"><path id="" clip-rule="evenodd" d="M8.871E-06 841L595.32 841L595.32 841L595.32 -0.9199829L595.32 -0.9199829L8.871E-06 -0.9199829z" /></clipPath><clipPath id="95"><path id="" clip-rule="evenodd" d="M8.871E-06 841L595.32 841L595.32 841L595.32 -0.9199829L595.32 -0.9199829L8.871E-06 -0.9199829z" /></clipPath><clipPath id="96"><path id="" clip-rule="evenodd" d="M8.871E-06 841L595.32 841L595.32 841L595.32 -0.9199829L595.32 -0.9199829L8.871E-06 -0.9199829z" /></clipPath><clipPath id="97"><path id="" clip-rule="evenodd" d="M0 840.9999L595.32 840.9999L595.32 840.9999L595.32 -0.9200439L595.32 -0.9200439L0 -0.9200439z" /></clipPath><clipPath id="98"><path id="" clip-rule="evenodd" d="M228.66 698.39L366.6606 698.39L366.6606 698.39L366.6606 626.3901L366.6606 626.3901L228.66 626.3901z" /></clipPath><clipPath id="99"><path id="" clip-rule="evenodd" d="M8.871E-06 841L595.32 841L595.32 841L595.32 -0.9199829L595.32 -0.9199829L8.871E-06 -0.9199829z" /></clipPath><clipPath id="100"><path id="" clip-rule="evenodd" d="M8.871E-06 841L595.32 841L595.32 841L595.32 -0.9199829L595.32 -0.9199829L8.871E-06 -0.9199829z" /></clipPath><clipPath id="101"><path id="" clip-rule="evenodd" d="M8.871E-06 841L595.32 841L595.32 841L595.32 -0.9199829L595.32 -0.9199829L8.871E-06 -0.9199829z" /></clipPath><clipPath id="102"><path id="" clip-rule="evenodd" d="M8.871E-06 841L595.32 841L595.32 841L595.32 -0.9199829L595.32 -0.9199829L8.871E-06 -0.9199829z" /></clipPath><clipPath id="103"><path id="" clip-rule="evenodd" d="M8.871E-06 841L595.32 841L595.32 841L595.32 -0.9199829L595.32 -0.9199829L8.871E-06 -0.9199829z" /></clipPath><clipPath id="104"><path id="" clip-rule="evenodd" d="M8.871E-06 841L595.32 841L595.32 841L595.32 -0.9199829L595.32 -0.9199829L8.871E-06 -0.9199829z" /></clipPath><clipPath id="105"><path id="" clip-rule="evenodd" d="M8.871E-06 841L595.32 841L595.32 841L595.32 -0.9199829L595.32 -0.9199829L8.871E-06 -0.9199829z" /></clipPath><clipPath id="106"><path id="" clip-rule="evenodd" d="M8.871E-06 841L595.32 841L595.32 841L595.32 -0.9199829L595.32 -0.9199829L8.871E-06 -0.9199829z" /></clipPath><clipPath id="107"><path id="" clip-rule="evenodd" d="M8.871E-06 841L595.32 841L595.32 841L595.32 -0.9199829L595.32 -0.9199829L8.871E-06 -0.9199829z" /></clipPath><clipPath id="108"><path id="" clip-rule="evenodd" d="M8.871E-06 841L595.32 841L595.32 841L595.32 -0.9199829L595.32 -0.9199829L8.871E-06 -0.9199829z" /></clipPath><clipPath id="109"><path id="" clip-rule="evenodd" d="M8.871E-06 841L595.32 841L595.32 841L595.32 -0.9199829L595.32 -0.9199829L8.871E-06 -0.9199829z" /></clipPath><clipPath id="110"><path id="" clip-rule="evenodd" d="M8.871E-06 841L595.32 841L595.32 841L595.32 -0.9199829L595.32 -0.9199829L8.871E-06 -0.9199829z" /></clipPath><clipPath id="111"><path id="" clip-rule="evenodd" d="M8.871E-06 841L595.32 841L595.32 841L595.32 -0.9199829L595.32 -0.9199829L8.871E-06 -0.9199829z" /></clipPath><clipPath id="112"><path id="" clip-rule="evenodd" d="M8.871E-06 841L595.32 841L595.32 841L595.32 -0.9199829L595.32 -0.9199829L8.871E-06 -0.9199829z" /></clipPath><clipPath id="113"><path id="" clip-rule="evenodd" d="M8.871E-06 841L595.32 841L595.32 841L595.32 -0.9199829L595.32 -0.9199829L8.871E-06 -0.9199829z" /></clipPath><clipPath id="114"><path id="" clip-rule="evenodd" d="M8.871E-06 841L595.32 841L595.32 841L595.32 -0.9199829L595.32 -0.9199829L8.871E-06 -0.9199829z" /></clipPath><clipPath id="115"><path id="" clip-rule="evenodd" d="M8.871E-06 841L595.32 841L595.32 841L595.32 -0.9199829L595.32 -0.9199829L8.871E-06 -0.9199829z" /></clipPath><clipPath id="116"><path id="" clip-rule="evenodd" d="M8.871E-06 841L595.32 841L595.32 841L595.32 -0.9199829L595.32 -0.9199829L8.871E-06 -0.9199829z" /></clipPath><clipPath id="117"><path id="" clip-rule="evenodd" d="M8.871E-06 841L595.32 841L595.32 841L595.32 -0.9199829L595.32 -0.9199829L8.871E-06 -0.9199829z" /></clipPath><clipPath id="118"><path id="" clip-rule="evenodd" d="M8.871E-06 841L595.32 841L595.32 841L595.32 -0.9199829L595.32 -0.9199829L8.871E-06 -0.9199829z" /></clipPath><clipPath id="119"><path id="" clip-rule="evenodd" d="M8.871E-06 841L595.32 841L595.32 841L595.32 -0.9199829L595.32 -0.9199829L8.871E-06 -0.9199829z" /></clipPath><clipPath id="120"><path id="" clip-rule="evenodd" d="M8.871E-06 841L595.32 841L595.32 841L595.32 -0.9199829L595.32 -0.9199829L8.871E-06 -0.9199829z" /></clipPath><clipPath id="121"><path id="" clip-rule="evenodd" d="M8.871E-06 841L595.32 841L595.32 841L595.32 -0.9199829L595.32 -0.9199829L8.871E-06 -0.9199829z" /></clipPath><clipPath id="122"><path id="" clip-rule="evenodd" d="M8.871E-06 841L595.32 841L595.32 841L595.32 -0.9199829L595.32 -0.9199829L8.871E-06 -0.9199829z" /></clipPath><clipPath id="123"><path id="" clip-rule="evenodd" d="M8.871E-06 841L595.32 841L595.32 841L595.32 -0.9199829L595.32 -0.9199829L8.871E-06 -0.9199829z" /></clipPath></defs><g transform="matrix(1.333333 0 0 1.333333 0 0)"><g clip-path="url(#1)"><g clip-path="url(#2)"><path id="1" transform="matrix(1 0 0 -1 0 841)" d="M0 -0.13L595.45 -0.13L595.45 -0.13L595.45 841.92L595.45 841.92L0 841.92z" stroke="none" fill="#F5F1DE" fill-rule="evenodd" /></g><g clip-path="url(#3)"></g><g clip-path="url(#4)"></g><path id="23" transform="matrix(1 0 0 -1 0 841)" d="M90 777.72L505.3 777.72L505.3 777.72L505.3 779.27L505.3 779.27L90 779.27z" stroke="none" fill="#808080" fill-rule="evenodd" /><path id="24" transform="matrix(1 0 0 -1 0 841)" d="M90.024 779.04L90.264 779.04L90.264 779.04L90.264 779.28L90.264 779.28L90.024 779.28z" stroke="none" fill="#808080" fill-rule="evenodd" /><path id="25" transform="matrix(1 0 0 -1 0 841)" d="M90.024 779.04L90.264 779.04L90.264 779.04L90.264 779.28L90.264 779.28L90.024 779.28z" stroke="none" fill="#808080" fill-rule="evenodd" /><path id="26" transform="matrix(1 0 0 -1 0 841)" d="M90.264 779.04L505.204 779.04L505.204 779.04L505.204 779.28L505.204 779.28L90.264 779.28z" stroke="none" fill="#808080" fill-rule="evenodd" /><path id="27" transform="matrix(1 0 0 -1 0 841)" d="M505.2 779.04L505.44 779.04L505.44 779.04L505.44 779.28L505.44 779.28L505.2 779.28z" stroke="none" fill="#D4D0C8" fill-rule="evenodd" /><path id="28" transform="matrix(1 0 0 -1 0 841)" d="M505.2 779.04L505.44 779.04L505.44 779.04L505.44 779.28L505.44 779.28L505.2 779.28z" stroke="none" fill="#808080" fill-rule="evenodd" /><path id="29" transform="matrix(1 0 0 -1 0 841)" d="M90.024 777.96L90.264 777.96L90.264 777.96L90.264 779.04L90.264 779.04L90.024 779.04z" stroke="none" fill="#808080" fill-rule="evenodd" /><path id="30" transform="matrix(1 0 0 -1 0 841)" d="M505.2 777.96L505.44 777.96L505.44 777.96L505.44 779.04L505.44 779.04L505.2 779.04z" stroke="none" fill="#D4D0C8" fill-rule="evenodd" /><path id="31" transform="matrix(1 0 0 -1 0 841)" d="M90.024 777.72L90.264 777.72L90.264 777.72L90.264 777.96L90.264 777.96L90.024 777.96z" stroke="none" fill="#808080" fill-rule="evenodd" /><path id="32" transform="matrix(1 0 0 -1 0 841)" d="M90.024 777.72L90.264 777.72L90.264 777.72L90.264 777.96L90.264 777.96L90.024 777.96z" stroke="none" fill="#D4D0C8" fill-rule="evenodd" /><path id="33" transform="matrix(1 0 0 -1 0 841)" d="M90.264 777.72L505.204 777.72L505.204 777.72L505.204 777.96L505.204 777.96L90.264 777.96z" stroke="none" fill="#D4D0C8" fill-rule="evenodd" /><path id="34" transform="matrix(1 0 0 -1 0 841)" d="M505.2 777.72L505.44 777.72L505.44 777.72L505.44 777.96L505.44 777.96L505.2 777.96z" stroke="none" fill="#D4D0C8" fill-rule="evenodd" /><path id="35" transform="matrix(1 0 0 -1 0 841)" d="M505.2 777.72L505.44 777.72L505.44 777.72L505.44 777.96L505.44 777.96L505.2 777.96z" stroke="none" fill="#D4D0C8" fill-rule="evenodd" /><g clip-path="url(#5)"></g><g clip-path="url(#6)"></g><g clip-path="url(#7)"></g><g clip-path="url(#8)"></g><g clip-path="url(#9)"></g><g clip-path="url(#10)"></g><g clip-path="url(#11)"></g><g clip-path="url(#12)"></g><g clip-path="url(#13)"></g><g clip-path="url(#14)"></g><g clip-path="url(#15)"></g><g clip-path="url(#16)"></g><g clip-path="url(#17)"></g><g clip-path="url(#18)"></g><g clip-path="url(#19)"></g><g clip-path="url(#20)"></g><g clip-path="url(#21)"></g><g clip-path="url(#22)"></g><g clip-path="url(#23)"></g><g clip-path="url(#24)"></g><g clip-path="url(#25)"></g><g clip-path="url(#26)"></g><g clip-path="url(#27)"></g><g clip-path="url(#28)"></g><g clip-path="url(#29)"></g><g clip-path="url(#30)"></g><g clip-path="url(#31)"></g><g clip-path="url(#32)"></g><g clip-path="url(#33)"></g><g clip-path="url(#34)"></g><g clip-path="url(#35)"></g><g clip-path="url(#36)"></g><g clip-path="url(#37)"></g><g clip-path="url(#38)"></g><g clip-path="url(#39)"></g><g clip-path="url(#40)"></g><g clip-path="url(#41)"></g><g clip-path="url(#42)"></g><g clip-path="url(#43)"></g><g clip-path="url(#44)"></g><g clip-path="url(#45)"></g><g clip-path="url(#46)"></g><g clip-path="url(#47)"></g><g clip-path="url(#48)"></g><g clip-path="url(#49)"></g><g clip-path="url(#50)"></g><g clip-path="url(#51)"></g><g clip-path="url(#52)"></g><g clip-path="url(#53)"></g><g clip-path="url(#54)"></g><g clip-path="url(#55)"></g><g clip-path="url(#56)"></g><g clip-path="url(#57)"></g><g clip-path="url(#58)"></g><g clip-path="url(#59)"></g><g clip-path="url(#60)"></g><g clip-path="url(#61)"></g><g clip-path="url(#62)"></g><g clip-path="url(#63)"></g><g clip-path="url(#64)"></g><g clip-path="url(#65)"></g><g clip-path="url(#66)"></g><g clip-path="url(#67)"></g><g clip-path="url(#68)"></g><g clip-path="url(#69)"></g><g clip-path="url(#70)"></g><g clip-path="url(#71)"></g><g clip-path="url(#72)"><g clip-path="url(#73)"><g clip-path="url(#74)"><g clip-path="url(#75)"><path id="546" transform="matrix(1 0 0 -1 0 841)" d="M169.2169 382.4742L172.3837 382.4742L172.3837 382.4742L172.3837 472.3395L172.3837 472.3395L169.2169 472.3395z" stroke="#FF0000" stroke-width="0.4251346" fill="#FF0000" fill-rule="evenodd" /><path id="547" transform="matrix(1 0 0 -1 0 841)" d="M169.2169 472.3395L172.3833 472.3395" stroke="#000000" stroke-width="0.4251346" fill="none" /><path id="548" transform="matrix(1 0 0 -1 0 841)" d="M172.3833 472.3395L172.3833 382.4742" stroke="#000000" stroke-width="0.4251346" fill="none" /><path id="549" transform="matrix(1 0 0 -1 0 841)" d="M169.2169 382.4742L169.2169 472.3395" stroke="#000000" stroke-width="0.4251346" fill="none" /><path id="550" transform="matrix(1 0 0 -1 0 841)" d="M173.1399 382.4742L176.3048 382.4742L176.3048 382.4742L176.3048 472.3395L176.3048 472.3395L173.1399 472.3395z" stroke="#FF0000" stroke-width="0.4251346" fill="#FF0000" fill-rule="evenodd" /><path id="551" transform="matrix(1 0 0 -1 0 841)" d="M173.1399 472.3395L176.3048 472.3395" stroke="#000000" stroke-width="0.4251346" fill="none" /><path id="552" transform="matrix(1 0 0 -1 0 841)" d="M176.3048 472.3395L176.3048 382.4742" stroke="#000000" stroke-width="0.4251346" fill="none" /><path id="553" transform="matrix(1 0 0 -1 0 841)" d="M173.1399 382.4742L173.1399 472.3395" stroke="#000000" stroke-width="0.4251346" fill="none" /><path id="554" transform="matrix(1 0 0 -1 0 841)" d="M177.107 382.4742L180.2247 382.4742L180.2247 382.4742L180.2247 543.21L180.2247 543.21L177.107 543.21z" stroke="#FF0000" stroke-width="0.4251346" fill="#FF0000" fill-rule="evenodd" /><path id="555" transform="matrix(1 0 0 -1 0 841)" d="M177.107 543.21L180.2255 543.21" stroke="#000000" stroke-width="0.4251346" fill="none" /><path id="556" transform="matrix(1 0 0 -1 0 841)" d="M180.2255 543.21L180.2255 382.4742" stroke="#000000" stroke-width="0.4251346" fill="none" /><path id="557" transform="matrix(1 0 0 -1 0 841)" d="M177.107 382.4742L177.107 543.21" stroke="#000000" stroke-width="0.4251346" fill="none" /><path id="558" transform="matrix(1 0 0 -1 0 841)" d="M181.0285 382.4742L184.1481 382.4742L184.1481 382.4742L184.1481 543.8731L184.1481 543.8731L181.0285 543.8731z" stroke="#FF0000" stroke-width="0.4251346" fill="#FF0000" fill-rule="evenodd" /><path id="559" transform="matrix(1 0 0 -1 0 841)" d="M181.0285 543.8731L184.1477 543.8731" stroke="#000000" stroke-width="0.4251346" fill="none" /><path id="560" transform="matrix(1 0 0 -1 0 841)" d="M184.1477 543.8731L184.1477 382.4742" stroke="#000000" stroke-width="0.4251346" fill="none" /><path id="561" transform="matrix(1 0 0 -1 0 841)" d="M181.0285 382.4742L181.0285 543.8731" stroke="#000000" stroke-width="0.4251346" fill="none" /><path id="562" transform="matrix(1 0 0 -1 0 841)" d="M184.9508 382.4742L188.0684 382.4742L188.0684 382.4742L188.0684 542.3575L188.0684 542.3575L184.9508 542.3575z" stroke="#FF0000" stroke-width="0.4251346" fill="#FF0000" fill-rule="evenodd" /><path id="563" transform="matrix(1 0 0 -1 0 841)" d="M184.9508 542.3575L188.0684 542.3575" stroke="#000000" stroke-width="0.4251346" fill="none" /><path id="564" transform="matrix(1 0 0 -1 0 841)" d="M188.0684 542.3575L188.0684 382.4742" stroke="#000000" stroke-width="0.4251346" fill="none" /><path id="565" transform="matrix(1 0 0 -1 0 841)" d="M184.9508 382.4742L184.9508 542.3575" stroke="#000000" stroke-width="0.4251346" fill="none" /><path id="566" transform="matrix(1 0 0 -1 0 841)" d="M188.8715 382.4742L192.0363 382.4742L192.0363 382.4742L192.0363 542.168L192.0363 542.168L188.8715 542.168z" stroke="#FF0000" stroke-width="0.4251346" fill="#FF0000" fill-rule="evenodd" /><path id="567" transform="matrix(1 0 0 -1 0 841)" d="M188.8715 542.168L192.0363 542.168" stroke="#000000" stroke-width="0.4251346" fill="none" /><path id="568" transform="matrix(1 0 0 -1 0 841)" d="M192.0363 542.168L192.0363 382.4742" stroke="#000000" stroke-width="0.4251346" fill="none" /><path id="569" transform="matrix(1 0 0 -1 0 841)" d="M188.8715 382.4742L188.8715 542.168" stroke="#000000" stroke-width="0.4251346" fill="none" /><path id="570" transform="matrix(1 0 0 -1 0 841)" d="M192.7921 382.4742L195.957 382.4742L195.957 382.4742L195.957 542.2154L195.957 542.2154L192.7921 542.2154z" stroke="#FF0000" stroke-width="0.4251346" fill="#FF0000" fill-rule="evenodd" /><path id="571" transform="matrix(1 0 0 -1 0 841)" d="M192.7921 542.2154L195.957 542.2154" stroke="#000000" stroke-width="0.4251346" fill="none" /><path id="572" transform="matrix(1 0 0 -1 0 841)" d="M195.957 542.2154L195.957 382.4742" stroke="#000000" stroke-width="0.4251346" fill="none" /><path id="573" transform="matrix(1 0 0 -1 0 841)" d="M192.7921 382.4742L192.7921 542.2154" stroke="#000000" stroke-width="0.4251346" fill="none" /><path id="574" transform="matrix(1 0 0 -1 0 841)" d="M196.7144 382.4742L199.8793 382.4742L199.8793 382.4742L199.8793 538.7082L199.8793 538.7082L196.7144 538.7082z" stroke="#FF0000" stroke-width="0.4251346" fill="#FF0000" fill-rule="evenodd" /><path id="575" transform="matrix(1 0 0 -1 0 841)" d="M196.7144 538.7082L199.8801 538.7082" stroke="#000000" stroke-width="0.4251346" fill="none" /><path id="576" transform="matrix(1 0 0 -1 0 841)" d="M199.8801 538.7082L199.8801 382.4742" stroke="#000000" stroke-width="0.4251346" fill="none" /><path id="577" transform="matrix(1 0 0 -1 0 841)" d="M196.7144 382.4742L196.7144 538.7082" stroke="#000000" stroke-width="0.4251346" fill="none" /><path id="578" transform="matrix(1 0 0 -1 0 841)" d="M200.6359 382.4742L203.8008 382.4742L203.8008 382.4742L203.8008 538.7082L203.8008 538.7082L200.6359 538.7082z" stroke="#FF0000" stroke-width="0.4251346" fill="#FF0000" fill-rule="evenodd" /><path id="579" transform="matrix(1 0 0 -1 0 841)" d="M200.6359 538.7082L203.8 538.7082" stroke="#000000" stroke-width="0.4251346" fill="none" /><path id="580" transform="matrix(1 0 0 -1 0 841)" d="M203.8 538.7082L203.8 382.4742" stroke="#000000" stroke-width="0.4251346" fill="none" /><path id="581" transform="matrix(1 0 0 -1 0 841)" d="M200.6359 382.4742L200.6359 538.7082" stroke="#000000" stroke-width="0.4251346" fill="none" /><path id="582" transform="matrix(1 0 0 -1 0 841)" d="M204.6038 382.4742L207.7215 382.4742L207.7215 382.4742L207.7215 541.3155L207.7215 541.3155L204.6038 541.3155z" stroke="#FF0000" stroke-width="0.4251346" fill="#FF0000" fill-rule="evenodd" /><path id="583" transform="matrix(1 0 0 -1 0 841)" d="M204.6038 541.3155L207.7215 541.3155" stroke="#000000" stroke-width="0.4251346" fill="none" /><path id="584" transform="matrix(1 0 0 -1 0 841)" d="M207.7215 541.3155L207.7215 382.4742" stroke="#000000" stroke-width="0.4251346" fill="none" /><path id="585" transform="matrix(1 0 0 -1 0 841)" d="M204.6038 382.4742L204.6038 541.3155" stroke="#000000" stroke-width="0.4251346" fill="none" /><path id="586" transform="matrix(1 0 0 -1 0 841)" d="M208.5237 382.4742L211.6433 382.4742L211.6433 382.4742L211.6433 541.3155L211.6433 541.3155L208.5237 541.3155z" stroke="#FF0000" stroke-width="0.4251346" fill="#FF0000" fill-rule="evenodd" /><path id="587" transform="matrix(1 0 0 -1 0 841)" d="M208.5237 541.3155L211.6437 541.3155" stroke="#000000" stroke-width="0.4251346" fill="none" /><path id="588" transform="matrix(1 0 0 -1 0 841)" d="M211.6437 541.3155L211.6437 382.4742" stroke="#000000" stroke-width="0.4251346" fill="none" /><path id="589" transform="matrix(1 0 0 -1 0 841)" d="M208.5237 382.4742L208.5237 541.3155" stroke="#000000" stroke-width="0.4251346" fill="none" /><path id="590" transform="matrix(1 0 0 -1 0 841)" d="M212.4467 382.4742L215.5644 382.4742L215.5644 382.4742L215.5644 448.8436L215.5644 448.8436L212.4467 448.8436z" stroke="#FF0000" stroke-width="0.4251346" fill="#FF0000" fill-rule="evenodd" /><path id="591" transform="matrix(1 0 0 -1 0 841)" d="M212.4467 448.8436L215.5644 448.8436" stroke="#000000" stroke-width="0.4251346" fill="none" /><path id="592" transform="matrix(1 0 0 -1 0 841)" d="M215.5644 448.8436L215.5644 382.4742" stroke="#000000" stroke-width="0.4251346" fill="none" /><path id="593" transform="matrix(1 0 0 -1 0 841)" d="M212.4467 382.4742L212.4467 448.8436" stroke="#000000" stroke-width="0.4251346" fill="none" /><path id="594" transform="matrix(1 0 0 -1 0 841)" d="M216.3674 382.4742L219.5323 382.4742L219.5323 382.4742L219.5323 463.0067L219.5323 463.0067L216.3674 463.0067z" stroke="#FF0000" stroke-width="0.4251346" fill="#FF0000" fill-rule="evenodd" /><path id="595" transform="matrix(1 0 0 -1 0 841)" d="M216.3674 463.0067L219.5323 463.0067" stroke="#000000" stroke-width="0.4251346" fill="none" /><path id="596" transform="matrix(1 0 0 -1 0 841)" d="M219.5323 463.0067L219.5323 382.4742" stroke="#000000" stroke-width="0.4251346" fill="none" /><path id="597" transform="matrix(1 0 0 -1 0 841)" d="M216.3674 382.4742L216.3674 463.0067" stroke="#000000" stroke-width="0.4251346" fill="none" /><path id="598" transform="matrix(1 0 0 -1 0 841)" d="M220.2881 382.4742L223.455 382.4742L223.455 382.4742L223.455 510.4744L223.455 510.4744L220.2881 510.4744z" stroke="#FF0000" stroke-width="0.4251346" fill="#FF0000" fill-rule="evenodd" /><path id="599" transform="matrix(1 0 0 -1 0 841)" d="M220.2881 510.4744L223.4554 510.4744" stroke="#000000" stroke-width="0.4251346" fill="none" /><path id="600" transform="matrix(1 0 0 -1 0 841)" d="M223.4554 510.4744L223.4554 382.4742" stroke="#000000" stroke-width="0.4251346" fill="none" /><path id="601" transform="matrix(1 0 0 -1 0 841)" d="M220.2881 382.4742L220.2881 510.4744" stroke="#000000" stroke-width="0.4251346" fill="none" /><path id="602" transform="matrix(1 0 0 -1 0 841)" d="M224.2104 382.4742L227.3753 382.4742L227.3753 382.4742L227.3753 541.6944L227.3753 541.6944L224.2104 541.6944z" stroke="#FF0000" stroke-width="0.4251346" fill="#FF0000" fill-rule="evenodd" /><path id="603" transform="matrix(1 0 0 -1 0 841)" d="M224.2104 541.6944L227.3761 541.6944" stroke="#000000" stroke-width="0.4251346" fill="none" /><path id="604" transform="matrix(1 0 0 -1 0 841)" d="M227.3761 541.6944L227.3761 382.4742" stroke="#000000" stroke-width="0.4251346" fill="none" /><path id="605" transform="matrix(1 0 0 -1 0 841)" d="M224.2104 382.4742L224.2104 541.6944" stroke="#000000" stroke-width="0.4251346" fill="none" /><path id="606" transform="matrix(1 0 0 -1 0 841)" d="M228.1319 382.4742L231.2968 382.4742L231.2968 382.4742L231.2968 541.6944L231.2968 541.6944L228.1319 541.6944z" stroke="#FF0000" stroke-width="0.4251346" fill="#FF0000" fill-rule="evenodd" /><path id="607" transform="matrix(1 0 0 -1 0 841)" d="M228.1319 541.6944L231.296 541.6944" stroke="#000000" stroke-width="0.4251346" fill="none" /><path id="608" transform="matrix(1 0 0 -1 0 841)" d="M231.296 541.6944L231.296 382.4742" stroke="#000000" stroke-width="0.4251346" fill="none" /><path id="609" transform="matrix(1 0 0 -1 0 841)" d="M228.1319 382.4742L228.1319 541.6944" stroke="#000000" stroke-width="0.4251346" fill="none" /><path id="610" transform="matrix(1 0 0 -1 0 841)" d="M232.0998 382.4742L235.2174 382.4742L235.2174 382.4742L235.2174 435.7676L235.2174 435.7676L232.0998 435.7676z" stroke="#FF0000" stroke-width="0.4251346" fill="#FF0000" fill-rule="evenodd" /><path id="611" transform="matrix(1 0 0 -1 0 841)" d="M232.0998 435.7676L235.2174 435.7676" stroke="#000000" stroke-width="0.4251346" fill="none" /><path id="612" transform="matrix(1 0 0 -1 0 841)" d="M235.2174 435.7676L235.2174 382.4742" stroke="#000000" stroke-width="0.4251346" fill="none" /><path id="613" transform="matrix(1 0 0 -1 0 841)" d="M232.0998 382.4742L232.0998 435.7676" stroke="#000000" stroke-width="0.4251346" fill="none" /><path id="614" transform="matrix(1 0 0 -1 0 841)" d="M236.022 382.4742L239.1397 382.4742L239.1397 382.4742L239.1397 436.0991L239.1397 436.0991L236.022 436.0991z" stroke="#FF0000" stroke-width="0.4251346" fill="#FF0000" fill-rule="evenodd" /><path id="615" transform="matrix(1 0 0 -1 0 841)" d="M236.022 436.0991L239.1397 436.0991" stroke="#000000" stroke-width="0.4251346" fill="none" /><path id="616" transform="matrix(1 0 0 -1 0 841)" d="M239.1397 436.0991L239.1397 382.4742" stroke="#000000" stroke-width="0.4251346" fill="none" /><path id="617" transform="matrix(1 0 0 -1 0 841)" d="M236.022 382.4742L236.022 436.0991" stroke="#000000" stroke-width="0.4251346" fill="none" /><path id="618" transform="matrix(1 0 0 -1 0 841)" d="M239.9427 382.4742L243.0604 382.4742L243.0604 382.4742L243.0604 434.5835L243.0604 434.5835L239.9427 434.5835z" stroke="#FF0000" stroke-width="0.4251346" fill="#FF0000" fill-rule="evenodd" /><path id="619" transform="matrix(1 0 0 -1 0 841)" d="M239.9427 434.5835L243.0604 434.5835" stroke="#000000" stroke-width="0.4251346" fill="none" /><path id="620" transform="matrix(1 0 0 -1 0 841)" d="M243.0604 434.5835L243.0604 382.4742" stroke="#000000" stroke-width="0.4251346" fill="none" /><path id="621" transform="matrix(1 0 0 -1 0 841)" d="M239.9427 382.4742L239.9427 434.5835" stroke="#000000" stroke-width="0.4251346" fill="none" /><path id="622" transform="matrix(1 0 0 -1 0 841)" d="M243.8634 382.4742L247.0283 382.4742L247.0283 382.4742L247.0283 401.5653L247.0283 401.5653L243.8634 401.5653z" stroke="#FF0000" stroke-width="0.4251346" fill="#FF0000" fill-rule="evenodd" /><path id="623" transform="matrix(1 0 0 -1 0 841)" d="M243.8634 401.5653L247.0283 401.5653" stroke="#000000" stroke-width="0.4251346" fill="none" /><path id="624" transform="matrix(1 0 0 -1 0 841)" d="M247.0283 401.5653L247.0283 382.4742" stroke="#000000" stroke-width="0.4251346" fill="none" /><path id="625" transform="matrix(1 0 0 -1 0 841)" d="M243.8634 382.4742L243.8634 401.5653" stroke="#000000" stroke-width="0.4251346" fill="none" /><path id="626" transform="matrix(1 0 0 -1 0 841)" d="M247.7841 382.4742L250.951 382.4742L250.951 382.4742L250.951 398.4378L250.951 398.4378L247.7841 398.4378z" stroke="#FF0000" stroke-width="0.4251346" fill="#FF0000" fill-rule="evenodd" /><path id="627" transform="matrix(1 0 0 -1 0 841)" d="M247.7841 398.4378L250.9514 398.4378" stroke="#000000" stroke-width="0.4251346" fill="none" /><path id="628" transform="matrix(1 0 0 -1 0 841)" d="M250.9514 398.4378L250.9514 382.4742" stroke="#000000" stroke-width="0.4251346" fill="none" /><path id="629" transform="matrix(1 0 0 -1 0 841)" d="M247.7841 382.4742L247.7841 398.4378" stroke="#000000" stroke-width="0.4251346" fill="none" /><path id="630" transform="matrix(1 0 0 -1 0 841)" d="M251.7064 382.4742L254.8712 382.4742L254.8712 382.4742L254.8712 396.7801L254.8712 396.7801L251.7064 396.7801z" stroke="#FF0000" stroke-width="0.4251346" fill="#FF0000" fill-rule="evenodd" /><path id="631" transform="matrix(1 0 0 -1 0 841)" d="M251.7064 396.7801L254.872 396.7801" stroke="#000000" stroke-width="0.4251346" fill="none" /><path id="632" transform="matrix(1 0 0 -1 0 841)" d="M254.872 396.7801L254.872 382.4742" stroke="#000000" stroke-width="0.4251346" fill="none" /><path id="633" transform="matrix(1 0 0 -1 0 841)" d="M251.7064 382.4742L251.7064 396.7801" stroke="#000000" stroke-width="0.4251346" fill="none" /><path id="634" transform="matrix(1 0 0 -1 0 841)" d="M255.6278 382.4742L258.7927 382.4742L258.7927 382.4742L258.7927 404.1703L258.7927 404.1703L255.6278 404.1703z" stroke="#FF0000" stroke-width="0.4251346" fill="#FF0000" fill-rule="evenodd" /><path id="635" transform="matrix(1 0 0 -1 0 841)" d="M255.6278 404.1703L258.7919 404.1703" stroke="#000000" stroke-width="0.4251346" fill="none" /><path id="636" transform="matrix(1 0 0 -1 0 841)" d="M258.7919 404.1703L258.7919 382.4742" stroke="#000000" stroke-width="0.4251346" fill="none" /><path id="637" transform="matrix(1 0 0 -1 0 841)" d="M255.6278 382.4742L255.6278 404.1703" stroke="#000000" stroke-width="0.4251346" fill="none" /><path id="638" transform="matrix(1 0 0 -1 0 841)" d="M259.5958 382.4742L262.7154 382.4742L262.7154 382.4742L262.7154 404.0282L262.7154 404.0282L259.5958 404.0282z" stroke="#FF0000" stroke-width="0.4251346" fill="#FF0000" fill-rule="evenodd" /><path id="639" transform="matrix(1 0 0 -1 0 841)" d="M259.5958 404.0282L262.715 404.0282" stroke="#000000" stroke-width="0.4251346" fill="none" /><path id="640" transform="matrix(1 0 0 -1 0 841)" d="M262.715 404.0282L262.715 382.4742" stroke="#000000" stroke-width="0.4251346" fill="none" /><path id="641" transform="matrix(1 0 0 -1 0 841)" d="M259.5958 382.4742L259.5958 404.0282" stroke="#000000" stroke-width="0.4251346" fill="none" /><path id="642" transform="matrix(1 0 0 -1 0 841)" d="M263.518 382.4742L266.6357 382.4742L266.6357 382.4742L266.6357 394.2699L266.6357 394.2699L263.518 394.2699z" stroke="#FF0000" stroke-width="0.4251346" fill="#FF0000" fill-rule="evenodd" /><path id="643" transform="matrix(1 0 0 -1 0 841)" d="M263.518 394.2699L266.6357 394.2699" stroke="#000000" stroke-width="0.4251346" fill="none" /><path id="644" transform="matrix(1 0 0 -1 0 841)" d="M266.6357 394.2699L266.6357 382.4742" stroke="#000000" stroke-width="0.4251346" fill="none" /><path id="645" transform="matrix(1 0 0 -1 0 841)" d="M263.518 382.4742L263.518 394.2699" stroke="#000000" stroke-width="0.4251346" fill="none" /><path id="646" transform="matrix(1 0 0 -1 0 841)" d="M267.4387 382.4742L270.5564 382.4742L270.5564 382.4742L270.5564 393.0858L270.5564 393.0858L267.4387 393.0858z" stroke="#FF0000" stroke-width="0.4251346" fill="#FF0000" fill-rule="evenodd" /><path id="647" transform="matrix(1 0 0 -1 0 841)" d="M267.4387 393.0858L270.5564 393.0858" stroke="#000000" stroke-width="0.4251346" fill="none" /><path id="648" transform="matrix(1 0 0 -1 0 841)" d="M270.5564 393.0858L270.5564 382.4742" stroke="#000000" stroke-width="0.4251346" fill="none" /><path id="649" transform="matrix(1 0 0 -1 0 841)" d="M267.4387 382.4742L267.4387 393.0858" stroke="#000000" stroke-width="0.4251346" fill="none" /><path id="650" transform="matrix(1 0 0 -1 0 841)" d="M271.3594 382.4742L274.5243 382.4742L274.5243 382.4742L274.5243 391.8536L274.5243 391.8536L271.3594 391.8536z" stroke="#FF0000" stroke-width="0.4251346" fill="#FF0000" fill-rule="evenodd" /><path id="651" transform="matrix(1 0 0 -1 0 841)" d="M271.3594 391.8544L274.5243 391.8544" stroke="#000000" stroke-width="0.4251346" fill="none" /><path id="652" transform="matrix(1 0 0 -1 0 841)" d="M274.5243 391.8544L274.5243 382.4742" stroke="#000000" stroke-width="0.4251346" fill="none" /><path id="653" transform="matrix(1 0 0 -1 0 841)" d="M271.3594 382.4742L271.3594 391.8544" stroke="#000000" stroke-width="0.4251346" fill="none" /><path id="654" transform="matrix(1 0 0 -1 0 841)" d="M275.2816 382.4742L278.4465 382.4742L278.4465 382.4742L278.4465 391.7123L278.4465 391.7123L275.2816 391.7123z" stroke="#FF0000" stroke-width="0.4251346" fill="#FF0000" fill-rule="evenodd" /><path id="655" transform="matrix(1 0 0 -1 0 841)" d="M275.2816 391.7123L278.4465 391.7123" stroke="#000000" stroke-width="0.4251346" fill="none" /><path id="656" transform="matrix(1 0 0 -1 0 841)" d="M278.4465 391.7123L278.4465 382.4742" stroke="#000000" stroke-width="0.4251346" fill="none" /><path id="657" transform="matrix(1 0 0 -1 0 841)" d="M275.2816 382.4742L275.2816 391.7123" stroke="#000000" stroke-width="0.4251346" fill="none" /><path id="658" transform="matrix(1 0 0 -1 0 841)" d="M279.2023 382.4742L282.3672 382.4742L282.3672 382.4742L282.3672 391.4755L282.3672 391.4755L279.2023 391.4755z" stroke="#FF0000" stroke-width="0.4251346" fill="#FF0000" fill-rule="evenodd" /><path id="659" transform="matrix(1 0 0 -1 0 841)" d="M279.2023 391.4755L282.3672 391.4755" stroke="#000000" stroke-width="0.4251346" fill="none" /><path id="660" transform="matrix(1 0 0 -1 0 841)" d="M282.3672 391.4755L282.3672 382.4742" stroke="#000000" stroke-width="0.4251346" fill="none" /><path id="661" transform="matrix(1 0 0 -1 0 841)" d="M279.2023 382.4742L279.2023 391.4755" stroke="#000000" stroke-width="0.4251346" fill="none" /><path id="662" transform="matrix(1 0 0 -1 0 841)" d="M283.1238 382.4742L286.2887 382.4742L286.2887 382.4742L286.2887 392.8008L286.2887 392.8008L283.1238 392.8008z" stroke="#FF0000" stroke-width="0.4251346" fill="#FF0000" fill-rule="evenodd" /><path id="663" transform="matrix(1 0 0 -1 0 841)" d="M283.1238 392.8016L286.2879 392.8016" stroke="#000000" stroke-width="0.4251346" fill="none" /><path id="664" transform="matrix(1 0 0 -1 0 841)" d="M286.2879 392.8016L286.2879 382.4742" stroke="#000000" stroke-width="0.4251346" fill="none" /><path id="665" transform="matrix(1 0 0 -1 0 841)" d="M283.1238 382.4742L283.1238 392.8016" stroke="#000000" stroke-width="0.4251346" fill="none" /><path id="666" transform="matrix(1 0 0 -1 0 841)" d="M287.0909 382.4742L290.2106 382.4742L290.2106 382.4742L290.2106 401.7548L290.2106 401.7548L287.0909 401.7548z" stroke="#FF0000" stroke-width="0.4251346" fill="#FF0000" fill-rule="evenodd" /><path id="667" transform="matrix(1 0 0 -1 0 841)" d="M287.0909 401.7548L290.211 401.7548" stroke="#000000" stroke-width="0.4251346" fill="none" /><path id="668" transform="matrix(1 0 0 -1 0 841)" d="M290.211 401.7548L290.211 382.4742" stroke="#000000" stroke-width="0.4251346" fill="none" /><path id="669" transform="matrix(1 0 0 -1 0 841)" d="M287.0909 382.4742L287.0909 401.7548" stroke="#000000" stroke-width="0.4251346" fill="none" /><path id="670" transform="matrix(1 0 0 -1 0 841)" d="M291.014 382.4742L294.1317 382.4742L294.1317 382.4742L294.1317 394.0331L294.1317 394.0331L291.014 394.0331z" stroke="#FF0000" stroke-width="0.4251346" fill="#FF0000" fill-rule="evenodd" /><path id="671" transform="matrix(1 0 0 -1 0 841)" d="M291.014 394.0331L294.1317 394.0331" stroke="#000000" stroke-width="0.4251346" fill="none" /><path id="672" transform="matrix(1 0 0 -1 0 841)" d="M294.1317 394.0331L294.1317 382.4742" stroke="#000000" stroke-width="0.4251346" fill="none" /><path id="673" transform="matrix(1 0 0 -1 0 841)" d="M291.014 382.4742L291.014 394.0331" stroke="#000000" stroke-width="0.4251346" fill="none" /><path id="674" transform="matrix(1 0 0 -1 0 841)" d="M294.9347 382.4742L298.0523 382.4742L298.0523 382.4742L298.0523 434.5361L298.0523 434.5361L294.9347 434.5361z" stroke="#FF0000" stroke-width="0.4251346" fill="#FF0000" fill-rule="evenodd" /><path id="675" transform="matrix(1 0 0 -1 0 841)" d="M294.9347 434.5361L298.0523 434.5361" stroke="#000000" stroke-width="0.4251346" fill="none" /><path id="676" transform="matrix(1 0 0 -1 0 841)" d="M298.0523 434.5361L298.0523 382.4742" stroke="#000000" stroke-width="0.4251346" fill="none" /><path id="677" transform="matrix(1 0 0 -1 0 841)" d="M294.9347 382.4742L294.9347 434.5361" stroke="#000000" stroke-width="0.4251346" fill="none" /><path id="678" transform="matrix(1 0 0 -1 0 841)" d="M298.8554 382.4742L302.0222 382.4742L302.0222 382.4742L302.0222 407.2962L302.0222 407.2962L298.8554 407.2962z" stroke="#FF0000" stroke-width="0.4251346" fill="#FF0000" fill-rule="evenodd" /><path id="679" transform="matrix(1 0 0 -1 0 841)" d="M298.8554 407.2962L302.0218 407.2962" stroke="#000000" stroke-width="0.4251346" fill="none" /><path id="680" transform="matrix(1 0 0 -1 0 841)" d="M302.0218 407.2962L302.0218 382.4742" stroke="#000000" stroke-width="0.4251346" fill="none" /><path id="681" transform="matrix(1 0 0 -1 0 841)" d="M298.8554 382.4742L298.8554 407.2962" stroke="#000000" stroke-width="0.4251346" fill="none" /><path id="682" transform="matrix(1 0 0 -1 0 841)" d="M302.7776 382.4742L305.9425 382.4742L305.9425 382.4742L305.9425 392.5175L305.9425 392.5175L302.7776 392.5175z" stroke="#FF0000" stroke-width="0.4251346" fill="#FF0000" fill-rule="evenodd" /><path id="683" transform="matrix(1 0 0 -1 0 841)" d="M302.7776 392.5175L305.9425 392.5175" stroke="#000000" stroke-width="0.4251346" fill="none" /><path id="684" transform="matrix(1 0 0 -1 0 841)" d="M305.9425 392.5175L305.9425 382.4742" stroke="#000000" stroke-width="0.4251346" fill="none" /><path id="685" transform="matrix(1 0 0 -1 0 841)" d="M302.7776 382.4742L302.7776 392.5175" stroke="#000000" stroke-width="0.4251346" fill="none" /><path id="686" transform="matrix(1 0 0 -1 0 841)" d="M306.6983 382.4742L309.8632 382.4742L309.8632 382.4742L309.8632 416.0133L309.8632 416.0133L306.6983 416.0133z" stroke="#FF0000" stroke-width="0.4251346" fill="#FF0000" fill-rule="evenodd" /><path id="687" transform="matrix(1 0 0 -1 0 841)" d="M306.6983 416.0133L309.8632 416.0133" stroke="#000000" stroke-width="0.4251346" fill="none" /><path id="688" transform="matrix(1 0 0 -1 0 841)" d="M309.8632 416.0133L309.8632 382.4742" stroke="#000000" stroke-width="0.4251346" fill="none" /><path id="689" transform="matrix(1 0 0 -1 0 841)" d="M306.6983 382.4742L306.6983 416.0133" stroke="#000000" stroke-width="0.4251346" fill="none" /><path id="690" transform="matrix(1 0 0 -1 0 841)" d="M310.6198 382.4742L313.7847 382.4742L313.7847 382.4742L313.7847 394.7909L313.7847 394.7909L310.6198 394.7909z" stroke="#FF0000" stroke-width="0.4251346" fill="#FF0000" fill-rule="evenodd" /><path id="691" transform="matrix(1 0 0 -1 0 841)" d="M310.6198 394.7909L313.7839 394.7909" stroke="#000000" stroke-width="0.4251346" fill="none" /><path id="692" transform="matrix(1 0 0 -1 0 841)" d="M313.7839 394.7909L313.7839 382.4742" stroke="#000000" stroke-width="0.4251346" fill="none" /><path id="693" transform="matrix(1 0 0 -1 0 841)" d="M310.6198 382.4742L310.6198 394.7909" stroke="#000000" stroke-width="0.4251346" fill="none" /><path id="694" transform="matrix(1 0 0 -1 0 841)" d="M314.5893 382.4742L317.7069 382.4742L317.7069 382.4742L317.7069 395.7855L317.7069 395.7855L314.5893 395.7855z" stroke="#FF0000" stroke-width="0.4251346" fill="#FF0000" fill-rule="evenodd" /><path id="695" transform="matrix(1 0 0 -1 0 841)" d="M314.5893 395.7855L317.7069 395.7855" stroke="#000000" stroke-width="0.4251346" fill="none" /><path id="696" transform="matrix(1 0 0 -1 0 841)" d="M317.7069 395.7855L317.7069 382.4742" stroke="#000000" stroke-width="0.4251346" fill="none" /><path id="697" transform="matrix(1 0 0 -1 0 841)" d="M314.5893 382.4742L314.5893 395.7855" stroke="#000000" stroke-width="0.4251346" fill="none" /><path id="698" transform="matrix(1 0 0 -1 0 841)" d="M318.5099 382.4742L321.6276 382.4742L321.6276 382.4742L321.6276 393.9383L321.6276 393.9383L318.5099 393.9383z" stroke="#FF0000" stroke-width="0.4251346" fill="#FF0000" fill-rule="evenodd" /><path id="699" transform="matrix(1 0 0 -1 0 841)" d="M318.5099 393.9383L321.6276 393.9383" stroke="#000000" stroke-width="0.4251346" fill="none" /><path id="700" transform="matrix(1 0 0 -1 0 841)" d="M321.6276 393.9383L321.6276 382.4742" stroke="#000000" stroke-width="0.4251346" fill="none" /><path id="701" transform="matrix(1 0 0 -1 0 841)" d="M318.5099 382.4742L318.5099 393.9383" stroke="#000000" stroke-width="0.4251346" fill="none" /><path id="702" transform="matrix(1 0 0 -1 0 841)" d="M322.4307 382.4742L325.5483 382.4742L325.5483 382.4742L325.5483 398.3431L325.5483 398.3431L322.4307 398.3431z" stroke="#FF0000" stroke-width="0.4251346" fill="#FF0000" fill-rule="evenodd" /><path id="703" transform="matrix(1 0 0 -1 0 841)" d="M322.4307 398.3431L325.5483 398.3431" stroke="#000000" stroke-width="0.4251346" fill="none" /><path id="704" transform="matrix(1 0 0 -1 0 841)" d="M325.5483 398.3431L325.5483 382.4742" stroke="#000000" stroke-width="0.4251346" fill="none" /><path id="705" transform="matrix(1 0 0 -1 0 841)" d="M322.4307 382.4742L322.4307 398.3431" stroke="#000000" stroke-width="0.4251346" fill="none" /><path id="706" transform="matrix(1 0 0 -1 0 841)" d="M326.3513 382.4742L329.5182 382.4742L329.5182 382.4742L329.5182 395.6426L329.5182 395.6426L326.3513 395.6426z" stroke="#FF0000" stroke-width="0.4251346" fill="#FF0000" fill-rule="evenodd" /><path id="707" transform="matrix(1 0 0 -1 0 841)" d="M326.3513 395.6434L329.5178 395.6434" stroke="#000000" stroke-width="0.4251346" fill="none" /><path id="708" transform="matrix(1 0 0 -1 0 841)" d="M329.5178 395.6434L329.5178 382.4742" stroke="#000000" stroke-width="0.4251346" fill="none" /><path id="709" transform="matrix(1 0 0 -1 0 841)" d="M326.3513 382.4742L326.3513 395.6434" stroke="#000000" stroke-width="0.4251346" fill="none" /><path id="710" transform="matrix(1 0 0 -1 0 841)" d="M330.2736 382.4742L333.4385 382.4742L333.4385 382.4742L333.4385 398.201L333.4385 398.201L330.2736 398.201z" stroke="#FF0000" stroke-width="0.4251346" fill="#FF0000" fill-rule="evenodd" /><path id="711" transform="matrix(1 0 0 -1 0 841)" d="M330.2736 398.201L333.4385 398.201" stroke="#000000" stroke-width="0.4251346" fill="none" /><path id="712" transform="matrix(1 0 0 -1 0 841)" d="M333.4385 398.201L333.4385 382.4742" stroke="#000000" stroke-width="0.4251346" fill="none" /><path id="713" transform="matrix(1 0 0 -1 0 841)" d="M330.2736 382.4742L330.2736 398.201" stroke="#000000" stroke-width="0.4251346" fill="none" /><path id="714" transform="matrix(1 0 0 -1 0 841)" d="M334.1943 382.4742L337.3592 382.4742L337.3592 382.4742L337.3592 392.6122L337.3592 392.6122L334.1943 392.6122z" stroke="#FF0000" stroke-width="0.4251346" fill="#FF0000" fill-rule="evenodd" /><path id="715" transform="matrix(1 0 0 -1 0 841)" d="M334.1943 392.6122L337.3592 392.6122" stroke="#000000" stroke-width="0.4251346" fill="none" /><path id="716" transform="matrix(1 0 0 -1 0 841)" d="M337.3592 392.6122L337.3592 382.4742" stroke="#000000" stroke-width="0.4251346" fill="none" /><path id="717" transform="matrix(1 0 0 -1 0 841)" d="M334.1943 382.4742L334.1943 392.6122" stroke="#000000" stroke-width="0.4251346" fill="none" /><path id="718" transform="matrix(1 0 0 -1 0 841)" d="M338.1158 382.4742L341.2826 382.4742L341.2826 382.4742L341.2826 395.9276L341.2826 395.9276L338.1158 395.9276z" stroke="#FF0000" stroke-width="0.4251346" fill="#FF0000" fill-rule="evenodd" /><path id="719" transform="matrix(1 0 0 -1 0 841)" d="M338.1158 395.9276L341.2822 395.9276" stroke="#000000" stroke-width="0.4251346" fill="none" /><path id="720" transform="matrix(1 0 0 -1 0 841)" d="M341.2822 395.9276L341.2822 382.4742" stroke="#000000" stroke-width="0.4251346" fill="none" /><path id="721" transform="matrix(1 0 0 -1 0 841)" d="M338.1158 382.4742L338.1158 395.9276" stroke="#000000" stroke-width="0.4251346" fill="none" /><path id="722" transform="matrix(1 0 0 -1 0 841)" d="M342.0852 382.4742L345.2029 382.4742L345.2029 382.4742L345.2029 396.1162L345.2029 396.1162L342.0852 396.1162z" stroke="#FF0000" stroke-width="0.4251346" fill="#FF0000" fill-rule="evenodd" /><path id="723" transform="matrix(1 0 0 -1 0 841)" d="M342.0852 396.117L345.2029 396.117" stroke="#000000" stroke-width="0.4251346" fill="none" /><path id="724" transform="matrix(1 0 0 -1 0 841)" d="M345.2029 396.117L345.2029 382.4742" stroke="#000000" stroke-width="0.4251346" fill="none" /><path id="725" transform="matrix(1 0 0 -1 0 841)" d="M342.0852 382.4742L342.0852 396.117" stroke="#000000" stroke-width="0.4251346" fill="none" /><path id="726" transform="matrix(1 0 0 -1 0 841)" d="M346.006 382.4742L349.1236 382.4742L349.1236 382.4742L349.1236 392.4227L349.1236 392.4227L346.006 392.4227z" stroke="#FF0000" stroke-width="0.4251346" fill="#FF0000" fill-rule="evenodd" /><path id="727" transform="matrix(1 0 0 -1 0 841)" d="M346.006 392.4227L349.1236 392.4227" stroke="#000000" stroke-width="0.4251346" fill="none" /><path id="728" transform="matrix(1 0 0 -1 0 841)" d="M349.1236 392.4227L349.1236 382.4742" stroke="#000000" stroke-width="0.4251346" fill="none" /><path id="729" transform="matrix(1 0 0 -1 0 841)" d="M346.006 382.4742L346.006 392.4227" stroke="#000000" stroke-width="0.4251346" fill="none" /><path id="730" transform="matrix(1 0 0 -1 0 841)" d="M349.9266 382.4742L353.0443 382.4742L353.0443 382.4742L353.0443 396.7801L353.0443 396.7801L349.9266 396.7801z" stroke="#FF0000" stroke-width="0.4251346" fill="#FF0000" fill-rule="evenodd" /><path id="731" transform="matrix(1 0 0 -1 0 841)" d="M349.9266 396.7801L353.0443 396.7801" stroke="#000000" stroke-width="0.4251346" fill="none" /><path id="732" transform="matrix(1 0 0 -1 0 841)" d="M353.0443 396.7801L353.0443 382.4742" stroke="#000000" stroke-width="0.4251346" fill="none" /><path id="733" transform="matrix(1 0 0 -1 0 841)" d="M349.9266 382.4742L349.9266 396.7801" stroke="#000000" stroke-width="0.4251346" fill="none" /><path id="734" transform="matrix(1 0 0 -1 0 841)" d="M353.8489 382.4742L357.0138 382.4742L357.0138 382.4742L357.0138 392.8008L357.0138 392.8008L353.8489 392.8008z" stroke="#FF0000" stroke-width="0.4251346" fill="#FF0000" fill-rule="evenodd" /><path id="735" transform="matrix(1 0 0 -1 0 841)" d="M353.8489 392.8016L357.0138 392.8016" stroke="#000000" stroke-width="0.4251346" fill="none" /><path id="736" transform="matrix(1 0 0 -1 0 841)" d="M357.0138 392.8016L357.0138 382.4742" stroke="#000000" stroke-width="0.4251346" fill="none" /><path id="737" transform="matrix(1 0 0 -1 0 841)" d="M353.8489 382.4742L353.8489 392.8016" stroke="#000000" stroke-width="0.4251346" fill="none" /><path id="738" transform="matrix(1 0 0 -1 0 841)" d="M357.7696 382.4742L360.9344 382.4742L360.9344 382.4742L360.9344 403.8861L360.9344 403.8861L357.7696 403.8861z" stroke="#FF0000" stroke-width="0.4251346" fill="#FF0000" fill-rule="evenodd" /><path id="739" transform="matrix(1 0 0 -1 0 841)" d="M357.7696 403.8861L360.9345 403.8861" stroke="#000000" stroke-width="0.4251346" fill="none" /><path id="740" transform="matrix(1 0 0 -1 0 841)" d="M360.9345 403.8861L360.9345 382.4742" stroke="#000000" stroke-width="0.4251346" fill="none" /><path id="741" transform="matrix(1 0 0 -1 0 841)" d="M357.7696 382.4742L357.7696 403.8861" stroke="#000000" stroke-width="0.4251346" fill="none" /><path id="742" transform="matrix(1 0 0 -1 0 841)" d="M361.6902 382.4742L364.8551 382.4742L364.8551 382.4742L364.8551 431.1734L364.8551 431.1734L361.6902 431.1734z" stroke="#FF0000" stroke-width="0.4251346" fill="#FF0000" fill-rule="evenodd" /><path id="743" transform="matrix(1 0 0 -1 0 841)" d="M361.6902 431.1734L364.8551 431.1734" stroke="#000000" stroke-width="0.4251346" fill="none" /><path id="744" transform="matrix(1 0 0 -1 0 841)" d="M364.8551 431.1734L364.8551 382.4742" stroke="#000000" stroke-width="0.4251346" fill="none" /><path id="745" transform="matrix(1 0 0 -1 0 841)" d="M361.6902 382.4742L361.6902 431.1734" stroke="#000000" stroke-width="0.4251346" fill="none" /><path id="746" transform="matrix(1 0 0 -1 0 841)" d="M365.6117 382.4742L368.7786 382.4742L368.7786 382.4742L368.7786 448.3226L368.7786 448.3226L365.6117 448.3226z" stroke="#FF0000" stroke-width="0.4251346" fill="#FF0000" fill-rule="evenodd" /><path id="747" transform="matrix(1 0 0 -1 0 841)" d="M365.6117 448.3226L368.7782 448.3226" stroke="#000000" stroke-width="0.4251346" fill="none" /><path id="748" transform="matrix(1 0 0 -1 0 841)" d="M368.7782 448.3226L368.7782 382.4742" stroke="#000000" stroke-width="0.4251346" fill="none" /><path id="749" transform="matrix(1 0 0 -1 0 841)" d="M365.6117 382.4742L365.6117 448.3226" stroke="#000000" stroke-width="0.4251346" fill="none" /><path id="750" transform="matrix(1 0 0 -1 0 841)" d="M369.5812 382.4742L372.6989 382.4742L372.6989 382.4742L372.6989 446.0492L372.6989 446.0492L369.5812 446.0492z" stroke="#FF0000" stroke-width="0.4251346" fill="#FF0000" fill-rule="evenodd" /><path id="751" transform="matrix(1 0 0 -1 0 841)" d="M369.5812 446.0492L372.6989 446.0492" stroke="#000000" stroke-width="0.4251346" fill="none" /><path id="752" transform="matrix(1 0 0 -1 0 841)" d="M372.6989 446.0492L372.6989 382.4742" stroke="#000000" stroke-width="0.4251346" fill="none" /><path id="753" transform="matrix(1 0 0 -1 0 841)" d="M369.5812 382.4742L369.5812 446.0492" stroke="#000000" stroke-width="0.4251346" fill="none" /><path id="754" transform="matrix(1 0 0 -1 0 841)" d="M373.5019 382.4742L376.6196 382.4742L376.6196 382.4742L376.6196 399.2919L376.6196 399.2919L373.5019 399.2919z" stroke="#FF0000" stroke-width="0.4251346" fill="#FF0000" fill-rule="evenodd" /><path id="755" transform="matrix(1 0 0 -1 0 841)" d="M373.5019 399.2919L376.6196 399.2919" stroke="#000000" stroke-width="0.4251346" fill="none" /><path id="756" transform="matrix(1 0 0 -1 0 841)" d="M376.6196 399.2919L376.6196 382.4742" stroke="#000000" stroke-width="0.4251346" fill="none" /><path id="757" transform="matrix(1 0 0 -1 0 841)" d="M373.5019 382.4742L373.5019 399.2919" stroke="#000000" stroke-width="0.4251346" fill="none" /><path id="758" transform="matrix(1 0 0 -1 0 841)" d="M377.4226 382.4742L380.5422 382.4742L380.5422 382.4742L380.5422 411.5139L380.5422 411.5139L377.4226 411.5139z" stroke="#FF0000" stroke-width="0.4251346" fill="#FF0000" fill-rule="evenodd" /><path id="759" transform="matrix(1 0 0 -1 0 841)" d="M377.4226 411.5139L380.5418 411.5139" stroke="#000000" stroke-width="0.4251346" fill="none" /><path id="760" transform="matrix(1 0 0 -1 0 841)" d="M380.5418 411.5139L380.5418 382.4742" stroke="#000000" stroke-width="0.4251346" fill="none" /><path id="761" transform="matrix(1 0 0 -1 0 841)" d="M377.4226 382.4742L377.4226 411.5139" stroke="#000000" stroke-width="0.4251346" fill="none" /><path id="762" transform="matrix(1 0 0 -1 0 841)" d="M381.3449 382.4742L384.5098 382.4742L384.5098 382.4742L384.5098 412.4611L384.5098 412.4611L381.3449 412.4611z" stroke="#FF0000" stroke-width="0.4251346" fill="#FF0000" fill-rule="evenodd" /><path id="763" transform="matrix(1 0 0 -1 0 841)" d="M381.3449 412.4611L384.5098 412.4611" stroke="#000000" stroke-width="0.4251346" fill="none" /><path id="764" transform="matrix(1 0 0 -1 0 841)" d="M384.5098 412.4611L384.5098 382.4742" stroke="#000000" stroke-width="0.4251346" fill="none" /><path id="765" transform="matrix(1 0 0 -1 0 841)" d="M381.3449 382.4742L381.3449 412.4611" stroke="#000000" stroke-width="0.4251346" fill="none" /><path id="766" transform="matrix(1 0 0 -1 0 841)" d="M385.2655 382.4742L388.4304 382.4742L388.4304 382.4742L388.4304 399.8129L388.4304 399.8129L385.2655 399.8129z" stroke="#FF0000" stroke-width="0.4251346" fill="#FF0000" fill-rule="evenodd" /><path id="767" transform="matrix(1 0 0 -1 0 841)" d="M385.2655 399.8129L388.4305 399.8129" stroke="#000000" stroke-width="0.4251346" fill="none" /><path id="768" transform="matrix(1 0 0 -1 0 841)" d="M388.4305 399.8129L388.4305 382.4742" stroke="#000000" stroke-width="0.4251346" fill="none" /><path id="769" transform="matrix(1 0 0 -1 0 841)" d="M385.2655 382.4742L385.2655 399.8129" stroke="#000000" stroke-width="0.4251346" fill="none" /></g><path id="813" transform="matrix(1 0 0 -1 0 841)" d="M176.6827 380.8165L176.6827 382.4742" stroke="#000000" stroke-width="0.6140833" fill="none" /><path id="814" transform="matrix(1 0 0 -1 0 841)" d="M186.5096 379.2046L186.5096 382.4742" stroke="#000000" stroke-width="0.6140833" fill="none" /><path id="815" transform="matrix(1 0 0 -1 0 841)" d="M196.3373 380.8165L196.3373 382.4742" stroke="#000000" stroke-width="0.6140833" fill="none" /><path id="816" transform="matrix(1 0 0 -1 0 841)" d="M206.1618 379.2046L206.1618 382.4742" stroke="#000000" stroke-width="0.6140833" fill="none" /><path id="817" transform="matrix(1 0 0 -1 0 841)" d="M215.9895 380.8165L215.9895 382.4742" stroke="#000000" stroke-width="0.6140833" fill="none" /><path id="818" transform="matrix(1 0 0 -1 0 841)" d="M225.8172 379.2046L225.8172 382.4742" stroke="#000000" stroke-width="0.6140833" fill="none" /><path id="819" transform="matrix(1 0 0 -1 0 841)" d="M235.5953 380.8165L235.5953 382.4742" stroke="#000000" stroke-width="0.6140833" fill="none" /><path id="820" transform="matrix(1 0 0 -1 0 841)" d="M245.4222 379.2046L245.4222 382.4742" stroke="#000000" stroke-width="0.6140833" fill="none" /><path id="821" transform="matrix(1 0 0 -1 0 841)" d="M255.2491 380.8165L255.2491 382.4742" stroke="#000000" stroke-width="0.6140833" fill="none" /><path id="822" transform="matrix(1 0 0 -1 0 841)" d="M265.0768 379.2046L265.0768 382.4742" stroke="#000000" stroke-width="0.6140833" fill="none" /><path id="823" transform="matrix(1 0 0 -1 0 841)" d="M274.9022 380.8165L274.9022 382.4742" stroke="#000000" stroke-width="0.6140833" fill="none" /><path id="824" transform="matrix(1 0 0 -1 0 841)" d="M284.7291 379.2046L284.7291 382.4742" stroke="#000000" stroke-width="0.6140833" fill="none" /><path id="825" transform="matrix(1 0 0 -1 0 841)" d="M294.5568 380.8165L294.5568 382.4742" stroke="#000000" stroke-width="0.6140833" fill="none" /><path id="826" transform="matrix(1 0 0 -1 0 841)" d="M304.3365 379.2046L304.3365 382.4742" stroke="#000000" stroke-width="0.6140833" fill="none" /><path id="827" transform="matrix(1 0 0 -1 0 841)" d="M314.1626 380.8165L314.1626 382.4742" stroke="#000000" stroke-width="0.6140833" fill="none" /><path id="828" transform="matrix(1 0 0 -1 0 841)" d="M323.9895 379.2046L323.9895 382.4742" stroke="#000000" stroke-width="0.6140833" fill="none" /><path id="829" transform="matrix(1 0 0 -1 0 841)" d="M333.8164 380.8165L333.8164 382.4742" stroke="#000000" stroke-width="0.6140833" fill="none" /><path id="830" transform="matrix(1 0 0 -1 0 841)" d="M343.6441 379.2046L343.6441 382.4742" stroke="#000000" stroke-width="0.6140833" fill="none" /><path id="831" transform="matrix(1 0 0 -1 0 841)" d="M353.4694 380.8165L353.4694 382.4742" stroke="#000000" stroke-width="0.6140833" fill="none" /><path id="832" transform="matrix(1 0 0 -1 0 841)" d="M363.2963 379.2046L363.2963 382.4742" stroke="#000000" stroke-width="0.6140833" fill="none" /><path id="833" transform="matrix(1 0 0 -1 0 841)" d="M373.0768 380.8165L373.0768 382.4742" stroke="#000000" stroke-width="0.6140833" fill="none" /><path id="834" transform="matrix(1 0 0 -1 0 841)" d="M382.9037 379.2046L382.9037 382.4742" stroke="#000000" stroke-width="0.6140833" fill="none" /><path id="835" transform="matrix(1 0 0 -1 0 841)" d="M168.839 382.4742L388.8083 382.4742" stroke="#000000" stroke-width="0.6140833" fill="none" /><path id="836" transform="matrix(1 0 0 -1 0 841)" d="M168.839 382.4742L388.8083 382.4742" stroke="#000000" stroke-width="0.6140833" fill="none" /><path id="837" transform="matrix(1 0 0 -1 0 841)" d="M165.5796 382.4742L168.839 382.4742" stroke="#000000" stroke-width="0.6140833" fill="none" /><path id="838" transform="matrix(1 0 0 -1 0 841)" d="M167.1857 390.6229L168.839 390.6229" stroke="#000000" stroke-width="0.6140833" fill="none" /><path id="839" transform="matrix(1 0 0 -1 0 841)" d="M165.5796 398.8183L168.839 398.8183" stroke="#000000" stroke-width="0.6140833" fill="none" /><path id="840" transform="matrix(1 0 0 -1 0 841)" d="M167.1857 406.9647L168.839 406.9647" stroke="#000000" stroke-width="0.6140833" fill="none" /><path id="841" transform="matrix(1 0 0 -1 0 841)" d="M165.5796 415.1608L168.839 415.1608" stroke="#000000" stroke-width="0.6140833" fill="none" /><path id="842" transform="matrix(1 0 0 -1 0 841)" d="M167.1857 423.3088L168.839 423.3088" stroke="#000000" stroke-width="0.6140833" fill="none" /><path id="843" transform="matrix(1 0 0 -1 0 841)" d="M165.5796 431.4576L168.839 431.4576" stroke="#000000" stroke-width="0.6140833" fill="none" /><path id="844" transform="matrix(1 0 0 -1 0 841)" d="M167.1857 439.6529L168.839 439.6529" stroke="#000000" stroke-width="0.6140833" fill="none" /><path id="845" transform="matrix(1 0 0 -1 0 841)" d="M165.5796 447.8016L168.839 447.8016" stroke="#000000" stroke-width="0.6140833" fill="none" /><path id="846" transform="matrix(1 0 0 -1 0 841)" d="M167.1857 455.997L168.839 455.997" stroke="#000000" stroke-width="0.6140833" fill="none" /><path id="847" transform="matrix(1 0 0 -1 0 841)" d="M165.5796 464.1434L168.839 464.1434" stroke="#000000" stroke-width="0.6140833" fill="none" /><path id="848" transform="matrix(1 0 0 -1 0 841)" d="M167.1857 472.2921L168.839 472.2921" stroke="#000000" stroke-width="0.6140833" fill="none" /><path id="849" transform="matrix(1 0 0 -1 0 841)" d="M165.5796 480.4875L168.839 480.4875" stroke="#000000" stroke-width="0.6140833" fill="none" /><path id="850" transform="matrix(1 0 0 -1 0 841)" d="M167.1857 488.6363L168.839 488.6363" stroke="#000000" stroke-width="0.6140833" fill="none" /><path id="851" transform="matrix(1 0 0 -1 0 841)" d="M165.5796 496.8316L168.839 496.8316" stroke="#000000" stroke-width="0.6140833" fill="none" /><path id="852" transform="matrix(1 0 0 -1 0 841)" d="M167.1857 504.9803L168.839 504.9803" stroke="#000000" stroke-width="0.6140833" fill="none" /><path id="853" transform="matrix(1 0 0 -1 0 841)" d="M165.5796 513.1283L168.839 513.1283" stroke="#000000" stroke-width="0.6140833" fill="none" /><path id="854" transform="matrix(1 0 0 -1 0 841)" d="M167.1857 521.3245L168.839 521.3245" stroke="#000000" stroke-width="0.6140833" fill="none" /><path id="855" transform="matrix(1 0 0 -1 0 841)" d="M165.5796 529.4708L168.839 529.4708" stroke="#000000" stroke-width="0.6140833" fill="none" /><path id="856" transform="matrix(1 0 0 -1 0 841)" d="M167.1857 537.6662L168.839 537.6662" stroke="#000000" stroke-width="0.6140833" fill="none" /><path id="857" transform="matrix(1 0 0 -1 0 841)" d="M165.5796 545.8149L168.839 545.8149" stroke="#000000" stroke-width="0.6140833" fill="none" /><path id="858" transform="matrix(1 0 0 -1 0 841)" d="M168.839 382.4742L168.839 545.8149" stroke="#000000" stroke-width="0.6140833" fill="none" /><path id="859" transform="matrix(1 0 0 -1 0 841)" d="M139.7763 451.0174C 137.7104 451.0174 136.4736 452.2461 136.4736 454.0054C 136.4736 454.5815 136.6109 455.1007 136.8854 455.5633C 137.1599 456.0258 137.5427 456.3784 138.0337 456.621C 138.5247 456.8636 139.0815 456.9849 139.7042 456.9849C 140.3353 456.9849 140.8999 456.8572 141.398 456.6018C 141.8961 456.3465 142.2732 455.9847 142.5293 455.5164C 142.7854 455.0482 142.9135 454.5432 142.9135 454.0012C 142.9135 453.4138 142.772 452.8889 142.489 452.4263C 142.2059 451.9638 141.8196 451.6133 141.33 451.375C 140.8404 451.1366 140.3225 451.0174 139.7763 451.0174zM139.7891 451.8687C 141.289 451.8687 142.2088 452.7768 142.2088 453.9969C 142.2088 455.2398 141.3017 456.1336 139.6999 456.1336C 139.1933 456.1336 138.7511 456.0478 138.3733 455.8761C 137.9955 455.7045 137.7026 455.4533 137.4946 455.1227C 137.2866 454.7922 137.1826 454.4211 137.1826 454.0097C 137.1826 452.8406 137.9155 451.8687 139.7891 451.8687z" stroke="none" fill="#000000" fill-rule="evenodd" /><path id="860" transform="matrix(1 0 0 -1 0 841)" d="M142.8073 458.0505L136.584 458.0505L136.584 458.0505L136.584 460.2C 136.584 460.6852 136.6137 461.0555 136.6731 461.3109C 136.7552 461.6684 136.9038 461.9735 137.1189 462.226C 137.6736 462.8843 138.5523 463.2092 139.6617 463.2092C 140.1343 463.2092 140.5532 463.1539 140.9183 463.0432C 141.2833 462.9326 141.5854 462.7907 141.8246 462.6176C 142.0637 462.4445 142.2519 462.2551 142.3892 462.0494C 142.5265 461.8437 142.6305 461.5954 142.7012 461.3045C 142.772 461.0136 142.8073 460.6795 142.8073 460.3021zM142.0729 458.8762L142.0729 460.2085C 142.0729 461.0314 141.913 461.4584 141.6357 461.7365C 141.2451 462.1281 140.5886 462.358 139.649 462.358C 138.3471 462.358 137.6835 461.8685 137.4458 461.2556C 137.3609 461.0342 137.3184 460.6781 137.3184 460.1872L137.3184 460.1872L137.3184 458.8762z" stroke="none" fill="#000000" fill-rule="evenodd" /><path id="861" transform="matrix(1 0 0 -1 0 841)" d="M142.8073 464.4847L136.584 464.4847L136.584 464.4847L136.584 465.3105L136.584 465.3105L142.8073 465.3105z" stroke="none" fill="#000000" fill-rule="evenodd" /></g></g></g><g clip-path="url(#76)"></g><g clip-path="url(#77)"></g><g clip-path="url(#78)"></g><g clip-path="url(#79)"></g><g clip-path="url(#80)"></g><g clip-path="url(#81)"></g><g clip-path="url(#82)"></g><g clip-path="url(#83)"></g><g clip-path="url(#84)"></g><g clip-path="url(#85)"></g><g clip-path="url(#86)"></g><g clip-path="url(#87)"></g><g clip-path="url(#88)"></g><g clip-path="url(#89)"></g><g clip-path="url(#90)"></g><g clip-path="url(#91)"></g><g clip-path="url(#92)"></g><g clip-path="url(#93)"></g><g clip-path="url(#94)"></g><g clip-path="url(#95)"></g><g clip-path="url(#96)"></g><g clip-path="url(#97)"><g clip-path="url(#98)"><path id="1315" transform="matrix(1 0 0 -1 0 841)" d="M334.6661 192.1962L354.6515 192.1962" stroke="#000000" stroke-width="0.5956883" fill="none" /></g></g><g clip-path="url(#99)"></g><g clip-path="url(#100)"></g><g clip-path="url(#101)"></g><g clip-path="url(#102)"></g><g clip-path="url(#103)"></g><g clip-path="url(#104)"></g><g clip-path="url(#105)"></g><g clip-path="url(#106)"></g><g clip-path="url(#107)"></g><g clip-path="url(#108)"></g><g clip-path="url(#109)"></g><g clip-path="url(#110)"></g><g clip-path="url(#111)"></g><g clip-path="url(#112)"></g><g clip-path="url(#113)"></g><g clip-path="url(#114)"></g><g clip-path="url(#115)"></g><g clip-path="url(#116)"></g><g clip-path="url(#117)"></g><g clip-path="url(#118)"></g><g clip-path="url(#119)"></g><g clip-path="url(#120)"></g><g clip-path="url(#121)"></g><g clip-path="url(#122)"></g><g clip-path="url(#123)"></g></g></g></svg>