<svg xmlns="http://www.w3.org/2000/svg" xmlns:xlink="http://www.w3.org/1999/xlink" id="body_451" preserveAspectRatio="xMinYMin meet" viewBox="0 0 793 1121"><defs><clipPath id="1"><path id="" clip-rule="evenodd" d="M0 841L0 -0.9199829L0 -0.9199829L595.32 -0.9199829L595.32 -0.9199829L595.32 841L595.32 841L0 841z" /></clipPath><clipPath id="2"><path id="" clip-rule="evenodd" d="M0 840.9999L595.32 840.9999L595.32 840.9999L595.32 -0.9200439L595.32 -0.9200439L0 -0.9200439z" /></clipPath><clipPath id="3"><path id="" clip-rule="evenodd" d="M8.871E-06 841L595.32 841L595.32 841L595.32 -0.9199829L595.32 -0.9199829L8.871E-06 -0.9199829z" /></clipPath><clipPath id="4"><path id="" clip-rule="evenodd" d="M8.871E-06 841L595.32 841L595.32 841L595.32 -0.9199829L595.32 -0.9199829L8.871E-06 -0.9199829z" /></clipPath><clipPath id="5"><path id="" clip-rule="evenodd" d="M8.871E-06 841L595.32 841L595.32 841L595.32 -0.9199829L595.32 -0.9199829L8.871E-06 -0.9199829z" /></clipPath><clipPath id="6"><path id="" clip-rule="evenodd" d="M8.871E-06 841L595.32 841L595.32 841L595.32 -0.9199829L595.32 -0.9199829L8.871E-06 -0.9199829z" /></clipPath><clipPath id="7"><path id="" clip-rule="evenodd" d="M8.871E-06 841L595.32 841L595.32 841L595.32 -0.9199829L595.32 -0.9199829L8.871E-06 -0.9199829z" /></clipPath><clipPath id="8"><path id="" clip-rule="evenodd" d="M8.871E-06 841L595.32 841L595.32 841L595.32 -0.9199829L595.32 -0.9199829L8.871E-06 -0.9199829z" /></clipPath><clipPath id="9"><path id="" clip-rule="evenodd" d="M8.871E-06 841L595.32 841L595.32 841L595.32 -0.9199829L595.32 -0.9199829L8.871E-06 -0.9199829z" /></clipPath><clipPath id="10"><path id="" clip-rule="evenodd" d="M8.871E-06 841L595.32 841L595.32 841L595.32 -0.9199829L595.32 -0.9199829L8.871E-06 -0.9199829z" /></clipPath><clipPath id="11"><path id="" clip-rule="evenodd" d="M8.871E-06 841L595.32 841L595.32 841L595.32 -0.9199829L595.32 -0.9199829L8.871E-06 -0.9199829z" /></clipPath><clipPath id="12"><path id="" clip-rule="evenodd" d="M0 840.9999L595.32 840.9999L595.32 840.9999L595.32 -0.9200439L595.32 -0.9200439L0 -0.9200439z" /></clipPath><clipPath id="13"><path id="" clip-rule="evenodd" d="M152.21 112.04L443.2199 112.04L443.2199 112.04L443.2199 92.64032L443.2199 92.64032L152.21 92.64032z" /></clipPath><clipPath id="14"><path id="" clip-rule="evenodd" d="M8.871E-06 841L595.32 841L595.32 841L595.32 -0.9199829L595.32 -0.9199829L8.871E-06 -0.9199829z" /></clipPath><clipPath id="15"><path id="" clip-rule="evenodd" d="M8.871E-06 841L595.32 841L595.32 841L595.32 -0.9199829L595.32 -0.9199829L8.871E-06 -0.9199829z" /></clipPath><clipPath id="16"><path id="" clip-rule="evenodd" d="M8.871E-06 841L595.32 841L595.32 841L595.32 -0.9199829L595.32 -0.9199829L8.871E-06 -0.9199829z" /></clipPath><clipPath id="17"><path id="" clip-rule="evenodd" d="M8.871E-06 841L595.32 841L595.32 841L595.32 -0.9199829L595.32 -0.9199829L8.871E-06 -0.9199829z" /></clipPath><clipPath id="18"><path id="" clip-rule="evenodd" d="M8.871E-06 841L595.32 841L595.32 841L595.32 -0.9199829L595.32 -0.9199829L8.871E-06 -0.9199829z" /></clipPath><clipPath id="19"><path id="" clip-rule="evenodd" d="M8.871E-06 841L595.32 841L595.32 841L595.32 -0.9199829L595.32 -0.9199829L8.871E-06 -0.9199829z" /></clipPath><clipPath id="20"><path id="" clip-rule="evenodd" d="M8.871E-06 841L595.32 841L595.32 841L595.32 -0.9199829L595.32 -0.9199829L8.871E-06 -0.9199829z" /></clipPath><clipPath id="21"><path id="" clip-rule="evenodd" d="M8.871E-06 841L595.32 841L595.32 841L595.32 -0.9199829L595.32 -0.9199829L8.871E-06 -0.9199829z" /></clipPath><clipPath id="22"><path id="" clip-rule="evenodd" d="M8.871E-06 841L595.32 841L595.32 841L595.32 -0.9199829L595.32 -0.9199829L8.871E-06 -0.9199829z" /></clipPath><clipPath id="23"><path id="" clip-rule="evenodd" d="M8.871E-06 841L595.32 841L595.32 841L595.32 -0.9199829L595.32 -0.9199829L8.871E-06 -0.9199829z" /></clipPath><clipPath id="24"><path id="" clip-rule="evenodd" d="M8.871E-06 841L595.32 841L595.32 841L595.32 -0.9199829L595.32 -0.9199829L8.871E-06 -0.9199829z" /></clipPath><clipPath id="25"><path id="" clip-rule="evenodd" d="M8.871E-06 841L595.32 841L595.32 841L595.32 -0.9199829L595.32 -0.9199829L8.871E-06 -0.9199829z" /></clipPath><clipPath id="26"><path id="" clip-rule="evenodd" d="M8.871E-06 841L595.32 841L595.32 841L595.32 -0.9199829L595.32 -0.9199829L8.871E-06 -0.9199829z" /></clipPath><clipPath id="27"><path id="" clip-rule="evenodd" d="M8.871E-06 841L595.32 841L595.32 841L595.32 -0.9199829L595.32 -0.9199829L8.871E-06 -0.9199829z" /></clipPath><clipPath id="28"><path id="" clip-rule="evenodd" d="M8.871E-06 841L595.32 841L595.32 841L595.32 -0.9199829L595.32 -0.9199829L8.871E-06 -0.9199829z" /></clipPath><clipPath id="29"><path id="" clip-rule="evenodd" d="M8.871E-06 841L595.32 841L595.32 841L595.32 -0.9199829L595.32 -0.9199829L8.871E-06 -0.9199829z" /></clipPath><clipPath id="30"><path id="" clip-rule="evenodd" d="M8.871E-06 841L595.32 841L595.32 841L595.32 -0.9199829L595.32 -0.9199829L8.871E-06 -0.9199829z" /></clipPath><clipPath id="31"><path id="" clip-rule="evenodd" d="M8.871E-06 841L595.32 841L595.32 841L595.32 -0.9199829L595.32 -0.9199829L8.871E-06 -0.9199829z" /></clipPath><clipPath id="32"><path id="" clip-rule="evenodd" d="M8.871E-06 841L595.32 841L595.32 841L595.32 -0.9199829L595.32 -0.9199829L8.871E-06 -0.9199829z" /></clipPath><clipPath id="33"><path id="" clip-rule="evenodd" d="M8.871E-06 841L595.32 841L595.32 841L595.32 -0.9199829L595.32 -0.9199829L8.871E-06 -0.9199829z" /></clipPath><clipPath id="34"><path id="" clip-rule="evenodd" d="M8.871E-06 841L595.32 841L595.32 841L595.32 -0.9199829L595.32 -0.9199829L8.871E-06 -0.9199829z" /></clipPath><clipPath id="35"><path id="" clip-rule="evenodd" d="M8.871E-06 841L595.32 841L595.32 841L595.32 -0.9199829L595.32 -0.9199829L8.871E-06 -0.9199829z" /></clipPath><clipPath id="36"><path id="" clip-rule="evenodd" d="M8.871E-06 841L595.32 841L595.32 841L595.32 -0.9199829L595.32 -0.9199829L8.871E-06 -0.9199829z" /></clipPath><clipPath id="37"><path id="" clip-rule="evenodd" d="M8.871E-06 841L595.32 841L595.32 841L595.32 -0.9199829L595.32 -0.9199829L8.871E-06 -0.9199829z" /></clipPath><clipPath id="38"><path id="" clip-rule="evenodd" d="M8.871E-06 841L595.32 841L595.32 841L595.32 -0.9199829L595.32 -0.9199829L8.871E-06 -0.9199829z" /></clipPath><clipPath id="39"><path id="" clip-rule="evenodd" d="M8.871E-06 841L595.32 841L595.32 841L595.32 -0.9199829L595.32 -0.9199829L8.871E-06 -0.9199829z" /></clipPath><clipPath id="40"><path id="" clip-rule="evenodd" d="M8.871E-06 841L595.32 841L595.32 841L595.32 -0.9199829L595.32 -0.9199829L8.871E-06 -0.9199829z" /></clipPath><clipPath id="41"><path id="" clip-rule="evenodd" d="M8.871E-06 841L595.32 841L595.32 841L595.32 -0.9199829L595.32 -0.9199829L8.871E-06 -0.9199829z" /></clipPath><clipPath id="42"><path id="" clip-rule="evenodd" d="M8.871E-06 841L595.32 841L595.32 841L595.32 -0.9199829L595.32 -0.9199829L8.871E-06 -0.9199829z" /></clipPath><clipPath id="43"><path id="" clip-rule="evenodd" d="M8.871E-06 841L595.32 841L595.32 841L595.32 -0.9199829L595.32 -0.9199829L8.871E-06 -0.9199829z" /></clipPath><clipPath id="44"><path id="" clip-rule="evenodd" d="M8.871E-06 841L595.32 841L595.32 841L595.32 -0.9199829L595.32 -0.9199829L8.871E-06 -0.9199829z" /></clipPath><clipPath id="45"><path id="" clip-rule="evenodd" d="M8.871E-06 841L595.32 841L595.32 841L595.32 -0.9199829L595.32 -0.9199829L8.871E-06 -0.9199829z" /></clipPath><clipPath id="46"><path id="" clip-rule="evenodd" d="M8.871E-06 841L595.32 841L595.32 841L595.32 -0.9199829L595.32 -0.9199829L8.871E-06 -0.9199829z" /></clipPath><clipPath id="47"><path id="" clip-rule="evenodd" d="M8.871E-06 841L595.32 841L595.32 841L595.32 -0.9199829L595.32 -0.9199829L8.871E-06 -0.9199829z" /></clipPath><clipPath id="48"><path id="" clip-rule="evenodd" d="M8.871E-06 841L595.32 841L595.32 841L595.32 -0.9199829L595.32 -0.9199829L8.871E-06 -0.9199829z" /></clipPath><clipPath id="49"><path id="" clip-rule="evenodd" d="M8.871E-06 841L595.32 841L595.32 841L595.32 -0.9199829L595.32 -0.9199829L8.871E-06 -0.9199829z" /></clipPath><clipPath id="50"><path id="" clip-rule="evenodd" d="M8.871E-06 841L595.32 841L595.32 841L595.32 -0.9199829L595.32 -0.9199829L8.871E-06 -0.9199829z" /></clipPath><clipPath id="51"><path id="" clip-rule="evenodd" d="M8.871E-06 841L595.32 841L595.32 841L595.32 -0.9199829L595.32 -0.9199829L8.871E-06 -0.9199829z" /></clipPath><clipPath id="52"><path id="" clip-rule="evenodd" d="M8.871E-06 841L595.32 841L595.32 841L595.32 -0.9199829L595.32 -0.9199829L8.871E-06 -0.9199829z" /></clipPath><clipPath id="53"><path id="" clip-rule="evenodd" d="M8.871E-06 841L595.32 841L595.32 841L595.32 -0.9199829L595.32 -0.9199829L8.871E-06 -0.9199829z" /></clipPath><clipPath id="54"><path id="" clip-rule="evenodd" d="M8.871E-06 841L595.32 841L595.32 841L595.32 -0.9199829L595.32 -0.9199829L8.871E-06 -0.9199829z" /></clipPath><clipPath id="55"><path id="" clip-rule="evenodd" d="M8.871E-06 841L595.32 841L595.32 841L595.32 -0.9199829L595.32 -0.9199829L8.871E-06 -0.9199829z" /></clipPath><clipPath id="56"><path id="" clip-rule="evenodd" d="M8.871E-06 841L595.32 841L595.32 841L595.32 -0.9199829L595.32 -0.9199829L8.871E-06 -0.9199829z" /></clipPath><clipPath id="57"><path id="" clip-rule="evenodd" d="M8.871E-06 841L595.32 841L595.32 841L595.32 -0.9199829L595.32 -0.9199829L8.871E-06 -0.9199829z" /></clipPath><clipPath id="58"><path id="" clip-rule="evenodd" d="M8.871E-06 841L595.32 841L595.32 841L595.32 -0.9199829L595.32 -0.9199829L8.871E-06 -0.9199829z" /></clipPath><clipPath id="59"><path id="" clip-rule="evenodd" d="M8.871E-06 841L595.32 841L595.32 841L595.32 -0.9199829L595.32 -0.9199829L8.871E-06 -0.9199829z" /></clipPath><clipPath id="60"><path id="" clip-rule="evenodd" d="M8.871E-06 841L595.32 841L595.32 841L595.32 -0.9199829L595.32 -0.9199829L8.871E-06 -0.9199829z" /></clipPath><clipPath id="61"><path id="" clip-rule="evenodd" d="M8.871E-06 841L595.32 841L595.32 841L595.32 -0.9199829L595.32 -0.9199829L8.871E-06 -0.9199829z" /></clipPath><clipPath id="62"><path id="" clip-rule="evenodd" d="M8.871E-06 841L595.32 841L595.32 841L595.32 -0.9199829L595.32 -0.9199829L8.871E-06 -0.9199829z" /></clipPath><clipPath id="63"><path id="" clip-rule="evenodd" d="M8.871E-06 841L595.32 841L595.32 841L595.32 -0.9199829L595.32 -0.9199829L8.871E-06 -0.9199829z" /></clipPath><clipPath id="64"><path id="" clip-rule="evenodd" d="M8.871E-06 841L595.32 841L595.32 841L595.32 -0.9199829L595.32 -0.9199829L8.871E-06 -0.9199829z" /></clipPath><clipPath id="65"><path id="" clip-rule="evenodd" d="M8.871E-06 841L595.32 841L595.32 841L595.32 -0.9199829L595.32 -0.9199829L8.871E-06 -0.9199829z" /></clipPath><clipPath id="66"><path id="" clip-rule="evenodd" d="M8.871E-06 841L595.32 841L595.32 841L595.32 -0.9199829L595.32 -0.9199829L8.871E-06 -0.9199829z" /></clipPath><clipPath id="67"><path id="" clip-rule="evenodd" d="M8.871E-06 841L595.32 841L595.32 841L595.32 -0.9199829L595.32 -0.9199829L8.871E-06 -0.9199829z" /></clipPath><clipPath id="68"><path id="" clip-rule="evenodd" d="M8.871E-06 841L595.32 841L595.32 841L595.32 -0.9199829L595.32 -0.9199829L8.871E-06 -0.9199829z" /></clipPath><clipPath id="69"><path id="" clip-rule="evenodd" d="M8.871E-06 841L595.32 841L595.32 841L595.32 -0.9199829L595.32 -0.9199829L8.871E-06 -0.9199829z" /></clipPath><clipPath id="70"><path id="" clip-rule="evenodd" d="M8.871E-06 841L595.32 841L595.32 841L595.32 -0.9199829L595.32 -0.9199829L8.871E-06 -0.9199829z" /></clipPath><clipPath id="71"><path id="" clip-rule="evenodd" d="M8.871E-06 841L595.32 841L595.32 841L595.32 -0.9199829L595.32 -0.9199829L8.871E-06 -0.9199829z" /></clipPath><clipPath id="72"><path id="" clip-rule="evenodd" d="M8.871E-06 841L595.32 841L595.32 841L595.32 -0.9199829L595.32 -0.9199829L8.871E-06 -0.9199829z" /></clipPath><clipPath id="73"><path id="" clip-rule="evenodd" d="M8.871E-06 841L595.32 841L595.32 841L595.32 -0.9199829L595.32 -0.9199829L8.871E-06 -0.9199829z" /></clipPath><clipPath id="74"><path id="" clip-rule="evenodd" d="M8.871E-06 841L595.32 841L595.32 841L595.32 -0.9199829L595.32 -0.9199829L8.871E-06 -0.9199829z" /></clipPath><clipPath id="75"><path id="" clip-rule="evenodd" d="M8.871E-06 841L595.32 841L595.32 841L595.32 -0.9199829L595.32 -0.9199829L8.871E-06 -0.9199829z" /></clipPath><clipPath id="76"><path id="" clip-rule="evenodd" d="M8.871E-06 841L595.32 841L595.32 841L595.32 -0.9199829L595.32 -0.9199829L8.871E-06 -0.9199829z" /></clipPath><clipPath id="77"><path id="" clip-rule="evenodd" d="M8.871E-06 841L595.32 841L595.32 841L595.32 -0.9199829L595.32 -0.9199829L8.871E-06 -0.9199829z" /></clipPath><clipPath id="78"><path id="" clip-rule="evenodd" d="M8.871E-06 841L595.32 841L595.32 841L595.32 -0.9199829L595.32 -0.9199829L8.871E-06 -0.9199829z" /></clipPath><clipPath id="79"><path id="" clip-rule="evenodd" d="M8.871E-06 841L595.32 841L595.32 841L595.32 -0.9199829L595.32 -0.9199829L8.871E-06 -0.9199829z" /></clipPath><clipPath id="80"><path id="" clip-rule="evenodd" d="M8.871E-06 841L595.32 841L595.32 841L595.32 -0.9199829L595.32 -0.9199829L8.871E-06 -0.9199829z" /></clipPath><clipPath id="81"><path id="" clip-rule="evenodd" d="M8.871E-06 841L595.32 841L595.32 841L595.32 -0.9199829L595.32 -0.9199829L8.871E-06 -0.9199829z" /></clipPath><clipPath id="82"><path id="" clip-rule="evenodd" d="M8.871E-06 841L595.32 841L595.32 841L595.32 -0.9199829L595.32 -0.9199829L8.871E-06 -0.9199829z" /></clipPath><clipPath id="83"><path id="" clip-rule="evenodd" d="M8.871E-06 841L595.32 841L595.32 841L595.32 -0.9199829L595.32 -0.9199829L8.871E-06 -0.9199829z" /></clipPath><clipPath id="84"><path id="" clip-rule="evenodd" d="M8.871E-06 841L595.32 841L595.32 841L595.32 -0.9199829L595.32 -0.9199829L8.871E-06 -0.9199829z" /></clipPath><clipPath id="85"><path id="" clip-rule="evenodd" d="M8.871E-06 841L595.32 841L595.32 841L595.32 -0.9199829L595.32 -0.9199829L8.871E-06 -0.9199829z" /></clipPath><clipPath id="86"><path id="" clip-rule="evenodd" d="M8.871E-06 841L595.32 841L595.32 841L595.32 -0.9199829L595.32 -0.9199829L8.871E-06 -0.9199829z" /></clipPath><clipPath id="87"><path id="" clip-rule="evenodd" d="M8.871E-06 841L595.32 841L595.32 841L595.32 -0.9199829L595.32 -0.9199829L8.871E-06 -0.9199829z" /></clipPath><clipPath id="88"><path id="" clip-rule="evenodd" d="M8.871E-06 841L595.32 841L595.32 841L595.32 -0.9199829L595.32 -0.9199829L8.871E-06 -0.9199829z" /></clipPath><clipPath id="89"><path id="" clip-rule="evenodd" d="M8.871E-06 841L595.32 841L595.32 841L595.32 -0.9199829L595.32 -0.9199829L8.871E-06 -0.9199829z" /></clipPath><clipPath id="90"><path id="" clip-rule="evenodd" d="M8.871E-06 841L595.32 841L595.32 841L595.32 -0.9199829L595.32 -0.9199829L8.871E-06 -0.9199829z" /></clipPath><clipPath id="91"><path id="" clip-rule="evenodd" d="M8.871E-06 841L595.32 841L595.32 841L595.32 -0.9199829L595.32 -0.9199829L8.871E-06 -0.9199829z" /></clipPath><clipPath id="92"><path id="" clip-rule="evenodd" d="M8.871E-06 841L595.32 841L595.32 841L595.32 -0.9199829L595.32 -0.9199829L8.871E-06 -0.9199829z" /></clipPath><clipPath id="93"><path id="" clip-rule="evenodd" d="M8.871E-06 841L595.32 841L595.32 841L595.32 -0.9199829L595.32 -0.9199829L8.871E-06 -0.9199829z" /></clipPath><clipPath id="94"><path id="" clip-rule="evenodd" d="M8.871E-06 841L595.32 841L595.32 841L595.32 -0.9199829L595.32 -0.9199829L8.871E-06 -0.9199829z" /></clipPath><clipPath id="95"><path id="" clip-rule="evenodd" d="M8.871E-06 841L595.32 841L595.32 841L595.32 -0.9199829L595.32 -0.9199829L8.871E-06 -0.9199829z" /></clipPath><clipPath id="96"><path id="" clip-rule="evenodd" d="M8.871E-06 841L595.32 841L595.32 841L595.32 -0.9199829L595.32 -0.9199829L8.871E-06 -0.9199829z" /></clipPath><clipPath id="97"><path id="" clip-rule="evenodd" d="M8.871E-06 841L595.32 841L595.32 841L595.32 -0.9199829L595.32 -0.9199829L8.871E-06 -0.9199829z" /></clipPath><clipPath id="98"><path id="" clip-rule="evenodd" d="M8.871E-06 841L595.32 841L595.32 841L595.32 -0.9199829L595.32 -0.9199829L8.871E-06 -0.9199829z" /></clipPath><clipPath id="99"><path id="" clip-rule="evenodd" d="M8.871E-06 841L595.32 841L595.32 841L595.32 -0.9199829L595.32 -0.9199829L8.871E-06 -0.9199829z" /></clipPath><clipPath id="100"><path id="" clip-rule="evenodd" d="M8.871E-06 841L595.32 841L595.32 841L595.32 -0.9199829L595.32 -0.9199829L8.871E-06 -0.9199829z" /></clipPath><clipPath id="101"><path id="" clip-rule="evenodd" d="M8.871E-06 841L595.32 841L595.32 841L595.32 -0.9199829L595.32 -0.9199829L8.871E-06 -0.9199829z" /></clipPath><clipPath id="102"><path id="" clip-rule="evenodd" d="M8.871E-06 841L595.32 841L595.32 841L595.32 -0.9199829L595.32 -0.9199829L8.871E-06 -0.9199829z" /></clipPath><clipPath id="103"><path id="" clip-rule="evenodd" d="M8.871E-06 841L595.32 841L595.32 841L595.32 -0.9199829L595.32 -0.9199829L8.871E-06 -0.9199829z" /></clipPath><clipPath id="104"><path id="" clip-rule="evenodd" d="M8.871E-06 841L595.32 841L595.32 841L595.32 -0.9199829L595.32 -0.9199829L8.871E-06 -0.9199829z" /></clipPath><clipPath id="105"><path id="" clip-rule="evenodd" d="M8.871E-06 841L595.32 841L595.32 841L595.32 -0.9199829L595.32 -0.9199829L8.871E-06 -0.9199829z" /></clipPath><clipPath id="106"><path id="" clip-rule="evenodd" d="M8.871E-06 841L595.32 841L595.32 841L595.32 -0.9199829L595.32 -0.9199829L8.871E-06 -0.9199829z" /></clipPath><clipPath id="107"><path id="" clip-rule="evenodd" d="M8.871E-06 841L595.32 841L595.32 841L595.32 -0.9199829L595.32 -0.9199829L8.871E-06 -0.9199829z" /></clipPath><clipPath id="108"><path id="" clip-rule="evenodd" d="M8.871E-06 841L595.32 841L595.32 841L595.32 -0.9199829L595.32 -0.9199829L8.871E-06 -0.9199829z" /></clipPath><clipPath id="109"><path id="" clip-rule="evenodd" d="M8.871E-06 841L595.32 841L595.32 841L595.32 -0.9199829L595.32 -0.9199829L8.871E-06 -0.9199829z" /></clipPath><clipPath id="110"><path id="" clip-rule="evenodd" d="M8.871E-06 841L595.32 841L595.32 841L595.32 -0.9199829L595.32 -0.9199829L8.871E-06 -0.9199829z" /></clipPath><clipPath id="111"><path id="" clip-rule="evenodd" d="M8.871E-06 841L595.32 841L595.32 841L595.32 -0.9199829L595.32 -0.9199829L8.871E-06 -0.9199829z" /></clipPath><clipPath id="112"><path id="" clip-rule="evenodd" d="M8.871E-06 841L595.32 841L595.32 841L595.32 -0.9199829L595.32 -0.9199829L8.871E-06 -0.9199829z" /></clipPath><clipPath id="113"><path id="" clip-rule="evenodd" d="M8.871E-06 841L595.32 841L595.32 841L595.32 -0.9199829L595.32 -0.9199829L8.871E-06 -0.9199829z" /></clipPath><clipPath id="114"><path id="" clip-rule="evenodd" d="M8.871E-06 841L595.32 841L595.32 841L595.32 -0.9199829L595.32 -0.9199829L8.871E-06 -0.9199829z" /></clipPath><clipPath id="115"><path id="" clip-rule="evenodd" d="M8.871E-06 841L595.32 841L595.32 841L595.32 -0.9199829L595.32 -0.9199829L8.871E-06 -0.9199829z" /></clipPath><clipPath id="116"><path id="" clip-rule="evenodd" d="M8.871E-06 841L595.32 841L595.32 841L595.32 -0.9199829L595.32 -0.9199829L8.871E-06 -0.9199829z" /></clipPath><clipPath id="117"><path id="" clip-rule="evenodd" d="M8.871E-06 841L595.32 841L595.32 841L595.32 -0.9199829L595.32 -0.9199829L8.871E-06 -0.9199829z" /></clipPath><clipPath id="118"><path id="" clip-rule="evenodd" d="M8.871E-06 841L595.32 841L595.32 841L595.32 -0.9199829L595.32 -0.9199829L8.871E-06 -0.9199829z" /></clipPath><clipPath id="119"><path id="" clip-rule="evenodd" d="M8.871E-06 841L595.32 841L595.32 841L595.32 -0.9199829L595.32 -0.9199829L8.871E-06 -0.9199829z" /></clipPath><clipPath id="120"><path id="" clip-rule="evenodd" d="M8.871E-06 841L595.32 841L595.32 841L595.32 -0.9199829L595.32 -0.9199829L8.871E-06 -0.9199829z" /></clipPath><clipPath id="121"><path id="" clip-rule="evenodd" d="M8.871E-06 841L595.32 841L595.32 841L595.32 -0.9199829L595.32 -0.9199829L8.871E-06 -0.9199829z" /></clipPath><clipPath id="122"><path id="" clip-rule="evenodd" d="M8.871E-06 841L595.32 841L595.32 841L595.32 -0.9199829L595.32 -0.9199829L8.871E-06 -0.9199829z" /></clipPath><clipPath id="123"><path id="" clip-rule="evenodd" d="M8.871E-06 841L595.32 841L595.32 841L595.32 -0.9199829L595.32 -0.9199829L8.871E-06 -0.9199829z" /></clipPath><clipPath id="124"><path id="" clip-rule="evenodd" d="M8.871E-06 841L595.32 841L595.32 841L595.32 -0.9199829L595.32 -0.9199829L8.871E-06 -0.9199829z" /></clipPath><clipPath id="125"><path id="" clip-rule="evenodd" d="M8.871E-06 841L595.32 841L595.32 841L595.32 -0.9199829L595.32 -0.9199829L8.871E-06 -0.9199829z" /></clipPath><clipPath id="126"><path id="" clip-rule="evenodd" d="M8.871E-06 841L595.32 841L595.32 841L595.32 -0.9199829L595.32 -0.9199829L8.871E-06 -0.9199829z" /></clipPath><clipPath id="127"><path id="" clip-rule="evenodd" d="M8.871E-06 841L595.32 841L595.32 841L595.32 -0.9199829L595.32 -0.9199829L8.871E-06 -0.9199829z" /></clipPath><clipPath id="128"><path id="" clip-rule="evenodd" d="M8.871E-06 841L595.32 841L595.32 841L595.32 -0.9199829L595.32 -0.9199829L8.871E-06 -0.9199829z" /></clipPath><clipPath id="129"><path id="" clip-rule="evenodd" d="M8.871E-06 841L595.32 841L595.32 841L595.32 -0.9199829L595.32 -0.9199829L8.871E-06 -0.9199829z" /></clipPath><clipPath id="130"><path id="" clip-rule="evenodd" d="M8.871E-06 841L595.32 841L595.32 841L595.32 -0.9199829L595.32 -0.9199829L8.871E-06 -0.9199829z" /></clipPath><clipPath id="131"><path id="" clip-rule="evenodd" d="M8.871E-06 841L595.32 841L595.32 841L595.32 -0.9199829L595.32 -0.9199829L8.871E-06 -0.9199829z" /></clipPath><clipPath id="132"><path id="" clip-rule="evenodd" d="M8.871E-06 841L595.32 841L595.32 841L595.32 -0.9199829L595.32 -0.9199829L8.871E-06 -0.9199829z" /></clipPath><clipPath id="133"><path id="" clip-rule="evenodd" d="M8.871E-06 841L595.32 841L595.32 841L595.32 -0.9199829L595.32 -0.9199829L8.871E-06 -0.9199829z" /></clipPath><clipPath id="134"><path id="" clip-rule="evenodd" d="M8.871E-06 841L595.32 841L595.32 841L595.32 -0.9199829L595.32 -0.9199829L8.871E-06 -0.9199829z" /></clipPath><clipPath id="135"><path id="" clip-rule="evenodd" d="M8.871E-06 841L595.32 841L595.32 841L595.32 -0.9199829L595.32 -0.9199829L8.871E-06 -0.9199829z" /></clipPath><clipPath id="136"><path id="" clip-rule="evenodd" d="M8.871E-06 841L595.32 841L595.32 841L595.32 -0.9199829L595.32 -0.9199829L8.871E-06 -0.9199829z" /></clipPath><clipPath id="137"><path id="" clip-rule="evenodd" d="M8.871E-06 841L595.32 841L595.32 841L595.32 -0.9199829L595.32 -0.9199829L8.871E-06 -0.9199829z" /></clipPath><clipPath id="138"><path id="" clip-rule="evenodd" d="M8.871E-06 841L595.32 841L595.32 841L595.32 -0.9199829L595.32 -0.9199829L8.871E-06 -0.9199829z" /></clipPath><clipPath id="139"><path id="" clip-rule="evenodd" d="M8.871E-06 841L595.32 841L595.32 841L595.32 -0.9199829L595.32 -0.9199829L8.871E-06 -0.9199829z" /></clipPath><clipPath id="140"><path id="" clip-rule="evenodd" d="M8.871E-06 841L595.32 841L595.32 841L595.32 -0.9199829L595.32 -0.9199829L8.871E-06 -0.9199829z" /></clipPath><clipPath id="141"><path id="" clip-rule="evenodd" d="M8.871E-06 841L595.32 841L595.32 841L595.32 -0.9199829L595.32 -0.9199829L8.871E-06 -0.9199829z" /></clipPath><clipPath id="142"><path id="" clip-rule="evenodd" d="M8.871E-06 841L595.32 841L595.32 841L595.32 -0.9199829L595.32 -0.9199829L8.871E-06 -0.9199829z" /></clipPath><clipPath id="143"><path id="" clip-rule="evenodd" d="M8.871E-06 841L595.32 841L595.32 841L595.32 -0.9199829L595.32 -0.9199829L8.871E-06 -0.9199829z" /></clipPath><clipPath id="144"><path id="" clip-rule="evenodd" d="M8.871E-06 841L595.32 841L595.32 841L595.32 -0.9199829L595.32 -0.9199829L8.871E-06 -0.9199829z" /></clipPath><clipPath id="145"><path id="" clip-rule="evenodd" d="M8.871E-06 841L595.32 841L595.32 841L595.32 -0.9199829L595.32 -0.9199829L8.871E-06 -0.9199829z" /></clipPath><clipPath id="146"><path id="" clip-rule="evenodd" d="M8.871E-06 841L595.32 841L595.32 841L595.32 -0.9199829L595.32 -0.9199829L8.871E-06 -0.9199829z" /></clipPath><clipPath id="147"><path id="" clip-rule="evenodd" d="M8.871E-06 841L595.32 841L595.32 841L595.32 -0.9199829L595.32 -0.9199829L8.871E-06 -0.9199829z" /></clipPath><clipPath id="148"><path id="" clip-rule="evenodd" d="M8.871E-06 841L595.32 841L595.32 841L595.32 -0.9199829L595.32 -0.9199829L8.871E-06 -0.9199829z" /></clipPath><clipPath id="149"><path id="" clip-rule="evenodd" d="M8.871E-06 841L595.32 841L595.32 841L595.32 -0.9199829L595.32 -0.9199829L8.871E-06 -0.9199829z" /></clipPath><clipPath id="150"><path id="" clip-rule="evenodd" d="M8.871E-06 841L595.32 841L595.32 841L595.32 -0.9199829L595.32 -0.9199829L8.871E-06 -0.9199829z" /></clipPath><clipPath id="151"><path id="" clip-rule="evenodd" d="M8.871E-06 841L595.32 841L595.32 841L595.32 -0.9199829L595.32 -0.9199829L8.871E-06 -0.9199829z" /></clipPath><clipPath id="152"><path id="" clip-rule="evenodd" d="M8.871E-06 841L595.32 841L595.32 841L595.32 -0.9199829L595.32 -0.9199829L8.871E-06 -0.9199829z" /></clipPath><clipPath id="153"><path id="" clip-rule="evenodd" d="M8.871E-06 841L595.32 841L595.32 841L595.32 -0.9199829L595.32 -0.9199829L8.871E-06 -0.9199829z" /></clipPath><clipPath id="154"><path id="" clip-rule="evenodd" d="M8.871E-06 841L595.32 841L595.32 841L595.32 -0.9199829L595.32 -0.9199829L8.871E-06 -0.9199829z" /></clipPath><clipPath id="155"><path id="" clip-rule="evenodd" d="M8.871E-06 841L595.32 841L595.32 841L595.32 -0.9199829L595.32 -0.9199829L8.871E-06 -0.9199829z" /></clipPath><clipPath id="156"><path id="" clip-rule="evenodd" d="M8.871E-06 841L595.32 841L595.32 841L595.32 -0.9199829L595.32 -0.9199829L8.871E-06 -0.9199829z" /></clipPath><clipPath id="157"><path id="" clip-rule="evenodd" d="M8.871E-06 841L595.32 841L595.32 841L595.32 -0.9199829L595.32 -0.9199829L8.871E-06 -0.9199829z" /></clipPath><clipPath id="158"><path id="" clip-rule="evenodd" d="M8.871E-06 841L595.32 841L595.32 841L595.32 -0.9199829L595.32 -0.9199829L8.871E-06 -0.9199829z" /></clipPath><clipPath id="159"><path id="" clip-rule="evenodd" d="M8.871E-06 841L595.32 841L595.32 841L595.32 -0.9199829L595.32 -0.9199829L8.871E-06 -0.9199829z" /></clipPath><clipPath id="160"><path id="" clip-rule="evenodd" d="M8.871E-06 841L595.32 841L595.32 841L595.32 -0.9199829L595.32 -0.9199829L8.871E-06 -0.9199829z" /></clipPath><clipPath id="161"><path id="" clip-rule="evenodd" d="M8.871E-06 841L595.32 841L595.32 841L595.32 -0.9199829L595.32 -0.9199829L8.871E-06 -0.9199829z" /></clipPath><clipPath id="162"><path id="" clip-rule="evenodd" d="M8.871E-06 841L595.32 841L595.32 841L595.32 -0.9199829L595.32 -0.9199829L8.871E-06 -0.9199829z" /></clipPath><clipPath id="163"><path id="" clip-rule="evenodd" d="M8.871E-06 841L595.32 841L595.32 841L595.32 -0.9199829L595.32 -0.9199829L8.871E-06 -0.9199829z" /></clipPath><clipPath id="164"><path id="" clip-rule="evenodd" d="M8.871E-06 841L595.32 841L595.32 841L595.32 -0.9199829L595.32 -0.9199829L8.871E-06 -0.9199829z" /></clipPath><clipPath id="165"><path id="" clip-rule="evenodd" d="M8.871E-06 841L595.32 841L595.32 841L595.32 -0.9199829L595.32 -0.9199829L8.871E-06 -0.9199829z" /></clipPath><clipPath id="166"><path id="" clip-rule="evenodd" d="M8.871E-06 841L595.32 841L595.32 841L595.32 -0.9199829L595.32 -0.9199829L8.871E-06 -0.9199829z" /></clipPath><clipPath id="167"><path id="" clip-rule="evenodd" d="M8.871E-06 841L595.32 841L595.32 841L595.32 -0.9199829L595.32 -0.9199829L8.871E-06 -0.9199829z" /></clipPath><clipPath id="168"><path id="" clip-rule="evenodd" d="M113.42 477.11L166.484 477.11L166.484 477.11L166.484 459.71L166.484 459.71L113.42 459.71z" /></clipPath><clipPath id="169"><path id="" clip-rule="evenodd" d="M113.42 477.11L166.484 477.11L166.484 477.11L166.484 459.71L166.484 459.71L113.42 459.71z" /></clipPath><clipPath id="170"><path id="" clip-rule="evenodd" d="M113.42 477.11L166.484 477.11L166.484 477.11L166.484 459.71L166.484 459.71L113.42 459.71z" /></clipPath><clipPath id="171"><path id="" clip-rule="evenodd" d="M166.49 477.11L219.41 477.11L219.41 477.11L219.41 459.71L219.41 459.71L166.49 459.71z" /></clipPath><clipPath id="172"><path id="" clip-rule="evenodd" d="M166.49 477.11L219.41 477.11L219.41 477.11L219.41 459.71L219.41 459.71L166.49 459.71z" /></clipPath><clipPath id="173"><path id="" clip-rule="evenodd" d="M166.49 477.11L219.41 477.11L219.41 477.11L219.41 459.71L219.41 459.71L166.49 459.71z" /></clipPath><clipPath id="174"><path id="" clip-rule="evenodd" d="M219.41 477.11L272.45 477.11L272.45 477.11L272.45 459.71L272.45 459.71L219.41 459.71z" /></clipPath><clipPath id="175"><path id="" clip-rule="evenodd" d="M219.41 477.11L272.45 477.11L272.45 477.11L272.45 459.71L272.45 459.71L219.41 459.71z" /></clipPath><clipPath id="176"><path id="" clip-rule="evenodd" d="M219.41 477.11L272.45 477.11L272.45 477.11L272.45 459.71L272.45 459.71L219.41 459.71z" /></clipPath><clipPath id="177"><path id="" clip-rule="evenodd" d="M219.41 477.11L272.45 477.11L272.45 477.11L272.45 459.71L272.45 459.71L219.41 459.71z" /></clipPath><clipPath id="178"><path id="" clip-rule="evenodd" d="M219.41 477.11L272.45 477.11L272.45 477.11L272.45 459.71L272.45 459.71L219.41 459.71z" /></clipPath><clipPath id="179"><path id="" clip-rule="evenodd" d="M272.45 477.11L325.514 477.11L325.514 477.11L325.514 459.71L325.514 459.71L272.45 459.71z" /></clipPath><clipPath id="180"><path id="" clip-rule="evenodd" d="M272.45 477.11L325.514 477.11L325.514 477.11L325.514 459.71L325.514 459.71L272.45 459.71z" /></clipPath><clipPath id="181"><path id="" clip-rule="evenodd" d="M272.45 477.11L325.514 477.11L325.514 477.11L325.514 459.71L325.514 459.71L272.45 459.71z" /></clipPath><clipPath id="182"><path id="" clip-rule="evenodd" d="M272.45 477.11L325.514 477.11L325.514 477.11L325.514 459.71L325.514 459.71L272.45 459.71z" /></clipPath><clipPath id="183"><path id="" clip-rule="evenodd" d="M325.51 477.11L378.43 477.11L378.43 477.11L378.43 459.71L378.43 459.71L325.51 459.71z" /></clipPath><clipPath id="184"><path id="" clip-rule="evenodd" d="M325.51 477.11L378.43 477.11L378.43 477.11L378.43 459.71L378.43 459.71L325.51 459.71z" /></clipPath><clipPath id="185"><path id="" clip-rule="evenodd" d="M325.51 477.11L378.43 477.11L378.43 477.11L378.43 459.71L378.43 459.71L325.51 459.71z" /></clipPath><clipPath id="186"><path id="" clip-rule="evenodd" d="M325.51 477.11L378.43 477.11L378.43 477.11L378.43 459.71L378.43 459.71L325.51 459.71z" /></clipPath><clipPath id="187"><path id="" clip-rule="evenodd" d="M325.51 477.11L378.43 477.11L378.43 477.11L378.43 459.71L378.43 459.71L325.51 459.71z" /></clipPath><clipPath id="188"><path id="" clip-rule="evenodd" d="M378.43 477.11L431.494 477.11L431.494 477.11L431.494 459.71L431.494 459.71L378.43 459.71z" /></clipPath><clipPath id="189"><path id="" clip-rule="evenodd" d="M378.43 477.11L431.494 477.11L431.494 477.11L431.494 459.71L431.494 459.71L378.43 459.71z" /></clipPath><clipPath id="190"><path id="" clip-rule="evenodd" d="M378.43 477.11L431.494 477.11L431.494 477.11L431.494 459.71L431.494 459.71L378.43 459.71z" /></clipPath><clipPath id="191"><path id="" clip-rule="evenodd" d="M378.43 477.11L431.494 477.11L431.494 477.11L431.494 459.71L431.494 459.71L378.43 459.71z" /></clipPath><clipPath id="192"><path id="" clip-rule="evenodd" d="M378.43 477.11L431.494 477.11L431.494 477.11L431.494 459.71L431.494 459.71L378.43 459.71z" /></clipPath><clipPath id="193"><path id="" clip-rule="evenodd" d="M431.5 477.11L484.54 477.11L484.54 477.11L484.54 459.71L484.54 459.71L431.5 459.71z" /></clipPath><clipPath id="194"><path id="" clip-rule="evenodd" d="M431.5 477.11L484.54 477.11L484.54 477.11L484.54 459.71L484.54 459.71L431.5 459.71z" /></clipPath><clipPath id="195"><path id="" clip-rule="evenodd" d="M431.5 477.11L484.54 477.11L484.54 477.11L484.54 459.71L484.54 459.71L431.5 459.71z" /></clipPath><clipPath id="196"><path id="" clip-rule="evenodd" d="M431.5 477.11L484.54 477.11L484.54 477.11L484.54 459.71L484.54 459.71L431.5 459.71z" /></clipPath><clipPath id="197"><path id="" clip-rule="evenodd" d="M113.42 493.79L166.484 493.79L166.484 493.79L166.484 478.19L166.484 478.19L113.42 478.19z" /></clipPath><clipPath id="198"><path id="" clip-rule="evenodd" d="M113.42 493.79L166.484 493.79L166.484 493.79L166.484 478.19L166.484 478.19L113.42 478.19z" /></clipPath><clipPath id="199"><path id="" clip-rule="evenodd" d="M113.42 493.79L166.484 493.79L166.484 493.79L166.484 478.19L166.484 478.19L113.42 478.19z" /></clipPath><clipPath id="200"><path id="" clip-rule="evenodd" d="M113.42 493.79L166.484 493.79L166.484 493.79L166.484 478.19L166.484 478.19L113.42 478.19z" /></clipPath><clipPath id="201"><path id="" clip-rule="evenodd" d="M113.42 493.79L166.484 493.79L166.484 493.79L166.484 478.19L166.484 478.19L113.42 478.19z" /></clipPath><clipPath id="202"><path id="" clip-rule="evenodd" d="M166.49 493.79L219.41 493.79L219.41 493.79L219.41 478.19L219.41 478.19L166.49 478.19z" /></clipPath><clipPath id="203"><path id="" clip-rule="evenodd" d="M166.49 493.79L219.41 493.79L219.41 493.79L219.41 478.19L219.41 478.19L166.49 478.19z" /></clipPath><clipPath id="204"><path id="" clip-rule="evenodd" d="M166.49 493.79L219.41 493.79L219.41 493.79L219.41 478.19L219.41 478.19L166.49 478.19z" /></clipPath><clipPath id="205"><path id="" clip-rule="evenodd" d="M166.49 493.79L219.41 493.79L219.41 493.79L219.41 478.19L219.41 478.19L166.49 478.19z" /></clipPath><clipPath id="206"><path id="" clip-rule="evenodd" d="M219.41 493.79L272.45 493.79L272.45 493.79L272.45 478.19L272.45 478.19L219.41 478.19z" /></clipPath><clipPath id="207"><path id="" clip-rule="evenodd" d="M219.41 493.79L272.45 493.79L272.45 493.79L272.45 478.19L272.45 478.19L219.41 478.19z" /></clipPath><clipPath id="208"><path id="" clip-rule="evenodd" d="M219.41 493.79L272.45 493.79L272.45 493.79L272.45 478.19L272.45 478.19L219.41 478.19z" /></clipPath><clipPath id="209"><path id="" clip-rule="evenodd" d="M272.45 493.79L325.514 493.79L325.514 493.79L325.514 478.19L325.514 478.19L272.45 478.19z" /></clipPath><clipPath id="210"><path id="" clip-rule="evenodd" d="M272.45 493.79L325.514 493.79L325.514 493.79L325.514 478.19L325.514 478.19L272.45 478.19z" /></clipPath><clipPath id="211"><path id="" clip-rule="evenodd" d="M272.45 493.79L325.514 493.79L325.514 493.79L325.514 478.19L325.514 478.19L272.45 478.19z" /></clipPath><clipPath id="212"><path id="" clip-rule="evenodd" d="M272.45 493.79L325.514 493.79L325.514 493.79L325.514 478.19L325.514 478.19L272.45 478.19z" /></clipPath><clipPath id="213"><path id="" clip-rule="evenodd" d="M325.51 493.79L378.43 493.79L378.43 493.79L378.43 478.19L378.43 478.19L325.51 478.19z" /></clipPath><clipPath id="214"><path id="" clip-rule="evenodd" d="M325.51 493.79L378.43 493.79L378.43 493.79L378.43 478.19L378.43 478.19L325.51 478.19z" /></clipPath><clipPath id="215"><path id="" clip-rule="evenodd" d="M325.51 493.79L378.43 493.79L378.43 493.79L378.43 478.19L378.43 478.19L325.51 478.19z" /></clipPath><clipPath id="216"><path id="" clip-rule="evenodd" d="M378.43 493.79L431.494 493.79L431.494 493.79L431.494 478.19L431.494 478.19L378.43 478.19z" /></clipPath><clipPath id="217"><path id="" clip-rule="evenodd" d="M378.43 493.79L431.494 493.79L431.494 493.79L431.494 478.19L431.494 478.19L378.43 478.19z" /></clipPath><clipPath id="218"><path id="" clip-rule="evenodd" d="M378.43 493.79L431.494 493.79L431.494 493.79L431.494 478.19L431.494 478.19L378.43 478.19z" /></clipPath><clipPath id="219"><path id="" clip-rule="evenodd" d="M431.5 493.79L484.54 493.79L484.54 493.79L484.54 478.19L484.54 478.19L431.5 478.19z" /></clipPath><clipPath id="220"><path id="" clip-rule="evenodd" d="M431.5 493.79L484.54 493.79L484.54 493.79L484.54 478.19L484.54 478.19L431.5 478.19z" /></clipPath><clipPath id="221"><path id="" clip-rule="evenodd" d="M431.5 493.79L484.54 493.79L484.54 493.79L484.54 478.19L484.54 478.19L431.5 478.19z" /></clipPath><clipPath id="222"><path id="" clip-rule="evenodd" d="M431.5 493.79L484.54 493.79L484.54 493.79L484.54 478.19L484.54 478.19L431.5 478.19z" /></clipPath><clipPath id="223"><path id="" clip-rule="evenodd" d="M113.42 509.39L166.484 509.39L166.484 509.39L166.484 493.79L166.484 493.79L113.42 493.79z" /></clipPath><clipPath id="224"><path id="" clip-rule="evenodd" d="M113.42 509.39L166.484 509.39L166.484 509.39L166.484 493.79L166.484 493.79L113.42 493.79z" /></clipPath><clipPath id="225"><path id="" clip-rule="evenodd" d="M113.42 509.39L166.484 509.39L166.484 509.39L166.484 493.79L166.484 493.79L113.42 493.79z" /></clipPath><clipPath id="226"><path id="" clip-rule="evenodd" d="M113.42 509.39L166.484 509.39L166.484 509.39L166.484 493.79L166.484 493.79L113.42 493.79z" /></clipPath><clipPath id="227"><path id="" clip-rule="evenodd" d="M113.42 509.39L166.484 509.39L166.484 509.39L166.484 493.79L166.484 493.79L113.42 493.79z" /></clipPath><clipPath id="228"><path id="" clip-rule="evenodd" d="M166.49 509.39L219.41 509.39L219.41 509.39L219.41 493.79L219.41 493.79L166.49 493.79z" /></clipPath><clipPath id="229"><path id="" clip-rule="evenodd" d="M166.49 509.39L219.41 509.39L219.41 509.39L219.41 493.79L219.41 493.79L166.49 493.79z" /></clipPath><clipPath id="230"><path id="" clip-rule="evenodd" d="M166.49 509.39L219.41 509.39L219.41 509.39L219.41 493.79L219.41 493.79L166.49 493.79z" /></clipPath><clipPath id="231"><path id="" clip-rule="evenodd" d="M166.49 509.39L219.41 509.39L219.41 509.39L219.41 493.79L219.41 493.79L166.49 493.79z" /></clipPath><clipPath id="232"><path id="" clip-rule="evenodd" d="M219.41 509.39L272.45 509.39L272.45 509.39L272.45 493.79L272.45 493.79L219.41 493.79z" /></clipPath><clipPath id="233"><path id="" clip-rule="evenodd" d="M219.41 509.39L272.45 509.39L272.45 509.39L272.45 493.79L272.45 493.79L219.41 493.79z" /></clipPath><clipPath id="234"><path id="" clip-rule="evenodd" d="M219.41 509.39L272.45 509.39L272.45 509.39L272.45 493.79L272.45 493.79L219.41 493.79z" /></clipPath><clipPath id="235"><path id="" clip-rule="evenodd" d="M272.45 509.39L325.514 509.39L325.514 509.39L325.514 493.79L325.514 493.79L272.45 493.79z" /></clipPath><clipPath id="236"><path id="" clip-rule="evenodd" d="M272.45 509.39L325.514 509.39L325.514 509.39L325.514 493.79L325.514 493.79L272.45 493.79z" /></clipPath><clipPath id="237"><path id="" clip-rule="evenodd" d="M272.45 509.39L325.514 509.39L325.514 509.39L325.514 493.79L325.514 493.79L272.45 493.79z" /></clipPath><clipPath id="238"><path id="" clip-rule="evenodd" d="M272.45 509.39L325.514 509.39L325.514 509.39L325.514 493.79L325.514 493.79L272.45 493.79z" /></clipPath><clipPath id="239"><path id="" clip-rule="evenodd" d="M325.51 509.39L378.43 509.39L378.43 509.39L378.43 493.79L378.43 493.79L325.51 493.79z" /></clipPath><clipPath id="240"><path id="" clip-rule="evenodd" d="M325.51 509.39L378.43 509.39L378.43 509.39L378.43 493.79L378.43 493.79L325.51 493.79z" /></clipPath><clipPath id="241"><path id="" clip-rule="evenodd" d="M325.51 509.39L378.43 509.39L378.43 509.39L378.43 493.79L378.43 493.79L325.51 493.79z" /></clipPath><clipPath id="242"><path id="" clip-rule="evenodd" d="M378.43 509.39L431.494 509.39L431.494 509.39L431.494 493.79L431.494 493.79L378.43 493.79z" /></clipPath><clipPath id="243"><path id="" clip-rule="evenodd" d="M378.43 509.39L431.494 509.39L431.494 509.39L431.494 493.79L431.494 493.79L378.43 493.79z" /></clipPath><clipPath id="244"><path id="" clip-rule="evenodd" d="M378.43 509.39L431.494 509.39L431.494 509.39L431.494 493.79L431.494 493.79L378.43 493.79z" /></clipPath><clipPath id="245"><path id="" clip-rule="evenodd" d="M431.5 509.39L484.54 509.39L484.54 509.39L484.54 493.79L484.54 493.79L431.5 493.79z" /></clipPath><clipPath id="246"><path id="" clip-rule="evenodd" d="M431.5 509.39L484.54 509.39L484.54 509.39L484.54 493.79L484.54 493.79L431.5 493.79z" /></clipPath><clipPath id="247"><path id="" clip-rule="evenodd" d="M431.5 509.39L484.54 509.39L484.54 509.39L484.54 493.79L484.54 493.79L431.5 493.79z" /></clipPath><clipPath id="248"><path id="" clip-rule="evenodd" d="M113.42 524.99L166.484 524.99L166.484 524.99L166.484 509.39L166.484 509.39L113.42 509.39z" /></clipPath><clipPath id="249"><path id="" clip-rule="evenodd" d="M113.42 524.99L166.484 524.99L166.484 524.99L166.484 509.39L166.484 509.39L113.42 509.39z" /></clipPath><clipPath id="250"><path id="" clip-rule="evenodd" d="M113.42 524.99L166.484 524.99L166.484 524.99L166.484 509.39L166.484 509.39L113.42 509.39z" /></clipPath><clipPath id="251"><path id="" clip-rule="evenodd" d="M113.42 524.99L166.484 524.99L166.484 524.99L166.484 509.39L166.484 509.39L113.42 509.39z" /></clipPath><clipPath id="252"><path id="" clip-rule="evenodd" d="M113.42 524.99L166.484 524.99L166.484 524.99L166.484 509.39L166.484 509.39L113.42 509.39z" /></clipPath><clipPath id="253"><path id="" clip-rule="evenodd" d="M166.49 524.99L219.41 524.99L219.41 524.99L219.41 509.39L219.41 509.39L166.49 509.39z" /></clipPath><clipPath id="254"><path id="" clip-rule="evenodd" d="M166.49 524.99L219.41 524.99L219.41 524.99L219.41 509.39L219.41 509.39L166.49 509.39z" /></clipPath><clipPath id="255"><path id="" clip-rule="evenodd" d="M166.49 524.99L219.41 524.99L219.41 524.99L219.41 509.39L219.41 509.39L166.49 509.39z" /></clipPath><clipPath id="256"><path id="" clip-rule="evenodd" d="M166.49 524.99L219.41 524.99L219.41 524.99L219.41 509.39L219.41 509.39L166.49 509.39z" /></clipPath><clipPath id="257"><path id="" clip-rule="evenodd" d="M219.41 524.99L272.45 524.99L272.45 524.99L272.45 509.39L272.45 509.39L219.41 509.39z" /></clipPath><clipPath id="258"><path id="" clip-rule="evenodd" d="M219.41 524.99L272.45 524.99L272.45 524.99L272.45 509.39L272.45 509.39L219.41 509.39z" /></clipPath><clipPath id="259"><path id="" clip-rule="evenodd" d="M219.41 524.99L272.45 524.99L272.45 524.99L272.45 509.39L272.45 509.39L219.41 509.39z" /></clipPath><clipPath id="260"><path id="" clip-rule="evenodd" d="M272.45 524.99L325.514 524.99L325.514 524.99L325.514 509.39L325.514 509.39L272.45 509.39z" /></clipPath><clipPath id="261"><path id="" clip-rule="evenodd" d="M272.45 524.99L325.514 524.99L325.514 524.99L325.514 509.39L325.514 509.39L272.45 509.39z" /></clipPath><clipPath id="262"><path id="" clip-rule="evenodd" d="M272.45 524.99L325.514 524.99L325.514 524.99L325.514 509.39L325.514 509.39L272.45 509.39z" /></clipPath><clipPath id="263"><path id="" clip-rule="evenodd" d="M272.45 524.99L325.514 524.99L325.514 524.99L325.514 509.39L325.514 509.39L272.45 509.39z" /></clipPath><clipPath id="264"><path id="" clip-rule="evenodd" d="M325.51 524.99L378.43 524.99L378.43 524.99L378.43 509.39L378.43 509.39L325.51 509.39z" /></clipPath><clipPath id="265"><path id="" clip-rule="evenodd" d="M325.51 524.99L378.43 524.99L378.43 524.99L378.43 509.39L378.43 509.39L325.51 509.39z" /></clipPath><clipPath id="266"><path id="" clip-rule="evenodd" d="M325.51 524.99L378.43 524.99L378.43 524.99L378.43 509.39L378.43 509.39L325.51 509.39z" /></clipPath><clipPath id="267"><path id="" clip-rule="evenodd" d="M378.43 524.99L431.494 524.99L431.494 524.99L431.494 509.39L431.494 509.39L378.43 509.39z" /></clipPath><clipPath id="268"><path id="" clip-rule="evenodd" d="M378.43 524.99L431.494 524.99L431.494 524.99L431.494 509.39L431.494 509.39L378.43 509.39z" /></clipPath><clipPath id="269"><path id="" clip-rule="evenodd" d="M378.43 524.99L431.494 524.99L431.494 524.99L431.494 509.39L431.494 509.39L378.43 509.39z" /></clipPath><clipPath id="270"><path id="" clip-rule="evenodd" d="M431.5 524.99L484.54 524.99L484.54 524.99L484.54 509.39L484.54 509.39L431.5 509.39z" /></clipPath><clipPath id="271"><path id="" clip-rule="evenodd" d="M431.5 524.99L484.54 524.99L484.54 524.99L484.54 509.39L484.54 509.39L431.5 509.39z" /></clipPath><clipPath id="272"><path id="" clip-rule="evenodd" d="M431.5 524.99L484.54 524.99L484.54 524.99L484.54 509.39L484.54 509.39L431.5 509.39z" /></clipPath><clipPath id="273"><path id="" clip-rule="evenodd" d="M113.42 540.59L166.484 540.59L166.484 540.59L166.484 524.99L166.484 524.99L113.42 524.99z" /></clipPath><clipPath id="274"><path id="" clip-rule="evenodd" d="M113.42 540.59L166.484 540.59L166.484 540.59L166.484 524.99L166.484 524.99L113.42 524.99z" /></clipPath><clipPath id="275"><path id="" clip-rule="evenodd" d="M113.42 540.59L166.484 540.59L166.484 540.59L166.484 524.99L166.484 524.99L113.42 524.99z" /></clipPath><clipPath id="276"><path id="" clip-rule="evenodd" d="M166.49 540.59L219.41 540.59L219.41 540.59L219.41 524.99L219.41 524.99L166.49 524.99z" /></clipPath><clipPath id="277"><path id="" clip-rule="evenodd" d="M166.49 540.59L219.41 540.59L219.41 540.59L219.41 524.99L219.41 524.99L166.49 524.99z" /></clipPath><clipPath id="278"><path id="" clip-rule="evenodd" d="M166.49 540.59L219.41 540.59L219.41 540.59L219.41 524.99L219.41 524.99L166.49 524.99z" /></clipPath><clipPath id="279"><path id="" clip-rule="evenodd" d="M219.41 540.59L272.45 540.59L272.45 540.59L272.45 524.99L272.45 524.99L219.41 524.99z" /></clipPath><clipPath id="280"><path id="" clip-rule="evenodd" d="M219.41 540.59L272.45 540.59L272.45 540.59L272.45 524.99L272.45 524.99L219.41 524.99z" /></clipPath><clipPath id="281"><path id="" clip-rule="evenodd" d="M219.41 540.59L272.45 540.59L272.45 540.59L272.45 524.99L272.45 524.99L219.41 524.99z" /></clipPath><clipPath id="282"><path id="" clip-rule="evenodd" d="M272.45 540.59L325.514 540.59L325.514 540.59L325.514 524.99L325.514 524.99L272.45 524.99z" /></clipPath><clipPath id="283"><path id="" clip-rule="evenodd" d="M272.45 540.59L325.514 540.59L325.514 540.59L325.514 524.99L325.514 524.99L272.45 524.99z" /></clipPath><clipPath id="284"><path id="" clip-rule="evenodd" d="M272.45 540.59L325.514 540.59L325.514 540.59L325.514 524.99L325.514 524.99L272.45 524.99z" /></clipPath><clipPath id="285"><path id="" clip-rule="evenodd" d="M325.51 540.59L378.43 540.59L378.43 540.59L378.43 524.99L378.43 524.99L325.51 524.99z" /></clipPath><clipPath id="286"><path id="" clip-rule="evenodd" d="M325.51 540.59L378.43 540.59L378.43 540.59L378.43 524.99L378.43 524.99L325.51 524.99z" /></clipPath><clipPath id="287"><path id="" clip-rule="evenodd" d="M325.51 540.59L378.43 540.59L378.43 540.59L378.43 524.99L378.43 524.99L325.51 524.99z" /></clipPath><clipPath id="288"><path id="" clip-rule="evenodd" d="M378.43 540.59L431.494 540.59L431.494 540.59L431.494 524.99L431.494 524.99L378.43 524.99z" /></clipPath><clipPath id="289"><path id="" clip-rule="evenodd" d="M378.43 540.59L431.494 540.59L431.494 540.59L431.494 524.99L431.494 524.99L378.43 524.99z" /></clipPath><clipPath id="290"><path id="" clip-rule="evenodd" d="M378.43 540.59L431.494 540.59L431.494 540.59L431.494 524.99L431.494 524.99L378.43 524.99z" /></clipPath><clipPath id="291"><path id="" clip-rule="evenodd" d="M431.5 540.59L484.54 540.59L484.54 540.59L484.54 524.99L484.54 524.99L431.5 524.99z" /></clipPath><clipPath id="292"><path id="" clip-rule="evenodd" d="M431.5 540.59L484.54 540.59L484.54 540.59L484.54 524.99L484.54 524.99L431.5 524.99z" /></clipPath><clipPath id="293"><path id="" clip-rule="evenodd" d="M431.5 540.59L484.54 540.59L484.54 540.59L484.54 524.99L484.54 524.99L431.5 524.99z" /></clipPath><clipPath id="294"><path id="" clip-rule="evenodd" d="M431.5 540.59L484.54 540.59L484.54 540.59L484.54 524.99L484.54 524.99L431.5 524.99z" /></clipPath><clipPath id="295"><path id="" clip-rule="evenodd" d="M113.42 556.19L166.484 556.19L166.484 556.19L166.484 540.59L166.484 540.59L113.42 540.59z" /></clipPath><clipPath id="296"><path id="" clip-rule="evenodd" d="M113.42 556.19L166.484 556.19L166.484 556.19L166.484 540.59L166.484 540.59L113.42 540.59z" /></clipPath><clipPath id="297"><path id="" clip-rule="evenodd" d="M113.42 556.19L166.484 556.19L166.484 556.19L166.484 540.59L166.484 540.59L113.42 540.59z" /></clipPath><clipPath id="298"><path id="" clip-rule="evenodd" d="M113.42 556.19L166.484 556.19L166.484 556.19L166.484 540.59L166.484 540.59L113.42 540.59z" /></clipPath><clipPath id="299"><path id="" clip-rule="evenodd" d="M113.42 556.19L166.484 556.19L166.484 556.19L166.484 540.59L166.484 540.59L113.42 540.59z" /></clipPath><clipPath id="300"><path id="" clip-rule="evenodd" d="M166.49 556.19L219.41 556.19L219.41 556.19L219.41 540.59L219.41 540.59L166.49 540.59z" /></clipPath><clipPath id="301"><path id="" clip-rule="evenodd" d="M166.49 556.19L219.41 556.19L219.41 556.19L219.41 540.59L219.41 540.59L166.49 540.59z" /></clipPath><clipPath id="302"><path id="" clip-rule="evenodd" d="M166.49 556.19L219.41 556.19L219.41 556.19L219.41 540.59L219.41 540.59L166.49 540.59z" /></clipPath><clipPath id="303"><path id="" clip-rule="evenodd" d="M166.49 556.19L219.41 556.19L219.41 556.19L219.41 540.59L219.41 540.59L166.49 540.59z" /></clipPath><clipPath id="304"><path id="" clip-rule="evenodd" d="M219.41 556.19L272.45 556.19L272.45 556.19L272.45 540.59L272.45 540.59L219.41 540.59z" /></clipPath><clipPath id="305"><path id="" clip-rule="evenodd" d="M219.41 556.19L272.45 556.19L272.45 556.19L272.45 540.59L272.45 540.59L219.41 540.59z" /></clipPath><clipPath id="306"><path id="" clip-rule="evenodd" d="M219.41 556.19L272.45 556.19L272.45 556.19L272.45 540.59L272.45 540.59L219.41 540.59z" /></clipPath><clipPath id="307"><path id="" clip-rule="evenodd" d="M272.45 556.19L325.514 556.19L325.514 556.19L325.514 540.59L325.514 540.59L272.45 540.59z" /></clipPath><clipPath id="308"><path id="" clip-rule="evenodd" d="M272.45 556.19L325.514 556.19L325.514 556.19L325.514 540.59L325.514 540.59L272.45 540.59z" /></clipPath><clipPath id="309"><path id="" clip-rule="evenodd" d="M272.45 556.19L325.514 556.19L325.514 556.19L325.514 540.59L325.514 540.59L272.45 540.59z" /></clipPath><clipPath id="310"><path id="" clip-rule="evenodd" d="M272.45 556.19L325.514 556.19L325.514 556.19L325.514 540.59L325.514 540.59L272.45 540.59z" /></clipPath><clipPath id="311"><path id="" clip-rule="evenodd" d="M272.45 556.19L325.514 556.19L325.514 556.19L325.514 540.59L325.514 540.59L272.45 540.59z" /></clipPath><clipPath id="312"><path id="" clip-rule="evenodd" d="M325.51 556.19L378.43 556.19L378.43 556.19L378.43 540.59L378.43 540.59L325.51 540.59z" /></clipPath><clipPath id="313"><path id="" clip-rule="evenodd" d="M325.51 556.19L378.43 556.19L378.43 556.19L378.43 540.59L378.43 540.59L325.51 540.59z" /></clipPath><clipPath id="314"><path id="" clip-rule="evenodd" d="M325.51 556.19L378.43 556.19L378.43 556.19L378.43 540.59L378.43 540.59L325.51 540.59z" /></clipPath><clipPath id="315"><path id="" clip-rule="evenodd" d="M378.43 556.19L431.494 556.19L431.494 556.19L431.494 540.59L431.494 540.59L378.43 540.59z" /></clipPath><clipPath id="316"><path id="" clip-rule="evenodd" d="M378.43 556.19L431.494 556.19L431.494 556.19L431.494 540.59L431.494 540.59L378.43 540.59z" /></clipPath><clipPath id="317"><path id="" clip-rule="evenodd" d="M378.43 556.19L431.494 556.19L431.494 556.19L431.494 540.59L431.494 540.59L378.43 540.59z" /></clipPath><clipPath id="318"><path id="" clip-rule="evenodd" d="M431.5 556.19L484.54 556.19L484.54 556.19L484.54 540.59L484.54 540.59L431.5 540.59z" /></clipPath><clipPath id="319"><path id="" clip-rule="evenodd" d="M431.5 556.19L484.54 556.19L484.54 556.19L484.54 540.59L484.54 540.59L431.5 540.59z" /></clipPath><clipPath id="320"><path id="" clip-rule="evenodd" d="M431.5 556.19L484.54 556.19L484.54 556.19L484.54 540.59L484.54 540.59L431.5 540.59z" /></clipPath><clipPath id="321"><path id="" clip-rule="evenodd" d="M113.42 572.39L166.484 572.39L166.484 572.39L166.484 556.19L166.484 556.19L113.42 556.19z" /></clipPath><clipPath id="322"><path id="" clip-rule="evenodd" d="M113.42 572.39L166.484 572.39L166.484 572.39L166.484 556.19L166.484 556.19L113.42 556.19z" /></clipPath><clipPath id="323"><path id="" clip-rule="evenodd" d="M113.42 572.39L166.484 572.39L166.484 572.39L166.484 556.19L166.484 556.19L113.42 556.19z" /></clipPath><clipPath id="324"><path id="" clip-rule="evenodd" d="M113.42 572.39L166.484 572.39L166.484 572.39L166.484 556.19L166.484 556.19L113.42 556.19z" /></clipPath><clipPath id="325"><path id="" clip-rule="evenodd" d="M113.42 572.39L166.484 572.39L166.484 572.39L166.484 556.19L166.484 556.19L113.42 556.19z" /></clipPath><clipPath id="326"><path id="" clip-rule="evenodd" d="M166.49 572.39L219.41 572.39L219.41 572.39L219.41 556.19L219.41 556.19L166.49 556.19z" /></clipPath><clipPath id="327"><path id="" clip-rule="evenodd" d="M166.49 572.39L219.41 572.39L219.41 572.39L219.41 556.19L219.41 556.19L166.49 556.19z" /></clipPath><clipPath id="328"><path id="" clip-rule="evenodd" d="M166.49 572.39L219.41 572.39L219.41 572.39L219.41 556.19L219.41 556.19L166.49 556.19z" /></clipPath><clipPath id="329"><path id="" clip-rule="evenodd" d="M166.49 572.39L219.41 572.39L219.41 572.39L219.41 556.19L219.41 556.19L166.49 556.19z" /></clipPath><clipPath id="330"><path id="" clip-rule="evenodd" d="M219.41 572.39L272.45 572.39L272.45 572.39L272.45 556.19L272.45 556.19L219.41 556.19z" /></clipPath><clipPath id="331"><path id="" clip-rule="evenodd" d="M219.41 572.39L272.45 572.39L272.45 572.39L272.45 556.19L272.45 556.19L219.41 556.19z" /></clipPath><clipPath id="332"><path id="" clip-rule="evenodd" d="M219.41 572.39L272.45 572.39L272.45 572.39L272.45 556.19L272.45 556.19L219.41 556.19z" /></clipPath><clipPath id="333"><path id="" clip-rule="evenodd" d="M272.45 572.39L325.514 572.39L325.514 572.39L325.514 556.19L325.514 556.19L272.45 556.19z" /></clipPath><clipPath id="334"><path id="" clip-rule="evenodd" d="M272.45 572.39L325.514 572.39L325.514 572.39L325.514 556.19L325.514 556.19L272.45 556.19z" /></clipPath><clipPath id="335"><path id="" clip-rule="evenodd" d="M272.45 572.39L325.514 572.39L325.514 572.39L325.514 556.19L325.514 556.19L272.45 556.19z" /></clipPath><clipPath id="336"><path id="" clip-rule="evenodd" d="M272.45 572.39L325.514 572.39L325.514 572.39L325.514 556.19L325.514 556.19L272.45 556.19z" /></clipPath><clipPath id="337"><path id="" clip-rule="evenodd" d="M325.51 572.39L378.43 572.39L378.43 572.39L378.43 556.19L378.43 556.19L325.51 556.19z" /></clipPath><clipPath id="338"><path id="" clip-rule="evenodd" d="M325.51 572.39L378.43 572.39L378.43 572.39L378.43 556.19L378.43 556.19L325.51 556.19z" /></clipPath><clipPath id="339"><path id="" clip-rule="evenodd" d="M325.51 572.39L378.43 572.39L378.43 572.39L378.43 556.19L378.43 556.19L325.51 556.19z" /></clipPath><clipPath id="340"><path id="" clip-rule="evenodd" d="M378.43 572.39L431.494 572.39L431.494 572.39L431.494 556.19L431.494 556.19L378.43 556.19z" /></clipPath><clipPath id="341"><path id="" clip-rule="evenodd" d="M378.43 572.39L431.494 572.39L431.494 572.39L431.494 556.19L431.494 556.19L378.43 556.19z" /></clipPath><clipPath id="342"><path id="" clip-rule="evenodd" d="M378.43 572.39L431.494 572.39L431.494 572.39L431.494 556.19L431.494 556.19L378.43 556.19z" /></clipPath><clipPath id="343"><path id="" clip-rule="evenodd" d="M431.5 572.39L484.54 572.39L484.54 572.39L484.54 556.19L484.54 556.19L431.5 556.19z" /></clipPath><clipPath id="344"><path id="" clip-rule="evenodd" d="M431.5 572.39L484.54 572.39L484.54 572.39L484.54 556.19L484.54 556.19L431.5 556.19z" /></clipPath><clipPath id="345"><path id="" clip-rule="evenodd" d="M431.5 572.39L484.54 572.39L484.54 572.39L484.54 556.19L484.54 556.19L431.5 556.19z" /></clipPath><clipPath id="346"><path id="" clip-rule="evenodd" d="M8.871E-06 841L595.32 841L595.32 841L595.32 -0.9199829L595.32 -0.9199829L8.871E-06 -0.9199829z" /></clipPath><clipPath id="347"><path id="" clip-rule="evenodd" d="M8.871E-06 841L595.32 841L595.32 841L595.32 -0.9199829L595.32 -0.9199829L8.871E-06 -0.9199829z" /></clipPath><clipPath id="348"><path id="" clip-rule="evenodd" d="M8.871E-06 841L595.32 841L595.32 841L595.32 -0.9199829L595.32 -0.9199829L8.871E-06 -0.9199829z" /></clipPath><clipPath id="349"><path id="" clip-rule="evenodd" d="M8.871E-06 841L595.32 841L595.32 841L595.32 -0.9199829L595.32 -0.9199829L8.871E-06 -0.9199829z" /></clipPath><clipPath id="350"><path id="" clip-rule="evenodd" d="M8.871E-06 841L595.32 841L595.32 841L595.32 -0.9199829L595.32 -0.9199829L8.871E-06 -0.9199829z" /></clipPath><clipPath id="351"><path id="" clip-rule="evenodd" d="M8.871E-06 841L595.32 841L595.32 841L595.32 -0.9199829L595.32 -0.9199829L8.871E-06 -0.9199829z" /></clipPath><clipPath id="352"><path id="" clip-rule="evenodd" d="M8.871E-06 841L595.32 841L595.32 841L595.32 -0.9199829L595.32 -0.9199829L8.871E-06 -0.9199829z" /></clipPath><clipPath id="353"><path id="" clip-rule="evenodd" d="M8.871E-06 841L595.32 841L595.32 841L595.32 -0.9199829L595.32 -0.9199829L8.871E-06 -0.9199829z" /></clipPath><clipPath id="354"><path id="" clip-rule="evenodd" d="M8.871E-06 841L595.32 841L595.32 841L595.32 -0.9199829L595.32 -0.9199829L8.871E-06 -0.9199829z" /></clipPath><clipPath id="355"><path id="" clip-rule="evenodd" d="M8.871E-06 841L595.32 841L595.32 841L595.32 -0.9199829L595.32 -0.9199829L8.871E-06 -0.9199829z" /></clipPath><clipPath id="356"><path id="" clip-rule="evenodd" d="M8.871E-06 841L595.32 841L595.32 841L595.32 -0.9199829L595.32 -0.9199829L8.871E-06 -0.9199829z" /></clipPath><clipPath id="357"><path id="" clip-rule="evenodd" d="M8.871E-06 841L595.32 841L595.32 841L595.32 -0.9199829L595.32 -0.9199829L8.871E-06 -0.9199829z" /></clipPath><clipPath id="358"><path id="" clip-rule="evenodd" d="M8.871E-06 841L595.32 841L595.32 841L595.32 -0.9199829L595.32 -0.9199829L8.871E-06 -0.9199829z" /></clipPath><clipPath id="359"><path id="" clip-rule="evenodd" d="M8.871E-06 841L595.32 841L595.32 841L595.32 -0.9199829L595.32 -0.9199829L8.871E-06 -0.9199829z" /></clipPath><clipPath id="360"><path id="" clip-rule="evenodd" d="M8.871E-06 841L595.32 841L595.32 841L595.32 -0.9199829L595.32 -0.9199829L8.871E-06 -0.9199829z" /></clipPath><clipPath id="361"><path id="" clip-rule="evenodd" d="M8.871E-06 841L595.32 841L595.32 841L595.32 -0.9199829L595.32 -0.9199829L8.871E-06 -0.9199829z" /></clipPath><clipPath id="362"><path id="" clip-rule="evenodd" d="M8.871E-06 841L595.32 841L595.32 841L595.32 -0.9199829L595.32 -0.9199829L8.871E-06 -0.9199829z" /></clipPath><clipPath id="363"><path id="" clip-rule="evenodd" d="M8.871E-06 841L595.32 841L595.32 841L595.32 -0.9199829L595.32 -0.9199829L8.871E-06 -0.9199829z" /></clipPath><clipPath id="364"><path id="" clip-rule="evenodd" d="M8.871E-06 841L595.32 841L595.32 841L595.32 -0.9199829L595.32 -0.9199829L8.871E-06 -0.9199829z" /></clipPath><clipPath id="365"><path id="" clip-rule="evenodd" d="M8.871E-06 841L595.32 841L595.32 841L595.32 -0.9199829L595.32 -0.9199829L8.871E-06 -0.9199829z" /></clipPath><clipPath id="366"><path id="" clip-rule="evenodd" d="M8.871E-06 841L595.32 841L595.32 841L595.32 -0.9199829L595.32 -0.9199829L8.871E-06 -0.9199829z" /></clipPath><clipPath id="367"><path id="" clip-rule="evenodd" d="M8.871E-06 841L595.32 841L595.32 841L595.32 -0.9199829L595.32 -0.9199829L8.871E-06 -0.9199829z" /></clipPath><clipPath id="368"><path id="" clip-rule="evenodd" d="M8.871E-06 841L595.32 841L595.32 841L595.32 -0.9199829L595.32 -0.9199829L8.871E-06 -0.9199829z" /></clipPath><clipPath id="369"><path id="" clip-rule="evenodd" d="M8.871E-06 841L595.32 841L595.32 841L595.32 -0.9199829L595.32 -0.9199829L8.871E-06 -0.9199829z" /></clipPath><clipPath id="370"><path id="" clip-rule="evenodd" d="M8.871E-06 841L595.32 841L595.32 841L595.32 -0.9199829L595.32 -0.9199829L8.871E-06 -0.9199829z" /></clipPath><clipPath id="371"><path id="" clip-rule="evenodd" d="M8.871E-06 841L595.32 841L595.32 841L595.32 -0.9199829L595.32 -0.9199829L8.871E-06 -0.9199829z" /></clipPath><clipPath id="372"><path id="" clip-rule="evenodd" d="M8.871E-06 841L595.32 841L595.32 841L595.32 -0.9199829L595.32 -0.9199829L8.871E-06 -0.9199829z" /></clipPath><clipPath id="373"><path id="" clip-rule="evenodd" d="M8.871E-06 841L595.32 841L595.32 841L595.32 -0.9199829L595.32 -0.9199829L8.871E-06 -0.9199829z" /></clipPath><clipPath id="374"><path id="" clip-rule="evenodd" d="M8.871E-06 841L595.32 841L595.32 841L595.32 -0.9199829L595.32 -0.9199829L8.871E-06 -0.9199829z" /></clipPath><clipPath id="375"><path id="" clip-rule="evenodd" d="M8.871E-06 841L595.32 841L595.32 841L595.32 -0.9199829L595.32 -0.9199829L8.871E-06 -0.9199829z" /></clipPath><clipPath id="376"><path id="" clip-rule="evenodd" d="M8.871E-06 841L595.32 841L595.32 841L595.32 -0.9199829L595.32 -0.9199829L8.871E-06 -0.9199829z" /></clipPath><clipPath id="377"><path id="" clip-rule="evenodd" d="M8.871E-06 841L595.32 841L595.32 841L595.32 -0.9199829L595.32 -0.9199829L8.871E-06 -0.9199829z" /></clipPath><clipPath id="378"><path id="" clip-rule="evenodd" d="M8.871E-06 841L595.32 841L595.32 841L595.32 -0.9199829L595.32 -0.9199829L8.871E-06 -0.9199829z" /></clipPath><clipPath id="379"><path id="" clip-rule="evenodd" d="M8.871E-06 841L595.32 841L595.32 841L595.32 -0.9199829L595.32 -0.9199829L8.871E-06 -0.9199829z" /></clipPath><clipPath id="380"><path id="" clip-rule="evenodd" d="M8.871E-06 841L595.32 841L595.32 841L595.32 -0.9199829L595.32 -0.9199829L8.871E-06 -0.9199829z" /></clipPath><clipPath id="381"><path id="" clip-rule="evenodd" d="M8.871E-06 841L595.32 841L595.32 841L595.32 -0.9199829L595.32 -0.9199829L8.871E-06 -0.9199829z" /></clipPath><clipPath id="382"><path id="" clip-rule="evenodd" d="M8.871E-06 841L595.32 841L595.32 841L595.32 -0.9199829L595.32 -0.9199829L8.871E-06 -0.9199829z" /></clipPath><clipPath id="383"><path id="" clip-rule="evenodd" d="M8.871E-06 841L595.32 841L595.32 841L595.32 -0.9199829L595.32 -0.9199829L8.871E-06 -0.9199829z" /></clipPath><clipPath id="384"><path id="" clip-rule="evenodd" d="M8.871E-06 841L595.32 841L595.32 841L595.32 -0.9199829L595.32 -0.9199829L8.871E-06 -0.9199829z" /></clipPath><clipPath id="385"><path id="" clip-rule="evenodd" d="M8.871E-06 841L595.32 841L595.32 841L595.32 -0.9199829L595.32 -0.9199829L8.871E-06 -0.9199829z" /></clipPath><clipPath id="386"><path id="" clip-rule="evenodd" d="M8.871E-06 841L595.32 841L595.32 841L595.32 -0.9199829L595.32 -0.9199829L8.871E-06 -0.9199829z" /></clipPath><clipPath id="387"><path id="" clip-rule="evenodd" d="M8.871E-06 841L595.32 841L595.32 841L595.32 -0.9199829L595.32 -0.9199829L8.871E-06 -0.9199829z" /></clipPath><clipPath id="388"><path id="" clip-rule="evenodd" d="M8.871E-06 841L595.32 841L595.32 841L595.32 -0.9199829L595.32 -0.9199829L8.871E-06 -0.9199829z" /></clipPath><clipPath id="389"><path id="" clip-rule="evenodd" d="M8.871E-06 841L595.32 841L595.32 841L595.32 -0.9199829L595.32 -0.9199829L8.871E-06 -0.9199829z" /></clipPath><clipPath id="390"><path id="" clip-rule="evenodd" d="M8.871E-06 841L595.32 841L595.32 841L595.32 -0.9199829L595.32 -0.9199829L8.871E-06 -0.9199829z" /></clipPath><clipPath id="391"><path id="" clip-rule="evenodd" d="M8.871E-06 841L595.32 841L595.32 841L595.32 -0.9199829L595.32 -0.9199829L8.871E-06 -0.9199829z" /></clipPath><clipPath id="392"><path id="" clip-rule="evenodd" d="M8.871E-06 841L595.32 841L595.32 841L595.32 -0.9199829L595.32 -0.9199829L8.871E-06 -0.9199829z" /></clipPath><clipPath id="393"><path id="" clip-rule="evenodd" d="M8.871E-06 841L595.32 841L595.32 841L595.32 -0.9199829L595.32 -0.9199829L8.871E-06 -0.9199829z" /></clipPath><clipPath id="394"><path id="" clip-rule="evenodd" d="M8.871E-06 841L595.32 841L595.32 841L595.32 -0.9199829L595.32 -0.9199829L8.871E-06 -0.9199829z" /></clipPath><clipPath id="395"><path id="" clip-rule="evenodd" d="M8.871E-06 841L595.32 841L595.32 841L595.32 -0.9199829L595.32 -0.9199829L8.871E-06 -0.9199829z" /></clipPath><clipPath id="396"><path id="" clip-rule="evenodd" d="M8.871E-06 841L595.32 841L595.32 841L595.32 -0.9199829L595.32 -0.9199829L8.871E-06 -0.9199829z" /></clipPath><clipPath id="397"><path id="" clip-rule="evenodd" d="M8.871E-06 841L595.32 841L595.32 841L595.32 -0.9199829L595.32 -0.9199829L8.871E-06 -0.9199829z" /></clipPath><clipPath id="398"><path id="" clip-rule="evenodd" d="M8.871E-06 841L595.32 841L595.32 841L595.32 -0.9199829L595.32 -0.9199829L8.871E-06 -0.9199829z" /></clipPath><clipPath id="399"><path id="" clip-rule="evenodd" d="M8.871E-06 841L595.32 841L595.32 841L595.32 -0.9199829L595.32 -0.9199829L8.871E-06 -0.9199829z" /></clipPath><clipPath id="400"><path id="" clip-rule="evenodd" d="M8.871E-06 841L595.32 841L595.32 841L595.32 -0.9199829L595.32 -0.9199829L8.871E-06 -0.9199829z" /></clipPath><clipPath id="401"><path id="" clip-rule="evenodd" d="M8.871E-06 841L595.32 841L595.32 841L595.32 -0.9199829L595.32 -0.9199829L8.871E-06 -0.9199829z" /></clipPath><clipPath id="402"><path id="" clip-rule="evenodd" d="M8.871E-06 841L595.32 841L595.32 841L595.32 -0.9199829L595.32 -0.9199829L8.871E-06 -0.9199829z" /></clipPath><clipPath id="403"><path id="" clip-rule="evenodd" d="M8.871E-06 841L595.32 841L595.32 841L595.32 -0.9199829L595.32 -0.9199829L8.871E-06 -0.9199829z" /></clipPath><clipPath id="404"><path id="" clip-rule="evenodd" d="M8.871E-06 841L595.32 841L595.32 841L595.32 -0.9199829L595.32 -0.9199829L8.871E-06 -0.9199829z" /></clipPath><clipPath id="405"><path id="" clip-rule="evenodd" d="M8.871E-06 841L595.32 841L595.32 841L595.32 -0.9199829L595.32 -0.9199829L8.871E-06 -0.9199829z" /></clipPath><clipPath id="406"><path id="" clip-rule="evenodd" d="M8.871E-06 841L595.32 841L595.32 841L595.32 -0.9199829L595.32 -0.9199829L8.871E-06 -0.9199829z" /></clipPath><clipPath id="407"><path id="" clip-rule="evenodd" d="M8.871E-06 841L595.32 841L595.32 841L595.32 -0.9199829L595.32 -0.9199829L8.871E-06 -0.9199829z" /></clipPath><clipPath id="408"><path id="" clip-rule="evenodd" d="M8.871E-06 841L595.32 841L595.32 841L595.32 -0.9199829L595.32 -0.9199829L8.871E-06 -0.9199829z" /></clipPath><clipPath id="409"><path id="" clip-rule="evenodd" d="M8.871E-06 841L595.32 841L595.32 841L595.32 -0.9199829L595.32 -0.9199829L8.871E-06 -0.9199829z" /></clipPath><clipPath id="410"><path id="" clip-rule="evenodd" d="M8.871E-06 841L595.32 841L595.32 841L595.32 -0.9199829L595.32 -0.9199829L8.871E-06 -0.9199829z" /></clipPath><clipPath id="411"><path id="" clip-rule="evenodd" d="M8.871E-06 841L595.32 841L595.32 841L595.32 -0.9199829L595.32 -0.9199829L8.871E-06 -0.9199829z" /></clipPath><clipPath id="412"><path id="" clip-rule="evenodd" d="M8.871E-06 841L595.32 841L595.32 841L595.32 -0.9199829L595.32 -0.9199829L8.871E-06 -0.9199829z" /></clipPath><clipPath id="413"><path id="" clip-rule="evenodd" d="M8.871E-06 841L595.32 841L595.32 841L595.32 -0.9199829L595.32 -0.9199829L8.871E-06 -0.9199829z" /></clipPath><clipPath id="414"><path id="" clip-rule="evenodd" d="M8.871E-06 841L595.32 841L595.32 841L595.32 -0.9199829L595.32 -0.9199829L8.871E-06 -0.9199829z" /></clipPath><clipPath id="415"><path id="" clip-rule="evenodd" d="M8.871E-06 841L595.32 841L595.32 841L595.32 -0.9199829L595.32 -0.9199829L8.871E-06 -0.9199829z" /></clipPath><clipPath id="416"><path id="" clip-rule="evenodd" d="M8.871E-06 841L595.32 841L595.32 841L595.32 -0.9199829L595.32 -0.9199829L8.871E-06 -0.9199829z" /></clipPath><clipPath id="417"><path id="" clip-rule="evenodd" d="M8.871E-06 841L595.32 841L595.32 841L595.32 -0.9199829L595.32 -0.9199829L8.871E-06 -0.9199829z" /></clipPath><clipPath id="418"><path id="" clip-rule="evenodd" d="M8.871E-06 841L595.32 841L595.32 841L595.32 -0.9199829L595.32 -0.9199829L8.871E-06 -0.9199829z" /></clipPath><clipPath id="419"><path id="" clip-rule="evenodd" d="M8.871E-06 841L595.32 841L595.32 841L595.32 -0.9199829L595.32 -0.9199829L8.871E-06 -0.9199829z" /></clipPath><clipPath id="420"><path id="" clip-rule="evenodd" d="M8.871E-06 389.32L595.32 389.32L595.32 389.32L595.32 311.32L595.32 311.32L8.871E-06 311.32z" /></clipPath></defs><g transform="matrix(1.333333 0 0 1.333333 0 0)"><g clip-path="url(#1)"><g clip-path="url(#2)"><path id="1" transform="matrix(1 0 0 -1 0 841)" d="M0 -0.13L595.45 -0.13L595.45 -0.13L595.45 841.92L595.45 841.92L0 841.92z" stroke="none" fill="#F5F1DE" fill-rule="evenodd" /></g><g clip-path="url(#3)"></g><g clip-path="url(#4)"></g><path id="23" transform="matrix(1 0 0 -1 0 841)" d="M90 777.72L505.3 777.72L505.3 777.72L505.3 779.27L505.3 779.27L90 779.27z" stroke="none" fill="#808080" fill-rule="evenodd" /><path id="24" transform="matrix(1 0 0 -1 0 841)" d="M90.024 779.04L90.264 779.04L90.264 779.04L90.264 779.28L90.264 779.28L90.024 779.28z" stroke="none" fill="#808080" fill-rule="evenodd" /><path id="25" transform="matrix(1 0 0 -1 0 841)" d="M90.024 779.04L90.264 779.04L90.264 779.04L90.264 779.28L90.264 779.28L90.024 779.28z" stroke="none" fill="#808080" fill-rule="evenodd" /><path id="26" transform="matrix(1 0 0 -1 0 841)" d="M90.264 779.04L505.204 779.04L505.204 779.04L505.204 779.28L505.204 779.28L90.264 779.28z" stroke="none" fill="#808080" fill-rule="evenodd" /><path id="27" transform="matrix(1 0 0 -1 0 841)" d="M505.2 779.04L505.44 779.04L505.44 779.04L505.44 779.28L505.44 779.28L505.2 779.28z" stroke="none" fill="#D4D0C8" fill-rule="evenodd" /><path id="28" transform="matrix(1 0 0 -1 0 841)" d="M505.2 779.04L505.44 779.04L505.44 779.04L505.44 779.28L505.44 779.28L505.2 779.28z" stroke="none" fill="#808080" fill-rule="evenodd" /><path id="29" transform="matrix(1 0 0 -1 0 841)" d="M90.024 777.96L90.264 777.96L90.264 777.96L90.264 779.04L90.264 779.04L90.024 779.04z" stroke="none" fill="#808080" fill-rule="evenodd" /><path id="30" transform="matrix(1 0 0 -1 0 841)" d="M505.2 777.96L505.44 777.96L505.44 777.96L505.44 779.04L505.44 779.04L505.2 779.04z" stroke="none" fill="#D4D0C8" fill-rule="evenodd" /><path id="31" transform="matrix(1 0 0 -1 0 841)" d="M90.024 777.72L90.264 777.72L90.264 777.72L90.264 777.96L90.264 777.96L90.024 777.96z" stroke="none" fill="#808080" fill-rule="evenodd" /><path id="32" transform="matrix(1 0 0 -1 0 841)" d="M90.024 777.72L90.264 777.72L90.264 777.72L90.264 777.96L90.264 777.96L90.024 777.96z" stroke="none" fill="#D4D0C8" fill-rule="evenodd" /><path id="33" transform="matrix(1 0 0 -1 0 841)" d="M90.264 777.72L505.204 777.72L505.204 777.72L505.204 777.96L505.204 777.96L90.264 777.96z" stroke="none" fill="#D4D0C8" fill-rule="evenodd" /><path id="34" transform="matrix(1 0 0 -1 0 841)" d="M505.2 777.72L505.44 777.72L505.44 777.72L505.44 777.96L505.44 777.96L505.2 777.96z" stroke="none" fill="#D4D0C8" fill-rule="evenodd" /><path id="35" transform="matrix(1 0 0 -1 0 841)" d="M505.2 777.72L505.44 777.72L505.44 777.72L505.44 777.96L505.44 777.96L505.2 777.96z" stroke="none" fill="#D4D0C8" fill-rule="evenodd" /><g clip-path="url(#5)"></g><g clip-path="url(#6)"></g><g clip-path="url(#7)"></g><g clip-path="url(#8)"></g><g clip-path="url(#9)"></g><g clip-path="url(#10)"></g><g clip-path="url(#11)"></g><path id="86" transform="matrix(1 0 0 -1 0 841)" d="M152.15 729.02L443.15 729.02L443.15 729.02L443.15 748.42L443.15 748.42L152.15 748.42z" stroke="none" fill="#F7F7F7" fill-rule="evenodd" /><path id="87" transform="matrix(1 0 0 -1 0 841)" d="M152.21 728.96L443.21 728.96L443.21 728.96L443.21 748.36L443.21 748.36L152.21 748.36z" stroke="none" fill="#F7F7F7" fill-rule="evenodd" /><g clip-path="url(#12)"><g clip-path="url(#13)"></g></g><path id="140" transform="matrix(1 0 0 -1 0 841)" d="M151.22 748.42L152.18 748.42L152.18 748.42L152.18 749.38L152.18 749.38L151.22 749.38z" stroke="none" fill="#000000" fill-rule="evenodd" /><path id="141" transform="matrix(1 0 0 -1 0 841)" d="M151.22 748.42L152.18 748.42L152.18 748.42L152.18 749.38L152.18 749.38L151.22 749.38z" stroke="none" fill="#000000" fill-rule="evenodd" /><path id="142" transform="matrix(1 0 0 -1 0 841)" d="M152.18 748.42L443.25 748.42L443.25 748.42L443.25 749.38L443.25 749.38L152.18 749.38z" stroke="none" fill="#000000" fill-rule="evenodd" /><path id="143" transform="matrix(1 0 0 -1 0 841)" d="M443.26 748.42L444.22 748.42L444.22 748.42L444.22 749.38L444.22 749.38L443.26 749.38z" stroke="none" fill="#000000" fill-rule="evenodd" /><path id="144" transform="matrix(1 0 0 -1 0 841)" d="M443.26 748.42L444.22 748.42L444.22 748.42L444.22 749.38L444.22 749.38L443.26 749.38z" stroke="none" fill="#000000" fill-rule="evenodd" /><path id="145" transform="matrix(1 0 0 -1 0 841)" d="M151.22 728.98L152.18 728.98L152.18 728.98L152.18 748.42L152.18 748.42L151.22 748.42z" stroke="none" fill="#000000" fill-rule="evenodd" /><path id="146" transform="matrix(1 0 0 -1 0 841)" d="M443.26 728.98L444.22 728.98L444.22 728.98L444.22 748.42L444.22 748.42L443.26 748.42z" stroke="none" fill="#000000" fill-rule="evenodd" /><path id="147" transform="matrix(1 0 0 -1 0 841)" d="M151.22 728.02L152.18 728.02L152.18 728.02L152.18 728.98L152.18 728.98L151.22 728.98z" stroke="none" fill="#000000" fill-rule="evenodd" /><path id="148" transform="matrix(1 0 0 -1 0 841)" d="M151.22 728.02L152.18 728.02L152.18 728.02L152.18 728.98L152.18 728.98L151.22 728.98z" stroke="none" fill="#000000" fill-rule="evenodd" /><path id="149" transform="matrix(1 0 0 -1 0 841)" d="M152.18 728.02L443.25 728.02L443.25 728.02L443.25 728.98L443.25 728.98L152.18 728.98z" stroke="none" fill="#000000" fill-rule="evenodd" /><path id="150" transform="matrix(1 0 0 -1 0 841)" d="M443.26 728.02L444.22 728.02L444.22 728.02L444.22 728.98L444.22 728.98L443.26 728.98z" stroke="none" fill="#000000" fill-rule="evenodd" /><path id="151" transform="matrix(1 0 0 -1 0 841)" d="M443.26 728.02L444.22 728.02L444.22 728.02L444.22 728.98L444.22 728.98L443.26 728.98z" stroke="none" fill="#000000" fill-rule="evenodd" /><g clip-path="url(#14)"></g><g clip-path="url(#15)"></g><g clip-path="url(#16)"></g><g clip-path="url(#17)"></g><g clip-path="url(#18)"></g><g clip-path="url(#19)"></g><g clip-path="url(#20)"></g><g clip-path="url(#21)"></g><g clip-path="url(#22)"></g><g clip-path="url(#23)"></g><g clip-path="url(#24)"></g><g clip-path="url(#25)"></g><g clip-path="url(#26)"></g><g clip-path="url(#27)"></g><g clip-path="url(#28)"></g><g clip-path="url(#29)"></g><g clip-path="url(#30)"></g><g clip-path="url(#31)"></g><g clip-path="url(#32)"></g><g clip-path="url(#33)"></g><g clip-path="url(#34)"></g><g clip-path="url(#35)"></g><g clip-path="url(#36)"></g><g clip-path="url(#37)"></g><g clip-path="url(#38)"></g><g clip-path="url(#39)"></g><g clip-path="url(#40)"></g><g clip-path="url(#41)"></g><g clip-path="url(#42)"></g><g clip-path="url(#43)"></g><g clip-path="url(#44)"></g><g clip-path="url(#45)"></g><g clip-path="url(#46)"></g><g clip-path="url(#47)"></g><g clip-path="url(#48)"></g><g clip-path="url(#49)"></g><g clip-path="url(#50)"></g><g clip-path="url(#51)"></g><g clip-path="url(#52)"></g><g clip-path="url(#53)"></g><g clip-path="url(#54)"></g><g clip-path="url(#55)"></g><g clip-path="url(#56)"></g><g clip-path="url(#57)"></g><g clip-path="url(#58)"></g><g clip-path="url(#59)"></g><g clip-path="url(#60)"></g><g clip-path="url(#61)"></g><g clip-path="url(#62)"></g><g clip-path="url(#63)"></g><g clip-path="url(#64)"></g><g clip-path="url(#65)"></g><g clip-path="url(#66)"></g><g clip-path="url(#67)"></g><g clip-path="url(#68)"></g><g clip-path="url(#69)"></g><g clip-path="url(#70)"></g><g clip-path="url(#71)"></g><g clip-path="url(#72)"></g><g clip-path="url(#73)"></g><g clip-path="url(#74)"></g><g clip-path="url(#75)"></g><g clip-path="url(#76)"></g><g clip-path="url(#77)"></g><g clip-path="url(#78)"></g><g clip-path="url(#79)"></g><g clip-path="url(#80)"></g><g clip-path="url(#81)"></g><g clip-path="url(#82)"></g><g clip-path="url(#83)"></g><g clip-path="url(#84)"></g><g clip-path="url(#85)"></g><g clip-path="url(#86)"></g><g clip-path="url(#87)"></g><g clip-path="url(#88)"></g><g clip-path="url(#89)"></g><g clip-path="url(#90)"></g><g clip-path="url(#91)"></g><g clip-path="url(#92)"></g><g clip-path="url(#93)"></g><g clip-path="url(#94)"></g><g clip-path="url(#95)"></g><g clip-path="url(#96)"></g><g clip-path="url(#97)"></g><g clip-path="url(#98)"></g><g clip-path="url(#99)"></g><g clip-path="url(#100)"></g><g clip-path="url(#101)"></g><g clip-path="url(#102)"></g><g clip-path="url(#103)"></g><g clip-path="url(#104)"></g><g clip-path="url(#105)"></g><g clip-path="url(#106)"></g><g clip-path="url(#107)"></g><g clip-path="url(#108)"></g><g clip-path="url(#109)"></g><g clip-path="url(#110)"></g><g clip-path="url(#111)"></g><g clip-path="url(#112)"></g><g clip-path="url(#113)"></g><g clip-path="url(#114)"></g><g clip-path="url(#115)"></g><g clip-path="url(#116)"></g><g clip-path="url(#117)"></g><g clip-path="url(#118)"></g><g clip-path="url(#119)"></g><g clip-path="url(#120)"></g><g clip-path="url(#121)"></g><g clip-path="url(#122)"></g><g clip-path="url(#123)"></g><g clip-path="url(#124)"></g><g clip-path="url(#125)"></g><g clip-path="url(#126)"></g><g clip-path="url(#127)"></g><g clip-path="url(#128)"></g><g clip-path="url(#129)"></g><g clip-path="url(#130)"></g><g clip-path="url(#131)"></g><g clip-path="url(#132)"></g><g clip-path="url(#133)"></g><g clip-path="url(#134)"></g><g clip-path="url(#135)"></g><g clip-path="url(#136)"></g><g clip-path="url(#137)"></g><g clip-path="url(#138)"></g><g clip-path="url(#139)"></g><g clip-path="url(#140)"></g><g clip-path="url(#141)"></g><g clip-path="url(#142)"></g><g clip-path="url(#143)"></g><g clip-path="url(#144)"></g><g clip-path="url(#145)"></g><g clip-path="url(#146)"></g><g clip-path="url(#147)"></g><g clip-path="url(#148)"></g><g clip-path="url(#149)"></g><g clip-path="url(#150)"></g><g clip-path="url(#151)"></g><g clip-path="url(#152)"></g><g clip-path="url(#153)"></g><g clip-path="url(#154)"></g><g clip-path="url(#155)"></g><g clip-path="url(#156)"></g><g clip-path="url(#157)"></g><g clip-path="url(#158)"></g><g clip-path="url(#159)"></g><g clip-path="url(#160)"></g><g clip-path="url(#161)"></g><g clip-path="url(#162)"></g><g clip-path="url(#163)"></g><g clip-path="url(#164)"></g><g clip-path="url(#165)"></g><g clip-path="url(#166)"></g><g clip-path="url(#167)"></g><g clip-path="url(#168)"><g clip-path="url(#169)"></g><g clip-path="url(#170)"></g></g><g clip-path="url(#171)"><g clip-path="url(#172)"></g><g clip-path="url(#173)"></g></g><g clip-path="url(#174)"><g clip-path="url(#175)"></g><g clip-path="url(#176)"></g><g clip-path="url(#177)"></g><g clip-path="url(#178)"></g></g><g clip-path="url(#179)"><g clip-path="url(#180)"></g><g clip-path="url(#181)"></g><g clip-path="url(#182)"></g></g><g clip-path="url(#183)"><g clip-path="url(#184)"></g><g clip-path="url(#185)"></g><g clip-path="url(#186)"></g><g clip-path="url(#187)"></g></g><g clip-path="url(#188)"><g clip-path="url(#189)"></g><g clip-path="url(#190)"></g><g clip-path="url(#191)"></g><g clip-path="url(#192)"></g></g><g clip-path="url(#193)"><g clip-path="url(#194)"></g><g clip-path="url(#195)"></g><g clip-path="url(#196)"></g></g><path id="1220" transform="matrix(1 0 0 -1 0 841)" d="M113.42 381.29L166.484 381.29L166.484 381.29L166.484 382.25L166.484 382.25L113.42 382.25z" stroke="none" fill="#000000" fill-rule="evenodd" /><path id="1221" transform="matrix(1 0 0 -1 0 841)" d="M166.49 381.29L167.45 381.29L167.45 381.29L167.45 382.25L167.45 382.25L166.49 382.25z" stroke="none" fill="#000000" fill-rule="evenodd" /><path id="1222" transform="matrix(1 0 0 -1 0 841)" d="M167.45 381.29L219.41 381.29L219.41 381.29L219.41 382.25L219.41 382.25L167.45 382.25z" stroke="none" fill="#000000" fill-rule="evenodd" /><path id="1223" transform="matrix(1 0 0 -1 0 841)" d="M219.41 381.29L220.37 381.29L220.37 381.29L220.37 382.25L220.37 382.25L219.41 382.25z" stroke="none" fill="#000000" fill-rule="evenodd" /><path id="1224" transform="matrix(1 0 0 -1 0 841)" d="M220.37 381.29L272.45 381.29L272.45 381.29L272.45 382.25L272.45 382.25L220.37 382.25z" stroke="none" fill="#000000" fill-rule="evenodd" /><path id="1225" transform="matrix(1 0 0 -1 0 841)" d="M272.45 381.29L273.41 381.29L273.41 381.29L273.41 382.25L273.41 382.25L272.45 382.25z" stroke="none" fill="#000000" fill-rule="evenodd" /><path id="1226" transform="matrix(1 0 0 -1 0 841)" d="M273.41 381.29L325.514 381.29L325.514 381.29L325.514 382.25L325.514 382.25L273.41 382.25z" stroke="none" fill="#000000" fill-rule="evenodd" /><path id="1227" transform="matrix(1 0 0 -1 0 841)" d="M325.51 381.29L326.47 381.29L326.47 381.29L326.47 382.25L326.47 382.25L325.51 382.25z" stroke="none" fill="#000000" fill-rule="evenodd" /><path id="1228" transform="matrix(1 0 0 -1 0 841)" d="M326.47 381.29L378.43 381.29L378.43 381.29L378.43 382.25L378.43 382.25L326.47 382.25z" stroke="none" fill="#000000" fill-rule="evenodd" /><path id="1229" transform="matrix(1 0 0 -1 0 841)" d="M378.43 381.29L379.39 381.29L379.39 381.29L379.39 382.25L379.39 382.25L378.43 382.25z" stroke="none" fill="#000000" fill-rule="evenodd" /><path id="1230" transform="matrix(1 0 0 -1 0 841)" d="M379.39 381.29L431.494 381.29L431.494 381.29L431.494 382.25L431.494 382.25L379.39 382.25z" stroke="none" fill="#000000" fill-rule="evenodd" /><path id="1231" transform="matrix(1 0 0 -1 0 841)" d="M431.5 381.29L432.46 381.29L432.46 381.29L432.46 382.25L432.46 382.25L431.5 382.25z" stroke="none" fill="#000000" fill-rule="evenodd" /><path id="1232" transform="matrix(1 0 0 -1 0 841)" d="M432.46 381.29L484.54 381.29L484.54 381.29L484.54 382.25L484.54 382.25L432.46 382.25z" stroke="none" fill="#000000" fill-rule="evenodd" /><g clip-path="url(#197)"><g clip-path="url(#198)"></g><g clip-path="url(#199)"></g><g clip-path="url(#200)"></g><g clip-path="url(#201)"></g></g><g clip-path="url(#202)"><g clip-path="url(#203)"></g><g clip-path="url(#204)"></g><g clip-path="url(#205)"></g></g><g clip-path="url(#206)"><g clip-path="url(#207)"></g><g clip-path="url(#208)"></g></g><g clip-path="url(#209)"><g clip-path="url(#210)"></g><g clip-path="url(#211)"></g><g clip-path="url(#212)"></g></g><g clip-path="url(#213)"><g clip-path="url(#214)"></g><g clip-path="url(#215)"></g></g><g clip-path="url(#216)"><g clip-path="url(#217)"></g><g clip-path="url(#218)"></g></g><g clip-path="url(#219)"><g clip-path="url(#220)"></g><g clip-path="url(#221)"></g><g clip-path="url(#222)"></g></g><path id="1271" transform="matrix(1 0 0 -1 0 841)" d="M113.42 362.93L166.484 362.93L166.484 362.93L166.484 363.89L166.484 363.89L113.42 363.89z" stroke="none" fill="#000000" fill-rule="evenodd" /><path id="1272" transform="matrix(1 0 0 -1 0 841)" d="M166.49 362.93L167.45 362.93L167.45 362.93L167.45 363.89L167.45 363.89L166.49 363.89z" stroke="none" fill="#000000" fill-rule="evenodd" /><path id="1273" transform="matrix(1 0 0 -1 0 841)" d="M167.45 362.93L219.41 362.93L219.41 362.93L219.41 363.89L219.41 363.89L167.45 363.89z" stroke="none" fill="#000000" fill-rule="evenodd" /><path id="1274" transform="matrix(1 0 0 -1 0 841)" d="M219.41 362.93L220.37 362.93L220.37 362.93L220.37 363.89L220.37 363.89L219.41 363.89z" stroke="none" fill="#000000" fill-rule="evenodd" /><path id="1275" transform="matrix(1 0 0 -1 0 841)" d="M220.37 362.93L272.45 362.93L272.45 362.93L272.45 363.89L272.45 363.89L220.37 363.89z" stroke="none" fill="#000000" fill-rule="evenodd" /><path id="1276" transform="matrix(1 0 0 -1 0 841)" d="M272.45 362.93L273.41 362.93L273.41 362.93L273.41 363.89L273.41 363.89L272.45 363.89z" stroke="none" fill="#000000" fill-rule="evenodd" /><path id="1277" transform="matrix(1 0 0 -1 0 841)" d="M273.41 362.93L325.514 362.93L325.514 362.93L325.514 363.89L325.514 363.89L273.41 363.89z" stroke="none" fill="#000000" fill-rule="evenodd" /><path id="1278" transform="matrix(1 0 0 -1 0 841)" d="M325.51 362.93L326.47 362.93L326.47 362.93L326.47 363.89L326.47 363.89L325.51 363.89z" stroke="none" fill="#000000" fill-rule="evenodd" /><path id="1279" transform="matrix(1 0 0 -1 0 841)" d="M326.47 362.93L378.43 362.93L378.43 362.93L378.43 363.89L378.43 363.89L326.47 363.89z" stroke="none" fill="#000000" fill-rule="evenodd" /><path id="1280" transform="matrix(1 0 0 -1 0 841)" d="M378.43 362.93L379.39 362.93L379.39 362.93L379.39 363.89L379.39 363.89L378.43 363.89z" stroke="none" fill="#000000" fill-rule="evenodd" /><path id="1281" transform="matrix(1 0 0 -1 0 841)" d="M379.39 362.93L431.494 362.93L431.494 362.93L431.494 363.89L431.494 363.89L379.39 363.89z" stroke="none" fill="#000000" fill-rule="evenodd" /><path id="1282" transform="matrix(1 0 0 -1 0 841)" d="M431.5 362.93L432.46 362.93L432.46 362.93L432.46 363.89L432.46 363.89L431.5 363.89z" stroke="none" fill="#000000" fill-rule="evenodd" /><path id="1283" transform="matrix(1 0 0 -1 0 841)" d="M432.46 362.93L484.54 362.93L484.54 362.93L484.54 363.89L484.54 363.89L432.46 363.89z" stroke="none" fill="#000000" fill-rule="evenodd" /><g clip-path="url(#223)"><g clip-path="url(#224)"></g><g clip-path="url(#225)"></g><g clip-path="url(#226)"></g><g clip-path="url(#227)"></g></g><g clip-path="url(#228)"><g clip-path="url(#229)"></g><g clip-path="url(#230)"></g><g clip-path="url(#231)"></g></g><g clip-path="url(#232)"><g clip-path="url(#233)"></g><g clip-path="url(#234)"></g></g><g clip-path="url(#235)"><g clip-path="url(#236)"></g><g clip-path="url(#237)"></g><g clip-path="url(#238)"></g></g><g clip-path="url(#239)"><g clip-path="url(#240)"></g><g clip-path="url(#241)"></g></g><g clip-path="url(#242)"><g clip-path="url(#243)"></g><g clip-path="url(#244)"></g></g><g clip-path="url(#245)"><g clip-path="url(#246)"></g><g clip-path="url(#247)"></g></g><g clip-path="url(#248)"><g clip-path="url(#249)"></g><g clip-path="url(#250)"></g><g clip-path="url(#251)"></g><g clip-path="url(#252)"></g></g><g clip-path="url(#253)"><g clip-path="url(#254)"></g><g clip-path="url(#255)"></g><g clip-path="url(#256)"></g></g><g clip-path="url(#257)"><g clip-path="url(#258)"></g><g clip-path="url(#259)"></g></g><g clip-path="url(#260)"><g clip-path="url(#261)"></g><g clip-path="url(#262)"></g><g clip-path="url(#263)"></g></g><g clip-path="url(#264)"><g clip-path="url(#265)"></g><g clip-path="url(#266)"></g></g><g clip-path="url(#267)"><g clip-path="url(#268)"></g><g clip-path="url(#269)"></g></g><g clip-path="url(#270)"><g clip-path="url(#271)"></g><g clip-path="url(#272)"></g></g><g clip-path="url(#273)"><g clip-path="url(#274)"></g><g clip-path="url(#275)"></g></g><g clip-path="url(#276)"><g clip-path="url(#277)"></g><g clip-path="url(#278)"></g></g><g clip-path="url(#279)"><g clip-path="url(#280)"></g><g clip-path="url(#281)"></g></g><g clip-path="url(#282)"><g clip-path="url(#283)"></g><g clip-path="url(#284)"></g></g><g clip-path="url(#285)"><g clip-path="url(#286)"></g><g clip-path="url(#287)"></g></g><g clip-path="url(#288)"><g clip-path="url(#289)"></g><g clip-path="url(#290)"></g></g><g clip-path="url(#291)"><g clip-path="url(#292)"></g><g clip-path="url(#293)"></g><g clip-path="url(#294)"></g></g><g clip-path="url(#295)"><g clip-path="url(#296)"></g><g clip-path="url(#297)"></g><g clip-path="url(#298)"></g><g clip-path="url(#299)"></g></g><g clip-path="url(#300)"><g clip-path="url(#301)"></g><g clip-path="url(#302)"></g><g clip-path="url(#303)"></g></g><g clip-path="url(#304)"><g clip-path="url(#305)"></g><g clip-path="url(#306)"></g></g><g clip-path="url(#307)"><g clip-path="url(#308)"></g><g clip-path="url(#309)"></g><g clip-path="url(#310)"></g><g clip-path="url(#311)"></g></g><g clip-path="url(#312)"><g clip-path="url(#313)"></g><g clip-path="url(#314)"></g></g><g clip-path="url(#315)"><g clip-path="url(#316)"></g><g clip-path="url(#317)"></g></g><g clip-path="url(#318)"><g clip-path="url(#319)"></g><g clip-path="url(#320)"></g></g><g clip-path="url(#321)"><g clip-path="url(#322)"></g><g clip-path="url(#323)"></g><g clip-path="url(#324)"></g><g clip-path="url(#325)"></g></g><g clip-path="url(#326)"><g clip-path="url(#327)"></g><g clip-path="url(#328)"></g><g clip-path="url(#329)"></g></g><g clip-path="url(#330)"><g clip-path="url(#331)"></g><g clip-path="url(#332)"></g></g><g clip-path="url(#333)"><g clip-path="url(#334)"></g><g clip-path="url(#335)"></g><g clip-path="url(#336)"></g></g><g clip-path="url(#337)"><g clip-path="url(#338)"></g><g clip-path="url(#339)"></g></g><g clip-path="url(#340)"><g clip-path="url(#341)"></g><g clip-path="url(#342)"></g></g><g clip-path="url(#343)"><g clip-path="url(#344)"></g><g clip-path="url(#345)"></g></g><path id="1465" transform="matrix(1 0 0 -1 0 841)" d="M112.7 267.65L166.484 267.65L166.484 267.65L166.484 268.61L166.484 268.61L112.7 268.61z" stroke="none" fill="#000000" fill-rule="evenodd" /><path id="1466" transform="matrix(1 0 0 -1 0 841)" d="M165.77 267.65L166.73 267.65L166.73 267.65L166.73 268.61L166.73 268.61L165.77 268.61z" stroke="none" fill="#000000" fill-rule="evenodd" /><path id="1467" transform="matrix(1 0 0 -1 0 841)" d="M166.73 267.65L219.41 267.65L219.41 267.65L219.41 268.61L219.41 268.61L166.73 268.61z" stroke="none" fill="#000000" fill-rule="evenodd" /><path id="1468" transform="matrix(1 0 0 -1 0 841)" d="M218.69 267.65L219.65 267.65L219.65 267.65L219.65 268.61L219.65 268.61L218.69 268.61z" stroke="none" fill="#000000" fill-rule="evenodd" /><path id="1469" transform="matrix(1 0 0 -1 0 841)" d="M219.65 267.65L272.45 267.65L272.45 267.65L272.45 268.61L272.45 268.61L219.65 268.61z" stroke="none" fill="#000000" fill-rule="evenodd" /><path id="1470" transform="matrix(1 0 0 -1 0 841)" d="M271.73 267.65L272.69 267.65L272.69 267.65L272.69 268.61L272.69 268.61L271.73 268.61z" stroke="none" fill="#000000" fill-rule="evenodd" /><path id="1471" transform="matrix(1 0 0 -1 0 841)" d="M272.69 267.65L325.514 267.65L325.514 267.65L325.514 268.61L325.514 268.61L272.69 268.61z" stroke="none" fill="#000000" fill-rule="evenodd" /><path id="1472" transform="matrix(1 0 0 -1 0 841)" d="M324.79 267.65L325.75 267.65L325.75 267.65L325.75 268.61L325.75 268.61L324.79 268.61z" stroke="none" fill="#000000" fill-rule="evenodd" /><path id="1473" transform="matrix(1 0 0 -1 0 841)" d="M325.75 267.65L378.43 267.65L378.43 267.65L378.43 268.61L378.43 268.61L325.75 268.61z" stroke="none" fill="#000000" fill-rule="evenodd" /><path id="1474" transform="matrix(1 0 0 -1 0 841)" d="M377.71 267.65L378.67 267.65L378.67 267.65L378.67 268.61L378.67 268.61L377.71 268.61z" stroke="none" fill="#000000" fill-rule="evenodd" /><path id="1475" transform="matrix(1 0 0 -1 0 841)" d="M378.67 267.65L431.494 267.65L431.494 267.65L431.494 268.61L431.494 268.61L378.67 268.61z" stroke="none" fill="#000000" fill-rule="evenodd" /><path id="1476" transform="matrix(1 0 0 -1 0 841)" d="M430.78 267.65L431.74 267.65L431.74 267.65L431.74 268.61L431.74 268.61L430.78 268.61z" stroke="none" fill="#000000" fill-rule="evenodd" /><path id="1477" transform="matrix(1 0 0 -1 0 841)" d="M431.74 267.65L484.54 267.65L484.54 267.65L484.54 268.61L484.54 268.61L431.74 268.61z" stroke="none" fill="#000000" fill-rule="evenodd" /><g clip-path="url(#346)"></g><g clip-path="url(#347)"></g><g clip-path="url(#348)"></g><g clip-path="url(#349)"></g><g clip-path="url(#350)"></g><g clip-path="url(#351)"></g><g clip-path="url(#352)"></g><g clip-path="url(#353)"></g><g clip-path="url(#354)"></g><g clip-path="url(#355)"></g><g clip-path="url(#356)"></g><g clip-path="url(#357)"></g><g clip-path="url(#358)"></g><g clip-path="url(#359)"></g><g clip-path="url(#360)"></g><g clip-path="url(#361)"></g><g clip-path="url(#362)"></g><g clip-path="url(#363)"></g><g clip-path="url(#364)"></g><g clip-path="url(#365)"></g><g clip-path="url(#366)"></g><g clip-path="url(#367)"></g><g clip-path="url(#368)"></g><g clip-path="url(#369)"></g><g clip-path="url(#370)"></g><g clip-path="url(#371)"></g><g clip-path="url(#372)"></g><g clip-path="url(#373)"></g><g clip-path="url(#374)"></g><g clip-path="url(#375)"></g><g clip-path="url(#376)"></g><g clip-path="url(#377)"></g><g clip-path="url(#378)"></g><g clip-path="url(#379)"></g><g clip-path="url(#380)"></g><g clip-path="url(#381)"></g><g clip-path="url(#382)"></g><g clip-path="url(#383)"></g><g clip-path="url(#384)"></g><g clip-path="url(#385)"></g><g clip-path="url(#386)"></g><g clip-path="url(#387)"></g><g clip-path="url(#388)"></g><g clip-path="url(#389)"></g><g clip-path="url(#390)"></g><g clip-path="url(#391)"></g><g clip-path="url(#392)"></g><g clip-path="url(#393)"></g><g clip-path="url(#394)"></g><g clip-path="url(#395)"></g><g clip-path="url(#396)"></g><g clip-path="url(#397)"></g><g clip-path="url(#398)"></g><g clip-path="url(#399)"></g><g clip-path="url(#400)"></g><g clip-path="url(#401)"></g><g clip-path="url(#402)"></g><g clip-path="url(#403)"></g><g clip-path="url(#404)"></g><g clip-path="url(#405)"></g><g clip-path="url(#406)"></g><g clip-path="url(#407)"></g><g clip-path="url(#408)"></g><g clip-path="url(#409)"></g><g clip-path="url(#410)"></g><g clip-path="url(#411)"></g><g clip-path="url(#412)"></g><g clip-path="url(#413)"></g><g clip-path="url(#414)"></g><g clip-path="url(#415)"></g><g clip-path="url(#416)"></g><g clip-path="url(#417)"></g><g clip-path="url(#418)"></g><g clip-path="url(#419)"></g><g clip-path="url(#420)"><g transform="matrix(0.5989305 0 0 0.5991379 241.65 315.53)"><g transform="matrix(1 0 0 1 0 0)"><image x="0" y="0" xlink:href="img_614.jpg" width="187" height="116" /></g></g></g></g></g></svg>