<svg xmlns="http://www.w3.org/2000/svg" xmlns:xlink="http://www.w3.org/1999/xlink" id="body_223" preserveAspectRatio="xMinYMin meet" viewBox="0 0 793 1121"><defs><clipPath id="1"><path id="" clip-rule="evenodd" d="M0 841L0 -0.9199829L0 -0.9199829L595.32 -0.9199829L595.32 -0.9199829L595.32 841L595.32 841L0 841z" /></clipPath><clipPath id="2"><path id="" clip-rule="evenodd" d="M0 840.9999L595.32 840.9999L595.32 840.9999L595.32 -0.9200439L595.32 -0.9200439L0 -0.9200439z" /></clipPath><clipPath id="3"><path id="" clip-rule="evenodd" d="M8.871E-06 841L595.32 841L595.32 841L595.32 -0.9199829L595.32 -0.9199829L8.871E-06 -0.9199829z" /></clipPath><clipPath id="4"><path id="" clip-rule="evenodd" d="M8.871E-06 841L595.32 841L595.32 841L595.32 -0.9199829L595.32 -0.9199829L8.871E-06 -0.9199829z" /></clipPath><clipPath id="5"><path id="" clip-rule="evenodd" d="M8.871E-06 841L595.32 841L595.32 841L595.32 -0.9199829L595.32 -0.9199829L8.871E-06 -0.9199829z" /></clipPath><clipPath id="6"><path id="" clip-rule="evenodd" d="M8.871E-06 841L595.32 841L595.32 841L595.32 -0.9199829L595.32 -0.9199829L8.871E-06 -0.9199829z" /></clipPath><clipPath id="7"><path id="" clip-rule="evenodd" d="M8.871E-06 841L595.32 841L595.32 841L595.32 -0.9199829L595.32 -0.9199829L8.871E-06 -0.9199829z" /></clipPath><clipPath id="8"><path id="" clip-rule="evenodd" d="M8.871E-06 841L595.32 841L595.32 841L595.32 -0.9199829L595.32 -0.9199829L8.871E-06 -0.9199829z" /></clipPath><clipPath id="9"><path id="" clip-rule="evenodd" d="M8.871E-06 841L595.32 841L595.32 841L595.32 -0.9199829L595.32 -0.9199829L8.871E-06 -0.9199829z" /></clipPath><clipPath id="10"><path id="" clip-rule="evenodd" d="M8.871E-06 841L595.32 841L595.32 841L595.32 -0.9199829L595.32 -0.9199829L8.871E-06 -0.9199829z" /></clipPath><clipPath id="11"><path id="" clip-rule="evenodd" d="M8.871E-06 841L595.32 841L595.32 841L595.32 -0.9199829L595.32 -0.9199829L8.871E-06 -0.9199829z" /></clipPath><clipPath id="12"><path id="" clip-rule="evenodd" d="M8.871E-06 841L595.32 841L595.32 841L595.32 -0.9199829L595.32 -0.9199829L8.871E-06 -0.9199829z" /></clipPath><clipPath id="13"><path id="" clip-rule="evenodd" d="M8.871E-06 841L595.32 841L595.32 841L595.32 -0.9199829L595.32 -0.9199829L8.871E-06 -0.9199829z" /></clipPath><clipPath id="14"><path id="" clip-rule="evenodd" d="M8.871E-06 841L595.32 841L595.32 841L595.32 -0.9199829L595.32 -0.9199829L8.871E-06 -0.9199829z" /></clipPath><clipPath id="15"><path id="" clip-rule="evenodd" d="M8.871E-06 841L595.32 841L595.32 841L595.32 -0.9199829L595.32 -0.9199829L8.871E-06 -0.9199829z" /></clipPath><clipPath id="16"><path id="" clip-rule="evenodd" d="M8.871E-06 841L595.32 841L595.32 841L595.32 -0.9199829L595.32 -0.9199829L8.871E-06 -0.9199829z" /></clipPath><clipPath id="17"><path id="" clip-rule="evenodd" d="M8.871E-06 841L595.32 841L595.32 841L595.32 -0.9199829L595.32 -0.9199829L8.871E-06 -0.9199829z" /></clipPath><clipPath id="18"><path id="" clip-rule="evenodd" d="M8.871E-06 841L595.32 841L595.32 841L595.32 -0.9199829L595.32 -0.9199829L8.871E-06 -0.9199829z" /></clipPath><clipPath id="19"><path id="" clip-rule="evenodd" d="M8.871E-06 841L595.32 841L595.32 841L595.32 -0.9199829L595.32 -0.9199829L8.871E-06 -0.9199829z" /></clipPath><clipPath id="20"><path id="" clip-rule="evenodd" d="M8.871E-06 841L595.32 841L595.32 841L595.32 -0.9199829L595.32 -0.9199829L8.871E-06 -0.9199829z" /></clipPath><clipPath id="21"><path id="" clip-rule="evenodd" d="M8.871E-06 841L595.32 841L595.32 841L595.32 -0.9199829L595.32 -0.9199829L8.871E-06 -0.9199829z" /></clipPath><clipPath id="22"><path id="" clip-rule="evenodd" d="M8.871E-06 841L595.32 841L595.32 841L595.32 -0.9199829L595.32 -0.9199829L8.871E-06 -0.9199829z" /></clipPath><clipPath id="23"><path id="" clip-rule="evenodd" d="M8.871E-06 841L595.32 841L595.32 841L595.32 -0.9199829L595.32 -0.9199829L8.871E-06 -0.9199829z" /></clipPath><clipPath id="24"><path id="" clip-rule="evenodd" d="M8.871E-06 841L595.32 841L595.32 841L595.32 -0.9199829L595.32 -0.9199829L8.871E-06 -0.9199829z" /></clipPath><clipPath id="25"><path id="" clip-rule="evenodd" d="M8.871E-06 841L595.32 841L595.32 841L595.32 -0.9199829L595.32 -0.9199829L8.871E-06 -0.9199829z" /></clipPath><clipPath id="26"><path id="" clip-rule="evenodd" d="M8.871E-06 841L595.32 841L595.32 841L595.32 -0.9199829L595.32 -0.9199829L8.871E-06 -0.9199829z" /></clipPath><clipPath id="27"><path id="" clip-rule="evenodd" d="M8.871E-06 841L595.32 841L595.32 841L595.32 -0.9199829L595.32 -0.9199829L8.871E-06 -0.9199829z" /></clipPath><clipPath id="28"><path id="" clip-rule="evenodd" d="M8.871E-06 841L595.32 841L595.32 841L595.32 -0.9199829L595.32 -0.9199829L8.871E-06 -0.9199829z" /></clipPath><clipPath id="29"><path id="" clip-rule="evenodd" d="M8.871E-06 841L595.32 841L595.32 841L595.32 -0.9199829L595.32 -0.9199829L8.871E-06 -0.9199829z" /></clipPath><clipPath id="30"><path id="" clip-rule="evenodd" d="M8.871E-06 841L595.32 841L595.32 841L595.32 -0.9199829L595.32 -0.9199829L8.871E-06 -0.9199829z" /></clipPath><clipPath id="31"><path id="" clip-rule="evenodd" d="M8.871E-06 841L595.32 841L595.32 841L595.32 -0.9199829L595.32 -0.9199829L8.871E-06 -0.9199829z" /></clipPath><clipPath id="32"><path id="" clip-rule="evenodd" d="M8.871E-06 841L595.32 841L595.32 841L595.32 -0.9199829L595.32 -0.9199829L8.871E-06 -0.9199829z" /></clipPath><clipPath id="33"><path id="" clip-rule="evenodd" d="M8.871E-06 841L595.32 841L595.32 841L595.32 -0.9199829L595.32 -0.9199829L8.871E-06 -0.9199829z" /></clipPath><clipPath id="34"><path id="" clip-rule="evenodd" d="M8.871E-06 841L595.32 841L595.32 841L595.32 -0.9199829L595.32 -0.9199829L8.871E-06 -0.9199829z" /></clipPath><clipPath id="35"><path id="" clip-rule="evenodd" d="M8.871E-06 841L595.32 841L595.32 841L595.32 -0.9199829L595.32 -0.9199829L8.871E-06 -0.9199829z" /></clipPath><clipPath id="36"><path id="" clip-rule="evenodd" d="M8.871E-06 841L595.32 841L595.32 841L595.32 -0.9199829L595.32 -0.9199829L8.871E-06 -0.9199829z" /></clipPath><clipPath id="37"><path id="" clip-rule="evenodd" d="M8.871E-06 841L595.32 841L595.32 841L595.32 -0.9199829L595.32 -0.9199829L8.871E-06 -0.9199829z" /></clipPath><clipPath id="38"><path id="" clip-rule="evenodd" d="M8.871E-06 841L595.32 841L595.32 841L595.32 -0.9199829L595.32 -0.9199829L8.871E-06 -0.9199829z" /></clipPath><clipPath id="39"><path id="" clip-rule="evenodd" d="M8.871E-06 841L595.32 841L595.32 841L595.32 -0.9199829L595.32 -0.9199829L8.871E-06 -0.9199829z" /></clipPath><clipPath id="40"><path id="" clip-rule="evenodd" d="M8.871E-06 841L595.32 841L595.32 841L595.32 -0.9199829L595.32 -0.9199829L8.871E-06 -0.9199829z" /></clipPath><clipPath id="41"><path id="" clip-rule="evenodd" d="M8.871E-06 841L595.32 841L595.32 841L595.32 -0.9199829L595.32 -0.9199829L8.871E-06 -0.9199829z" /></clipPath><clipPath id="42"><path id="" clip-rule="evenodd" d="M8.871E-06 841L595.32 841L595.32 841L595.32 -0.9199829L595.32 -0.9199829L8.871E-06 -0.9199829z" /></clipPath><clipPath id="43"><path id="" clip-rule="evenodd" d="M8.871E-06 841L595.32 841L595.32 841L595.32 -0.9199829L595.32 -0.9199829L8.871E-06 -0.9199829z" /></clipPath><clipPath id="44"><path id="" clip-rule="evenodd" d="M8.871E-06 841L595.32 841L595.32 841L595.32 -0.9199829L595.32 -0.9199829L8.871E-06 -0.9199829z" /></clipPath><clipPath id="45"><path id="" clip-rule="evenodd" d="M8.871E-06 841L595.32 841L595.32 841L595.32 -0.9199829L595.32 -0.9199829L8.871E-06 -0.9199829z" /></clipPath><clipPath id="46"><path id="" clip-rule="evenodd" d="M8.871E-06 841L595.32 841L595.32 841L595.32 -0.9199829L595.32 -0.9199829L8.871E-06 -0.9199829z" /></clipPath><clipPath id="47"><path id="" clip-rule="evenodd" d="M8.871E-06 841L595.32 841L595.32 841L595.32 -0.9199829L595.32 -0.9199829L8.871E-06 -0.9199829z" /></clipPath><clipPath id="48"><path id="" clip-rule="evenodd" d="M8.871E-06 841L595.32 841L595.32 841L595.32 -0.9199829L595.32 -0.9199829L8.871E-06 -0.9199829z" /></clipPath><clipPath id="49"><path id="" clip-rule="evenodd" d="M8.871E-06 841L595.32 841L595.32 841L595.32 -0.9199829L595.32 -0.9199829L8.871E-06 -0.9199829z" /></clipPath><clipPath id="50"><path id="" clip-rule="evenodd" d="M8.871E-06 841L595.32 841L595.32 841L595.32 -0.9199829L595.32 -0.9199829L8.871E-06 -0.9199829z" /></clipPath><clipPath id="51"><path id="" clip-rule="evenodd" d="M8.871E-06 841L595.32 841L595.32 841L595.32 -0.9199829L595.32 -0.9199829L8.871E-06 -0.9199829z" /></clipPath><clipPath id="52"><path id="" clip-rule="evenodd" d="M8.871E-06 841L595.32 841L595.32 841L595.32 -0.9199829L595.32 -0.9199829L8.871E-06 -0.9199829z" /></clipPath><clipPath id="53"><path id="" clip-rule="evenodd" d="M8.871E-06 841L595.32 841L595.32 841L595.32 -0.9199829L595.32 -0.9199829L8.871E-06 -0.9199829z" /></clipPath><clipPath id="54"><path id="" clip-rule="evenodd" d="M8.871E-06 841L595.32 841L595.32 841L595.32 -0.9199829L595.32 -0.9199829L8.871E-06 -0.9199829z" /></clipPath><clipPath id="55"><path id="" clip-rule="evenodd" d="M8.871E-06 841L595.32 841L595.32 841L595.32 -0.9199829L595.32 -0.9199829L8.871E-06 -0.9199829z" /></clipPath><clipPath id="56"><path id="" clip-rule="evenodd" d="M8.871E-06 841L595.32 841L595.32 841L595.32 -0.9199829L595.32 -0.9199829L8.871E-06 -0.9199829z" /></clipPath><clipPath id="57"><path id="" clip-rule="evenodd" d="M8.871E-06 841L595.32 841L595.32 841L595.32 -0.9199829L595.32 -0.9199829L8.871E-06 -0.9199829z" /></clipPath><clipPath id="58"><path id="" clip-rule="evenodd" d="M8.871E-06 841L595.32 841L595.32 841L595.32 -0.9199829L595.32 -0.9199829L8.871E-06 -0.9199829z" /></clipPath><clipPath id="59"><path id="" clip-rule="evenodd" d="M8.871E-06 841L595.32 841L595.32 841L595.32 -0.9199829L595.32 -0.9199829L8.871E-06 -0.9199829z" /></clipPath><clipPath id="60"><path id="" clip-rule="evenodd" d="M8.871E-06 841L595.32 841L595.32 841L595.32 -0.9199829L595.32 -0.9199829L8.871E-06 -0.9199829z" /></clipPath><clipPath id="61"><path id="" clip-rule="evenodd" d="M8.871E-06 841L595.32 841L595.32 841L595.32 -0.9199829L595.32 -0.9199829L8.871E-06 -0.9199829z" /></clipPath><clipPath id="62"><path id="" clip-rule="evenodd" d="M8.871E-06 841L595.32 841L595.32 841L595.32 -0.9199829L595.32 -0.9199829L8.871E-06 -0.9199829z" /></clipPath><clipPath id="63"><path id="" clip-rule="evenodd" d="M8.871E-06 841L595.32 841L595.32 841L595.32 -0.9199829L595.32 -0.9199829L8.871E-06 -0.9199829z" /></clipPath><clipPath id="64"><path id="" clip-rule="evenodd" d="M8.871E-06 841L595.32 841L595.32 841L595.32 -0.9199829L595.32 -0.9199829L8.871E-06 -0.9199829z" /></clipPath><clipPath id="65"><path id="" clip-rule="evenodd" d="M8.871E-06 841L595.32 841L595.32 841L595.32 -0.9199829L595.32 -0.9199829L8.871E-06 -0.9199829z" /></clipPath><clipPath id="66"><path id="" clip-rule="evenodd" d="M8.871E-06 841L595.32 841L595.32 841L595.32 -0.9199829L595.32 -0.9199829L8.871E-06 -0.9199829z" /></clipPath><clipPath id="67"><path id="" clip-rule="evenodd" d="M0 840.9999L595.32 840.9999L595.32 840.9999L595.32 -0.9200439L595.32 -0.9200439L0 -0.9200439z" /></clipPath><clipPath id="68"><path id="" clip-rule="evenodd" d="M148.86 228.24L446.4546 228.24L446.4546 228.24L446.4546 146.4911L446.4546 146.4911L148.86 146.4911z" /></clipPath><clipPath id="69"><path id="" clip-rule="evenodd" d="M8.871E-06 841L595.32 841L595.32 841L595.32 -0.9199829L595.32 -0.9199829L8.871E-06 -0.9199829z" /></clipPath><clipPath id="70"><path id="" clip-rule="evenodd" d="M8.871E-06 841L595.32 841L595.32 841L595.32 -0.9199829L595.32 -0.9199829L8.871E-06 -0.9199829z" /></clipPath><clipPath id="71"><path id="" clip-rule="evenodd" d="M8.871E-06 841L595.32 841L595.32 841L595.32 -0.9199829L595.32 -0.9199829L8.871E-06 -0.9199829z" /></clipPath><clipPath id="72"><path id="" clip-rule="evenodd" d="M8.871E-06 841L595.32 841L595.32 841L595.32 -0.9199829L595.32 -0.9199829L8.871E-06 -0.9199829z" /></clipPath><clipPath id="73"><path id="" clip-rule="evenodd" d="M8.871E-06 841L595.32 841L595.32 841L595.32 -0.9199829L595.32 -0.9199829L8.871E-06 -0.9199829z" /></clipPath><clipPath id="74"><path id="" clip-rule="evenodd" d="M8.871E-06 841L595.32 841L595.32 841L595.32 -0.9199829L595.32 -0.9199829L8.871E-06 -0.9199829z" /></clipPath><clipPath id="75"><path id="" clip-rule="evenodd" d="M8.871E-06 841L595.32 841L595.32 841L595.32 -0.9199829L595.32 -0.9199829L8.871E-06 -0.9199829z" /></clipPath><clipPath id="76"><path id="" clip-rule="evenodd" d="M8.871E-06 841L595.32 841L595.32 841L595.32 -0.9199829L595.32 -0.9199829L8.871E-06 -0.9199829z" /></clipPath><clipPath id="77"><path id="" clip-rule="evenodd" d="M8.871E-06 841L595.32 841L595.32 841L595.32 -0.9199829L595.32 -0.9199829L8.871E-06 -0.9199829z" /></clipPath><clipPath id="78"><path id="" clip-rule="evenodd" d="M8.871E-06 841L595.32 841L595.32 841L595.32 -0.9199829L595.32 -0.9199829L8.871E-06 -0.9199829z" /></clipPath><clipPath id="79"><path id="" clip-rule="evenodd" d="M8.871E-06 841L595.32 841L595.32 841L595.32 -0.9199829L595.32 -0.9199829L8.871E-06 -0.9199829z" /></clipPath><clipPath id="80"><path id="" clip-rule="evenodd" d="M8.871E-06 841L595.32 841L595.32 841L595.32 -0.9199829L595.32 -0.9199829L8.871E-06 -0.9199829z" /></clipPath><clipPath id="81"><path id="" clip-rule="evenodd" d="M8.871E-06 841L595.32 841L595.32 841L595.32 -0.9199829L595.32 -0.9199829L8.871E-06 -0.9199829z" /></clipPath><clipPath id="82"><path id="" clip-rule="evenodd" d="M8.871E-06 841L595.32 841L595.32 841L595.32 -0.9199829L595.32 -0.9199829L8.871E-06 -0.9199829z" /></clipPath><clipPath id="83"><path id="" clip-rule="evenodd" d="M8.871E-06 841L595.32 841L595.32 841L595.32 -0.9199829L595.32 -0.9199829L8.871E-06 -0.9199829z" /></clipPath><clipPath id="84"><path id="" clip-rule="evenodd" d="M8.871E-06 841L595.32 841L595.32 841L595.32 -0.9199829L595.32 -0.9199829L8.871E-06 -0.9199829z" /></clipPath><clipPath id="85"><path id="" clip-rule="evenodd" d="M8.871E-06 841L595.32 841L595.32 841L595.32 -0.9199829L595.32 -0.9199829L8.871E-06 -0.9199829z" /></clipPath><clipPath id="86"><path id="" clip-rule="evenodd" d="M8.871E-06 841L595.32 841L595.32 841L595.32 -0.9199829L595.32 -0.9199829L8.871E-06 -0.9199829z" /></clipPath><clipPath id="87"><path id="" clip-rule="evenodd" d="M8.871E-06 841L595.32 841L595.32 841L595.32 -0.9199829L595.32 -0.9199829L8.871E-06 -0.9199829z" /></clipPath><clipPath id="88"><path id="" clip-rule="evenodd" d="M8.871E-06 841L595.32 841L595.32 841L595.32 -0.9199829L595.32 -0.9199829L8.871E-06 -0.9199829z" /></clipPath><clipPath id="89"><path id="" clip-rule="evenodd" d="M8.871E-06 841L595.32 841L595.32 841L595.32 -0.9199829L595.32 -0.9199829L8.871E-06 -0.9199829z" /></clipPath><clipPath id="90"><path id="" clip-rule="evenodd" d="M8.871E-06 841L595.32 841L595.32 841L595.32 -0.9199829L595.32 -0.9199829L8.871E-06 -0.9199829z" /></clipPath><clipPath id="91"><path id="" clip-rule="evenodd" d="M8.871E-06 841L595.32 841L595.32 841L595.32 -0.9199829L595.32 -0.9199829L8.871E-06 -0.9199829z" /></clipPath><clipPath id="92"><path id="" clip-rule="evenodd" d="M8.871E-06 841L595.32 841L595.32 841L595.32 -0.9199829L595.32 -0.9199829L8.871E-06 -0.9199829z" /></clipPath><clipPath id="93"><path id="" clip-rule="evenodd" d="M8.871E-06 841L595.32 841L595.32 841L595.32 -0.9199829L595.32 -0.9199829L8.871E-06 -0.9199829z" /></clipPath><clipPath id="94"><path id="" clip-rule="evenodd" d="M8.871E-06 841L595.32 841L595.32 841L595.32 -0.9199829L595.32 -0.9199829L8.871E-06 -0.9199829z" /></clipPath><clipPath id="95"><path id="" clip-rule="evenodd" d="M8.871E-06 841L595.32 841L595.32 841L595.32 -0.9199829L595.32 -0.9199829L8.871E-06 -0.9199829z" /></clipPath><clipPath id="96"><path id="" clip-rule="evenodd" d="M8.871E-06 841L595.32 841L595.32 841L595.32 -0.9199829L595.32 -0.9199829L8.871E-06 -0.9199829z" /></clipPath><clipPath id="97"><path id="" clip-rule="evenodd" d="M8.871E-06 841L595.32 841L595.32 841L595.32 -0.9199829L595.32 -0.9199829L8.871E-06 -0.9199829z" /></clipPath><clipPath id="98"><path id="" clip-rule="evenodd" d="M8.871E-06 841L595.32 841L595.32 841L595.32 -0.9199829L595.32 -0.9199829L8.871E-06 -0.9199829z" /></clipPath><clipPath id="99"><path id="" clip-rule="evenodd" d="M8.871E-06 841L595.32 841L595.32 841L595.32 -0.9199829L595.32 -0.9199829L8.871E-06 -0.9199829z" /></clipPath><clipPath id="100"><path id="" clip-rule="evenodd" d="M8.871E-06 841L595.32 841L595.32 841L595.32 -0.9199829L595.32 -0.9199829L8.871E-06 -0.9199829z" /></clipPath><clipPath id="101"><path id="" clip-rule="evenodd" d="M8.871E-06 841L595.32 841L595.32 841L595.32 -0.9199829L595.32 -0.9199829L8.871E-06 -0.9199829z" /></clipPath><clipPath id="102"><path id="" clip-rule="evenodd" d="M8.871E-06 841L595.32 841L595.32 841L595.32 -0.9199829L595.32 -0.9199829L8.871E-06 -0.9199829z" /></clipPath><clipPath id="103"><path id="" clip-rule="evenodd" d="M8.871E-06 841L595.32 841L595.32 841L595.32 -0.9199829L595.32 -0.9199829L8.871E-06 -0.9199829z" /></clipPath><clipPath id="104"><path id="" clip-rule="evenodd" d="M8.871E-06 841L595.32 841L595.32 841L595.32 -0.9199829L595.32 -0.9199829L8.871E-06 -0.9199829z" /></clipPath><clipPath id="105"><path id="" clip-rule="evenodd" d="M8.871E-06 841L595.32 841L595.32 841L595.32 -0.9199829L595.32 -0.9199829L8.871E-06 -0.9199829z" /></clipPath><clipPath id="106"><path id="" clip-rule="evenodd" d="M8.871E-06 841L595.32 841L595.32 841L595.32 -0.9199829L595.32 -0.9199829L8.871E-06 -0.9199829z" /></clipPath><clipPath id="107"><path id="" clip-rule="evenodd" d="M8.871E-06 841L595.32 841L595.32 841L595.32 -0.9199829L595.32 -0.9199829L8.871E-06 -0.9199829z" /></clipPath><clipPath id="108"><path id="" clip-rule="evenodd" d="M8.871E-06 841L595.32 841L595.32 841L595.32 -0.9199829L595.32 -0.9199829L8.871E-06 -0.9199829z" /></clipPath><clipPath id="109"><path id="" clip-rule="evenodd" d="M8.871E-06 841L595.32 841L595.32 841L595.32 -0.9199829L595.32 -0.9199829L8.871E-06 -0.9199829z" /></clipPath><clipPath id="110"><path id="" clip-rule="evenodd" d="M8.871E-06 841L595.32 841L595.32 841L595.32 -0.9199829L595.32 -0.9199829L8.871E-06 -0.9199829z" /></clipPath><clipPath id="111"><path id="" clip-rule="evenodd" d="M8.871E-06 841L595.32 841L595.32 841L595.32 -0.9199829L595.32 -0.9199829L8.871E-06 -0.9199829z" /></clipPath><clipPath id="112"><path id="" clip-rule="evenodd" d="M8.871E-06 841L595.32 841L595.32 841L595.32 -0.9199829L595.32 -0.9199829L8.871E-06 -0.9199829z" /></clipPath><clipPath id="113"><path id="" clip-rule="evenodd" d="M8.871E-06 841L595.32 841L595.32 841L595.32 -0.9199829L595.32 -0.9199829L8.871E-06 -0.9199829z" /></clipPath><clipPath id="114"><path id="" clip-rule="evenodd" d="M8.871E-06 841L595.32 841L595.32 841L595.32 -0.9199829L595.32 -0.9199829L8.871E-06 -0.9199829z" /></clipPath><clipPath id="115"><path id="" clip-rule="evenodd" d="M8.871E-06 841L595.32 841L595.32 841L595.32 -0.9199829L595.32 -0.9199829L8.871E-06 -0.9199829z" /></clipPath><clipPath id="116"><path id="" clip-rule="evenodd" d="M8.871E-06 841L595.32 841L595.32 841L595.32 -0.9199829L595.32 -0.9199829L8.871E-06 -0.9199829z" /></clipPath><clipPath id="117"><path id="" clip-rule="evenodd" d="M8.871E-06 841L595.32 841L595.32 841L595.32 -0.9199829L595.32 -0.9199829L8.871E-06 -0.9199829z" /></clipPath><clipPath id="118"><path id="" clip-rule="evenodd" d="M8.871E-06 841L595.32 841L595.32 841L595.32 -0.9199829L595.32 -0.9199829L8.871E-06 -0.9199829z" /></clipPath><clipPath id="119"><path id="" clip-rule="evenodd" d="M8.871E-06 841L595.32 841L595.32 841L595.32 -0.9199829L595.32 -0.9199829L8.871E-06 -0.9199829z" /></clipPath><clipPath id="120"><path id="" clip-rule="evenodd" d="M8.871E-06 841L595.32 841L595.32 841L595.32 -0.9199829L595.32 -0.9199829L8.871E-06 -0.9199829z" /></clipPath><clipPath id="121"><path id="" clip-rule="evenodd" d="M8.871E-06 841L595.32 841L595.32 841L595.32 -0.9199829L595.32 -0.9199829L8.871E-06 -0.9199829z" /></clipPath><clipPath id="122"><path id="" clip-rule="evenodd" d="M8.871E-06 841L595.32 841L595.32 841L595.32 -0.9199829L595.32 -0.9199829L8.871E-06 -0.9199829z" /></clipPath><clipPath id="123"><path id="" clip-rule="evenodd" d="M8.871E-06 841L595.32 841L595.32 841L595.32 -0.9199829L595.32 -0.9199829L8.871E-06 -0.9199829z" /></clipPath><clipPath id="124"><path id="" clip-rule="evenodd" d="M8.871E-06 841L595.32 841L595.32 841L595.32 -0.9199829L595.32 -0.9199829L8.871E-06 -0.9199829z" /></clipPath><clipPath id="125"><path id="" clip-rule="evenodd" d="M8.871E-06 841L595.32 841L595.32 841L595.32 -0.9199829L595.32 -0.9199829L8.871E-06 -0.9199829z" /></clipPath><clipPath id="126"><path id="" clip-rule="evenodd" d="M8.871E-06 841L595.32 841L595.32 841L595.32 -0.9199829L595.32 -0.9199829L8.871E-06 -0.9199829z" /></clipPath><clipPath id="127"><path id="" clip-rule="evenodd" d="M8.871E-06 841L595.32 841L595.32 841L595.32 -0.9199829L595.32 -0.9199829L8.871E-06 -0.9199829z" /></clipPath><clipPath id="128"><path id="" clip-rule="evenodd" d="M8.871E-06 841L595.32 841L595.32 841L595.32 -0.9199829L595.32 -0.9199829L8.871E-06 -0.9199829z" /></clipPath><clipPath id="129"><path id="" clip-rule="evenodd" d="M8.871E-06 841L595.32 841L595.32 841L595.32 -0.9199829L595.32 -0.9199829L8.871E-06 -0.9199829z" /></clipPath><clipPath id="130"><path id="" clip-rule="evenodd" d="M8.871E-06 841L595.32 841L595.32 841L595.32 -0.9199829L595.32 -0.9199829L8.871E-06 -0.9199829z" /></clipPath><clipPath id="131"><path id="" clip-rule="evenodd" d="M8.871E-06 841L595.32 841L595.32 841L595.32 -0.9199829L595.32 -0.9199829L8.871E-06 -0.9199829z" /></clipPath><clipPath id="132"><path id="" clip-rule="evenodd" d="M8.871E-06 841L595.32 841L595.32 841L595.32 -0.9199829L595.32 -0.9199829L8.871E-06 -0.9199829z" /></clipPath><clipPath id="133"><path id="" clip-rule="evenodd" d="M8.871E-06 841L595.32 841L595.32 841L595.32 -0.9199829L595.32 -0.9199829L8.871E-06 -0.9199829z" /></clipPath><clipPath id="134"><path id="" clip-rule="evenodd" d="M8.871E-06 841L595.32 841L595.32 841L595.32 -0.9199829L595.32 -0.9199829L8.871E-06 -0.9199829z" /></clipPath><clipPath id="135"><path id="" clip-rule="evenodd" d="M8.871E-06 841L595.32 841L595.32 841L595.32 -0.9199829L595.32 -0.9199829L8.871E-06 -0.9199829z" /></clipPath><clipPath id="136"><path id="" clip-rule="evenodd" d="M8.871E-06 841L595.32 841L595.32 841L595.32 -0.9199829L595.32 -0.9199829L8.871E-06 -0.9199829z" /></clipPath><clipPath id="137"><path id="" clip-rule="evenodd" d="M8.871E-06 841L595.32 841L595.32 841L595.32 -0.9199829L595.32 -0.9199829L8.871E-06 -0.9199829z" /></clipPath><clipPath id="138"><path id="" clip-rule="evenodd" d="M8.871E-06 841L595.32 841L595.32 841L595.32 -0.9199829L595.32 -0.9199829L8.871E-06 -0.9199829z" /></clipPath><clipPath id="139"><path id="" clip-rule="evenodd" d="M8.871E-06 841L595.32 841L595.32 841L595.32 -0.9199829L595.32 -0.9199829L8.871E-06 -0.9199829z" /></clipPath><clipPath id="140"><path id="" clip-rule="evenodd" d="M8.871E-06 841L595.32 841L595.32 841L595.32 -0.9199829L595.32 -0.9199829L8.871E-06 -0.9199829z" /></clipPath><clipPath id="141"><path id="" clip-rule="evenodd" d="M8.871E-06 841L595.32 841L595.32 841L595.32 -0.9199829L595.32 -0.9199829L8.871E-06 -0.9199829z" /></clipPath><clipPath id="142"><path id="" clip-rule="evenodd" d="M8.871E-06 841L595.32 841L595.32 841L595.32 -0.9199829L595.32 -0.9199829L8.871E-06 -0.9199829z" /></clipPath><clipPath id="143"><path id="" clip-rule="evenodd" d="M8.871E-06 841L595.32 841L595.32 841L595.32 -0.9199829L595.32 -0.9199829L8.871E-06 -0.9199829z" /></clipPath><clipPath id="144"><path id="" clip-rule="evenodd" d="M140.78 405.09L252.28 405.09L252.28 405.09L252.28 373.41L252.28 373.41L140.78 373.41z" /></clipPath><clipPath id="145"><path id="" clip-rule="evenodd" d="M140.78 405.09L252.28 405.09L252.28 405.09L252.28 373.41L252.28 373.41L140.78 373.41z" /></clipPath><clipPath id="146"><path id="" clip-rule="evenodd" d="M140.78 405.09L252.28 405.09L252.28 405.09L252.28 373.41L252.28 373.41L140.78 373.41z" /></clipPath><clipPath id="147"><path id="" clip-rule="evenodd" d="M252.77 389.01L452.26 389.01L452.26 389.01L452.26 373.41L452.26 373.41L252.77 373.41z" /></clipPath><clipPath id="148"><path id="" clip-rule="evenodd" d="M252.77 389.01L452.26 389.01L452.26 389.01L452.26 373.41L452.26 373.41L252.77 373.41z" /></clipPath><clipPath id="149"><path id="" clip-rule="evenodd" d="M252.77 389.01L452.26 389.01L452.26 389.01L452.26 373.41L452.26 373.41L252.77 373.41z" /></clipPath><clipPath id="150"><path id="" clip-rule="evenodd" d="M252.77 405.09L302.234 405.09L302.234 405.09L302.234 389.49L302.234 389.49L252.77 389.49z" /></clipPath><clipPath id="151"><path id="" clip-rule="evenodd" d="M252.77 405.09L302.234 405.09L302.234 405.09L302.234 389.49L302.234 389.49L252.77 389.49z" /></clipPath><clipPath id="152"><path id="" clip-rule="evenodd" d="M252.77 405.09L302.234 405.09L302.234 405.09L302.234 389.49L302.234 389.49L252.77 389.49z" /></clipPath><clipPath id="153"><path id="" clip-rule="evenodd" d="M302.83 405.09L374.35 405.09L374.35 405.09L374.35 389.49L374.35 389.49L302.83 389.49z" /></clipPath><clipPath id="154"><path id="" clip-rule="evenodd" d="M302.83 405.09L374.35 405.09L374.35 405.09L374.35 389.49L374.35 389.49L302.83 389.49z" /></clipPath><clipPath id="155"><path id="" clip-rule="evenodd" d="M302.83 405.09L374.35 405.09L374.35 405.09L374.35 389.49L374.35 389.49L302.83 389.49z" /></clipPath><clipPath id="156"><path id="" clip-rule="evenodd" d="M302.83 405.09L374.35 405.09L374.35 405.09L374.35 389.49L374.35 389.49L302.83 389.49z" /></clipPath><clipPath id="157"><path id="" clip-rule="evenodd" d="M374.83 405.09L402.334 405.09L402.334 405.09L402.334 389.49L402.334 389.49L374.83 389.49z" /></clipPath><clipPath id="158"><path id="" clip-rule="evenodd" d="M374.83 405.09L402.334 405.09L402.334 405.09L402.334 389.49L402.334 389.49L374.83 389.49z" /></clipPath><clipPath id="159"><path id="" clip-rule="evenodd" d="M374.83 405.09L402.334 405.09L402.334 405.09L402.334 389.49L402.334 389.49L374.83 389.49z" /></clipPath><clipPath id="160"><path id="" clip-rule="evenodd" d="M402.82 405.09L452.26 405.09L452.26 405.09L452.26 389.49L452.26 389.49L402.82 389.49z" /></clipPath><clipPath id="161"><path id="" clip-rule="evenodd" d="M402.82 405.09L452.26 405.09L452.26 405.09L452.26 389.49L452.26 389.49L402.82 389.49z" /></clipPath><clipPath id="162"><path id="" clip-rule="evenodd" d="M402.82 405.09L452.26 405.09L452.26 405.09L452.26 389.49L452.26 389.49L402.82 389.49z" /></clipPath><clipPath id="163"><path id="" clip-rule="evenodd" d="M402.82 405.09L452.26 405.09L452.26 405.09L452.26 389.49L452.26 389.49L402.82 389.49z" /></clipPath><clipPath id="164"><path id="" clip-rule="evenodd" d="M140.78 421.17L252.28 421.17L252.28 421.17L252.28 405.57L252.28 405.57L140.78 405.57z" /></clipPath><clipPath id="165"><path id="" clip-rule="evenodd" d="M140.78 421.17L252.28 421.17L252.28 421.17L252.28 405.57L252.28 405.57L140.78 405.57z" /></clipPath><clipPath id="166"><path id="" clip-rule="evenodd" d="M140.78 421.17L252.28 421.17L252.28 421.17L252.28 405.57L252.28 405.57L140.78 405.57z" /></clipPath><clipPath id="167"><path id="" clip-rule="evenodd" d="M252.77 421.17L302.234 421.17L302.234 421.17L302.234 405.57L302.234 405.57L252.77 405.57z" /></clipPath><clipPath id="168"><path id="" clip-rule="evenodd" d="M252.77 421.17L302.234 421.17L302.234 421.17L302.234 405.57L302.234 405.57L252.77 405.57z" /></clipPath><clipPath id="169"><path id="" clip-rule="evenodd" d="M252.77 421.17L302.234 421.17L302.234 421.17L302.234 405.57L302.234 405.57L252.77 405.57z" /></clipPath><clipPath id="170"><path id="" clip-rule="evenodd" d="M302.83 421.17L374.35 421.17L374.35 421.17L374.35 405.57L374.35 405.57L302.83 405.57z" /></clipPath><clipPath id="171"><path id="" clip-rule="evenodd" d="M302.83 421.17L374.35 421.17L374.35 421.17L374.35 405.57L374.35 405.57L302.83 405.57z" /></clipPath><clipPath id="172"><path id="" clip-rule="evenodd" d="M302.83 421.17L374.35 421.17L374.35 421.17L374.35 405.57L374.35 405.57L302.83 405.57z" /></clipPath><clipPath id="173"><path id="" clip-rule="evenodd" d="M374.83 421.17L402.334 421.17L402.334 421.17L402.334 405.57L402.334 405.57L374.83 405.57z" /></clipPath><clipPath id="174"><path id="" clip-rule="evenodd" d="M374.83 421.17L402.334 421.17L402.334 421.17L402.334 405.57L402.334 405.57L374.83 405.57z" /></clipPath><clipPath id="175"><path id="" clip-rule="evenodd" d="M374.83 421.17L402.334 421.17L402.334 421.17L402.334 405.57L402.334 405.57L374.83 405.57z" /></clipPath><clipPath id="176"><path id="" clip-rule="evenodd" d="M402.82 421.17L452.26 421.17L452.26 421.17L452.26 405.57L452.26 405.57L402.82 405.57z" /></clipPath><clipPath id="177"><path id="" clip-rule="evenodd" d="M402.82 421.17L452.26 421.17L452.26 421.17L452.26 405.57L452.26 405.57L402.82 405.57z" /></clipPath><clipPath id="178"><path id="" clip-rule="evenodd" d="M402.82 421.17L452.26 421.17L452.26 421.17L452.26 405.57L452.26 405.57L402.82 405.57z" /></clipPath><clipPath id="179"><path id="" clip-rule="evenodd" d="M140.78 437.39L252.28 437.39L252.28 437.39L252.28 421.766L252.28 421.766L140.78 421.766z" /></clipPath><clipPath id="180"><path id="" clip-rule="evenodd" d="M140.78 437.39L252.28 437.39L252.28 437.39L252.28 421.766L252.28 421.766L140.78 421.766z" /></clipPath><clipPath id="181"><path id="" clip-rule="evenodd" d="M140.78 437.39L252.28 437.39L252.28 437.39L252.28 421.766L252.28 421.766L140.78 421.766z" /></clipPath><clipPath id="182"><path id="" clip-rule="evenodd" d="M252.77 437.39L302.234 437.39L302.234 437.39L302.234 421.766L302.234 421.766L252.77 421.766z" /></clipPath><clipPath id="183"><path id="" clip-rule="evenodd" d="M252.77 437.39L302.234 437.39L302.234 437.39L302.234 421.766L302.234 421.766L252.77 421.766z" /></clipPath><clipPath id="184"><path id="" clip-rule="evenodd" d="M252.77 437.39L302.234 437.39L302.234 437.39L302.234 421.766L302.234 421.766L252.77 421.766z" /></clipPath><clipPath id="185"><path id="" clip-rule="evenodd" d="M302.83 437.39L374.35 437.39L374.35 437.39L374.35 421.766L374.35 421.766L302.83 421.766z" /></clipPath><clipPath id="186"><path id="" clip-rule="evenodd" d="M302.83 437.39L374.35 437.39L374.35 437.39L374.35 421.766L374.35 421.766L302.83 421.766z" /></clipPath><clipPath id="187"><path id="" clip-rule="evenodd" d="M302.83 437.39L374.35 437.39L374.35 437.39L374.35 421.766L374.35 421.766L302.83 421.766z" /></clipPath><clipPath id="188"><path id="" clip-rule="evenodd" d="M374.83 437.39L402.334 437.39L402.334 437.39L402.334 421.766L402.334 421.766L374.83 421.766z" /></clipPath><clipPath id="189"><path id="" clip-rule="evenodd" d="M374.83 437.39L402.334 437.39L402.334 437.39L402.334 421.766L402.334 421.766L374.83 421.766z" /></clipPath><clipPath id="190"><path id="" clip-rule="evenodd" d="M374.83 437.39L402.334 437.39L402.334 437.39L402.334 421.766L402.334 421.766L374.83 421.766z" /></clipPath><clipPath id="191"><path id="" clip-rule="evenodd" d="M402.82 437.39L452.26 437.39L452.26 437.39L452.26 421.766L452.26 421.766L402.82 421.766z" /></clipPath><clipPath id="192"><path id="" clip-rule="evenodd" d="M402.82 437.39L452.26 437.39L452.26 437.39L452.26 421.766L452.26 421.766L402.82 421.766z" /></clipPath><clipPath id="193"><path id="" clip-rule="evenodd" d="M402.82 437.39L452.26 437.39L452.26 437.39L452.26 421.766L452.26 421.766L402.82 421.766z" /></clipPath><clipPath id="194"><path id="" clip-rule="evenodd" d="M140.78 453.47L252.28 453.47L252.28 453.47L252.28 437.87L252.28 437.87L140.78 437.87z" /></clipPath><clipPath id="195"><path id="" clip-rule="evenodd" d="M140.78 453.47L252.28 453.47L252.28 453.47L252.28 437.87L252.28 437.87L140.78 437.87z" /></clipPath><clipPath id="196"><path id="" clip-rule="evenodd" d="M140.78 453.47L252.28 453.47L252.28 453.47L252.28 437.87L252.28 437.87L140.78 437.87z" /></clipPath><clipPath id="197"><path id="" clip-rule="evenodd" d="M140.78 453.47L252.28 453.47L252.28 453.47L252.28 437.87L252.28 437.87L140.78 437.87z" /></clipPath><clipPath id="198"><path id="" clip-rule="evenodd" d="M140.78 453.47L252.28 453.47L252.28 453.47L252.28 437.87L252.28 437.87L140.78 437.87z" /></clipPath><clipPath id="199"><path id="" clip-rule="evenodd" d="M140.78 453.47L252.28 453.47L252.28 453.47L252.28 437.87L252.28 437.87L140.78 437.87z" /></clipPath><clipPath id="200"><path id="" clip-rule="evenodd" d="M252.77 453.47L302.234 453.47L302.234 453.47L302.234 437.87L302.234 437.87L252.77 437.87z" /></clipPath><clipPath id="201"><path id="" clip-rule="evenodd" d="M252.77 453.47L302.234 453.47L302.234 453.47L302.234 437.87L302.234 437.87L252.77 437.87z" /></clipPath><clipPath id="202"><path id="" clip-rule="evenodd" d="M252.77 453.47L302.234 453.47L302.234 453.47L302.234 437.87L302.234 437.87L252.77 437.87z" /></clipPath><clipPath id="203"><path id="" clip-rule="evenodd" d="M302.83 453.47L374.35 453.47L374.35 453.47L374.35 437.87L374.35 437.87L302.83 437.87z" /></clipPath><clipPath id="204"><path id="" clip-rule="evenodd" d="M302.83 453.47L374.35 453.47L374.35 453.47L374.35 437.87L374.35 437.87L302.83 437.87z" /></clipPath><clipPath id="205"><path id="" clip-rule="evenodd" d="M302.83 453.47L374.35 453.47L374.35 453.47L374.35 437.87L374.35 437.87L302.83 437.87z" /></clipPath><clipPath id="206"><path id="" clip-rule="evenodd" d="M374.83 453.47L402.334 453.47L402.334 453.47L402.334 437.87L402.334 437.87L374.83 437.87z" /></clipPath><clipPath id="207"><path id="" clip-rule="evenodd" d="M374.83 453.47L402.334 453.47L402.334 453.47L402.334 437.87L402.334 437.87L374.83 437.87z" /></clipPath><clipPath id="208"><path id="" clip-rule="evenodd" d="M374.83 453.47L402.334 453.47L402.334 453.47L402.334 437.87L402.334 437.87L374.83 437.87z" /></clipPath><clipPath id="209"><path id="" clip-rule="evenodd" d="M402.82 453.47L452.26 453.47L452.26 453.47L452.26 437.87L452.26 437.87L402.82 437.87z" /></clipPath><clipPath id="210"><path id="" clip-rule="evenodd" d="M402.82 453.47L452.26 453.47L452.26 453.47L452.26 437.87L452.26 437.87L402.82 437.87z" /></clipPath><clipPath id="211"><path id="" clip-rule="evenodd" d="M402.82 453.47L452.26 453.47L452.26 453.47L452.26 437.87L452.26 437.87L402.82 437.87z" /></clipPath><clipPath id="212"><path id="" clip-rule="evenodd" d="M140.78 469.55L252.28 469.55L252.28 469.55L252.28 453.95L252.28 453.95L140.78 453.95z" /></clipPath><clipPath id="213"><path id="" clip-rule="evenodd" d="M140.78 469.55L252.28 469.55L252.28 469.55L252.28 453.95L252.28 453.95L140.78 453.95z" /></clipPath><clipPath id="214"><path id="" clip-rule="evenodd" d="M140.78 469.55L252.28 469.55L252.28 469.55L252.28 453.95L252.28 453.95L140.78 453.95z" /></clipPath><clipPath id="215"><path id="" clip-rule="evenodd" d="M140.78 469.55L252.28 469.55L252.28 469.55L252.28 453.95L252.28 453.95L140.78 453.95z" /></clipPath><clipPath id="216"><path id="" clip-rule="evenodd" d="M252.77 469.55L302.234 469.55L302.234 469.55L302.234 453.95L302.234 453.95L252.77 453.95z" /></clipPath><clipPath id="217"><path id="" clip-rule="evenodd" d="M252.77 469.55L302.234 469.55L302.234 469.55L302.234 453.95L302.234 453.95L252.77 453.95z" /></clipPath><clipPath id="218"><path id="" clip-rule="evenodd" d="M252.77 469.55L302.234 469.55L302.234 469.55L302.234 453.95L302.234 453.95L252.77 453.95z" /></clipPath><clipPath id="219"><path id="" clip-rule="evenodd" d="M302.83 469.55L374.35 469.55L374.35 469.55L374.35 453.95L374.35 453.95L302.83 453.95z" /></clipPath><clipPath id="220"><path id="" clip-rule="evenodd" d="M302.83 469.55L374.35 469.55L374.35 469.55L374.35 453.95L374.35 453.95L302.83 453.95z" /></clipPath><clipPath id="221"><path id="" clip-rule="evenodd" d="M302.83 469.55L374.35 469.55L374.35 469.55L374.35 453.95L374.35 453.95L302.83 453.95z" /></clipPath><clipPath id="222"><path id="" clip-rule="evenodd" d="M302.83 469.55L374.35 469.55L374.35 469.55L374.35 453.95L374.35 453.95L302.83 453.95z" /></clipPath><clipPath id="223"><path id="" clip-rule="evenodd" d="M374.83 469.55L402.334 469.55L402.334 469.55L402.334 453.95L402.334 453.95L374.83 453.95z" /></clipPath><clipPath id="224"><path id="" clip-rule="evenodd" d="M374.83 469.55L402.334 469.55L402.334 469.55L402.334 453.95L402.334 453.95L374.83 453.95z" /></clipPath><clipPath id="225"><path id="" clip-rule="evenodd" d="M374.83 469.55L402.334 469.55L402.334 469.55L402.334 453.95L402.334 453.95L374.83 453.95z" /></clipPath><clipPath id="226"><path id="" clip-rule="evenodd" d="M402.82 469.55L452.26 469.55L452.26 469.55L452.26 453.95L452.26 453.95L402.82 453.95z" /></clipPath><clipPath id="227"><path id="" clip-rule="evenodd" d="M402.82 469.55L452.26 469.55L452.26 469.55L452.26 453.95L452.26 453.95L402.82 453.95z" /></clipPath><clipPath id="228"><path id="" clip-rule="evenodd" d="M402.82 469.55L452.26 469.55L452.26 469.55L452.26 453.95L452.26 453.95L402.82 453.95z" /></clipPath><clipPath id="229"><path id="" clip-rule="evenodd" d="M8.871E-06 841L595.32 841L595.32 841L595.32 -0.9199829L595.32 -0.9199829L8.871E-06 -0.9199829z" /></clipPath><clipPath id="230"><path id="" clip-rule="evenodd" d="M8.871E-06 841L595.32 841L595.32 841L595.32 -0.9199829L595.32 -0.9199829L8.871E-06 -0.9199829z" /></clipPath><clipPath id="231"><path id="" clip-rule="evenodd" d="M8.871E-06 841L595.32 841L595.32 841L595.32 -0.9199829L595.32 -0.9199829L8.871E-06 -0.9199829z" /></clipPath><clipPath id="232"><path id="" clip-rule="evenodd" d="M8.871E-06 841L595.32 841L595.32 841L595.32 -0.9199829L595.32 -0.9199829L8.871E-06 -0.9199829z" /></clipPath><clipPath id="233"><path id="" clip-rule="evenodd" d="M8.871E-06 841L595.32 841L595.32 841L595.32 -0.9199829L595.32 -0.9199829L8.871E-06 -0.9199829z" /></clipPath><clipPath id="234"><path id="" clip-rule="evenodd" d="M8.871E-06 841L595.32 841L595.32 841L595.32 -0.9199829L595.32 -0.9199829L8.871E-06 -0.9199829z" /></clipPath><clipPath id="235"><path id="" clip-rule="evenodd" d="M8.871E-06 841L595.32 841L595.32 841L595.32 -0.9199829L595.32 -0.9199829L8.871E-06 -0.9199829z" /></clipPath><clipPath id="236"><path id="" clip-rule="evenodd" d="M8.871E-06 841L595.32 841L595.32 841L595.32 -0.9199829L595.32 -0.9199829L8.871E-06 -0.9199829z" /></clipPath><clipPath id="237"><path id="" clip-rule="evenodd" d="M8.871E-06 841L595.32 841L595.32 841L595.32 -0.9199829L595.32 -0.9199829L8.871E-06 -0.9199829z" /></clipPath><clipPath id="238"><path id="" clip-rule="evenodd" d="M8.871E-06 841L595.32 841L595.32 841L595.32 -0.9199829L595.32 -0.9199829L8.871E-06 -0.9199829z" /></clipPath><clipPath id="239"><path id="" clip-rule="evenodd" d="M8.871E-06 841L595.32 841L595.32 841L595.32 -0.9199829L595.32 -0.9199829L8.871E-06 -0.9199829z" /></clipPath><clipPath id="240"><path id="" clip-rule="evenodd" d="M8.871E-06 841L595.32 841L595.32 841L595.32 -0.9199829L595.32 -0.9199829L8.871E-06 -0.9199829z" /></clipPath><clipPath id="241"><path id="" clip-rule="evenodd" d="M8.871E-06 841L595.32 841L595.32 841L595.32 -0.9199829L595.32 -0.9199829L8.871E-06 -0.9199829z" /></clipPath><clipPath id="242"><path id="" clip-rule="evenodd" d="M8.871E-06 841L595.32 841L595.32 841L595.32 -0.9199829L595.32 -0.9199829L8.871E-06 -0.9199829z" /></clipPath><clipPath id="243"><path id="" clip-rule="evenodd" d="M8.871E-06 841L595.32 841L595.32 841L595.32 -0.9199829L595.32 -0.9199829L8.871E-06 -0.9199829z" /></clipPath><clipPath id="244"><path id="" clip-rule="evenodd" d="M8.871E-06 841L595.32 841L595.32 841L595.32 -0.9199829L595.32 -0.9199829L8.871E-06 -0.9199829z" /></clipPath><clipPath id="245"><path id="" clip-rule="evenodd" d="M8.871E-06 841L595.32 841L595.32 841L595.32 -0.9199829L595.32 -0.9199829L8.871E-06 -0.9199829z" /></clipPath><clipPath id="246"><path id="" clip-rule="evenodd" d="M8.871E-06 841L595.32 841L595.32 841L595.32 -0.9199829L595.32 -0.9199829L8.871E-06 -0.9199829z" /></clipPath><clipPath id="247"><path id="" clip-rule="evenodd" d="M8.871E-06 841L595.32 841L595.32 841L595.32 -0.9199829L595.32 -0.9199829L8.871E-06 -0.9199829z" /></clipPath><clipPath id="248"><path id="" clip-rule="evenodd" d="M8.871E-06 841L595.32 841L595.32 841L595.32 -0.9199829L595.32 -0.9199829L8.871E-06 -0.9199829z" /></clipPath><clipPath id="249"><path id="" clip-rule="evenodd" d="M8.871E-06 841L595.32 841L595.32 841L595.32 -0.9199829L595.32 -0.9199829L8.871E-06 -0.9199829z" /></clipPath><clipPath id="250"><path id="" clip-rule="evenodd" d="M8.871E-06 841L595.32 841L595.32 841L595.32 -0.9199829L595.32 -0.9199829L8.871E-06 -0.9199829z" /></clipPath><clipPath id="251"><path id="" clip-rule="evenodd" d="M8.871E-06 841L595.32 841L595.32 841L595.32 -0.9199829L595.32 -0.9199829L8.871E-06 -0.9199829z" /></clipPath><clipPath id="252"><path id="" clip-rule="evenodd" d="M8.871E-06 841L595.32 841L595.32 841L595.32 -0.9199829L595.32 -0.9199829L8.871E-06 -0.9199829z" /></clipPath><clipPath id="253"><path id="" clip-rule="evenodd" d="M8.871E-06 841L595.32 841L595.32 841L595.32 -0.9199829L595.32 -0.9199829L8.871E-06 -0.9199829z" /></clipPath><clipPath id="254"><path id="" clip-rule="evenodd" d="M8.871E-06 841L595.32 841L595.32 841L595.32 -0.9199829L595.32 -0.9199829L8.871E-06 -0.9199829z" /></clipPath><clipPath id="255"><path id="" clip-rule="evenodd" d="M8.871E-06 841L595.32 841L595.32 841L595.32 -0.9199829L595.32 -0.9199829L8.871E-06 -0.9199829z" /></clipPath><clipPath id="256"><path id="" clip-rule="evenodd" d="M8.871E-06 841L595.32 841L595.32 841L595.32 -0.9199829L595.32 -0.9199829L8.871E-06 -0.9199829z" /></clipPath><clipPath id="257"><path id="" clip-rule="evenodd" d="M8.871E-06 841L595.32 841L595.32 841L595.32 -0.9199829L595.32 -0.9199829L8.871E-06 -0.9199829z" /></clipPath><clipPath id="258"><path id="" clip-rule="evenodd" d="M8.871E-06 841L595.32 841L595.32 841L595.32 -0.9199829L595.32 -0.9199829L8.871E-06 -0.9199829z" /></clipPath><clipPath id="259"><path id="" clip-rule="evenodd" d="M8.871E-06 841L595.32 841L595.32 841L595.32 -0.9199829L595.32 -0.9199829L8.871E-06 -0.9199829z" /></clipPath><clipPath id="260"><path id="" clip-rule="evenodd" d="M8.871E-06 841L595.32 841L595.32 841L595.32 -0.9199829L595.32 -0.9199829L8.871E-06 -0.9199829z" /></clipPath><clipPath id="261"><path id="" clip-rule="evenodd" d="M8.871E-06 841L595.32 841L595.32 841L595.32 -0.9199829L595.32 -0.9199829L8.871E-06 -0.9199829z" /></clipPath><clipPath id="262"><path id="" clip-rule="evenodd" d="M8.871E-06 841L595.32 841L595.32 841L595.32 -0.9199829L595.32 -0.9199829L8.871E-06 -0.9199829z" /></clipPath><clipPath id="263"><path id="" clip-rule="evenodd" d="M8.871E-06 841L595.32 841L595.32 841L595.32 -0.9199829L595.32 -0.9199829L8.871E-06 -0.9199829z" /></clipPath><clipPath id="264"><path id="" clip-rule="evenodd" d="M8.871E-06 841L595.32 841L595.32 841L595.32 -0.9199829L595.32 -0.9199829L8.871E-06 -0.9199829z" /></clipPath><clipPath id="265"><path id="" clip-rule="evenodd" d="M8.871E-06 841L595.32 841L595.32 841L595.32 -0.9199829L595.32 -0.9199829L8.871E-06 -0.9199829z" /></clipPath><clipPath id="266"><path id="" clip-rule="evenodd" d="M8.871E-06 841L595.32 841L595.32 841L595.32 -0.9199829L595.32 -0.9199829L8.871E-06 -0.9199829z" /></clipPath><clipPath id="267"><path id="" clip-rule="evenodd" d="M8.871E-06 841L595.32 841L595.32 841L595.32 -0.9199829L595.32 -0.9199829L8.871E-06 -0.9199829z" /></clipPath><clipPath id="268"><path id="" clip-rule="evenodd" d="M8.871E-06 841L595.32 841L595.32 841L595.32 -0.9199829L595.32 -0.9199829L8.871E-06 -0.9199829z" /></clipPath><clipPath id="269"><path id="" clip-rule="evenodd" d="M8.871E-06 841L595.32 841L595.32 841L595.32 -0.9199829L595.32 -0.9199829L8.871E-06 -0.9199829z" /></clipPath><clipPath id="270"><path id="" clip-rule="evenodd" d="M8.871E-06 841L595.32 841L595.32 841L595.32 -0.9199829L595.32 -0.9199829L8.871E-06 -0.9199829z" /></clipPath><clipPath id="271"><path id="" clip-rule="evenodd" d="M8.871E-06 841L595.32 841L595.32 841L595.32 -0.9199829L595.32 -0.9199829L8.871E-06 -0.9199829z" /></clipPath><clipPath id="272"><path id="" clip-rule="evenodd" d="M8.871E-06 841L595.32 841L595.32 841L595.32 -0.9199829L595.32 -0.9199829L8.871E-06 -0.9199829z" /></clipPath><clipPath id="273"><path id="" clip-rule="evenodd" d="M8.871E-06 841L595.32 841L595.32 841L595.32 -0.9199829L595.32 -0.9199829L8.871E-06 -0.9199829z" /></clipPath><clipPath id="274"><path id="" clip-rule="evenodd" d="M8.871E-06 841L595.32 841L595.32 841L595.32 -0.9199829L595.32 -0.9199829L8.871E-06 -0.9199829z" /></clipPath><clipPath id="275"><path id="" clip-rule="evenodd" d="M8.871E-06 841L595.32 841L595.32 841L595.32 -0.9199829L595.32 -0.9199829L8.871E-06 -0.9199829z" /></clipPath><clipPath id="276"><path id="" clip-rule="evenodd" d="M8.871E-06 841L595.32 841L595.32 841L595.32 -0.9199829L595.32 -0.9199829L8.871E-06 -0.9199829z" /></clipPath><clipPath id="277"><path id="" clip-rule="evenodd" d="M8.871E-06 841L595.32 841L595.32 841L595.32 -0.9199829L595.32 -0.9199829L8.871E-06 -0.9199829z" /></clipPath><clipPath id="278"><path id="" clip-rule="evenodd" d="M8.871E-06 841L595.32 841L595.32 841L595.32 -0.9199829L595.32 -0.9199829L8.871E-06 -0.9199829z" /></clipPath><clipPath id="279"><path id="" clip-rule="evenodd" d="M8.871E-06 841L595.32 841L595.32 841L595.32 -0.9199829L595.32 -0.9199829L8.871E-06 -0.9199829z" /></clipPath><clipPath id="280"><path id="" clip-rule="evenodd" d="M8.871E-06 841L595.32 841L595.32 841L595.32 -0.9199829L595.32 -0.9199829L8.871E-06 -0.9199829z" /></clipPath><clipPath id="281"><path id="" clip-rule="evenodd" d="M8.871E-06 841L595.32 841L595.32 841L595.32 -0.9199829L595.32 -0.9199829L8.871E-06 -0.9199829z" /></clipPath><clipPath id="282"><path id="" clip-rule="evenodd" d="M8.871E-06 841L595.32 841L595.32 841L595.32 -0.9199829L595.32 -0.9199829L8.871E-06 -0.9199829z" /></clipPath><clipPath id="283"><path id="" clip-rule="evenodd" d="M8.871E-06 841L595.32 841L595.32 841L595.32 -0.9199829L595.32 -0.9199829L8.871E-06 -0.9199829z" /></clipPath><clipPath id="284"><path id="" clip-rule="evenodd" d="M8.871E-06 841L595.32 841L595.32 841L595.32 -0.9199829L595.32 -0.9199829L8.871E-06 -0.9199829z" /></clipPath><clipPath id="285"><path id="" clip-rule="evenodd" d="M8.871E-06 841L595.32 841L595.32 841L595.32 -0.9199829L595.32 -0.9199829L8.871E-06 -0.9199829z" /></clipPath><clipPath id="286"><path id="" clip-rule="evenodd" d="M8.871E-06 841L595.32 841L595.32 841L595.32 -0.9199829L595.32 -0.9199829L8.871E-06 -0.9199829z" /></clipPath><clipPath id="287"><path id="" clip-rule="evenodd" d="M8.871E-06 841L595.32 841L595.32 841L595.32 -0.9199829L595.32 -0.9199829L8.871E-06 -0.9199829z" /></clipPath><clipPath id="288"><path id="" clip-rule="evenodd" d="M8.871E-06 841L595.32 841L595.32 841L595.32 -0.9199829L595.32 -0.9199829L8.871E-06 -0.9199829z" /></clipPath><clipPath id="289"><path id="" clip-rule="evenodd" d="M8.871E-06 841L595.32 841L595.32 841L595.32 -0.9199829L595.32 -0.9199829L8.871E-06 -0.9199829z" /></clipPath><clipPath id="290"><path id="" clip-rule="evenodd" d="M8.871E-06 841L595.32 841L595.32 841L595.32 -0.9199829L595.32 -0.9199829L8.871E-06 -0.9199829z" /></clipPath><clipPath id="291"><path id="" clip-rule="evenodd" d="M8.871E-06 841L595.32 841L595.32 841L595.32 -0.9199829L595.32 -0.9199829L8.871E-06 -0.9199829z" /></clipPath><clipPath id="292"><path id="" clip-rule="evenodd" d="M8.871E-06 841L595.32 841L595.32 841L595.32 -0.9199829L595.32 -0.9199829L8.871E-06 -0.9199829z" /></clipPath><clipPath id="293"><path id="" clip-rule="evenodd" d="M8.871E-06 841L595.32 841L595.32 841L595.32 -0.9199829L595.32 -0.9199829L8.871E-06 -0.9199829z" /></clipPath><clipPath id="294"><path id="" clip-rule="evenodd" d="M8.871E-06 841L595.32 841L595.32 841L595.32 -0.9199829L595.32 -0.9199829L8.871E-06 -0.9199829z" /></clipPath><clipPath id="295"><path id="" clip-rule="evenodd" d="M8.871E-06 841L595.32 841L595.32 841L595.32 -0.9199829L595.32 -0.9199829L8.871E-06 -0.9199829z" /></clipPath><clipPath id="296"><path id="" clip-rule="evenodd" d="M8.871E-06 841L595.32 841L595.32 841L595.32 -0.9199829L595.32 -0.9199829L8.871E-06 -0.9199829z" /></clipPath><clipPath id="297"><path id="" clip-rule="evenodd" d="M8.871E-06 841L595.32 841L595.32 841L595.32 -0.9199829L595.32 -0.9199829L8.871E-06 -0.9199829z" /></clipPath><clipPath id="298"><path id="" clip-rule="evenodd" d="M8.871E-06 841L595.32 841L595.32 841L595.32 -0.9199829L595.32 -0.9199829L8.871E-06 -0.9199829z" /></clipPath><clipPath id="299"><path id="" clip-rule="evenodd" d="M8.871E-06 841L595.32 841L595.32 841L595.32 -0.9199829L595.32 -0.9199829L8.871E-06 -0.9199829z" /></clipPath><clipPath id="300"><path id="" clip-rule="evenodd" d="M8.871E-06 841L595.32 841L595.32 841L595.32 -0.9199829L595.32 -0.9199829L8.871E-06 -0.9199829z" /></clipPath><clipPath id="301"><path id="" clip-rule="evenodd" d="M8.871E-06 841L595.32 841L595.32 841L595.32 -0.9199829L595.32 -0.9199829L8.871E-06 -0.9199829z" /></clipPath><clipPath id="302"><path id="" clip-rule="evenodd" d="M8.871E-06 841L595.32 841L595.32 841L595.32 -0.9199829L595.32 -0.9199829L8.871E-06 -0.9199829z" /></clipPath><clipPath id="303"><path id="" clip-rule="evenodd" d="M8.871E-06 841L595.32 841L595.32 841L595.32 -0.9199829L595.32 -0.9199829L8.871E-06 -0.9199829z" /></clipPath><clipPath id="304"><path id="" clip-rule="evenodd" d="M8.871E-06 841L595.32 841L595.32 841L595.32 -0.9199829L595.32 -0.9199829L8.871E-06 -0.9199829z" /></clipPath><clipPath id="305"><path id="" clip-rule="evenodd" d="M8.871E-06 841L595.32 841L595.32 841L595.32 -0.9199829L595.32 -0.9199829L8.871E-06 -0.9199829z" /></clipPath><clipPath id="306"><path id="" clip-rule="evenodd" d="M8.871E-06 841L595.32 841L595.32 841L595.32 -0.9199829L595.32 -0.9199829L8.871E-06 -0.9199829z" /></clipPath><clipPath id="307"><path id="" clip-rule="evenodd" d="M8.871E-06 841L595.32 841L595.32 841L595.32 -0.9199829L595.32 -0.9199829L8.871E-06 -0.9199829z" /></clipPath><clipPath id="308"><path id="" clip-rule="evenodd" d="M8.871E-06 841L595.32 841L595.32 841L595.32 -0.9199829L595.32 -0.9199829L8.871E-06 -0.9199829z" /></clipPath><clipPath id="309"><path id="" clip-rule="evenodd" d="M8.871E-06 841L595.32 841L595.32 841L595.32 -0.9199829L595.32 -0.9199829L8.871E-06 -0.9199829z" /></clipPath><clipPath id="310"><path id="" clip-rule="evenodd" d="M8.871E-06 841L595.32 841L595.32 841L595.32 -0.9199829L595.32 -0.9199829L8.871E-06 -0.9199829z" /></clipPath><clipPath id="311"><path id="" clip-rule="evenodd" d="M8.871E-06 841L595.32 841L595.32 841L595.32 -0.9199829L595.32 -0.9199829L8.871E-06 -0.9199829z" /></clipPath><clipPath id="312"><path id="" clip-rule="evenodd" d="M8.871E-06 841L595.32 841L595.32 841L595.32 -0.9199829L595.32 -0.9199829L8.871E-06 -0.9199829z" /></clipPath><clipPath id="313"><path id="" clip-rule="evenodd" d="M8.871E-06 841L595.32 841L595.32 841L595.32 -0.9199829L595.32 -0.9199829L8.871E-06 -0.9199829z" /></clipPath><clipPath id="314"><path id="" clip-rule="evenodd" d="M8.871E-06 841L595.32 841L595.32 841L595.32 -0.9199829L595.32 -0.9199829L8.871E-06 -0.9199829z" /></clipPath><clipPath id="315"><path id="" clip-rule="evenodd" d="M8.871E-06 841L595.32 841L595.32 841L595.32 -0.9199829L595.32 -0.9199829L8.871E-06 -0.9199829z" /></clipPath><clipPath id="316"><path id="" clip-rule="evenodd" d="M8.871E-06 841L595.32 841L595.32 841L595.32 -0.9199829L595.32 -0.9199829L8.871E-06 -0.9199829z" /></clipPath><clipPath id="317"><path id="" clip-rule="evenodd" d="M8.871E-06 841L595.32 841L595.32 841L595.32 -0.9199829L595.32 -0.9199829L8.871E-06 -0.9199829z" /></clipPath><clipPath id="318"><path id="" clip-rule="evenodd" d="M8.871E-06 841L595.32 841L595.32 841L595.32 -0.9199829L595.32 -0.9199829L8.871E-06 -0.9199829z" /></clipPath><clipPath id="319"><path id="" clip-rule="evenodd" d="M8.871E-06 841L595.32 841L595.32 841L595.32 -0.9199829L595.32 -0.9199829L8.871E-06 -0.9199829z" /></clipPath><clipPath id="320"><path id="" clip-rule="evenodd" d="M8.871E-06 841L595.32 841L595.32 841L595.32 -0.9199829L595.32 -0.9199829L8.871E-06 -0.9199829z" /></clipPath><clipPath id="321"><path id="" clip-rule="evenodd" d="M8.871E-06 841L595.32 841L595.32 841L595.32 -0.9199829L595.32 -0.9199829L8.871E-06 -0.9199829z" /></clipPath><clipPath id="322"><path id="" clip-rule="evenodd" d="M8.871E-06 841L595.32 841L595.32 841L595.32 -0.9199829L595.32 -0.9199829L8.871E-06 -0.9199829z" /></clipPath><clipPath id="323"><path id="" clip-rule="evenodd" d="M8.871E-06 841L595.32 841L595.32 841L595.32 -0.9199829L595.32 -0.9199829L8.871E-06 -0.9199829z" /></clipPath><clipPath id="324"><path id="" clip-rule="evenodd" d="M8.871E-06 841L595.32 841L595.32 841L595.32 -0.9199829L595.32 -0.9199829L8.871E-06 -0.9199829z" /></clipPath><clipPath id="325"><path id="" clip-rule="evenodd" d="M8.871E-06 841L595.32 841L595.32 841L595.32 -0.9199829L595.32 -0.9199829L8.871E-06 -0.9199829z" /></clipPath><clipPath id="326"><path id="" clip-rule="evenodd" d="M8.871E-06 841L595.32 841L595.32 841L595.32 -0.9199829L595.32 -0.9199829L8.871E-06 -0.9199829z" /></clipPath><clipPath id="327"><path id="" clip-rule="evenodd" d="M8.871E-06 841L595.32 841L595.32 841L595.32 -0.9199829L595.32 -0.9199829L8.871E-06 -0.9199829z" /></clipPath><clipPath id="328"><path id="" clip-rule="evenodd" d="M8.871E-06 841L595.32 841L595.32 841L595.32 -0.9199829L595.32 -0.9199829L8.871E-06 -0.9199829z" /></clipPath><clipPath id="329"><path id="" clip-rule="evenodd" d="M8.871E-06 841L595.32 841L595.32 841L595.32 -0.9199829L595.32 -0.9199829L8.871E-06 -0.9199829z" /></clipPath><clipPath id="330"><path id="" clip-rule="evenodd" d="M8.871E-06 841L595.32 841L595.32 841L595.32 -0.9199829L595.32 -0.9199829L8.871E-06 -0.9199829z" /></clipPath><clipPath id="331"><path id="" clip-rule="evenodd" d="M8.871E-06 841L595.32 841L595.32 841L595.32 -0.9199829L595.32 -0.9199829L8.871E-06 -0.9199829z" /></clipPath><clipPath id="332"><path id="" clip-rule="evenodd" d="M0 840.9999L595.32 840.9999L595.32 840.9999L595.32 -0.9200439L595.32 -0.9200439L0 -0.9200439z" /></clipPath><clipPath id="333"><path id="" clip-rule="evenodd" d="M111.06 690.84L484.366 690.84L484.366 690.84L484.366 667.2902L484.366 667.2902L111.06 667.2902z" /></clipPath><clipPath id="334"><path id="" clip-rule="evenodd" d="M8.871E-06 841L595.32 841L595.32 841L595.32 -0.9199829L595.32 -0.9199829L8.871E-06 -0.9199829z" /></clipPath><clipPath id="335"><path id="" clip-rule="evenodd" d="M8.871E-06 841L595.32 841L595.32 841L595.32 -0.9199829L595.32 -0.9199829L8.871E-06 -0.9199829z" /></clipPath><clipPath id="336"><path id="" clip-rule="evenodd" d="M8.871E-06 841L595.32 841L595.32 841L595.32 -0.9199829L595.32 -0.9199829L8.871E-06 -0.9199829z" /></clipPath><clipPath id="337"><path id="" clip-rule="evenodd" d="M8.871E-06 841L595.32 841L595.32 841L595.32 -0.9199829L595.32 -0.9199829L8.871E-06 -0.9199829z" /></clipPath><clipPath id="338"><path id="" clip-rule="evenodd" d="M8.871E-06 841L595.32 841L595.32 841L595.32 -0.9199829L595.32 -0.9199829L8.871E-06 -0.9199829z" /></clipPath><clipPath id="339"><path id="" clip-rule="evenodd" d="M8.871E-06 841L595.32 841L595.32 841L595.32 -0.9199829L595.32 -0.9199829L8.871E-06 -0.9199829z" /></clipPath><clipPath id="340"><path id="" clip-rule="evenodd" d="M8.871E-06 841L595.32 841L595.32 841L595.32 -0.9199829L595.32 -0.9199829L8.871E-06 -0.9199829z" /></clipPath><clipPath id="341"><path id="" clip-rule="evenodd" d="M8.871E-06 841L595.32 841L595.32 841L595.32 -0.9199829L595.32 -0.9199829L8.871E-06 -0.9199829z" /></clipPath><clipPath id="342"><path id="" clip-rule="evenodd" d="M8.871E-06 841L595.32 841L595.32 841L595.32 -0.9199829L595.32 -0.9199829L8.871E-06 -0.9199829z" /></clipPath><clipPath id="343"><path id="" clip-rule="evenodd" d="M8.871E-06 841L595.32 841L595.32 841L595.32 -0.9199829L595.32 -0.9199829L8.871E-06 -0.9199829z" /></clipPath><clipPath id="344"><path id="" clip-rule="evenodd" d="M8.871E-06 841L595.32 841L595.32 841L595.32 -0.9199829L595.32 -0.9199829L8.871E-06 -0.9199829z" /></clipPath><clipPath id="345"><path id="" clip-rule="evenodd" d="M8.871E-06 841L595.32 841L595.32 841L595.32 -0.9199829L595.32 -0.9199829L8.871E-06 -0.9199829z" /></clipPath><clipPath id="346"><path id="" clip-rule="evenodd" d="M8.871E-06 841L595.32 841L595.32 841L595.32 -0.9199829L595.32 -0.9199829L8.871E-06 -0.9199829z" /></clipPath><clipPath id="347"><path id="" clip-rule="evenodd" d="M8.871E-06 841L595.32 841L595.32 841L595.32 -0.9199829L595.32 -0.9199829L8.871E-06 -0.9199829z" /></clipPath><clipPath id="348"><path id="" clip-rule="evenodd" d="M8.871E-06 841L595.32 841L595.32 841L595.32 -0.9199829L595.32 -0.9199829L8.871E-06 -0.9199829z" /></clipPath><clipPath id="349"><path id="" clip-rule="evenodd" d="M8.871E-06 841L595.32 841L595.32 841L595.32 -0.9199829L595.32 -0.9199829L8.871E-06 -0.9199829z" /></clipPath><clipPath id="350"><path id="" clip-rule="evenodd" d="M8.871E-06 841L595.32 841L595.32 841L595.32 -0.9199829L595.32 -0.9199829L8.871E-06 -0.9199829z" /></clipPath><clipPath id="351"><path id="" clip-rule="evenodd" d="M8.871E-06 841L595.32 841L595.32 841L595.32 -0.9199829L595.32 -0.9199829L8.871E-06 -0.9199829z" /></clipPath><clipPath id="352"><path id="" clip-rule="evenodd" d="M8.871E-06 841L595.32 841L595.32 841L595.32 -0.9199829L595.32 -0.9199829L8.871E-06 -0.9199829z" /></clipPath><clipPath id="353"><path id="" clip-rule="evenodd" d="M8.871E-06 841L595.32 841L595.32 841L595.32 -0.9199829L595.32 -0.9199829L8.871E-06 -0.9199829z" /></clipPath><clipPath id="354"><path id="" clip-rule="evenodd" d="M8.871E-06 841L595.32 841L595.32 841L595.32 -0.9199829L595.32 -0.9199829L8.871E-06 -0.9199829z" /></clipPath><clipPath id="355"><path id="" clip-rule="evenodd" d="M8.871E-06 841L595.32 841L595.32 841L595.32 -0.9199829L595.32 -0.9199829L8.871E-06 -0.9199829z" /></clipPath><clipPath id="356"><path id="" clip-rule="evenodd" d="M8.871E-06 841L595.32 841L595.32 841L595.32 -0.9199829L595.32 -0.9199829L8.871E-06 -0.9199829z" /></clipPath><clipPath id="357"><path id="" clip-rule="evenodd" d="M8.871E-06 841L595.32 841L595.32 841L595.32 -0.9199829L595.32 -0.9199829L8.871E-06 -0.9199829z" /></clipPath><clipPath id="358"><path id="" clip-rule="evenodd" d="M8.871E-06 841L595.32 841L595.32 841L595.32 -0.9199829L595.32 -0.9199829L8.871E-06 -0.9199829z" /></clipPath><clipPath id="359"><path id="" clip-rule="evenodd" d="M8.871E-06 841L595.32 841L595.32 841L595.32 -0.9199829L595.32 -0.9199829L8.871E-06 -0.9199829z" /></clipPath><clipPath id="360"><path id="" clip-rule="evenodd" d="M8.871E-06 841L595.32 841L595.32 841L595.32 -0.9199829L595.32 -0.9199829L8.871E-06 -0.9199829z" /></clipPath><clipPath id="361"><path id="" clip-rule="evenodd" d="M8.871E-06 841L595.32 841L595.32 841L595.32 -0.9199829L595.32 -0.9199829L8.871E-06 -0.9199829z" /></clipPath><clipPath id="362"><path id="" clip-rule="evenodd" d="M8.871E-06 841L595.32 841L595.32 841L595.32 -0.9199829L595.32 -0.9199829L8.871E-06 -0.9199829z" /></clipPath><clipPath id="363"><path id="" clip-rule="evenodd" d="M8.871E-06 841L595.32 841L595.32 841L595.32 -0.9199829L595.32 -0.9199829L8.871E-06 -0.9199829z" /></clipPath><clipPath id="364"><path id="" clip-rule="evenodd" d="M8.871E-06 841L595.32 841L595.32 841L595.32 -0.9199829L595.32 -0.9199829L8.871E-06 -0.9199829z" /></clipPath><clipPath id="365"><path id="" clip-rule="evenodd" d="M8.871E-06 841L595.32 841L595.32 841L595.32 -0.9199829L595.32 -0.9199829L8.871E-06 -0.9199829z" /></clipPath><clipPath id="366"><path id="" clip-rule="evenodd" d="M8.871E-06 841L595.32 841L595.32 841L595.32 -0.9199829L595.32 -0.9199829L8.871E-06 -0.9199829z" /></clipPath><clipPath id="367"><path id="" clip-rule="evenodd" d="M8.871E-06 841L595.32 841L595.32 841L595.32 -0.9199829L595.32 -0.9199829L8.871E-06 -0.9199829z" /></clipPath><clipPath id="368"><path id="" clip-rule="evenodd" d="M8.871E-06 841L595.32 841L595.32 841L595.32 -0.9199829L595.32 -0.9199829L8.871E-06 -0.9199829z" /></clipPath><clipPath id="369"><path id="" clip-rule="evenodd" d="M8.871E-06 841L595.32 841L595.32 841L595.32 -0.9199829L595.32 -0.9199829L8.871E-06 -0.9199829z" /></clipPath><clipPath id="370"><path id="" clip-rule="evenodd" d="M8.871E-06 841L595.32 841L595.32 841L595.32 -0.9199829L595.32 -0.9199829L8.871E-06 -0.9199829z" /></clipPath><clipPath id="371"><path id="" clip-rule="evenodd" d="M8.871E-06 841L595.32 841L595.32 841L595.32 -0.9199829L595.32 -0.9199829L8.871E-06 -0.9199829z" /></clipPath><clipPath id="372"><path id="" clip-rule="evenodd" d="M8.871E-06 841L595.32 841L595.32 841L595.32 -0.9199829L595.32 -0.9199829L8.871E-06 -0.9199829z" /></clipPath><clipPath id="373"><path id="" clip-rule="evenodd" d="M8.871E-06 841L595.32 841L595.32 841L595.32 -0.9199829L595.32 -0.9199829L8.871E-06 -0.9199829z" /></clipPath><clipPath id="374"><path id="" clip-rule="evenodd" d="M8.871E-06 841L595.32 841L595.32 841L595.32 -0.9199829L595.32 -0.9199829L8.871E-06 -0.9199829z" /></clipPath><clipPath id="375"><path id="" clip-rule="evenodd" d="M8.871E-06 841L595.32 841L595.32 841L595.32 -0.9199829L595.32 -0.9199829L8.871E-06 -0.9199829z" /></clipPath><clipPath id="376"><path id="" clip-rule="evenodd" d="M8.871E-06 841L595.32 841L595.32 841L595.32 -0.9199829L595.32 -0.9199829L8.871E-06 -0.9199829z" /></clipPath><clipPath id="377"><path id="" clip-rule="evenodd" d="M8.871E-06 841L595.32 841L595.32 841L595.32 -0.9199829L595.32 -0.9199829L8.871E-06 -0.9199829z" /></clipPath><clipPath id="378"><path id="" clip-rule="evenodd" d="M8.871E-06 841L595.32 841L595.32 841L595.32 -0.9199829L595.32 -0.9199829L8.871E-06 -0.9199829z" /></clipPath><clipPath id="379"><path id="" clip-rule="evenodd" d="M8.871E-06 841L595.32 841L595.32 841L595.32 -0.9199829L595.32 -0.9199829L8.871E-06 -0.9199829z" /></clipPath><clipPath id="380"><path id="" clip-rule="evenodd" d="M8.871E-06 841L595.32 841L595.32 841L595.32 -0.9199829L595.32 -0.9199829L8.871E-06 -0.9199829z" /></clipPath><clipPath id="381"><path id="" clip-rule="evenodd" d="M8.871E-06 841L595.32 841L595.32 841L595.32 -0.9199829L595.32 -0.9199829L8.871E-06 -0.9199829z" /></clipPath><clipPath id="382"><path id="" clip-rule="evenodd" d="M8.871E-06 841L595.32 841L595.32 841L595.32 -0.9199829L595.32 -0.9199829L8.871E-06 -0.9199829z" /></clipPath><clipPath id="383"><path id="" clip-rule="evenodd" d="M8.871E-06 841L595.32 841L595.32 841L595.32 -0.9199829L595.32 -0.9199829L8.871E-06 -0.9199829z" /></clipPath><clipPath id="384"><path id="" clip-rule="evenodd" d="M8.871E-06 841L595.32 841L595.32 841L595.32 -0.9199829L595.32 -0.9199829L8.871E-06 -0.9199829z" /></clipPath><clipPath id="385"><path id="" clip-rule="evenodd" d="M8.871E-06 841L595.32 841L595.32 841L595.32 -0.9199829L595.32 -0.9199829L8.871E-06 -0.9199829z" /></clipPath><clipPath id="386"><path id="" clip-rule="evenodd" d="M8.871E-06 841L595.32 841L595.32 841L595.32 -0.9199829L595.32 -0.9199829L8.871E-06 -0.9199829z" /></clipPath><clipPath id="387"><path id="" clip-rule="evenodd" d="M8.871E-06 841L595.32 841L595.32 841L595.32 -0.9199829L595.32 -0.9199829L8.871E-06 -0.9199829z" /></clipPath><clipPath id="388"><path id="" clip-rule="evenodd" d="M8.871E-06 841L595.32 841L595.32 841L595.32 -0.9199829L595.32 -0.9199829L8.871E-06 -0.9199829z" /></clipPath><clipPath id="389"><path id="" clip-rule="evenodd" d="M8.871E-06 841L595.32 841L595.32 841L595.32 -0.9199829L595.32 -0.9199829L8.871E-06 -0.9199829z" /></clipPath><clipPath id="390"><path id="" clip-rule="evenodd" d="M8.871E-06 841L595.32 841L595.32 841L595.32 -0.9199829L595.32 -0.9199829L8.871E-06 -0.9199829z" /></clipPath><clipPath id="391"><path id="" clip-rule="evenodd" d="M8.871E-06 841L595.32 841L595.32 841L595.32 -0.9199829L595.32 -0.9199829L8.871E-06 -0.9199829z" /></clipPath><clipPath id="392"><path id="" clip-rule="evenodd" d="M8.871E-06 841L595.32 841L595.32 841L595.32 -0.9199829L595.32 -0.9199829L8.871E-06 -0.9199829z" /></clipPath><clipPath id="393"><path id="" clip-rule="evenodd" d="M8.871E-06 841L595.32 841L595.32 841L595.32 -0.9199829L595.32 -0.9199829L8.871E-06 -0.9199829z" /></clipPath><clipPath id="394"><path id="" clip-rule="evenodd" d="M8.871E-06 841L595.32 841L595.32 841L595.32 -0.9199829L595.32 -0.9199829L8.871E-06 -0.9199829z" /></clipPath></defs><g transform="matrix(1.333333 0 0 1.333333 0 0)"><g clip-path="url(#1)"><g clip-path="url(#2)"><path id="1" transform="matrix(1 0 0 -1 0 841)" d="M0 -0.13L595.45 -0.13L595.45 -0.13L595.45 841.92L595.45 841.92L0 841.92z" stroke="none" fill="#F5F1DE" fill-rule="evenodd" /></g><g clip-path="url(#3)"></g><g clip-path="url(#4)"></g><g clip-path="url(#5)"></g><path id="12" transform="matrix(1 0 0 -1 0 841)" d="M89.9 777.72L505.45 777.72L505.45 777.72L505.45 779.27L505.45 779.27L89.9 779.27z" stroke="none" fill="#808080" fill-rule="evenodd" /><path id="13" transform="matrix(1 0 0 -1 0 841)" d="M89.904 779.04L90.144 779.04L90.144 779.04L90.144 779.28L90.144 779.28L89.904 779.28z" stroke="none" fill="#808080" fill-rule="evenodd" /><path id="14" transform="matrix(1 0 0 -1 0 841)" d="M89.904 779.04L90.144 779.04L90.144 779.04L90.144 779.28L90.144 779.28L89.904 779.28z" stroke="none" fill="#808080" fill-rule="evenodd" /><path id="15" transform="matrix(1 0 0 -1 0 841)" d="M90.144 779.04L505.324 779.04L505.324 779.04L505.324 779.28L505.324 779.28L90.144 779.28z" stroke="none" fill="#808080" fill-rule="evenodd" /><path id="16" transform="matrix(1 0 0 -1 0 841)" d="M505.32 779.04L505.56 779.04L505.56 779.04L505.56 779.28L505.56 779.28L505.32 779.28z" stroke="none" fill="#D4D0C8" fill-rule="evenodd" /><path id="17" transform="matrix(1 0 0 -1 0 841)" d="M505.32 779.04L505.56 779.04L505.56 779.04L505.56 779.28L505.56 779.28L505.32 779.28z" stroke="none" fill="#808080" fill-rule="evenodd" /><path id="18" transform="matrix(1 0 0 -1 0 841)" d="M89.904 777.96L90.144 777.96L90.144 777.96L90.144 779.04L90.144 779.04L89.904 779.04z" stroke="none" fill="#808080" fill-rule="evenodd" /><path id="19" transform="matrix(1 0 0 -1 0 841)" d="M505.32 777.96L505.56 777.96L505.56 777.96L505.56 779.04L505.56 779.04L505.32 779.04z" stroke="none" fill="#D4D0C8" fill-rule="evenodd" /><path id="20" transform="matrix(1 0 0 -1 0 841)" d="M89.904 777.72L90.144 777.72L90.144 777.72L90.144 777.96L90.144 777.96L89.904 777.96z" stroke="none" fill="#808080" fill-rule="evenodd" /><path id="21" transform="matrix(1 0 0 -1 0 841)" d="M89.904 777.72L90.144 777.72L90.144 777.72L90.144 777.96L90.144 777.96L89.904 777.96z" stroke="none" fill="#D4D0C8" fill-rule="evenodd" /><path id="22" transform="matrix(1 0 0 -1 0 841)" d="M90.144 777.72L505.324 777.72L505.324 777.72L505.324 777.96L505.324 777.96L90.144 777.96z" stroke="none" fill="#D4D0C8" fill-rule="evenodd" /><path id="23" transform="matrix(1 0 0 -1 0 841)" d="M505.32 777.72L505.56 777.72L505.56 777.72L505.56 777.96L505.56 777.96L505.32 777.96z" stroke="none" fill="#D4D0C8" fill-rule="evenodd" /><path id="24" transform="matrix(1 0 0 -1 0 841)" d="M505.32 777.72L505.56 777.72L505.56 777.72L505.56 777.96L505.56 777.96L505.32 777.96z" stroke="none" fill="#D4D0C8" fill-rule="evenodd" /><g clip-path="url(#6)"></g><g clip-path="url(#7)"></g><g clip-path="url(#8)"></g><g clip-path="url(#9)"></g><g clip-path="url(#10)"></g><g clip-path="url(#11)"></g><g clip-path="url(#12)"></g><g clip-path="url(#13)"></g><g clip-path="url(#14)"></g><g clip-path="url(#15)"></g><g clip-path="url(#16)"></g><g clip-path="url(#17)"></g><g clip-path="url(#18)"></g><g clip-path="url(#19)"></g><g clip-path="url(#20)"></g><g clip-path="url(#21)"></g><g clip-path="url(#22)"></g><g clip-path="url(#23)"></g><g clip-path="url(#24)"></g><g clip-path="url(#25)"></g><g clip-path="url(#26)"></g><g clip-path="url(#27)"></g><g clip-path="url(#28)"></g><g clip-path="url(#29)"></g><g clip-path="url(#30)"></g><g clip-path="url(#31)"></g><g clip-path="url(#32)"></g><g clip-path="url(#33)"></g><g clip-path="url(#34)"></g><g clip-path="url(#35)"></g><g clip-path="url(#36)"></g><g clip-path="url(#37)"></g><g clip-path="url(#38)"></g><g clip-path="url(#39)"></g><g clip-path="url(#40)"></g><g clip-path="url(#41)"></g><g clip-path="url(#42)"></g><g clip-path="url(#43)"></g><g clip-path="url(#44)"></g><g clip-path="url(#45)"></g><g clip-path="url(#46)"></g><g clip-path="url(#47)"></g><g clip-path="url(#48)"></g><g clip-path="url(#49)"></g><g clip-path="url(#50)"></g><g clip-path="url(#51)"></g><g clip-path="url(#52)"></g><g clip-path="url(#53)"></g><g clip-path="url(#54)"></g><g clip-path="url(#55)"></g><g clip-path="url(#56)"></g><g clip-path="url(#57)"></g><g clip-path="url(#58)"></g><g clip-path="url(#59)"></g><g clip-path="url(#60)"></g><g clip-path="url(#61)"></g><g clip-path="url(#62)"></g><g clip-path="url(#63)"></g><g clip-path="url(#64)"></g><g clip-path="url(#65)"></g><g clip-path="url(#66)"></g><g clip-path="url(#67)"><g clip-path="url(#68)"><path id="349" transform="matrix(1 0 0 -1 0 841)" d="M244.7807 674.2932L296.5632 674.2932" stroke="#000000" stroke-width="0.4993215" fill="none" /><path id="350" transform="matrix(1 0 0 -1 0 841)" d="M308.7428 674.2932L357.1812 674.2932" stroke="#000000" stroke-width="0.4993215" fill="none" /><path id="351" transform="matrix(1 0 0 -1 0 841)" d="M369.3608 674.2932L418.2488 674.2932" stroke="#000000" stroke-width="0.4993215" fill="none" /><path id="352" transform="matrix(1 0 0 -1 0 841)" d="M252.7408 632.951L308.493 632.951" stroke="#000000" stroke-width="0.4993215" fill="none" /><path id="353" transform="matrix(1 0 0 -1 0 841)" d="M320.6526 632.951L373.0776 632.951" stroke="#000000" stroke-width="0.4993215" fill="none" /><path id="354" transform="matrix(1 0 0 -1 0 841)" d="M385.2671 632.951L438.1218 632.951" stroke="#000000" stroke-width="0.4993215" fill="none" /></g></g><g clip-path="url(#69)"></g><g clip-path="url(#70)"></g><g clip-path="url(#71)"></g><g clip-path="url(#72)"></g><g clip-path="url(#73)"></g><g clip-path="url(#74)"></g><g clip-path="url(#75)"></g><g clip-path="url(#76)"></g><g clip-path="url(#77)"></g><g clip-path="url(#78)"></g><g clip-path="url(#79)"></g><g clip-path="url(#80)"></g><g clip-path="url(#81)"></g><g clip-path="url(#82)"></g><g clip-path="url(#83)"></g><g clip-path="url(#84)"></g><g clip-path="url(#85)"></g><g clip-path="url(#86)"></g><g clip-path="url(#87)"></g><g clip-path="url(#88)"></g><g clip-path="url(#89)"></g><g clip-path="url(#90)"></g><g clip-path="url(#91)"></g><g clip-path="url(#92)"></g><g clip-path="url(#93)"></g><g clip-path="url(#94)"></g><g clip-path="url(#95)"></g><g clip-path="url(#96)"></g><g clip-path="url(#97)"></g><g clip-path="url(#98)"></g><g clip-path="url(#99)"></g><g clip-path="url(#100)"></g><g clip-path="url(#101)"></g><g clip-path="url(#102)"></g><g clip-path="url(#103)"></g><g clip-path="url(#104)"></g><g clip-path="url(#105)"></g><g clip-path="url(#106)"></g><g clip-path="url(#107)"></g><g clip-path="url(#108)"></g><g clip-path="url(#109)"></g><g clip-path="url(#110)"></g><g clip-path="url(#111)"></g><g clip-path="url(#112)"></g><g clip-path="url(#113)"></g><g clip-path="url(#114)"></g><g clip-path="url(#115)"></g><g clip-path="url(#116)"></g><g clip-path="url(#117)"></g><g clip-path="url(#118)"></g><g clip-path="url(#119)"></g><g clip-path="url(#120)"></g><g clip-path="url(#121)"></g><g clip-path="url(#122)"></g><g clip-path="url(#123)"></g><g clip-path="url(#124)"></g><g clip-path="url(#125)"></g><g clip-path="url(#126)"></g><g clip-path="url(#127)"></g><g clip-path="url(#128)"></g><g clip-path="url(#129)"></g><g clip-path="url(#130)"></g><g clip-path="url(#131)"></g><g clip-path="url(#132)"></g><g clip-path="url(#133)"></g><g clip-path="url(#134)"></g><g clip-path="url(#135)"></g><g clip-path="url(#136)"></g><g clip-path="url(#137)"></g><g clip-path="url(#138)"></g><g clip-path="url(#139)"></g><g clip-path="url(#140)"></g><g clip-path="url(#141)"></g><g clip-path="url(#142)"></g><g clip-path="url(#143)"></g><g clip-path="url(#144)"><g clip-path="url(#145)"></g><g clip-path="url(#146)"></g></g><g clip-path="url(#147)"><g clip-path="url(#148)"></g><g clip-path="url(#149)"></g></g><path id="1109" transform="matrix(1 0 0 -1 0 841)" d="M140.3 467.59L140.78 467.59L140.78 467.59L140.78 468.07L140.78 468.07L140.3 468.07z" stroke="none" fill="#000000" fill-rule="evenodd" /><path id="1110" transform="matrix(1 0 0 -1 0 841)" d="M140.3 467.59L140.78 467.59L140.78 467.59L140.78 468.07L140.78 468.07L140.3 468.07z" stroke="none" fill="#000000" fill-rule="evenodd" /><path id="1111" transform="matrix(1 0 0 -1 0 841)" d="M140.78 467.59L252.28 467.59L252.28 467.59L252.28 468.07L252.28 468.07L140.78 468.07z" stroke="none" fill="#000000" fill-rule="evenodd" /><path id="1112" transform="matrix(1 0 0 -1 0 841)" d="M252.29 467.59L252.77 467.59L252.77 467.59L252.77 468.07L252.77 468.07L252.29 468.07z" stroke="none" fill="#000000" fill-rule="evenodd" /><path id="1113" transform="matrix(1 0 0 -1 0 841)" d="M252.77 467.59L452.38 467.59L452.38 467.59L452.38 468.07L452.38 468.07L252.77 468.07z" stroke="none" fill="#000000" fill-rule="evenodd" /><path id="1114" transform="matrix(1 0 0 -1 0 841)" d="M452.38 467.59L452.86 467.59L452.86 467.59L452.86 468.07L452.86 468.07L452.38 468.07z" stroke="none" fill="#000000" fill-rule="evenodd" /><path id="1115" transform="matrix(1 0 0 -1 0 841)" d="M452.38 467.59L452.86 467.59L452.86 467.59L452.86 468.07L452.86 468.07L452.38 468.07z" stroke="none" fill="#000000" fill-rule="evenodd" /><path id="1116" transform="matrix(1 0 0 -1 0 841)" d="M140.3 451.99L140.78 451.99L140.78 451.99L140.78 467.59L140.78 467.59L140.3 467.59z" stroke="none" fill="#000000" fill-rule="evenodd" /><path id="1117" transform="matrix(1 0 0 -1 0 841)" d="M252.29 451.99L252.77 451.99L252.77 451.99L252.77 467.59L252.77 467.59L252.29 467.59z" stroke="none" fill="#000000" fill-rule="evenodd" /><path id="1118" transform="matrix(1 0 0 -1 0 841)" d="M452.38 451.99L452.86 451.99L452.86 451.99L452.86 467.59L452.86 467.59L452.38 467.59z" stroke="none" fill="#000000" fill-rule="evenodd" /><g clip-path="url(#150)"><g clip-path="url(#151)"></g><g clip-path="url(#152)"></g></g><g clip-path="url(#153)"><g clip-path="url(#154)"></g><g clip-path="url(#155)"></g><g clip-path="url(#156)"></g></g><g clip-path="url(#157)"><g clip-path="url(#158)"></g><g clip-path="url(#159)"></g></g><g clip-path="url(#160)"><g clip-path="url(#161)"></g><g clip-path="url(#162)"></g><g clip-path="url(#163)"></g></g><path id="1125" transform="matrix(1 0 0 -1 0 841)" d="M140.3 451.51L140.78 451.51L140.78 451.51L140.78 451.99L140.78 451.99L140.3 451.99z" stroke="none" fill="#000000" fill-rule="evenodd" /><path id="1126" transform="matrix(1 0 0 -1 0 841)" d="M252.29 451.51L252.77 451.51L252.77 451.51L252.77 451.99L252.77 451.99L252.29 451.99z" stroke="none" fill="#000000" fill-rule="evenodd" /><path id="1127" transform="matrix(1 0 0 -1 0 841)" d="M252.77 451.51L302.354 451.51L302.354 451.51L302.354 451.99L302.354 451.99L252.77 451.99z" stroke="none" fill="#000000" fill-rule="evenodd" /><path id="1128" transform="matrix(1 0 0 -1 0 841)" d="M302.35 451.51L302.83 451.51L302.83 451.51L302.83 451.99L302.83 451.99L302.35 451.99z" stroke="none" fill="#000000" fill-rule="evenodd" /><path id="1129" transform="matrix(1 0 0 -1 0 841)" d="M302.83 451.51L374.35 451.51L374.35 451.51L374.35 451.99L374.35 451.99L302.83 451.99z" stroke="none" fill="#000000" fill-rule="evenodd" /><path id="1130" transform="matrix(1 0 0 -1 0 841)" d="M374.35 451.51L374.83 451.51L374.83 451.51L374.83 451.99L374.83 451.99L374.35 451.99z" stroke="none" fill="#000000" fill-rule="evenodd" /><path id="1131" transform="matrix(1 0 0 -1 0 841)" d="M374.83 451.51L402.334 451.51L402.334 451.51L402.334 451.99L402.334 451.99L374.83 451.99z" stroke="none" fill="#000000" fill-rule="evenodd" /><path id="1132" transform="matrix(1 0 0 -1 0 841)" d="M402.34 451.51L402.82 451.51L402.82 451.51L402.82 451.99L402.82 451.99L402.34 451.99z" stroke="none" fill="#000000" fill-rule="evenodd" /><path id="1133" transform="matrix(1 0 0 -1 0 841)" d="M402.82 451.51L452.38 451.51L452.38 451.51L452.38 451.99L452.38 451.99L402.82 451.99z" stroke="none" fill="#000000" fill-rule="evenodd" /><path id="1134" transform="matrix(1 0 0 -1 0 841)" d="M452.38 451.51L452.86 451.51L452.86 451.51L452.86 451.99L452.86 451.99L452.38 451.99z" stroke="none" fill="#000000" fill-rule="evenodd" /><path id="1135" transform="matrix(1 0 0 -1 0 841)" d="M140.3 435.91L140.78 435.91L140.78 435.91L140.78 451.51L140.78 451.51L140.3 451.51z" stroke="none" fill="#000000" fill-rule="evenodd" /><path id="1136" transform="matrix(1 0 0 -1 0 841)" d="M252.29 435.91L252.77 435.91L252.77 435.91L252.77 451.51L252.77 451.51L252.29 451.51z" stroke="none" fill="#000000" fill-rule="evenodd" /><path id="1137" transform="matrix(1 0 0 -1 0 841)" d="M302.35 435.91L302.83 435.91L302.83 435.91L302.83 451.51L302.83 451.51L302.35 451.51z" stroke="none" fill="#000000" fill-rule="evenodd" /><path id="1138" transform="matrix(1 0 0 -1 0 841)" d="M374.35 435.91L374.83 435.91L374.83 435.91L374.83 451.51L374.83 451.51L374.35 451.51z" stroke="none" fill="#000000" fill-rule="evenodd" /><path id="1139" transform="matrix(1 0 0 -1 0 841)" d="M402.34 435.91L402.82 435.91L402.82 435.91L402.82 451.51L402.82 451.51L402.34 451.51z" stroke="none" fill="#000000" fill-rule="evenodd" /><path id="1140" transform="matrix(1 0 0 -1 0 841)" d="M452.38 435.91L452.86 435.91L452.86 435.91L452.86 451.51L452.86 451.51L452.38 451.51z" stroke="none" fill="#000000" fill-rule="evenodd" /><g clip-path="url(#164)"><g clip-path="url(#165)"></g><g clip-path="url(#166)"></g></g><g clip-path="url(#167)"><g clip-path="url(#168)"></g><g clip-path="url(#169)"></g></g><g clip-path="url(#170)"><g clip-path="url(#171)"></g><g clip-path="url(#172)"></g></g><g clip-path="url(#173)"><g clip-path="url(#174)"></g><g clip-path="url(#175)"></g></g><g clip-path="url(#176)"><g clip-path="url(#177)"></g><g clip-path="url(#178)"></g></g><path id="1167" transform="matrix(1 0 0 -1 0 841)" d="M140.3 435.43L140.78 435.43L140.78 435.43L140.78 435.91L140.78 435.91L140.3 435.91z" stroke="none" fill="#000000" fill-rule="evenodd" /><path id="1168" transform="matrix(1 0 0 -1 0 841)" d="M140.78 435.43L252.28 435.43L252.28 435.43L252.28 435.91L252.28 435.91L140.78 435.91z" stroke="none" fill="#000000" fill-rule="evenodd" /><path id="1169" transform="matrix(1 0 0 -1 0 841)" d="M252.29 435.43L252.77 435.43L252.77 435.43L252.77 435.91L252.77 435.91L252.29 435.91z" stroke="none" fill="#000000" fill-rule="evenodd" /><path id="1170" transform="matrix(1 0 0 -1 0 841)" d="M252.77 435.43L302.354 435.43L302.354 435.43L302.354 435.91L302.354 435.91L252.77 435.91z" stroke="none" fill="#000000" fill-rule="evenodd" /><path id="1171" transform="matrix(1 0 0 -1 0 841)" d="M302.35 435.43L302.83 435.43L302.83 435.43L302.83 435.91L302.83 435.91L302.35 435.91z" stroke="none" fill="#000000" fill-rule="evenodd" /><path id="1172" transform="matrix(1 0 0 -1 0 841)" d="M302.83 435.43L374.35 435.43L374.35 435.43L374.35 435.91L374.35 435.91L302.83 435.91z" stroke="none" fill="#000000" fill-rule="evenodd" /><path id="1173" transform="matrix(1 0 0 -1 0 841)" d="M374.35 435.43L374.83 435.43L374.83 435.43L374.83 435.91L374.83 435.91L374.35 435.91z" stroke="none" fill="#000000" fill-rule="evenodd" /><path id="1174" transform="matrix(1 0 0 -1 0 841)" d="M374.83 435.43L402.334 435.43L402.334 435.43L402.334 435.91L402.334 435.91L374.83 435.91z" stroke="none" fill="#000000" fill-rule="evenodd" /><path id="1175" transform="matrix(1 0 0 -1 0 841)" d="M402.34 435.43L402.82 435.43L402.82 435.43L402.82 435.91L402.82 435.91L402.34 435.91z" stroke="none" fill="#000000" fill-rule="evenodd" /><path id="1176" transform="matrix(1 0 0 -1 0 841)" d="M402.82 435.43L452.38 435.43L452.38 435.43L452.38 435.91L452.38 435.91L402.82 435.91z" stroke="none" fill="#000000" fill-rule="evenodd" /><path id="1177" transform="matrix(1 0 0 -1 0 841)" d="M452.38 435.43L452.86 435.43L452.86 435.43L452.86 435.91L452.86 435.91L452.38 435.91z" stroke="none" fill="#000000" fill-rule="evenodd" /><path id="1178" transform="matrix(1 0 0 -1 0 841)" d="M140.3 419.83L140.78 419.83L140.78 419.83L140.78 435.43L140.78 435.43L140.3 435.43z" stroke="none" fill="#000000" fill-rule="evenodd" /><path id="1179" transform="matrix(1 0 0 -1 0 841)" d="M252.29 419.83L252.77 419.83L252.77 419.83L252.77 435.43L252.77 435.43L252.29 435.43z" stroke="none" fill="#000000" fill-rule="evenodd" /><path id="1180" transform="matrix(1 0 0 -1 0 841)" d="M302.35 419.83L302.83 419.83L302.83 419.83L302.83 435.43L302.83 435.43L302.35 435.43z" stroke="none" fill="#000000" fill-rule="evenodd" /><path id="1181" transform="matrix(1 0 0 -1 0 841)" d="M374.35 419.83L374.83 419.83L374.83 419.83L374.83 435.43L374.83 435.43L374.35 435.43z" stroke="none" fill="#000000" fill-rule="evenodd" /><path id="1182" transform="matrix(1 0 0 -1 0 841)" d="M402.34 419.83L402.82 419.83L402.82 419.83L402.82 435.43L402.82 435.43L402.34 435.43z" stroke="none" fill="#000000" fill-rule="evenodd" /><path id="1183" transform="matrix(1 0 0 -1 0 841)" d="M452.38 419.83L452.86 419.83L452.86 419.83L452.86 435.43L452.86 435.43L452.38 435.43z" stroke="none" fill="#000000" fill-rule="evenodd" /><g clip-path="url(#179)"><g clip-path="url(#180)"></g><g clip-path="url(#181)"></g></g><g clip-path="url(#182)"><g clip-path="url(#183)"></g><g clip-path="url(#184)"></g></g><g clip-path="url(#185)"><g clip-path="url(#186)"></g><g clip-path="url(#187)"></g></g><g clip-path="url(#188)"><g clip-path="url(#189)"></g><g clip-path="url(#190)"></g></g><g clip-path="url(#191)"><g clip-path="url(#192)"></g><g clip-path="url(#193)"></g></g><path id="1209" transform="matrix(1 0 0 -1 0 841)" d="M140.3 419.35L140.78 419.35L140.78 419.35L140.78 419.83L140.78 419.83L140.3 419.83z" stroke="none" fill="#000000" fill-rule="evenodd" /><path id="1210" transform="matrix(1 0 0 -1 0 841)" d="M140.78 419.35L252.28 419.35L252.28 419.35L252.28 419.83L252.28 419.83L140.78 419.83z" stroke="none" fill="#000000" fill-rule="evenodd" /><path id="1211" transform="matrix(1 0 0 -1 0 841)" d="M252.29 419.35L252.77 419.35L252.77 419.35L252.77 419.83L252.77 419.83L252.29 419.83z" stroke="none" fill="#000000" fill-rule="evenodd" /><path id="1212" transform="matrix(1 0 0 -1 0 841)" d="M252.77 419.35L302.354 419.35L302.354 419.35L302.354 419.83L302.354 419.83L252.77 419.83z" stroke="none" fill="#000000" fill-rule="evenodd" /><path id="1213" transform="matrix(1 0 0 -1 0 841)" d="M302.35 419.35L302.83 419.35L302.83 419.35L302.83 419.83L302.83 419.83L302.35 419.83z" stroke="none" fill="#000000" fill-rule="evenodd" /><path id="1214" transform="matrix(1 0 0 -1 0 841)" d="M302.83 419.35L374.35 419.35L374.35 419.35L374.35 419.83L374.35 419.83L302.83 419.83z" stroke="none" fill="#000000" fill-rule="evenodd" /><path id="1215" transform="matrix(1 0 0 -1 0 841)" d="M374.35 419.35L374.83 419.35L374.83 419.35L374.83 419.83L374.83 419.83L374.35 419.83z" stroke="none" fill="#000000" fill-rule="evenodd" /><path id="1216" transform="matrix(1 0 0 -1 0 841)" d="M374.83 419.35L402.334 419.35L402.334 419.35L402.334 419.83L402.334 419.83L374.83 419.83z" stroke="none" fill="#000000" fill-rule="evenodd" /><path id="1217" transform="matrix(1 0 0 -1 0 841)" d="M402.34 419.35L402.82 419.35L402.82 419.35L402.82 419.83L402.82 419.83L402.34 419.83z" stroke="none" fill="#000000" fill-rule="evenodd" /><path id="1218" transform="matrix(1 0 0 -1 0 841)" d="M402.82 419.35L452.38 419.35L452.38 419.35L452.38 419.83L452.38 419.83L402.82 419.83z" stroke="none" fill="#000000" fill-rule="evenodd" /><path id="1219" transform="matrix(1 0 0 -1 0 841)" d="M452.38 419.35L452.86 419.35L452.86 419.35L452.86 419.83L452.86 419.83L452.38 419.83z" stroke="none" fill="#000000" fill-rule="evenodd" /><path id="1220" transform="matrix(1 0 0 -1 0 841)" d="M140.3 403.61L140.78 403.61L140.78 403.61L140.78 419.354L140.78 419.354L140.3 419.354z" stroke="none" fill="#000000" fill-rule="evenodd" /><path id="1221" transform="matrix(1 0 0 -1 0 841)" d="M252.29 403.61L252.77 403.61L252.77 403.61L252.77 419.354L252.77 419.354L252.29 419.354z" stroke="none" fill="#000000" fill-rule="evenodd" /><path id="1222" transform="matrix(1 0 0 -1 0 841)" d="M302.35 403.61L302.83 403.61L302.83 403.61L302.83 419.354L302.83 419.354L302.35 419.354z" stroke="none" fill="#000000" fill-rule="evenodd" /><path id="1223" transform="matrix(1 0 0 -1 0 841)" d="M374.35 403.61L374.83 403.61L374.83 403.61L374.83 419.354L374.83 419.354L374.35 419.354z" stroke="none" fill="#000000" fill-rule="evenodd" /><path id="1224" transform="matrix(1 0 0 -1 0 841)" d="M402.34 403.61L402.82 403.61L402.82 403.61L402.82 419.354L402.82 419.354L402.34 419.354z" stroke="none" fill="#000000" fill-rule="evenodd" /><path id="1225" transform="matrix(1 0 0 -1 0 841)" d="M452.38 403.61L452.86 403.61L452.86 403.61L452.86 419.354L452.86 419.354L452.38 419.354z" stroke="none" fill="#000000" fill-rule="evenodd" /><g clip-path="url(#194)"><g clip-path="url(#195)"></g><g clip-path="url(#196)"></g><g clip-path="url(#197)"></g><g clip-path="url(#198)"></g><g clip-path="url(#199)"></g></g><g clip-path="url(#200)"><g clip-path="url(#201)"></g><g clip-path="url(#202)"></g></g><g clip-path="url(#203)"><g clip-path="url(#204)"></g><g clip-path="url(#205)"></g></g><g clip-path="url(#206)"><g clip-path="url(#207)"></g><g clip-path="url(#208)"></g></g><g clip-path="url(#209)"><g clip-path="url(#210)"></g><g clip-path="url(#211)"></g></g><path id="1256" transform="matrix(1 0 0 -1 0 841)" d="M140.3 403.13L140.78 403.13L140.78 403.13L140.78 403.61L140.78 403.61L140.3 403.61z" stroke="none" fill="#000000" fill-rule="evenodd" /><path id="1257" transform="matrix(1 0 0 -1 0 841)" d="M140.78 403.13L252.28 403.13L252.28 403.13L252.28 403.61L252.28 403.61L140.78 403.61z" stroke="none" fill="#000000" fill-rule="evenodd" /><path id="1258" transform="matrix(1 0 0 -1 0 841)" d="M252.29 403.13L252.77 403.13L252.77 403.13L252.77 403.61L252.77 403.61L252.29 403.61z" stroke="none" fill="#000000" fill-rule="evenodd" /><path id="1259" transform="matrix(1 0 0 -1 0 841)" d="M252.77 403.13L302.354 403.13L302.354 403.13L302.354 403.61L302.354 403.61L252.77 403.61z" stroke="none" fill="#000000" fill-rule="evenodd" /><path id="1260" transform="matrix(1 0 0 -1 0 841)" d="M302.35 403.13L302.83 403.13L302.83 403.13L302.83 403.61L302.83 403.61L302.35 403.61z" stroke="none" fill="#000000" fill-rule="evenodd" /><path id="1261" transform="matrix(1 0 0 -1 0 841)" d="M302.83 403.13L374.35 403.13L374.35 403.13L374.35 403.61L374.35 403.61L302.83 403.61z" stroke="none" fill="#000000" fill-rule="evenodd" /><path id="1262" transform="matrix(1 0 0 -1 0 841)" d="M374.35 403.13L374.83 403.13L374.83 403.13L374.83 403.61L374.83 403.61L374.35 403.61z" stroke="none" fill="#000000" fill-rule="evenodd" /><path id="1263" transform="matrix(1 0 0 -1 0 841)" d="M374.83 403.13L402.334 403.13L402.334 403.13L402.334 403.61L402.334 403.61L374.83 403.61z" stroke="none" fill="#000000" fill-rule="evenodd" /><path id="1264" transform="matrix(1 0 0 -1 0 841)" d="M402.34 403.13L402.82 403.13L402.82 403.13L402.82 403.61L402.82 403.61L402.34 403.61z" stroke="none" fill="#000000" fill-rule="evenodd" /><path id="1265" transform="matrix(1 0 0 -1 0 841)" d="M402.82 403.13L452.38 403.13L452.38 403.13L452.38 403.61L452.38 403.61L402.82 403.61z" stroke="none" fill="#000000" fill-rule="evenodd" /><path id="1266" transform="matrix(1 0 0 -1 0 841)" d="M452.38 403.13L452.86 403.13L452.86 403.13L452.86 403.61L452.86 403.61L452.38 403.61z" stroke="none" fill="#000000" fill-rule="evenodd" /><path id="1267" transform="matrix(1 0 0 -1 0 841)" d="M140.3 387.53L140.78 387.53L140.78 387.53L140.78 403.13L140.78 403.13L140.3 403.13z" stroke="none" fill="#000000" fill-rule="evenodd" /><path id="1268" transform="matrix(1 0 0 -1 0 841)" d="M252.29 387.53L252.77 387.53L252.77 387.53L252.77 403.13L252.77 403.13L252.29 403.13z" stroke="none" fill="#000000" fill-rule="evenodd" /><path id="1269" transform="matrix(1 0 0 -1 0 841)" d="M302.35 387.53L302.83 387.53L302.83 387.53L302.83 403.13L302.83 403.13L302.35 403.13z" stroke="none" fill="#000000" fill-rule="evenodd" /><path id="1270" transform="matrix(1 0 0 -1 0 841)" d="M374.35 387.53L374.83 387.53L374.83 387.53L374.83 403.13L374.83 403.13L374.35 403.13z" stroke="none" fill="#000000" fill-rule="evenodd" /><path id="1271" transform="matrix(1 0 0 -1 0 841)" d="M402.34 387.53L402.82 387.53L402.82 387.53L402.82 403.13L402.82 403.13L402.34 403.13z" stroke="none" fill="#000000" fill-rule="evenodd" /><path id="1272" transform="matrix(1 0 0 -1 0 841)" d="M452.38 387.53L452.86 387.53L452.86 387.53L452.86 403.13L452.86 403.13L452.38 403.13z" stroke="none" fill="#000000" fill-rule="evenodd" /><g clip-path="url(#212)"><g clip-path="url(#213)"></g><g clip-path="url(#214)"></g><g clip-path="url(#215)"></g></g><g clip-path="url(#216)"><g clip-path="url(#217)"></g><g clip-path="url(#218)"></g></g><g clip-path="url(#219)"><g clip-path="url(#220)"></g><g clip-path="url(#221)"></g><g clip-path="url(#222)"></g></g><g clip-path="url(#223)"><g clip-path="url(#224)"></g><g clip-path="url(#225)"></g></g><g clip-path="url(#226)"><g clip-path="url(#227)"></g><g clip-path="url(#228)"></g></g><path id="1297" transform="matrix(1 0 0 -1 0 841)" d="M140.3 387.05L140.78 387.05L140.78 387.05L140.78 387.53L140.78 387.53L140.3 387.53z" stroke="none" fill="#000000" fill-rule="evenodd" /><path id="1298" transform="matrix(1 0 0 -1 0 841)" d="M140.78 387.05L252.28 387.05L252.28 387.05L252.28 387.53L252.28 387.53L140.78 387.53z" stroke="none" fill="#000000" fill-rule="evenodd" /><path id="1299" transform="matrix(1 0 0 -1 0 841)" d="M252.29 387.05L252.77 387.05L252.77 387.05L252.77 387.53L252.77 387.53L252.29 387.53z" stroke="none" fill="#000000" fill-rule="evenodd" /><path id="1300" transform="matrix(1 0 0 -1 0 841)" d="M252.77 387.05L302.354 387.05L302.354 387.05L302.354 387.53L302.354 387.53L252.77 387.53z" stroke="none" fill="#000000" fill-rule="evenodd" /><path id="1301" transform="matrix(1 0 0 -1 0 841)" d="M302.35 387.05L302.83 387.05L302.83 387.05L302.83 387.53L302.83 387.53L302.35 387.53z" stroke="none" fill="#000000" fill-rule="evenodd" /><path id="1302" transform="matrix(1 0 0 -1 0 841)" d="M302.83 387.05L374.35 387.05L374.35 387.05L374.35 387.53L374.35 387.53L302.83 387.53z" stroke="none" fill="#000000" fill-rule="evenodd" /><path id="1303" transform="matrix(1 0 0 -1 0 841)" d="M374.35 387.05L374.83 387.05L374.83 387.05L374.83 387.53L374.83 387.53L374.35 387.53z" stroke="none" fill="#000000" fill-rule="evenodd" /><path id="1304" transform="matrix(1 0 0 -1 0 841)" d="M374.83 387.05L402.334 387.05L402.334 387.05L402.334 387.53L402.334 387.53L374.83 387.53z" stroke="none" fill="#000000" fill-rule="evenodd" /><path id="1305" transform="matrix(1 0 0 -1 0 841)" d="M402.34 387.05L402.82 387.05L402.82 387.05L402.82 387.53L402.82 387.53L402.34 387.53z" stroke="none" fill="#000000" fill-rule="evenodd" /><path id="1306" transform="matrix(1 0 0 -1 0 841)" d="M402.82 387.05L452.38 387.05L452.38 387.05L452.38 387.53L452.38 387.53L402.82 387.53z" stroke="none" fill="#000000" fill-rule="evenodd" /><path id="1307" transform="matrix(1 0 0 -1 0 841)" d="M452.38 387.05L452.86 387.05L452.86 387.05L452.86 387.53L452.86 387.53L452.38 387.53z" stroke="none" fill="#000000" fill-rule="evenodd" /><path id="1308" transform="matrix(1 0 0 -1 0 841)" d="M140.3 371.45L140.78 371.45L140.78 371.45L140.78 387.05L140.78 387.05L140.3 387.05z" stroke="none" fill="#000000" fill-rule="evenodd" /><path id="1309" transform="matrix(1 0 0 -1 0 841)" d="M140.3 370.97L140.78 370.97L140.78 370.97L140.78 371.45L140.78 371.45L140.3 371.45z" stroke="none" fill="#000000" fill-rule="evenodd" /><path id="1310" transform="matrix(1 0 0 -1 0 841)" d="M140.3 370.97L140.78 370.97L140.78 370.97L140.78 371.45L140.78 371.45L140.3 371.45z" stroke="none" fill="#000000" fill-rule="evenodd" /><path id="1311" transform="matrix(1 0 0 -1 0 841)" d="M140.78 370.97L252.28 370.97L252.28 370.97L252.28 371.45L252.28 371.45L140.78 371.45z" stroke="none" fill="#000000" fill-rule="evenodd" /><path id="1312" transform="matrix(1 0 0 -1 0 841)" d="M252.29 371.45L252.77 371.45L252.77 371.45L252.77 387.05L252.77 387.05L252.29 387.05z" stroke="none" fill="#000000" fill-rule="evenodd" /><path id="1313" transform="matrix(1 0 0 -1 0 841)" d="M252.29 370.97L252.77 370.97L252.77 370.97L252.77 371.45L252.77 371.45L252.29 371.45z" stroke="none" fill="#000000" fill-rule="evenodd" /><path id="1314" transform="matrix(1 0 0 -1 0 841)" d="M252.77 370.97L302.354 370.97L302.354 370.97L302.354 371.45L302.354 371.45L252.77 371.45z" stroke="none" fill="#000000" fill-rule="evenodd" /><path id="1315" transform="matrix(1 0 0 -1 0 841)" d="M302.35 371.45L302.83 371.45L302.83 371.45L302.83 387.05L302.83 387.05L302.35 387.05z" stroke="none" fill="#000000" fill-rule="evenodd" /><path id="1316" transform="matrix(1 0 0 -1 0 841)" d="M302.35 370.97L302.83 370.97L302.83 370.97L302.83 371.45L302.83 371.45L302.35 371.45z" stroke="none" fill="#000000" fill-rule="evenodd" /><path id="1317" transform="matrix(1 0 0 -1 0 841)" d="M302.83 370.97L374.35 370.97L374.35 370.97L374.35 371.45L374.35 371.45L302.83 371.45z" stroke="none" fill="#000000" fill-rule="evenodd" /><path id="1318" transform="matrix(1 0 0 -1 0 841)" d="M374.35 371.45L374.83 371.45L374.83 371.45L374.83 387.05L374.83 387.05L374.35 387.05z" stroke="none" fill="#000000" fill-rule="evenodd" /><path id="1319" transform="matrix(1 0 0 -1 0 841)" d="M374.35 370.97L374.83 370.97L374.83 370.97L374.83 371.45L374.83 371.45L374.35 371.45z" stroke="none" fill="#000000" fill-rule="evenodd" /><path id="1320" transform="matrix(1 0 0 -1 0 841)" d="M374.83 370.97L402.334 370.97L402.334 370.97L402.334 371.45L402.334 371.45L374.83 371.45z" stroke="none" fill="#000000" fill-rule="evenodd" /><path id="1321" transform="matrix(1 0 0 -1 0 841)" d="M402.34 371.45L402.82 371.45L402.82 371.45L402.82 387.05L402.82 387.05L402.34 387.05z" stroke="none" fill="#000000" fill-rule="evenodd" /><path id="1322" transform="matrix(1 0 0 -1 0 841)" d="M402.34 370.97L402.82 370.97L402.82 370.97L402.82 371.45L402.82 371.45L402.34 371.45z" stroke="none" fill="#000000" fill-rule="evenodd" /><path id="1323" transform="matrix(1 0 0 -1 0 841)" d="M402.82 370.97L452.38 370.97L452.38 370.97L452.38 371.45L452.38 371.45L402.82 371.45z" stroke="none" fill="#000000" fill-rule="evenodd" /><path id="1324" transform="matrix(1 0 0 -1 0 841)" d="M452.38 371.45L452.86 371.45L452.86 371.45L452.86 387.05L452.86 387.05L452.38 387.05z" stroke="none" fill="#000000" fill-rule="evenodd" /><path id="1325" transform="matrix(1 0 0 -1 0 841)" d="M452.38 370.97L452.86 370.97L452.86 370.97L452.86 371.45L452.86 371.45L452.38 371.45z" stroke="none" fill="#000000" fill-rule="evenodd" /><path id="1326" transform="matrix(1 0 0 -1 0 841)" d="M452.38 370.97L452.86 370.97L452.86 370.97L452.86 371.45L452.86 371.45L452.38 371.45z" stroke="none" fill="#000000" fill-rule="evenodd" /><g clip-path="url(#229)"></g><g clip-path="url(#230)"></g><g clip-path="url(#231)"></g><g clip-path="url(#232)"></g><g clip-path="url(#233)"></g><g clip-path="url(#234)"></g><g clip-path="url(#235)"></g><g clip-path="url(#236)"></g><g clip-path="url(#237)"></g><g clip-path="url(#238)"></g><g clip-path="url(#239)"></g><g clip-path="url(#240)"></g><g clip-path="url(#241)"></g><g clip-path="url(#242)"></g><g clip-path="url(#243)"></g><g clip-path="url(#244)"></g><g clip-path="url(#245)"></g><g clip-path="url(#246)"></g><g clip-path="url(#247)"></g><g clip-path="url(#248)"></g><g clip-path="url(#249)"></g><g clip-path="url(#250)"></g><g clip-path="url(#251)"></g><g clip-path="url(#252)"></g><g clip-path="url(#253)"></g><g clip-path="url(#254)"></g><g clip-path="url(#255)"></g><g clip-path="url(#256)"></g><g clip-path="url(#257)"></g><g clip-path="url(#258)"></g><g clip-path="url(#259)"></g><g clip-path="url(#260)"></g><g clip-path="url(#261)"></g><g clip-path="url(#262)"></g><g clip-path="url(#263)"></g><g clip-path="url(#264)"></g><g clip-path="url(#265)"></g><g clip-path="url(#266)"></g><g clip-path="url(#267)"></g><g clip-path="url(#268)"></g><g clip-path="url(#269)"></g><g clip-path="url(#270)"></g><g clip-path="url(#271)"></g><g clip-path="url(#272)"></g><g clip-path="url(#273)"></g><g clip-path="url(#274)"></g><g clip-path="url(#275)"></g><g clip-path="url(#276)"></g><g clip-path="url(#277)"></g><g clip-path="url(#278)"></g><g clip-path="url(#279)"></g><g clip-path="url(#280)"></g><g clip-path="url(#281)"></g><g clip-path="url(#282)"></g><g clip-path="url(#283)"></g><g clip-path="url(#284)"></g><g clip-path="url(#285)"></g><g clip-path="url(#286)"></g><g clip-path="url(#287)"></g><g clip-path="url(#288)"></g><g clip-path="url(#289)"></g><g clip-path="url(#290)"></g><g clip-path="url(#291)"></g><g clip-path="url(#292)"></g><g clip-path="url(#293)"></g><g clip-path="url(#294)"></g><g clip-path="url(#295)"></g><g clip-path="url(#296)"></g><g clip-path="url(#297)"></g><g clip-path="url(#298)"></g><g clip-path="url(#299)"></g><g clip-path="url(#300)"></g><g clip-path="url(#301)"></g><g clip-path="url(#302)"></g><g clip-path="url(#303)"></g><g clip-path="url(#304)"></g><g clip-path="url(#305)"></g><g clip-path="url(#306)"></g><g clip-path="url(#307)"></g><g clip-path="url(#308)"></g><g clip-path="url(#309)"></g><g clip-path="url(#310)"></g><g clip-path="url(#311)"></g><g clip-path="url(#312)"></g><g clip-path="url(#313)"></g><g clip-path="url(#314)"></g><g clip-path="url(#315)"></g><g clip-path="url(#316)"></g><g clip-path="url(#317)"></g><g clip-path="url(#318)"></g><g clip-path="url(#319)"></g><g clip-path="url(#320)"></g><g clip-path="url(#321)"></g><g clip-path="url(#322)"></g><g clip-path="url(#323)"></g><g clip-path="url(#324)"></g><g clip-path="url(#325)"></g><g clip-path="url(#326)"></g><g clip-path="url(#327)"></g><g clip-path="url(#328)"></g><g clip-path="url(#329)"></g><g clip-path="url(#330)"></g><g clip-path="url(#331)"></g><g clip-path="url(#332)"><g clip-path="url(#333)"></g></g><g clip-path="url(#334)"></g><g clip-path="url(#335)"></g><g clip-path="url(#336)"></g><g clip-path="url(#337)"></g><g clip-path="url(#338)"></g><g clip-path="url(#339)"></g><g clip-path="url(#340)"></g><g clip-path="url(#341)"></g><g clip-path="url(#342)"></g><g clip-path="url(#343)"></g><g clip-path="url(#344)"></g><g clip-path="url(#345)"></g><g clip-path="url(#346)"></g><g clip-path="url(#347)"></g><g clip-path="url(#348)"></g><g clip-path="url(#349)"></g><g clip-path="url(#350)"></g><g clip-path="url(#351)"></g><g clip-path="url(#352)"></g><g clip-path="url(#353)"></g><g clip-path="url(#354)"></g><g clip-path="url(#355)"></g><g clip-path="url(#356)"></g><g clip-path="url(#357)"></g><g clip-path="url(#358)"></g><g clip-path="url(#359)"></g><g clip-path="url(#360)"></g><g clip-path="url(#361)"></g><g clip-path="url(#362)"></g><g clip-path="url(#363)"></g><g clip-path="url(#364)"></g><g clip-path="url(#365)"></g><g clip-path="url(#366)"></g><g clip-path="url(#367)"></g><g clip-path="url(#368)"></g><g clip-path="url(#369)"></g><g clip-path="url(#370)"></g><g clip-path="url(#371)"></g><g clip-path="url(#372)"></g><g clip-path="url(#373)"></g><g clip-path="url(#374)"></g><g clip-path="url(#375)"></g><g clip-path="url(#376)"></g><g clip-path="url(#377)"></g><g clip-path="url(#378)"></g><g clip-path="url(#379)"></g><g clip-path="url(#380)"></g><g clip-path="url(#381)"></g><g clip-path="url(#382)"></g><g clip-path="url(#383)"></g><g clip-path="url(#384)"></g><g clip-path="url(#385)"></g><g clip-path="url(#386)"></g><g clip-path="url(#387)"></g><g clip-path="url(#388)"></g><g clip-path="url(#389)"></g><g clip-path="url(#390)"></g><g clip-path="url(#391)"></g><g clip-path="url(#392)"></g><g clip-path="url(#393)"></g><g clip-path="url(#394)"></g></g></g></svg>