<svg xmlns="http://www.w3.org/2000/svg" xmlns:xlink="http://www.w3.org/1999/xlink" id="body_805" preserveAspectRatio="xMinYMin meet" viewBox="0 0 793 1121"><defs><clipPath id="1"><path id="" clip-rule="evenodd" d="M0 841L0 -0.9199829L0 -0.9199829L595.32 -0.9199829L595.32 -0.9199829L595.32 841L595.32 841L0 841z" /></clipPath><clipPath id="2"><path id="" clip-rule="evenodd" d="M0 840.9999L595.32 840.9999L595.32 840.9999L595.32 -0.9200439L595.32 -0.9200439L0 -0.9200439z" /></clipPath><clipPath id="3"><path id="" clip-rule="evenodd" d="M8.871E-06 841L595.32 841L595.32 841L595.32 -0.9199829L595.32 -0.9199829L8.871E-06 -0.9199829z" /></clipPath><clipPath id="4"><path id="" clip-rule="evenodd" d="M8.871E-06 841L595.32 841L595.32 841L595.32 -0.9199829L595.32 -0.9199829L8.871E-06 -0.9199829z" /></clipPath><clipPath id="5"><path id="" clip-rule="evenodd" d="M8.871E-06 841L595.32 841L595.32 841L595.32 -0.9199829L595.32 -0.9199829L8.871E-06 -0.9199829z" /></clipPath><clipPath id="6"><path id="" clip-rule="evenodd" d="M8.871E-06 841L595.32 841L595.32 841L595.32 -0.9199829L595.32 -0.9199829L8.871E-06 -0.9199829z" /></clipPath><clipPath id="7"><path id="" clip-rule="evenodd" d="M8.871E-06 841L595.32 841L595.32 841L595.32 -0.9199829L595.32 -0.9199829L8.871E-06 -0.9199829z" /></clipPath><clipPath id="8"><path id="" clip-rule="evenodd" d="M0 840.9999L595.32 840.9999L595.32 840.9999L595.32 -0.9200439L595.32 -0.9200439L0 -0.9200439z" /></clipPath><clipPath id="9"><path id="" clip-rule="evenodd" d="M137.81 286.29L457.6141 286.29L457.6141 286.29L457.6141 74.48798L457.6141 74.48798L137.81 74.48798z" /></clipPath><clipPath id="10"><path id="" clip-rule="evenodd" d="M137.81 284.9246L455.819 284.9246L455.819 284.9246L455.819 60.60132L455.819 60.60132L137.81 60.60132z" /></clipPath><clipPath id="11"><path id="" clip-rule="evenodd" d="M194.6852 247.6782L411.6152 247.6782L411.6152 247.6782L411.6152 86.63232L411.6152 86.63232L194.6852 86.63232z" /></clipPath><clipPath id="12"><path id="" clip-rule="evenodd" d="M194.6852 247.6782L411.6152 247.6782L411.6152 247.6782L411.6152 86.63232L411.6152 86.63232L194.6852 86.63232z" /></clipPath><clipPath id="13"><path id="" clip-rule="evenodd" d="M8.871E-06 841L595.32 841L595.32 841L595.32 -0.9199829L595.32 -0.9199829L8.871E-06 -0.9199829z" /></clipPath><clipPath id="14"><path id="" clip-rule="evenodd" d="M8.871E-06 841L595.32 841L595.32 841L595.32 -0.9199829L595.32 -0.9199829L8.871E-06 -0.9199829z" /></clipPath><clipPath id="15"><path id="" clip-rule="evenodd" d="M8.871E-06 841L595.32 841L595.32 841L595.32 -0.9199829L595.32 -0.9199829L8.871E-06 -0.9199829z" /></clipPath><clipPath id="16"><path id="" clip-rule="evenodd" d="M8.871E-06 841L595.32 841L595.32 841L595.32 -0.9199829L595.32 -0.9199829L8.871E-06 -0.9199829z" /></clipPath><clipPath id="17"><path id="" clip-rule="evenodd" d="M8.871E-06 841L595.32 841L595.32 841L595.32 -0.9199829L595.32 -0.9199829L8.871E-06 -0.9199829z" /></clipPath><clipPath id="18"><path id="" clip-rule="evenodd" d="M8.871E-06 841L595.32 841L595.32 841L595.32 -0.9199829L595.32 -0.9199829L8.871E-06 -0.9199829z" /></clipPath><clipPath id="19"><path id="" clip-rule="evenodd" d="M8.871E-06 841L595.32 841L595.32 841L595.32 -0.9199829L595.32 -0.9199829L8.871E-06 -0.9199829z" /></clipPath><clipPath id="20"><path id="" clip-rule="evenodd" d="M8.871E-06 841L595.32 841L595.32 841L595.32 -0.9199829L595.32 -0.9199829L8.871E-06 -0.9199829z" /></clipPath><clipPath id="21"><path id="" clip-rule="evenodd" d="M8.871E-06 841L595.32 841L595.32 841L595.32 -0.9199829L595.32 -0.9199829L8.871E-06 -0.9199829z" /></clipPath><clipPath id="22"><path id="" clip-rule="evenodd" d="M8.871E-06 841L595.32 841L595.32 841L595.32 -0.9199829L595.32 -0.9199829L8.871E-06 -0.9199829z" /></clipPath><clipPath id="23"><path id="" clip-rule="evenodd" d="M8.871E-06 841L595.32 841L595.32 841L595.32 -0.9199829L595.32 -0.9199829L8.871E-06 -0.9199829z" /></clipPath><clipPath id="24"><path id="" clip-rule="evenodd" d="M8.871E-06 841L595.32 841L595.32 841L595.32 -0.9199829L595.32 -0.9199829L8.871E-06 -0.9199829z" /></clipPath><clipPath id="25"><path id="" clip-rule="evenodd" d="M8.871E-06 841L595.32 841L595.32 841L595.32 -0.9199829L595.32 -0.9199829L8.871E-06 -0.9199829z" /></clipPath><clipPath id="26"><path id="" clip-rule="evenodd" d="M8.871E-06 841L595.32 841L595.32 841L595.32 -0.9199829L595.32 -0.9199829L8.871E-06 -0.9199829z" /></clipPath><clipPath id="27"><path id="" clip-rule="evenodd" d="M8.871E-06 841L595.32 841L595.32 841L595.32 -0.9199829L595.32 -0.9199829L8.871E-06 -0.9199829z" /></clipPath><clipPath id="28"><path id="" clip-rule="evenodd" d="M8.871E-06 841L595.32 841L595.32 841L595.32 -0.9199829L595.32 -0.9199829L8.871E-06 -0.9199829z" /></clipPath><clipPath id="29"><path id="" clip-rule="evenodd" d="M8.871E-06 841L595.32 841L595.32 841L595.32 -0.9199829L595.32 -0.9199829L8.871E-06 -0.9199829z" /></clipPath><clipPath id="30"><path id="" clip-rule="evenodd" d="M8.871E-06 841L595.32 841L595.32 841L595.32 -0.9199829L595.32 -0.9199829L8.871E-06 -0.9199829z" /></clipPath><clipPath id="31"><path id="" clip-rule="evenodd" d="M8.871E-06 841L595.32 841L595.32 841L595.32 -0.9199829L595.32 -0.9199829L8.871E-06 -0.9199829z" /></clipPath><clipPath id="32"><path id="" clip-rule="evenodd" d="M8.871E-06 841L595.32 841L595.32 841L595.32 -0.9199829L595.32 -0.9199829L8.871E-06 -0.9199829z" /></clipPath><clipPath id="33"><path id="" clip-rule="evenodd" d="M8.871E-06 841L595.32 841L595.32 841L595.32 -0.9199829L595.32 -0.9199829L8.871E-06 -0.9199829z" /></clipPath><clipPath id="34"><path id="" clip-rule="evenodd" d="M8.871E-06 841L595.32 841L595.32 841L595.32 -0.9199829L595.32 -0.9199829L8.871E-06 -0.9199829z" /></clipPath><clipPath id="35"><path id="" clip-rule="evenodd" d="M8.871E-06 841L595.32 841L595.32 841L595.32 -0.9199829L595.32 -0.9199829L8.871E-06 -0.9199829z" /></clipPath><clipPath id="36"><path id="" clip-rule="evenodd" d="M8.871E-06 841L595.32 841L595.32 841L595.32 -0.9199829L595.32 -0.9199829L8.871E-06 -0.9199829z" /></clipPath><clipPath id="37"><path id="" clip-rule="evenodd" d="M8.871E-06 841L595.32 841L595.32 841L595.32 -0.9199829L595.32 -0.9199829L8.871E-06 -0.9199829z" /></clipPath><clipPath id="38"><path id="" clip-rule="evenodd" d="M8.871E-06 841L595.32 841L595.32 841L595.32 -0.9199829L595.32 -0.9199829L8.871E-06 -0.9199829z" /></clipPath><clipPath id="39"><path id="" clip-rule="evenodd" d="M8.871E-06 841L595.32 841L595.32 841L595.32 -0.9199829L595.32 -0.9199829L8.871E-06 -0.9199829z" /></clipPath><clipPath id="40"><path id="" clip-rule="evenodd" d="M8.871E-06 841L595.32 841L595.32 841L595.32 -0.9199829L595.32 -0.9199829L8.871E-06 -0.9199829z" /></clipPath><clipPath id="41"><path id="" clip-rule="evenodd" d="M8.871E-06 841L595.32 841L595.32 841L595.32 -0.9199829L595.32 -0.9199829L8.871E-06 -0.9199829z" /></clipPath><clipPath id="42"><path id="" clip-rule="evenodd" d="M8.871E-06 841L595.32 841L595.32 841L595.32 -0.9199829L595.32 -0.9199829L8.871E-06 -0.9199829z" /></clipPath><clipPath id="43"><path id="" clip-rule="evenodd" d="M8.871E-06 841L595.32 841L595.32 841L595.32 -0.9199829L595.32 -0.9199829L8.871E-06 -0.9199829z" /></clipPath><clipPath id="44"><path id="" clip-rule="evenodd" d="M8.871E-06 841L595.32 841L595.32 841L595.32 -0.9199829L595.32 -0.9199829L8.871E-06 -0.9199829z" /></clipPath><clipPath id="45"><path id="" clip-rule="evenodd" d="M8.871E-06 841L595.32 841L595.32 841L595.32 -0.9199829L595.32 -0.9199829L8.871E-06 -0.9199829z" /></clipPath><clipPath id="46"><path id="" clip-rule="evenodd" d="M8.871E-06 841L595.32 841L595.32 841L595.32 -0.9199829L595.32 -0.9199829L8.871E-06 -0.9199829z" /></clipPath><clipPath id="47"><path id="" clip-rule="evenodd" d="M8.871E-06 841L595.32 841L595.32 841L595.32 -0.9199829L595.32 -0.9199829L8.871E-06 -0.9199829z" /></clipPath><clipPath id="48"><path id="" clip-rule="evenodd" d="M8.871E-06 841L595.32 841L595.32 841L595.32 -0.9199829L595.32 -0.9199829L8.871E-06 -0.9199829z" /></clipPath><clipPath id="49"><path id="" clip-rule="evenodd" d="M8.871E-06 841L595.32 841L595.32 841L595.32 -0.9199829L595.32 -0.9199829L8.871E-06 -0.9199829z" /></clipPath><clipPath id="50"><path id="" clip-rule="evenodd" d="M8.871E-06 841L595.32 841L595.32 841L595.32 -0.9199829L595.32 -0.9199829L8.871E-06 -0.9199829z" /></clipPath><clipPath id="51"><path id="" clip-rule="evenodd" d="M8.871E-06 841L595.32 841L595.32 841L595.32 -0.9199829L595.32 -0.9199829L8.871E-06 -0.9199829z" /></clipPath><clipPath id="52"><path id="" clip-rule="evenodd" d="M8.871E-06 841L595.32 841L595.32 841L595.32 -0.9199829L595.32 -0.9199829L8.871E-06 -0.9199829z" /></clipPath><clipPath id="53"><path id="" clip-rule="evenodd" d="M8.871E-06 841L595.32 841L595.32 841L595.32 -0.9199829L595.32 -0.9199829L8.871E-06 -0.9199829z" /></clipPath><clipPath id="54"><path id="" clip-rule="evenodd" d="M8.871E-06 841L595.32 841L595.32 841L595.32 -0.9199829L595.32 -0.9199829L8.871E-06 -0.9199829z" /></clipPath><clipPath id="55"><path id="" clip-rule="evenodd" d="M8.871E-06 841L595.32 841L595.32 841L595.32 -0.9199829L595.32 -0.9199829L8.871E-06 -0.9199829z" /></clipPath><clipPath id="56"><path id="" clip-rule="evenodd" d="M8.871E-06 841L595.32 841L595.32 841L595.32 -0.9199829L595.32 -0.9199829L8.871E-06 -0.9199829z" /></clipPath><clipPath id="57"><path id="" clip-rule="evenodd" d="M8.871E-06 841L595.32 841L595.32 841L595.32 -0.9199829L595.32 -0.9199829L8.871E-06 -0.9199829z" /></clipPath><clipPath id="58"><path id="" clip-rule="evenodd" d="M8.871E-06 841L595.32 841L595.32 841L595.32 -0.9199829L595.32 -0.9199829L8.871E-06 -0.9199829z" /></clipPath><clipPath id="59"><path id="" clip-rule="evenodd" d="M8.871E-06 841L595.32 841L595.32 841L595.32 -0.9199829L595.32 -0.9199829L8.871E-06 -0.9199829z" /></clipPath><clipPath id="60"><path id="" clip-rule="evenodd" d="M8.871E-06 841L595.32 841L595.32 841L595.32 -0.9199829L595.32 -0.9199829L8.871E-06 -0.9199829z" /></clipPath><clipPath id="61"><path id="" clip-rule="evenodd" d="M8.871E-06 841L595.32 841L595.32 841L595.32 -0.9199829L595.32 -0.9199829L8.871E-06 -0.9199829z" /></clipPath><clipPath id="62"><path id="" clip-rule="evenodd" d="M8.871E-06 841L595.32 841L595.32 841L595.32 -0.9199829L595.32 -0.9199829L8.871E-06 -0.9199829z" /></clipPath><clipPath id="63"><path id="" clip-rule="evenodd" d="M8.871E-06 841L595.32 841L595.32 841L595.32 -0.9199829L595.32 -0.9199829L8.871E-06 -0.9199829z" /></clipPath><clipPath id="64"><path id="" clip-rule="evenodd" d="M8.871E-06 841L595.32 841L595.32 841L595.32 -0.9199829L595.32 -0.9199829L8.871E-06 -0.9199829z" /></clipPath><clipPath id="65"><path id="" clip-rule="evenodd" d="M8.871E-06 841L595.32 841L595.32 841L595.32 -0.9199829L595.32 -0.9199829L8.871E-06 -0.9199829z" /></clipPath><clipPath id="66"><path id="" clip-rule="evenodd" d="M8.871E-06 841L595.32 841L595.32 841L595.32 -0.9199829L595.32 -0.9199829L8.871E-06 -0.9199829z" /></clipPath><clipPath id="67"><path id="" clip-rule="evenodd" d="M8.871E-06 841L595.32 841L595.32 841L595.32 -0.9199829L595.32 -0.9199829L8.871E-06 -0.9199829z" /></clipPath><clipPath id="68"><path id="" clip-rule="evenodd" d="M8.871E-06 841L595.32 841L595.32 841L595.32 -0.9199829L595.32 -0.9199829L8.871E-06 -0.9199829z" /></clipPath><clipPath id="69"><path id="" clip-rule="evenodd" d="M8.871E-06 841L595.32 841L595.32 841L595.32 -0.9199829L595.32 -0.9199829L8.871E-06 -0.9199829z" /></clipPath><clipPath id="70"><path id="" clip-rule="evenodd" d="M8.871E-06 841L595.32 841L595.32 841L595.32 -0.9199829L595.32 -0.9199829L8.871E-06 -0.9199829z" /></clipPath><clipPath id="71"><path id="" clip-rule="evenodd" d="M8.871E-06 841L595.32 841L595.32 841L595.32 -0.9199829L595.32 -0.9199829L8.871E-06 -0.9199829z" /></clipPath><clipPath id="72"><path id="" clip-rule="evenodd" d="M8.871E-06 841L595.32 841L595.32 841L595.32 -0.9199829L595.32 -0.9199829L8.871E-06 -0.9199829z" /></clipPath><clipPath id="73"><path id="" clip-rule="evenodd" d="M8.871E-06 841L595.32 841L595.32 841L595.32 -0.9199829L595.32 -0.9199829L8.871E-06 -0.9199829z" /></clipPath><clipPath id="74"><path id="" clip-rule="evenodd" d="M8.871E-06 841L595.32 841L595.32 841L595.32 -0.9199829L595.32 -0.9199829L8.871E-06 -0.9199829z" /></clipPath><clipPath id="75"><path id="" clip-rule="evenodd" d="M8.871E-06 841L595.32 841L595.32 841L595.32 -0.9199829L595.32 -0.9199829L8.871E-06 -0.9199829z" /></clipPath><clipPath id="76"><path id="" clip-rule="evenodd" d="M8.871E-06 841L595.32 841L595.32 841L595.32 -0.9199829L595.32 -0.9199829L8.871E-06 -0.9199829z" /></clipPath><clipPath id="77"><path id="" clip-rule="evenodd" d="M8.871E-06 841L595.32 841L595.32 841L595.32 -0.9199829L595.32 -0.9199829L8.871E-06 -0.9199829z" /></clipPath><clipPath id="78"><path id="" clip-rule="evenodd" d="M8.871E-06 841L595.32 841L595.32 841L595.32 -0.9199829L595.32 -0.9199829L8.871E-06 -0.9199829z" /></clipPath><clipPath id="79"><path id="" clip-rule="evenodd" d="M8.871E-06 841L595.32 841L595.32 841L595.32 -0.9199829L595.32 -0.9199829L8.871E-06 -0.9199829z" /></clipPath><clipPath id="80"><path id="" clip-rule="evenodd" d="M8.871E-06 841L595.32 841L595.32 841L595.32 -0.9199829L595.32 -0.9199829L8.871E-06 -0.9199829z" /></clipPath><clipPath id="81"><path id="" clip-rule="evenodd" d="M8.871E-06 841L595.32 841L595.32 841L595.32 -0.9199829L595.32 -0.9199829L8.871E-06 -0.9199829z" /></clipPath><clipPath id="82"><path id="" clip-rule="evenodd" d="M8.871E-06 841L595.32 841L595.32 841L595.32 -0.9199829L595.32 -0.9199829L8.871E-06 -0.9199829z" /></clipPath><clipPath id="83"><path id="" clip-rule="evenodd" d="M8.871E-06 841L595.32 841L595.32 841L595.32 -0.9199829L595.32 -0.9199829L8.871E-06 -0.9199829z" /></clipPath><clipPath id="84"><path id="" clip-rule="evenodd" d="M8.871E-06 841L595.32 841L595.32 841L595.32 -0.9199829L595.32 -0.9199829L8.871E-06 -0.9199829z" /></clipPath><clipPath id="85"><path id="" clip-rule="evenodd" d="M8.871E-06 841L595.32 841L595.32 841L595.32 -0.9199829L595.32 -0.9199829L8.871E-06 -0.9199829z" /></clipPath><clipPath id="86"><path id="" clip-rule="evenodd" d="M8.871E-06 841L595.32 841L595.32 841L595.32 -0.9199829L595.32 -0.9199829L8.871E-06 -0.9199829z" /></clipPath><clipPath id="87"><path id="" clip-rule="evenodd" d="M8.871E-06 841L595.32 841L595.32 841L595.32 -0.9199829L595.32 -0.9199829L8.871E-06 -0.9199829z" /></clipPath><clipPath id="88"><path id="" clip-rule="evenodd" d="M8.871E-06 841L595.32 841L595.32 841L595.32 -0.9199829L595.32 -0.9199829L8.871E-06 -0.9199829z" /></clipPath><clipPath id="89"><path id="" clip-rule="evenodd" d="M8.871E-06 841L595.32 841L595.32 841L595.32 -0.9199829L595.32 -0.9199829L8.871E-06 -0.9199829z" /></clipPath><clipPath id="90"><path id="" clip-rule="evenodd" d="M8.871E-06 841L595.32 841L595.32 841L595.32 -0.9199829L595.32 -0.9199829L8.871E-06 -0.9199829z" /></clipPath><clipPath id="91"><path id="" clip-rule="evenodd" d="M8.871E-06 841L595.32 841L595.32 841L595.32 -0.9199829L595.32 -0.9199829L8.871E-06 -0.9199829z" /></clipPath><clipPath id="92"><path id="" clip-rule="evenodd" d="M8.871E-06 841L595.32 841L595.32 841L595.32 -0.9199829L595.32 -0.9199829L8.871E-06 -0.9199829z" /></clipPath><clipPath id="93"><path id="" clip-rule="evenodd" d="M8.871E-06 841L595.32 841L595.32 841L595.32 -0.9199829L595.32 -0.9199829L8.871E-06 -0.9199829z" /></clipPath><clipPath id="94"><path id="" clip-rule="evenodd" d="M8.871E-06 841L595.32 841L595.32 841L595.32 -0.9199829L595.32 -0.9199829L8.871E-06 -0.9199829z" /></clipPath><clipPath id="95"><path id="" clip-rule="evenodd" d="M8.871E-06 841L595.32 841L595.32 841L595.32 -0.9199829L595.32 -0.9199829L8.871E-06 -0.9199829z" /></clipPath><clipPath id="96"><path id="" clip-rule="evenodd" d="M8.871E-06 841L595.32 841L595.32 841L595.32 -0.9199829L595.32 -0.9199829L8.871E-06 -0.9199829z" /></clipPath><clipPath id="97"><path id="" clip-rule="evenodd" d="M8.871E-06 841L595.32 841L595.32 841L595.32 -0.9199829L595.32 -0.9199829L8.871E-06 -0.9199829z" /></clipPath><clipPath id="98"><path id="" clip-rule="evenodd" d="M8.871E-06 841L595.32 841L595.32 841L595.32 -0.9199829L595.32 -0.9199829L8.871E-06 -0.9199829z" /></clipPath><clipPath id="99"><path id="" clip-rule="evenodd" d="M8.871E-06 841L595.32 841L595.32 841L595.32 -0.9199829L595.32 -0.9199829L8.871E-06 -0.9199829z" /></clipPath><clipPath id="100"><path id="" clip-rule="evenodd" d="M8.871E-06 841L595.32 841L595.32 841L595.32 -0.9199829L595.32 -0.9199829L8.871E-06 -0.9199829z" /></clipPath><clipPath id="101"><path id="" clip-rule="evenodd" d="M8.871E-06 841L595.32 841L595.32 841L595.32 -0.9199829L595.32 -0.9199829L8.871E-06 -0.9199829z" /></clipPath><clipPath id="102"><path id="" clip-rule="evenodd" d="M8.871E-06 841L595.32 841L595.32 841L595.32 -0.9199829L595.32 -0.9199829L8.871E-06 -0.9199829z" /></clipPath><clipPath id="103"><path id="" clip-rule="evenodd" d="M8.871E-06 841L595.32 841L595.32 841L595.32 -0.9199829L595.32 -0.9199829L8.871E-06 -0.9199829z" /></clipPath><clipPath id="104"><path id="" clip-rule="evenodd" d="M8.871E-06 841L595.32 841L595.32 841L595.32 -0.9199829L595.32 -0.9199829L8.871E-06 -0.9199829z" /></clipPath><clipPath id="105"><path id="" clip-rule="evenodd" d="M8.871E-06 841L595.32 841L595.32 841L595.32 -0.9199829L595.32 -0.9199829L8.871E-06 -0.9199829z" /></clipPath><clipPath id="106"><path id="" clip-rule="evenodd" d="M8.871E-06 841L595.32 841L595.32 841L595.32 -0.9199829L595.32 -0.9199829L8.871E-06 -0.9199829z" /></clipPath><clipPath id="107"><path id="" clip-rule="evenodd" d="M8.871E-06 841L595.32 841L595.32 841L595.32 -0.9199829L595.32 -0.9199829L8.871E-06 -0.9199829z" /></clipPath><clipPath id="108"><path id="" clip-rule="evenodd" d="M8.871E-06 841L595.32 841L595.32 841L595.32 -0.9199829L595.32 -0.9199829L8.871E-06 -0.9199829z" /></clipPath><clipPath id="109"><path id="" clip-rule="evenodd" d="M8.871E-06 841L595.32 841L595.32 841L595.32 -0.9199829L595.32 -0.9199829L8.871E-06 -0.9199829z" /></clipPath><clipPath id="110"><path id="" clip-rule="evenodd" d="M8.871E-06 841L595.32 841L595.32 841L595.32 -0.9199829L595.32 -0.9199829L8.871E-06 -0.9199829z" /></clipPath><clipPath id="111"><path id="" clip-rule="evenodd" d="M8.871E-06 841L595.32 841L595.32 841L595.32 -0.9199829L595.32 -0.9199829L8.871E-06 -0.9199829z" /></clipPath><clipPath id="112"><path id="" clip-rule="evenodd" d="M8.871E-06 841L595.32 841L595.32 841L595.32 -0.9199829L595.32 -0.9199829L8.871E-06 -0.9199829z" /></clipPath><clipPath id="113"><path id="" clip-rule="evenodd" d="M8.871E-06 841L595.32 841L595.32 841L595.32 -0.9199829L595.32 -0.9199829L8.871E-06 -0.9199829z" /></clipPath><clipPath id="114"><path id="" clip-rule="evenodd" d="M8.871E-06 841L595.32 841L595.32 841L595.32 -0.9199829L595.32 -0.9199829L8.871E-06 -0.9199829z" /></clipPath><clipPath id="115"><path id="" clip-rule="evenodd" d="M8.871E-06 841L595.32 841L595.32 841L595.32 -0.9199829L595.32 -0.9199829L8.871E-06 -0.9199829z" /></clipPath><clipPath id="116"><path id="" clip-rule="evenodd" d="M8.871E-06 841L595.32 841L595.32 841L595.32 -0.9199829L595.32 -0.9199829L8.871E-06 -0.9199829z" /></clipPath><clipPath id="117"><path id="" clip-rule="evenodd" d="M8.871E-06 841L595.32 841L595.32 841L595.32 -0.9199829L595.32 -0.9199829L8.871E-06 -0.9199829z" /></clipPath><clipPath id="118"><path id="" clip-rule="evenodd" d="M8.871E-06 841L595.32 841L595.32 841L595.32 -0.9199829L595.32 -0.9199829L8.871E-06 -0.9199829z" /></clipPath><clipPath id="119"><path id="" clip-rule="evenodd" d="M8.871E-06 841L595.32 841L595.32 841L595.32 -0.9199829L595.32 -0.9199829L8.871E-06 -0.9199829z" /></clipPath><clipPath id="120"><path id="" clip-rule="evenodd" d="M8.871E-06 841L595.32 841L595.32 841L595.32 -0.9199829L595.32 -0.9199829L8.871E-06 -0.9199829z" /></clipPath><clipPath id="121"><path id="" clip-rule="evenodd" d="M8.871E-06 841L595.32 841L595.32 841L595.32 -0.9199829L595.32 -0.9199829L8.871E-06 -0.9199829z" /></clipPath><clipPath id="122"><path id="" clip-rule="evenodd" d="M8.871E-06 841L595.32 841L595.32 841L595.32 -0.9199829L595.32 -0.9199829L8.871E-06 -0.9199829z" /></clipPath><clipPath id="123"><path id="" clip-rule="evenodd" d="M8.871E-06 841L595.32 841L595.32 841L595.32 -0.9199829L595.32 -0.9199829L8.871E-06 -0.9199829z" /></clipPath><clipPath id="124"><path id="" clip-rule="evenodd" d="M8.871E-06 841L595.32 841L595.32 841L595.32 -0.9199829L595.32 -0.9199829L8.871E-06 -0.9199829z" /></clipPath><clipPath id="125"><path id="" clip-rule="evenodd" d="M8.871E-06 841L595.32 841L595.32 841L595.32 -0.9199829L595.32 -0.9199829L8.871E-06 -0.9199829z" /></clipPath><clipPath id="126"><path id="" clip-rule="evenodd" d="M8.871E-06 841L595.32 841L595.32 841L595.32 -0.9199829L595.32 -0.9199829L8.871E-06 -0.9199829z" /></clipPath><clipPath id="127"><path id="" clip-rule="evenodd" d="M8.871E-06 841L595.32 841L595.32 841L595.32 -0.9199829L595.32 -0.9199829L8.871E-06 -0.9199829z" /></clipPath><clipPath id="128"><path id="" clip-rule="evenodd" d="M8.871E-06 841L595.32 841L595.32 841L595.32 -0.9199829L595.32 -0.9199829L8.871E-06 -0.9199829z" /></clipPath><clipPath id="129"><path id="" clip-rule="evenodd" d="M8.871E-06 841L595.32 841L595.32 841L595.32 -0.9199829L595.32 -0.9199829L8.871E-06 -0.9199829z" /></clipPath><clipPath id="130"><path id="" clip-rule="evenodd" d="M8.871E-06 841L595.32 841L595.32 841L595.32 -0.9199829L595.32 -0.9199829L8.871E-06 -0.9199829z" /></clipPath><clipPath id="131"><path id="" clip-rule="evenodd" d="M8.871E-06 841L595.32 841L595.32 841L595.32 -0.9199829L595.32 -0.9199829L8.871E-06 -0.9199829z" /></clipPath><clipPath id="132"><path id="" clip-rule="evenodd" d="M8.871E-06 841L595.32 841L595.32 841L595.32 -0.9199829L595.32 -0.9199829L8.871E-06 -0.9199829z" /></clipPath><clipPath id="133"><path id="" clip-rule="evenodd" d="M8.871E-06 841L595.32 841L595.32 841L595.32 -0.9199829L595.32 -0.9199829L8.871E-06 -0.9199829z" /></clipPath><clipPath id="134"><path id="" clip-rule="evenodd" d="M8.871E-06 841L595.32 841L595.32 841L595.32 -0.9199829L595.32 -0.9199829L8.871E-06 -0.9199829z" /></clipPath><clipPath id="135"><path id="" clip-rule="evenodd" d="M8.871E-06 841L595.32 841L595.32 841L595.32 -0.9199829L595.32 -0.9199829L8.871E-06 -0.9199829z" /></clipPath><clipPath id="136"><path id="" clip-rule="evenodd" d="M8.871E-06 841L595.32 841L595.32 841L595.32 -0.9199829L595.32 -0.9199829L8.871E-06 -0.9199829z" /></clipPath><clipPath id="137"><path id="" clip-rule="evenodd" d="M8.871E-06 841L595.32 841L595.32 841L595.32 -0.9199829L595.32 -0.9199829L8.871E-06 -0.9199829z" /></clipPath><clipPath id="138"><path id="" clip-rule="evenodd" d="M8.871E-06 841L595.32 841L595.32 841L595.32 -0.9199829L595.32 -0.9199829L8.871E-06 -0.9199829z" /></clipPath><clipPath id="139"><path id="" clip-rule="evenodd" d="M8.871E-06 841L595.32 841L595.32 841L595.32 -0.9199829L595.32 -0.9199829L8.871E-06 -0.9199829z" /></clipPath><clipPath id="140"><path id="" clip-rule="evenodd" d="M8.871E-06 598.36L595.32 598.36L595.32 598.36L595.32 442.36L595.32 442.36L8.871E-06 442.36z" /></clipPath></defs><g transform="matrix(1.333333 0 0 1.333333 0 0)"><g clip-path="url(#1)"><g clip-path="url(#2)"><path id="1" transform="matrix(1 0 0 -1 0 841)" d="M0 -0.13L595.45 -0.13L595.45 -0.13L595.45 841.92L595.45 841.92L0 841.92z" stroke="none" fill="#F5F1DE" fill-rule="evenodd" /></g><g clip-path="url(#3)"></g><g clip-path="url(#4)"></g><path id="23" transform="matrix(1 0 0 -1 0 841)" d="M90 777.72L505.3 777.72L505.3 777.72L505.3 779.27L505.3 779.27L90 779.27z" stroke="none" fill="#808080" fill-rule="evenodd" /><path id="24" transform="matrix(1 0 0 -1 0 841)" d="M90.024 779.04L90.264 779.04L90.264 779.04L90.264 779.28L90.264 779.28L90.024 779.28z" stroke="none" fill="#808080" fill-rule="evenodd" /><path id="25" transform="matrix(1 0 0 -1 0 841)" d="M90.024 779.04L90.264 779.04L90.264 779.04L90.264 779.28L90.264 779.28L90.024 779.28z" stroke="none" fill="#808080" fill-rule="evenodd" /><path id="26" transform="matrix(1 0 0 -1 0 841)" d="M90.264 779.04L505.204 779.04L505.204 779.04L505.204 779.28L505.204 779.28L90.264 779.28z" stroke="none" fill="#808080" fill-rule="evenodd" /><path id="27" transform="matrix(1 0 0 -1 0 841)" d="M505.2 779.04L505.44 779.04L505.44 779.04L505.44 779.28L505.44 779.28L505.2 779.28z" stroke="none" fill="#D4D0C8" fill-rule="evenodd" /><path id="28" transform="matrix(1 0 0 -1 0 841)" d="M505.2 779.04L505.44 779.04L505.44 779.04L505.44 779.28L505.44 779.28L505.2 779.28z" stroke="none" fill="#808080" fill-rule="evenodd" /><path id="29" transform="matrix(1 0 0 -1 0 841)" d="M90.024 777.96L90.264 777.96L90.264 777.96L90.264 779.04L90.264 779.04L90.024 779.04z" stroke="none" fill="#808080" fill-rule="evenodd" /><path id="30" transform="matrix(1 0 0 -1 0 841)" d="M505.2 777.96L505.44 777.96L505.44 777.96L505.44 779.04L505.44 779.04L505.2 779.04z" stroke="none" fill="#D4D0C8" fill-rule="evenodd" /><path id="31" transform="matrix(1 0 0 -1 0 841)" d="M90.024 777.72L90.264 777.72L90.264 777.72L90.264 777.96L90.264 777.96L90.024 777.96z" stroke="none" fill="#808080" fill-rule="evenodd" /><path id="32" transform="matrix(1 0 0 -1 0 841)" d="M90.024 777.72L90.264 777.72L90.264 777.72L90.264 777.96L90.264 777.96L90.024 777.96z" stroke="none" fill="#D4D0C8" fill-rule="evenodd" /><path id="33" transform="matrix(1 0 0 -1 0 841)" d="M90.264 777.72L505.204 777.72L505.204 777.72L505.204 777.96L505.204 777.96L90.264 777.96z" stroke="none" fill="#D4D0C8" fill-rule="evenodd" /><path id="34" transform="matrix(1 0 0 -1 0 841)" d="M505.2 777.72L505.44 777.72L505.44 777.72L505.44 777.96L505.44 777.96L505.2 777.96z" stroke="none" fill="#D4D0C8" fill-rule="evenodd" /><path id="35" transform="matrix(1 0 0 -1 0 841)" d="M505.2 777.72L505.44 777.72L505.44 777.72L505.44 777.96L505.44 777.96L505.2 777.96z" stroke="none" fill="#D4D0C8" fill-rule="evenodd" /><g clip-path="url(#5)"></g><g clip-path="url(#6)"></g><g clip-path="url(#7)"></g><g clip-path="url(#8)"><g clip-path="url(#9)"><g clip-path="url(#10)"><path id="84" transform="matrix(1 0 0 -1 0 841)" d="M194.6852 590.1429L194.6852 593.3685" stroke="#000000" stroke-width="0.6054683" fill="none" /><path id="85" transform="matrix(1 0 0 -1 0 841)" d="M216.3928 590.1429L216.3928 593.3685" stroke="#000000" stroke-width="0.6054683" fill="none" /><path id="86" transform="matrix(1 0 0 -1 0 841)" d="M238.0538 590.1429L238.0538 593.3685" stroke="#000000" stroke-width="0.6054683" fill="none" /><path id="87" transform="matrix(1 0 0 -1 0 841)" d="M259.7599 590.1429L259.7599 593.3685" stroke="#000000" stroke-width="0.6054683" fill="none" /><path id="88" transform="matrix(1 0 0 -1 0 841)" d="M281.4209 590.1429L281.4209 593.3685" stroke="#000000" stroke-width="0.6054683" fill="none" /><path id="89" transform="matrix(1 0 0 -1 0 841)" d="M303.1277 590.1429L303.1277 593.3685" stroke="#000000" stroke-width="0.6054683" fill="none" /><path id="90" transform="matrix(1 0 0 -1 0 841)" d="M324.8337 590.1429L324.8337 593.3685" stroke="#000000" stroke-width="0.6054683" fill="none" /><path id="91" transform="matrix(1 0 0 -1 0 841)" d="M346.4948 590.1429L346.4948 593.3685" stroke="#000000" stroke-width="0.6054683" fill="none" /><path id="92" transform="matrix(1 0 0 -1 0 841)" d="M368.2023 590.1429L368.2023 593.3685" stroke="#000000" stroke-width="0.6054683" fill="none" /><path id="93" transform="matrix(1 0 0 -1 0 841)" d="M389.861 590.1429L389.861 593.3685" stroke="#000000" stroke-width="0.6054683" fill="none" /><path id="94" transform="matrix(1 0 0 -1 0 841)" d="M411.5686 590.1429L411.5686 593.3685" stroke="#000000" stroke-width="0.6054683" fill="none" /><path id="95" transform="matrix(1 0 0 -1 0 841)" d="M194.6852 593.3685L411.5686 593.3685" stroke="#000000" stroke-width="0.6054683" fill="none" /><path id="96" transform="matrix(1 0 0 -1 0 841)" d="M193.0551 593.3685L194.6852 593.3685" stroke="#800000" stroke-width="0.6054683" fill="none" /><path id="97" transform="matrix(1 0 0 -1 0 841)" d="M191.4716 605.7528L194.6852 605.7528" stroke="#800000" stroke-width="0.6054683" fill="none" /><path id="98" transform="matrix(1 0 0 -1 0 841)" d="M193.0551 618.1364L194.6852 618.1364" stroke="#800000" stroke-width="0.6054683" fill="none" /><path id="99" transform="matrix(1 0 0 -1 0 841)" d="M191.4716 630.5222L194.6852 630.5222" stroke="#800000" stroke-width="0.6054683" fill="none" /><path id="100" transform="matrix(1 0 0 -1 0 841)" d="M193.0551 642.9065L194.6852 642.9065" stroke="#800000" stroke-width="0.6054683" fill="none" /><path id="101" transform="matrix(1 0 0 -1 0 841)" d="M191.4716 655.29L194.6852 655.29" stroke="#800000" stroke-width="0.6054683" fill="none" /><path id="102" transform="matrix(1 0 0 -1 0 841)" d="M193.0551 667.6759L194.6852 667.6759" stroke="#800000" stroke-width="0.6054683" fill="none" /><path id="103" transform="matrix(1 0 0 -1 0 841)" d="M191.4716 680.0602L194.6852 680.0602" stroke="#800000" stroke-width="0.6054683" fill="none" /><path id="104" transform="matrix(1 0 0 -1 0 841)" d="M193.0551 692.4438L194.6852 692.4438" stroke="#800000" stroke-width="0.6054683" fill="none" /><path id="105" transform="matrix(1 0 0 -1 0 841)" d="M191.4716 704.8297L194.6852 704.8297" stroke="#800000" stroke-width="0.6054683" fill="none" /><path id="106" transform="matrix(1 0 0 -1 0 841)" d="M193.0551 717.214L194.6852 717.214" stroke="#800000" stroke-width="0.6054683" fill="none" /><path id="107" transform="matrix(1 0 0 -1 0 841)" d="M191.4716 729.5999L194.6852 729.5999" stroke="#800000" stroke-width="0.6054683" fill="none" /><path id="108" transform="matrix(1 0 0 -1 0 841)" d="M193.0551 741.9834L194.6852 741.9834" stroke="#800000" stroke-width="0.6054683" fill="none" /><path id="109" transform="matrix(1 0 0 -1 0 841)" d="M191.4716 754.3677L194.6852 754.3677" stroke="#800000" stroke-width="0.6054683" fill="none" /><path id="110" transform="matrix(1 0 0 -1 0 841)" d="M194.6852 593.3685L194.6852 754.3677" stroke="#800000" stroke-width="0.6054683" fill="none" /><path id="111" transform="matrix(1 0 0 -1 0 841)" d="M194.6852 754.3677L194.6852 751.1437" stroke="#000000" stroke-width="0.6054683" fill="none" /><path id="112" transform="matrix(1 0 0 -1 0 841)" d="M216.3928 754.3677L216.3928 751.1437" stroke="#000000" stroke-width="0.6054683" fill="none" /><path id="113" transform="matrix(1 0 0 -1 0 841)" d="M238.0538 754.3677L238.0538 751.1437" stroke="#000000" stroke-width="0.6054683" fill="none" /><path id="114" transform="matrix(1 0 0 -1 0 841)" d="M259.7599 754.3677L259.7599 751.1437" stroke="#000000" stroke-width="0.6054683" fill="none" /><path id="115" transform="matrix(1 0 0 -1 0 841)" d="M281.4209 754.3677L281.4209 751.1437" stroke="#000000" stroke-width="0.6054683" fill="none" /><path id="116" transform="matrix(1 0 0 -1 0 841)" d="M303.1277 754.3677L303.1277 751.1437" stroke="#000000" stroke-width="0.6054683" fill="none" /><path id="117" transform="matrix(1 0 0 -1 0 841)" d="M324.8337 754.3677L324.8337 751.1437" stroke="#000000" stroke-width="0.6054683" fill="none" /><path id="118" transform="matrix(1 0 0 -1 0 841)" d="M346.4948 754.3677L346.4948 751.1437" stroke="#000000" stroke-width="0.6054683" fill="none" /><path id="119" transform="matrix(1 0 0 -1 0 841)" d="M368.2023 754.3677L368.2023 751.1437" stroke="#000000" stroke-width="0.6054683" fill="none" /><path id="120" transform="matrix(1 0 0 -1 0 841)" d="M389.861 754.3677L389.861 751.1437" stroke="#000000" stroke-width="0.6054683" fill="none" /><path id="121" transform="matrix(1 0 0 -1 0 841)" d="M411.5686 754.3677L411.5686 751.1437" stroke="#000000" stroke-width="0.6054683" fill="none" /><path id="122" transform="matrix(1 0 0 -1 0 841)" d="M194.6852 754.3677L411.5686 754.3677" stroke="#000000" stroke-width="0.6054683" fill="none" /><g clip-path="url(#11)"><path id="123" transform="matrix(1 0 0 -1 0 841)" d="M215.9271 681.2283L206.0052 618.2298" stroke="#800000" stroke-width="0.8383406" fill="none" /><path id="124" transform="matrix(1 0 0 -1 0 841)" d="M226.6415 632.7183L216.9517 681.2283" stroke="#800000" stroke-width="0.8383406" fill="none" /><path id="125" transform="matrix(1 0 0 -1 0 841)" d="M237.6812 710.4366L227.573 632.7183" stroke="#800000" stroke-width="0.8383406" fill="none" /><path id="126" transform="matrix(1 0 0 -1 0 841)" d="M248.5354 633.1855L238.4264 710.4366" stroke="#800000" stroke-width="0.8383406" fill="none" /><path id="127" transform="matrix(1 0 0 -1 0 841)" d="M259.0612 671.4606L249.6058 633.1388" stroke="#800000" stroke-width="0.8383406" fill="none" /><path id="128" transform="matrix(1 0 0 -1 0 841)" d="M269.9146 634.634L260.4585 671.4606" stroke="#800000" stroke-width="0.8383406" fill="none" /><path id="129" transform="matrix(1 0 0 -1 0 841)" d="M281.0017 705.3904L271.0324 634.6807" stroke="#800000" stroke-width="0.8383406" fill="none" /><path id="130" transform="matrix(1 0 0 -1 0 841)" d="M291.8551 635.0545L281.8393 705.3904" stroke="#800000" stroke-width="0.8383406" fill="none" /><path id="131" transform="matrix(1 0 0 -1 0 841)" d="M302.3825 670.2458L293.0195 635.0078" stroke="#800000" stroke-width="0.8383406" fill="none" /><path id="132" transform="matrix(1 0 0 -1 0 841)" d="M313.2367 635.0078L303.8729 670.2458" stroke="#800000" stroke-width="0.8383406" fill="none" /><path id="133" transform="matrix(1 0 0 -1 0 841)" d="M324.4146 705.3904L314.401 635.0545" stroke="#800000" stroke-width="0.8383406" fill="none" /><path id="134" transform="matrix(1 0 0 -1 0 841)" d="M335.2214 634.6807L325.2552 705.3904" stroke="#800000" stroke-width="0.8383406" fill="none" /><path id="135" transform="matrix(1 0 0 -1 0 841)" d="M345.7961 671.4606L336.3392 634.634" stroke="#800000" stroke-width="0.8383406" fill="none" /><path id="136" transform="matrix(1 0 0 -1 0 841)" d="M356.6495 633.1388L347.1934 671.4606" stroke="#800000" stroke-width="0.8383406" fill="none" /><path id="137" transform="matrix(1 0 0 -1 0 841)" d="M367.8297 710.4366L357.7215 633.1855" stroke="#800000" stroke-width="0.8383406" fill="none" /><path id="138" transform="matrix(1 0 0 -1 0 841)" d="M378.6831 632.7183L368.575 710.4366" stroke="#800000" stroke-width="0.8383406" fill="none" /><path id="139" transform="matrix(1 0 0 -1 0 841)" d="M389.3021 681.2283L379.6146 632.7183" stroke="#800000" stroke-width="0.8383406" fill="none" /><path id="140" transform="matrix(1 0 0 -1 0 841)" d="M400.2495 618.2298L390.3291 681.2283" stroke="#800000" stroke-width="0.8383406" fill="none" /><path id="141" transform="matrix(1 0 0 -1 0 841)" d="M203.6291 615.473C 203.6291 614.3984 204.4682 613.5574 205.4921 613.5574C 206.564 613.5574 207.4024 614.3984 207.4024 615.473C 207.4024 616.501 206.564 617.342 205.4921 617.342C 204.4682 617.342 203.6291 616.501 203.6291 615.473z" stroke="#800000" stroke-width="0.2794469" fill="#800000" fill-rule="evenodd" /><path id="142" transform="matrix(1 0 0 -1 0 841)" d="M214.4832 684.0801C 214.4832 683.0039 215.3216 682.1628 216.3462 682.1628C 217.4174 682.1628 218.2558 683.0039 218.2558 684.0801C 218.2558 685.108 217.4174 685.9491 216.3462 685.9491C 215.3216 685.9491 214.4832 685.108 214.4832 684.0801z" stroke="#800000" stroke-width="0.2794469" fill="#800000" fill-rule="evenodd" /><path id="143" transform="matrix(1 0 0 -1 0 841)" d="M225.2901 629.9615C 225.2901 628.8868 226.1292 628.0458 227.1531 628.0458C 228.2251 628.0458 229.0634 628.8868 229.0634 629.9615C 229.0634 630.9894 228.2251 631.8305 227.1531 631.8305C 226.1292 631.8305 225.2901 630.9894 225.2901 629.9615z" stroke="#800000" stroke-width="0.2794469" fill="#800000" fill-rule="evenodd" /><path id="144" transform="matrix(1 0 0 -1 0 841)" d="M236.1443 713.2891C 236.1443 712.2145 236.9826 711.3734 238.0072 711.3734C 239.0785 711.3734 239.9168 712.2145 239.9168 713.2891C 239.9168 714.317 239.0785 715.1581 238.0072 715.1581C 236.9826 715.1581 236.1443 714.317 236.1443 713.2891z" stroke="#800000" stroke-width="0.2794469" fill="#800000" fill-rule="evenodd" /><path id="145" transform="matrix(1 0 0 -1 0 841)" d="M246.9961 630.4288C 246.9961 629.3541 247.8368 628.5131 248.8614 628.5131C 249.9326 628.5131 250.7702 629.3541 250.7702 630.4288C 250.7702 631.4567 249.9326 632.2977 248.8614 632.2977C 247.8368 632.2977 246.9961 631.4567 246.9961 630.4288z" stroke="#800000" stroke-width="0.2794469" fill="#800000" fill-rule="evenodd" /><path id="146" transform="matrix(1 0 0 -1 0 841)" d="M257.8503 674.2664C 257.8503 673.1894 258.6879 672.3484 259.7133 672.3484C 260.786 672.3484 261.6244 673.1894 261.6244 674.2664C 261.6244 675.2944 260.786 676.1354 259.7133 676.1354C 258.6879 676.1354 257.8503 675.2944 257.8503 674.2664z" stroke="#800000" stroke-width="0.2794469" fill="#800000" fill-rule="evenodd" /><path id="147" transform="matrix(1 0 0 -1 0 841)" d="M268.7037 631.924C 268.7037 630.8493 269.5421 630.0082 270.5667 630.0082C 271.6379 630.0082 272.4763 630.8493 272.4763 631.924C 272.4763 632.9519 271.6379 633.7929 270.5667 633.7929C 269.5421 633.7929 268.7037 632.9519 268.7037 631.924z" stroke="#800000" stroke-width="0.2794469" fill="#800000" fill-rule="evenodd" /><path id="148" transform="matrix(1 0 0 -1 0 841)" d="M279.5106 708.2405C 279.5106 707.1659 280.3497 706.3248 281.3735 706.3248C 282.4455 706.3248 283.2838 707.1659 283.2838 708.2405C 283.2838 709.2684 282.4455 710.1095 281.3735 710.1095C 280.3497 710.1095 279.5106 709.2684 279.5106 708.2405z" stroke="#800000" stroke-width="0.2794469" fill="#800000" fill-rule="evenodd" /><path id="149" transform="matrix(1 0 0 -1 0 841)" d="M290.3647 632.2977C 290.3647 631.2231 291.2031 630.382 292.2277 630.382C 293.2989 630.382 294.1373 631.2231 294.1373 632.2977C 294.1373 633.3257 293.2989 634.1667 292.2277 634.1667C 291.2031 634.1667 290.3647 633.3257 290.3647 632.2977z" stroke="#800000" stroke-width="0.2794469" fill="#800000" fill-rule="evenodd" /><path id="150" transform="matrix(1 0 0 -1 0 841)" d="M301.2181 673.0493C 301.2181 671.9746 302.0565 671.1335 303.0811 671.1335C 304.1523 671.1335 304.9907 671.9746 304.9907 673.0493C 304.9907 674.0795 304.1523 674.9205 303.0811 674.9205C 302.0565 674.9205 301.2181 674.0795 301.2181 673.0493z" stroke="#800000" stroke-width="0.2794469" fill="#800000" fill-rule="evenodd" /><path id="151" transform="matrix(1 0 0 -1 0 841)" d="M312.07 632.2977C 312.07 631.2231 312.9106 630.382 313.9353 630.382C 315.0065 630.382 315.8448 631.2231 315.8448 632.2977C 315.8448 633.3257 315.0065 634.1667 313.9353 634.1667C 312.9106 634.1667 312.07 633.3257 312.07 632.2977z" stroke="#800000" stroke-width="0.2794469" fill="#800000" fill-rule="evenodd" /><path id="152" transform="matrix(1 0 0 -1 0 841)" d="M322.9242 708.2405C 322.9242 707.1659 323.7625 706.3248 324.7871 706.3248C 325.8599 706.3248 326.6982 707.1659 326.6982 708.2405C 326.6982 709.2684 325.8599 710.1095 324.7871 710.1095C 323.7625 710.1095 322.9242 709.2684 322.9242 708.2405z" stroke="#800000" stroke-width="0.2794469" fill="#800000" fill-rule="evenodd" /><path id="153" transform="matrix(1 0 0 -1 0 841)" d="M333.731 631.924C 333.731 630.8493 334.5701 630.0082 335.594 630.0082C 336.666 630.0082 337.5035 630.8493 337.5035 631.924C 337.5035 632.9519 336.666 633.7929 335.594 633.7929C 334.5701 633.7929 333.731 632.9519 333.731 631.924z" stroke="#800000" stroke-width="0.2794469" fill="#800000" fill-rule="evenodd" /><path id="154" transform="matrix(1 0 0 -1 0 841)" d="M344.5852 674.2664C 344.5852 673.1894 345.4235 672.3484 346.4482 672.3484C 347.5194 672.3484 348.3577 673.1894 348.3577 674.2664C 348.3577 675.2944 347.5194 676.1354 346.4482 676.1354C 345.4235 676.1354 344.5852 675.2944 344.5852 674.2664z" stroke="#800000" stroke-width="0.2794469" fill="#800000" fill-rule="evenodd" /><path id="155" transform="matrix(1 0 0 -1 0 841)" d="M355.4386 630.4288C 355.4386 629.3541 356.2769 628.5131 357.3016 628.5131C 358.3728 628.5131 359.2111 629.3541 359.2111 630.4288C 359.2111 631.4567 358.3728 632.2977 357.3016 632.2977C 356.2769 632.2977 355.4386 631.4567 355.4386 630.4288z" stroke="#800000" stroke-width="0.2794469" fill="#800000" fill-rule="evenodd" /><path id="156" transform="matrix(1 0 0 -1 0 841)" d="M366.2928 713.2891C 366.2928 712.2145 367.1311 711.3734 368.1558 711.3734C 369.227 711.3734 370.0653 712.2145 370.0653 713.2891C 370.0653 714.317 369.227 715.1581 368.1558 715.1581C 367.1311 715.1581 366.2928 714.317 366.2928 713.2891z" stroke="#800000" stroke-width="0.2794469" fill="#800000" fill-rule="evenodd" /><path id="157" transform="matrix(1 0 0 -1 0 841)" d="M377.147 629.9615C 377.147 628.8868 377.9845 628.0458 379.0099 628.0458C 380.0804 628.0458 380.9187 628.8868 380.9187 629.9615C 380.9187 630.9894 380.0804 631.8305 379.0099 631.8305C 377.9845 631.8305 377.147 630.9894 377.147 629.9615z" stroke="#800000" stroke-width="0.2794469" fill="#800000" fill-rule="evenodd" /><path id="158" transform="matrix(1 0 0 -1 0 841)" d="M387.9515 684.0801C 387.9515 683.0039 388.7906 682.1628 389.8145 682.1628C 390.888 682.1628 391.7263 683.0039 391.7263 684.0801C 391.7263 685.108 390.888 685.9491 389.8145 685.9491C 388.7906 685.9491 387.9515 685.108 387.9515 684.0801z" stroke="#800000" stroke-width="0.2794469" fill="#800000" fill-rule="evenodd" /><path id="159" transform="matrix(1 0 0 -1 0 841)" d="M398.8057 615.473C 398.8057 614.3984 399.644 613.5574 400.6686 613.5574C 401.7399 613.5574 402.5782 614.3984 402.5782 615.473C 402.5782 616.501 401.7399 617.342 400.6686 617.342C 399.644 617.342 398.8057 616.501 398.8057 615.473z" stroke="#800000" stroke-width="0.2794469" fill="#800000" fill-rule="evenodd" /></g><g clip-path="url(#12)"><path id="160" transform="matrix(1 0 0 -1 0 841)" d="M216.0202 663.4224L205.912 735.5338" stroke="#0000FF" stroke-width="0.4191703" fill="none" /><path id="161" transform="matrix(1 0 0 -1 0 841)" d="M226.6873 715.8123L216.9051 663.4224" stroke="#0000FF" stroke-width="0.4191703" fill="none" /><path id="162" transform="matrix(1 0 0 -1 0 841)" d="M237.7744 618.8863L227.4799 715.7655" stroke="#0000FF" stroke-width="0.4191703" fill="none" /><path id="163" transform="matrix(1 0 0 -1 0 841)" d="M248.582 711.7939L238.3798 618.8863" stroke="#0000FF" stroke-width="0.4191703" fill="none" /><path id="164" transform="matrix(1 0 0 -1 0 841)" d="M259.201 664.6373L249.4669 711.8406" stroke="#0000FF" stroke-width="0.4191703" fill="none" /><path id="165" transform="matrix(1 0 0 -1 0 841)" d="M270.0078 709.3152L260.3653 664.6373" stroke="#0000FF" stroke-width="0.4191703" fill="none" /><path id="166" transform="matrix(1 0 0 -1 0 841)" d="M281.0948 621.4561L270.9393 709.2684" stroke="#0000FF" stroke-width="0.4191703" fill="none" /><path id="167" transform="matrix(1 0 0 -1 0 841)" d="M291.9482 708.7078L281.7469 621.4561" stroke="#0000FF" stroke-width="0.4191703" fill="none" /><path id="168" transform="matrix(1 0 0 -1 0 841)" d="M302.5222 665.5733L292.8798 708.7545" stroke="#0000FF" stroke-width="0.4191703" fill="none" /><path id="169" transform="matrix(1 0 0 -1 0 841)" d="M313.3764 708.8012L303.7339 665.5733" stroke="#0000FF" stroke-width="0.4191703" fill="none" /><path id="170" transform="matrix(1 0 0 -1 0 841)" d="M324.5077 621.4561L314.3079 708.7545" stroke="#0000FF" stroke-width="0.4191703" fill="none" /><path id="171" transform="matrix(1 0 0 -1 0 841)" d="M335.3145 709.2684L325.1597 621.4561" stroke="#0000FF" stroke-width="0.4191703" fill="none" /><path id="172" transform="matrix(1 0 0 -1 0 841)" d="M345.8893 664.6373L336.246 709.3152" stroke="#0000FF" stroke-width="0.4191703" fill="none" /><path id="173" transform="matrix(1 0 0 -1 0 841)" d="M356.79 711.8406L347.0536 664.6373" stroke="#0000FF" stroke-width="0.4191703" fill="none" /><path id="174" transform="matrix(1 0 0 -1 0 841)" d="M367.8763 618.8863L357.6742 711.7939" stroke="#0000FF" stroke-width="0.4191703" fill="none" /><path id="175" transform="matrix(1 0 0 -1 0 841)" d="M378.7771 715.7655L368.4818 618.8863" stroke="#0000FF" stroke-width="0.4191703" fill="none" /><path id="176" transform="matrix(1 0 0 -1 0 841)" d="M389.3487 663.4224L379.5681 715.8123" stroke="#0000FF" stroke-width="0.4191703" fill="none" /><path id="177" transform="matrix(1 0 0 -1 0 841)" d="M400.3426 735.5338L390.2359 663.4224" stroke="#0000FF" stroke-width="0.4191703" fill="none" /><path id="178" transform="matrix(1 0 0 -1 0 841)" d="M205.5394 740.9554L207.775 737.0291L207.775 737.0291L203.2572 737.0291L203.2572 737.0291L205.5394 740.9554z" stroke="#0000FF" stroke-width="0.2794469" fill="#0000FF" fill-rule="evenodd" /><path id="179" transform="matrix(1 0 0 -1 0 841)" d="M216.3928 663.2355L218.6284 659.3107L218.6284 659.3107L214.1107 659.3107L214.1107 659.3107L216.3928 663.2355z" stroke="#0000FF" stroke-width="0.2794469" fill="#0000FF" fill-rule="evenodd" /><path id="180" transform="matrix(1 0 0 -1 0 841)" d="M227.2004 721.2338L229.436 717.3074L229.436 717.3074L224.9183 717.3074L224.9183 717.3074L227.2004 721.2338z" stroke="#0000FF" stroke-width="0.2794469" fill="#0000FF" fill-rule="evenodd" /><path id="181" transform="matrix(1 0 0 -1 0 841)" d="M238.0538 618.6526L240.2894 614.7255L240.2894 614.7255L235.7717 614.7255L235.7717 614.7255L238.0538 618.6526z" stroke="#0000FF" stroke-width="0.2794469" fill="#0000FF" fill-rule="evenodd" /><path id="182" transform="matrix(1 0 0 -1 0 841)" d="M248.9072 717.2607L251.1436 713.3358L251.1436 713.3358L246.6235 713.3358L246.6235 713.3358L248.9072 717.2607z" stroke="#0000FF" stroke-width="0.2794469" fill="#0000FF" fill-rule="evenodd" /><path id="183" transform="matrix(1 0 0 -1 0 841)" d="M259.7599 664.4504L261.997 660.5255L261.997 660.5255L257.4777 660.5255L257.4777 660.5255L259.7599 664.4504z" stroke="#0000FF" stroke-width="0.2794469" fill="#0000FF" fill-rule="evenodd" /><path id="184" transform="matrix(1 0 0 -1 0 841)" d="M270.6133 714.7375L272.8488 710.8104L272.8488 710.8104L268.3311 710.8104L268.3311 710.8104L270.6133 714.7375z" stroke="#0000FF" stroke-width="0.2794469" fill="#0000FF" fill-rule="evenodd" /><path id="185" transform="matrix(1 0 0 -1 0 841)" d="M281.4209 621.2225L283.6564 617.2953L283.6564 617.2953L279.1387 617.2953L279.1387 617.2953L281.4209 621.2225z" stroke="#0000FF" stroke-width="0.2794469" fill="#0000FF" fill-rule="evenodd" /><path id="186" transform="matrix(1 0 0 -1 0 841)" d="M292.2743 714.1769L294.5099 710.2497L294.5099 710.2497L289.9921 710.2497L289.9921 710.2497L292.2743 714.1769z" stroke="#0000FF" stroke-width="0.2794469" fill="#0000FF" fill-rule="evenodd" /><path id="187" transform="matrix(1 0 0 -1 0 841)" d="M303.1277 665.3864L305.364 661.46L305.364 661.46L300.8455 661.46L300.8455 661.46L303.1277 665.3864z" stroke="#0000FF" stroke-width="0.2794469" fill="#0000FF" fill-rule="evenodd" /><path id="188" transform="matrix(1 0 0 -1 0 841)" d="M313.9819 714.2236L316.2175 710.2964L316.2175 710.2964L311.6974 710.2964L311.6974 710.2964L313.9819 714.2236z" stroke="#0000FF" stroke-width="0.2794469" fill="#0000FF" fill-rule="evenodd" /><path id="189" transform="matrix(1 0 0 -1 0 841)" d="M324.8337 621.2225L327.0709 617.2953L327.0709 617.2953L322.5516 617.2953L322.5516 617.2953L324.8337 621.2225z" stroke="#0000FF" stroke-width="0.2794469" fill="#0000FF" fill-rule="evenodd" /><path id="190" transform="matrix(1 0 0 -1 0 841)" d="M335.6406 714.7375L337.8762 710.8104L337.8762 710.8104L333.3584 710.8104L333.3584 710.8104L335.6406 714.7375z" stroke="#0000FF" stroke-width="0.2794469" fill="#0000FF" fill-rule="evenodd" /><path id="191" transform="matrix(1 0 0 -1 0 841)" d="M346.4948 664.4504L348.7303 660.5255L348.7303 660.5255L344.2126 660.5255L344.2126 660.5255L346.4948 664.4504z" stroke="#0000FF" stroke-width="0.2794469" fill="#0000FF" fill-rule="evenodd" /><path id="192" transform="matrix(1 0 0 -1 0 841)" d="M357.3481 717.2607L359.5845 713.3358L359.5845 713.3358L355.066 713.3358L355.066 713.3358L357.3481 717.2607z" stroke="#0000FF" stroke-width="0.2794469" fill="#0000FF" fill-rule="evenodd" /><path id="193" transform="matrix(1 0 0 -1 0 841)" d="M368.2023 618.6526L370.4379 614.7255L370.4379 614.7255L365.9202 614.7255L365.9202 614.7255L368.2023 618.6526z" stroke="#0000FF" stroke-width="0.2794469" fill="#0000FF" fill-rule="evenodd" /><path id="194" transform="matrix(1 0 0 -1 0 841)" d="M379.0557 721.2338L381.2913 717.3074L381.2913 717.3074L376.772 717.3074L376.772 717.3074L379.0557 721.2338z" stroke="#0000FF" stroke-width="0.2794469" fill="#0000FF" fill-rule="evenodd" /><path id="195" transform="matrix(1 0 0 -1 0 841)" d="M389.861 663.2355L392.0989 659.3107L392.0989 659.3107L387.5789 659.3107L387.5789 659.3107L389.861 663.2355z" stroke="#0000FF" stroke-width="0.2794469" fill="#0000FF" fill-rule="evenodd" /><path id="196" transform="matrix(1 0 0 -1 0 841)" d="M400.7152 740.9554L402.9523 737.0291L402.9523 737.0291L398.433 737.0291L398.433 737.0291L400.7152 740.9554z" stroke="#0000FF" stroke-width="0.2794469" fill="#0000FF" fill-rule="evenodd" /></g><path id="197" transform="matrix(1 0 0 -1 0 841)" d="M166.6435 638.7238L160.5075 638.7238L160.5075 638.7238L160.5075 641.0332C 160.5075 641.5035 160.5695 641.8807 160.6937 642.1649C 160.8179 642.449 161.009 642.6716 161.2672 642.8325C 161.5253 642.9935 161.7952 643.074 162.0771 643.074C 162.6016 643.074 163.0941 642.7899 163.3788 642.2131C 163.5964 642.9578 164.1503 643.3721 164.8646 643.3721C 165.152 643.3721 165.4192 643.3112 165.6662 643.1895C 165.9131 643.0677 166.1036 642.9172 166.2375 642.738C 166.3714 642.5589 166.4726 642.3342 166.541 642.0641C 166.6093 641.7939 166.6435 641.463 166.6435 641.071zM163.0858 639.5384L163.0858 640.8694C 163.0858 641.2306 163.0621 641.4895 163.0146 641.6463C 162.8918 642.0606 162.603 642.272 162.1733 642.272C 161.9696 642.272 161.7903 642.223 161.6355 642.125C 161.4806 642.027 161.3746 641.887 161.3174 641.7051C 161.2602 641.5231 161.2316 641.211 161.2316 640.7687L161.2316 640.7687L161.2316 639.5384zM165.9194 639.5384L165.9194 641.071C 165.9194 641.3342 165.9096 641.5189 165.8901 641.6253C 165.8566 641.8129 165.8008 641.9696 165.7227 642.0956C 165.6445 642.2216 165.5308 642.3251 165.3815 642.4063C 165.2323 642.4875 165.06 642.5281 164.8646 642.5281C 164.6358 642.5281 164.437 642.4693 164.2682 642.3517C 164.0994 642.2341 163.9808 642.0711 163.9124 641.8625C 163.8441 641.654 163.8099 641.3538 163.8099 640.9619L163.8099 640.9619L163.8099 639.5384z" stroke="none" fill="#800000" fill-rule="evenodd" /><path id="198" transform="matrix(1 0 0 -1 0 841)" d="M164.421 644.1154C 163.5978 644.1154 162.9881 644.345 162.5919 644.804C 162.2626 645.1876 162.098 645.655 162.098 646.2065C 162.098 647.4326 162.9463 648.2935 164.3582 648.2935C 164.9302 648.2935 165.3802 648.2074 165.708 648.0352C 166.0359 647.863 166.2905 647.6125 166.4719 647.2836C 166.6533 646.9547 166.744 646.5956 166.744 646.2065C 166.744 644.958 165.9222 644.1154 164.421 644.1154zM164.421 644.8922C 165.5594 644.8922 166.1245 645.4507 166.1245 646.2065C 166.1245 646.9567 165.5622 647.5166 164.3958 647.5166C 163.2964 647.5166 162.7216 646.9512 162.7216 646.2065C 162.7216 645.4507 163.2825 644.8922 164.421 644.8922z" stroke="none" fill="#800000" fill-rule="evenodd" /><path id="199" transform="matrix(1 0 0 -1 0 841)" d="M166.6435 649.1781L162.1984 649.1781L162.1984 649.1781L162.1984 649.8584L162.1984 649.8584L162.8304 649.8584C 162.3421 650.1859 162.098 650.659 162.098 651.2776C 162.098 651.5464 162.1461 651.7935 162.2424 652.0188C 162.3387 652.2441 162.4649 652.4128 162.6212 652.5248C 162.7774 652.6367 162.963 652.7151 163.1779 652.7599C 163.3174 652.7879 163.5615 652.8019 163.9103 652.8019L163.9103 652.8019L166.6435 652.8019L166.6435 652.8019L166.6435 652.0461L166.6435 652.0461L163.9396 652.0461C 163.6327 652.0461 163.4032 652.0167 163.2511 651.9579C 163.099 651.8991 162.9776 651.7948 162.887 651.6451C 162.7963 651.4953 162.7509 651.3196 162.7509 651.1181C 162.7509 650.4742 163.0774 649.934 164.2159 649.934L164.2159 649.934L166.6435 649.934z" stroke="none" fill="#800000" fill-rule="evenodd" /><path id="200" transform="matrix(1 0 0 -1 0 841)" d="M166.6435 656.8527L166.0826 656.8527C 166.5235 656.5699 166.744 656.1542 166.744 655.6055C 166.744 655.25 166.6463 654.9232 166.451 654.6251C 166.2556 654.327 165.9829 654.096 165.6327 653.9323C 165.2825 653.7685 164.88 653.6866 164.4251 653.6866C 163.9815 653.6866 163.579 653.7607 163.2176 653.9091C 162.8563 654.0575 162.5793 654.28 162.3868 654.5768C 162.1942 654.8735 162.098 655.2053 162.098 655.572C 162.098 656.1094 162.3463 656.5391 162.7091 656.8022L162.7091 656.8022L160.5075 656.8022L160.5075 656.8022L160.5075 657.5539L160.5075 657.5539L166.6435 657.5539zM164.4251 654.4634C 165.5636 654.4634 166.1245 655.0219 166.1245 655.6769C 166.1245 656.3376 165.5929 656.8652 164.4879 656.8652C 163.2713 656.8652 162.7216 656.332 162.7216 655.6433C 162.7216 654.9715 163.2476 654.4634 164.4251 654.4634z" stroke="none" fill="#800000" fill-rule="evenodd" /><path id="201" transform="matrix(1 0 0 -1 0 841)" d="" stroke="none" fill="#800000" fill-rule="evenodd" /><path id="202" transform="matrix(1 0 0 -1 0 841)" d="M166.6435 661.0804L160.5075 661.0804L160.5075 661.0804L160.5075 661.8362L160.5075 661.8362L166.6435 661.8362z" stroke="none" fill="#800000" fill-rule="evenodd" /><path id="203" transform="matrix(1 0 0 -1 0 841)" d="M165.212 666.059L165.3083 666.8401C 166.218 666.5938 166.744 665.9149 166.744 664.8792C 166.744 663.5746 165.9041 662.7544 164.4586 662.7544C 162.963 662.7544 162.098 663.6054 162.098 664.8371C 162.098 666.0297 162.9449 666.8652 164.4126 666.8652C 164.4572 666.8652 164.5242 666.8639 164.6135 666.8611L164.6135 666.8611L164.6135 663.5354C 165.5901 663.5914 166.1245 664.1387 166.1245 664.8833C 166.1245 665.4376 165.8482 665.8295 165.212 666.059zM163.994 663.5774L163.994 666.0674C 163.6201 666.0339 163.3397 665.9387 163.1527 665.7819C 162.8625 665.5411 162.7174 665.229 162.7174 664.8455C 162.7174 664.1513 163.2183 663.6278 163.994 663.5774z" stroke="none" fill="#800000" fill-rule="evenodd" /><path id="204" transform="matrix(1 0 0 -1 0 841)" d="M166.6435 667.7877L162.1984 667.7877L162.1984 667.7877L162.1984 668.468L162.1984 668.468L162.8304 668.468C 162.3421 668.7955 162.098 669.2686 162.098 669.8873C 162.098 670.156 162.1461 670.4031 162.2424 670.6284C 162.3387 670.8538 162.4649 671.0224 162.6212 671.1344C 162.7774 671.2463 162.963 671.3247 163.1779 671.3695C 163.3174 671.3975 163.5615 671.4115 163.9103 671.4115L163.9103 671.4115L166.6435 671.4115L166.6435 671.4115L166.6435 670.6557L166.6435 670.6557L163.9396 670.6557C 163.6327 670.6557 163.4032 670.6263 163.2511 670.5675C 163.099 670.5087 162.9776 670.4044 162.887 670.2546C 162.7963 670.1049 162.7509 669.9293 162.7509 669.7277C 162.7509 669.0839 163.0774 668.5436 164.2159 668.5436L164.2159 668.5436L166.6435 668.5436z" stroke="none" fill="#800000" fill-rule="evenodd" /><path id="205" transform="matrix(1 0 0 -1 0 841)" d="M167.0118 672.3962L167.1207 673.131C 167.3467 673.1618 167.5113 673.2472 167.6145 673.3871C 167.7541 673.5747 167.8238 673.8308 167.8238 674.1556C 167.8238 674.8554 167.5308 675.2179 167.0286 675.3523C 166.8751 675.3915 166.5528 675.4097 166.0617 675.4069C 166.4496 675.0765 166.6435 674.665 166.6435 674.1724C 166.6435 672.9462 165.6292 672.245 164.3958 672.245C 163.9717 672.245 163.5804 672.322 163.2218 672.476C 162.8632 672.6299 162.5863 672.8531 162.391 673.1457C 162.1956 673.4382 162.098 673.7819 162.098 674.1766C 162.098 674.7028 162.31 675.1367 162.7342 675.4783L162.7342 675.4783L162.1984 675.4783L162.1984 675.4783L162.1984 676.1753L162.1984 676.1753L166.0408 676.1753C 166.7328 676.1753 167.2232 676.1046 167.512 675.9633C 167.8008 675.8219 168.0289 675.5979 168.1963 675.2914C 168.3638 674.9849 168.4475 674.6077 168.4475 674.1598C 168.4475 673.096 167.9717 672.3738 167.0118 672.3962zM164.3414 673.0219C 165.5078 673.0219 166.0199 673.5439 166.0199 674.2438C 166.0199 674.938 165.505 675.4698 164.3665 675.4698C 163.2783 675.4698 162.7216 674.9142 162.7216 674.2311C 162.7216 673.5593 163.2699 673.0219 164.3414 673.0219z" stroke="none" fill="#800000" fill-rule="evenodd" /><path id="206" transform="matrix(1 0 0 -1 0 841)" d="M165.9696 678.9664L166.6351 679.0755C 166.6798 678.8628 166.7021 678.6724 166.7021 678.5045C 166.7021 678.2301 166.6588 678.0174 166.5723 677.8662C 166.4858 677.715 166.3721 677.6086 166.2312 677.5471C 166.0903 677.4855 165.7938 677.4547 165.3418 677.4547L165.3418 677.4547L162.7844 677.4547L162.7844 677.4547L162.7844 676.9004L162.7844 676.9004L162.1984 676.9004L162.1984 676.9004L162.1984 677.4547L162.1984 677.4547L161.0976 677.4547L161.0976 677.4547L160.6456 678.2063L160.6456 678.2063L162.1984 678.2063L162.1984 678.2063L162.1984 678.9664L162.1984 678.9664L162.7844 678.9664L162.7844 678.9664L162.7844 678.2063L162.7844 678.2063L165.3836 678.2063C 165.5985 678.2063 165.7366 678.2196 165.798 678.2462C 165.8594 678.2728 165.9082 678.3162 165.9445 678.3764C 165.9808 678.4366 165.9989 678.5226 165.9989 678.6346C 165.9989 678.7186 165.9892 678.8292 165.9696 678.9664z" stroke="none" fill="#800000" fill-rule="evenodd" /><path id="207" transform="matrix(1 0 0 -1 0 841)" d="M166.6435 679.7068L160.5075 679.7068L160.5075 679.7068L160.5075 680.4626L160.5075 680.4626L162.7091 680.4626C 162.3017 680.8154 162.098 681.2605 162.098 681.798C 162.098 682.1283 162.1629 682.4152 162.2926 682.6588C 162.4224 682.9023 162.6016 683.0765 162.8304 683.1815C 163.0593 683.2865 163.3913 683.339 163.8266 683.339L163.8266 683.339L166.6435 683.339L166.6435 683.339L166.6435 682.5832L166.6435 682.5832L163.8266 682.5832C 163.0732 682.5832 162.7467 682.2416 162.7467 681.6426C 162.7467 681.4186 162.8046 681.208 162.9204 681.0106C 163.0362 680.8133 163.1932 680.6726 163.3913 680.5886C 163.5894 680.5046 163.8629 680.4626 164.2117 680.4626L164.2117 680.4626L166.6435 680.4626z" stroke="none" fill="#800000" fill-rule="evenodd" /><path id="208" transform="matrix(1 0 0 -1 0 841)" d="" stroke="none" fill="#800000" fill-rule="evenodd" /><path id="209" transform="matrix(1 0 0 -1 0 841)" d="M168.4475 688.289C 167.3983 687.4548 165.9278 686.7983 164.421 686.7983C 163.7569 686.7983 163.1207 686.9061 162.5123 687.1216C 161.8064 687.3736 161.1032 687.7627 160.4028 688.289L160.4028 688.289L160.4028 688.8307C 160.9832 688.4919 161.3976 688.268 161.6459 688.1588C 162.031 687.988 162.4328 687.8537 162.8514 687.7557C 163.3732 687.6354 163.8978 687.5752 164.4252 687.5752C 165.7673 687.5752 167.1081 687.9937 168.4475 688.8307z" stroke="none" fill="#800000" fill-rule="evenodd" /><path id="210" transform="matrix(1 0 0 -1 0 841)" d="M164.7433 693.0609L164.7433 690.8563L164.7433 690.8563L165.639 690.47C 165.8594 690.3749 166.024 690.3273 166.1329 690.3273C 166.3059 690.3273 166.4496 690.4379 166.4886 690.9865L166.4886 690.9865L166.6435 690.9865L166.6435 690.9865L166.6435 689.1935L166.6435 689.1935L166.4886 689.1935C 166.4468 689.4315 166.3924 689.5854 166.3254 689.6554C 166.1915 689.7982 165.9194 689.9564 165.5092 690.1299L165.5092 690.1299L160.8381 692.1329L160.8381 692.1329L160.8381 692.2798L160.8381 692.2798L165.5594 694.2618C 166.3184 694.5809 166.4607 694.7755 166.4886 695.2401L166.4886 695.2401L166.6435 695.2401L166.6435 695.2401L166.6435 692.9937L166.6435 692.9937L166.4886 692.9937C 166.4663 693.4471 166.3254 693.5731 166.1412 693.5731C 166.0185 693.5731 165.8245 693.5172 165.5594 693.4052zM164.4335 692.9432L162.1398 691.9775L162.1398 691.9775L164.4335 690.9865zM159.5238 692.1959C 159.5238 692.6437 159.8824 693.0021 160.3233 693.0021C 160.7698 693.0021 161.1269 692.6437 161.1269 692.1959C 161.1269 691.7535 160.7698 691.3938 160.3233 691.3938C 159.8824 691.3938 159.5238 691.7479 159.5238 692.1959zM159.8127 692.1959C 159.8127 691.9103 160.0387 691.6836 160.3233 691.6836C 160.6023 691.6836 160.8339 691.9103 160.8339 692.1959C 160.8339 692.4814 160.6023 692.7081 160.3233 692.7081C 160.0387 692.7081 159.8127 692.4814 159.8127 692.1959z" stroke="none" fill="#800000" fill-rule="evenodd" /><path id="211" transform="matrix(1 0 0 -1 0 841)" d="M168.4475 696.4054L168.4475 695.8637C 167.1081 696.7007 165.7673 697.1193 164.4252 697.1193C 163.9006 697.1193 163.3802 697.059 162.8639 696.9387C 162.4454 696.8435 162.0436 696.7105 161.6585 696.5397C 161.4074 696.4305 160.9888 696.2052 160.4028 695.8637L160.4028 695.8637L160.4028 696.4054C 161.1032 696.9316 161.8064 697.3208 162.5123 697.5728C 163.1207 697.7883 163.7569 697.8961 164.421 697.8961C 165.9278 697.8961 167.3983 697.234 168.4475 696.4054z" stroke="none" fill="#800000" fill-rule="evenodd" /><path id="245" transform="matrix(1 0 0 -1 0 841)" d="M411.5686 593.3685L408.355 593.3685" stroke="#0000FF" stroke-width="0.6054683" fill="none" /><path id="246" transform="matrix(1 0 0 -1 0 841)" d="M411.5686 604.8651L409.9385 604.8651" stroke="#0000FF" stroke-width="0.6054683" fill="none" /><path id="247" transform="matrix(1 0 0 -1 0 841)" d="M411.5686 616.3608L408.355 616.3608" stroke="#0000FF" stroke-width="0.6054683" fill="none" /><path id="248" transform="matrix(1 0 0 -1 0 841)" d="M411.5686 627.8589L409.9385 627.8589" stroke="#0000FF" stroke-width="0.6054683" fill="none" /><path id="249" transform="matrix(1 0 0 -1 0 841)" d="M411.5686 639.3555L408.355 639.3555" stroke="#0000FF" stroke-width="0.6054683" fill="none" /><path id="250" transform="matrix(1 0 0 -1 0 841)" d="M411.5686 650.8513L409.9385 650.8513" stroke="#0000FF" stroke-width="0.6054683" fill="none" /><path id="251" transform="matrix(1 0 0 -1 0 841)" d="M411.5686 662.3478L408.355 662.3478" stroke="#0000FF" stroke-width="0.6054683" fill="none" /><path id="252" transform="matrix(1 0 0 -1 0 841)" d="M411.5686 673.8903L409.9385 673.8903" stroke="#0000FF" stroke-width="0.6054683" fill="none" /><path id="253" transform="matrix(1 0 0 -1 0 841)" d="M411.5686 685.3884L408.355 685.3884" stroke="#0000FF" stroke-width="0.6054683" fill="none" /><path id="254" transform="matrix(1 0 0 -1 0 841)" d="M411.5686 696.8849L409.9385 696.8849" stroke="#0000FF" stroke-width="0.6054683" fill="none" /><path id="255" transform="matrix(1 0 0 -1 0 841)" d="M411.5686 708.3807L408.355 708.3807" stroke="#0000FF" stroke-width="0.6054683" fill="none" /><path id="256" transform="matrix(1 0 0 -1 0 841)" d="M411.5686 719.8773L409.9385 719.8773" stroke="#0000FF" stroke-width="0.6054683" fill="none" /><path id="257" transform="matrix(1 0 0 -1 0 841)" d="M411.5686 731.3754L408.355 731.3754" stroke="#0000FF" stroke-width="0.6054683" fill="none" /><path id="258" transform="matrix(1 0 0 -1 0 841)" d="M411.5686 742.8711L409.9385 742.8711" stroke="#0000FF" stroke-width="0.6054683" fill="none" /><path id="259" transform="matrix(1 0 0 -1 0 841)" d="M411.5686 754.3677L408.355 754.3677" stroke="#0000FF" stroke-width="0.6054683" fill="none" /><path id="260" transform="matrix(1 0 0 -1 0 841)" d="M411.5686 593.3685L411.5686 754.3677" stroke="#0000FF" stroke-width="0.6054683" fill="none" /><path id="261" transform="matrix(1 0 0 -1 0 841)" d="M432.9036 701.3412L439.0396 701.3412L439.0396 701.3412L439.0396 700.1151L439.0396 700.1151L434.695 698.658C 434.2904 698.5237 433.9877 698.4257 433.7867 698.3641C 434.01 698.2941 434.3378 698.1849 434.7704 698.0366L434.7704 698.0366L439.0396 696.5627L439.0396 696.5627L439.0396 695.4667L439.0396 695.4667L432.9036 695.4667L432.9036 695.4667L432.9036 696.252L432.9036 696.252L438.0393 696.252L438.0393 696.252L432.9036 698.0408L432.9036 698.0408L432.9036 698.7756L432.9036 698.7756L438.1272 700.556L438.1272 700.556L432.9036 700.556z" stroke="none" fill="#0000FF" fill-rule="evenodd" /><path id="262" transform="matrix(1 0 0 -1 0 841)" d="M433.4519 691.3392C 432.9775 691.899 432.8032 692.3875 432.8032 692.981C 432.8032 693.9608 433.3333 694.5052 434.0756 694.5052C 434.2932 694.5052 434.492 694.4556 434.672 694.3562C 434.852 694.2568 434.9964 694.1266 435.1052 693.9656C 435.2141 693.8047 435.2963 693.6234 435.3522 693.4219C 435.3912 693.2735 435.4289 693.0496 435.4651 692.7501C 435.5377 692.1398 435.6242 691.6905 435.7247 691.4022C 435.8279 691.3994 435.8935 691.3979 435.9214 691.3979C 436.2283 691.3979 436.4446 691.4694 436.5701 691.6121C 436.7404 691.8052 436.8255 692.0922 436.8255 692.4729C 436.8255 693.184 436.6106 693.4737 435.98 693.636L435.98 693.636L436.0804 694.3751C 436.3958 694.3079 436.6504 694.1973 436.8443 694.0433C 437.0383 693.8894 437.1875 693.6668 437.2922 693.3757C 437.3968 693.0846 437.4491 692.7473 437.4491 692.3637C 437.4491 691.983 437.4045 691.6737 437.3152 691.4357C 437.2259 691.1978 437.1136 691.0228 436.9783 690.9109C 436.8429 690.7989 436.672 690.7205 436.4655 690.6757C 436.3372 690.6505 436.1055 690.6379 435.7707 690.6379L435.7707 690.6379L434.7662 690.6379C 433.3654 690.6379 433.244 690.5889 432.9036 690.3986L432.9036 690.3986L432.9036 691.188C 433.0599 691.2664 433.2426 691.3168 433.4519 691.3392zM435.1345 691.4022C 435.0229 691.6765 434.928 692.088 434.8499 692.6367C 434.8052 692.9474 434.755 693.1671 434.6992 693.2959C 434.6434 693.4247 434.5618 693.524 434.4543 693.5941C 434.3469 693.6641 434.2276 693.699 434.0965 693.699C 433.6947 693.699 433.3933 693.3883 433.3933 692.8004C 433.3933 692.2181 433.664 691.7367 434.1049 691.5239C 434.2751 691.4427 434.5262 691.4022 434.8583 691.4022z" stroke="none" fill="#0000FF" fill-rule="evenodd" /><path id="263" transform="matrix(1 0 0 -1 0 841)" d="M431.1917 689.5013L431.899 689.5853C 431.8544 689.4201 431.8321 689.2759 431.8321 689.1528C 431.8321 688.8168 431.9493 688.6307 432.1502 688.502C 432.2255 688.4543 432.4125 688.3773 432.7111 688.271C 432.7529 688.257 432.8143 688.2346 432.8952 688.2038L432.8952 688.2038L437.3486 689.896L437.3486 689.896L437.3486 689.0814L437.3486 689.0814L434.7745 688.1534C 434.4481 688.033 434.1049 687.9252 433.7449 687.8301C 434.0909 687.7433 434.4285 687.6397 434.7578 687.5193L434.7578 687.5193L437.3486 686.5662L437.3486 686.5662L437.3486 685.8103L437.3486 685.8103L432.8282 687.5067C 432.34 687.6887 432.0037 687.8301 431.8195 687.9308C 431.3229 688.1996 431.0996 688.5327 431.0996 689.0142C 431.0996 689.1598 431.1303 689.3221 431.1917 689.5013z" stroke="none" fill="#0000FF" fill-rule="evenodd" /><path id="264" transform="matrix(1 0 0 -1 0 841)" d="M434.3351 682.141L434.2388 681.3599C 433.3291 681.6063 432.8032 682.2852 432.8032 683.3209C 432.8032 684.6254 433.6431 685.4456 435.0884 685.4456C 436.5841 685.4456 437.4491 684.5946 437.4491 683.3629C 437.4491 682.1703 436.6022 681.3348 435.1345 681.3348C 435.0898 681.3348 435.0229 681.3362 434.9336 681.339L434.9336 681.339L434.9336 684.6646C 433.957 684.6086 433.4226 684.0613 433.4226 683.3167C 433.4226 682.7625 433.6989 682.3705 434.3351 682.141zM435.553 684.6226L435.553 682.1326C 435.927 682.1662 436.2074 682.2614 436.3943 682.4181C 436.6846 682.6589 436.8297 682.971 436.8297 683.3545C 436.8297 684.0487 436.3288 684.5722 435.553 684.6226z" stroke="none" fill="#0000FF" fill-rule="evenodd" /><path id="265" transform="matrix(1 0 0 -1 0 841)" d="M432.9036 680.4207L437.3486 680.4207L437.3486 680.4207L437.3486 679.7404L437.3486 679.7404L436.6748 679.7404C 437.3054 679.3933 437.4491 679.1274 437.4491 678.7747C 437.4491 678.5199 437.3682 678.261 437.2064 677.9979L437.2064 677.9979L436.5074 678.2582C 436.6162 678.4429 436.6706 678.6277 436.6706 678.8124C 436.6706 679.1428 436.4613 679.4269 436.1097 679.5389C 435.8419 679.6229 435.5489 679.6649 435.2308 679.6649L435.2308 679.6649L432.9036 679.6649z" stroke="none" fill="#0000FF" fill-rule="evenodd" /><path id="266" transform="matrix(1 0 0 -1 0 841)" d="" stroke="none" fill="#0000FF" fill-rule="evenodd" /><path id="267" transform="matrix(1 0 0 -1 0 841)" d="M432.9036 674.4867L432.9036 675.1879L432.9036 675.1879L439.0396 675.1879L439.0396 675.1879L439.0396 674.4321L439.0396 674.4321L436.8506 674.4321C 437.2496 674.113 437.4491 673.7056 437.4491 673.2101C 437.4491 672.9358 437.394 672.6762 437.2838 672.4312C 437.1736 672.1863 437.0187 671.9847 436.8192 671.8266C 436.6197 671.6684 436.379 671.5446 436.0972 671.455C 435.8154 671.3654 435.514 671.3206 435.1931 671.3206C 433.6696 671.3206 432.8032 672.1898 432.8032 673.2479C 432.8032 673.7742 433.0222 674.1871 433.4603 674.4867zM435.1596 674.4951C 434.6266 674.4951 434.2416 674.4223 434.0044 674.2767C 433.6165 674.0388 433.4226 673.7169 433.4226 673.3109C 433.4226 672.6503 433.9974 672.0932 435.1303 672.0932C 436.2911 672.0932 436.8297 672.6223 436.8297 673.2773C 436.8297 673.938 436.2423 674.4951 435.1596 674.4951z" stroke="none" fill="#0000FF" fill-rule="evenodd" /><path id="268" transform="matrix(1 0 0 -1 0 841)" d="M435.1262 670.6837C 435.9493 670.6837 436.559 670.4541 436.9552 669.995C 437.2845 669.6115 437.4491 669.144 437.4491 668.5925C 437.4491 667.3664 436.6008 666.5056 435.1889 666.5056C 434.6169 666.5056 434.1669 666.5917 433.8391 666.7639C 433.5112 666.936 433.2566 667.1865 433.0752 667.5154C 432.8939 667.8444 432.8032 668.2034 432.8032 668.5925C 432.8032 669.8411 433.6249 670.6837 435.1262 670.6837zM435.1262 669.9068C 433.9877 669.9068 433.4226 669.3483 433.4226 668.5925C 433.4226 667.8423 433.9849 667.2824 435.1512 667.2824C 436.2507 667.2824 436.8255 667.8479 436.8255 668.5925C 436.8255 669.3483 436.2646 669.9068 435.1262 669.9068z" stroke="none" fill="#0000FF" fill-rule="evenodd" /><path id="269" transform="matrix(1 0 0 -1 0 841)" d="M432.9036 665.6553L437.3486 665.6553L437.3486 665.6553L437.3486 664.975L437.3486 664.975L436.7166 664.975C 437.205 664.6475 437.4491 664.1744 437.4491 663.5558C 437.4491 663.287 437.401 663.04 437.3047 662.8146C 437.2084 662.5893 437.0822 662.4207 436.9259 662.3087C 436.7697 662.1967 436.5841 662.1183 436.3693 662.0735C 436.2297 662.0455 435.9856 662.0316 435.6368 662.0316L435.6368 662.0316L432.9036 662.0316L432.9036 662.0316L432.9036 662.7874L432.9036 662.7874L435.6075 662.7874C 435.9144 662.7874 436.1439 662.8168 436.296 662.8755C 436.4481 662.9343 436.5695 663.0386 436.6602 663.1884C 436.7509 663.3381 436.7962 663.5138 436.7962 663.7153C 436.7962 664.3592 436.4697 664.8995 435.3312 664.8995L435.3312 664.8995L432.9036 664.8995z" stroke="none" fill="#0000FF" fill-rule="evenodd" /><path id="270" transform="matrix(1 0 0 -1 0 841)" d="M432.9036 657.9808L433.4645 657.9808C 433.0236 658.2635 432.8032 658.6792 432.8032 659.2279C 432.8032 659.5834 432.9008 659.9102 433.0961 660.2084C 433.2914 660.5065 433.5642 660.7374 433.9144 660.9012C 434.2646 661.0649 434.6671 661.1469 435.1219 661.1469C 435.5656 661.1469 435.9681 661.0727 436.3295 660.9243C 436.6909 660.7759 436.9678 660.5534 437.1603 660.2567C 437.3528 659.9599 437.4491 659.6282 437.4491 659.2615C 437.4491 658.724 437.2008 658.2943 436.838 658.0311L436.838 658.0311L439.0396 658.0311L439.0396 658.0311L439.0396 657.2795L439.0396 657.2795L432.9036 657.2795zM435.1219 660.37C 433.9835 660.37 433.4226 659.8115 433.4226 659.1565C 433.4226 658.4958 433.9542 657.9681 435.0591 657.9681C 436.2758 657.9681 436.8255 658.5015 436.8255 659.1901C 436.8255 659.8619 436.2995 660.37 435.1219 660.37z" stroke="none" fill="#0000FF" fill-rule="evenodd" /><path id="271" transform="matrix(1 0 0 -1 0 841)" d="" stroke="none" fill="#0000FF" fill-rule="evenodd" /><path id="272" transform="matrix(1 0 0 -1 0 841)" d="M435.1262 654.0089C 435.9493 654.0089 436.559 653.7794 436.9552 653.3203C 437.2845 652.9368 437.4491 652.4693 437.4491 651.9178C 437.4491 650.6917 436.6008 649.8309 435.1889 649.8309C 434.6169 649.8309 434.1669 649.917 433.8391 650.0892C 433.5112 650.2613 433.2566 650.5118 433.0752 650.8408C 432.8939 651.1697 432.8032 651.5287 432.8032 651.9178C 432.8032 653.1663 433.6249 654.0089 435.1262 654.0089zM435.1262 653.2321C 433.9877 653.2321 433.4226 652.6736 433.4226 651.9178C 433.4226 651.1676 433.9849 650.6077 435.1512 650.6077C 436.2507 650.6077 436.8255 651.1732 436.8255 651.9178C 436.8255 652.6736 436.2646 653.2321 435.1262 653.2321z" stroke="none" fill="#0000FF" fill-rule="evenodd" /><path id="273" transform="matrix(1 0 0 -1 0 841)" d="M432.9036 648.9546L437.3486 648.9546L437.3486 648.9546L437.3486 648.2744L437.3486 648.2744L436.6748 648.2744C 437.3054 647.9272 437.4491 647.6613 437.4491 647.3086C 437.4491 647.0538 437.3682 646.7949 437.2064 646.5317L437.2064 646.5317L436.5074 646.7921C 436.6162 646.9769 436.6706 647.1616 436.6706 647.3464C 436.6706 647.6767 436.4613 647.9608 436.1097 648.0728C 435.8419 648.1568 435.5489 648.1988 435.2308 648.1988L435.2308 648.1988L432.9036 648.1988z" stroke="none" fill="#0000FF" fill-rule="evenodd" /><path id="274" transform="matrix(1 0 0 -1 0 841)" d="M432.9036 643.2238L433.4645 643.2238C 433.0236 643.5065 432.8032 643.9222 432.8032 644.4709C 432.8032 644.8264 432.9008 645.1533 433.0961 645.4514C 433.2914 645.7495 433.5642 645.9805 433.9144 646.1442C 434.2646 646.308 434.6671 646.3899 435.1219 646.3899C 435.5656 646.3899 435.9681 646.3157 436.3295 646.1673C 436.6909 646.019 436.9678 645.7964 437.1603 645.4997C 437.3528 645.2029 437.4491 644.8712 437.4491 644.5045C 437.4491 643.967 437.2008 643.5374 436.838 643.2742L436.838 643.2742L439.0396 643.2742L439.0396 643.2742L439.0396 642.5226L439.0396 642.5226L432.9036 642.5226zM435.1219 645.613C 433.9835 645.613 433.4226 645.0546 433.4226 644.3995C 433.4226 643.7389 433.9542 643.2112 435.0591 643.2112C 436.2758 643.2112 436.8255 643.7445 436.8255 644.4331C 436.8255 645.105 436.2995 645.613 435.1219 645.613z" stroke="none" fill="#0000FF" fill-rule="evenodd" /><path id="275" transform="matrix(1 0 0 -1 0 841)" d="M434.3351 638.2828L434.2388 637.5018C 433.3291 637.7482 432.8032 638.427 432.8032 639.4628C 432.8032 640.7673 433.6431 641.5875 435.0884 641.5875C 436.5841 641.5875 437.4491 640.7365 437.4491 639.5048C 437.4491 638.3123 436.6022 637.4766 435.1345 637.4766C 435.0898 637.4766 435.0229 637.478 434.9336 637.4808L434.9336 637.4808L434.9336 640.8065C 433.957 640.7505 433.4226 640.2032 433.4226 639.4586C 433.4226 638.9043 433.6989 638.5124 434.3351 638.2828zM435.553 640.7645L435.553 638.2744C 435.927 638.308 436.2074 638.4032 436.3943 638.56C 436.6846 638.8007 436.8297 639.1129 436.8297 639.4963C 436.8297 640.1906 436.3288 640.7141 435.553 640.7645z" stroke="none" fill="#0000FF" fill-rule="evenodd" /><path id="276" transform="matrix(1 0 0 -1 0 841)" d="M432.9036 636.5883L437.3486 636.5883L437.3486 636.5883L437.3486 635.9081L437.3486 635.9081L436.6748 635.9081C 437.3054 635.561 437.4491 635.295 437.4491 634.9423C 437.4491 634.6876 437.3682 634.4286 437.2064 634.1655L437.2064 634.1655L436.5074 634.4258C 436.6162 634.6106 436.6706 634.7953 436.6706 634.9801C 436.6706 635.3104 436.4613 635.5945 436.1097 635.7065C 435.8419 635.7905 435.5489 635.8325 435.2308 635.8325L435.2308 635.8325L432.9036 635.8325z" stroke="none" fill="#0000FF" fill-rule="evenodd" /></g></g></g><g clip-path="url(#13)"></g><g clip-path="url(#14)"></g><g clip-path="url(#15)"></g><g clip-path="url(#16)"></g><g clip-path="url(#17)"></g><g clip-path="url(#18)"></g><g clip-path="url(#19)"></g><g clip-path="url(#20)"></g><g clip-path="url(#21)"></g><g clip-path="url(#22)"></g><g clip-path="url(#23)"></g><g clip-path="url(#24)"></g><g clip-path="url(#25)"></g><g clip-path="url(#26)"></g><g clip-path="url(#27)"></g><g clip-path="url(#28)"></g><g clip-path="url(#29)"></g><g clip-path="url(#30)"></g><g clip-path="url(#31)"></g><g clip-path="url(#32)"></g><g clip-path="url(#33)"></g><g clip-path="url(#34)"></g><g clip-path="url(#35)"></g><g clip-path="url(#36)"></g><g clip-path="url(#37)"></g><g clip-path="url(#38)"></g><g clip-path="url(#39)"></g><g clip-path="url(#40)"></g><g clip-path="url(#41)"></g><g clip-path="url(#42)"></g><g clip-path="url(#43)"></g><g clip-path="url(#44)"></g><g clip-path="url(#45)"></g><g clip-path="url(#46)"></g><g clip-path="url(#47)"></g><g clip-path="url(#48)"></g><g clip-path="url(#49)"></g><g clip-path="url(#50)"></g><g clip-path="url(#51)"></g><g clip-path="url(#52)"></g><g clip-path="url(#53)"></g><g clip-path="url(#54)"></g><g clip-path="url(#55)"></g><g clip-path="url(#56)"></g><g clip-path="url(#57)"></g><g clip-path="url(#58)"></g><g clip-path="url(#59)"></g><g clip-path="url(#60)"></g><g clip-path="url(#61)"></g><g clip-path="url(#62)"></g><g clip-path="url(#63)"></g><g clip-path="url(#64)"></g><g clip-path="url(#65)"></g><g clip-path="url(#66)"></g><g clip-path="url(#67)"></g><g clip-path="url(#68)"></g><g clip-path="url(#69)"></g><g clip-path="url(#70)"></g><g clip-path="url(#71)"></g><g clip-path="url(#72)"></g><g clip-path="url(#73)"></g><g clip-path="url(#74)"></g><g clip-path="url(#75)"></g><g clip-path="url(#76)"></g><path id="732" transform="matrix(1 0 0 -1 0 841)" d="M90.024 416.47L215.564 416.47L215.564 416.47L215.564 416.95L215.564 416.95L90.024 416.95z" stroke="none" fill="#0000FF" fill-rule="evenodd" /><g clip-path="url(#77)"></g><g clip-path="url(#78)"></g><g clip-path="url(#79)"></g><g clip-path="url(#80)"></g><g clip-path="url(#81)"></g><g clip-path="url(#82)"></g><g clip-path="url(#83)"></g><g clip-path="url(#84)"></g><g clip-path="url(#85)"></g><g clip-path="url(#86)"></g><g clip-path="url(#87)"></g><g clip-path="url(#88)"></g><g clip-path="url(#89)"></g><g clip-path="url(#90)"></g><g clip-path="url(#91)"></g><g clip-path="url(#92)"></g><g clip-path="url(#93)"></g><g clip-path="url(#94)"></g><g clip-path="url(#95)"></g><g clip-path="url(#96)"></g><g clip-path="url(#97)"></g><g clip-path="url(#98)"></g><g clip-path="url(#99)"></g><g clip-path="url(#100)"></g><g clip-path="url(#101)"></g><g clip-path="url(#102)"></g><g clip-path="url(#103)"></g><g clip-path="url(#104)"></g><g clip-path="url(#105)"></g><g clip-path="url(#106)"></g><g clip-path="url(#107)"></g><g clip-path="url(#108)"></g><g clip-path="url(#109)"></g><g clip-path="url(#110)"></g><g clip-path="url(#111)"></g><g clip-path="url(#112)"></g><g clip-path="url(#113)"></g><g clip-path="url(#114)"></g><g clip-path="url(#115)"></g><g clip-path="url(#116)"></g><g clip-path="url(#117)"></g><g clip-path="url(#118)"></g><g clip-path="url(#119)"></g><g clip-path="url(#120)"></g><g clip-path="url(#121)"></g><g clip-path="url(#122)"></g><g clip-path="url(#123)"></g><g clip-path="url(#124)"></g><g clip-path="url(#125)"></g><g clip-path="url(#126)"></g><g clip-path="url(#127)"></g><g clip-path="url(#128)"></g><g clip-path="url(#129)"></g><g clip-path="url(#130)"></g><g clip-path="url(#131)"></g><g clip-path="url(#132)"></g><g clip-path="url(#133)"></g><g clip-path="url(#134)"></g><g clip-path="url(#135)"></g><g clip-path="url(#136)"></g><g clip-path="url(#137)"></g><g clip-path="url(#138)"></g><g clip-path="url(#139)"></g><g clip-path="url(#140)"><g transform="matrix(0.3600242 0 0 0.3600962 223.13 445.32)"><g transform="matrix(1 0 0 1 0 0)"><image x="0" y="0" xlink:href="img_1244.jpg" width="414" height="416" /></g></g></g></g></g></svg>