<svg xmlns="http://www.w3.org/2000/svg" xmlns:xlink="http://www.w3.org/1999/xlink" id="body_651" preserveAspectRatio="xMinYMin meet" viewBox="0 0 793 1121"><defs><clipPath id="1"><path id="" clip-rule="evenodd" d="M0 841L0 -0.9199829L0 -0.9199829L595.32 -0.9199829L595.32 -0.9199829L595.32 841L595.32 841L0 841z" /></clipPath><clipPath id="2"><path id="" clip-rule="evenodd" d="M0 840.9999L595.32 840.9999L595.32 840.9999L595.32 -0.9200439L595.32 -0.9200439L0 -0.9200439z" /></clipPath><clipPath id="3"><path id="" clip-rule="evenodd" d="M8.871E-06 841L595.32 841L595.32 841L595.32 -0.9199829L595.32 -0.9199829L8.871E-06 -0.9199829z" /></clipPath><clipPath id="4"><path id="" clip-rule="evenodd" d="M8.871E-06 841L595.32 841L595.32 841L595.32 -0.9199829L595.32 -0.9199829L8.871E-06 -0.9199829z" /></clipPath><clipPath id="5"><path id="" clip-rule="evenodd" d="M8.871E-06 841L595.32 841L595.32 841L595.32 -0.9199829L595.32 -0.9199829L8.871E-06 -0.9199829z" /></clipPath><clipPath id="6"><path id="" clip-rule="evenodd" d="M8.871E-06 841L595.32 841L595.32 841L595.32 -0.9199829L595.32 -0.9199829L8.871E-06 -0.9199829z" /></clipPath><clipPath id="7"><path id="" clip-rule="evenodd" d="M8.871E-06 841L595.32 841L595.32 841L595.32 -0.9199829L595.32 -0.9199829L8.871E-06 -0.9199829z" /></clipPath><clipPath id="8"><path id="" clip-rule="evenodd" d="M8.871E-06 841L595.32 841L595.32 841L595.32 -0.9199829L595.32 -0.9199829L8.871E-06 -0.9199829z" /></clipPath><clipPath id="9"><path id="" clip-rule="evenodd" d="M8.871E-06 841L595.32 841L595.32 841L595.32 -0.9199829L595.32 -0.9199829L8.871E-06 -0.9199829z" /></clipPath><clipPath id="10"><path id="" clip-rule="evenodd" d="M8.871E-06 841L595.32 841L595.32 841L595.32 -0.9199829L595.32 -0.9199829L8.871E-06 -0.9199829z" /></clipPath><clipPath id="11"><path id="" clip-rule="evenodd" d="M8.871E-06 841L595.32 841L595.32 841L595.32 -0.9199829L595.32 -0.9199829L8.871E-06 -0.9199829z" /></clipPath><clipPath id="12"><path id="" clip-rule="evenodd" d="M8.871E-06 841L595.32 841L595.32 841L595.32 -0.9199829L595.32 -0.9199829L8.871E-06 -0.9199829z" /></clipPath><clipPath id="13"><path id="" clip-rule="evenodd" d="M8.871E-06 841L595.32 841L595.32 841L595.32 -0.9199829L595.32 -0.9199829L8.871E-06 -0.9199829z" /></clipPath><clipPath id="14"><path id="" clip-rule="evenodd" d="M8.871E-06 841L595.32 841L595.32 841L595.32 -0.9199829L595.32 -0.9199829L8.871E-06 -0.9199829z" /></clipPath><clipPath id="15"><path id="" clip-rule="evenodd" d="M8.871E-06 841L595.32 841L595.32 841L595.32 -0.9199829L595.32 -0.9199829L8.871E-06 -0.9199829z" /></clipPath><clipPath id="16"><path id="" clip-rule="evenodd" d="M8.871E-06 841L595.32 841L595.32 841L595.32 -0.9199829L595.32 -0.9199829L8.871E-06 -0.9199829z" /></clipPath><clipPath id="17"><path id="" clip-rule="evenodd" d="M8.871E-06 841L595.32 841L595.32 841L595.32 -0.9199829L595.32 -0.9199829L8.871E-06 -0.9199829z" /></clipPath><clipPath id="18"><path id="" clip-rule="evenodd" d="M8.871E-06 841L595.32 841L595.32 841L595.32 -0.9199829L595.32 -0.9199829L8.871E-06 -0.9199829z" /></clipPath><clipPath id="19"><path id="" clip-rule="evenodd" d="M8.871E-06 841L595.32 841L595.32 841L595.32 -0.9199829L595.32 -0.9199829L8.871E-06 -0.9199829z" /></clipPath><clipPath id="20"><path id="" clip-rule="evenodd" d="M8.871E-06 841L595.32 841L595.32 841L595.32 -0.9199829L595.32 -0.9199829L8.871E-06 -0.9199829z" /></clipPath><clipPath id="21"><path id="" clip-rule="evenodd" d="M8.871E-06 841L595.32 841L595.32 841L595.32 -0.9199829L595.32 -0.9199829L8.871E-06 -0.9199829z" /></clipPath><clipPath id="22"><path id="" clip-rule="evenodd" d="M8.871E-06 841L595.32 841L595.32 841L595.32 -0.9199829L595.32 -0.9199829L8.871E-06 -0.9199829z" /></clipPath><clipPath id="23"><path id="" clip-rule="evenodd" d="M8.871E-06 841L595.32 841L595.32 841L595.32 -0.9199829L595.32 -0.9199829L8.871E-06 -0.9199829z" /></clipPath><clipPath id="24"><path id="" clip-rule="evenodd" d="M8.871E-06 841L595.32 841L595.32 841L595.32 -0.9199829L595.32 -0.9199829L8.871E-06 -0.9199829z" /></clipPath><clipPath id="25"><path id="" clip-rule="evenodd" d="M8.871E-06 841L595.32 841L595.32 841L595.32 -0.9199829L595.32 -0.9199829L8.871E-06 -0.9199829z" /></clipPath><clipPath id="26"><path id="" clip-rule="evenodd" d="M8.871E-06 841L595.32 841L595.32 841L595.32 -0.9199829L595.32 -0.9199829L8.871E-06 -0.9199829z" /></clipPath><clipPath id="27"><path id="" clip-rule="evenodd" d="M8.871E-06 841L595.32 841L595.32 841L595.32 -0.9199829L595.32 -0.9199829L8.871E-06 -0.9199829z" /></clipPath><clipPath id="28"><path id="" clip-rule="evenodd" d="M8.871E-06 841L595.32 841L595.32 841L595.32 -0.9199829L595.32 -0.9199829L8.871E-06 -0.9199829z" /></clipPath><clipPath id="29"><path id="" clip-rule="evenodd" d="M8.871E-06 841L595.32 841L595.32 841L595.32 -0.9199829L595.32 -0.9199829L8.871E-06 -0.9199829z" /></clipPath><clipPath id="30"><path id="" clip-rule="evenodd" d="M8.871E-06 841L595.32 841L595.32 841L595.32 -0.9199829L595.32 -0.9199829L8.871E-06 -0.9199829z" /></clipPath><clipPath id="31"><path id="" clip-rule="evenodd" d="M8.871E-06 841L595.32 841L595.32 841L595.32 -0.9199829L595.32 -0.9199829L8.871E-06 -0.9199829z" /></clipPath><clipPath id="32"><path id="" clip-rule="evenodd" d="M8.871E-06 841L595.32 841L595.32 841L595.32 -0.9199829L595.32 -0.9199829L8.871E-06 -0.9199829z" /></clipPath><clipPath id="33"><path id="" clip-rule="evenodd" d="M8.871E-06 841L595.32 841L595.32 841L595.32 -0.9199829L595.32 -0.9199829L8.871E-06 -0.9199829z" /></clipPath><clipPath id="34"><path id="" clip-rule="evenodd" d="M8.871E-06 841L595.32 841L595.32 841L595.32 -0.9199829L595.32 -0.9199829L8.871E-06 -0.9199829z" /></clipPath><clipPath id="35"><path id="" clip-rule="evenodd" d="M8.871E-06 841L595.32 841L595.32 841L595.32 -0.9199829L595.32 -0.9199829L8.871E-06 -0.9199829z" /></clipPath><clipPath id="36"><path id="" clip-rule="evenodd" d="M8.871E-06 841L595.32 841L595.32 841L595.32 -0.9199829L595.32 -0.9199829L8.871E-06 -0.9199829z" /></clipPath><clipPath id="37"><path id="" clip-rule="evenodd" d="M8.871E-06 841L595.32 841L595.32 841L595.32 -0.9199829L595.32 -0.9199829L8.871E-06 -0.9199829z" /></clipPath><clipPath id="38"><path id="" clip-rule="evenodd" d="M8.871E-06 841L595.32 841L595.32 841L595.32 -0.9199829L595.32 -0.9199829L8.871E-06 -0.9199829z" /></clipPath><clipPath id="39"><path id="" clip-rule="evenodd" d="M8.871E-06 841L595.32 841L595.32 841L595.32 -0.9199829L595.32 -0.9199829L8.871E-06 -0.9199829z" /></clipPath><clipPath id="40"><path id="" clip-rule="evenodd" d="M8.871E-06 841L595.32 841L595.32 841L595.32 -0.9199829L595.32 -0.9199829L8.871E-06 -0.9199829z" /></clipPath><clipPath id="41"><path id="" clip-rule="evenodd" d="M8.871E-06 841L595.32 841L595.32 841L595.32 -0.9199829L595.32 -0.9199829L8.871E-06 -0.9199829z" /></clipPath><clipPath id="42"><path id="" clip-rule="evenodd" d="M8.871E-06 841L595.32 841L595.32 841L595.32 -0.9199829L595.32 -0.9199829L8.871E-06 -0.9199829z" /></clipPath><clipPath id="43"><path id="" clip-rule="evenodd" d="M8.871E-06 841L595.32 841L595.32 841L595.32 -0.9199829L595.32 -0.9199829L8.871E-06 -0.9199829z" /></clipPath><clipPath id="44"><path id="" clip-rule="evenodd" d="M8.871E-06 841L595.32 841L595.32 841L595.32 -0.9199829L595.32 -0.9199829L8.871E-06 -0.9199829z" /></clipPath><clipPath id="45"><path id="" clip-rule="evenodd" d="M8.871E-06 841L595.32 841L595.32 841L595.32 -0.9199829L595.32 -0.9199829L8.871E-06 -0.9199829z" /></clipPath><clipPath id="46"><path id="" clip-rule="evenodd" d="M8.871E-06 841L595.32 841L595.32 841L595.32 -0.9199829L595.32 -0.9199829L8.871E-06 -0.9199829z" /></clipPath><clipPath id="47"><path id="" clip-rule="evenodd" d="M8.871E-06 841L595.32 841L595.32 841L595.32 -0.9199829L595.32 -0.9199829L8.871E-06 -0.9199829z" /></clipPath><clipPath id="48"><path id="" clip-rule="evenodd" d="M8.871E-06 841L595.32 841L595.32 841L595.32 -0.9199829L595.32 -0.9199829L8.871E-06 -0.9199829z" /></clipPath><clipPath id="49"><path id="" clip-rule="evenodd" d="M8.871E-06 841L595.32 841L595.32 841L595.32 -0.9199829L595.32 -0.9199829L8.871E-06 -0.9199829z" /></clipPath><clipPath id="50"><path id="" clip-rule="evenodd" d="M8.871E-06 841L595.32 841L595.32 841L595.32 -0.9199829L595.32 -0.9199829L8.871E-06 -0.9199829z" /></clipPath><clipPath id="51"><path id="" clip-rule="evenodd" d="M8.871E-06 841L595.32 841L595.32 841L595.32 -0.9199829L595.32 -0.9199829L8.871E-06 -0.9199829z" /></clipPath><clipPath id="52"><path id="" clip-rule="evenodd" d="M8.871E-06 841L595.32 841L595.32 841L595.32 -0.9199829L595.32 -0.9199829L8.871E-06 -0.9199829z" /></clipPath><clipPath id="53"><path id="" clip-rule="evenodd" d="M8.871E-06 841L595.32 841L595.32 841L595.32 -0.9199829L595.32 -0.9199829L8.871E-06 -0.9199829z" /></clipPath><clipPath id="54"><path id="" clip-rule="evenodd" d="M8.871E-06 841L595.32 841L595.32 841L595.32 -0.9199829L595.32 -0.9199829L8.871E-06 -0.9199829z" /></clipPath><clipPath id="55"><path id="" clip-rule="evenodd" d="M8.871E-06 841L595.32 841L595.32 841L595.32 -0.9199829L595.32 -0.9199829L8.871E-06 -0.9199829z" /></clipPath><clipPath id="56"><path id="" clip-rule="evenodd" d="M8.871E-06 841L595.32 841L595.32 841L595.32 -0.9199829L595.32 -0.9199829L8.871E-06 -0.9199829z" /></clipPath><clipPath id="57"><path id="" clip-rule="evenodd" d="M8.871E-06 841L595.32 841L595.32 841L595.32 -0.9199829L595.32 -0.9199829L8.871E-06 -0.9199829z" /></clipPath><clipPath id="58"><path id="" clip-rule="evenodd" d="M8.871E-06 841L595.32 841L595.32 841L595.32 -0.9199829L595.32 -0.9199829L8.871E-06 -0.9199829z" /></clipPath><clipPath id="59"><path id="" clip-rule="evenodd" d="M8.871E-06 841L595.32 841L595.32 841L595.32 -0.9199829L595.32 -0.9199829L8.871E-06 -0.9199829z" /></clipPath><clipPath id="60"><path id="" clip-rule="evenodd" d="M8.871E-06 841L595.32 841L595.32 841L595.32 -0.9199829L595.32 -0.9199829L8.871E-06 -0.9199829z" /></clipPath><clipPath id="61"><path id="" clip-rule="evenodd" d="M8.871E-06 841L595.32 841L595.32 841L595.32 -0.9199829L595.32 -0.9199829L8.871E-06 -0.9199829z" /></clipPath><clipPath id="62"><path id="" clip-rule="evenodd" d="M8.871E-06 841L595.32 841L595.32 841L595.32 -0.9199829L595.32 -0.9199829L8.871E-06 -0.9199829z" /></clipPath><clipPath id="63"><path id="" clip-rule="evenodd" d="M8.871E-06 841L595.32 841L595.32 841L595.32 -0.9199829L595.32 -0.9199829L8.871E-06 -0.9199829z" /></clipPath><clipPath id="64"><path id="" clip-rule="evenodd" d="M8.871E-06 841L595.32 841L595.32 841L595.32 -0.9199829L595.32 -0.9199829L8.871E-06 -0.9199829z" /></clipPath><clipPath id="65"><path id="" clip-rule="evenodd" d="M8.871E-06 841L595.32 841L595.32 841L595.32 -0.9199829L595.32 -0.9199829L8.871E-06 -0.9199829z" /></clipPath><clipPath id="66"><path id="" clip-rule="evenodd" d="M8.871E-06 841L595.32 841L595.32 841L595.32 -0.9199829L595.32 -0.9199829L8.871E-06 -0.9199829z" /></clipPath><clipPath id="67"><path id="" clip-rule="evenodd" d="M8.871E-06 841L595.32 841L595.32 841L595.32 -0.9199829L595.32 -0.9199829L8.871E-06 -0.9199829z" /></clipPath><clipPath id="68"><path id="" clip-rule="evenodd" d="M8.871E-06 841L595.32 841L595.32 841L595.32 -0.9199829L595.32 -0.9199829L8.871E-06 -0.9199829z" /></clipPath><clipPath id="69"><path id="" clip-rule="evenodd" d="M8.871E-06 841L595.32 841L595.32 841L595.32 -0.9199829L595.32 -0.9199829L8.871E-06 -0.9199829z" /></clipPath><clipPath id="70"><path id="" clip-rule="evenodd" d="M8.871E-06 841L595.32 841L595.32 841L595.32 -0.9199829L595.32 -0.9199829L8.871E-06 -0.9199829z" /></clipPath><clipPath id="71"><path id="" clip-rule="evenodd" d="M8.871E-06 841L595.32 841L595.32 841L595.32 -0.9199829L595.32 -0.9199829L8.871E-06 -0.9199829z" /></clipPath><clipPath id="72"><path id="" clip-rule="evenodd" d="M90.024 430.41L141.744 430.41L141.744 430.41L141.744 414.81L141.744 414.81L90.024 414.81z" /></clipPath><clipPath id="73"><path id="" clip-rule="evenodd" d="M90.024 430.41L141.744 430.41L141.744 430.41L141.744 414.81L141.744 414.81L90.024 414.81z" /></clipPath><clipPath id="74"><path id="" clip-rule="evenodd" d="M141.74 430.41L189.044 430.41L189.044 430.41L189.044 414.81L189.044 414.81L141.74 414.81z" /></clipPath><clipPath id="75"><path id="" clip-rule="evenodd" d="M141.74 430.41L189.044 430.41L189.044 430.41L189.044 414.81L189.044 414.81L141.74 414.81z" /></clipPath><clipPath id="76"><path id="" clip-rule="evenodd" d="M141.74 430.41L189.044 430.41L189.044 430.41L189.044 414.81L189.044 414.81L141.74 414.81z" /></clipPath><clipPath id="77"><path id="" clip-rule="evenodd" d="M141.74 430.41L189.044 430.41L189.044 430.41L189.044 414.81L189.044 414.81L141.74 414.81z" /></clipPath><clipPath id="78"><path id="" clip-rule="evenodd" d="M141.74 430.41L189.044 430.41L189.044 430.41L189.044 414.81L189.044 414.81L141.74 414.81z" /></clipPath><clipPath id="79"><path id="" clip-rule="evenodd" d="M141.74 430.41L189.044 430.41L189.044 430.41L189.044 414.81L189.044 414.81L141.74 414.81z" /></clipPath><clipPath id="80"><path id="" clip-rule="evenodd" d="M141.74 430.41L189.044 430.41L189.044 430.41L189.044 414.81L189.044 414.81L141.74 414.81z" /></clipPath><clipPath id="81"><path id="" clip-rule="evenodd" d="M189.05 430.41L236.45 430.41L236.45 430.41L236.45 414.81L236.45 414.81L189.05 414.81z" /></clipPath><clipPath id="82"><path id="" clip-rule="evenodd" d="M189.05 430.41L236.45 430.41L236.45 430.41L236.45 414.81L236.45 414.81L189.05 414.81z" /></clipPath><clipPath id="83"><path id="" clip-rule="evenodd" d="M189.05 430.41L236.45 430.41L236.45 430.41L236.45 414.81L236.45 414.81L189.05 414.81z" /></clipPath><clipPath id="84"><path id="" clip-rule="evenodd" d="M189.05 430.41L236.45 430.41L236.45 430.41L236.45 414.81L236.45 414.81L189.05 414.81z" /></clipPath><clipPath id="85"><path id="" clip-rule="evenodd" d="M236.45 430.41L283.754 430.41L283.754 430.41L283.754 414.81L283.754 414.81L236.45 414.81z" /></clipPath><clipPath id="86"><path id="" clip-rule="evenodd" d="M236.45 430.41L283.754 430.41L283.754 430.41L283.754 414.81L283.754 414.81L236.45 414.81z" /></clipPath><clipPath id="87"><path id="" clip-rule="evenodd" d="M236.45 430.41L283.754 430.41L283.754 430.41L283.754 414.81L283.754 414.81L236.45 414.81z" /></clipPath><clipPath id="88"><path id="" clip-rule="evenodd" d="M236.45 430.41L283.754 430.41L283.754 430.41L283.754 414.81L283.754 414.81L236.45 414.81z" /></clipPath><clipPath id="89"><path id="" clip-rule="evenodd" d="M236.45 430.41L283.754 430.41L283.754 430.41L283.754 414.81L283.754 414.81L236.45 414.81z" /></clipPath><clipPath id="90"><path id="" clip-rule="evenodd" d="M236.45 430.41L283.754 430.41L283.754 430.41L283.754 414.81L283.754 414.81L236.45 414.81z" /></clipPath><clipPath id="91"><path id="" clip-rule="evenodd" d="M236.45 430.41L283.754 430.41L283.754 430.41L283.754 414.81L283.754 414.81L236.45 414.81z" /></clipPath><clipPath id="92"><path id="" clip-rule="evenodd" d="M283.75 430.41L331.03 430.41L331.03 430.41L331.03 414.81L331.03 414.81L283.75 414.81z" /></clipPath><clipPath id="93"><path id="" clip-rule="evenodd" d="M283.75 430.41L331.03 430.41L331.03 430.41L331.03 414.81L331.03 414.81L283.75 414.81z" /></clipPath><clipPath id="94"><path id="" clip-rule="evenodd" d="M283.75 430.41L331.03 430.41L331.03 430.41L331.03 414.81L331.03 414.81L283.75 414.81z" /></clipPath><clipPath id="95"><path id="" clip-rule="evenodd" d="M283.75 430.41L331.03 430.41L331.03 430.41L331.03 414.81L331.03 414.81L283.75 414.81z" /></clipPath><clipPath id="96"><path id="" clip-rule="evenodd" d="M283.75 430.41L331.03 430.41L331.03 430.41L331.03 414.81L331.03 414.81L283.75 414.81z" /></clipPath><clipPath id="97"><path id="" clip-rule="evenodd" d="M283.75 430.41L331.03 430.41L331.03 430.41L331.03 414.81L331.03 414.81L283.75 414.81z" /></clipPath><clipPath id="98"><path id="" clip-rule="evenodd" d="M283.75 430.41L331.03 430.41L331.03 430.41L331.03 414.81L331.03 414.81L283.75 414.81z" /></clipPath><clipPath id="99"><path id="" clip-rule="evenodd" d="M331.03 430.41L394.894 430.41L394.894 430.41L394.894 414.81L394.894 414.81L331.03 414.81z" /></clipPath><clipPath id="100"><path id="" clip-rule="evenodd" d="M331.03 430.41L394.894 430.41L394.894 430.41L394.894 414.81L394.894 414.81L331.03 414.81z" /></clipPath><clipPath id="101"><path id="" clip-rule="evenodd" d="M331.03 430.41L394.894 430.41L394.894 430.41L394.894 414.81L394.894 414.81L331.03 414.81z" /></clipPath><clipPath id="102"><path id="" clip-rule="evenodd" d="M394.9 430.41L449.62 430.41L449.62 430.41L449.62 414.81L449.62 414.81L394.9 414.81z" /></clipPath><clipPath id="103"><path id="" clip-rule="evenodd" d="M394.9 430.41L449.62 430.41L449.62 430.41L449.62 414.81L449.62 414.81L394.9 414.81z" /></clipPath><clipPath id="104"><path id="" clip-rule="evenodd" d="M394.9 430.41L449.62 430.41L449.62 430.41L449.62 414.81L449.62 414.81L394.9 414.81z" /></clipPath><clipPath id="105"><path id="" clip-rule="evenodd" d="M449.62 430.41L505.444 430.41L505.444 430.41L505.444 414.81L505.444 414.81L449.62 414.81z" /></clipPath><clipPath id="106"><path id="" clip-rule="evenodd" d="M449.62 430.41L505.444 430.41L505.444 430.41L505.444 414.81L505.444 414.81L449.62 414.81z" /></clipPath><clipPath id="107"><path id="" clip-rule="evenodd" d="M449.62 430.41L505.444 430.41L505.444 430.41L505.444 414.81L505.444 414.81L449.62 414.81z" /></clipPath><clipPath id="108"><path id="" clip-rule="evenodd" d="M90.024 446.51L141.744 446.51L141.744 446.51L141.744 430.886L141.744 430.886L90.024 430.886z" /></clipPath><clipPath id="109"><path id="" clip-rule="evenodd" d="M90.024 446.51L141.744 446.51L141.744 446.51L141.744 430.886L141.744 430.886L90.024 430.886z" /></clipPath><clipPath id="110"><path id="" clip-rule="evenodd" d="M90.024 446.51L141.744 446.51L141.744 446.51L141.744 430.886L141.744 430.886L90.024 430.886z" /></clipPath><clipPath id="111"><path id="" clip-rule="evenodd" d="M90.024 446.51L141.744 446.51L141.744 446.51L141.744 430.886L141.744 430.886L90.024 430.886z" /></clipPath><clipPath id="112"><path id="" clip-rule="evenodd" d="M90.024 446.51L141.744 446.51L141.744 446.51L141.744 430.886L141.744 430.886L90.024 430.886z" /></clipPath><clipPath id="113"><path id="" clip-rule="evenodd" d="M141.74 446.51L189.044 446.51L189.044 446.51L189.044 430.886L189.044 430.886L141.74 430.886z" /></clipPath><clipPath id="114"><path id="" clip-rule="evenodd" d="M141.74 446.51L189.044 446.51L189.044 446.51L189.044 430.886L189.044 430.886L141.74 430.886z" /></clipPath><clipPath id="115"><path id="" clip-rule="evenodd" d="M141.74 446.51L189.044 446.51L189.044 446.51L189.044 430.886L189.044 430.886L141.74 430.886z" /></clipPath><clipPath id="116"><path id="" clip-rule="evenodd" d="M141.74 446.51L189.044 446.51L189.044 446.51L189.044 430.886L189.044 430.886L141.74 430.886z" /></clipPath><clipPath id="117"><path id="" clip-rule="evenodd" d="M189.05 446.51L236.45 446.51L236.45 446.51L236.45 430.886L236.45 430.886L189.05 430.886z" /></clipPath><clipPath id="118"><path id="" clip-rule="evenodd" d="M189.05 446.51L236.45 446.51L236.45 446.51L236.45 430.886L236.45 430.886L189.05 430.886z" /></clipPath><clipPath id="119"><path id="" clip-rule="evenodd" d="M189.05 446.51L236.45 446.51L236.45 446.51L236.45 430.886L236.45 430.886L189.05 430.886z" /></clipPath><clipPath id="120"><path id="" clip-rule="evenodd" d="M189.05 446.51L236.45 446.51L236.45 446.51L236.45 430.886L236.45 430.886L189.05 430.886z" /></clipPath><clipPath id="121"><path id="" clip-rule="evenodd" d="M236.45 446.51L283.754 446.51L283.754 446.51L283.754 430.886L283.754 430.886L236.45 430.886z" /></clipPath><clipPath id="122"><path id="" clip-rule="evenodd" d="M236.45 446.51L283.754 446.51L283.754 446.51L283.754 430.886L283.754 430.886L236.45 430.886z" /></clipPath><clipPath id="123"><path id="" clip-rule="evenodd" d="M236.45 446.51L283.754 446.51L283.754 446.51L283.754 430.886L283.754 430.886L236.45 430.886z" /></clipPath><clipPath id="124"><path id="" clip-rule="evenodd" d="M236.45 446.51L283.754 446.51L283.754 446.51L283.754 430.886L283.754 430.886L236.45 430.886z" /></clipPath><clipPath id="125"><path id="" clip-rule="evenodd" d="M283.75 446.51L331.03 446.51L331.03 446.51L331.03 430.886L331.03 430.886L283.75 430.886z" /></clipPath><clipPath id="126"><path id="" clip-rule="evenodd" d="M283.75 446.51L331.03 446.51L331.03 446.51L331.03 430.886L331.03 430.886L283.75 430.886z" /></clipPath><clipPath id="127"><path id="" clip-rule="evenodd" d="M283.75 446.51L331.03 446.51L331.03 446.51L331.03 430.886L331.03 430.886L283.75 430.886z" /></clipPath><clipPath id="128"><path id="" clip-rule="evenodd" d="M283.75 446.51L331.03 446.51L331.03 446.51L331.03 430.886L331.03 430.886L283.75 430.886z" /></clipPath><clipPath id="129"><path id="" clip-rule="evenodd" d="M331.03 446.51L394.894 446.51L394.894 446.51L394.894 430.886L394.894 430.886L331.03 430.886z" /></clipPath><clipPath id="130"><path id="" clip-rule="evenodd" d="M331.03 446.51L394.894 446.51L394.894 446.51L394.894 430.886L394.894 430.886L331.03 430.886z" /></clipPath><clipPath id="131"><path id="" clip-rule="evenodd" d="M331.03 446.51L394.894 446.51L394.894 446.51L394.894 430.886L394.894 430.886L331.03 430.886z" /></clipPath><clipPath id="132"><path id="" clip-rule="evenodd" d="M331.03 446.51L394.894 446.51L394.894 446.51L394.894 430.886L394.894 430.886L331.03 430.886z" /></clipPath><clipPath id="133"><path id="" clip-rule="evenodd" d="M394.9 446.51L449.62 446.51L449.62 446.51L449.62 430.886L449.62 430.886L394.9 430.886z" /></clipPath><clipPath id="134"><path id="" clip-rule="evenodd" d="M394.9 446.51L449.62 446.51L449.62 446.51L449.62 430.886L449.62 430.886L394.9 430.886z" /></clipPath><clipPath id="135"><path id="" clip-rule="evenodd" d="M394.9 446.51L449.62 446.51L449.62 446.51L449.62 430.886L449.62 430.886L394.9 430.886z" /></clipPath><clipPath id="136"><path id="" clip-rule="evenodd" d="M394.9 446.51L449.62 446.51L449.62 446.51L449.62 430.886L449.62 430.886L394.9 430.886z" /></clipPath><clipPath id="137"><path id="" clip-rule="evenodd" d="M449.62 446.51L505.444 446.51L505.444 446.51L505.444 430.886L505.444 430.886L449.62 430.886z" /></clipPath><clipPath id="138"><path id="" clip-rule="evenodd" d="M449.62 446.51L505.444 446.51L505.444 446.51L505.444 430.886L505.444 430.886L449.62 430.886z" /></clipPath><clipPath id="139"><path id="" clip-rule="evenodd" d="M449.62 446.51L505.444 446.51L505.444 446.51L505.444 430.886L505.444 430.886L449.62 430.886z" /></clipPath><clipPath id="140"><path id="" clip-rule="evenodd" d="M449.62 446.51L505.444 446.51L505.444 446.51L505.444 430.886L505.444 430.886L449.62 430.886z" /></clipPath><clipPath id="141"><path id="" clip-rule="evenodd" d="M90.024 462.11L141.744 462.11L141.744 462.11L141.744 446.51L141.744 446.51L90.024 446.51z" /></clipPath><clipPath id="142"><path id="" clip-rule="evenodd" d="M90.024 462.11L141.744 462.11L141.744 462.11L141.744 446.51L141.744 446.51L90.024 446.51z" /></clipPath><clipPath id="143"><path id="" clip-rule="evenodd" d="M90.024 462.11L141.744 462.11L141.744 462.11L141.744 446.51L141.744 446.51L90.024 446.51z" /></clipPath><clipPath id="144"><path id="" clip-rule="evenodd" d="M90.024 462.11L141.744 462.11L141.744 462.11L141.744 446.51L141.744 446.51L90.024 446.51z" /></clipPath><clipPath id="145"><path id="" clip-rule="evenodd" d="M90.024 462.11L141.744 462.11L141.744 462.11L141.744 446.51L141.744 446.51L90.024 446.51z" /></clipPath><clipPath id="146"><path id="" clip-rule="evenodd" d="M141.74 462.11L189.044 462.11L189.044 462.11L189.044 446.51L189.044 446.51L141.74 446.51z" /></clipPath><clipPath id="147"><path id="" clip-rule="evenodd" d="M141.74 462.11L189.044 462.11L189.044 462.11L189.044 446.51L189.044 446.51L141.74 446.51z" /></clipPath><clipPath id="148"><path id="" clip-rule="evenodd" d="M141.74 462.11L189.044 462.11L189.044 462.11L189.044 446.51L189.044 446.51L141.74 446.51z" /></clipPath><clipPath id="149"><path id="" clip-rule="evenodd" d="M141.74 462.11L189.044 462.11L189.044 462.11L189.044 446.51L189.044 446.51L141.74 446.51z" /></clipPath><clipPath id="150"><path id="" clip-rule="evenodd" d="M189.05 462.11L236.45 462.11L236.45 462.11L236.45 446.51L236.45 446.51L189.05 446.51z" /></clipPath><clipPath id="151"><path id="" clip-rule="evenodd" d="M189.05 462.11L236.45 462.11L236.45 462.11L236.45 446.51L236.45 446.51L189.05 446.51z" /></clipPath><clipPath id="152"><path id="" clip-rule="evenodd" d="M189.05 462.11L236.45 462.11L236.45 462.11L236.45 446.51L236.45 446.51L189.05 446.51z" /></clipPath><clipPath id="153"><path id="" clip-rule="evenodd" d="M189.05 462.11L236.45 462.11L236.45 462.11L236.45 446.51L236.45 446.51L189.05 446.51z" /></clipPath><clipPath id="154"><path id="" clip-rule="evenodd" d="M236.45 462.11L283.754 462.11L283.754 462.11L283.754 446.51L283.754 446.51L236.45 446.51z" /></clipPath><clipPath id="155"><path id="" clip-rule="evenodd" d="M236.45 462.11L283.754 462.11L283.754 462.11L283.754 446.51L283.754 446.51L236.45 446.51z" /></clipPath><clipPath id="156"><path id="" clip-rule="evenodd" d="M236.45 462.11L283.754 462.11L283.754 462.11L283.754 446.51L283.754 446.51L236.45 446.51z" /></clipPath><clipPath id="157"><path id="" clip-rule="evenodd" d="M236.45 462.11L283.754 462.11L283.754 462.11L283.754 446.51L283.754 446.51L236.45 446.51z" /></clipPath><clipPath id="158"><path id="" clip-rule="evenodd" d="M283.75 462.11L331.03 462.11L331.03 462.11L331.03 446.51L331.03 446.51L283.75 446.51z" /></clipPath><clipPath id="159"><path id="" clip-rule="evenodd" d="M283.75 462.11L331.03 462.11L331.03 462.11L331.03 446.51L331.03 446.51L283.75 446.51z" /></clipPath><clipPath id="160"><path id="" clip-rule="evenodd" d="M283.75 462.11L331.03 462.11L331.03 462.11L331.03 446.51L331.03 446.51L283.75 446.51z" /></clipPath><clipPath id="161"><path id="" clip-rule="evenodd" d="M283.75 462.11L331.03 462.11L331.03 462.11L331.03 446.51L331.03 446.51L283.75 446.51z" /></clipPath><clipPath id="162"><path id="" clip-rule="evenodd" d="M331.03 462.11L394.894 462.11L394.894 462.11L394.894 446.51L394.894 446.51L331.03 446.51z" /></clipPath><clipPath id="163"><path id="" clip-rule="evenodd" d="M331.03 462.11L394.894 462.11L394.894 462.11L394.894 446.51L394.894 446.51L331.03 446.51z" /></clipPath><clipPath id="164"><path id="" clip-rule="evenodd" d="M331.03 462.11L394.894 462.11L394.894 462.11L394.894 446.51L394.894 446.51L331.03 446.51z" /></clipPath><clipPath id="165"><path id="" clip-rule="evenodd" d="M331.03 462.11L394.894 462.11L394.894 462.11L394.894 446.51L394.894 446.51L331.03 446.51z" /></clipPath><clipPath id="166"><path id="" clip-rule="evenodd" d="M394.9 462.11L449.62 462.11L449.62 462.11L449.62 446.51L449.62 446.51L394.9 446.51z" /></clipPath><clipPath id="167"><path id="" clip-rule="evenodd" d="M394.9 462.11L449.62 462.11L449.62 462.11L449.62 446.51L449.62 446.51L394.9 446.51z" /></clipPath><clipPath id="168"><path id="" clip-rule="evenodd" d="M394.9 462.11L449.62 462.11L449.62 462.11L449.62 446.51L449.62 446.51L394.9 446.51z" /></clipPath><clipPath id="169"><path id="" clip-rule="evenodd" d="M394.9 462.11L449.62 462.11L449.62 462.11L449.62 446.51L449.62 446.51L394.9 446.51z" /></clipPath><clipPath id="170"><path id="" clip-rule="evenodd" d="M449.62 462.11L505.444 462.11L505.444 462.11L505.444 446.51L505.444 446.51L449.62 446.51z" /></clipPath><clipPath id="171"><path id="" clip-rule="evenodd" d="M449.62 462.11L505.444 462.11L505.444 462.11L505.444 446.51L505.444 446.51L449.62 446.51z" /></clipPath><clipPath id="172"><path id="" clip-rule="evenodd" d="M449.62 462.11L505.444 462.11L505.444 462.11L505.444 446.51L505.444 446.51L449.62 446.51z" /></clipPath><clipPath id="173"><path id="" clip-rule="evenodd" d="M449.62 462.11L505.444 462.11L505.444 462.11L505.444 446.51L505.444 446.51L449.62 446.51z" /></clipPath><clipPath id="174"><path id="" clip-rule="evenodd" d="M90.024 477.71L141.744 477.71L141.744 477.71L141.744 462.11L141.744 462.11L90.024 462.11z" /></clipPath><clipPath id="175"><path id="" clip-rule="evenodd" d="M90.024 477.71L141.744 477.71L141.744 477.71L141.744 462.11L141.744 462.11L90.024 462.11z" /></clipPath><clipPath id="176"><path id="" clip-rule="evenodd" d="M90.024 477.71L141.744 477.71L141.744 477.71L141.744 462.11L141.744 462.11L90.024 462.11z" /></clipPath><clipPath id="177"><path id="" clip-rule="evenodd" d="M90.024 477.71L141.744 477.71L141.744 477.71L141.744 462.11L141.744 462.11L90.024 462.11z" /></clipPath><clipPath id="178"><path id="" clip-rule="evenodd" d="M90.024 477.71L141.744 477.71L141.744 477.71L141.744 462.11L141.744 462.11L90.024 462.11z" /></clipPath><clipPath id="179"><path id="" clip-rule="evenodd" d="M141.74 477.71L189.044 477.71L189.044 477.71L189.044 462.11L189.044 462.11L141.74 462.11z" /></clipPath><clipPath id="180"><path id="" clip-rule="evenodd" d="M141.74 477.71L189.044 477.71L189.044 477.71L189.044 462.11L189.044 462.11L141.74 462.11z" /></clipPath><clipPath id="181"><path id="" clip-rule="evenodd" d="M141.74 477.71L189.044 477.71L189.044 477.71L189.044 462.11L189.044 462.11L141.74 462.11z" /></clipPath><clipPath id="182"><path id="" clip-rule="evenodd" d="M141.74 477.71L189.044 477.71L189.044 477.71L189.044 462.11L189.044 462.11L141.74 462.11z" /></clipPath><clipPath id="183"><path id="" clip-rule="evenodd" d="M189.05 477.71L236.45 477.71L236.45 477.71L236.45 462.11L236.45 462.11L189.05 462.11z" /></clipPath><clipPath id="184"><path id="" clip-rule="evenodd" d="M189.05 477.71L236.45 477.71L236.45 477.71L236.45 462.11L236.45 462.11L189.05 462.11z" /></clipPath><clipPath id="185"><path id="" clip-rule="evenodd" d="M189.05 477.71L236.45 477.71L236.45 477.71L236.45 462.11L236.45 462.11L189.05 462.11z" /></clipPath><clipPath id="186"><path id="" clip-rule="evenodd" d="M189.05 477.71L236.45 477.71L236.45 477.71L236.45 462.11L236.45 462.11L189.05 462.11z" /></clipPath><clipPath id="187"><path id="" clip-rule="evenodd" d="M236.45 477.71L283.754 477.71L283.754 477.71L283.754 462.11L283.754 462.11L236.45 462.11z" /></clipPath><clipPath id="188"><path id="" clip-rule="evenodd" d="M236.45 477.71L283.754 477.71L283.754 477.71L283.754 462.11L283.754 462.11L236.45 462.11z" /></clipPath><clipPath id="189"><path id="" clip-rule="evenodd" d="M236.45 477.71L283.754 477.71L283.754 477.71L283.754 462.11L283.754 462.11L236.45 462.11z" /></clipPath><clipPath id="190"><path id="" clip-rule="evenodd" d="M236.45 477.71L283.754 477.71L283.754 477.71L283.754 462.11L283.754 462.11L236.45 462.11z" /></clipPath><clipPath id="191"><path id="" clip-rule="evenodd" d="M283.75 477.71L331.03 477.71L331.03 477.71L331.03 462.11L331.03 462.11L283.75 462.11z" /></clipPath><clipPath id="192"><path id="" clip-rule="evenodd" d="M283.75 477.71L331.03 477.71L331.03 477.71L331.03 462.11L331.03 462.11L283.75 462.11z" /></clipPath><clipPath id="193"><path id="" clip-rule="evenodd" d="M283.75 477.71L331.03 477.71L331.03 477.71L331.03 462.11L331.03 462.11L283.75 462.11z" /></clipPath><clipPath id="194"><path id="" clip-rule="evenodd" d="M283.75 477.71L331.03 477.71L331.03 477.71L331.03 462.11L331.03 462.11L283.75 462.11z" /></clipPath><clipPath id="195"><path id="" clip-rule="evenodd" d="M331.03 477.71L394.894 477.71L394.894 477.71L394.894 462.11L394.894 462.11L331.03 462.11z" /></clipPath><clipPath id="196"><path id="" clip-rule="evenodd" d="M331.03 477.71L394.894 477.71L394.894 477.71L394.894 462.11L394.894 462.11L331.03 462.11z" /></clipPath><clipPath id="197"><path id="" clip-rule="evenodd" d="M331.03 477.71L394.894 477.71L394.894 477.71L394.894 462.11L394.894 462.11L331.03 462.11z" /></clipPath><clipPath id="198"><path id="" clip-rule="evenodd" d="M331.03 477.71L394.894 477.71L394.894 477.71L394.894 462.11L394.894 462.11L331.03 462.11z" /></clipPath><clipPath id="199"><path id="" clip-rule="evenodd" d="M394.9 477.71L449.62 477.71L449.62 477.71L449.62 462.11L449.62 462.11L394.9 462.11z" /></clipPath><clipPath id="200"><path id="" clip-rule="evenodd" d="M394.9 477.71L449.62 477.71L449.62 477.71L449.62 462.11L449.62 462.11L394.9 462.11z" /></clipPath><clipPath id="201"><path id="" clip-rule="evenodd" d="M394.9 477.71L449.62 477.71L449.62 477.71L449.62 462.11L449.62 462.11L394.9 462.11z" /></clipPath><clipPath id="202"><path id="" clip-rule="evenodd" d="M394.9 477.71L449.62 477.71L449.62 477.71L449.62 462.11L449.62 462.11L394.9 462.11z" /></clipPath><clipPath id="203"><path id="" clip-rule="evenodd" d="M449.62 477.71L505.444 477.71L505.444 477.71L505.444 462.11L505.444 462.11L449.62 462.11z" /></clipPath><clipPath id="204"><path id="" clip-rule="evenodd" d="M449.62 477.71L505.444 477.71L505.444 477.71L505.444 462.11L505.444 462.11L449.62 462.11z" /></clipPath><clipPath id="205"><path id="" clip-rule="evenodd" d="M449.62 477.71L505.444 477.71L505.444 477.71L505.444 462.11L505.444 462.11L449.62 462.11z" /></clipPath><clipPath id="206"><path id="" clip-rule="evenodd" d="M449.62 477.71L505.444 477.71L505.444 477.71L505.444 462.11L505.444 462.11L449.62 462.11z" /></clipPath><clipPath id="207"><path id="" clip-rule="evenodd" d="M8.871E-06 841L595.32 841L595.32 841L595.32 -0.9199829L595.32 -0.9199829L8.871E-06 -0.9199829z" /></clipPath><clipPath id="208"><path id="" clip-rule="evenodd" d="M8.871E-06 841L595.32 841L595.32 841L595.32 -0.9199829L595.32 -0.9199829L8.871E-06 -0.9199829z" /></clipPath><clipPath id="209"><path id="" clip-rule="evenodd" d="M8.871E-06 841L595.32 841L595.32 841L595.32 -0.9199829L595.32 -0.9199829L8.871E-06 -0.9199829z" /></clipPath><clipPath id="210"><path id="" clip-rule="evenodd" d="M8.871E-06 841L595.32 841L595.32 841L595.32 -0.9199829L595.32 -0.9199829L8.871E-06 -0.9199829z" /></clipPath><clipPath id="211"><path id="" clip-rule="evenodd" d="M8.871E-06 841L595.32 841L595.32 841L595.32 -0.9199829L595.32 -0.9199829L8.871E-06 -0.9199829z" /></clipPath><clipPath id="212"><path id="" clip-rule="evenodd" d="M8.871E-06 841L595.32 841L595.32 841L595.32 -0.9199829L595.32 -0.9199829L8.871E-06 -0.9199829z" /></clipPath><clipPath id="213"><path id="" clip-rule="evenodd" d="M8.871E-06 841L595.32 841L595.32 841L595.32 -0.9199829L595.32 -0.9199829L8.871E-06 -0.9199829z" /></clipPath><clipPath id="214"><path id="" clip-rule="evenodd" d="M8.871E-06 841L595.32 841L595.32 841L595.32 -0.9199829L595.32 -0.9199829L8.871E-06 -0.9199829z" /></clipPath><clipPath id="215"><path id="" clip-rule="evenodd" d="M8.871E-06 841L595.32 841L595.32 841L595.32 -0.9199829L595.32 -0.9199829L8.871E-06 -0.9199829z" /></clipPath><clipPath id="216"><path id="" clip-rule="evenodd" d="M8.871E-06 841L595.32 841L595.32 841L595.32 -0.9199829L595.32 -0.9199829L8.871E-06 -0.9199829z" /></clipPath><clipPath id="217"><path id="" clip-rule="evenodd" d="M8.871E-06 841L595.32 841L595.32 841L595.32 -0.9199829L595.32 -0.9199829L8.871E-06 -0.9199829z" /></clipPath><clipPath id="218"><path id="" clip-rule="evenodd" d="M8.871E-06 841L595.32 841L595.32 841L595.32 -0.9199829L595.32 -0.9199829L8.871E-06 -0.9199829z" /></clipPath><clipPath id="219"><path id="" clip-rule="evenodd" d="M8.871E-06 841L595.32 841L595.32 841L595.32 -0.9199829L595.32 -0.9199829L8.871E-06 -0.9199829z" /></clipPath><clipPath id="220"><path id="" clip-rule="evenodd" d="M8.871E-06 841L595.32 841L595.32 841L595.32 -0.9199829L595.32 -0.9199829L8.871E-06 -0.9199829z" /></clipPath><clipPath id="221"><path id="" clip-rule="evenodd" d="M8.871E-06 841L595.32 841L595.32 841L595.32 -0.9199829L595.32 -0.9199829L8.871E-06 -0.9199829z" /></clipPath><clipPath id="222"><path id="" clip-rule="evenodd" d="M8.871E-06 841L595.32 841L595.32 841L595.32 -0.9199829L595.32 -0.9199829L8.871E-06 -0.9199829z" /></clipPath><clipPath id="223"><path id="" clip-rule="evenodd" d="M8.871E-06 841L595.32 841L595.32 841L595.32 -0.9199829L595.32 -0.9199829L8.871E-06 -0.9199829z" /></clipPath><clipPath id="224"><path id="" clip-rule="evenodd" d="M8.871E-06 841L595.32 841L595.32 841L595.32 -0.9199829L595.32 -0.9199829L8.871E-06 -0.9199829z" /></clipPath><clipPath id="225"><path id="" clip-rule="evenodd" d="M8.871E-06 841L595.32 841L595.32 841L595.32 -0.9199829L595.32 -0.9199829L8.871E-06 -0.9199829z" /></clipPath><clipPath id="226"><path id="" clip-rule="evenodd" d="M8.871E-06 841L595.32 841L595.32 841L595.32 -0.9199829L595.32 -0.9199829L8.871E-06 -0.9199829z" /></clipPath><clipPath id="227"><path id="" clip-rule="evenodd" d="M8.871E-06 841L595.32 841L595.32 841L595.32 -0.9199829L595.32 -0.9199829L8.871E-06 -0.9199829z" /></clipPath><clipPath id="228"><path id="" clip-rule="evenodd" d="M8.871E-06 841L595.32 841L595.32 841L595.32 -0.9199829L595.32 -0.9199829L8.871E-06 -0.9199829z" /></clipPath><clipPath id="229"><path id="" clip-rule="evenodd" d="M8.871E-06 841L595.32 841L595.32 841L595.32 -0.9199829L595.32 -0.9199829L8.871E-06 -0.9199829z" /></clipPath><clipPath id="230"><path id="" clip-rule="evenodd" d="M8.871E-06 841L595.32 841L595.32 841L595.32 -0.9199829L595.32 -0.9199829L8.871E-06 -0.9199829z" /></clipPath><clipPath id="231"><path id="" clip-rule="evenodd" d="M8.871E-06 841L595.32 841L595.32 841L595.32 -0.9199829L595.32 -0.9199829L8.871E-06 -0.9199829z" /></clipPath><clipPath id="232"><path id="" clip-rule="evenodd" d="M8.871E-06 841L595.32 841L595.32 841L595.32 -0.9199829L595.32 -0.9199829L8.871E-06 -0.9199829z" /></clipPath><clipPath id="233"><path id="" clip-rule="evenodd" d="M8.871E-06 841L595.32 841L595.32 841L595.32 -0.9199829L595.32 -0.9199829L8.871E-06 -0.9199829z" /></clipPath><clipPath id="234"><path id="" clip-rule="evenodd" d="M8.871E-06 841L595.32 841L595.32 841L595.32 -0.9199829L595.32 -0.9199829L8.871E-06 -0.9199829z" /></clipPath><clipPath id="235"><path id="" clip-rule="evenodd" d="M8.871E-06 841L595.32 841L595.32 841L595.32 -0.9199829L595.32 -0.9199829L8.871E-06 -0.9199829z" /></clipPath><clipPath id="236"><path id="" clip-rule="evenodd" d="M8.871E-06 841L595.32 841L595.32 841L595.32 -0.9199829L595.32 -0.9199829L8.871E-06 -0.9199829z" /></clipPath><clipPath id="237"><path id="" clip-rule="evenodd" d="M8.871E-06 841L595.32 841L595.32 841L595.32 -0.9199829L595.32 -0.9199829L8.871E-06 -0.9199829z" /></clipPath><clipPath id="238"><path id="" clip-rule="evenodd" d="M8.871E-06 841L595.32 841L595.32 841L595.32 -0.9199829L595.32 -0.9199829L8.871E-06 -0.9199829z" /></clipPath><clipPath id="239"><path id="" clip-rule="evenodd" d="M8.871E-06 841L595.32 841L595.32 841L595.32 -0.9199829L595.32 -0.9199829L8.871E-06 -0.9199829z" /></clipPath><clipPath id="240"><path id="" clip-rule="evenodd" d="M8.871E-06 841L595.32 841L595.32 841L595.32 -0.9199829L595.32 -0.9199829L8.871E-06 -0.9199829z" /></clipPath><clipPath id="241"><path id="" clip-rule="evenodd" d="M8.871E-06 841L595.32 841L595.32 841L595.32 -0.9199829L595.32 -0.9199829L8.871E-06 -0.9199829z" /></clipPath><clipPath id="242"><path id="" clip-rule="evenodd" d="M8.871E-06 841L595.32 841L595.32 841L595.32 -0.9199829L595.32 -0.9199829L8.871E-06 -0.9199829z" /></clipPath><clipPath id="243"><path id="" clip-rule="evenodd" d="M8.871E-06 841L595.32 841L595.32 841L595.32 -0.9199829L595.32 -0.9199829L8.871E-06 -0.9199829z" /></clipPath><clipPath id="244"><path id="" clip-rule="evenodd" d="M8.871E-06 841L595.32 841L595.32 841L595.32 -0.9199829L595.32 -0.9199829L8.871E-06 -0.9199829z" /></clipPath><clipPath id="245"><path id="" clip-rule="evenodd" d="M8.871E-06 841L595.32 841L595.32 841L595.32 -0.9199829L595.32 -0.9199829L8.871E-06 -0.9199829z" /></clipPath><clipPath id="246"><path id="" clip-rule="evenodd" d="M8.871E-06 841L595.32 841L595.32 841L595.32 -0.9199829L595.32 -0.9199829L8.871E-06 -0.9199829z" /></clipPath><clipPath id="247"><path id="" clip-rule="evenodd" d="M8.871E-06 841L595.32 841L595.32 841L595.32 -0.9199829L595.32 -0.9199829L8.871E-06 -0.9199829z" /></clipPath><clipPath id="248"><path id="" clip-rule="evenodd" d="M8.871E-06 841L595.32 841L595.32 841L595.32 -0.9199829L595.32 -0.9199829L8.871E-06 -0.9199829z" /></clipPath><clipPath id="249"><path id="" clip-rule="evenodd" d="M8.871E-06 841L595.32 841L595.32 841L595.32 -0.9199829L595.32 -0.9199829L8.871E-06 -0.9199829z" /></clipPath><clipPath id="250"><path id="" clip-rule="evenodd" d="M8.871E-06 841L595.32 841L595.32 841L595.32 -0.9199829L595.32 -0.9199829L8.871E-06 -0.9199829z" /></clipPath><clipPath id="251"><path id="" clip-rule="evenodd" d="M8.871E-06 841L595.32 841L595.32 841L595.32 -0.9199829L595.32 -0.9199829L8.871E-06 -0.9199829z" /></clipPath><clipPath id="252"><path id="" clip-rule="evenodd" d="M8.871E-06 841L595.32 841L595.32 841L595.32 -0.9199829L595.32 -0.9199829L8.871E-06 -0.9199829z" /></clipPath><clipPath id="253"><path id="" clip-rule="evenodd" d="M8.871E-06 841L595.32 841L595.32 841L595.32 -0.9199829L595.32 -0.9199829L8.871E-06 -0.9199829z" /></clipPath><clipPath id="254"><path id="" clip-rule="evenodd" d="M8.871E-06 841L595.32 841L595.32 841L595.32 -0.9199829L595.32 -0.9199829L8.871E-06 -0.9199829z" /></clipPath><clipPath id="255"><path id="" clip-rule="evenodd" d="M8.871E-06 841L595.32 841L595.32 841L595.32 -0.9199829L595.32 -0.9199829L8.871E-06 -0.9199829z" /></clipPath><clipPath id="256"><path id="" clip-rule="evenodd" d="M8.871E-06 841L595.32 841L595.32 841L595.32 -0.9199829L595.32 -0.9199829L8.871E-06 -0.9199829z" /></clipPath><clipPath id="257"><path id="" clip-rule="evenodd" d="M8.871E-06 841L595.32 841L595.32 841L595.32 -0.9199829L595.32 -0.9199829L8.871E-06 -0.9199829z" /></clipPath><clipPath id="258"><path id="" clip-rule="evenodd" d="M8.871E-06 841L595.32 841L595.32 841L595.32 -0.9199829L595.32 -0.9199829L8.871E-06 -0.9199829z" /></clipPath><clipPath id="259"><path id="" clip-rule="evenodd" d="M8.871E-06 841L595.32 841L595.32 841L595.32 -0.9199829L595.32 -0.9199829L8.871E-06 -0.9199829z" /></clipPath><clipPath id="260"><path id="" clip-rule="evenodd" d="M8.871E-06 841L595.32 841L595.32 841L595.32 -0.9199829L595.32 -0.9199829L8.871E-06 -0.9199829z" /></clipPath><clipPath id="261"><path id="" clip-rule="evenodd" d="M8.871E-06 841L595.32 841L595.32 841L595.32 -0.9199829L595.32 -0.9199829L8.871E-06 -0.9199829z" /></clipPath><clipPath id="262"><path id="" clip-rule="evenodd" d="M8.871E-06 841L595.32 841L595.32 841L595.32 -0.9199829L595.32 -0.9199829L8.871E-06 -0.9199829z" /></clipPath><clipPath id="263"><path id="" clip-rule="evenodd" d="M8.871E-06 841L595.32 841L595.32 841L595.32 -0.9199829L595.32 -0.9199829L8.871E-06 -0.9199829z" /></clipPath><clipPath id="264"><path id="" clip-rule="evenodd" d="M8.871E-06 841L595.32 841L595.32 841L595.32 -0.9199829L595.32 -0.9199829L8.871E-06 -0.9199829z" /></clipPath><clipPath id="265"><path id="" clip-rule="evenodd" d="M8.871E-06 841L595.32 841L595.32 841L595.32 -0.9199829L595.32 -0.9199829L8.871E-06 -0.9199829z" /></clipPath><clipPath id="266"><path id="" clip-rule="evenodd" d="M8.871E-06 841L595.32 841L595.32 841L595.32 -0.9199829L595.32 -0.9199829L8.871E-06 -0.9199829z" /></clipPath><clipPath id="267"><path id="" clip-rule="evenodd" d="M8.871E-06 841L595.32 841L595.32 841L595.32 -0.9199829L595.32 -0.9199829L8.871E-06 -0.9199829z" /></clipPath><clipPath id="268"><path id="" clip-rule="evenodd" d="M8.871E-06 841L595.32 841L595.32 841L595.32 -0.9199829L595.32 -0.9199829L8.871E-06 -0.9199829z" /></clipPath><clipPath id="269"><path id="" clip-rule="evenodd" d="M8.871E-06 841L595.32 841L595.32 841L595.32 -0.9199829L595.32 -0.9199829L8.871E-06 -0.9199829z" /></clipPath><clipPath id="270"><path id="" clip-rule="evenodd" d="M8.871E-06 841L595.32 841L595.32 841L595.32 -0.9199829L595.32 -0.9199829L8.871E-06 -0.9199829z" /></clipPath><clipPath id="271"><path id="" clip-rule="evenodd" d="M8.871E-06 841L595.32 841L595.32 841L595.32 -0.9199829L595.32 -0.9199829L8.871E-06 -0.9199829z" /></clipPath><clipPath id="272"><path id="" clip-rule="evenodd" d="M8.871E-06 841L595.32 841L595.32 841L595.32 -0.9199829L595.32 -0.9199829L8.871E-06 -0.9199829z" /></clipPath><clipPath id="273"><path id="" clip-rule="evenodd" d="M8.871E-06 841L595.32 841L595.32 841L595.32 -0.9199829L595.32 -0.9199829L8.871E-06 -0.9199829z" /></clipPath><clipPath id="274"><path id="" clip-rule="evenodd" d="M8.871E-06 841L595.32 841L595.32 841L595.32 -0.9199829L595.32 -0.9199829L8.871E-06 -0.9199829z" /></clipPath><clipPath id="275"><path id="" clip-rule="evenodd" d="M8.871E-06 841L595.32 841L595.32 841L595.32 -0.9199829L595.32 -0.9199829L8.871E-06 -0.9199829z" /></clipPath><clipPath id="276"><path id="" clip-rule="evenodd" d="M8.871E-06 841L595.32 841L595.32 841L595.32 -0.9199829L595.32 -0.9199829L8.871E-06 -0.9199829z" /></clipPath><clipPath id="277"><path id="" clip-rule="evenodd" d="M8.871E-06 841L595.32 841L595.32 841L595.32 -0.9199829L595.32 -0.9199829L8.871E-06 -0.9199829z" /></clipPath><clipPath id="278"><path id="" clip-rule="evenodd" d="M8.871E-06 841L595.32 841L595.32 841L595.32 -0.9199829L595.32 -0.9199829L8.871E-06 -0.9199829z" /></clipPath><clipPath id="279"><path id="" clip-rule="evenodd" d="M-8.871E-06 258.28L595.32 258.28L595.32 258.28L595.32 71.08002L595.32 71.08002L-8.871E-06 71.08002z" /></clipPath></defs><g transform="matrix(1.333333 0 0 1.333333 0 0)"><g clip-path="url(#1)"><g clip-path="url(#2)"><path id="1" transform="matrix(1 0 0 -1 0 841)" d="M0 -0.13L595.45 -0.13L595.45 -0.13L595.45 841.92L595.45 841.92L0 841.92z" stroke="none" fill="#F5F1DE" fill-rule="evenodd" /></g><g clip-path="url(#3)"></g><g clip-path="url(#4)"></g><path id="23" transform="matrix(1 0 0 -1 0 841)" d="M90 777.72L505.3 777.72L505.3 777.72L505.3 779.27L505.3 779.27L90 779.27z" stroke="none" fill="#808080" fill-rule="evenodd" /><path id="24" transform="matrix(1 0 0 -1 0 841)" d="M90.024 779.04L90.264 779.04L90.264 779.04L90.264 779.28L90.264 779.28L90.024 779.28z" stroke="none" fill="#808080" fill-rule="evenodd" /><path id="25" transform="matrix(1 0 0 -1 0 841)" d="M90.024 779.04L90.264 779.04L90.264 779.04L90.264 779.28L90.264 779.28L90.024 779.28z" stroke="none" fill="#808080" fill-rule="evenodd" /><path id="26" transform="matrix(1 0 0 -1 0 841)" d="M90.264 779.04L505.204 779.04L505.204 779.04L505.204 779.28L505.204 779.28L90.264 779.28z" stroke="none" fill="#808080" fill-rule="evenodd" /><path id="27" transform="matrix(1 0 0 -1 0 841)" d="M505.2 779.04L505.44 779.04L505.44 779.04L505.44 779.28L505.44 779.28L505.2 779.28z" stroke="none" fill="#D4D0C8" fill-rule="evenodd" /><path id="28" transform="matrix(1 0 0 -1 0 841)" d="M505.2 779.04L505.44 779.04L505.44 779.04L505.44 779.28L505.44 779.28L505.2 779.28z" stroke="none" fill="#808080" fill-rule="evenodd" /><path id="29" transform="matrix(1 0 0 -1 0 841)" d="M90.024 777.96L90.264 777.96L90.264 777.96L90.264 779.04L90.264 779.04L90.024 779.04z" stroke="none" fill="#808080" fill-rule="evenodd" /><path id="30" transform="matrix(1 0 0 -1 0 841)" d="M505.2 777.96L505.44 777.96L505.44 777.96L505.44 779.04L505.44 779.04L505.2 779.04z" stroke="none" fill="#D4D0C8" fill-rule="evenodd" /><path id="31" transform="matrix(1 0 0 -1 0 841)" d="M90.024 777.72L90.264 777.72L90.264 777.72L90.264 777.96L90.264 777.96L90.024 777.96z" stroke="none" fill="#808080" fill-rule="evenodd" /><path id="32" transform="matrix(1 0 0 -1 0 841)" d="M90.024 777.72L90.264 777.72L90.264 777.72L90.264 777.96L90.264 777.96L90.024 777.96z" stroke="none" fill="#D4D0C8" fill-rule="evenodd" /><path id="33" transform="matrix(1 0 0 -1 0 841)" d="M90.264 777.72L505.204 777.72L505.204 777.72L505.204 777.96L505.204 777.96L90.264 777.96z" stroke="none" fill="#D4D0C8" fill-rule="evenodd" /><path id="34" transform="matrix(1 0 0 -1 0 841)" d="M505.2 777.72L505.44 777.72L505.44 777.72L505.44 777.96L505.44 777.96L505.2 777.96z" stroke="none" fill="#D4D0C8" fill-rule="evenodd" /><path id="35" transform="matrix(1 0 0 -1 0 841)" d="M505.2 777.72L505.44 777.72L505.44 777.72L505.44 777.96L505.44 777.96L505.2 777.96z" stroke="none" fill="#D4D0C8" fill-rule="evenodd" /><g clip-path="url(#5)"></g><g clip-path="url(#6)"></g><g clip-path="url(#7)"></g><g clip-path="url(#8)"></g><g clip-path="url(#9)"></g><g clip-path="url(#10)"></g><g clip-path="url(#11)"></g><g clip-path="url(#12)"></g><g clip-path="url(#13)"></g><g clip-path="url(#14)"></g><g clip-path="url(#15)"></g><g clip-path="url(#16)"></g><g clip-path="url(#17)"></g><g clip-path="url(#18)"></g><g clip-path="url(#19)"></g><g clip-path="url(#20)"></g><g clip-path="url(#21)"></g><path id="290" transform="matrix(1 0 0 -1 0 841)" d="M209.93 538.15L488.02 538.15L488.02 538.15L488.02 538.63L488.02 538.63L209.93 538.63z" stroke="none" fill="#0000FF" fill-rule="evenodd" /><g clip-path="url(#22)"></g><g clip-path="url(#23)"></g><g clip-path="url(#24)"></g><g clip-path="url(#25)"></g><g clip-path="url(#26)"></g><g clip-path="url(#27)"></g><g clip-path="url(#28)"></g><g clip-path="url(#29)"></g><g clip-path="url(#30)"></g><g clip-path="url(#31)"></g><g clip-path="url(#32)"></g><g clip-path="url(#33)"></g><g clip-path="url(#34)"></g><g clip-path="url(#35)"></g><g clip-path="url(#36)"></g><g clip-path="url(#37)"></g><g clip-path="url(#38)"></g><g clip-path="url(#39)"></g><g clip-path="url(#40)"></g><g clip-path="url(#41)"></g><g clip-path="url(#42)"></g><g clip-path="url(#43)"></g><g clip-path="url(#44)"></g><g clip-path="url(#45)"></g><g clip-path="url(#46)"></g><g clip-path="url(#47)"></g><g clip-path="url(#48)"></g><g clip-path="url(#49)"></g><g clip-path="url(#50)"></g><g clip-path="url(#51)"></g><g clip-path="url(#52)"></g><g clip-path="url(#53)"></g><g clip-path="url(#54)"></g><g clip-path="url(#55)"></g><g clip-path="url(#56)"></g><g clip-path="url(#57)"></g><g clip-path="url(#58)"></g><g clip-path="url(#59)"></g><g clip-path="url(#60)"></g><g clip-path="url(#61)"></g><g clip-path="url(#62)"></g><g clip-path="url(#63)"></g><g clip-path="url(#64)"></g><g clip-path="url(#65)"></g><g clip-path="url(#66)"></g><g clip-path="url(#67)"></g><g clip-path="url(#68)"></g><g clip-path="url(#69)"></g><g clip-path="url(#70)"></g><g clip-path="url(#71)"></g><g clip-path="url(#72)"><g clip-path="url(#73)"></g></g><g clip-path="url(#74)"><g clip-path="url(#75)"></g><g clip-path="url(#76)"></g><g clip-path="url(#77)"></g><g clip-path="url(#78)"></g><g clip-path="url(#79)"></g><g clip-path="url(#80)"></g></g><g clip-path="url(#81)"><g clip-path="url(#82)"></g><g clip-path="url(#83)"></g><g clip-path="url(#84)"></g></g><g clip-path="url(#85)"><g clip-path="url(#86)"></g><g clip-path="url(#87)"></g><g clip-path="url(#88)"></g><g clip-path="url(#89)"></g><g clip-path="url(#90)"></g><g clip-path="url(#91)"></g></g><g clip-path="url(#92)"><g clip-path="url(#93)"></g><g clip-path="url(#94)"></g><g clip-path="url(#95)"></g><g clip-path="url(#96)"></g><g clip-path="url(#97)"></g><g clip-path="url(#98)"></g></g><g clip-path="url(#99)"><g clip-path="url(#100)"></g><g clip-path="url(#101)"></g></g><g clip-path="url(#102)"><g clip-path="url(#103)"></g><g clip-path="url(#104)"></g></g><g clip-path="url(#105)"><g clip-path="url(#106)"></g><g clip-path="url(#107)"></g></g><path id="849" transform="matrix(1 0 0 -1 0 841)" d="M90.024 426.19L141.744 426.19L141.744 426.19L141.744 426.67L141.744 426.67L90.024 426.67z" stroke="none" fill="#000000" fill-rule="evenodd" /><path id="850" transform="matrix(1 0 0 -1 0 841)" d="M141.74 426.19L142.22 426.19L142.22 426.19L142.22 426.67L142.22 426.67L141.74 426.67z" stroke="none" fill="#000000" fill-rule="evenodd" /><path id="851" transform="matrix(1 0 0 -1 0 841)" d="M142.22 426.19L189.044 426.19L189.044 426.19L189.044 426.67L189.044 426.67L142.22 426.67z" stroke="none" fill="#000000" fill-rule="evenodd" /><path id="852" transform="matrix(1 0 0 -1 0 841)" d="M189.05 426.19L189.53 426.19L189.53 426.19L189.53 426.67L189.53 426.67L189.05 426.67z" stroke="none" fill="#000000" fill-rule="evenodd" /><path id="853" transform="matrix(1 0 0 -1 0 841)" d="M189.53 426.19L236.45 426.19L236.45 426.19L236.45 426.67L236.45 426.67L189.53 426.67z" stroke="none" fill="#000000" fill-rule="evenodd" /><path id="854" transform="matrix(1 0 0 -1 0 841)" d="M236.45 426.19L236.93 426.19L236.93 426.19L236.93 426.67L236.93 426.67L236.45 426.67z" stroke="none" fill="#000000" fill-rule="evenodd" /><path id="855" transform="matrix(1 0 0 -1 0 841)" d="M236.93 426.19L283.754 426.19L283.754 426.19L283.754 426.67L283.754 426.67L236.93 426.67z" stroke="none" fill="#000000" fill-rule="evenodd" /><path id="856" transform="matrix(1 0 0 -1 0 841)" d="M283.75 426.19L284.23 426.19L284.23 426.19L284.23 426.67L284.23 426.67L283.75 426.67z" stroke="none" fill="#000000" fill-rule="evenodd" /><path id="857" transform="matrix(1 0 0 -1 0 841)" d="M284.23 426.19L331.03 426.19L331.03 426.19L331.03 426.67L331.03 426.67L284.23 426.67z" stroke="none" fill="#000000" fill-rule="evenodd" /><path id="858" transform="matrix(1 0 0 -1 0 841)" d="M331.03 426.19L331.51 426.19L331.51 426.19L331.51 426.67L331.51 426.67L331.03 426.67z" stroke="none" fill="#000000" fill-rule="evenodd" /><path id="859" transform="matrix(1 0 0 -1 0 841)" d="M331.51 426.19L394.894 426.19L394.894 426.19L394.894 426.67L394.894 426.67L331.51 426.67z" stroke="none" fill="#000000" fill-rule="evenodd" /><path id="860" transform="matrix(1 0 0 -1 0 841)" d="M394.9 426.19L395.38 426.19L395.38 426.19L395.38 426.67L395.38 426.67L394.9 426.67z" stroke="none" fill="#000000" fill-rule="evenodd" /><path id="861" transform="matrix(1 0 0 -1 0 841)" d="M395.38 426.19L449.62 426.19L449.62 426.19L449.62 426.67L449.62 426.67L395.38 426.67z" stroke="none" fill="#000000" fill-rule="evenodd" /><path id="862" transform="matrix(1 0 0 -1 0 841)" d="M449.62 426.19L450.1 426.19L450.1 426.19L450.1 426.67L450.1 426.67L449.62 426.67z" stroke="none" fill="#000000" fill-rule="evenodd" /><path id="863" transform="matrix(1 0 0 -1 0 841)" d="M450.1 426.19L505.444 426.19L505.444 426.19L505.444 426.67L505.444 426.67L450.1 426.67z" stroke="none" fill="#000000" fill-rule="evenodd" /><g clip-path="url(#108)"><g clip-path="url(#109)"></g><g clip-path="url(#110)"></g><g clip-path="url(#111)"></g><g clip-path="url(#112)"></g></g><g clip-path="url(#113)"><g clip-path="url(#114)"></g><g clip-path="url(#115)"></g><g clip-path="url(#116)"></g></g><g clip-path="url(#117)"><g clip-path="url(#118)"></g><g clip-path="url(#119)"></g><g clip-path="url(#120)"></g></g><g clip-path="url(#121)"><g clip-path="url(#122)"></g><g clip-path="url(#123)"></g><g clip-path="url(#124)"></g></g><g clip-path="url(#125)"><g clip-path="url(#126)"></g><g clip-path="url(#127)"></g><g clip-path="url(#128)"></g></g><g clip-path="url(#129)"><g clip-path="url(#130)"></g><g clip-path="url(#131)"></g><g clip-path="url(#132)"></g></g><g clip-path="url(#133)"><g clip-path="url(#134)"></g><g clip-path="url(#135)"></g><g clip-path="url(#136)"></g></g><g clip-path="url(#137)"><g clip-path="url(#138)"></g><g clip-path="url(#139)"></g><g clip-path="url(#140)"></g></g><path id="899" transform="matrix(1 0 0 -1 0 841)" d="M90.024 410.11L141.744 410.11L141.744 410.11L141.744 410.59L141.744 410.59L90.024 410.59z" stroke="none" fill="#000000" fill-rule="evenodd" /><path id="900" transform="matrix(1 0 0 -1 0 841)" d="M141.74 410.11L142.22 410.11L142.22 410.11L142.22 410.59L142.22 410.59L141.74 410.59z" stroke="none" fill="#000000" fill-rule="evenodd" /><path id="901" transform="matrix(1 0 0 -1 0 841)" d="M142.22 410.11L189.044 410.11L189.044 410.11L189.044 410.59L189.044 410.59L142.22 410.59z" stroke="none" fill="#000000" fill-rule="evenodd" /><path id="902" transform="matrix(1 0 0 -1 0 841)" d="M189.05 410.11L189.53 410.11L189.53 410.11L189.53 410.59L189.53 410.59L189.05 410.59z" stroke="none" fill="#000000" fill-rule="evenodd" /><path id="903" transform="matrix(1 0 0 -1 0 841)" d="M189.53 410.11L236.45 410.11L236.45 410.11L236.45 410.59L236.45 410.59L189.53 410.59z" stroke="none" fill="#000000" fill-rule="evenodd" /><path id="904" transform="matrix(1 0 0 -1 0 841)" d="M236.45 410.11L236.93 410.11L236.93 410.11L236.93 410.59L236.93 410.59L236.45 410.59z" stroke="none" fill="#000000" fill-rule="evenodd" /><path id="905" transform="matrix(1 0 0 -1 0 841)" d="M236.93 410.11L283.754 410.11L283.754 410.11L283.754 410.59L283.754 410.59L236.93 410.59z" stroke="none" fill="#000000" fill-rule="evenodd" /><path id="906" transform="matrix(1 0 0 -1 0 841)" d="M283.75 410.11L284.23 410.11L284.23 410.11L284.23 410.59L284.23 410.59L283.75 410.59z" stroke="none" fill="#000000" fill-rule="evenodd" /><path id="907" transform="matrix(1 0 0 -1 0 841)" d="M284.23 410.11L331.03 410.11L331.03 410.11L331.03 410.59L331.03 410.59L284.23 410.59z" stroke="none" fill="#000000" fill-rule="evenodd" /><path id="908" transform="matrix(1 0 0 -1 0 841)" d="M331.03 410.11L331.51 410.11L331.51 410.11L331.51 410.59L331.51 410.59L331.03 410.59z" stroke="none" fill="#000000" fill-rule="evenodd" /><path id="909" transform="matrix(1 0 0 -1 0 841)" d="M331.51 410.11L394.894 410.11L394.894 410.11L394.894 410.59L394.894 410.59L331.51 410.59z" stroke="none" fill="#000000" fill-rule="evenodd" /><path id="910" transform="matrix(1 0 0 -1 0 841)" d="M394.9 410.11L395.38 410.11L395.38 410.11L395.38 410.59L395.38 410.59L394.9 410.59z" stroke="none" fill="#000000" fill-rule="evenodd" /><path id="911" transform="matrix(1 0 0 -1 0 841)" d="M395.38 410.11L449.62 410.11L449.62 410.11L449.62 410.59L449.62 410.59L395.38 410.59z" stroke="none" fill="#000000" fill-rule="evenodd" /><path id="912" transform="matrix(1 0 0 -1 0 841)" d="M449.62 410.11L450.1 410.11L450.1 410.11L450.1 410.59L450.1 410.59L449.62 410.59z" stroke="none" fill="#000000" fill-rule="evenodd" /><path id="913" transform="matrix(1 0 0 -1 0 841)" d="M450.1 410.11L505.444 410.11L505.444 410.11L505.444 410.59L505.444 410.59L450.1 410.59z" stroke="none" fill="#000000" fill-rule="evenodd" /><g clip-path="url(#141)"><g clip-path="url(#142)"></g><g clip-path="url(#143)"></g><g clip-path="url(#144)"></g><g clip-path="url(#145)"></g></g><g clip-path="url(#146)"><g clip-path="url(#147)"></g><g clip-path="url(#148)"></g><g clip-path="url(#149)"></g></g><g clip-path="url(#150)"><g clip-path="url(#151)"></g><g clip-path="url(#152)"></g><g clip-path="url(#153)"></g></g><g clip-path="url(#154)"><g clip-path="url(#155)"></g><g clip-path="url(#156)"></g><g clip-path="url(#157)"></g></g><g clip-path="url(#158)"><g clip-path="url(#159)"></g><g clip-path="url(#160)"></g><g clip-path="url(#161)"></g></g><g clip-path="url(#162)"><g clip-path="url(#163)"></g><g clip-path="url(#164)"></g><g clip-path="url(#165)"></g></g><g clip-path="url(#166)"><g clip-path="url(#167)"></g><g clip-path="url(#168)"></g><g clip-path="url(#169)"></g></g><g clip-path="url(#170)"><g clip-path="url(#171)"></g><g clip-path="url(#172)"></g><g clip-path="url(#173)"></g></g><g clip-path="url(#174)"><g clip-path="url(#175)"></g><g clip-path="url(#176)"></g><g clip-path="url(#177)"></g><g clip-path="url(#178)"></g></g><g clip-path="url(#179)"><g clip-path="url(#180)"></g><g clip-path="url(#181)"></g><g clip-path="url(#182)"></g></g><g clip-path="url(#183)"><g clip-path="url(#184)"></g><g clip-path="url(#185)"></g><g clip-path="url(#186)"></g></g><g clip-path="url(#187)"><g clip-path="url(#188)"></g><g clip-path="url(#189)"></g><g clip-path="url(#190)"></g></g><g clip-path="url(#191)"><g clip-path="url(#192)"></g><g clip-path="url(#193)"></g><g clip-path="url(#194)"></g></g><g clip-path="url(#195)"><g clip-path="url(#196)"></g><g clip-path="url(#197)"></g><g clip-path="url(#198)"></g></g><g clip-path="url(#199)"><g clip-path="url(#200)"></g><g clip-path="url(#201)"></g><g clip-path="url(#202)"></g></g><g clip-path="url(#203)"><g clip-path="url(#204)"></g><g clip-path="url(#205)"></g><g clip-path="url(#206)"></g></g><path id="982" transform="matrix(1 0 0 -1 0 841)" d="M89.304 362.81L141.744 362.81L141.744 362.81L141.744 363.29L141.744 363.29L89.304 363.29z" stroke="none" fill="#000000" fill-rule="evenodd" /><path id="983" transform="matrix(1 0 0 -1 0 841)" d="M141.02 362.81L141.5 362.81L141.5 362.81L141.5 363.29L141.5 363.29L141.02 363.29z" stroke="none" fill="#000000" fill-rule="evenodd" /><path id="984" transform="matrix(1 0 0 -1 0 841)" d="M141.5 362.81L189.044 362.81L189.044 362.81L189.044 363.29L189.044 363.29L141.5 363.29z" stroke="none" fill="#000000" fill-rule="evenodd" /><path id="985" transform="matrix(1 0 0 -1 0 841)" d="M188.33 362.81L188.81 362.81L188.81 362.81L188.81 363.29L188.81 363.29L188.33 363.29z" stroke="none" fill="#000000" fill-rule="evenodd" /><path id="986" transform="matrix(1 0 0 -1 0 841)" d="M188.81 362.81L236.45 362.81L236.45 362.81L236.45 363.29L236.45 363.29L188.81 363.29z" stroke="none" fill="#000000" fill-rule="evenodd" /><path id="987" transform="matrix(1 0 0 -1 0 841)" d="M235.73 362.81L236.21 362.81L236.21 362.81L236.21 363.29L236.21 363.29L235.73 363.29z" stroke="none" fill="#000000" fill-rule="evenodd" /><path id="988" transform="matrix(1 0 0 -1 0 841)" d="M236.21 362.81L283.754 362.81L283.754 362.81L283.754 363.29L283.754 363.29L236.21 363.29z" stroke="none" fill="#000000" fill-rule="evenodd" /><path id="989" transform="matrix(1 0 0 -1 0 841)" d="M283.03 362.81L283.51 362.81L283.51 362.81L283.51 363.29L283.51 363.29L283.03 363.29z" stroke="none" fill="#000000" fill-rule="evenodd" /><path id="990" transform="matrix(1 0 0 -1 0 841)" d="M283.51 362.81L331.03 362.81L331.03 362.81L331.03 363.29L331.03 363.29L283.51 363.29z" stroke="none" fill="#000000" fill-rule="evenodd" /><path id="991" transform="matrix(1 0 0 -1 0 841)" d="M330.31 362.81L330.79 362.81L330.79 362.81L330.79 363.29L330.79 363.29L330.31 363.29z" stroke="none" fill="#000000" fill-rule="evenodd" /><path id="992" transform="matrix(1 0 0 -1 0 841)" d="M330.79 362.81L394.894 362.81L394.894 362.81L394.894 363.29L394.894 363.29L330.79 363.29z" stroke="none" fill="#000000" fill-rule="evenodd" /><path id="993" transform="matrix(1 0 0 -1 0 841)" d="M394.18 362.81L394.66 362.81L394.66 362.81L394.66 363.29L394.66 363.29L394.18 363.29z" stroke="none" fill="#000000" fill-rule="evenodd" /><path id="994" transform="matrix(1 0 0 -1 0 841)" d="M394.66 362.81L449.62 362.81L449.62 362.81L449.62 363.29L449.62 363.29L394.66 363.29z" stroke="none" fill="#000000" fill-rule="evenodd" /><path id="995" transform="matrix(1 0 0 -1 0 841)" d="M448.9 362.81L449.38 362.81L449.38 362.81L449.38 363.29L449.38 363.29L448.9 363.29z" stroke="none" fill="#000000" fill-rule="evenodd" /><path id="996" transform="matrix(1 0 0 -1 0 841)" d="M449.38 362.81L505.444 362.81L505.444 362.81L505.444 363.29L505.444 363.29L449.38 363.29z" stroke="none" fill="#000000" fill-rule="evenodd" /><g clip-path="url(#207)"></g><g clip-path="url(#208)"></g><g clip-path="url(#209)"></g><g clip-path="url(#210)"></g><g clip-path="url(#211)"></g><g clip-path="url(#212)"></g><g clip-path="url(#213)"></g><g clip-path="url(#214)"></g><g clip-path="url(#215)"></g><g clip-path="url(#216)"></g><g clip-path="url(#217)"></g><g clip-path="url(#218)"></g><g clip-path="url(#219)"></g><g clip-path="url(#220)"></g><g clip-path="url(#221)"></g><g clip-path="url(#222)"></g><g clip-path="url(#223)"></g><g clip-path="url(#224)"></g><g clip-path="url(#225)"></g><g clip-path="url(#226)"></g><g clip-path="url(#227)"></g><g clip-path="url(#228)"></g><g clip-path="url(#229)"></g><g clip-path="url(#230)"></g><g clip-path="url(#231)"></g><g clip-path="url(#232)"></g><g clip-path="url(#233)"></g><g clip-path="url(#234)"></g><g clip-path="url(#235)"></g><g clip-path="url(#236)"></g><g clip-path="url(#237)"></g><g clip-path="url(#238)"></g><g clip-path="url(#239)"></g><g clip-path="url(#240)"></g><g clip-path="url(#241)"></g><g clip-path="url(#242)"></g><g clip-path="url(#243)"></g><g clip-path="url(#244)"></g><g clip-path="url(#245)"></g><g clip-path="url(#246)"></g><g clip-path="url(#247)"></g><g clip-path="url(#248)"></g><g clip-path="url(#249)"></g><g clip-path="url(#250)"></g><g clip-path="url(#251)"></g><g clip-path="url(#252)"></g><g clip-path="url(#253)"></g><g clip-path="url(#254)"></g><g clip-path="url(#255)"></g><g clip-path="url(#256)"></g><g clip-path="url(#257)"></g><g clip-path="url(#258)"></g><g clip-path="url(#259)"></g><g clip-path="url(#260)"></g><g clip-path="url(#261)"></g><g clip-path="url(#262)"></g><g clip-path="url(#263)"></g><g clip-path="url(#264)"></g><g clip-path="url(#265)"></g><g clip-path="url(#266)"></g><g clip-path="url(#267)"></g><g clip-path="url(#268)"></g><g clip-path="url(#269)"></g><g clip-path="url(#270)"></g><g clip-path="url(#271)"></g><g clip-path="url(#272)"></g><g clip-path="url(#273)"></g><g clip-path="url(#274)"></g><g clip-path="url(#275)"></g><g clip-path="url(#276)"></g><g clip-path="url(#277)"></g><g clip-path="url(#278)"></g><g clip-path="url(#279)"><g transform="matrix(0.3463158 0 0 0.3481973 215.4 72.92999)"><g transform="matrix(1 0 0 1 0 0)"><image x="0" y="0" xlink:href="img_957.jpg" width="475" height="527" /></g></g></g></g></g></svg>