<svg xmlns="http://www.w3.org/2000/svg" xmlns:xlink="http://www.w3.org/1999/xlink" id="body_130" preserveAspectRatio="xMinYMin meet" viewBox="0 0 793 1121"><defs><clipPath id="1"><path id="" clip-rule="evenodd" d="M0 841L0 -0.9199829L0 -0.9199829L595.32 -0.9199829L595.32 -0.9199829L595.32 841L595.32 841L0 841z" /></clipPath><clipPath id="2"><path id="" clip-rule="evenodd" d="M0 840.9999L595.32 840.9999L595.32 840.9999L595.32 -0.9200439L595.32 -0.9200439L0 -0.9200439z" /></clipPath><clipPath id="3"><path id="" clip-rule="evenodd" d="M8.871E-06 841L595.32 841L595.32 841L595.32 -0.9199829L595.32 -0.9199829L8.871E-06 -0.9199829z" /></clipPath><clipPath id="4"><path id="" clip-rule="evenodd" d="M8.871E-06 841L595.32 841L595.32 841L595.32 -0.9199829L595.32 -0.9199829L8.871E-06 -0.9199829z" /></clipPath><clipPath id="5"><path id="" clip-rule="evenodd" d="M8.871E-06 841L595.32 841L595.32 841L595.32 -0.9199829L595.32 -0.9199829L8.871E-06 -0.9199829z" /></clipPath><clipPath id="6"><path id="" clip-rule="evenodd" d="M8.871E-06 841L595.32 841L595.32 841L595.32 -0.9199829L595.32 -0.9199829L8.871E-06 -0.9199829z" /></clipPath><clipPath id="7"><path id="" clip-rule="evenodd" d="M8.871E-06 841L595.32 841L595.32 841L595.32 -0.9199829L595.32 -0.9199829L8.871E-06 -0.9199829z" /></clipPath><clipPath id="8"><path id="" clip-rule="evenodd" d="M8.871E-06 841L595.32 841L595.32 841L595.32 -0.9199829L595.32 -0.9199829L8.871E-06 -0.9199829z" /></clipPath><clipPath id="9"><path id="" clip-rule="evenodd" d="M8.871E-06 841L595.32 841L595.32 841L595.32 -0.9199829L595.32 -0.9199829L8.871E-06 -0.9199829z" /></clipPath><clipPath id="10"><path id="" clip-rule="evenodd" d="M8.871E-06 841L595.32 841L595.32 841L595.32 -0.9199829L595.32 -0.9199829L8.871E-06 -0.9199829z" /></clipPath><clipPath id="11"><path id="" clip-rule="evenodd" d="M8.871E-06 841L595.32 841L595.32 841L595.32 -0.9199829L595.32 -0.9199829L8.871E-06 -0.9199829z" /></clipPath><clipPath id="12"><path id="" clip-rule="evenodd" d="M8.871E-06 841L595.32 841L595.32 841L595.32 -0.9199829L595.32 -0.9199829L8.871E-06 -0.9199829z" /></clipPath><clipPath id="13"><path id="" clip-rule="evenodd" d="M8.871E-06 841L595.32 841L595.32 841L595.32 -0.9199829L595.32 -0.9199829L8.871E-06 -0.9199829z" /></clipPath><clipPath id="14"><path id="" clip-rule="evenodd" d="M8.871E-06 841L595.32 841L595.32 841L595.32 -0.9199829L595.32 -0.9199829L8.871E-06 -0.9199829z" /></clipPath><clipPath id="15"><path id="" clip-rule="evenodd" d="M8.871E-06 841L595.32 841L595.32 841L595.32 -0.9199829L595.32 -0.9199829L8.871E-06 -0.9199829z" /></clipPath><clipPath id="16"><path id="" clip-rule="evenodd" d="M8.871E-06 841L595.32 841L595.32 841L595.32 -0.9199829L595.32 -0.9199829L8.871E-06 -0.9199829z" /></clipPath><clipPath id="17"><path id="" clip-rule="evenodd" d="M8.871E-06 841L595.32 841L595.32 841L595.32 -0.9199829L595.32 -0.9199829L8.871E-06 -0.9199829z" /></clipPath><clipPath id="18"><path id="" clip-rule="evenodd" d="M8.871E-06 841L595.32 841L595.32 841L595.32 -0.9199829L595.32 -0.9199829L8.871E-06 -0.9199829z" /></clipPath><clipPath id="19"><path id="" clip-rule="evenodd" d="M8.871E-06 841L595.32 841L595.32 841L595.32 -0.9199829L595.32 -0.9199829L8.871E-06 -0.9199829z" /></clipPath><clipPath id="20"><path id="" clip-rule="evenodd" d="M8.871E-06 841L595.32 841L595.32 841L595.32 -0.9199829L595.32 -0.9199829L8.871E-06 -0.9199829z" /></clipPath><clipPath id="21"><path id="" clip-rule="evenodd" d="M8.871E-06 841L595.32 841L595.32 841L595.32 -0.9199829L595.32 -0.9199829L8.871E-06 -0.9199829z" /></clipPath><clipPath id="22"><path id="" clip-rule="evenodd" d="M8.871E-06 841L595.32 841L595.32 841L595.32 -0.9199829L595.32 -0.9199829L8.871E-06 -0.9199829z" /></clipPath><clipPath id="23"><path id="" clip-rule="evenodd" d="M8.871E-06 841L595.32 841L595.32 841L595.32 -0.9199829L595.32 -0.9199829L8.871E-06 -0.9199829z" /></clipPath><clipPath id="24"><path id="" clip-rule="evenodd" d="M8.871E-06 841L595.32 841L595.32 841L595.32 -0.9199829L595.32 -0.9199829L8.871E-06 -0.9199829z" /></clipPath><clipPath id="25"><path id="" clip-rule="evenodd" d="M8.871E-06 841L595.32 841L595.32 841L595.32 -0.9199829L595.32 -0.9199829L8.871E-06 -0.9199829z" /></clipPath><clipPath id="26"><path id="" clip-rule="evenodd" d="M8.871E-06 841L595.32 841L595.32 841L595.32 -0.9199829L595.32 -0.9199829L8.871E-06 -0.9199829z" /></clipPath><clipPath id="27"><path id="" clip-rule="evenodd" d="M8.871E-06 841L595.32 841L595.32 841L595.32 -0.9199829L595.32 -0.9199829L8.871E-06 -0.9199829z" /></clipPath><clipPath id="28"><path id="" clip-rule="evenodd" d="M8.871E-06 841L595.32 841L595.32 841L595.32 -0.9199829L595.32 -0.9199829L8.871E-06 -0.9199829z" /></clipPath><clipPath id="29"><path id="" clip-rule="evenodd" d="M0 840.9999L595.32 840.9999L595.32 840.9999L595.32 -0.9200439L595.32 -0.9200439L0 -0.9200439z" /></clipPath><clipPath id="30"><path id="" clip-rule="evenodd" d="M270.91 266.39L324.411 266.39L324.411 266.39L324.411 203.6403L324.411 203.6403L270.91 203.6403z" /></clipPath><clipPath id="31"><path id="" clip-rule="evenodd" d="M8.871E-06 841L595.32 841L595.32 841L595.32 -0.9199829L595.32 -0.9199829L8.871E-06 -0.9199829z" /></clipPath><clipPath id="32"><path id="" clip-rule="evenodd" d="M8.871E-06 841L595.32 841L595.32 841L595.32 -0.9199829L595.32 -0.9199829L8.871E-06 -0.9199829z" /></clipPath><clipPath id="33"><path id="" clip-rule="evenodd" d="M8.871E-06 841L595.32 841L595.32 841L595.32 -0.9199829L595.32 -0.9199829L8.871E-06 -0.9199829z" /></clipPath><clipPath id="34"><path id="" clip-rule="evenodd" d="M8.871E-06 841L595.32 841L595.32 841L595.32 -0.9199829L595.32 -0.9199829L8.871E-06 -0.9199829z" /></clipPath><clipPath id="35"><path id="" clip-rule="evenodd" d="M8.871E-06 841L595.32 841L595.32 841L595.32 -0.9199829L595.32 -0.9199829L8.871E-06 -0.9199829z" /></clipPath><clipPath id="36"><path id="" clip-rule="evenodd" d="M8.871E-06 841L595.32 841L595.32 841L595.32 -0.9199829L595.32 -0.9199829L8.871E-06 -0.9199829z" /></clipPath><clipPath id="37"><path id="" clip-rule="evenodd" d="M8.871E-06 841L595.32 841L595.32 841L595.32 -0.9199829L595.32 -0.9199829L8.871E-06 -0.9199829z" /></clipPath><clipPath id="38"><path id="" clip-rule="evenodd" d="M8.871E-06 841L595.32 841L595.32 841L595.32 -0.9199829L595.32 -0.9199829L8.871E-06 -0.9199829z" /></clipPath><clipPath id="39"><path id="" clip-rule="evenodd" d="M8.871E-06 841L595.32 841L595.32 841L595.32 -0.9199829L595.32 -0.9199829L8.871E-06 -0.9199829z" /></clipPath><clipPath id="40"><path id="" clip-rule="evenodd" d="M8.871E-06 841L595.32 841L595.32 841L595.32 -0.9199829L595.32 -0.9199829L8.871E-06 -0.9199829z" /></clipPath><clipPath id="41"><path id="" clip-rule="evenodd" d="M8.871E-06 841L595.32 841L595.32 841L595.32 -0.9199829L595.32 -0.9199829L8.871E-06 -0.9199829z" /></clipPath><clipPath id="42"><path id="" clip-rule="evenodd" d="M8.871E-06 841L595.32 841L595.32 841L595.32 -0.9199829L595.32 -0.9199829L8.871E-06 -0.9199829z" /></clipPath><clipPath id="43"><path id="" clip-rule="evenodd" d="M8.871E-06 841L595.32 841L595.32 841L595.32 -0.9199829L595.32 -0.9199829L8.871E-06 -0.9199829z" /></clipPath><clipPath id="44"><path id="" clip-rule="evenodd" d="M8.871E-06 841L595.32 841L595.32 841L595.32 -0.9199829L595.32 -0.9199829L8.871E-06 -0.9199829z" /></clipPath><clipPath id="45"><path id="" clip-rule="evenodd" d="M8.871E-06 841L595.32 841L595.32 841L595.32 -0.9199829L595.32 -0.9199829L8.871E-06 -0.9199829z" /></clipPath><clipPath id="46"><path id="" clip-rule="evenodd" d="M8.871E-06 841L595.32 841L595.32 841L595.32 -0.9199829L595.32 -0.9199829L8.871E-06 -0.9199829z" /></clipPath><clipPath id="47"><path id="" clip-rule="evenodd" d="M8.871E-06 841L595.32 841L595.32 841L595.32 -0.9199829L595.32 -0.9199829L8.871E-06 -0.9199829z" /></clipPath><clipPath id="48"><path id="" clip-rule="evenodd" d="M8.871E-06 841L595.32 841L595.32 841L595.32 -0.9199829L595.32 -0.9199829L8.871E-06 -0.9199829z" /></clipPath><clipPath id="49"><path id="" clip-rule="evenodd" d="M8.871E-06 841L595.32 841L595.32 841L595.32 -0.9199829L595.32 -0.9199829L8.871E-06 -0.9199829z" /></clipPath><clipPath id="50"><path id="" clip-rule="evenodd" d="M8.871E-06 841L595.32 841L595.32 841L595.32 -0.9199829L595.32 -0.9199829L8.871E-06 -0.9199829z" /></clipPath><clipPath id="51"><path id="" clip-rule="evenodd" d="M8.871E-06 841L595.32 841L595.32 841L595.32 -0.9199829L595.32 -0.9199829L8.871E-06 -0.9199829z" /></clipPath><clipPath id="52"><path id="" clip-rule="evenodd" d="M8.871E-06 841L595.32 841L595.32 841L595.32 -0.9199829L595.32 -0.9199829L8.871E-06 -0.9199829z" /></clipPath><clipPath id="53"><path id="" clip-rule="evenodd" d="M8.871E-06 841L595.32 841L595.32 841L595.32 -0.9199829L595.32 -0.9199829L8.871E-06 -0.9199829z" /></clipPath><clipPath id="54"><path id="" clip-rule="evenodd" d="M8.871E-06 841L595.32 841L595.32 841L595.32 -0.9199829L595.32 -0.9199829L8.871E-06 -0.9199829z" /></clipPath><clipPath id="55"><path id="" clip-rule="evenodd" d="M8.871E-06 841L595.32 841L595.32 841L595.32 -0.9199829L595.32 -0.9199829L8.871E-06 -0.9199829z" /></clipPath><clipPath id="56"><path id="" clip-rule="evenodd" d="M8.871E-06 841L595.32 841L595.32 841L595.32 -0.9199829L595.32 -0.9199829L8.871E-06 -0.9199829z" /></clipPath><clipPath id="57"><path id="" clip-rule="evenodd" d="M8.871E-06 841L595.32 841L595.32 841L595.32 -0.9199829L595.32 -0.9199829L8.871E-06 -0.9199829z" /></clipPath><clipPath id="58"><path id="" clip-rule="evenodd" d="M8.871E-06 841L595.32 841L595.32 841L595.32 -0.9199829L595.32 -0.9199829L8.871E-06 -0.9199829z" /></clipPath><clipPath id="59"><path id="" clip-rule="evenodd" d="M8.871E-06 841L595.32 841L595.32 841L595.32 -0.9199829L595.32 -0.9199829L8.871E-06 -0.9199829z" /></clipPath><clipPath id="60"><path id="" clip-rule="evenodd" d="M8.871E-06 841L595.32 841L595.32 841L595.32 -0.9199829L595.32 -0.9199829L8.871E-06 -0.9199829z" /></clipPath><clipPath id="61"><path id="" clip-rule="evenodd" d="M8.871E-06 841L595.32 841L595.32 841L595.32 -0.9199829L595.32 -0.9199829L8.871E-06 -0.9199829z" /></clipPath><clipPath id="62"><path id="" clip-rule="evenodd" d="M8.871E-06 841L595.32 841L595.32 841L595.32 -0.9199829L595.32 -0.9199829L8.871E-06 -0.9199829z" /></clipPath><clipPath id="63"><path id="" clip-rule="evenodd" d="M8.871E-06 841L595.32 841L595.32 841L595.32 -0.9199829L595.32 -0.9199829L8.871E-06 -0.9199829z" /></clipPath><clipPath id="64"><path id="" clip-rule="evenodd" d="M0 840.9999L595.32 840.9999L595.32 840.9999L595.32 -0.9200439L595.32 -0.9200439L0 -0.9200439z" /></clipPath><clipPath id="65"><path id="" clip-rule="evenodd" d="M251.81 406.29L343.6092 406.29L343.6092 406.29L343.6092 372.5905L343.6092 372.5905L251.81 372.5905z" /></clipPath><clipPath id="66"><path id="" clip-rule="evenodd" d="M8.871E-06 841L595.32 841L595.32 841L595.32 -0.9199829L595.32 -0.9199829L8.871E-06 -0.9199829z" /></clipPath><clipPath id="67"><path id="" clip-rule="evenodd" d="M8.871E-06 841L595.32 841L595.32 841L595.32 -0.9199829L595.32 -0.9199829L8.871E-06 -0.9199829z" /></clipPath><clipPath id="68"><path id="" clip-rule="evenodd" d="M8.871E-06 841L595.32 841L595.32 841L595.32 -0.9199829L595.32 -0.9199829L8.871E-06 -0.9199829z" /></clipPath><clipPath id="69"><path id="" clip-rule="evenodd" d="M8.871E-06 841L595.32 841L595.32 841L595.32 -0.9199829L595.32 -0.9199829L8.871E-06 -0.9199829z" /></clipPath><clipPath id="70"><path id="" clip-rule="evenodd" d="M8.871E-06 841L595.32 841L595.32 841L595.32 -0.9199829L595.32 -0.9199829L8.871E-06 -0.9199829z" /></clipPath><clipPath id="71"><path id="" clip-rule="evenodd" d="M8.871E-06 841L595.32 841L595.32 841L595.32 -0.9199829L595.32 -0.9199829L8.871E-06 -0.9199829z" /></clipPath><clipPath id="72"><path id="" clip-rule="evenodd" d="M8.871E-06 841L595.32 841L595.32 841L595.32 -0.9199829L595.32 -0.9199829L8.871E-06 -0.9199829z" /></clipPath><clipPath id="73"><path id="" clip-rule="evenodd" d="M8.871E-06 841L595.32 841L595.32 841L595.32 -0.9199829L595.32 -0.9199829L8.871E-06 -0.9199829z" /></clipPath><clipPath id="74"><path id="" clip-rule="evenodd" d="M8.871E-06 841L595.32 841L595.32 841L595.32 -0.9199829L595.32 -0.9199829L8.871E-06 -0.9199829z" /></clipPath><clipPath id="75"><path id="" clip-rule="evenodd" d="M8.871E-06 841L595.32 841L595.32 841L595.32 -0.9199829L595.32 -0.9199829L8.871E-06 -0.9199829z" /></clipPath><clipPath id="76"><path id="" clip-rule="evenodd" d="M8.871E-06 841L595.32 841L595.32 841L595.32 -0.9199829L595.32 -0.9199829L8.871E-06 -0.9199829z" /></clipPath><clipPath id="77"><path id="" clip-rule="evenodd" d="M8.871E-06 841L595.32 841L595.32 841L595.32 -0.9199829L595.32 -0.9199829L8.871E-06 -0.9199829z" /></clipPath><clipPath id="78"><path id="" clip-rule="evenodd" d="M8.871E-06 841L595.32 841L595.32 841L595.32 -0.9199829L595.32 -0.9199829L8.871E-06 -0.9199829z" /></clipPath><clipPath id="79"><path id="" clip-rule="evenodd" d="M8.871E-06 841L595.32 841L595.32 841L595.32 -0.9199829L595.32 -0.9199829L8.871E-06 -0.9199829z" /></clipPath><clipPath id="80"><path id="" clip-rule="evenodd" d="M8.871E-06 841L595.32 841L595.32 841L595.32 -0.9199829L595.32 -0.9199829L8.871E-06 -0.9199829z" /></clipPath><clipPath id="81"><path id="" clip-rule="evenodd" d="M8.871E-06 841L595.32 841L595.32 841L595.32 -0.9199829L595.32 -0.9199829L8.871E-06 -0.9199829z" /></clipPath><clipPath id="82"><path id="" clip-rule="evenodd" d="M8.871E-06 841L595.32 841L595.32 841L595.32 -0.9199829L595.32 -0.9199829L8.871E-06 -0.9199829z" /></clipPath><clipPath id="83"><path id="" clip-rule="evenodd" d="M8.871E-06 841L595.32 841L595.32 841L595.32 -0.9199829L595.32 -0.9199829L8.871E-06 -0.9199829z" /></clipPath><clipPath id="84"><path id="" clip-rule="evenodd" d="M8.871E-06 841L595.32 841L595.32 841L595.32 -0.9199829L595.32 -0.9199829L8.871E-06 -0.9199829z" /></clipPath><clipPath id="85"><path id="" clip-rule="evenodd" d="M8.871E-06 841L595.32 841L595.32 841L595.32 -0.9199829L595.32 -0.9199829L8.871E-06 -0.9199829z" /></clipPath><clipPath id="86"><path id="" clip-rule="evenodd" d="M8.871E-06 841L595.32 841L595.32 841L595.32 -0.9199829L595.32 -0.9199829L8.871E-06 -0.9199829z" /></clipPath><clipPath id="87"><path id="" clip-rule="evenodd" d="M8.871E-06 841L595.32 841L595.32 841L595.32 -0.9199829L595.32 -0.9199829L8.871E-06 -0.9199829z" /></clipPath><clipPath id="88"><path id="" clip-rule="evenodd" d="M8.871E-06 841L595.32 841L595.32 841L595.32 -0.9199829L595.32 -0.9199829L8.871E-06 -0.9199829z" /></clipPath><clipPath id="89"><path id="" clip-rule="evenodd" d="M8.871E-06 841L595.32 841L595.32 841L595.32 -0.9199829L595.32 -0.9199829L8.871E-06 -0.9199829z" /></clipPath><clipPath id="90"><path id="" clip-rule="evenodd" d="M8.871E-06 841L595.32 841L595.32 841L595.32 -0.9199829L595.32 -0.9199829L8.871E-06 -0.9199829z" /></clipPath><clipPath id="91"><path id="" clip-rule="evenodd" d="M8.871E-06 841L595.32 841L595.32 841L595.32 -0.9199829L595.32 -0.9199829L8.871E-06 -0.9199829z" /></clipPath><clipPath id="92"><path id="" clip-rule="evenodd" d="M0 840.9999L595.32 840.9999L595.32 840.9999L595.32 -0.9200439L595.32 -0.9200439L0 -0.9200439z" /></clipPath><clipPath id="93"><path id="" clip-rule="evenodd" d="M226.86 518.04L368.5642 518.04L368.5642 518.04L368.5642 463.5399L368.5642 463.5399L226.86 463.5399z" /></clipPath><clipPath id="94"><path id="" clip-rule="evenodd" d="M8.871E-06 841L595.32 841L595.32 841L595.32 -0.9199829L595.32 -0.9199829L8.871E-06 -0.9199829z" /></clipPath><clipPath id="95"><path id="" clip-rule="evenodd" d="M8.871E-06 841L595.32 841L595.32 841L595.32 -0.9199829L595.32 -0.9199829L8.871E-06 -0.9199829z" /></clipPath><clipPath id="96"><path id="" clip-rule="evenodd" d="M8.871E-06 841L595.32 841L595.32 841L595.32 -0.9199829L595.32 -0.9199829L8.871E-06 -0.9199829z" /></clipPath><clipPath id="97"><path id="" clip-rule="evenodd" d="M8.871E-06 841L595.32 841L595.32 841L595.32 -0.9199829L595.32 -0.9199829L8.871E-06 -0.9199829z" /></clipPath><clipPath id="98"><path id="" clip-rule="evenodd" d="M8.871E-06 841L595.32 841L595.32 841L595.32 -0.9199829L595.32 -0.9199829L8.871E-06 -0.9199829z" /></clipPath><clipPath id="99"><path id="" clip-rule="evenodd" d="M8.871E-06 841L595.32 841L595.32 841L595.32 -0.9199829L595.32 -0.9199829L8.871E-06 -0.9199829z" /></clipPath><clipPath id="100"><path id="" clip-rule="evenodd" d="M8.871E-06 841L595.32 841L595.32 841L595.32 -0.9199829L595.32 -0.9199829L8.871E-06 -0.9199829z" /></clipPath><clipPath id="101"><path id="" clip-rule="evenodd" d="M8.871E-06 841L595.32 841L595.32 841L595.32 -0.9199829L595.32 -0.9199829L8.871E-06 -0.9199829z" /></clipPath><clipPath id="102"><path id="" clip-rule="evenodd" d="M8.871E-06 841L595.32 841L595.32 841L595.32 -0.9199829L595.32 -0.9199829L8.871E-06 -0.9199829z" /></clipPath><clipPath id="103"><path id="" clip-rule="evenodd" d="M8.871E-06 841L595.32 841L595.32 841L595.32 -0.9199829L595.32 -0.9199829L8.871E-06 -0.9199829z" /></clipPath><clipPath id="104"><path id="" clip-rule="evenodd" d="M8.871E-06 841L595.32 841L595.32 841L595.32 -0.9199829L595.32 -0.9199829L8.871E-06 -0.9199829z" /></clipPath><clipPath id="105"><path id="" clip-rule="evenodd" d="M8.871E-06 841L595.32 841L595.32 841L595.32 -0.9199829L595.32 -0.9199829L8.871E-06 -0.9199829z" /></clipPath><clipPath id="106"><path id="" clip-rule="evenodd" d="M8.871E-06 841L595.32 841L595.32 841L595.32 -0.9199829L595.32 -0.9199829L8.871E-06 -0.9199829z" /></clipPath><clipPath id="107"><path id="" clip-rule="evenodd" d="M8.871E-06 841L595.32 841L595.32 841L595.32 -0.9199829L595.32 -0.9199829L8.871E-06 -0.9199829z" /></clipPath><clipPath id="108"><path id="" clip-rule="evenodd" d="M8.871E-06 841L595.32 841L595.32 841L595.32 -0.9199829L595.32 -0.9199829L8.871E-06 -0.9199829z" /></clipPath><clipPath id="109"><path id="" clip-rule="evenodd" d="M8.871E-06 841L595.32 841L595.32 841L595.32 -0.9199829L595.32 -0.9199829L8.871E-06 -0.9199829z" /></clipPath><clipPath id="110"><path id="" clip-rule="evenodd" d="M8.871E-06 841L595.32 841L595.32 841L595.32 -0.9199829L595.32 -0.9199829L8.871E-06 -0.9199829z" /></clipPath><clipPath id="111"><path id="" clip-rule="evenodd" d="M8.871E-06 841L595.32 841L595.32 841L595.32 -0.9199829L595.32 -0.9199829L8.871E-06 -0.9199829z" /></clipPath><clipPath id="112"><path id="" clip-rule="evenodd" d="M8.871E-06 841L595.32 841L595.32 841L595.32 -0.9199829L595.32 -0.9199829L8.871E-06 -0.9199829z" /></clipPath><clipPath id="113"><path id="" clip-rule="evenodd" d="M8.871E-06 841L595.32 841L595.32 841L595.32 -0.9199829L595.32 -0.9199829L8.871E-06 -0.9199829z" /></clipPath><clipPath id="114"><path id="" clip-rule="evenodd" d="M8.871E-06 841L595.32 841L595.32 841L595.32 -0.9199829L595.32 -0.9199829L8.871E-06 -0.9199829z" /></clipPath><clipPath id="115"><path id="" clip-rule="evenodd" d="M8.871E-06 841L595.32 841L595.32 841L595.32 -0.9199829L595.32 -0.9199829L8.871E-06 -0.9199829z" /></clipPath><clipPath id="116"><path id="" clip-rule="evenodd" d="M8.871E-06 841L595.32 841L595.32 841L595.32 -0.9199829L595.32 -0.9199829L8.871E-06 -0.9199829z" /></clipPath><clipPath id="117"><path id="" clip-rule="evenodd" d="M8.871E-06 841L595.32 841L595.32 841L595.32 -0.9199829L595.32 -0.9199829L8.871E-06 -0.9199829z" /></clipPath><clipPath id="118"><path id="" clip-rule="evenodd" d="M8.871E-06 841L595.32 841L595.32 841L595.32 -0.9199829L595.32 -0.9199829L8.871E-06 -0.9199829z" /></clipPath><clipPath id="119"><path id="" clip-rule="evenodd" d="M8.871E-06 841L595.32 841L595.32 841L595.32 -0.9199829L595.32 -0.9199829L8.871E-06 -0.9199829z" /></clipPath><clipPath id="120"><path id="" clip-rule="evenodd" d="M8.871E-06 841L595.32 841L595.32 841L595.32 -0.9199829L595.32 -0.9199829L8.871E-06 -0.9199829z" /></clipPath><clipPath id="121"><path id="" clip-rule="evenodd" d="M8.871E-06 841L595.32 841L595.32 841L595.32 -0.9199829L595.32 -0.9199829L8.871E-06 -0.9199829z" /></clipPath><clipPath id="122"><path id="" clip-rule="evenodd" d="M8.871E-06 841L595.32 841L595.32 841L595.32 -0.9199829L595.32 -0.9199829L8.871E-06 -0.9199829z" /></clipPath><clipPath id="123"><path id="" clip-rule="evenodd" d="M8.871E-06 841L595.32 841L595.32 841L595.32 -0.9199829L595.32 -0.9199829L8.871E-06 -0.9199829z" /></clipPath><clipPath id="124"><path id="" clip-rule="evenodd" d="M8.871E-06 841L595.32 841L595.32 841L595.32 -0.9199829L595.32 -0.9199829L8.871E-06 -0.9199829z" /></clipPath><clipPath id="125"><path id="" clip-rule="evenodd" d="M8.871E-06 841L595.32 841L595.32 841L595.32 -0.9199829L595.32 -0.9199829L8.871E-06 -0.9199829z" /></clipPath><clipPath id="126"><path id="" clip-rule="evenodd" d="M8.871E-06 841L595.32 841L595.32 841L595.32 -0.9199829L595.32 -0.9199829L8.871E-06 -0.9199829z" /></clipPath><clipPath id="127"><path id="" clip-rule="evenodd" d="M8.871E-06 841L595.32 841L595.32 841L595.32 -0.9199829L595.32 -0.9199829L8.871E-06 -0.9199829z" /></clipPath><clipPath id="128"><path id="" clip-rule="evenodd" d="M8.871E-06 841L595.32 841L595.32 841L595.32 -0.9199829L595.32 -0.9199829L8.871E-06 -0.9199829z" /></clipPath><clipPath id="129"><path id="" clip-rule="evenodd" d="M8.871E-06 841L595.32 841L595.32 841L595.32 -0.9199829L595.32 -0.9199829L8.871E-06 -0.9199829z" /></clipPath><clipPath id="130"><path id="" clip-rule="evenodd" d="M8.871E-06 841L595.32 841L595.32 841L595.32 -0.9199829L595.32 -0.9199829L8.871E-06 -0.9199829z" /></clipPath><clipPath id="131"><path id="" clip-rule="evenodd" d="M8.871E-06 841L595.32 841L595.32 841L595.32 -0.9199829L595.32 -0.9199829L8.871E-06 -0.9199829z" /></clipPath><clipPath id="132"><path id="" clip-rule="evenodd" d="M8.871E-06 841L595.32 841L595.32 841L595.32 -0.9199829L595.32 -0.9199829L8.871E-06 -0.9199829z" /></clipPath><clipPath id="133"><path id="" clip-rule="evenodd" d="M8.871E-06 841L595.32 841L595.32 841L595.32 -0.9199829L595.32 -0.9199829L8.871E-06 -0.9199829z" /></clipPath><clipPath id="134"><path id="" clip-rule="evenodd" d="M8.871E-06 841L595.32 841L595.32 841L595.32 -0.9199829L595.32 -0.9199829L8.871E-06 -0.9199829z" /></clipPath><clipPath id="135"><path id="" clip-rule="evenodd" d="M8.871E-06 841L595.32 841L595.32 841L595.32 -0.9199829L595.32 -0.9199829L8.871E-06 -0.9199829z" /></clipPath><clipPath id="136"><path id="" clip-rule="evenodd" d="M8.871E-06 841L595.32 841L595.32 841L595.32 -0.9199829L595.32 -0.9199829L8.871E-06 -0.9199829z" /></clipPath><clipPath id="137"><path id="" clip-rule="evenodd" d="M8.871E-06 841L595.32 841L595.32 841L595.32 -0.9199829L595.32 -0.9199829L8.871E-06 -0.9199829z" /></clipPath><clipPath id="138"><path id="" clip-rule="evenodd" d="M8.871E-06 841L595.32 841L595.32 841L595.32 -0.9199829L595.32 -0.9199829L8.871E-06 -0.9199829z" /></clipPath><clipPath id="139"><path id="" clip-rule="evenodd" d="M8.871E-06 841L595.32 841L595.32 841L595.32 -0.9199829L595.32 -0.9199829L8.871E-06 -0.9199829z" /></clipPath><clipPath id="140"><path id="" clip-rule="evenodd" d="M8.871E-06 841L595.32 841L595.32 841L595.32 -0.9199829L595.32 -0.9199829L8.871E-06 -0.9199829z" /></clipPath><clipPath id="141"><path id="" clip-rule="evenodd" d="M8.871E-06 841L595.32 841L595.32 841L595.32 -0.9199829L595.32 -0.9199829L8.871E-06 -0.9199829z" /></clipPath><clipPath id="142"><path id="" clip-rule="evenodd" d="M8.871E-06 841L595.32 841L595.32 841L595.32 -0.9199829L595.32 -0.9199829L8.871E-06 -0.9199829z" /></clipPath><clipPath id="143"><path id="" clip-rule="evenodd" d="M8.871E-06 841L595.32 841L595.32 841L595.32 -0.9199829L595.32 -0.9199829L8.871E-06 -0.9199829z" /></clipPath><clipPath id="144"><path id="" clip-rule="evenodd" d="M8.871E-06 841L595.32 841L595.32 841L595.32 -0.9199829L595.32 -0.9199829L8.871E-06 -0.9199829z" /></clipPath><clipPath id="145"><path id="" clip-rule="evenodd" d="M8.871E-06 841L595.32 841L595.32 841L595.32 -0.9199829L595.32 -0.9199829L8.871E-06 -0.9199829z" /></clipPath><clipPath id="146"><path id="" clip-rule="evenodd" d="M8.871E-06 841L595.32 841L595.32 841L595.32 -0.9199829L595.32 -0.9199829L8.871E-06 -0.9199829z" /></clipPath><clipPath id="147"><path id="" clip-rule="evenodd" d="M8.871E-06 841L595.32 841L595.32 841L595.32 -0.9199829L595.32 -0.9199829L8.871E-06 -0.9199829z" /></clipPath><clipPath id="148"><path id="" clip-rule="evenodd" d="M8.871E-06 841L595.32 841L595.32 841L595.32 -0.9199829L595.32 -0.9199829L8.871E-06 -0.9199829z" /></clipPath><clipPath id="149"><path id="" clip-rule="evenodd" d="M8.871E-06 841L595.32 841L595.32 841L595.32 -0.9199829L595.32 -0.9199829L8.871E-06 -0.9199829z" /></clipPath></defs><g transform="matrix(1.333333 0 0 1.333333 0 0)"><g clip-path="url(#1)"><g clip-path="url(#2)"><path id="1" transform="matrix(1 0 0 -1 0 841)" d="M0 -0.13L595.45 -0.13L595.45 -0.13L595.45 841.92L595.45 841.92L0 841.92z" stroke="none" fill="#F5F1DE" fill-rule="evenodd" /></g><g clip-path="url(#3)"></g><g clip-path="url(#4)"></g><path id="12" transform="matrix(1 0 0 -1 0 841)" d="M89.9 777.72L505.45 777.72L505.45 777.72L505.45 779.27L505.45 779.27L89.9 779.27z" stroke="none" fill="#808080" fill-rule="evenodd" /><path id="13" transform="matrix(1 0 0 -1 0 841)" d="M89.904 779.04L90.144 779.04L90.144 779.04L90.144 779.28L90.144 779.28L89.904 779.28z" stroke="none" fill="#808080" fill-rule="evenodd" /><path id="14" transform="matrix(1 0 0 -1 0 841)" d="M89.904 779.04L90.144 779.04L90.144 779.04L90.144 779.28L90.144 779.28L89.904 779.28z" stroke="none" fill="#808080" fill-rule="evenodd" /><path id="15" transform="matrix(1 0 0 -1 0 841)" d="M90.144 779.04L505.324 779.04L505.324 779.04L505.324 779.28L505.324 779.28L90.144 779.28z" stroke="none" fill="#808080" fill-rule="evenodd" /><path id="16" transform="matrix(1 0 0 -1 0 841)" d="M505.32 779.04L505.56 779.04L505.56 779.04L505.56 779.28L505.56 779.28L505.32 779.28z" stroke="none" fill="#D4D0C8" fill-rule="evenodd" /><path id="17" transform="matrix(1 0 0 -1 0 841)" d="M505.32 779.04L505.56 779.04L505.56 779.04L505.56 779.28L505.56 779.28L505.32 779.28z" stroke="none" fill="#808080" fill-rule="evenodd" /><path id="18" transform="matrix(1 0 0 -1 0 841)" d="M89.904 777.96L90.144 777.96L90.144 777.96L90.144 779.04L90.144 779.04L89.904 779.04z" stroke="none" fill="#808080" fill-rule="evenodd" /><path id="19" transform="matrix(1 0 0 -1 0 841)" d="M505.32 777.96L505.56 777.96L505.56 777.96L505.56 779.04L505.56 779.04L505.32 779.04z" stroke="none" fill="#D4D0C8" fill-rule="evenodd" /><path id="20" transform="matrix(1 0 0 -1 0 841)" d="M89.904 777.72L90.144 777.72L90.144 777.72L90.144 777.96L90.144 777.96L89.904 777.96z" stroke="none" fill="#808080" fill-rule="evenodd" /><path id="21" transform="matrix(1 0 0 -1 0 841)" d="M89.904 777.72L90.144 777.72L90.144 777.72L90.144 777.96L90.144 777.96L89.904 777.96z" stroke="none" fill="#D4D0C8" fill-rule="evenodd" /><path id="22" transform="matrix(1 0 0 -1 0 841)" d="M90.144 777.72L505.324 777.72L505.324 777.72L505.324 777.96L505.324 777.96L90.144 777.96z" stroke="none" fill="#D4D0C8" fill-rule="evenodd" /><path id="23" transform="matrix(1 0 0 -1 0 841)" d="M505.32 777.72L505.56 777.72L505.56 777.72L505.56 777.96L505.56 777.96L505.32 777.96z" stroke="none" fill="#D4D0C8" fill-rule="evenodd" /><path id="24" transform="matrix(1 0 0 -1 0 841)" d="M505.32 777.72L505.56 777.72L505.56 777.72L505.56 777.96L505.56 777.96L505.32 777.96z" stroke="none" fill="#D4D0C8" fill-rule="evenodd" /><g clip-path="url(#5)"></g><g clip-path="url(#6)"></g><g clip-path="url(#7)"></g><g clip-path="url(#8)"></g><g clip-path="url(#9)"></g><g clip-path="url(#10)"></g><g clip-path="url(#11)"></g><g clip-path="url(#12)"></g><g clip-path="url(#13)"></g><g clip-path="url(#14)"></g><g clip-path="url(#15)"></g><g clip-path="url(#16)"></g><g clip-path="url(#17)"></g><g clip-path="url(#18)"></g><g clip-path="url(#19)"></g><g clip-path="url(#20)"></g><g clip-path="url(#21)"></g><g clip-path="url(#22)"></g><g clip-path="url(#23)"></g><g clip-path="url(#24)"></g><g clip-path="url(#25)"></g><g clip-path="url(#26)"></g><g clip-path="url(#27)"></g><g clip-path="url(#28)"></g><g clip-path="url(#29)"><g clip-path="url(#30)"><path id="531" transform="matrix(1 0 0 -1 0 841)" d="M273.9175 617.4141C 273.9175 617.1595 273.9733 616.9153 274.0849 616.6833C 274.1964 616.4504 274.3524 616.2729 274.5529 616.1517C 274.7534 616.0296 274.9639 615.969 275.1839 615.969C 275.506 615.969 275.7829 616.0945 276.0144 616.3465C 276.246 616.5984 276.3617 616.9404 276.3617 617.3734C 276.3617 617.7889 276.2473 618.1162 276.0186 618.356C 275.7898 618.595 275.5019 618.7145 275.1544 618.7153C 274.8099 618.7145 274.5177 618.595 274.2776 618.356C 274.0376 618.1162 273.9175 617.8028 273.9175 617.4141zM277.031 620.008L276.2728 619.9509C 276.2049 620.2401 276.1091 620.4513 275.9846 620.5829C 275.7784 620.7933 275.5245 620.8981 275.2223 620.8989C 274.9794 620.8981 274.7661 620.8331 274.5825 620.7015C 274.3424 620.5318 274.1532 620.2842 274.015 619.9587C 273.8767 619.6331 273.8047 619.1691 273.799 618.5673C 273.9826 618.8383 274.2072 619.0392 274.4725 619.1708C 274.738 619.3015 275.0161 619.3673 275.3068 619.3682C 275.8152 619.3673 276.2481 619.1863 276.6054 618.8236C 276.9626 618.4608 277.1411 617.9924 277.1411 617.4183C 277.1411 617.04 277.0573 616.6893 276.8891 616.3647C 276.721 616.0408 276.4902 615.7924 276.1964 615.6201C 275.9029 615.4478 275.5695 615.3621 275.1968 615.3621C 274.5614 615.3621 274.0432 615.588 273.6423 616.0408C 273.2413 616.4937 273.0408 617.24 273.0408 618.2798C 273.0408 619.4426 273.2626 620.2885 273.7058 620.8167C 274.0929 621.2764 274.6138 621.5059 275.2688 621.5059C 275.7574 621.5059 276.1577 621.3734 276.4696 621.1076C 276.7816 620.8427 276.9688 620.4755 277.031 620.008z" stroke="none" fill="#000000" fill-rule="evenodd" /><path id="532" transform="matrix(1 0 0 -1 0 841)" d="M273.0745 591.0665L273.8751 591.1314C 273.9345 590.7539 274.0723 590.47 274.2882 590.2795C 274.5043 590.0898 274.7647 589.9946 275.0696 589.9946C 275.4369 589.9946 275.7477 590.1288 276.0016 590.3972C 276.2558 590.6647 276.3828 591.0206 276.3828 591.4639C 276.3828 591.8856 276.2607 592.218 276.0165 592.4613C 275.7723 592.7046 275.4523 592.8267 275.057 592.8267C 274.8112 592.8267 274.5897 592.7722 274.3921 592.6648C 274.1944 592.5566 274.0392 592.4163 273.926 592.244L273.926 592.244L273.2101 592.334L273.2101 592.334L273.8116 595.425L273.8116 595.425L276.8996 595.425L276.8996 595.425L276.8996 594.7194L276.8996 594.7194L274.4216 594.7194L274.4216 594.7194L274.0869 593.102C 274.4597 593.3531 274.8508 593.4795 275.2603 593.4795C 275.8026 593.4795 276.2602 593.2968 276.6329 592.9332C 277.0056 592.5695 277.1919 592.1011 277.1919 591.5297C 277.1919 590.9851 277.0282 590.515 276.7005 590.1184C 276.3026 589.631 275.7589 589.3877 275.0696 589.3877C 274.5049 589.3877 274.044 589.54 273.6867 589.8466C 273.3294 590.1531 273.1254 590.56 273.0745 591.0665z" stroke="none" fill="#000000" fill-rule="evenodd" /><path id="533" transform="matrix(1 0 0 -1 0 841)" d="M298.0574 578.6207L298.0574 581.3338L298.0574 581.3338L296.1133 578.6207zM298.0574 576.5028L298.0574 577.9435L298.0574 577.9435L295.3637 577.9435L295.3637 577.9435L295.3637 578.6207L295.3637 578.6207L298.1971 582.52L298.1971 582.52L298.8199 582.52L298.8199 582.52L298.8199 578.6207L298.8199 578.6207L299.6588 578.6207L299.6588 578.6207L299.6588 577.9435L299.6588 577.9435L298.8199 577.9435L298.8199 577.9435L298.8199 576.5028z" stroke="none" fill="#000000" fill-rule="evenodd" /><path id="534" transform="matrix(1 0 0 -1 0 841)" d="M318.157 591.0786L318.9187 591.1773C 319.0063 590.7582 319.1555 590.4561 319.3663 590.2717C 319.5763 590.0873 319.8331 589.9946 320.135 589.9946C 320.4933 589.9946 320.796 590.115 321.0433 590.3557C 321.2905 590.5964 321.4137 590.8951 321.4137 591.2509C 321.4137 591.5903 321.3 591.8699 321.071 592.0899C 320.842 592.3098 320.5514 592.4206 320.1983 592.4206C 320.0543 592.4206 319.8756 592.3929 319.6604 592.3384L319.6604 592.3384L319.7455 592.9869C 319.7958 592.9817 319.8374 592.9782 319.8678 592.9791C 320.1931 592.9782 320.4854 593.0604 320.7448 593.225C 321.0042 593.3886 321.1343 593.6423 321.1343 593.9843C 321.1343 594.2552 321.0398 594.4795 320.8507 594.657C 320.6616 594.8354 320.4169 594.9237 320.1176 594.9246C 319.8218 594.9237 319.5746 594.8336 319.3767 594.6536C 319.179 594.4726 319.0523 594.2016 318.9951 593.8406L318.9951 593.8406L318.2334 593.9722C 318.3262 594.4674 318.5379 594.851 318.8684 595.1228C 319.1989 595.3956 319.6093 595.5315 320.1011 595.5315C 320.4395 595.5315 320.7518 595.4614 321.0372 595.3203C 321.3226 595.1791 321.5403 594.9869 321.6913 594.7436C 321.8431 594.4995 321.9177 594.2414 321.9177 593.9678C 321.9177 593.7081 321.8457 593.4708 321.7026 593.2579C 321.5586 593.044 321.3452 592.8743 321.0623 592.7488C 321.4293 592.6665 321.7147 592.496 321.9186 592.2379C 322.1216 591.9791 322.2231 591.6552 322.2231 591.2673C 322.2231 590.7418 322.0253 590.2959 321.6306 589.9314C 321.235 589.566 320.7353 589.3834 320.1306 589.3834C 319.5858 589.3834 319.133 589.54 318.7729 589.8552C 318.4129 590.1695 318.2073 590.5773 318.157 591.0786z" stroke="none" fill="#000000" fill-rule="evenodd" /><path id="535" transform="matrix(1 0 0 -1 0 841)" d="M322.1598 616.1742L322.1598 615.4642L322.1598 615.4642L318.0547 615.4642C 318.0494 615.6417 318.0789 615.8132 318.144 615.9777C 318.2481 616.2478 318.4155 616.5145 318.6454 616.7776C 318.8762 617.04 319.2085 617.3439 319.6431 617.6893C 320.318 618.2253 320.7743 618.6495 321.012 618.963C 321.2489 619.2764 321.3677 619.5725 321.3677 619.8522C 321.3677 620.1448 321.2593 620.3915 321.0433 620.5924C 320.8272 620.7942 320.5462 620.8946 320.1983 620.8946C 319.8313 620.8946 319.5372 620.7872 319.3177 620.5743C 319.0974 620.3604 318.9855 620.0651 318.9829 619.6877L318.9829 619.6877L318.1987 619.7656C 318.2524 620.3318 318.4546 620.7639 318.8051 621.0609C 319.1547 621.3578 319.6249 621.5059 320.2156 621.5059C 320.8108 621.5059 321.2827 621.3457 321.6306 621.0253C 321.9776 620.7059 322.1511 620.3085 322.1511 619.8357C 322.1511 619.5942 322.1008 619.3578 321.9984 619.1257C 321.8969 618.8928 321.7286 618.6478 321.4926 618.3907C 321.2567 618.1335 320.8654 617.7803 320.3171 617.3318C 319.8591 616.9595 319.5659 616.7067 319.4357 616.5742C 319.3065 616.4417 319.1989 616.3084 319.1139 616.1742z" stroke="none" fill="#000000" fill-rule="evenodd" /><path id="536" transform="matrix(1 0 0 -1 0 841)" d="M298.4851 628.4514L297.7225 628.4514L297.7225 628.4514L297.7225 633.1597C 297.5395 632.99 297.2983 632.8195 297.0007 632.6506C 296.7032 632.48 296.4351 632.3536 296.1983 632.2688L296.1983 632.2688L296.1983 632.9831C 296.6242 633.177 296.9973 633.4125 297.3165 633.6887C 297.6358 633.9649 297.8613 634.2333 297.994 634.493L297.994 634.493L298.4851 634.493z" stroke="none" fill="#000000" fill-rule="evenodd" /><path id="537" transform="matrix(1 0 0 -1 0 841)" d="M275.1234 613.6019L275.1234 597.1168" stroke="#000000" stroke-width="0.8328216" stroke-linecap="round" fill="none" /><path id="538" transform="matrix(1 0 0 -1 0 841)" d="M278.2465 613.6019L278.2465 597.1168" stroke="#000000" stroke-width="0.8328216" stroke-linecap="round" fill="none" /><path id="539" transform="matrix(1 0 0 -1 0 841)" d="M279.0296 590.5375L294.9378 581.3706" stroke="#000000" stroke-width="0.8328216" stroke-linecap="round" fill="none" /><path id="540" transform="matrix(1 0 0 -1 0 841)" d="M301.151 581.8108L316.0941 590.4214" stroke="#000000" stroke-width="0.8328216" stroke-linecap="round" fill="none" /><path id="541" transform="matrix(1 0 0 -1 0 841)" d="M299.5894 584.5106L314.5325 593.1202" stroke="#000000" stroke-width="0.8328216" stroke-linecap="round" fill="none" /><path id="542" transform="matrix(1 0 0 -1 0 841)" d="M320.2009 597.2207L320.2009 613.7057" stroke="#000000" stroke-width="0.8328216" stroke-linecap="round" fill="none" /><path id="543" transform="matrix(1 0 0 -1 0 841)" d="M316.4749 620.9093L301.0521 629.7969" stroke="#000000" stroke-width="0.8328216" stroke-linecap="round" fill="none" /><path id="544" transform="matrix(1 0 0 -1 0 841)" d="M314.9134 618.2097L299.4905 627.0973" stroke="#000000" stroke-width="0.8328216" stroke-linecap="round" fill="none" /><path id="545" transform="matrix(1 0 0 -1 0 841)" d="M295.0775 630.2601L278.6931 620.8193" stroke="#000000" stroke-width="0.8328216" stroke-linecap="round" fill="none" /></g></g><g clip-path="url(#31)"></g><g clip-path="url(#32)"></g><g clip-path="url(#33)"></g><g clip-path="url(#34)"></g><g clip-path="url(#35)"></g><g clip-path="url(#36)"></g><g clip-path="url(#37)"></g><g clip-path="url(#38)"></g><g clip-path="url(#39)"></g><g clip-path="url(#40)"></g><g clip-path="url(#41)"></g><g clip-path="url(#42)"></g><g clip-path="url(#43)"></g><g clip-path="url(#44)"></g><g clip-path="url(#45)"></g><g clip-path="url(#46)"></g><g clip-path="url(#47)"></g><g clip-path="url(#48)"></g><g clip-path="url(#49)"></g><g clip-path="url(#50)"></g><g clip-path="url(#51)"></g><g clip-path="url(#52)"></g><g clip-path="url(#53)"></g><g clip-path="url(#54)"></g><g clip-path="url(#55)"></g><g clip-path="url(#56)"></g><g clip-path="url(#57)"></g><g clip-path="url(#58)"></g><g clip-path="url(#59)"></g><g clip-path="url(#60)"></g><g clip-path="url(#61)"></g><g clip-path="url(#62)"></g><g clip-path="url(#63)"></g><g clip-path="url(#64)"><g clip-path="url(#65)"><path id="834" transform="matrix(1 0 0 -1 0 841)" d="M284.4583 452.0801L318.8586 452.0801" stroke="#000000" stroke-width="0.5922497" fill="none" /></g></g><g clip-path="url(#66)"></g><g clip-path="url(#67)"></g><g clip-path="url(#68)"></g><g clip-path="url(#69)"></g><g clip-path="url(#70)"></g><g clip-path="url(#71)"></g><g clip-path="url(#72)"></g><g clip-path="url(#73)"></g><g clip-path="url(#74)"></g><g clip-path="url(#75)"></g><g clip-path="url(#76)"></g><g clip-path="url(#77)"></g><g clip-path="url(#78)"></g><g clip-path="url(#79)"></g><g clip-path="url(#80)"></g><g clip-path="url(#81)"></g><g clip-path="url(#82)"></g><g clip-path="url(#83)"></g><g clip-path="url(#84)"></g><g clip-path="url(#85)"></g><g clip-path="url(#86)"></g><g clip-path="url(#87)"></g><g clip-path="url(#88)"></g><g clip-path="url(#89)"></g><g clip-path="url(#90)"></g><g clip-path="url(#91)"></g><g clip-path="url(#92)"><g clip-path="url(#93)"><path id="1068" transform="matrix(1 0 0 -1 0 841)" d="M228.7341 359.5201L229.3913 359.6051C 229.4668 359.2441 229.5953 358.9838 229.7766 358.825C 229.9581 358.6661 230.179 358.5863 230.4393 358.5863C 230.7486 358.5863 231.0096 358.69 231.2226 358.8973C 231.4358 359.1047 231.5421 359.362 231.5421 359.6685C 231.5421 359.9609 231.4435 360.2018 231.2463 360.3913C 231.0491 360.5807 230.7985 360.6762 230.4941 360.6762C 230.37 360.6762 230.2156 360.6523 230.0303 360.6053L230.0303 360.6053L230.1034 361.164C 230.1473 361.1595 230.1827 361.1573 230.2094 361.1573C 230.4894 361.1573 230.7413 361.2274 230.9651 361.3691C 231.1891 361.5108 231.3011 361.7286 231.3011 362.0232C 231.3011 362.2566 231.2195 362.4498 231.0565 362.6027C 230.8934 362.7563 230.6828 362.8332 230.4247 362.8332C 230.1692 362.8332 229.9563 362.7549 229.7859 362.5997C 229.6155 362.4438 229.5058 362.2104 229.4571 361.8994L229.4571 361.8994L228.7999 362.0128C 228.88 362.4394 229.0627 362.7698 229.3476 363.0047C 229.6325 363.2389 229.9866 363.356 230.4101 363.3568C 230.7023 363.356 230.9713 363.2956 231.2173 363.174C 231.4632 363.0525 231.6512 362.8869 231.7814 362.6773C 231.9117 362.4677 231.9766 362.2447 231.9766 362.009C 231.9766 361.7852 231.9146 361.5809 231.7906 361.3974C 231.6664 361.2132 231.4825 361.0677 231.239 360.9589C 231.5556 360.888 231.8016 360.7418 231.9769 360.5188C 232.1521 360.2958 232.2396 360.0176 232.2396 359.6827C 232.2396 359.23 232.0693 358.8466 231.7285 358.5319C 231.3877 358.2171 230.9567 358.0597 230.4358 358.0597C 229.966 358.0597 229.5759 358.1947 229.2654 358.4662C 228.9552 358.737 228.7779 359.0883 228.7341 359.5201z" stroke="none" fill="#000000" fill-rule="evenodd" /><path id="1069" transform="matrix(1 0 0 -1 0 841)" d="M232.1848 336.3875L232.1848 335.7759L232.1848 335.7759L228.6463 335.7759C 228.6414 335.9288 228.6671 336.0765 228.723 336.2182C 228.8131 336.4517 228.9574 336.6814 229.1557 336.9074C 229.3543 337.1334 229.6408 337.3952 230.0157 337.6928C 230.5976 338.1544 230.9909 338.5199 231.1953 338.7899C 231.3999 339.0599 231.502 339.315 231.502 339.5559C 231.502 339.808 231.409 340.0206 231.2226 340.1936C 231.0365 340.3674 230.7937 340.4539 230.4941 340.4539C 230.1776 340.4539 229.9246 340.3622 229.7347 340.1779C 229.5448 339.9945 229.4486 339.7394 229.4459 339.4142L229.4459 339.4142L228.7706 339.4821C 228.8169 339.9691 228.9911 340.3413 229.2929 340.5971C 229.5947 340.853 230 340.9805 230.5087 340.9812C 231.0223 340.9805 231.4289 340.8425 231.7285 340.5673C 232.0281 340.2913 232.1776 339.949 232.1776 339.5417C 232.1776 339.3344 232.134 339.13 232.0462 338.9301C 231.9585 338.7295 231.8131 338.5184 231.6097 338.2969C 231.4065 338.0754 231.0689 337.7711 230.5965 337.3847C 230.202 337.064 229.949 336.847 229.8369 336.7321C 229.725 336.618 229.6323 336.5031 229.5592 336.3875z" stroke="none" fill="#000000" fill-rule="evenodd" /><path id="1070" transform="matrix(1 0 0 -1 0 841)" d="M250.6359 324.5885L249.9785 324.5885L249.9785 324.5885L249.9785 328.644C 249.8207 328.4977 249.6128 328.3514 249.3563 328.2053C 249.0998 328.059 248.8687 327.9496 248.6646 327.8767L248.6646 327.8767L248.6646 328.492C 249.0318 328.659 249.3533 328.8617 249.6285 329.0999C 249.9038 329.3379 250.0982 329.5691 250.2126 329.7931L250.2126 329.7931L250.6359 329.7931z" stroke="none" fill="#000000" fill-rule="evenodd" /><path id="1071" transform="matrix(1 0 0 -1 0 841)" d="M266.9168 358.3469L267.6071 358.4036C 267.6587 358.0776 267.7776 357.833 267.963 357.6696C 268.15 357.5056 268.3744 357.4235 268.6369 357.4243C 268.9539 357.4235 269.2217 357.5391 269.4401 357.7703C 269.6592 358.0016 269.7691 358.3073 269.7691 358.69C 269.7691 359.0525 269.6637 359.3389 269.4535 359.5485C 269.2426 359.7588 268.9667 359.8632 268.6264 359.864C 268.414 359.8632 268.2233 359.817 268.0528 359.7237C 267.8823 359.6305 267.7484 359.5097 267.6512 359.3612L267.6512 359.3612L267.0342 359.4395L267.0342 359.4395L267.5525 362.1015L267.5525 362.1015L270.2148 362.1015L270.2148 362.1015L270.2148 361.4936L270.2148 361.4936L268.0782 361.4936L268.0782 361.4936L267.7896 360.1004C 268.1111 360.3174 268.4484 360.4256 268.8014 360.4256C 269.2688 360.4256 269.6637 360.269 269.9845 359.9557C 270.3061 359.6417 270.4669 359.2389 270.4669 358.7466C 270.4669 358.2768 270.3255 357.8718 270.0428 357.5302C 269.6996 357.1103 269.2314 356.9007 268.6369 356.9007C 268.15 356.9007 267.7529 357.0327 267.4448 357.2967C 267.1367 357.56 266.9609 357.9106 266.9168 358.3469z" stroke="none" fill="#000000" fill-rule="evenodd" /><path id="1072" transform="matrix(1 0 0 -1 0 841)" d="M250.2672 371.1643L250.2672 373.5011L250.2672 373.5011L248.5913 371.1643zM250.2672 369.3392L250.2672 370.5803L250.2672 370.5803L247.9451 370.5803L247.9451 370.5803L247.9451 371.1643L247.9451 371.1643L250.3876 374.5229L250.3876 374.5229L250.9246 374.5229L250.9246 374.5229L250.9246 371.1643L250.9246 371.1643L251.6478 371.1643L251.6478 371.1643L251.6478 370.5803L251.6478 370.5803L250.9246 370.5803L250.9246 370.5803L250.9246 369.3392z" stroke="none" fill="#000000" fill-rule="evenodd" /><path id="1073" transform="matrix(1 0 0 -1 0 841)" d="M230.4965 356.5471L230.4965 342.4356" stroke="#000000" stroke-width="0.717944" stroke-linecap="round" fill="none" /><path id="1074" transform="matrix(1 0 0 -1 0 841)" d="M233.1888 356.5471L233.1888 342.4356" stroke="#000000" stroke-width="0.717944" stroke-linecap="round" fill="none" /><path id="1075" transform="matrix(1 0 0 -1 0 841)" d="M234.281 336.4383L247.1943 329.0027" stroke="#000000" stroke-width="0.717944" stroke-linecap="round" fill="none" /><path id="1076" transform="matrix(1 0 0 -1 0 841)" d="M266.1861 362.8183L253.2392 370.273" stroke="#000000" stroke-width="0.717944" stroke-linecap="round" fill="none" /><path id="1077" transform="matrix(1 0 0 -1 0 841)" d="M264.84 360.4927L251.8931 367.9475" stroke="#000000" stroke-width="0.717944" stroke-linecap="round" fill="none" /><path id="1078" transform="matrix(1 0 0 -1 0 841)" d="M246.3447 370.1179L233.4678 362.7034" stroke="#000000" stroke-width="0.717944" stroke-linecap="round" fill="none" /><path id="1079" transform="matrix(1 0 0 -1 0 841)" d="M324.3134 359.9676L324.9641 360.0526C 325.0463 359.6917 325.1735 359.4313 325.3529 359.2725C 325.5324 359.1136 325.7568 359.0338 326.0185 359.0338C 326.3251 359.0338 326.5869 359.1375 326.7963 359.3448C 327.0132 359.5522 327.1179 359.8095 327.1179 360.116C 327.1179 360.4084 327.0207 360.6493 326.8262 360.8388C 326.6243 361.0282 326.3775 361.1237 326.0709 361.1237C 325.9438 361.1237 325.7942 361.0998 325.6072 361.0528L325.6072 361.0528L325.682 361.6115C 325.7269 361.607 325.7568 361.6048 325.7867 361.6048C 326.0634 361.6048 326.3177 361.6749 326.542 361.8166C 326.7664 361.9583 326.8786 362.1761 326.8786 362.4707C 326.8786 362.7041 326.7963 362.8973 326.6318 363.0502C 326.4673 363.2039 326.2578 363.2807 326.0036 363.2807C 325.7418 363.2807 325.5324 363.2024 325.3604 363.0472C 325.1884 362.8914 325.0837 362.6579 325.0314 362.3469L325.0314 362.3469L324.3732 362.4603C 324.4555 362.8869 324.6425 363.2173 324.9267 363.4522C 325.2108 363.6864 325.5623 363.8035 325.9886 363.8043C 326.2803 363.8035 326.5495 363.7431 326.7963 363.6216C 327.0431 363.5 327.2301 363.3344 327.3572 363.1248C 327.4843 362.9152 327.5516 362.6922 327.5516 362.4565C 327.5516 362.2328 327.4918 362.0284 327.3647 361.8449C 327.245 361.6607 327.058 361.5153 326.8187 361.4064C 327.1328 361.3355 327.3796 361.1893 327.5516 360.9663C 327.7311 360.7433 327.8134 360.4651 327.8134 360.1302C 327.8134 359.6775 327.6489 359.2941 327.3048 358.9794C 326.9608 358.6646 326.5345 358.5072 326.011 358.5072C 325.5399 358.5072 325.151 358.6422 324.8444 358.9137C 324.5303 359.1845 324.3508 359.5358 324.3134 359.9676z" stroke="none" fill="#000000" fill-rule="evenodd" /><path id="1080" transform="matrix(1 0 0 -1 0 841)" d="M327.761 336.8351L327.761 336.2234L327.761 336.2234L324.2237 336.2234C 324.2162 336.3763 324.2461 336.524 324.2985 336.6657C 324.3882 336.8992 324.5303 337.1289 324.7322 337.3549C 324.9341 337.5809 325.2183 337.8427 325.5923 338.1403C 326.1756 338.602 326.5645 338.9674 326.7739 339.2374C 326.9758 339.5074 327.0805 339.7625 327.0805 340.0034C 327.0805 340.2555 326.9833 340.4681 326.7963 340.6411C 326.6093 340.8149 326.37 340.9014 326.0709 340.9014C 325.7568 340.9014 325.5025 340.8097 325.3081 340.6255C 325.1211 340.442 325.0239 340.1869 325.0239 339.8617L325.0239 339.8617L324.3433 339.9296C 324.3957 340.4166 324.5677 340.7888 324.8668 341.0446C 325.1735 341.3005 325.5773 341.428 326.0858 341.4287C 326.6019 341.428 327.0057 341.29 327.3048 341.0148C 327.604 340.7388 327.7536 340.3965 327.7536 339.9893C 327.7536 339.7819 327.7087 339.5775 327.619 339.3777C 327.5367 339.177 327.3871 338.9659 327.1852 338.7444C 326.9833 338.5229 326.6467 338.2186 326.1756 337.8322C 325.7792 337.5115 325.5249 337.2945 325.4128 337.1796C 325.3006 337.0655 325.2108 336.9507 325.136 336.8351z" stroke="none" fill="#000000" fill-rule="evenodd" /><path id="1081" transform="matrix(1 0 0 -1 0 841)" d="M346.8838 326.1986L346.2256 326.1986L346.2256 326.1986L346.2256 330.2542C 346.0686 330.1078 345.8592 329.9616 345.6049 329.8155C 345.3507 329.6692 345.1188 329.5598 344.9169 329.4869L344.9169 329.4869L344.9169 330.1021C 345.2834 330.2692 345.6049 330.4722 345.8742 330.7101C 346.1509 330.9481 346.3453 331.1793 346.465 331.403L346.465 331.403L346.8838 331.403z" stroke="none" fill="#000000" fill-rule="evenodd" /><path id="1082" transform="matrix(1 0 0 -1 0 841)" d="M363.1646 359.9572L363.8602 360.0139C 363.905 359.6879 364.0247 359.4433 364.2117 359.2799C 364.3986 359.1158 364.623 359.0338 364.8847 359.0338C 365.2063 359.0338 365.468 359.1494 365.6924 359.3806C 365.9093 359.6111 366.0215 359.9176 366.0215 360.3003C 366.0215 360.6628 365.9168 360.9492 365.6999 361.1588C 365.4905 361.3683 365.2138 361.4735 364.8773 361.4735C 364.6604 361.4735 364.4734 361.4272 364.3014 361.334C 364.1294 361.2408 363.9948 361.12 363.8976 360.9715L363.8976 360.9715L363.2843 361.0498L363.2843 361.0498L363.8004 363.7118L363.8004 363.7118L366.4627 363.7118L366.4627 363.7118L366.4627 363.1039L366.4627 363.1039L364.3313 363.1039L364.3313 363.1039L364.0396 361.7107C 364.3612 361.927 364.6978 362.0359 365.0493 362.0359C 365.5204 362.0359 365.9093 361.8792 366.2309 361.5652C 366.5524 361.252 366.717 360.8492 366.717 360.3562C 366.717 359.8871 366.5749 359.4821 366.2907 359.1405C 365.9467 358.7206 365.483 358.511 364.8847 358.511C 364.3986 358.511 364.0023 358.6422 363.6956 358.907C 363.389 359.1703 363.2095 359.5208 363.1646 359.9572z" stroke="none" fill="#000000" fill-rule="evenodd" /><path id="1083" transform="matrix(1 0 0 -1 0 841)" d="M345.8443 371.6118L345.8443 373.9486L345.8443 373.9486L344.1691 371.6118zM345.8443 369.7867L345.8443 371.0278L345.8443 371.0278L343.5184 371.0278L343.5184 371.0278L343.5184 371.6118L343.5184 371.6118L345.9639 374.9704L345.9639 374.9704L346.5024 374.9704L346.5024 374.9704L346.5024 371.6118L346.5024 371.6118L347.2203 371.6118L347.2203 371.6118L347.2203 371.0278L347.2203 371.0278L346.5024 371.0278L346.5024 371.0278L346.5024 369.7867z" stroke="none" fill="#000000" fill-rule="evenodd" /><path id="1084" transform="matrix(1 0 0 -1 0 841)" d="M326.0709 356.9947L326.0709 342.8831" stroke="#000000" stroke-width="0.717944" stroke-linecap="round" fill="none" /><path id="1085" transform="matrix(1 0 0 -1 0 841)" d="M329.855 336.8858L342.7706 329.4503" stroke="#000000" stroke-width="0.717944" stroke-linecap="round" fill="none" /><path id="1086" transform="matrix(1 0 0 -1 0 841)" d="M331.2012 339.2106L344.1167 331.7759" stroke="#000000" stroke-width="0.717944" stroke-linecap="round" fill="none" /><path id="1087" transform="matrix(1 0 0 -1 0 841)" d="M361.7587 363.2658L348.8133 370.7206" stroke="#000000" stroke-width="0.717944" stroke-linecap="round" fill="none" /><path id="1088" transform="matrix(1 0 0 -1 0 841)" d="M341.918 370.5654L329.0474 363.1509" stroke="#000000" stroke-width="0.717944" stroke-linecap="round" fill="none" /><path id="1089" transform="matrix(1 0 0 -1 0 841)" d="M343.2641 368.2406L330.3935 360.8261" stroke="#000000" stroke-width="0.717944" stroke-linecap="round" fill="none" /><path id="1090" transform="matrix(1 0 0 -1 0 841)" d="M283.9388 348.9991L305.2079 348.9991L305.2079 348.9991L305.2079 349.7151L305.2079 349.7151L283.9388 349.7151z" stroke="none" fill="#000000" fill-rule="evenodd" /><path id="1091" transform="matrix(1 0 0 -1 0 841)" d="M308.2569 349.3571C 308.2569 349.3571 304.6672 347.5522 304.6672 347.5522C 304.6672 347.5522 305.1159 348.5673 305.1159 349.3571C 305.1159 350.1865 304.6672 351.2523 304.6672 351.2523C 304.6672 351.2523 308.2569 349.3571 308.2569 349.3571C 308.2569 349.3571 308.2569 349.3571 308.2569 349.3571z" stroke="#000000" stroke-width="0.1047002" stroke-linecap="round" fill="none" /><path id="1092" transform="matrix(1 0 0 -1 0 841)" d="M308.2569 349.3571C 308.2569 349.3571 304.6672 347.5522 304.6672 347.5522C 304.6672 347.5522 305.1159 348.5673 305.1159 349.3571C 305.1159 350.1865 304.6672 351.2523 304.6672 351.2523C 304.6672 351.2523 308.2569 349.3571 308.2569 349.3571C 308.2569 349.3571 308.2569 349.3571 308.2569 349.3571z" stroke="none" fill="#000000" fill-rule="nonzero" /><path id="1093" transform="matrix(1 0 0 -1 0 841)" d="M280.8875 349.3571C 280.8875 349.3571 284.4772 347.4627 284.4772 347.4627C 284.4772 347.4627 284.0285 348.5285 284.0285 349.3571C 284.0285 350.1477 284.4772 351.1628 284.4772 351.1628C 284.4772 351.1628 280.8875 349.3571 280.8875 349.3571C 280.8875 349.3571 280.8875 349.3571 280.8875 349.3571z" stroke="#000000" stroke-width="0.1047002" stroke-linecap="round" fill="none" /><path id="1094" transform="matrix(1 0 0 -1 0 841)" d="M280.8875 349.3571C 280.8875 349.3571 284.4772 347.4627 284.4772 347.4627C 284.4772 347.4627 284.0285 348.5285 284.0285 349.3571C 284.0285 350.1477 284.4772 351.1628 284.4772 351.1628C 284.4772 351.1628 280.8875 349.3571 280.8875 349.3571C 280.8875 349.3571 280.8875 349.3571 280.8875 349.3571z" stroke="none" fill="#000000" fill-rule="nonzero" /></g></g><g clip-path="url(#94)"></g><g clip-path="url(#95)"></g><g clip-path="url(#96)"></g><g clip-path="url(#97)"></g><g clip-path="url(#98)"></g><g clip-path="url(#99)"></g><g clip-path="url(#100)"></g><g clip-path="url(#101)"></g><g clip-path="url(#102)"></g><g clip-path="url(#103)"></g><g clip-path="url(#104)"></g><g clip-path="url(#105)"></g><g clip-path="url(#106)"></g><g clip-path="url(#107)"></g><g clip-path="url(#108)"></g><g clip-path="url(#109)"></g><g clip-path="url(#110)"></g><g clip-path="url(#111)"></g><g clip-path="url(#112)"></g><g clip-path="url(#113)"></g><g clip-path="url(#114)"></g><g clip-path="url(#115)"></g><g clip-path="url(#116)"></g><g clip-path="url(#117)"></g><g clip-path="url(#118)"></g><g clip-path="url(#119)"></g><g clip-path="url(#120)"></g><g clip-path="url(#121)"></g><g clip-path="url(#122)"></g><g clip-path="url(#123)"></g><g clip-path="url(#124)"></g><g clip-path="url(#125)"></g><g clip-path="url(#126)"></g><g clip-path="url(#127)"></g><g clip-path="url(#128)"></g><g clip-path="url(#129)"></g><g clip-path="url(#130)"></g><g clip-path="url(#131)"></g><g clip-path="url(#132)"></g><g clip-path="url(#133)"></g><g clip-path="url(#134)"></g><g clip-path="url(#135)"></g><g clip-path="url(#136)"></g><g clip-path="url(#137)"></g><g clip-path="url(#138)"></g><g clip-path="url(#139)"></g><g clip-path="url(#140)"></g><g clip-path="url(#141)"></g><g clip-path="url(#142)"></g><g clip-path="url(#143)"></g><g clip-path="url(#144)"></g><g clip-path="url(#145)"></g><g clip-path="url(#146)"></g><g clip-path="url(#147)"></g><g clip-path="url(#148)"></g><g clip-path="url(#149)"></g></g></g></svg>